<svg xmlns="http://www.w3.org/2000/svg" width="101" height="101" viewBox="0 0 101 101">
  <g id="Grupo_128096" data-name="Grupo 128096" transform="translate(-750 -3347)">
    <circle id="Elipse_1147" data-name="Elipse 1147" cx="50.5" cy="50.5" r="50.5" transform="translate(750 3347)" fill="#24cb9f"/>
    <g id="gestion-de-proyectos" transform="translate(767.487 3364.999)">
      <g id="Grupo_113008" data-name="Grupo 113008" transform="translate(1.029 1.016)">
        <path id="Trazado_168035" data-name="Trazado 168035" d="M8,8H52.407V70.968H8Z" transform="translate(-8 -7.999)" fill="#eceff1" fill-rule="evenodd"/>
        <path id="Trazado_168036" data-name="Trazado 168036" d="M182.894,8h22.2V70.968h-22.2Z" transform="translate(-160.691 -7.999)" fill="#c4cccf" fill-rule="evenodd"/>
      </g>
      <g id="Grupo_113009" data-name="Grupo 113009" transform="translate(7.258 7.246)">
        <path id="Trazado_168037" data-name="Trazado 168037" d="M57.07,369.039H68.864v10.9H57.07Z" transform="translate(-57.07 -329.433)" fill="#d5e7ff" fill-rule="evenodd"/>
        <path id="Trazado_168038" data-name="Trazado 168038" d="M103.52,369.039h5.9v10.9h-5.9Z" transform="translate(-97.623 -329.433)" fill="#acceff" fill-rule="evenodd"/>
        <path id="Trazado_168039" data-name="Trazado 168039" d="M57.07,213.055H68.864v10.9H57.07Z" transform="translate(-57.07 -193.252)" fill="#f6dccd" fill-rule="evenodd"/>
        <path id="Trazado_168040" data-name="Trazado 168040" d="M103.52,213.055h5.9v10.9h-5.9Z" transform="translate(-97.623 -193.252)" fill="#f1cbbc" fill-rule="evenodd"/>
        <path id="Trazado_168041" data-name="Trazado 168041" d="M57.07,57.07H68.864v10.9H57.07Z" transform="translate(-57.07 -57.07)" fill="#f9e997" fill-rule="evenodd"/>
        <path id="Trazado_168042" data-name="Trazado 168042" d="M103.52,57.07h5.9v10.9h-5.9Z" transform="translate(-97.623 -57.07)" fill="#f5d844" fill-rule="evenodd"/>
      </g>
      <g id="Grupo_113010" data-name="Grupo 113010" transform="translate(26.874 29.404)">
        <path id="Trazado_168043" data-name="Trazado 168043" d="M245.86,254.195a2.737,2.737,0,0,1,2.842,2.6v26.518a2.737,2.737,0,0,1-2.842,2.6H214.422a2.737,2.737,0,0,1-2.843-2.6V256.793a2.737,2.737,0,0,1,2.843-2.6Z" transform="translate(-211.579 -251.327)" fill="#d5e7ff" fill-rule="evenodd"/>
        <path id="Trazado_168044" data-name="Trazado 168044" d="M373.509,254.2a2.737,2.737,0,0,1,2.842,2.6v26.518a2.737,2.737,0,0,1-2.842,2.6H357.79V254.2Z" transform="translate(-339.228 -251.327)" fill="#acceff" fill-rule="evenodd"/>
        <path id="Trazado_168045" data-name="Trazado 168045" d="M211.579,261.521H248.7v-4.73a2.737,2.737,0,0,0-2.842-2.6H214.422a2.737,2.737,0,0,0-2.843,2.6Z" transform="translate(-211.579 -251.326)" fill="#76e2f8" fill-rule="evenodd"/>
        <path id="Trazado_168046" data-name="Trazado 168046" d="M357.79,261.521h18.562v-4.73a2.737,2.737,0,0,0-2.842-2.6H357.79Z" transform="translate(-339.228 -251.326)" fill="#3aaaff" fill-rule="evenodd"/>
        <path id="Trazado_168047" data-name="Trazado 168047" d="M254.4,231.606h1.381a1.247,1.247,0,0,1,1.243,1.243v4.005a1.247,1.247,0,0,1-1.243,1.243H254.4a1.247,1.247,0,0,1-1.243-1.243v-4.005A1.246,1.246,0,0,1,254.4,231.606Z" transform="translate(-247.883 -231.606)" fill="#697c86" fill-rule="evenodd"/>
        <path id="Trazado_168048" data-name="Trazado 168048" d="M268.392,231.606h.691a1.246,1.246,0,0,1,1.243,1.243v4.005a1.246,1.246,0,0,1-1.243,1.243h-.691Z" transform="translate(-261.179 -231.606)" fill="#3b4a51" fill-rule="evenodd"/>
        <path id="Trazado_168049" data-name="Trazado 168049" d="M343.8,231.606h1.381a1.246,1.246,0,0,1,1.243,1.243v4.005a1.247,1.247,0,0,1-1.243,1.243H343.8a1.247,1.247,0,0,1-1.243-1.243v-4.005A1.246,1.246,0,0,1,343.8,231.606Z" transform="translate(-325.931 -231.606)" fill="#697c86" fill-rule="evenodd"/>
        <path id="Trazado_168050" data-name="Trazado 168050" d="M355.666,231.606h.691a1.247,1.247,0,0,1,1.243,1.243v4.005a1.247,1.247,0,0,1-1.243,1.243h-.691Z" transform="translate(-337.374 -231.606)" fill="#3b4a51" fill-rule="evenodd"/>
        <path id="Trazado_168051" data-name="Trazado 168051" d="M428.734,231.606h1.381a1.247,1.247,0,0,1,1.243,1.243v4.005a1.247,1.247,0,0,1-1.243,1.243h-1.381a1.246,1.246,0,0,1-1.243-1.243v-4.005A1.246,1.246,0,0,1,428.734,231.606Z" transform="translate(-400.08 -231.606)" fill="#697c86" fill-rule="evenodd"/>
        <path id="Trazado_168052" data-name="Trazado 168052" d="M442.721,231.606h.691a1.246,1.246,0,0,1,1.243,1.243v4.005a1.247,1.247,0,0,1-1.243,1.243h-.691Z" transform="translate(-413.377 -231.606)" fill="#3b4a51" fill-rule="evenodd"/>
        <path id="Trazado_168053" data-name="Trazado 168053" d="M260.866,352.419h5.209v5.209h-5.209Z" transform="translate(-254.609 -337.081)" fill="#f9e997" fill-rule="evenodd"/>
        <path id="Trazado_168054" data-name="Trazado 168054" d="M281.384,352.419h2.6v5.209h-2.6Z" transform="translate(-272.522 -337.081)" fill="#f5d844" fill-rule="evenodd"/>
        <path id="Trazado_168055" data-name="Trazado 168055" d="M336.565,352.419h5.209v5.209h-5.209Z" transform="translate(-320.698 -337.081)" fill="#f9e997" fill-rule="evenodd"/>
        <path id="Trazado_168056" data-name="Trazado 168056" d="M357.082,352.419h2.6v5.209h-2.6Z" transform="translate(-338.61 -337.081)" fill="#f5d844" fill-rule="evenodd"/>
        <path id="Trazado_168057" data-name="Trazado 168057" d="M413.68,352.419h5.209v5.209H413.68Z" transform="translate(-388.023 -337.081)" fill="#f9e997" fill-rule="evenodd"/>
        <path id="Trazado_168058" data-name="Trazado 168058" d="M434.2,352.419h2.6v5.209h-2.6Z" transform="translate(-405.934 -337.081)" fill="#f5d844" fill-rule="evenodd"/>
        <path id="Trazado_168059" data-name="Trazado 168059" d="M260.866,422.459h5.209v5.209h-5.209Z" transform="translate(-254.609 -398.23)" fill="#f9e997" fill-rule="evenodd"/>
        <path id="Trazado_168060" data-name="Trazado 168060" d="M281.384,422.459h2.6v5.209h-2.6Z" transform="translate(-272.522 -398.23)" fill="#f5d844" fill-rule="evenodd"/>
        <path id="Trazado_168061" data-name="Trazado 168061" d="M336.565,422.459h5.209v5.209h-5.209Z" transform="translate(-320.698 -398.23)" fill="#f9e997" fill-rule="evenodd"/>
        <path id="Trazado_168062" data-name="Trazado 168062" d="M357.082,422.459h2.6v5.209h-2.6Z" transform="translate(-338.61 -398.23)" fill="#f5d844" fill-rule="evenodd"/>
        <path id="Trazado_168063" data-name="Trazado 168063" d="M413.68,422.459h5.209v5.209H413.68Z" transform="translate(-388.023 -398.23)" fill="#f9e997" fill-rule="evenodd"/>
        <path id="Trazado_168064" data-name="Trazado 168064" d="M434.2,422.459h2.6v5.209h-2.6Z" transform="translate(-405.934 -398.23)" fill="#f5d844" fill-rule="evenodd"/>
      </g>
      <path id="Trazado_168065" data-name="Trazado 168065" d="M61.154,31.26H59.167v-.612a2.261,2.261,0,0,0-2.26-2.256H55.529a2.261,2.261,0,0,0-2.26,2.256v.612H48.1v-.612a2.26,2.26,0,0,0-2.008-2.241V1.016A1.015,1.015,0,0,0,45.078,0H1.03A1.015,1.015,0,0,0,.015,1.016v62.97A1.015,1.015,0,0,0,1.03,65H61.154a3.746,3.746,0,0,0,3.858-3.613V34.869a3.744,3.744,0,0,0-3.858-3.609ZM55.3,30.648a.232.232,0,0,1,.23-.227h1.378a.232.232,0,0,1,.23.227v4.005a.232.232,0,0,1-.23.227H55.529a.231.231,0,0,1-.23-.227Zm-2.03,2.642v1.364a2.261,2.261,0,0,0,2.26,2.256h1.378a2.261,2.261,0,0,0,2.26-2.256V33.289h1.986a1.72,1.72,0,0,1,1.828,1.58v3.717H27.887V34.869a1.72,1.72,0,0,1,1.828-1.58h1.421v1.364a2.261,2.261,0,0,0,2.26,2.256h1.378a2.261,2.261,0,0,0,2.26-2.256V33.289H42.2v1.364a2.261,2.261,0,0,0,2.26,2.256h1.378a2.261,2.261,0,0,0,2.26-2.256V33.289Zm-20.1,1.364V30.648a.232.232,0,0,1,.23-.227h1.378a.232.232,0,0,1,.23.227v4.005a.231.231,0,0,1-.23.227H33.4A.231.231,0,0,1,33.167,34.653Zm12.674-4.232a.232.232,0,0,1,.23.227v4.006a.232.232,0,0,1-.23.227H44.463a.232.232,0,0,1-.23-.227V30.648a.232.232,0,0,1,.23-.227ZM2.045,2.031H44.063v26.4A2.259,2.259,0,0,0,42.2,30.648v.612H37.035v-.612a2.261,2.261,0,0,0-2.26-2.256H33.4a2.261,2.261,0,0,0-2.26,2.256v.612H29.716a3.744,3.744,0,0,0-3.858,3.61V61.388a3.405,3.405,0,0,0,.391,1.583H2.045ZM61.154,62.971H29.715a1.742,1.742,0,0,1-1.828-1.583V40.616H62.982V61.388A1.721,1.721,0,0,1,61.154,62.971ZM38.341,43.729a1.015,1.015,0,0,1,1.015,1.015v5.207a1.015,1.015,0,0,1-1.015,1.015H33.13a1.015,1.015,0,0,1-1.015-1.015V44.744a1.015,1.015,0,0,1,1.015-1.015Zm-1.015,5.207H34.145V45.759h3.181ZM47.95,43.729a1.015,1.015,0,0,1,1.015,1.015v5.207a1.015,1.015,0,0,1-1.015,1.015H42.742a1.015,1.015,0,0,1-1.015-1.015V44.744a1.015,1.015,0,0,1,1.015-1.015Zm-1.015,5.207H43.758V45.759h3.178Zm-8.594,3.685a1.015,1.015,0,0,1,1.015,1.015v5.207a1.015,1.015,0,0,1-1.015,1.015H33.13a1.015,1.015,0,0,1-1.015-1.015V53.636a1.015,1.015,0,0,1,1.015-1.015Zm-1.015,5.207H34.145V54.651h3.181ZM47.95,52.621a1.015,1.015,0,0,1,1.015,1.015v5.207a1.015,1.015,0,0,1-1.015,1.015H42.742a1.015,1.015,0,0,1-1.015-1.015V53.636a1.015,1.015,0,0,1,1.015-1.015Zm-1.015,5.207H43.758V54.651h3.178Zm10.807-14.1a1.015,1.015,0,0,1,1.015,1.015v5.207a1.015,1.015,0,0,1-1.015,1.015H52.531a1.015,1.015,0,0,1-1.015-1.015V44.744a1.015,1.015,0,0,1,1.015-1.015Zm-1.015,5.207H53.546V45.759h3.181Zm1.015,3.685a1.015,1.015,0,0,1,1.015,1.015v5.207a1.015,1.015,0,0,1-1.015,1.015H52.531a1.015,1.015,0,0,1-1.015-1.015V53.636a1.015,1.015,0,0,1,1.015-1.015Zm-1.015,5.207H53.546V54.651h3.181ZM6.244,18.153V7.245A1.015,1.015,0,0,1,7.259,6.23H19.052a1.015,1.015,0,0,1,0,2.03H8.274v8.878h9.763V14.05L16.15,15.763a1.015,1.015,0,0,1-1.4-.033l-2.314-2.31a1.015,1.015,0,0,1,1.434-1.436L15.5,13.61l4.9-4.446a1.015,1.015,0,1,1,1.364,1.5l-1.7,1.54v5.946a1.015,1.015,0,0,1-1.015,1.015H7.259a1.015,1.015,0,0,1-1.015-1.015Zm0,19.8v-10.9a1.015,1.015,0,0,1,1.015-1.015H19.052a1.015,1.015,0,0,1,0,2.03H8.274v8.874h9.763V33.853L16.15,35.566a1.015,1.015,0,0,1-1.4-.034l-2.314-2.314a1.015,1.015,0,1,1,1.435-1.435l1.63,1.63,4.9-4.446a1.015,1.015,0,1,1,1.364,1.5l-1.7,1.54v5.942a1.015,1.015,0,0,1-1.015,1.015H7.259a1.015,1.015,0,0,1-1.015-1.015ZM21.834,48.841a1.015,1.015,0,0,1-.07,1.433l-1.7,1.539v5.943a1.015,1.015,0,0,1-1.015,1.015H7.259a1.015,1.015,0,0,1-1.015-1.015v-10.9a1.015,1.015,0,0,1,1.015-1.015H19.052a1.015,1.015,0,0,1,0,2.03H8.274v8.874h9.763V53.654l-1.888,1.712a1.015,1.015,0,0,1-1.4-.034l-2.314-2.31a1.015,1.015,0,0,1,1.434-1.436l1.63,1.628,4.9-4.443A1.015,1.015,0,0,1,21.834,48.841Zm4.024-41.6A1.015,1.015,0,0,1,26.872,6.23h13.2a1.015,1.015,0,0,1,0,2.03h-13.2a1.015,1.015,0,0,1-1.015-1.015Zm0,5.452a1.015,1.015,0,0,1,1.015-1.015h13.2a1.015,1.015,0,0,1,0,2.03h-13.2A1.015,1.015,0,0,1,25.857,12.7Z" transform="translate(0 0)" fill-rule="evenodd"/>
    </g>
  </g>
</svg>
