<svg xmlns="http://www.w3.org/2000/svg" width="400" height="469.934" viewBox="0 0 400 469.934">
  <g id="Grupo_128092" data-name="Grupo 128092" transform="translate(-1021 -512.863)">
    <path id="Trazado_172628" data-name="Trazado 172628" d="M15,0H385a15,15,0,0,1,15,15V454.934a15,15,0,0,1-15,15H15a15,15,0,0,1-15-15V15A15,15,0,0,1,15,0Z" transform="translate(1021 512.863)" fill="#ffe5cf"/>
    <path id="Trazado_172629" data-name="Trazado 172629" d="M90.5,0C140.482,0,181,40.742,181,91s-40.518,91-90.5,91S0,141.258,0,91,40.518,0,90.5,0Z" transform="translate(1130 570.863)" fill="#ffb476"/>
    <path id="Trazado_172636" data-name="Trazado 172636" d="M18.5,0h241a18.5,18.5,0,0,1,0,37H18.5a18.5,18.5,0,0,1,0-37Z" transform="translate(1082 780.863)" fill="#fff"/>
    <path id="Feature_One" data-name="Feature One" d="M38.792,6.2l2.856,8.9L44.5,6.2h4.061V19H45.463V16.012l.3-6.117L42.668,19H40.629l-3.1-9.114.3,6.126V19H34.741V6.2ZM54.982,19.176a4.889,4.889,0,0,1-3.542-1.305,4.507,4.507,0,0,1-1.354-3.4v-.246a5.84,5.84,0,0,1,.541-2.575A3.955,3.955,0,0,1,52.2,9.925a4.763,4.763,0,0,1,2.461-.611,4.117,4.117,0,0,1,3.164,1.244,4.887,4.887,0,0,1,1.16,3.467v1.151H53.1a2.135,2.135,0,0,0,.694,1.257,2.066,2.066,0,0,0,1.389.457,2.662,2.662,0,0,0,2.2-.984l1.354,1.6a3.784,3.784,0,0,1-1.569,1.217A5.3,5.3,0,0,1,54.982,19.176ZM54.648,11.6q-1.3,0-1.547,1.723h2.988v-.229a1.467,1.467,0,0,0-.36-1.1A1.434,1.434,0,0,0,54.648,11.6ZM63.63,7.126V9.49h1.564v2.057H63.63V15.9a1.111,1.111,0,0,0,.193.747,1.037,1.037,0,0,0,.765.211,4.345,4.345,0,0,0,.738-.053v2.118a5.466,5.466,0,0,1-1.67.255,3.1,3.1,0,0,1-2.259-.721,2.954,2.954,0,0,1-.729-2.188v-4.72H59.456V9.49h1.213V7.126Zm2.092,7.031a5.613,5.613,0,0,1,.554-2.536,3.96,3.96,0,0,1,1.591-1.709,4.791,4.791,0,0,1,2.435-.6,4.373,4.373,0,0,1,3.366,1.323,5.076,5.076,0,0,1,1.23,3.6v.105a4.925,4.925,0,0,1-1.235,3.529,4.384,4.384,0,0,1-3.344,1.305,4.434,4.434,0,0,1-3.261-1.217,4.761,4.761,0,0,1-1.327-3.3Zm2.962.185a3.538,3.538,0,0,0,.413,1.934,1.376,1.376,0,0,0,1.222.615q1.582,0,1.617-2.435v-.3q0-2.558-1.635-2.558-1.485,0-1.608,2.206Zm7.146-.167a5.809,5.809,0,0,1,.976-3.56,3.211,3.211,0,0,1,2.725-1.3,2.731,2.731,0,0,1,2.145,1V5.5h2.971V19H81.982l-.149-1.02a2.8,2.8,0,0,1-2.32,1.2,3.205,3.205,0,0,1-2.689-1.3A5.993,5.993,0,0,1,75.83,14.175Zm2.962.185q0,2.531,1.477,2.531a1.458,1.458,0,0,0,1.406-.826V12.443a1.419,1.419,0,0,0-1.389-.844q-1.371,0-1.485,2.215Zm7.163-.2a5.613,5.613,0,0,1,.554-2.536A3.96,3.96,0,0,1,88.1,9.912a4.791,4.791,0,0,1,2.435-.6A4.373,4.373,0,0,1,93.9,10.637a5.076,5.076,0,0,1,1.23,3.6v.105A4.925,4.925,0,0,1,93.9,17.871a4.384,4.384,0,0,1-3.344,1.305,4.434,4.434,0,0,1-3.261-1.217,4.761,4.761,0,0,1-1.327-3.3Zm2.962.185a3.538,3.538,0,0,0,.413,1.934,1.376,1.376,0,0,0,1.222.615q1.582,0,1.617-2.435v-.3q0-2.558-1.635-2.558-1.485,0-1.608,2.206ZM99.56,19H96.589V5.5H99.56Zm1.45-4.843a5.613,5.613,0,0,1,.554-2.536,3.96,3.96,0,0,1,1.591-1.709,4.791,4.791,0,0,1,2.435-.6,4.373,4.373,0,0,1,3.366,1.323,5.076,5.076,0,0,1,1.23,3.6v.105a4.925,4.925,0,0,1-1.235,3.529,4.384,4.384,0,0,1-3.344,1.305,4.434,4.434,0,0,1-3.261-1.217,4.761,4.761,0,0,1-1.327-3.3Zm2.962.185a3.538,3.538,0,0,0,.413,1.934,1.376,1.376,0,0,0,1.222.615q1.582,0,1.617-2.435v-.3q0-2.558-1.635-2.558-1.485,0-1.608,2.206Zm7.172-.167a6.421,6.421,0,0,1,.475-2.549,3.821,3.821,0,0,1,1.362-1.709,3.591,3.591,0,0,1,2.065-.6,2.855,2.855,0,0,1,2.32,1l.105-.826h2.689V18.64a4.009,4.009,0,0,1-.584,2.184,3.75,3.75,0,0,1-1.692,1.424,6.219,6.219,0,0,1-2.566.5,5.365,5.365,0,0,1-2.026-.4,3.657,3.657,0,0,1-1.5-1.028l1.239-1.74a2.716,2.716,0,0,0,2.18.976,1.764,1.764,0,0,0,1.969-2.021v-.3a2.781,2.781,0,0,1-2.153.94,3.437,3.437,0,0,1-2.812-1.332,5.517,5.517,0,0,1-1.072-3.564Zm2.971.185a3.383,3.383,0,0,0,.439,1.85,1.387,1.387,0,0,0,1.23.681,1.573,1.573,0,0,0,1.4-.642v-4a1.534,1.534,0,0,0-1.38-.65,1.4,1.4,0,0,0-1.239.708A3.858,3.858,0,0,0,114.115,14.359ZM125.075,19H122.1V9.49h2.979ZM123.967,5.676H127.1l-2.443,2.76-2.417,0ZM132.334,19a3.344,3.344,0,0,1-.281-.853,2.754,2.754,0,0,1-2.285,1.028,3.374,3.374,0,0,1-2.285-.813,2.588,2.588,0,0,1-.94-2.043,2.66,2.66,0,0,1,1.143-2.338,5.821,5.821,0,0,1,3.322-.791h.914v-.5q0-1.316-1.134-1.316a.927.927,0,0,0-1.055,1.042h-2.962a2.655,2.655,0,0,1,1.173-2.239,4.931,4.931,0,0,1,2.993-.86,4.323,4.323,0,0,1,2.874.888,3.086,3.086,0,0,1,1.081,2.435v4.21a4.311,4.311,0,0,0,.4,2V19Zm-1.854-1.934a1.652,1.652,0,0,0,.918-.237,1.487,1.487,0,0,0,.523-.536V14.772h-.861q-1.547,0-1.547,1.389a.848.848,0,0,0,.272.655A.986.986,0,0,0,130.48,17.066Zm11.03-.738a.684.684,0,0,0-.4-.606,6.016,6.016,0,0,0-1.5-.475,6.853,6.853,0,0,1-1.828-.646,3.062,3.062,0,0,1-1.1-.971,2.319,2.319,0,0,1-.378-1.31,2.628,2.628,0,0,1,1.081-2.158,4.453,4.453,0,0,1,2.83-.848,4.934,4.934,0,0,1,3.023.853,2.666,2.666,0,0,1,1.143,2.241h-2.971q0-1.143-1.2-1.143a1.194,1.194,0,0,0-.782.259.8.8,0,0,0-.316.646.737.737,0,0,0,.387.642,3.654,3.654,0,0,0,1.235.4,10.671,10.671,0,0,1,1.49.378,2.706,2.706,0,0,1,2.145,2.646,2.491,2.491,0,0,1-1.156,2.118,5.068,5.068,0,0,1-2.993.817,5.172,5.172,0,0,1-2.18-.439,3.645,3.645,0,0,1-1.494-1.2,2.707,2.707,0,0,1-.536-1.591h2.769a1.145,1.145,0,0,0,.439.962,1.808,1.808,0,0,0,1.081.3,1.422,1.422,0,0,0,.91-.246A.787.787,0,0,0,141.51,16.328ZM155.59,19a3.344,3.344,0,0,1-.281-.853,2.754,2.754,0,0,1-2.285,1.028,3.374,3.374,0,0,1-2.285-.813,2.588,2.588,0,0,1-.94-2.043,2.66,2.66,0,0,1,1.143-2.338,5.821,5.821,0,0,1,3.322-.791h.914v-.5q0-1.316-1.134-1.316a.927.927,0,0,0-1.055,1.042h-2.962a2.655,2.655,0,0,1,1.173-2.239,4.931,4.931,0,0,1,2.993-.86,4.323,4.323,0,0,1,2.874.888,3.086,3.086,0,0,1,1.081,2.435v4.21a4.311,4.311,0,0,0,.4,2V19Zm-1.854-1.934a1.652,1.652,0,0,0,.918-.237,1.487,1.487,0,0,0,.523-.536V14.772h-.861q-1.547,0-1.547,1.389a.848.848,0,0,0,.272.655A.986.986,0,0,0,153.736,17.066ZM154.474,5.5H157.6L155.16,8.26l-2.417,0Zm4.966,8.675a6.421,6.421,0,0,1,.475-2.549,3.821,3.821,0,0,1,1.362-1.709,3.591,3.591,0,0,1,2.065-.6,2.855,2.855,0,0,1,2.32,1l.105-.826h2.689V18.64a4.009,4.009,0,0,1-.584,2.184,3.75,3.75,0,0,1-1.692,1.424,6.219,6.219,0,0,1-2.566.5,5.365,5.365,0,0,1-2.026-.4,3.657,3.657,0,0,1-1.5-1.028l1.239-1.74a2.716,2.716,0,0,0,2.18.976,1.764,1.764,0,0,0,1.969-2.021v-.3a2.781,2.781,0,0,1-2.153.94,3.437,3.437,0,0,1-2.812-1.332,5.517,5.517,0,0,1-1.072-3.564Zm2.971.185a3.383,3.383,0,0,0,.439,1.85,1.387,1.387,0,0,0,1.23.681,1.573,1.573,0,0,0,1.4-.642v-4a1.534,1.534,0,0,0-1.38-.65,1.4,1.4,0,0,0-1.239.708A3.858,3.858,0,0,0,162.411,14.359ZM173.265,19h-2.971V9.49h2.971ZM170.119,7.038A1.322,1.322,0,0,1,170.576,6a1.943,1.943,0,0,1,2.373,0,1.322,1.322,0,0,1,.457,1.037,1.322,1.322,0,0,1-.457,1.037,1.943,1.943,0,0,1-2.373,0A1.322,1.322,0,0,1,170.119,7.038ZM178.213,19h-2.971V5.5h2.971Zm6.425.176a4.889,4.889,0,0,1-3.542-1.305,4.507,4.507,0,0,1-1.354-3.4v-.246a5.84,5.84,0,0,1,.541-2.575,3.955,3.955,0,0,1,1.578-1.727,4.763,4.763,0,0,1,2.461-.611,4.117,4.117,0,0,1,3.164,1.244,4.887,4.887,0,0,1,1.16,3.467v1.151h-5.889a2.135,2.135,0,0,0,.694,1.257,2.066,2.066,0,0,0,1.389.457,2.662,2.662,0,0,0,2.2-.984l1.354,1.6a3.784,3.784,0,0,1-1.569,1.217A5.3,5.3,0,0,1,184.638,19.176ZM184.3,11.6q-1.3,0-1.547,1.723h2.988v-.229a1.467,1.467,0,0,0-.36-1.1A1.434,1.434,0,0,0,184.3,11.6Zm10.512,4.729a.684.684,0,0,0-.4-.606,6.016,6.016,0,0,0-1.5-.475,6.853,6.853,0,0,1-1.828-.646,3.062,3.062,0,0,1-1.1-.971,2.319,2.319,0,0,1-.378-1.31,2.628,2.628,0,0,1,1.081-2.158,4.453,4.453,0,0,1,2.83-.848,4.934,4.934,0,0,1,3.023.853,2.666,2.666,0,0,1,1.143,2.241h-2.971q0-1.143-1.2-1.143a1.194,1.194,0,0,0-.782.259.8.8,0,0,0-.316.646.737.737,0,0,0,.387.642,3.654,3.654,0,0,0,1.235.4,10.671,10.671,0,0,1,1.49.378,2.706,2.706,0,0,1,2.145,2.646,2.491,2.491,0,0,1-1.156,2.118,5.068,5.068,0,0,1-2.993.817,5.172,5.172,0,0,1-2.18-.439,3.645,3.645,0,0,1-1.494-1.2,2.707,2.707,0,0,1-.536-1.591h2.769a1.145,1.145,0,0,0,.439.962,1.808,1.808,0,0,0,1.081.3,1.422,1.422,0,0,0,.91-.246A.787.787,0,0,0,194.816,16.328Z" transform="translate(1105 787.863)" fill="#12263f"/>
    <path id="Trazado_167821" data-name="Trazado 167821" d="M25.721,44.93A44.574,44.574,0,0,0,58.478,59.214H2V45.095H25.532Z" transform="translate(1154.354 637.436)" fill="#2efec7"/>
    <path id="Trazado_167822" data-name="Trazado 167822" d="M88.364,92.364h28.592V80.6l23.532,18.826-23.532,18.826V106.483H55.771A44.712,44.712,0,0,1,12,70.878L4,68.831V54.712l7.977-2.024A45.041,45.041,0,0,1,18.4,37.251l-4.236-7.107,9.978-9.978L31.251,24.4a45.042,45.042,0,0,1,15.437-6.424L48.712,10H62.831l2.024,7.977A45.042,45.042,0,0,1,80.292,24.4L87.4,20.166l9.978,9.978-4.236,7.107a45.042,45.042,0,0,1,6.424,15.437l7.978,2.024V68.831l-8,2.071A44.526,44.526,0,0,1,88.364,92.364Z" transform="translate(1157.06 590.167)" fill="#2efec7"/>
    <path id="Trazado_167823" data-name="Trazado 167823" d="M43.592,19A30.592,30.592,0,1,1,13,49.592,30.591,30.591,0,0,1,43.592,19Z" transform="translate(1169.239 602.346)" fill="#e6e9ed"/>
    <path id="Trazado_167824" data-name="Trazado 167824" d="M32.025,38.025a4.6,4.6,0,0,1-3.318,1.388,4.706,4.706,0,1,1,4.706-4.706A4.6,4.6,0,0,1,32.025,38.025Z" transform="translate(1184.125 617.231)" fill="#ff826e"/>
    <path id="Trazado_167825" data-name="Trazado 167825" d="M148.315,100.776,118.662,77.053v14.31H97.455a46.877,46.877,0,0,0,8.13-17.193l8.37-2.165V54.232L105.6,52.116a46.613,46.613,0,0,0-5.636-13.55l4.429-7.429L91.814,18.564,84.385,22.99a46.637,46.637,0,0,0-13.548-5.636L68.722,9H50.938l-2.116,8.359a46.573,46.573,0,0,0-13.548,5.636l-7.429-4.426L15.27,31.142,19.7,38.571a46.651,46.651,0,0,0-5.636,13.55L5.706,54.234V72.013l8.363,2.134a46.6,46.6,0,0,0,8.163,17.216H1v18.826H118.662V124.5ZM5.706,105.483V96.07H26.326a47.564,47.564,0,0,0,13.143,9.413Zm54.125,0A42.5,42.5,0,0,1,18.355,71.749l-.3-1.44-7.643-1.953V57.9l7.639-1.932.3-1.445A41.978,41.978,0,0,1,24.429,39.9l.81-1.231-4.048-6.791,7.394-7.394,6.791,4.05,1.231-.81a41.977,41.977,0,0,1,14.618-6.078l1.445-.3L54.6,13.706H65.058l1.932,7.639,1.445.3a41.977,41.977,0,0,1,14.618,6.078l1.231.81,6.791-4.05,7.394,7.394-4.048,6.791.81,1.231a41.977,41.977,0,0,1,6.078,14.618l.3,1.445,7.641,1.934V68.361L101.6,70.34l-.3,1.433a42.23,42.23,0,0,1-9.931,19.588H76.716A32.876,32.876,0,1,0,59.831,96.07h63.538V86.848l17.412,13.929-17.412,13.929v-9.222Zm0-14.119A28.239,28.239,0,1,1,88.07,63.125,28.27,28.27,0,0,1,59.831,91.364Z" transform="translate(1153 588.813)"/>
    <path id="Trazado_167826" data-name="Trazado 167826" d="M17.26,38.18a23.691,23.691,0,0,0,3.029,4.248l3.506-3.139a18.8,18.8,0,0,1-2.424-3.4Z" transform="translate(1175.004 625.199)"/>
    <path id="Trazado_167827" data-name="Trazado 167827" d="M20.717,32.507l-4.7.289a23.36,23.36,0,0,0,.9,5.144l4.516-1.323A18.84,18.84,0,0,1,20.717,32.507Z" transform="translate(1173.326 620.624)"/>
    <path id="Trazado_167828" data-name="Trazado 167828" d="M21.882,30.027l-4.37-1.746a23.655,23.655,0,0,0-1.388,5.029l4.65.739a18.746,18.746,0,0,1,1.108-4.022Z" transform="translate(1173.466 614.905)"/>
    <path id="Trazado_167829" data-name="Trazado 167829" d="M37.119,45.532a7.05,7.05,0,0,0-4.706-6.627V22H27.706V38.906A7.043,7.043,0,0,0,30.06,52.592a6.944,6.944,0,0,0,3.024-.708l7.079,7.079,3.327-3.327-7.079-7.079A6.944,6.944,0,0,0,37.119,45.532Zm-7.06,2.353a2.353,2.353,0,1,1,2.353-2.353A2.357,2.357,0,0,1,30.06,47.886Z" transform="translate(1182.771 606.405)"/>
  </g>
</svg>
