<svg xmlns="http://www.w3.org/2000/svg" xmlns:xlink="http://www.w3.org/1999/xlink" width="101" height="101" viewBox="0 0 101 101">
  <defs>
    <clipPath id="clip-path">
      <path id="path8438" d="M0-682.665H65v65H0Z" transform="translate(0 682.665)"/>
    </clipPath>
  </defs>
  <g id="Grupo_128094" data-name="Grupo 128094" transform="translate(-750 -3025)">
    <circle id="Elipse_1142" data-name="Elipse 1142" cx="50.5" cy="50.5" r="50.5" transform="translate(750 3025)" fill="#24cb9f"/>
    <g id="g8424" transform="translate(766.764 3725.669)">
      <g id="g8426" transform="translate(31.857 -649.48)">
        <path id="path8428" d="M-105.874,0V4.976l-5.57,4.194-5.57-4.194V0Z" transform="translate(117.014)" fill="#fed2a4"/>
      </g>
      <g id="g8430" transform="translate(31.857 -649.48)">
        <path id="path8432" d="M-24.128-47.289v-4.976h-2.539v4.976l5.57,4.194,1.269-.956Z" transform="translate(26.667 52.265)" fill="#ffbd86"/>
      </g>
      <g id="g8434" transform="translate(0 -682.665)">
        <g id="g8436" clip-path="url(#clip-path)">
          <g id="g8442" transform="translate(5.881 16.635)">
            <path id="path8444" d="M-94.325-150.747h-8.021a1.9,1.9,0,0,1-1.9-1.9v-12.054a1.9,1.9,0,0,1,1.9-1.9h8.021a1.9,1.9,0,0,1,1.9,1.9v6.027l3.943,3.988h-3.943v2.039a1.9,1.9,0,0,1-1.9,1.9" transform="translate(104.25 166.61)" fill="#66bb6a"/>
          </g>
          <g id="g8446" transform="translate(8.839 38.161)">
            <path id="path8448" d="M0-58.6H3.943v-4.195a1.972,1.972,0,0,0-1.972-1.972A1.972,1.972,0,0,0,0-62.795Z" transform="translate(0 64.767)" fill="#fed2a4"/>
          </g>
          <g id="g8450" transform="translate(8.839 38.161)">
            <path id="path8452" d="M-27.784-2.333a1.963,1.963,0,0,0-.952-.246A1.972,1.972,0,0,0-30.708-.607V3.588h1.9V-.607a1.97,1.97,0,0,1,1.019-1.726" transform="translate(30.708 2.579)" fill="#ffbd86"/>
          </g>
          <g id="g8454" transform="translate(7.853 38.161)">
            <path id="path8456" d="M-38.115-171.019a1.9,1.9,0,0,0,1.9-1.9v-2.039l7.222-9.375a3.809,3.809,0,0,1,1.683-1.243l9.187-3.434,5.567,4.194,5.567-4.194L5.459-185.1a5.329,5.329,0,0,1,3.678,5.068v16.89h-37.46v-9.853l-6.756,8.162a3.809,3.809,0,0,1-3.169,1.7h-.068a3.808,3.808,0,0,1-3.808-3.808v-4.078Z" transform="translate(42.125 189.016)" fill="#42a5f5"/>
          </g>
          <g id="g8458" transform="translate(38.697 38.161)">
            <path id="path8460" d="M-12.064-39.859l4.818-3.63-1.79-.564-4.3,3.238Z" transform="translate(13.333 44.053)" fill="#0593fc"/>
          </g>
          <path id="path8462" d="M227.438-122.78h2.539v-11.862h-2.539Z" transform="translate(-205.784 186.819)" fill="#0593fc"/>
          <g id="g8464" transform="translate(7.853 38.161)">
            <path id="path8466" d="M-24.128-209.775v-4.078h4.011a1.9,1.9,0,0,0,1.9-1.9V-217.8l7.222-9.375a3.81,3.81,0,0,1,1.684-1.243l7.49-2.8-.842-.634-9.187,3.434a3.81,3.81,0,0,0-1.684,1.243l-7.222,9.375v2.039a1.9,1.9,0,0,1-1.9,1.9h-4.011v4.078a3.808,3.808,0,0,0,3.808,3.808h.068a3.8,3.8,0,0,0,1.233-.207,3.809,3.809,0,0,1-2.571-3.6" transform="translate(26.667 231.849)" fill="#0593fc"/>
          </g>
          <path id="path8468" d="M257.012-126.719H227.438v-7.924h29.574Z" transform="translate(-205.784 186.819)" fill="#ffca28"/>
          <path id="path8470" d="M227.438-126.719h2.539v-7.924h-2.539Z" transform="translate(-205.784 186.819)" fill="#f9b916"/>
          <g id="g8472" transform="translate(23.31 16.725)">
            <path id="path8474" d="M-43.379,0h-1.912a2.653,2.653,0,0,0-2.653,2.653V4.641a2.653,2.653,0,0,0,2.653,2.653h1.912Z" transform="translate(47.944)" fill="#fed2a4"/>
          </g>
          <g id="g8476" transform="translate(46.98 16.725)">
            <path id="path8478" d="M0,0H1.912A2.653,2.653,0,0,1,4.565,2.653V4.641A2.653,2.653,0,0,1,1.912,7.293H0Z" fill="#fed2a4"/>
          </g>
          <g id="g8480" transform="translate(27.874 12.704)">
            <path id="path8482" d="M0-37.356v9.173a8.824,8.824,0,0,0,8.824,8.824h1.457a8.824,8.824,0,0,0,8.824-8.824v-9.083L9.553-41.287Z" transform="translate(0 41.287)" fill="#fff3de"/>
          </g>
          <g id="g8484" transform="translate(27.874 12.704)">
            <path id="path8486" d="M-24.128-124.53V-133.7l8.269-3.4-1.255-.528-9.553,3.931v9.173a8.824,8.824,0,0,0,8.824,8.824h1.457c.182,0,.362-.007.541-.018a8.823,8.823,0,0,1-8.283-8.806" transform="translate(26.667 137.634)" fill="#ffe5c2"/>
          </g>
          <g id="g8488" transform="translate(24.309 4.895)">
            <path id="path8490" d="M0-112.423H4.381a3.808,3.808,0,0,0,3.808-3.808v-8.022H5.713A5.713,5.713,0,0,0,0-118.54Z" transform="translate(0 124.253)" fill="#546e7a"/>
          </g>
          <g id="g8492" transform="translate(24.309 4.895)">
            <path id="path8494" d="M-77.825-.016v0H-80.3A5.713,5.713,0,0,0-86.014,5.7v6.118h2.539V5.7a5.712,5.712,0,0,1,5.65-5.711" transform="translate(86.014 0.017)" fill="#435860"/>
          </g>
          <g id="g8496" transform="translate(32.498 0.952)">
            <path id="path8498" d="M-97.606,0a7.817,7.817,0,0,1,7.817,7.817v7.956h-14.28a3.808,3.808,0,0,1-3.808-3.808V3.808A3.808,3.808,0,0,1-104.069,0Z" transform="translate(107.877)" fill="#546e7a"/>
          </g>
          <g id="g8500" transform="translate(32.498 0.952)">
            <path id="path8502" d="M-24.128-113.7v-8.156a3.808,3.808,0,0,1,3.808-3.808h-2.539a3.808,3.808,0,0,0-3.808,3.808v8.156a3.808,3.808,0,0,0,3.808,3.808h2.539a3.808,3.808,0,0,1-3.808-3.808" transform="translate(26.667 125.666)" fill="#435860"/>
          </g>
          <g id="g8504" transform="translate(30.905 32.233)">
            <path id="path8506" d="M-3.478,1.075A.951.951,0,0,1-4.05.883l-5.57-4.194A.952.952,0,0,1-10-4.072V-9.048A.952.952,0,0,1-9.048-10a.952.952,0,0,1,.952.952v4.5l4.618,3.477L1.141-4.547v-4.5A.952.952,0,0,1,2.093-10a.952.952,0,0,1,.952.952v4.976a.952.952,0,0,1-.379.761L-2.9.883A.951.951,0,0,1-3.478,1.075Z" transform="translate(10 10)"/>
          </g>
          <g id="g8508" transform="translate(22.358 15.773)">
            <path id="path8510" d="M-54.339-10h1.912a.952.952,0,0,1,.952.952v7.293a.952.952,0,0,1-.952.952h-1.912a3.609,3.609,0,0,1-3.6-3.6V-6.4A3.609,3.609,0,0,1-54.339-10Zm.96,1.9h-.96a1.7,1.7,0,0,0-1.7,1.7v1.988a1.7,1.7,0,0,0,1.7,1.7h.96Z" transform="translate(57.944 10)"/>
          </g>
          <g id="g8512" transform="translate(46.027 15.773)">
            <path id="path8514" d="M-9.048-10h1.912a3.609,3.609,0,0,1,3.6,3.6v1.988a3.609,3.609,0,0,1-3.6,3.6H-9.048A.952.952,0,0,1-10-1.754V-9.048A.952.952,0,0,1-9.048-10Zm1.912,7.293a1.7,1.7,0,0,0,1.7-1.7V-6.4a1.7,1.7,0,0,0-1.7-1.7H-8.1v5.389Z" transform="translate(10 10)"/>
          </g>
          <g id="g8516" transform="translate(40.586 19.245)">
            <path id="path8518" d="M-9.048-6.846A.952.952,0,0,1-10-7.8v-1.25A.952.952,0,0,1-9.048-10a.952.952,0,0,1,.952.952V-7.8A.952.952,0,0,1-9.048-6.846Z" transform="translate(10 10)"/>
          </g>
          <g id="g8520" transform="translate(32.383 19.245)">
            <path id="path8522" d="M-9.048-6.846A.952.952,0,0,1-10-7.8v-1.25A.952.952,0,0,1-9.048-10a.952.952,0,0,1,.952.952V-7.8A.952.952,0,0,1-9.048-6.846Z" transform="translate(10 10)"/>
          </g>
          <g id="g8524" transform="translate(34.087 25.671)">
            <path id="path8526" d="M-56.818-5.708a3.344,3.344,0,0,1-3.34-3.34A.952.952,0,0,1-59.205-10a.952.952,0,0,1,.952.952,1.437,1.437,0,0,0,1.436,1.436,1.437,1.437,0,0,0,1.436-1.436A.952.952,0,0,1-54.43-10a.952.952,0,0,1,.952.952A3.344,3.344,0,0,1-56.818-5.708Z" transform="translate(60.157 10)"/>
          </g>
          <g id="g8528" transform="translate(31.546 0)">
            <path id="path8530" d="M-180.946-131.456h-14.28a4.766,4.766,0,0,1-4.76-4.76v-8.156a4.766,4.766,0,0,1,4.76-4.76h6.463a8.779,8.779,0,0,1,8.769,8.769v1.28a.952.952,0,0,1-.952.952.952.952,0,0,1-.952-.952v-1.28a6.873,6.873,0,0,0-6.865-6.865h-6.463a2.86,2.86,0,0,0-2.856,2.856v8.156a2.86,2.86,0,0,0,2.856,2.856H-181.9v-1.574a.952.952,0,0,1,.952-.952.952.952,0,0,1,.952.952v2.526A.952.952,0,0,1-180.946-131.456Z" transform="translate(199.986 149.133)"/>
          </g>
          <g id="g8532" transform="translate(23.356 3.943)">
            <path id="path8534" d="M-4.667-120.519H-9.048a.952.952,0,0,1-.952-.952v-6.118a6.672,6.672,0,0,1,6.665-6.665H-.858a.952.952,0,0,1,.952.952v8.022A4.766,4.766,0,0,1-4.667-120.519Zm-3.429-1.9h3.429a2.86,2.86,0,0,0,2.856-2.856v-7.07H-3.335a4.766,4.766,0,0,0-4.76,4.76Z" transform="translate(10 134.253)"/>
          </g>
          <g id="g8536" transform="translate(5.881 44.328)">
            <path id="path8538" d="M-18.1-112.421h4.078a1.9,1.9,0,0,0,1.9-1.9v-8.021a1.9,1.9,0,0,0-1.9-1.9H-18.1a1.9,1.9,0,0,0-1.9,1.9v8.021a1.9,1.9,0,0,0,1.9,1.9" transform="translate(20 124.25)" fill="#fff3de"/>
          </g>
          <g id="g8540" transform="translate(5.881 44.328)">
            <path id="path8542" d="M-24.128-94.325v-8.021a1.9,1.9,0,0,1,1.9-1.9h-2.539a1.9,1.9,0,0,0-1.9,1.9v8.021a1.9,1.9,0,0,0,1.9,1.9h2.539a1.9,1.9,0,0,1-1.9-1.9" transform="translate(26.667 104.25)" fill="#ffe5c2"/>
          </g>
          <g id="g8544" transform="translate(6.901 37.209)">
            <path id="path8546" d="M-543.584-151.213a4.781,4.781,0,0,1-4.829-4.76v-4.079a.952.952,0,0,1,.952-.952h4.012a.953.953,0,0,0,.952-.952v-2.039a.952.952,0,0,1,.2-.581l7.222-9.375a4.764,4.764,0,0,1,2.1-1.554l9.188-3.434a.952.952,0,0,1,.906.131l4.994,3.763,4.994-3.763a.952.952,0,0,1,.859-.148l12.443,3.92a6.27,6.27,0,0,1,4.344,5.976v2.953a.952.952,0,0,1-.952.952.952.952,0,0,1-.952-.952v-2.953a4.368,4.368,0,0,0-3.021-4.162l-11.967-3.77-5.175,3.9a.952.952,0,0,1-1.146,0l-5.149-3.88-8.7,3.251a2.861,2.861,0,0,0-1.262.933l-7.024,9.118v1.715a2.86,2.86,0,0,1-2.856,2.856h-3.06v3.127a2.86,2.86,0,0,0,2.856,2.856,2.882,2.882,0,0,0,2.445-1.272.932.932,0,0,1,.059-.079l6.756-8.163a.952.952,0,0,1,1.056-.289.952.952,0,0,1,.629.9v8.9h35.556v-8.835a.952.952,0,0,1,.952-.952.952.952,0,0,1,.952.952v9.788a.952.952,0,0,1-.952.952h-37.46a.952.952,0,0,1-.952-.952v-7.21l-5.041,6.09A4.75,4.75,0,0,1-543.584-151.213Z" transform="translate(548.413 179)"/>
          </g>
          <g id="g8548" transform="translate(50.276 49.502)">
            <path id="path8550" d="M-9.048,5.494A.952.952,0,0,1-10,4.542V-9.048A.952.952,0,0,1-9.048-10a.952.952,0,0,1,.952.952V4.542A.952.952,0,0,1-9.048,5.494Z" transform="translate(10 10)"/>
          </g>
          <g id="g8552" transform="translate(4.929 43.375)">
            <path id="path8554" d="M-23.066-120.516h-4.078A2.86,2.86,0,0,1-30-123.373v-8.021a2.859,2.859,0,0,1,2.856-2.856h4.078a2.86,2.86,0,0,1,2.856,2.856v8.021A2.86,2.86,0,0,1-23.066-120.516Zm-4.078-11.83a.953.953,0,0,0-.952.952v8.021a.953.953,0,0,0,.952.952h4.078a.953.953,0,0,0,.952-.952v-8.021a.953.953,0,0,0-.952-.952Z" transform="translate(30 134.25)"/>
          </g>
          <g id="g8556" transform="translate(8.873 47.319)">
            <path id="path8558" d="M-46.521-8.1h-3.943a.952.952,0,0,1-.952-.952A.952.952,0,0,1-50.464-10h3.943a.952.952,0,0,1,.952.952A.952.952,0,0,1-46.521-8.1Z" transform="translate(51.416 10)"/>
          </g>
          <g id="g8560" transform="translate(8.873 51.262)">
            <path id="path8562" d="M-46.521-8.1h-3.943a.952.952,0,0,1-.952-.952A.952.952,0,0,1-50.464-10h3.943a.952.952,0,0,1,.952.952A.952.952,0,0,1-46.521-8.1Z" transform="translate(51.416 10)"/>
          </g>
          <g id="g8564" transform="translate(11.83 54.969)">
            <path id="path8566" d="M-9.048-5.888A.952.952,0,0,1-10-6.84V-9.048A.952.952,0,0,1-9.048-10a.952.952,0,0,1,.952.952V-6.84A.952.952,0,0,1-9.048-5.888Z" transform="translate(10 10)"/>
          </g>
          <g id="g8568" transform="translate(20.702 49.29)">
            <path id="path8570" d="M-9.048-45.569A.952.952,0,0,1-10-46.521v-3.943a.952.952,0,0,1,.952-.952.952.952,0,0,1,.952.952v3.943A.952.952,0,0,1-9.048-45.569Z" transform="translate(10 51.416)"/>
          </g>
          <g id="g8572" transform="translate(7.887 37.209)">
            <path id="path8574" d="M-5.1-66.7H-9.048A.952.952,0,0,1-10-67.648v-4.195a2.9,2.9,0,0,1,.856-2.067,2.9,2.9,0,0,1,2.067-.856h0a2.927,2.927,0,0,1,2.924,2.924v4.195A.952.952,0,0,1-5.1-66.7ZM-8.1-68.6h2.039v-3.243a1.021,1.021,0,0,0-1.019-1.019,1.013,1.013,0,0,0-.721.3,1.013,1.013,0,0,0-.3.721Z" transform="translate(10 74.766)"/>
          </g>
          <g id="g8576" transform="translate(20.702 51.225)">
            <path id="path8578" d="M-108.42-83.4h-17.3a.952.952,0,0,1-.952-.952.952.952,0,0,1,.952-.952h16.346v-6.02h-27.67v6.02h7.176a.952.952,0,0,1,.952.952.952.952,0,0,1-.952.952h-8.128a.952.952,0,0,1-.952-.952v-7.924a.952.952,0,0,1,.952-.952h29.575a.952.952,0,0,1,.952.952v7.924A.952.952,0,0,1-108.42-83.4Z" transform="translate(138.946 93.228)"/>
          </g>
          <g id="g8580" transform="translate(7.887 21.643)">
            <path id="path8582" d="M-7.076-24.861a.949.949,0,0,1-.673-.279l-1.972-1.972a.952.952,0,0,1,0-1.346.952.952,0,0,1,1.346,0l1.3,1.3,3.27-3.27a.952.952,0,0,1,1.346,0,.952.952,0,0,1,0,1.346L-6.4-25.139A.949.949,0,0,1-7.076-24.861Z" transform="translate(10 30.708)"/>
          </g>
          <g id="g8584" transform="translate(4.929 15.683)">
            <path id="path8586" d="M-103.373-158.843h-8.021a2.86,2.86,0,0,1-2.856-2.856v-12.055a2.859,2.859,0,0,1,2.856-2.856h8.021a2.859,2.859,0,0,1,2.856,2.856v5.636l3.668,3.71a.952.952,0,0,1,.2,1.036.952.952,0,0,1-.879.585h-2.991v1.087A2.86,2.86,0,0,1-103.373-158.843Zm-8.021-15.863a.953.953,0,0,0-.952.952V-161.7a.953.953,0,0,0,.952.952h8.021a.953.953,0,0,0,.952-.952v-2.039a.952.952,0,0,1,.952-.952h1.663l-2.34-2.367a.952.952,0,0,1-.275-.669v-6.027a.953.953,0,0,0-.952-.952Z" transform="translate(114.25 176.61)"/>
          </g>
          <g id="g8588" transform="translate(26.922 15.773)">
            <path id="path8590" d="M1.233,9.811H-.224A9.787,9.787,0,0,1-10,.035V-9.048A.952.952,0,0,1-9.048-10a.952.952,0,0,1,.952.952V.035A7.881,7.881,0,0,0-.224,7.907H1.233A7.881,7.881,0,0,0,9.105.035V-9.048A.952.952,0,0,1,10.057-10a.952.952,0,0,1,.952.952V.035A9.787,9.787,0,0,1,1.233,9.811Z" transform="translate(10 10)"/>
          </g>
        </g>
      </g>
    </g>
  </g>
</svg>
