<svg xmlns="http://www.w3.org/2000/svg" width="101" height="101" viewBox="0 0 101 101">
  <g id="Grupo_128104" data-name="Grupo 128104" transform="translate(-750 -4637.232)">
    <circle id="Elipse_5068" data-name="Elipse 5068" cx="50.5" cy="50.5" r="50.5" transform="translate(750 4637.232)" fill="#24cb9f"/>
    <g id="eficiencia_2_" data-name="eficiencia(2)" transform="translate(773.339 4653.332)">
      <path id="Trazado_168222" data-name="Trazado 168222" d="M397.266,328.2a.911.911,0,0,0-.267.024v3.369a1.707,1.707,0,0,0,.558-3.369A1.4,1.4,0,0,0,397.266,328.2Zm0,0" transform="translate(-348.891 -288.428)" fill="#f9d0b4"/>
      <path id="Trazado_168223" data-name="Trazado 168223" d="M314.587,331.345v-3.1a1.727,1.727,0,0,0-1.987,1.406,1.709,1.709,0,0,0,1.405,1.987,2.3,2.3,0,0,0,.582,0Zm0,0" transform="translate(-274.695 -288.447)" fill="#f9d0b4"/>
      <path id="Trazado_168224" data-name="Trazado 168224" d="M333.925,312.289a4.4,4.4,0,0,1-4.46,1.454.223.223,0,0,0-.267.169v3.345a4.1,4.1,0,0,0,8.192,0v-3.732a.217.217,0,0,0-.218-.218,4.351,4.351,0,0,1-2.957-1.066c-.049-.073-.194-.073-.291.048Zm0,0" transform="translate(-289.307 -274.359)" fill="#f9d0b4"/>
      <path id="Trazado_168225" data-name="Trazado 168225" d="M349.643,384.286a4.112,4.112,0,0,1-1.842-.436v1.527l.654,1.866a.3.3,0,0,0,.267.17h1.988a.3.3,0,0,0,.267-.17l.654-1.866V383.8a4.377,4.377,0,0,1-1.987.485Zm0,0" transform="translate(-305.654 -337.292)" fill="#f9d0b4"/>
      <path id="Trazado_168226" data-name="Trazado 168226" d="M253.868,328.2a.909.909,0,0,0-.267.024v3.369a1.707,1.707,0,1,0,.557-3.369,1.282,1.282,0,0,0-.291-.024Zm0,0" transform="translate(-222.87 -288.428)" fill="#f9d0b4"/>
      <path id="Trazado_168227" data-name="Trazado 168227" d="M171.187,331.345v-3.1a1.727,1.727,0,0,0-1.988,1.406,1.709,1.709,0,0,0,1.406,1.987,2.3,2.3,0,0,0,.582,0v-.291Zm0,0" transform="translate(-148.671 -288.447)" fill="#f9d0b4"/>
      <path id="Trazado_168228" data-name="Trazado 168228" d="M190.527,312.289a4.4,4.4,0,0,1-4.46,1.454.223.223,0,0,0-.267.169v3.345a4.1,4.1,0,1,0,8.192,0v-3.732a.217.217,0,0,0-.218-.218,4.352,4.352,0,0,1-2.957-1.066c-.048-.073-.194-.073-.291.048Zm0,0" transform="translate(-163.286 -274.359)" fill="#f9d0b4"/>
      <path id="Trazado_168229" data-name="Trazado 168229" d="M206.444,384.286a4.11,4.11,0,0,1-1.842-.436v1.527l.654,1.866a.3.3,0,0,0,.266.17h1.988a.3.3,0,0,0,.267-.17l.654-1.866V383.8a4.533,4.533,0,0,1-1.987.485Zm0,0" transform="translate(-179.808 -337.292)" fill="#f9d0b4"/>
      <path id="Trazado_168230" data-name="Trazado 168230" d="M110.465,328.2a.912.912,0,0,0-.267.024v3.369a1.707,1.707,0,0,0,.558-3.369,1.286,1.286,0,0,0-.291-.024Zm0,0" transform="translate(-96.845 -288.428)" fill="#f9d0b4"/>
      <path id="Trazado_168231" data-name="Trazado 168231" d="M27.787,331.345v-3.1a1.727,1.727,0,0,0-1.987,1.406,1.709,1.709,0,0,0,1.406,1.987,2.3,2.3,0,0,0,.581,0v-.291Zm0,0" transform="translate(-22.65 -288.447)" fill="#f9d0b4"/>
      <path id="Trazado_168232" data-name="Trazado 168232" d="M47.124,312.289a4.4,4.4,0,0,1-4.459,1.454.224.224,0,0,0-.267.169v3.345a4.1,4.1,0,1,0,8.192,0v-3.732a.217.217,0,0,0-.218-.218,4.351,4.351,0,0,1-2.957-1.066c-.049-.073-.194-.073-.291.048h0Zm0,0" transform="translate(-37.261 -274.359)" fill="#f9d0b4"/>
      <path id="Trazado_168233" data-name="Trazado 168233" d="M63.041,384.286a4.112,4.112,0,0,1-1.842-.436v1.527l.655,1.866a.3.3,0,0,0,.267.17h1.987a.3.3,0,0,0,.267-.17l.655-1.866V383.8a4.535,4.535,0,0,1-1.988.485Zm0,0" transform="translate(-53.783 -337.292)" fill="#f9d0b4"/>
      <path id="Trazado_168234" data-name="Trazado 168234" d="M309.335,408.434l-.461-8.41a1.631,1.631,0,0,0-1.212-1.478l-3.175-.8-1.915-.945-.654,1.866a.3.3,0,0,1-.267.17h-1.988a.3.3,0,0,1-.267-.17l-.654-1.866-1.915.945-3.175.8a1.6,1.6,0,0,0-1.212,1.478l-.461,8.41a1.606,1.606,0,0,0,1.527,1.7h14.226a1.624,1.624,0,0,0,1.624-1.624c-.024,0-.024-.024-.024-.072Zm0,0" transform="translate(-256.598 -348.716)" fill="#e9e9ea"/>
      <path id="Trazado_168235" data-name="Trazado 168235" d="M165.759,408.434l-.461-8.41a1.631,1.631,0,0,0-1.212-1.478l-3.175-.8L159,396.8l-.654,1.866a.3.3,0,0,1-.267.17h-1.987a.3.3,0,0,1-.267-.17l-.655-1.866-1.914.945-3.2.8a1.6,1.6,0,0,0-1.212,1.478l-.461,8.41a1.606,1.606,0,0,0,1.527,1.7h14.226a1.624,1.624,0,0,0,1.624-1.624v-.072Zm0,0" transform="translate(-130.398 -348.716)" fill="#e9e9ea"/>
      <path id="Trazado_168236" data-name="Trazado 168236" d="M22.359,408.434l-.46-8.41a1.632,1.632,0,0,0-1.212-1.478l-3.2-.8-1.915-.945-.654,1.866a.3.3,0,0,1-.267.17H12.665a.3.3,0,0,1-.267-.17l-.654-1.866-1.915.945-3.175.8a1.6,1.6,0,0,0-1.212,1.478l-.461,8.41a1.606,1.606,0,0,0,1.527,1.7H20.736a1.624,1.624,0,0,0,1.624-1.624c.025,0,0-.024,0-.072Zm0,0" transform="translate(-4.377 -348.716)" fill="#e9e9ea"/>
      <path id="Trazado_168237" data-name="Trazado 168237" d="M76.248,68.8H35.822a2.424,2.424,0,1,0,0,4.847h40.45a2.424,2.424,0,1,0-.024-4.847Zm0,0" transform="translate(-29.351 -60.463)" fill="#306191"/>
      <path id="Trazado_168238" data-name="Trazado 168238" d="M99.391,71.4H62.6a.807.807,0,0,1-.8-.8V69h38.438v1.624a.847.847,0,0,1-.848.776Zm0,0" transform="translate(-54.312 -60.639)" fill="#457ba8"/>
      <path id="Trazado_168239" data-name="Trazado 168239" d="M68.139,129.445a2.339,2.339,0,0,1,2.012,1.139,2.32,2.32,0,0,1,1.188-.339,2.353,2.353,0,0,1,2.351,2.351v3.078h6.253a.421.421,0,0,1,.121-.1v-1.89a4.261,4.261,0,0,1,4.241-4.241h1.212a2.338,2.338,0,0,1,2.011,1.139,2.321,2.321,0,0,1,1.188-.339,2.353,2.353,0,0,1,2.351,2.351v3.078h6.253a.434.434,0,0,1,.121-.1v-1.89a4.261,4.261,0,0,1,4.241-4.241h1.212a2.332,2.332,0,0,1,1.891.969V108.6H67V129.42h1.139Zm0,0" transform="translate(-58.881 -95.441)" fill="#acdef9"/>
      <path id="Trazado_168240" data-name="Trazado 168240" d="M129,233.94v7.344h3.757V233.6C131.521,233.771,130.26,233.892,129,233.94Zm0,0" transform="translate(-113.368 -205.293)" fill="#60bae2"/>
      <path id="Trazado_168241" data-name="Trazado 168241" d="M287.514,161.418A34.726,34.726,0,0,1,284,164.132V177.68h3.757V161.2Zm0,0" transform="translate(-249.585 -141.665)" fill="#ea4647"/>
      <path id="Trazado_168242" data-name="Trazado 168242" d="M223.919,214.445a2.314,2.314,0,0,1,2.036-.169V204a34.738,34.738,0,0,1-3.757,1.672v7.659A2.312,2.312,0,0,1,223.919,214.445Zm0,0" transform="translate(-195.273 -179.279)" fill="#ffae2c"/>
      <path id="Trazado_168243" data-name="Trazado 168243" d="M193.454,225.236h1.212a1.182,1.182,0,0,1,.291.024V217.6a33.789,33.789,0,0,1-3.757,1.187v7.126a4.107,4.107,0,0,1,2.254-.678Zm0,0" transform="translate(-168.03 -191.233)" fill="#ffcd29"/>
      <path id="Trazado_168244" data-name="Trazado 168244" d="M163.757,234.524V227.4a33.255,33.255,0,0,1-3.757.752v7.683h2.448A4.5,4.5,0,0,1,163.757,234.524Zm0,0" transform="translate(-140.611 -199.842)" fill="#55acd5"/>
      <path id="Trazado_168245" data-name="Trazado 168245" d="M254.387,198.922h2.569V185.4a39.25,39.25,0,0,1-3.757,2.23V197.9a2.54,2.54,0,0,1,1.188,1.018Zm0,0" transform="translate(-222.517 -162.931)" fill="#f75c64"/>
      <path id="Trazado_168246" data-name="Trazado 168246" d="M319.441,286.72a1,1,0,0,1,.266.024v-.194a.217.217,0,0,1,.218-.218h.048a4.51,4.51,0,0,0,4.46-1.454.23.23,0,0,1,.315-.048.024.024,0,0,1,.024.024,4.237,4.237,0,0,0,2.957,1.066.217.217,0,0,1,.218.218v.63a1.772,1.772,0,0,1,1.454.46v-3.078a2.353,2.353,0,0,0-2.351-2.351,2.26,2.26,0,0,0-1.188.339A2.34,2.34,0,0,0,323.852,281H322.64a4.262,4.262,0,0,0-4.241,4.241v1.891a1.425,1.425,0,0,1,1.042-.412Zm0,0" transform="translate(-279.815 -246.948)" fill="#6d6c6b"/>
      <path id="Trazado_168247" data-name="Trazado 168247" d="M176.043,286.72a1,1,0,0,1,.266.024v-.194a.217.217,0,0,1,.218-.218h.048a4.51,4.51,0,0,0,4.46-1.454.229.229,0,0,1,.315-.048.024.024,0,0,1,.025.024,4.235,4.235,0,0,0,2.957,1.066.217.217,0,0,1,.218.218v.63a1.772,1.772,0,0,1,1.454.46v-3.078a2.353,2.353,0,0,0-2.351-2.351,2.258,2.258,0,0,0-1.187.339A2.341,2.341,0,0,0,180.454,281h-1.212A4.262,4.262,0,0,0,175,285.241v1.891a1.424,1.424,0,0,1,1.042-.412Zm0,0" transform="translate(-153.794 -246.948)" fill="#6d6c6b"/>
      <path id="Trazado_168248" data-name="Trazado 168248" d="M32.643,286.72a1,1,0,0,1,.267.024v-.194a.217.217,0,0,1,.218-.218h.049a4.509,4.509,0,0,0,4.459-1.454.23.23,0,0,1,.315-.048.024.024,0,0,1,.024.024,4.237,4.237,0,0,0,2.957,1.066.217.217,0,0,1,.218.218v.63a1.772,1.772,0,0,1,1.454.46v-3.078a2.353,2.353,0,0,0-2.351-2.351,2.261,2.261,0,0,0-1.188.339A2.34,2.34,0,0,0,37.055,281H35.843a4.261,4.261,0,0,0-4.241,4.241v1.891a1.423,1.423,0,0,1,1.042-.412Zm0,0" transform="translate(-27.772 -246.948)" fill="#6d6c6b"/>
      <path id="Trazado_168249" data-name="Trazado 168249" d="M71.854,69.86H31.428a3.03,3.03,0,1,1,0-6.059h40.45a3.03,3.03,0,1,1-.024,6.059ZM31.4,65.013a1.818,1.818,0,0,0,0,3.635h40.45a1.818,1.818,0,0,0,0-3.635Zm0,0" transform="translate(-24.957 -56.07)" fill="#231f20"/>
      <path id="Trazado_168250" data-name="Trazado 168250" d="M93.1,132.084H86.848a.6.6,0,0,1-.606-.606V128.4a1.749,1.749,0,0,0-1.721-1.745,1.665,1.665,0,0,0-.9.242.6.6,0,0,1-.824-.218,1.718,1.718,0,0,0-1.5-.848H80.086a3.63,3.63,0,0,0-3.635,3.635v1.89a.61.61,0,0,1-.218.485l-.073.073a.686.686,0,0,1-.412.169H69.47a.6.6,0,0,1-.606-.606V128.4a1.748,1.748,0,0,0-1.721-1.745,1.664,1.664,0,0,0-.9.242.6.6,0,0,1-.824-.218,1.719,1.719,0,0,0-1.5-.848H62.8a.6.6,0,0,1-.606-.606V104.406a.6.6,0,0,1,.606-.606h37.76a.6.6,0,0,1,.606.606v21.813a.606.606,0,0,1-1.091.364,1.7,1.7,0,0,0-1.406-.727H97.463a3.631,3.631,0,0,0-3.635,3.635v1.89a.609.609,0,0,1-.218.485l-.072.073a.849.849,0,0,1-.436.145Zm-5.647-1.212h5.162v-1.405a4.846,4.846,0,0,1,4.847-4.847h1.212a2.928,2.928,0,0,1,1.285.291v-19.9H63.387V124.62H63.9a2.94,2.94,0,0,1,2.205.994,2.809,2.809,0,0,1,1.018-.17,2.969,2.969,0,0,1,2.957,2.957v2.472h5.162v-1.405a4.846,4.846,0,0,1,4.847-4.847H81.3a2.941,2.941,0,0,1,2.205.994,2.807,2.807,0,0,1,1.018-.17,2.969,2.969,0,0,1,2.957,2.957Zm0,0" transform="translate(-54.662 -91.222)" fill="#231f20"/>
      <g id="Grupo_113075" data-name="Grupo 113075" transform="translate(0 15.851)">
        <path id="Trazado_168257" data-name="Trazado 168257" d="M112.407,153.888a.606.606,0,1,1,0-1.212,35.487,35.487,0,0,0,23.388-8.8l2.254-1.963a.6.6,0,1,1,.8.9l-2.254,1.963a36.591,36.591,0,0,1-24.187,9.113Zm0,0" transform="translate(-98.253 -140.437)" fill="#231f20"/>
        <path id="Trazado_168258" data-name="Trazado 168258" d="M308.574,145.582a.6.6,0,0,1-.606-.606v-1.963H306a.606.606,0,1,1,0-1.212h2.569a.6.6,0,0,1,.606.606v2.569A.616.616,0,0,1,308.574,145.582Zm0,0" transform="translate(-268.39 -140.468)" fill="#231f20"/>
        <path id="Trazado_168259" data-name="Trazado 168259" d="M110.255,132.013h-1.648a.606.606,0,0,1,0-1.212h1.648a.6.6,0,0,1,.606.606A.616.616,0,0,1,110.255,132.013Zm0,0" transform="translate(-94.913 -130.801)" fill="#231f20"/>
        <path id="Trazado_168260" data-name="Trazado 168260" d="M265.95,293.212h-7.344a.606.606,0,1,1,0-1.212h7.344a.606.606,0,1,1,0,1.212Zm0,0" transform="translate(-226.736 -272.466)" fill="#231f20"/>
        <path id="Trazado_168261" data-name="Trazado 168261" d="M122.726,293.212h-7.319a.606.606,0,1,1,0-1.212h7.319a.606.606,0,1,1,0,1.212Zm0,0" transform="translate(-100.889 -272.466)" fill="#231f20"/>
        <path id="Trazado_168262" data-name="Trazado 168262" d="M392.859,327.8a1.842,1.842,0,0,1-.364-.024.588.588,0,0,1-.509-.63v-3.32a.588.588,0,0,1,.509-.631,2.321,2.321,0,1,1,.751,4.581,2.225,2.225,0,0,1-.388.024Zm.339-3.368v2.108a1.113,1.113,0,0,0,.7-1.406A1.125,1.125,0,0,0,393.2,324.435Zm0,0" transform="translate(-344.484 -299.859)" fill="#231f20"/>
        <path id="Trazado_168263" data-name="Trazado 168263" d="M310.127,327.653a2.327,2.327,0,1,1,0-4.653,1.841,1.841,0,0,1,.364.024.588.588,0,0,1,.509.63V327a.587.587,0,0,1-.509.63A1.844,1.844,0,0,1,310.127,327.653Zm-.339-3.368a1.112,1.112,0,0,0-.7,1.405,1.072,1.072,0,0,0,.7.7Zm0,0" transform="translate(-270.501 -299.709)" fill="#231f20"/>
        <path id="Trazado_168264" data-name="Trazado 168264" d="M328.9,317.753a4.707,4.707,0,0,1-4.7-4.7v-3.3a.817.817,0,0,1,.824-.824.413.413,0,0,1,.169.024,3.86,3.86,0,0,0,3.854-1.236.842.842,0,0,1,1.164-.145c.024.024.048.048.072.048a3.778,3.778,0,0,0,2.545.9.823.823,0,0,1,.8.8v3.733A4.712,4.712,0,0,1,328.9,317.753Zm-3.49-7.537v2.835a3.49,3.49,0,0,0,6.98,0v-3.345a5,5,0,0,1-2.666-.945,5.1,5.1,0,0,1-4.314,1.454Zm4.581-1.769" transform="translate(-284.912 -286.004)" fill="#231f20"/>
        <path id="Trazado_168265" data-name="Trazado 168265" d="M324.808,283.066a.631.631,0,0,1-.412-.169,1.052,1.052,0,0,0-.945-.291.622.622,0,0,1-.7-.509v-.339a5,5,0,0,1-2.666-.945,5.043,5.043,0,0,1-4.387,1.454.617.617,0,0,1-.655.339,1.116,1.116,0,0,0-.872.218.587.587,0,0,1-.848-.1.533.533,0,0,1-.121-.388v-1.89a4.846,4.846,0,0,1,4.847-4.847h1.212a2.94,2.94,0,0,1,2.205.994,2.809,2.809,0,0,1,1.018-.17,2.969,2.969,0,0,1,2.957,2.957v3.078A.654.654,0,0,1,324.808,283.066Zm-.848-1.672a.865.865,0,0,1,.242.049v-2.06a1.748,1.748,0,0,0-1.721-1.745,1.666,1.666,0,0,0-.9.242.6.6,0,0,1-.824-.218,1.709,1.709,0,0,0-1.479-.848h-1.212a3.631,3.631,0,0,0-3.635,3.635v.969a.739.739,0,0,1,.242-.025.8.8,0,0,1,.873-.388,3.859,3.859,0,0,0,3.853-1.236.842.842,0,0,1,1.164-.145c.024.024.048.048.073.048a3.776,3.776,0,0,0,2.545.9.825.825,0,0,1,.775.824Zm0,0" transform="translate(-275.245 -258.054)" fill="#231f20"/>
        <path id="Trazado_168266" data-name="Trazado 168266" d="M359.208,428.485a.6.6,0,0,1-.606-.606.22.22,0,0,1,.024-.121c0-.048.024-.072.024-.121.024-.048.024-.072.048-.1s.049-.072.073-.1a.322.322,0,0,1,.1-.073.183.183,0,0,1,.1-.048.179.179,0,0,1,.121-.025.577.577,0,0,1,.7.485.6.6,0,0,1-.169.558A.57.57,0,0,1,359.208,428.485Zm0,0" transform="translate(-315.146 -391.356)" fill="#231f20"/>
        <path id="Trazado_168267" data-name="Trazado 168267" d="M359.208,446.854h-.121c-.049,0-.073-.024-.121-.024-.049-.024-.073-.024-.1-.048s-.073-.049-.1-.073a.339.339,0,0,1-.073-.1.435.435,0,0,1-.072-.218.218.218,0,0,0-.024-.121.7.7,0,0,1,.169-.436.339.339,0,0,1,.1-.073.44.44,0,0,1,.218-.072.6.6,0,0,1,.557.169.584.584,0,0,1,.17.436.216.216,0,0,1-.025.121c0,.048-.024.072-.024.121-.024.048-.024.072-.048.1s-.049.072-.073.1A1.148,1.148,0,0,1,359.208,446.854Zm0,0" transform="translate(-315.146 -407.519)" fill="#231f20"/>
        <path id="Trazado_168268" data-name="Trazado 168268" d="M359.252,464.679a.218.218,0,0,1-.121-.024c-.049,0-.073-.024-.121-.024-.049-.024-.073-.024-.1-.048s-.073-.049-.1-.073a.338.338,0,0,1-.073-.1.439.439,0,0,1-.072-.218.414.414,0,0,1,0-.242c0-.048.024-.072.024-.121.024-.048.024-.072.048-.1s.049-.073.073-.1a.329.329,0,0,1,.1-.073.439.439,0,0,1,.218-.072.6.6,0,0,1,.557.169.33.33,0,0,1,.073.1.439.439,0,0,1,.072.218.407.407,0,0,1,0,.242.862.862,0,0,1-.1.218c-.025.025-.049.073-.073.1A.7.7,0,0,1,359.252,464.679Zm0,0" transform="translate(-315.19 -423.163)" fill="#231f20"/>
        <path id="Trazado_168269" data-name="Trazado 168269" d="M359.208,482.88a.215.215,0,0,1-.121-.025c-.049,0-.073-.024-.121-.024-.025-.024-.073-.024-.1-.048s-.073-.049-.1-.073a.584.584,0,0,1-.169-.436.218.218,0,0,1,.024-.121c0-.049.024-.073.024-.121.024-.049.024-.073.048-.1s.049-.073.073-.1a.338.338,0,0,1,.1-.073.44.44,0,0,1,.218-.072.6.6,0,0,1,.557.169.337.337,0,0,1,.073.1.883.883,0,0,1,.1.218c0,.048.024.072.024.121a.7.7,0,0,1-.17.436A1.026,1.026,0,0,1,359.208,482.88Zm0,0" transform="translate(-315.146 -439.157)" fill="#231f20"/>
        <path id="Trazado_168270" data-name="Trazado 168270" d="M398.8,452.79a.6.6,0,0,1-.606-.606V446a.606.606,0,1,1,1.212,0v6.18A.6.6,0,0,1,398.8,452.79Zm0,0" transform="translate(-349.945 -407.275)" fill="#231f20"/>
        <path id="Trazado_168271" data-name="Trazado 168271" d="M318.606,452.79a.6.6,0,0,1-.606-.606V446a.606.606,0,1,1,1.212,0v6.18A.6.6,0,0,1,318.606,452.79Zm0,0" transform="translate(-279.464 -407.275)" fill="#231f20"/>
        <path id="Trazado_168272" data-name="Trazado 168272" d="M346.49,383.588H344.5a.891.891,0,0,1-.824-.582l-.655-1.866a.535.535,0,0,1-.024-.194v-1.527a.6.6,0,0,1,.606-.606.485.485,0,0,1,.267.073,3.472,3.472,0,0,0,1.551.364,3.7,3.7,0,0,0,1.672-.412.606.606,0,0,1,.824.242.648.648,0,0,1,.072.291v1.575a.472.472,0,0,1-.024.194l-.654,1.866A.892.892,0,0,1,346.49,383.588Zm-1.745-1.212h1.5l.533-1.527v-.582a4.63,4.63,0,0,1-2.569.024v.533Zm0,0" transform="translate(-301.435 -348.712)" fill="#231f20"/>
        <path id="Trazado_168273" data-name="Trazado 168273" d="M303.359,406.432h-14.13A2.224,2.224,0,0,1,287,404.2v-.121l.461-8.41a2.22,2.22,0,0,1,1.672-2.036l3.126-.775,1.866-.921a.6.6,0,0,1,.8.267c0,.024.025.048.025.072l.557,1.624h1.5l.557-1.624a.6.6,0,0,1,.776-.364c.024,0,.048.024.072.024l1.866.921,3.126.775a2.221,2.221,0,0,1,1.672,2.036l.461,8.41a2.227,2.227,0,0,1-2.108,2.351h-.073Zm-9.307-13.112-1.309.63c-.048.024-.072.024-.121.048l-3.175.8a1.006,1.006,0,0,0-.775.921l-.461,8.41a1.006,1.006,0,0,0,.945,1.066h14.178a1.024,1.024,0,0,0,1.018-1.018v-.048l-.461-8.41a1,1,0,0,0-.775-.921l-3.175-.8c-.049,0-.073-.024-.121-.048l-1.309-.63-.412,1.212a.859.859,0,0,1-.824.582h-1.988a.891.891,0,0,1-.824-.582Zm0,0" transform="translate(-252.221 -360.238)" fill="#231f20"/>
        <path id="Trazado_168274" data-name="Trazado 168274" d="M249.46,327.8a1.842,1.842,0,0,1-.364-.024.587.587,0,0,1-.509-.63v-3.32a.588.588,0,0,1,.509-.631,2.321,2.321,0,1,1,.751,4.581,2.225,2.225,0,0,1-.388.024Zm.339-3.368v2.108a1.112,1.112,0,0,0,.7-1.406A1.124,1.124,0,0,0,249.8,324.435Zm0,0" transform="translate(-218.462 -299.859)" fill="#231f20"/>
        <path id="Trazado_168275" data-name="Trazado 168275" d="M166.726,327.653a2.327,2.327,0,1,1,0-4.653,1.841,1.841,0,0,1,.364.024.588.588,0,0,1,.509.63V327a.588.588,0,0,1-.509.63A1.726,1.726,0,0,1,166.726,327.653Zm-.339-3.368a1.111,1.111,0,0,0-.7,1.405,1.072,1.072,0,0,0,.7.7Zm0,0" transform="translate(-144.477 -299.709)" fill="#231f20"/>
        <path id="Trazado_168276" data-name="Trazado 168276" d="M185.7,317.753a4.706,4.706,0,0,1-4.7-4.7v-3.3a.817.817,0,0,1,.824-.824.413.413,0,0,1,.169.024,3.86,3.86,0,0,0,3.854-1.236.841.841,0,0,1,1.164-.145c.024.024.048.048.072.048a3.777,3.777,0,0,0,2.545.9.823.823,0,0,1,.8.8v3.733A4.743,4.743,0,0,1,185.7,317.753Zm-3.514-7.537v2.835a3.49,3.49,0,1,0,6.98,0v-3.345a5,5,0,0,1-2.666-.945A5.1,5.1,0,0,1,182.188,310.216Zm4.581-1.769" transform="translate(-159.066 -286.004)" fill="#231f20"/>
        <path id="Trazado_168277" data-name="Trazado 168277" d="M181.41,283.066A.632.632,0,0,1,181,282.9a1.052,1.052,0,0,0-.945-.291.621.621,0,0,1-.7-.509v-.339a5,5,0,0,1-2.666-.945,5.044,5.044,0,0,1-4.387,1.454.617.617,0,0,1-.654.339,1.116,1.116,0,0,0-.872.218.587.587,0,0,1-.848-.1.533.533,0,0,1-.121-.388v-1.89a4.846,4.846,0,0,1,4.847-4.847h1.212a2.941,2.941,0,0,1,2.205.994,2.806,2.806,0,0,1,1.018-.17,2.969,2.969,0,0,1,2.957,2.957v3.078A.637.637,0,0,1,181.41,283.066Zm-.848-1.672a.867.867,0,0,1,.242.049v-2.06a1.749,1.749,0,0,0-1.721-1.745,1.665,1.665,0,0,0-.9.242.6.6,0,0,1-.824-.218,1.718,1.718,0,0,0-1.5-.848h-1.212a3.63,3.63,0,0,0-3.635,3.635v.969a.736.736,0,0,1,.242-.025.8.8,0,0,1,.872-.388,3.86,3.86,0,0,0,3.854-1.236.841.841,0,0,1,1.163-.145c.025.024.049.048.073.048a3.776,3.776,0,0,0,2.545.9.829.829,0,0,1,.8.824Zm0,0" transform="translate(-149.225 -258.054)" fill="#231f20"/>
        <path id="Trazado_168278" data-name="Trazado 168278" d="M215.8,428.456a.6.6,0,0,1-.606-.606.22.22,0,0,1,.024-.121c0-.048.025-.072.025-.121.024-.024.024-.072.048-.1s.048-.072.073-.1a.631.631,0,0,1,.848,0,.333.333,0,0,1,.072.1.855.855,0,0,1,.1.218.218.218,0,0,0,.024.121A.6.6,0,0,1,215.8,428.456Zm0,0" transform="translate(-189.121 -391.327)" fill="#231f20"/>
        <path id="Trazado_168279" data-name="Trazado 168279" d="M215.8,446.655a.6.6,0,0,1-.606-.606.7.7,0,0,1,.17-.436.631.631,0,0,1,.848,0,.586.586,0,0,1,0,.848A.518.518,0,0,1,215.8,446.655Zm0,0" transform="translate(-189.121 -407.32)" fill="#231f20"/>
        <path id="Trazado_168280" data-name="Trazado 168280" d="M215.8,464.655a.6.6,0,0,1-.606-.606.22.22,0,0,1,.024-.121c0-.048.025-.072.025-.121.024-.048.024-.072.048-.1s.048-.073.073-.1a.631.631,0,0,1,.848,0,.33.33,0,0,1,.072.1.429.429,0,0,1,.073.218.219.219,0,0,0,.024.121A.566.566,0,0,1,215.8,464.655Zm0,0" transform="translate(-189.121 -423.139)" fill="#231f20"/>
        <path id="Trazado_168281" data-name="Trazado 168281" d="M215.8,482.856a.6.6,0,0,1-.606-.606.7.7,0,0,1,.17-.436.631.631,0,0,1,.848,0,.586.586,0,0,1,0,.848A.518.518,0,0,1,215.8,482.856Zm0,0" transform="translate(-189.121 -439.134)" fill="#231f20"/>
        <path id="Trazado_168282" data-name="Trazado 168282" d="M255.407,452.79a.6.6,0,0,1-.606-.606V446a.606.606,0,1,1,1.212,0v6.18A.6.6,0,0,1,255.407,452.79Zm0,0" transform="translate(-223.924 -407.275)" fill="#231f20"/>
        <path id="Trazado_168283" data-name="Trazado 168283" d="M175.208,452.79a.6.6,0,0,1-.606-.606V446a.606.606,0,1,1,1.212,0v6.18A.6.6,0,0,1,175.208,452.79Zm0,0" transform="translate(-153.444 -407.275)" fill="#231f20"/>
        <path id="Trazado_168284" data-name="Trazado 168284" d="M203.091,383.588H201.1a.891.891,0,0,1-.824-.582l-.654-1.866a.534.534,0,0,1-.024-.194v-1.527a.6.6,0,0,1,.606-.606.487.487,0,0,1,.267.073,3.471,3.471,0,0,0,1.551.364,3.7,3.7,0,0,0,1.672-.412.606.606,0,0,1,.824.242.643.643,0,0,1,.073.291v1.575a.473.473,0,0,1-.024.194l-.655,1.866a.892.892,0,0,1-.824.582Zm-1.745-1.212h1.5l.533-1.527v-.582a4.63,4.63,0,0,1-2.569.024v.533Zm0,0" transform="translate(-175.413 -348.712)" fill="#231f20"/>
        <path id="Trazado_168285" data-name="Trazado 168285" d="M159.783,406.432H145.629a2.224,2.224,0,0,1-2.23-2.23v-.121l.461-8.41a2.221,2.221,0,0,1,1.672-2.036l3.127-.775,1.866-.921a.6.6,0,0,1,.8.267c0,.024.024.048.024.072l.558,1.624h1.5l.558-1.624a.6.6,0,0,1,.775-.364c.024,0,.048.024.073.024l1.866.921,3.127.775a2.221,2.221,0,0,1,1.672,2.036l.46,8.41a2.227,2.227,0,0,1-2.108,2.351h-.048Zm-9.307-13.112-1.309.63c-.048.024-.073.024-.121.048l-3.2.8a1.006,1.006,0,0,0-.776.921l-.461,8.41a1.006,1.006,0,0,0,.945,1.066h14.178a1.024,1.024,0,0,0,1.018-1.018v-.048l-.461-8.41a1.006,1.006,0,0,0-.776-.921l-3.175-.8c-.048,0-.072-.024-.121-.048l-1.309-.63-.412,1.212a.858.858,0,0,1-.824.582h-1.987a.892.892,0,0,1-.824-.582Zm0,0" transform="translate(-126.021 -360.238)" fill="#231f20"/>
        <path id="Trazado_168286" data-name="Trazado 168286" d="M106.058,327.8a1.841,1.841,0,0,1-.364-.024.588.588,0,0,1-.509-.63v-3.32a.588.588,0,0,1,.509-.631,2.321,2.321,0,0,1,.752,4.581,2.233,2.233,0,0,1-.388.024Zm.339-3.368v2.108a1.112,1.112,0,0,0,.7-1.406A1.125,1.125,0,0,0,106.4,324.435Zm0,0" transform="translate(-92.437 -299.859)" fill="#231f20"/>
        <path id="Trazado_168287" data-name="Trazado 168287" d="M23.327,327.653a2.327,2.327,0,1,1,0-4.653,1.842,1.842,0,0,1,.364.024.588.588,0,0,1,.509.63V327a.587.587,0,0,1-.509.63A1.614,1.614,0,0,1,23.327,327.653Zm-.339-3.368a1.112,1.112,0,0,0-.7,1.405,1.073,1.073,0,0,0,.7.7Zm0,0" transform="translate(-18.455 -299.709)" fill="#231f20"/>
        <path id="Trazado_168288" data-name="Trazado 168288" d="M42.3,317.753a4.706,4.706,0,0,1-4.7-4.7v-3.3a.817.817,0,0,1,.824-.824.415.415,0,0,1,.17.024,3.86,3.86,0,0,0,3.854-1.236.841.841,0,0,1,1.163-.145c.024.024.049.048.073.048a3.776,3.776,0,0,0,2.545.9.823.823,0,0,1,.8.8v3.733A4.743,4.743,0,0,1,42.3,317.753Zm-3.514-7.537v2.835a3.5,3.5,0,0,0,7,0v-3.345a5,5,0,0,1-2.666-.945A5.162,5.162,0,0,1,38.789,310.216Zm4.6-1.769" transform="translate(-33.045 -286.004)" fill="#231f20"/>
        <path id="Trazado_168289" data-name="Trazado 168289" d="M38.007,283.066a.632.632,0,0,1-.412-.169,1.121,1.121,0,0,0-.776-.315.413.413,0,0,0-.169.024.622.622,0,0,1-.7-.509v-.339a5,5,0,0,1-2.666-.945,5.043,5.043,0,0,1-4.387,1.454.617.617,0,0,1-.654.339,1.117,1.117,0,0,0-.873.218.587.587,0,0,1-.848-.1.535.535,0,0,1-.121-.388v-1.89a4.846,4.846,0,0,1,4.847-4.847h1.212a2.942,2.942,0,0,1,2.206.994,2.8,2.8,0,0,1,1.018-.17,2.969,2.969,0,0,1,2.957,2.957v3.078a.637.637,0,0,1-.63.606Zm-.848-1.672a.861.861,0,0,1,.242.049v-2.06a1.748,1.748,0,0,0-1.721-1.745,1.664,1.664,0,0,0-.9.242.6.6,0,0,1-.824-.218,1.719,1.719,0,0,0-1.5-.848H31.245a3.631,3.631,0,0,0-3.635,3.635v.969a.738.738,0,0,1,.242-.025.8.8,0,0,1,.873-.388,3.859,3.859,0,0,0,3.853-1.236.842.842,0,0,1,1.164-.145c.024.024.048.048.073.048a3.776,3.776,0,0,0,2.545.9.823.823,0,0,1,.8.8Zm0,0" transform="translate(-23.199 -258.054)" fill="#231f20"/>
        <path id="Trazado_168290" data-name="Trazado 168290" d="M72.582,428.456a.7.7,0,0,1-.436-.169.336.336,0,0,1-.072-.1.433.433,0,0,1-.073-.218v-.242a.856.856,0,0,1,.1-.218c.024-.024.048-.072.072-.1a.631.631,0,0,1,.848,0,.326.326,0,0,1,.073.1.186.186,0,0,1,.048.1.216.216,0,0,1,.025.121v.242c0,.049-.025.073-.025.121-.024.049-.024.073-.048.1s-.048.073-.073.1A.584.584,0,0,1,72.582,428.456Zm0,0" transform="translate(-63.275 -391.327)" fill="#231f20"/>
        <path id="Trazado_168291" data-name="Trazado 168291" d="M72.317,446.83a.7.7,0,0,1-.436-.169.586.586,0,0,1,0-.848.631.631,0,0,1,.848,0,.594.594,0,0,1-.412,1.018Zm0,0" transform="translate(-63.011 -407.496)" fill="#231f20"/>
        <path id="Trazado_168292" data-name="Trazado 168292" d="M72.275,464.655a.7.7,0,0,1-.436-.169.33.33,0,0,1-.072-.1.841.841,0,0,1-.1-.218.415.415,0,0,1,0-.242c0-.048.024-.072.024-.121.024-.048.024-.072.048-.1s.049-.073.073-.1a.631.631,0,0,1,.848,0,.339.339,0,0,1,.073.1.435.435,0,0,1,.072.218.415.415,0,0,1,0,.242c0,.049-.024.073-.024.121-.024.049-.024.073-.048.1s-.049.073-.073.1A.488.488,0,0,1,72.275,464.655Zm0,0" transform="translate(-62.969 -423.139)" fill="#231f20"/>
        <path id="Trazado_168293" data-name="Trazado 168293" d="M72.407,482.856a.6.6,0,0,1-.606-.606v-.121a.843.843,0,0,1,.1-.218c.024-.024.048-.073.072-.1a.631.631,0,0,1,.848,0,.586.586,0,0,1,0,.848A.518.518,0,0,1,72.407,482.856Zm0,0" transform="translate(-63.1 -439.134)" fill="#231f20"/>
        <path id="Trazado_168294" data-name="Trazado 168294" d="M112,452.79a.6.6,0,0,1-.606-.606V446a.606.606,0,1,1,1.212,0v6.18A.6.6,0,0,1,112,452.79Zm0,0" transform="translate(-97.899 -407.275)" fill="#231f20"/>
        <path id="Trazado_168295" data-name="Trazado 168295" d="M31.805,452.79a.6.6,0,0,1-.606-.606V446a.606.606,0,1,1,1.212,0v6.18A.6.6,0,0,1,31.805,452.79Zm0,0" transform="translate(-27.418 -407.275)" fill="#231f20"/>
        <path id="Trazado_168296" data-name="Trazado 168296" d="M59.689,383.588H57.7a.891.891,0,0,1-.824-.582l-.655-1.866a.534.534,0,0,1-.024-.194v-1.527a.6.6,0,0,1,.606-.606.485.485,0,0,1,.267.073,3.472,3.472,0,0,0,1.551.364,3.7,3.7,0,0,0,1.672-.412.606.606,0,0,1,.824.242.648.648,0,0,1,.072.291v1.575a.473.473,0,0,1-.024.194l-.654,1.866a.892.892,0,0,1-.824.582Zm-1.745-1.212h1.5l.533-1.527v-.582a4.63,4.63,0,0,1-2.569.024v.533Zm0,0" transform="translate(-49.389 -348.712)" fill="#231f20"/>
        <path id="Trazado_168297" data-name="Trazado 168297" d="M16.383,406.432H2.229A2.224,2.224,0,0,1,0,404.2v-.121l.461-8.41a2.22,2.22,0,0,1,1.672-2.036l3.126-.775,1.866-.921a.6.6,0,0,1,.8.267c0,.024.025.048.025.072l.557,1.624h1.5l.557-1.624a.6.6,0,0,1,.776-.364c.024,0,.048.024.072.024l1.866.921,3.126.775a2.22,2.22,0,0,1,1.672,2.036l.461,8.41a2.227,2.227,0,0,1-2.108,2.351h-.049ZM7.076,393.32l-1.308.654c-.049.024-.073.024-.121.049l-3.175.775a1.006,1.006,0,0,0-.775.921l-.461,8.434a1.006,1.006,0,0,0,.945,1.066H16.359a1.024,1.024,0,0,0,1.018-1.018v-.049l-.46-8.41a1.006,1.006,0,0,0-.776-.921l-3.2-.8c-.049,0-.073-.025-.121-.049l-1.309-.654-.412,1.212a.858.858,0,0,1-.824.582H8.288a.891.891,0,0,1-.824-.582Zm0,0" transform="translate(0 -360.238)" fill="#231f20"/>
      </g>
    </g>
  </g>
</svg>
