<svg xmlns="http://www.w3.org/2000/svg" width="101" height="101" viewBox="0 0 101 101">
  <g id="Grupo_128100" data-name="Grupo 128100" transform="translate(-750 -3991.843)">
    <circle id="Elipse_5064" data-name="Elipse 5064" cx="50.5" cy="50.5" r="50.5" transform="translate(750 3991.843)" fill="#24cb9f"/>
    <g id="Layer_10" transform="translate(761.513 4003.413)">
      <g id="Grupo_113062" data-name="Grupo 113062" transform="translate(-0.001 10.036)">
        <g id="Grupo_113012" data-name="Grupo 113012" transform="translate(0.761 49.412)">
          <g id="Grupo_113011" data-name="Grupo 113011">
            <path id="Trazado_168129" data-name="Trazado 168129" d="M77.268,195.962H4.185A1.685,1.685,0,0,0,2.5,197.647a5.93,5.93,0,0,0,5.93,5.93H73.023a5.93,5.93,0,0,0,5.93-5.93A1.685,1.685,0,0,0,77.268,195.962Z" transform="translate(-2.5 -195.962)" fill="#edf4fc"/>
          </g>
        </g>
        <g id="Grupo_113014" data-name="Grupo 113014" transform="translate(25.565 49.412)">
          <g id="Grupo_113013" data-name="Grupo 113013">
            <path id="Trazado_168130" data-name="Trazado 168130" d="M83.931,195.962v1.82a1.751,1.751,0,0,0,1.751,1.751h23.344a1.751,1.751,0,0,0,1.751-1.751v-1.82Z" transform="translate(-83.931 -195.962)" fill="#c7d7e5"/>
          </g>
        </g>
        <g id="Grupo_113016" data-name="Grupo 113016" transform="translate(6.641 0.761)">
          <g id="Grupo_113015" data-name="Grupo 113015">
            <path id="Trazado_168131" data-name="Trazado 168131" d="M82.277,36.238H26.022A4.219,4.219,0,0,0,21.8,40.457V84.889H86.5V40.457a4.22,4.22,0,0,0-4.22-4.219Z" transform="translate(-21.803 -36.238)" fill="#5290db"/>
          </g>
        </g>
        <g id="Grupo_113018" data-name="Grupo 113018" transform="translate(9.836 3.957)">
          <g id="Grupo_113017" data-name="Grupo 113017">
            <path id="Trazado_168132" data-name="Trazado 168132" d="M89.553,46.729H33.337a1.044,1.044,0,0,0-1.044,1.044V92.184H90.6V47.773A1.043,1.043,0,0,0,89.553,46.729Z" transform="translate(-32.293 -46.729)" fill="#70d6f9"/>
          </g>
        </g>
        <g id="Grupo_113020" data-name="Grupo 113020" transform="translate(30.481 20.197)">
          <g id="Grupo_113019" data-name="Grupo 113019">
            <circle id="Elipse_5071" data-name="Elipse 5071" cx="8.507" cy="8.507" r="8.507" fill="#edf4fc"/>
          </g>
        </g>
        <g id="Grupo_113023" data-name="Grupo 113023" transform="translate(23.243 12.891)">
          <g id="Grupo_113022" data-name="Grupo 113022">
            <g id="Grupo_113021" data-name="Grupo 113021">
              <path id="Trazado_168133" data-name="Trazado 168133" d="M107.439,89.437h-3.112a.36.36,0,0,1-.351-.285,12.145,12.145,0,0,0-1.617-3.9.361.361,0,0,1,.047-.45l2.2-2.2a.359.359,0,0,0,0-.508l-2.839-2.839a.359.359,0,0,0-.508,0l-2.2,2.2a.361.361,0,0,1-.45.047,12.139,12.139,0,0,0-3.9-1.617.361.361,0,0,1-.285-.351V76.419a.359.359,0,0,0-.359-.359H90.047a.359.359,0,0,0-.359.359v3.112a.361.361,0,0,1-.285.351A12.139,12.139,0,0,0,85.5,81.5a.361.361,0,0,1-.45-.047l-2.2-2.2a.359.359,0,0,0-.508,0L79.5,82.091a.359.359,0,0,0,0,.508l2.2,2.2a.361.361,0,0,1,.047.45,12.138,12.138,0,0,0-1.617,3.9.361.361,0,0,1-.351.285H76.669a.359.359,0,0,0-.359.359v4.015a.359.359,0,0,0,.359.359h3.112a.36.36,0,0,1,.351.285,12.145,12.145,0,0,0,1.617,3.9.361.361,0,0,1-.047.45l-2.2,2.2a.359.359,0,0,0,0,.508l2.839,2.839a.359.359,0,0,0,.508,0l2.2-2.2a.361.361,0,0,1,.45-.047,12.138,12.138,0,0,0,3.9,1.617.361.361,0,0,1,.285.351v3.112a.359.359,0,0,0,.359.359h4.015a.359.359,0,0,0,.359-.359v-3.112a.36.36,0,0,1,.285-.351,12.145,12.145,0,0,0,3.9-1.617.361.361,0,0,1,.45.047l2.2,2.2a.359.359,0,0,0,.508,0l2.839-2.839a.359.359,0,0,0,0-.508l-2.2-2.2a.361.361,0,0,1-.047-.45,12.138,12.138,0,0,0,1.617-3.9.361.361,0,0,1,.351-.285h3.112a.359.359,0,0,0,.359-.359V89.8a.359.359,0,0,0-.359-.359ZM92.054,100.38a8.507,8.507,0,1,1,8.507-8.507A8.507,8.507,0,0,1,92.054,100.38Z" transform="translate(-76.31 -76.06)" fill="#f5c84c"/>
            </g>
          </g>
        </g>
        <g id="Grupo_113025" data-name="Grupo 113025" transform="translate(34.352 25.861)">
          <g id="Grupo_113024" data-name="Grupo 113024">
            <path id="Trazado_168134" data-name="Trazado 168134" d="M121.429,119.1a1.564,1.564,0,0,0-2.211,0l-2.509,2.509-1.258-1.258a1.564,1.564,0,0,0-2.211,2.211l2.363,2.363a1.564,1.564,0,0,0,2.211,0l3.615-3.615a1.564,1.564,0,0,0,0-2.211Z" transform="translate(-112.781 -118.643)" fill="#f5c84c"/>
          </g>
        </g>
        <g id="Grupo_113027" data-name="Grupo 113027" transform="translate(9.836 3.957)">
          <g id="Grupo_113026" data-name="Grupo 113026">
            <path id="Trazado_168135" data-name="Trazado 168135" d="M89.553,46.729H33.337a1.044,1.044,0,0,0-1.044,1.044v3.27H90.6v-3.27A1.043,1.043,0,0,0,89.553,46.729Z" transform="translate(-32.293 -46.729)" fill="#dae6f1"/>
          </g>
        </g>
        <g id="Grupo_113029" data-name="Grupo 113029" transform="translate(9.836 3.957)">
          <g id="Grupo_113028" data-name="Grupo 113028">
            <path id="Trazado_168136" data-name="Trazado 168136" d="M33.337,46.729a1.044,1.044,0,0,0-1.044,1.044v3.27h6.231V46.729Z" transform="translate(-32.293 -46.729)" fill="#fc657e"/>
          </g>
        </g>
        <g id="Grupo_113031" data-name="Grupo 113031" transform="translate(5.879)">
          <g id="Grupo_113030" data-name="Grupo 113030">
            <path id="Trazado_168137" data-name="Trazado 168137" d="M80.539,33.738H24.283A4.986,4.986,0,0,0,19.3,38.719v44.1a.761.761,0,1,0,1.523,0v-44.1a3.462,3.462,0,0,1,3.458-3.458H80.538A3.462,3.462,0,0,1,84,38.719V82.832a.761.761,0,0,0,1.523,0V38.719A4.986,4.986,0,0,0,80.539,33.738Z" transform="translate(-19.302 -33.738)"/>
          </g>
        </g>
        <g id="Grupo_113033" data-name="Grupo 113033" transform="translate(9.075 3.195)">
          <g id="Grupo_113032" data-name="Grupo 113032">
            <path id="Trazado_168138" data-name="Trazado 168138" d="M87.814,44.229H31.6a1.807,1.807,0,0,0-1.805,1.805V90.127a.761.761,0,1,0,1.523,0V46.034a.282.282,0,0,1,.282-.282H87.814a.283.283,0,0,1,.282.282V90.128a.761.761,0,1,0,1.523,0V46.034A1.807,1.807,0,0,0,87.814,44.229Z" transform="translate(-29.793 -44.229)"/>
          </g>
        </g>
        <g id="Grupo_113035" data-name="Grupo 113035" transform="translate(15.306 3.496)">
          <g id="Grupo_113034" data-name="Grupo 113034">
            <path id="Trazado_168139" data-name="Trazado 168139" d="M51.011,45.214a.761.761,0,0,0-.761.761V49.7a.761.761,0,0,0,1.523,0V45.975A.761.761,0,0,0,51.011,45.214Z" transform="translate(-50.25 -45.214)"/>
          </g>
        </g>
        <g id="Grupo_113037" data-name="Grupo 113037" transform="translate(9.595 7.509)">
          <g id="Grupo_113036" data-name="Grupo 113036">
            <path id="Trazado_168140" data-name="Trazado 168140" d="M89.83,58.391H32.261a.761.761,0,0,0,0,1.523H89.83a.761.761,0,1,0,0-1.523Z" transform="translate(-31.5 -58.391)"/>
          </g>
        </g>
        <g id="Grupo_113040" data-name="Grupo 113040" transform="translate(0 48.651)">
          <g id="Grupo_113039" data-name="Grupo 113039">
            <g id="Grupo_113038" data-name="Grupo 113038">
              <path id="Trazado_168141" data-name="Trazado 168141" d="M75.53,193.462H2.446A2.449,2.449,0,0,0,0,195.908,6.7,6.7,0,0,0,6.692,202.6H71.284a6.7,6.7,0,0,0,6.692-6.691,2.45,2.45,0,0,0-2.446-2.446Zm-4.245,7.615H6.692a5.174,5.174,0,0,1-5.169-5.168.924.924,0,0,1,.923-.924H75.53a.924.924,0,0,1,.923.924,5.174,5.174,0,0,1-5.169,5.168Z" transform="translate(0 -193.462)"/>
            </g>
          </g>
        </g>
        <g id="Grupo_113042" data-name="Grupo 113042" transform="translate(24.804 48.948)">
          <g id="Grupo_113041" data-name="Grupo 113041">
            <path id="Trazado_168142" data-name="Trazado 168142" d="M109.039,194.438a.761.761,0,0,0-.761.761v1.523a.99.99,0,0,1-.989.989H83.944a.99.99,0,0,1-.989-.989v-1.485a.761.761,0,1,0-1.523,0v1.485a2.515,2.515,0,0,0,2.512,2.512h23.344a2.515,2.515,0,0,0,2.512-2.512V195.2A.762.762,0,0,0,109.039,194.438Z" transform="translate(-81.432 -194.438)"/>
          </g>
        </g>
        <g id="Grupo_113057" data-name="Grupo 113057" transform="translate(22.482 12.129)">
          <g id="Grupo_113056" data-name="Grupo 113056">
            <g id="Grupo_113055" data-name="Grupo 113055">
              <path id="Trazado_168149" data-name="Trazado 168149" d="M90.316,80.866a9.268,9.268,0,1,0,9.268,9.268,9.279,9.279,0,0,0-9.268-9.268Zm0,17.014a7.745,7.745,0,1,1,7.745-7.745A7.754,7.754,0,0,1,90.316,97.88ZM105.7,86.937h-2.793a12.853,12.853,0,0,0-1.477-3.563l1.975-1.975a1.121,1.121,0,0,0,0-1.585l-2.839-2.839a1.122,1.122,0,0,0-1.585,0L97.007,78.95a12.877,12.877,0,0,0-3.563-1.477V74.681a1.122,1.122,0,0,0-1.121-1.121H88.309a1.123,1.123,0,0,0-1.121,1.121v2.793a12.851,12.851,0,0,0-3.563,1.477l-1.975-1.975a1.122,1.122,0,0,0-1.585,0l-2.839,2.839a1.121,1.121,0,0,0,0,1.585L79.2,83.374a12.877,12.877,0,0,0-1.477,3.563H74.931a1.122,1.122,0,0,0-1.121,1.121v4.015a1.122,1.122,0,0,0,1.121,1.121h2.793A12.859,12.859,0,0,0,79.2,96.757l-1.975,1.975a1.122,1.122,0,0,0,0,1.585l2.839,2.839a1.122,1.122,0,0,0,1.585,0l1.975-1.975a12.861,12.861,0,0,0,3.563,1.476v2.793a1.122,1.122,0,0,0,1.121,1.121h4.015a1.122,1.122,0,0,0,1.121-1.121v-2.793a12.863,12.863,0,0,0,3.563-1.476l1.975,1.975a1.122,1.122,0,0,0,1.585,0l2.839-2.839a1.122,1.122,0,0,0,0-1.585l-1.975-1.975a12.869,12.869,0,0,0,1.477-3.563H105.7a1.122,1.122,0,0,0,1.121-1.121V88.058A1.122,1.122,0,0,0,105.7,86.937Zm-.4,4.734h-2.71a1.116,1.116,0,0,0-1.094.882,11.352,11.352,0,0,1-1.516,3.657,1.116,1.116,0,0,0,.15,1.4l1.916,1.917-2.27,2.27-1.917-1.917a1.116,1.116,0,0,0-1.4-.15,11.349,11.349,0,0,1-3.658,1.516,1.116,1.116,0,0,0-.882,1.094v2.71H88.71v-2.71a1.116,1.116,0,0,0-.882-1.094,11.355,11.355,0,0,1-3.658-1.516,1.116,1.116,0,0,0-1.4.15L80.856,101.8l-2.27-2.27L80.5,97.608a1.116,1.116,0,0,0,.151-1.4,11.36,11.36,0,0,1-1.516-3.657,1.115,1.115,0,0,0-1.095-.883h-2.71V88.46h2.71a1.116,1.116,0,0,0,1.094-.882,11.347,11.347,0,0,1,1.516-3.657,1.116,1.116,0,0,0-.15-1.4l-1.917-1.917,2.27-2.27,1.917,1.917a1.116,1.116,0,0,0,1.4.15,11.349,11.349,0,0,1,3.658-1.516,1.116,1.116,0,0,0,.882-1.094v-2.71h3.211v2.71a1.116,1.116,0,0,0,.882,1.094A11.357,11.357,0,0,1,96.461,80.4a1.116,1.116,0,0,0,1.4-.15l1.917-1.917,2.27,2.27-1.917,1.917a1.116,1.116,0,0,0-.15,1.4,11.36,11.36,0,0,1,1.516,3.657,1.116,1.116,0,0,0,1.095.883h2.71v3.211Z" transform="translate(-73.81 -73.56)"/>
            </g>
          </g>
        </g>
        <g id="Grupo_113061" data-name="Grupo 113061" transform="translate(33.592 25.101)">
          <g id="Grupo_113060" data-name="Grupo 113060">
            <g id="Grupo_113059" data-name="Grupo 113059">
              <g id="Grupo_113058" data-name="Grupo 113058">
                <path id="Trazado_168150" data-name="Trazado 168150" d="M120.231,116.825a2.328,2.328,0,0,0-3.288,0l-1.971,1.97-.719-.719a2.325,2.325,0,0,0-3.288,3.288l2.364,2.364a2.325,2.325,0,0,0,3.288,0l3.615-3.615A2.328,2.328,0,0,0,120.231,116.825Zm-1.077,2.212-3.614,3.614a.823.823,0,0,1-1.135,0l-2.363-2.363a.8.8,0,0,1,1.134-1.135l1.258,1.258a.761.761,0,0,0,1.077,0l2.509-2.509a.8.8,0,0,1,1.135,1.134Z" transform="translate(-110.284 -116.146)"/>
              </g>
            </g>
          </g>
        </g>
      </g>
    </g>
  </g>
</svg>
