<svg xmlns="http://www.w3.org/2000/svg" width="181" height="182" viewBox="0 0 181 182">
  <g id="Grupo_128106" data-name="Grupo 128106" transform="translate(-710 -5139.944)">
    <g id="Grupo_113083" data-name="Grupo 113083">
      <ellipse id="Elipse_5029" data-name="Elipse 5029" cx="90.5" cy="91" rx="90.5" ry="91" transform="translate(710 5139.944)" fill="#083142"/>
      <g id="lapiz_1_" data-name="lapiz(1)" transform="translate(730.742 5166.986)">
        <path id="Trazado_168311" data-name="Trazado 168311" d="M143.33,302.96l8.589-8.589a14.86,14.86,0,0,1-3.235-2.45l-23.532-23.532-8.2,8.2Z" transform="translate(-78.931 -201.337)" fill="#ffb09e"/>
        <path id="Trazado_168312" data-name="Trazado 168312" d="M130.423,281.689l17.089,17.089,4.406-4.406a14.86,14.86,0,0,1-3.235-2.45L125.152,268.39l-8.2,8.2,6.531,6.531,1.429-1.429A3.9,3.9,0,0,1,130.423,281.689Z" transform="translate(-78.931 -201.337)" fill="#f89580"/>
        <path id="Trazado_168313" data-name="Trazado 168313" d="M137.7,299.207a1.868,1.868,0,0,1-1.325-.549L110,272.284a1.873,1.873,0,0,1,0-2.649l8.2-8.2a1.873,1.873,0,0,1,2.649,0l23.532,23.532a13.013,13.013,0,0,0,2.828,2.142,1.873,1.873,0,0,1,.407,2.958l-8.589,8.589A1.868,1.868,0,0,1,137.7,299.207Zm-23.725-28.248L137.7,294.684l5.645-5.645a16.7,16.7,0,0,1-1.616-1.42l-22.208-22.208Z" transform="translate(-73.305 -195.71)"/>
        <path id="Trazado_168314" data-name="Trazado 168314" d="M19.976,313.514,50.012,343.55a2.506,2.506,0,0,0,3.543,0l18.3-18.3a2.506,2.506,0,0,0,0-3.543L41.82,291.67a2.506,2.506,0,0,0-3.543,0l-18.3,18.3A2.506,2.506,0,0,0,19.976,313.514Z" transform="translate(-5.627 -218.252)" fill="#01d0fb"/>
        <path id="Trazado_168315" data-name="Trazado 168315" d="M24.512,318.049l9.906-9.906a7.963,7.963,0,0,1,11.261,0L67.32,329.785l4.536-4.536a2.506,2.506,0,0,0,0-3.543L41.82,291.67a2.506,2.506,0,0,0-3.543,0l-18.3,18.3a2.506,2.506,0,0,0,0,3.543Z" transform="translate(-5.627 -218.252)" fill="#01c0fa"/>
        <path id="Trazado_168316" data-name="Trazado 168316" d="M46.157,340.535a4.366,4.366,0,0,1-3.1-1.281l-3.776-3.776a1.873,1.873,0,0,1,2.649-2.649L45.71,336.6a.633.633,0,0,0,.894,0l18.3-18.3a.632.632,0,0,0,0-.894L34.869,287.374a.633.633,0,0,0-.894,0l-18.3,18.3a.632.632,0,0,0,0,.894l20.077,20.077A1.873,1.873,0,0,1,33.1,329.3L13.025,309.218a4.379,4.379,0,0,1,0-6.193l18.3-18.3a4.384,4.384,0,0,1,6.193,0l30.036,30.036a4.379,4.379,0,0,1,0,6.193l-18.3,18.3A4.366,4.366,0,0,1,46.157,340.535Z" transform="translate(0 -212.631)"/>
        <g id="Grupo_113076" data-name="Grupo 113076" transform="translate(41.818 41.763)">
          <path id="Trazado_168317" data-name="Trazado 168317" d="M146.5,167.148l-12.05,12.05a7.882,7.882,0,0,0,0,11.146l25.626,25.626a14.862,14.862,0,0,0,21.019,0l7.113-7.113Z" transform="translate(-132.144 -167.148)" fill="#ffb09e"/>
        </g>
        <g id="Grupo_113077" data-name="Grupo 113077" transform="translate(39.944 39.889)">
          <path id="Trazado_168318" data-name="Trazado 168318" d="M140.875,159.648a1.868,1.868,0,0,1,1.325.549l41.709,41.709a1.874,1.874,0,0,1,0,2.649l-7.113,7.113a16.736,16.736,0,0,1-23.668,0L127.5,186.042a9.755,9.755,0,0,1,0-13.8l12.05-12.05A1.868,1.868,0,0,1,140.875,159.648Zm39.059,43.582-39.059-39.059L130.15,174.9a6.008,6.008,0,0,0,0,8.5l25.626,25.626a12.989,12.989,0,0,0,18.369,0Z" transform="translate(-124.644 -159.648)"/>
        </g>
        <g id="Grupo_113081" data-name="Grupo 113081" transform="translate(27.993 0.013)">
          <g id="Grupo_113080" data-name="Grupo 113080">
            <g id="Grupo_113078" data-name="Grupo 113078" transform="translate(18.496 18.497)">
              <path id="Trazado_168319" data-name="Trazado 168319" d="M164.412,74.06,150.846,87.626l63.161,63.162,10.239,3.995,7.322-7.322-3.995-10.239Z" transform="translate(-150.846 -74.06)" fill="#ffcebf"/>
            </g>
            <g id="Grupo_113079" data-name="Grupo 113079" transform="translate(16.623 16.623)">
              <path id="Trazado_168320" data-name="Trazado 168320" d="M158.786,66.56a1.868,1.868,0,0,1,1.325.549l63.162,63.162a1.873,1.873,0,0,1,.421.644l3.995,10.239a1.874,1.874,0,0,1-.421,2.006l-7.322,7.322a1.873,1.873,0,0,1-2.006.421L207.7,146.907a1.873,1.873,0,0,1-.644-.421L143.895,83.325a1.873,1.873,0,0,1,0-2.649l13.566-13.566A1.868,1.868,0,0,1,158.786,66.56Zm61.559,66.082L158.786,71.083,147.869,82l61.559,61.559,8.733,3.407,5.591-5.591Z" transform="translate(-143.346 -66.56)"/>
            </g>
            <rect id="Rectángulo_45192" data-name="Rectángulo 45192" width="19.186" height="89.324" transform="translate(18.496 32.063) rotate(-45)" fill="#ffd15b"/>
            <path id="Trazado_168321" data-name="Trazado 168321" d="M159.337,87.626l9.321-9.321-4.246-4.246L150.846,87.626l63.161,63.162,4.246-4.246Z" transform="translate(-132.35 -55.563)" fill="#ffc344"/>
            <path id="Rectángulo_45193" data-name="Rectángulo 45193" d="M1.873,0H21.059a1.873,1.873,0,0,1,1.873,1.873V91.2a1.873,1.873,0,0,1-1.873,1.873H1.873A1.873,1.873,0,0,1,0,91.2V1.873A1.873,1.873,0,0,1,1.873,0ZM19.186,3.747H3.747V89.324H19.186Z" transform="translate(15.846 32.063) rotate(-45)"/>
            <path id="Trazado_168322" data-name="Trazado 168322" d="M108.8,18.445,95.232,32.011l-9.44-9.44a5.139,5.139,0,0,1,0-7.268L92.09,9a5.139,5.139,0,0,1,7.268,0Z" transform="translate(-82.416 -5.629)" fill="#fd6930"/>
            <path id="Trazado_168323" data-name="Trazado 168323" d="M94.213,22.571a5.139,5.139,0,0,1,0-7.268l5.722-5.722L99.358,9A5.139,5.139,0,0,0,92.09,9l-6.3,6.3a5.139,5.139,0,0,0,0,7.268l9.44,9.44L99.442,27.8Z" transform="translate(-82.416 -5.629)" fill="#ef4424"/>
            <path id="Trazado_168324" data-name="Trazado 168324" d="M89.615,28.269a1.873,1.873,0,0,1-1.325-.549l-9.44-9.44a7.021,7.021,0,0,1,0-9.917l6.3-6.3a7.021,7.021,0,0,1,9.917,0l.544.544A1.873,1.873,0,1,1,92.96,5.257l-.544-.544a3.269,3.269,0,0,0-4.618,0l-6.3,6.3a3.27,3.27,0,0,0,0,4.618l8.115,8.115,10.917-10.917-1.39-1.39a1.873,1.873,0,0,1,2.649-2.649l2.714,2.714a1.873,1.873,0,0,1,0,2.649L90.94,27.72A1.873,1.873,0,0,1,89.615,28.269Z" transform="translate(-76.8 -0.013)"/>
            <path id="Trazado_168325" data-name="Trazado 168325" d="M444.689,375.225,456.7,379.91,452.011,367.9Z" transform="translate(-352.792 -276.006)" fill="#5b5555"/>
            <path id="Trazado_168326" data-name="Trazado 168326" d="M451.069,376.157a1.87,1.87,0,0,1-.681-.128l-12.007-4.685a1.873,1.873,0,0,1-.644-3.07l7.322-7.322a1.873,1.873,0,0,1,3.07.644l4.685,12.007a1.874,1.874,0,0,1-1.746,2.555Zm-8.655-7.262,5.357,2.09-2.09-5.357Z" transform="translate(-347.165 -270.379)"/>
          </g>
          <path id="Línea_233" data-name="Línea 233" d="M57.535,59.408a1.868,1.868,0,0,1-1.325-.549L-6.951-4.3a1.873,1.873,0,0,1,0-2.649,1.873,1.873,0,0,1,2.649,0L58.86,56.21a1.873,1.873,0,0,1-1.325,3.2Z" transform="translate(30.906 30.906)"/>
          <rect id="Rectángulo_45194" data-name="Rectángulo 45194" width="19.186" height="8.034" transform="translate(12.815 26.382) rotate(-45)" fill="#e1d3ce"/>
          <rect id="Rectángulo_45195" data-name="Rectángulo 45195" width="6.004" height="8.034" transform="translate(12.815 26.382) rotate(-45)" fill="#cdbfba"/>
          <path id="Rectángulo_45196" data-name="Rectángulo 45196" d="M1.873,0H21.059a1.873,1.873,0,0,1,1.873,1.873V9.908a1.873,1.873,0,0,1-1.873,1.873H1.873A1.873,1.873,0,0,1,0,9.908V1.873A1.873,1.873,0,0,1,1.873,0ZM19.186,3.747H3.747V8.034H19.186Z" transform="translate(10.165 26.382) rotate(-45)"/>
        </g>
        <path id="Trazado_168327" data-name="Trazado 168327" d="M223.084,105.009h0a7.373,7.373,0,0,1,0-10.427l8.7-8.7a7.373,7.373,0,0,1,10.427,0h0a7.373,7.373,0,0,1,0,10.427l-8.7,8.7A7.373,7.373,0,0,1,223.084,105.009Z" transform="translate(-156.93 -62.798)" fill="#ffb09e"/>
        <path id="Trazado_168328" data-name="Trazado 168328" d="M233.594,94.582l8.659-8.659-.04-.042h0a7.373,7.373,0,0,0-10.427,0l-8.7,8.7a7.373,7.373,0,0,0,0,10.427h0a7.373,7.373,0,0,0,10.427,0l.042-.042A7.373,7.373,0,0,1,233.594,94.582Z" transform="translate(-156.93 -62.798)" fill="#f89580"/>
        <path id="Trazado_168329" data-name="Trazado 168329" d="M222.684,103.416a9.247,9.247,0,0,1-6.538-15.785l8.7-8.7a9.247,9.247,0,1,1,13.077,13.077l-8.7,8.7A9.186,9.186,0,0,1,222.684,103.416Zm8.7-23.448a5.464,5.464,0,0,0-3.889,1.611l-8.7,8.7a5.5,5.5,0,1,0,7.778,7.778l8.7-8.7a5.5,5.5,0,0,0-3.889-9.389Z" transform="translate(-151.316 -57.171)"/>
        <path id="Trazado_168330" data-name="Trazado 168330" d="M273.781,137.8h0a7.373,7.373,0,0,1,0-10.427l8.7-8.7a7.373,7.373,0,0,1,10.427,0h0a7.373,7.373,0,0,1,0,10.427l-8.7,8.7A7.373,7.373,0,0,1,273.781,137.8Z" transform="translate(-194.963 -87.395)" fill="#ffb09e"/>
        <path id="Trazado_168331" data-name="Trazado 168331" d="M282.152,137.8a7.373,7.373,0,0,1,0-10.427l8.7-8.7a7.4,7.4,0,0,1,1.028-.855,7.373,7.373,0,0,0-9.4.855l-8.7,8.7a7.373,7.373,0,0,0,0,10.427h0a7.373,7.373,0,0,0,9.4.855A7.411,7.411,0,0,1,282.152,137.8Z" transform="translate(-194.963 -87.399)" fill="#f89580"/>
        <path id="Trazado_168332" data-name="Trazado 168332" d="M273.381,136.2a9.247,9.247,0,0,1-6.538-15.785l8.7-8.7a9.247,9.247,0,1,1,13.077,13.077l-8.7,8.7A9.186,9.186,0,0,1,273.381,136.2Zm8.7-23.448a5.464,5.464,0,0,0-3.889,1.611l-8.7,8.7a5.5,5.5,0,1,0,7.778,7.778l8.7-8.7a5.5,5.5,0,0,0-3.889-9.389Z" transform="translate(-189.349 -81.769)"/>
        <path id="Trazado_168333" data-name="Trazado 168333" d="M315.524,179.54h0a7.373,7.373,0,0,1,0-10.427l8.7-8.7a7.373,7.373,0,0,1,10.427,0h0a7.373,7.373,0,0,1,0,10.427l-8.7,8.7A7.373,7.373,0,0,1,315.524,179.54Z" transform="translate(-226.279 -118.711)" fill="#ffb09e"/>
        <path id="Trazado_168334" data-name="Trazado 168334" d="M323.959,179.543h0a7.373,7.373,0,0,1,0-10.427l8.7-8.7a7.42,7.42,0,0,1,1-.833,7.373,7.373,0,0,0-9.431.833l-8.7,8.7a7.373,7.373,0,0,0,0,10.427h0a7.374,7.374,0,0,0,9.431.833A7.391,7.391,0,0,1,323.959,179.543Z" transform="translate(-226.279 -118.714)" fill="#f89580"/>
        <path id="Trazado_168335" data-name="Trazado 168335" d="M315.124,177.947a9.247,9.247,0,0,1-6.538-15.785l8.7-8.7a9.247,9.247,0,1,1,13.077,13.077l-8.7,8.7A9.186,9.186,0,0,1,315.124,177.947Zm8.7-23.448a5.464,5.464,0,0,0-3.889,1.611l-8.7,8.7a5.5,5.5,0,1,0,7.778,7.778l8.7-8.7a5.5,5.5,0,0,0-3.889-9.389Z" transform="translate(-220.665 -113.085)"/>
        <path id="Trazado_168336" data-name="Trazado 168336" d="M348.313,230.237h0a7.373,7.373,0,0,1,0-10.427l8.7-8.7a7.373,7.373,0,0,1,10.427,0h0a7.373,7.373,0,0,1,0,10.427l-8.7,8.7A7.373,7.373,0,0,1,348.313,230.237Z" transform="translate(-250.877 -156.744)" fill="#ffb09e"/>
        <path id="Trazado_168337" data-name="Trazado 168337" d="M356.3,230.5h0a7.373,7.373,0,0,1,0-10.427l8.7-8.7a7.385,7.385,0,0,1,1.422-1.11,7.374,7.374,0,0,0-9.41.848l-8.7,8.7a7.373,7.373,0,0,0,0,10.427h0a7.375,7.375,0,0,0,9.006,1.11A7.392,7.392,0,0,1,356.3,230.5Z" transform="translate(-250.877 -156.748)" fill="#f89580"/>
        <path id="Trazado_168338" data-name="Trazado 168338" d="M347.913,228.644a9.247,9.247,0,0,1-6.538-15.785l8.7-8.7a9.247,9.247,0,0,1,13.077,13.077l-8.7,8.7A9.186,9.186,0,0,1,347.913,228.644Zm8.7-23.448a5.464,5.464,0,0,0-3.889,1.611l-8.7,8.7a5.5,5.5,0,0,0,7.778,7.778l8.7-8.7a5.5,5.5,0,0,0-3.889-9.389Z" transform="translate(-245.263 -151.118)"/>
        <path id="Trazado_168339" data-name="Trazado 168339" d="M174.051,148.439l-18.688-18.688a12.8,12.8,0,0,0-18.1,0l-10.733,10.733a12.8,12.8,0,0,0,0,18.1l4.587,4.587c7.359,7.359,20.194,2.644,20.662-7.753q.015-.331.015-.666a14.494,14.494,0,0,0-4.007-10.021l2.186-2.186,10.8,10.8a9.019,9.019,0,0,0,13.528-.883A3.042,3.042,0,0,0,174.051,148.439Z" transform="translate(-83.306 -94.518)" fill="#ffcebf"/>
        <g id="Grupo_113082" data-name="Grupo 113082" transform="translate(39.483 31.485)">
          <path id="Trazado_168340" data-name="Trazado 168340" d="M127.9,149.708l12.941-12.941a9.672,9.672,0,0,1,13.679,0L172.19,154.44a9.162,9.162,0,0,0,2.119-1.987,3.042,3.042,0,0,0-.251-4.014l-18.688-18.688a12.8,12.8,0,0,0-18.1,0l-10.733,10.733a12.8,12.8,0,0,0-2.063,15.394A12.733,12.733,0,0,1,127.9,149.708Z" transform="translate(-122.795 -126.003)" fill="#ffb09e"/>
        </g>
        <path id="Trazado_168341" data-name="Trazado 168341" d="M134.057,162.986a13.925,13.925,0,0,1-9.886-4.122l-4.587-4.587a14.669,14.669,0,0,1,0-20.745L130.317,122.8a14.669,14.669,0,0,1,20.745,0l18.688,18.688a4.923,4.923,0,0,1,.407,6.487,10.892,10.892,0,0,1-16.333,1.06l-7.785-7.785a16.347,16.347,0,0,1,2.008,7.871q0,.378-.017.751a13.607,13.607,0,0,1-1.456,5.6,1.873,1.873,0,0,1-3.339-1.7,9.886,9.886,0,0,0,1.051-4.071q.013-.289.013-.581a12.618,12.618,0,0,0-3.491-8.73,1.873,1.873,0,0,1,.033-2.616l2.186-2.186a1.874,1.874,0,0,1,2.649,0l10.8,10.8a7.145,7.145,0,0,0,10.723-.707,1.169,1.169,0,0,0-.1-1.541l-18.688-18.688a10.922,10.922,0,0,0-15.446,0l-10.733,10.733a10.922,10.922,0,0,0,0,15.446l4.587,4.587a10.257,10.257,0,0,0,10.828,2.389,1.873,1.873,0,1,1,1.269,3.525A14.341,14.341,0,0,1,134.057,162.986Z" transform="translate(-77.68 -88.891)"/>
      </g>
    </g>
  </g>
</svg>
