<svg xmlns="http://www.w3.org/2000/svg" width="101" height="101" viewBox="0 0 101 101">
  <g id="Grupo_128105" data-name="Grupo 128105" transform="translate(-750 -4799.935)">
    <circle id="Elipse_5069" data-name="Elipse 5069" cx="50.5" cy="50.5" r="50.5" transform="translate(750 4799.935)" fill="#24cb9f"/>
    <g id="_9-productivity" data-name="9-productivity" transform="translate(767.474 4813.909)">
      <path id="Trazado_168298" data-name="Trazado 168298" d="M5,33H17.2V64.51H5Z" transform="translate(0.082 0.543)" fill="#ffb476"/>
      <path id="Trazado_168299" data-name="Trazado 168299" d="M26,21H38.2V64.707H26Z" transform="translate(0.428 0.345)" fill="#cc905e"/>
      <path id="Trazado_168300" data-name="Trazado 168300" d="M47,1H59.2V65.036H47Z" transform="translate(0.773 0.016)" fill="#996c46"/>
      <path id="Trazado_168301" data-name="Trazado 168301" d="M7.115,64.691,23.378,45.2,32.7,54.526a4.067,4.067,0,0,0,5.75,0L57,35.973l3.432,3.432L64.036,22,47.822,26.79l3.433,3.433L35.576,45.9l-9.322-9.323a4.067,4.067,0,0,0-5.75,0L0,57.576v7.115Z" transform="translate(0 0.362)" fill="#ef4136"/>
      <path id="Trazado_168302" data-name="Trazado 168302" d="M64.725,21.268a1.013,1.013,0,0,0-.976-.227l-16.214,4.79a1.016,1.016,0,0,0-.431,1.693l2.714,2.714L35.576,44.481l-8.6-8.6a5.1,5.1,0,0,0-7.214.028L.272,56.9a1.016,1.016,0,0,0,1.49,1.383l19.46-20.969a3.054,3.054,0,0,1,4.313,0l9.322,9.323a1.046,1.046,0,0,0,1.437,0L51.973,30.957a1.016,1.016,0,0,0,0-1.437L49.749,27.3,62.7,23.472l-2.874,13.9-2.1-2.1a1.016,1.016,0,0,0-1.437,0L37.732,53.824a3.054,3.054,0,0,1-4.313,0L24.1,44.5a1.016,1.016,0,0,0-1.481.047L6.352,63.019a1.016,1.016,0,1,0,1.526,1.343L23.426,46.7l8.556,8.557a5.091,5.091,0,0,0,7.188,0L57,37.426l2.714,2.714a1.017,1.017,0,0,0,1.714-.513l3.6-17.405a1.018,1.018,0,0,0-.307-.954Z" transform="translate(0 0.345)"/>
      <path id="Trazado_168303" data-name="Trazado 168303" d="M17.016,56A1.016,1.016,0,0,0,16,57.016v6.1a1.016,1.016,0,0,0,2.033,0v-6.1A1.016,1.016,0,0,0,17.016,56Z" transform="translate(0.263 0.921)"/>
      <path id="Trazado_168304" data-name="Trazado 168304" d="M5.016,49.28a1.016,1.016,0,0,0,1.016-1.016V34.033H16.2v1.016a1.016,1.016,0,1,0,2.033,0V33.016A1.016,1.016,0,0,0,17.214,32H5.016A1.016,1.016,0,0,0,4,33.016V48.263A1.016,1.016,0,0,0,5.016,49.28Z" transform="translate(0.066 0.526)"/>
      <path id="Trazado_168305" data-name="Trazado 168305" d="M47.016,48A1.016,1.016,0,0,0,46,49.016v14.23a1.016,1.016,0,1,0,2.033,0V49.016A1.016,1.016,0,0,0,47.016,48Z" transform="translate(0.757 0.789)"/>
      <path id="Trazado_168306" data-name="Trazado 168306" d="M47.016,24.395a1.016,1.016,0,0,0,1.016-1.016V2.033H58.2v17.28a1.016,1.016,0,1,0,2.033,0V1.016A1.016,1.016,0,0,0,59.214,0h-12.2A1.016,1.016,0,0,0,46,1.016V23.378A1.016,1.016,0,0,0,47.016,24.395Z" transform="translate(0.757)"/>
      <path id="Trazado_168307" data-name="Trazado 168307" d="M59.016,42A1.016,1.016,0,0,0,58,43.016V63.345a1.016,1.016,0,1,0,2.033,0V43.016A1.016,1.016,0,0,0,59.016,42Z" transform="translate(0.954 0.691)"/>
      <path id="Trazado_168308" data-name="Trazado 168308" d="M38.016,57A1.016,1.016,0,0,0,37,58.016V63.1a1.016,1.016,0,0,0,2.033,0V58.016A1.016,1.016,0,0,0,38.016,57Z" transform="translate(0.609 0.938)"/>
      <path id="Trazado_168309" data-name="Trazado 168309" d="M26.016,33.214A1.016,1.016,0,0,0,27.033,32.2V22.033H37.2V38.3a1.016,1.016,0,1,0,2.033,0V21.016A1.016,1.016,0,0,0,38.214,20h-12.2A1.016,1.016,0,0,0,25,21.016V32.2A1.016,1.016,0,0,0,26.016,33.214Z" transform="translate(0.411 0.329)"/>
      <path id="Trazado_168310" data-name="Trazado 168310" d="M26.016,51A1.016,1.016,0,0,0,25,52.016V63.2a1.016,1.016,0,0,0,2.033,0V52.016A1.016,1.016,0,0,0,26.016,51Z" transform="translate(0.411 0.839)"/>
    </g>
  </g>
</svg>
