<svg xmlns="http://www.w3.org/2000/svg" width="101" height="101" viewBox="0 0 101 101">
  <g id="Grupo_128101" data-name="Grupo 128101" transform="translate(-750 -4152.843)">
    <circle id="Elipse_5065" data-name="Elipse 5065" cx="50.5" cy="50.5" r="50.5" transform="translate(750 4152.843)" fill="#24cb9f"/>
    <g id="sostenible" transform="translate(766.493 4170.167)">
      <g id="Grupo_113073" data-name="Grupo 113073" transform="translate(1 2.049)">
        <g id="Grupo_113063" data-name="Grupo 113063" transform="translate(0 56.625)">
          <path id="Trazado_168151" data-name="Trazado 168151" d="M1,56H66.014v6.3H1Z" transform="translate(-1 -56)" fill="#aab2bd"/>
        </g>
        <g id="Grupo_113064" data-name="Grupo 113064" transform="translate(12.583 18.875)">
          <path id="Trazado_168152" data-name="Trazado 168152" d="M13,20V36.778H27.681V57.75h6.292V20Z" transform="translate(-13 -20)" fill="#ccd1d9"/>
        </g>
        <g id="Grupo_113065" data-name="Grupo 113065" transform="translate(10.486 35.653)">
          <path id="Trazado_168153" data-name="Trazado 168153" d="M27.778,36V56.972H11V36H27.778Z" transform="translate(-11 -36)" fill="#e6e9ed"/>
        </g>
        <g id="Grupo_113066" data-name="Grupo 113066" transform="translate(48.236 19.924)">
          <path id="Trazado_168154" data-name="Trazado 168154" d="M61.6,21a31.637,31.637,0,0,1,1.133,8.389,31.321,31.321,0,0,1-8.7,21.706l1.363,1.363L47,54.556l2.1-8.389,1.971,1.971a27.343,27.343,0,0,0,6.47-26.09L57.486,21Z" transform="translate(-47 -21)" fill="#ffeaa7"/>
        </g>
        <g id="Grupo_113067" data-name="Grupo 113067" transform="translate(24.118)">
          <path id="Trazado_168155" data-name="Trazado 168155" d="M55.458,9.34l2.1,8.389-8.389-2.1,1.971-1.971a27.343,27.343,0,0,0-26.09-6.47L24,7.243V3.133A31.637,31.637,0,0,1,32.389,2,31.321,31.321,0,0,1,54.1,10.7Z" transform="translate(-24 -2)" fill="#ffeaa7"/>
        </g>
        <g id="Grupo_113068" data-name="Grupo 113068" transform="translate(1.049 6.292)">
          <path id="Trazado_168156" data-name="Trazado 168156" d="M17.729,8l-2.1,8.389-1.971-1.971a27.343,27.343,0,0,0-6.47,26.09l.052,1.049H3.133A31.637,31.637,0,0,1,2,33.167,31.321,31.321,0,0,1,10.7,11.46L9.34,10.1Z" transform="translate(-2 -8)" fill="#ffeaa7"/>
        </g>
        <g id="Grupo_113069" data-name="Grupo 113069" transform="translate(44.042 35.653)">
          <path id="Trazado_168157" data-name="Trazado 168157" d="M49.292,36h4.194a6.3,6.3,0,0,1-6.292,6.292H43A6.3,6.3,0,0,1,49.292,36Z" transform="translate(-43 -36)" fill="#b4dd7f"/>
        </g>
        <g id="Grupo_113070" data-name="Grupo 113070" transform="translate(44.042 25.167)">
          <path id="Trazado_168158" data-name="Trazado 168158" d="M49.292,26h4.194a6.3,6.3,0,0,1-6.292,6.292H43A6.3,6.3,0,0,1,49.292,26Z" transform="translate(-43 -26)" fill="#b4dd7f"/>
        </g>
        <g id="Grupo_113071" data-name="Grupo 113071" transform="translate(33.556 31.458)">
          <path id="Trazado_168159" data-name="Trazado 168159" d="M37.194,32a6.3,6.3,0,0,1,6.292,6.292H39.292A6.3,6.3,0,0,1,33,32Z" transform="translate(-33 -32)" fill="#b4dd7f"/>
        </g>
        <g id="Grupo_113072" data-name="Grupo 113072" transform="translate(33.556 20.972)">
          <path id="Trazado_168160" data-name="Trazado 168160" d="M37.194,22a6.3,6.3,0,0,1,6.292,6.292H39.292A6.3,6.3,0,0,1,33,22Z" transform="translate(-33 -22)" fill="#b4dd7f"/>
        </g>
      </g>
      <g id="Grupo_113074" data-name="Grupo 113074" transform="translate(1 1)">
        <path id="Trazado_168161" data-name="Trazado 168161" d="M1,61H66.014v2.1H1Z" transform="translate(-1 1.917)"/>
        <path id="Trazado_168162" data-name="Trazado 168162" d="M25.379,8.252a26.266,26.266,0,0,1,24.286,5.5l-2.5,2.5,11.881,2.97L56.075,7.338,54.119,9.295A32.551,32.551,0,0,0,23.77,2.168L23,2.38V8.39l2.147-.1ZM25.1,3.99a30.444,30.444,0,0,1,28.326,7.519l.741.707.774-.774,1.225,4.9-4.9-1.225,1.42-1.42-.782-.74A28.356,28.356,0,0,0,25.1,6.155Z" transform="translate(0.07 -1)"/>
        <path id="Trazado_168163" data-name="Trazado 168163" d="M2.168,41.9l.212.77H8.39l-.1-2.147-.038-.233A26.276,26.276,0,0,1,13.748,16l2.5,2.5,2.97-11.881L7.338,9.6l1.957,1.957A32.551,32.551,0,0,0,2.168,41.9Zm9.34-29.654.707-.741-.774-.774,4.9-1.225-1.225,4.9-1.42-1.421-.74.782a28.358,28.358,0,0,0-6.8,26.808H3.99a30.444,30.444,0,0,1,7.519-28.326Z" transform="translate(-1 -0.726)"/>
        <path id="Trazado_168164" data-name="Trazado 168164" d="M56.555,22.147l.038.233a26.268,26.268,0,0,1-5.5,24.287l-2.5-2.5-2.97,11.881,11.881-2.97L55.55,51.119A32.551,32.551,0,0,0,62.676,20.77L62.465,20h-6.01Zm4.3-.049a30.444,30.444,0,0,1-7.519,28.326l-.707.741.774.774-4.9,1.225,1.225-4.9,1.42,1.421.74-.782A28.358,28.358,0,0,0,58.69,22.1Z" transform="translate(1.17 -0.076)"/>
        <path id="Trazado_168165" data-name="Trazado 168165" d="M18,39h2.1v2.1H18Z" transform="translate(-0.174 0.847)"/>
        <path id="Trazado_168166" data-name="Trazado 168166" d="M22,39h2.1v2.1H22Z" transform="translate(0.021 0.847)"/>
        <path id="Trazado_168167" data-name="Trazado 168167" d="M14,39h2.1v2.1H14Z" transform="translate(-0.368 0.847)"/>
        <path id="Trazado_168168" data-name="Trazado 168168" d="M18,43h2.1v2.1H18Z" transform="translate(-0.174 1.042)"/>
        <path id="Trazado_168169" data-name="Trazado 168169" d="M22,43h2.1v2.1H22Z" transform="translate(0.021 1.042)"/>
        <path id="Trazado_168170" data-name="Trazado 168170" d="M14,43h2.1v2.1H14Z" transform="translate(-0.368 1.042)"/>
        <path id="Trazado_168171" data-name="Trazado 168171" d="M14,47h2.1v2.1H14Z" transform="translate(-0.368 1.236)"/>
        <path id="Trazado_168172" data-name="Trazado 168172" d="M22,47h2.1v2.1H22Z" transform="translate(0.021 1.236)"/>
        <path id="Trazado_168173" data-name="Trazado 168173" d="M18,47h2.1v2.1H18Z" transform="translate(-0.174 1.236)"/>
        <path id="Trazado_168174" data-name="Trazado 168174" d="M22,51h2.1v2.1H22Z" transform="translate(0.021 1.431)"/>
        <path id="Trazado_168175" data-name="Trazado 168175" d="M14,51h2.1v2.1H14Z" transform="translate(-0.368 1.431)"/>
        <path id="Trazado_168176" data-name="Trazado 168176" d="M18,51h2.1v2.1H18Z" transform="translate(-0.174 1.431)"/>
        <path id="Trazado_168177" data-name="Trazado 168177" d="M28,31h2.1v2.1H28Z" transform="translate(0.313 0.458)"/>
        <path id="Trazado_168178" data-name="Trazado 168178" d="M16,31h2.1v2.1H16Z" transform="translate(-0.271 0.458)"/>
        <path id="Trazado_168179" data-name="Trazado 168179" d="M20,31h2.1v2.1H20Z" transform="translate(-0.076 0.458)"/>
        <path id="Trazado_168180" data-name="Trazado 168180" d="M24,31h2.1v2.1H24Z" transform="translate(0.118 0.458)"/>
        <path id="Trazado_168181" data-name="Trazado 168181" d="M16,27h2.1v2.1H16Z" transform="translate(-0.271 0.264)"/>
        <path id="Trazado_168182" data-name="Trazado 168182" d="M28,27h2.1v2.1H28Z" transform="translate(0.313 0.264)"/>
        <path id="Trazado_168183" data-name="Trazado 168183" d="M24,27h2.1v2.1H24Z" transform="translate(0.118 0.264)"/>
        <path id="Trazado_168184" data-name="Trazado 168184" d="M20,27h2.1v2.1H20Z" transform="translate(-0.076 0.264)"/>
        <path id="Trazado_168185" data-name="Trazado 168185" d="M16,23h2.1v2.1H16Z" transform="translate(-0.271 0.07)"/>
        <path id="Trazado_168186" data-name="Trazado 168186" d="M28,23h2.1v2.1H28Z" transform="translate(0.313 0.07)"/>
        <path id="Trazado_168187" data-name="Trazado 168187" d="M20,23h2.1v2.1H20Z" transform="translate(-0.076 0.07)"/>
        <path id="Trazado_168188" data-name="Trazado 168188" d="M24,23h2.1v2.1H24Z" transform="translate(0.118 0.07)"/>
        <path id="Trazado_168189" data-name="Trazado 168189" d="M46.09,44.167h3.146a7.35,7.35,0,0,0,7.34-7.34V35.778H51.334a7.312,7.312,0,0,0-5.243,2.214V33.681h3.146a7.35,7.35,0,0,0,7.34-7.34V25.292H51.334a7.314,7.314,0,0,0-5.3,2.275A7.348,7.348,0,0,0,38.75,21.1H35.6V19H12.535V35.778h-2.1V56.75H1v2.1H66.014v-2.1H46.09Zm5.243-6.292h3.04a5.252,5.252,0,0,1-5.137,4.194H46.2A5.251,5.251,0,0,1,51.334,37.875Zm0-10.486h3.04a5.252,5.252,0,0,1-5.137,4.194H46.2A5.251,5.251,0,0,1,51.334,27.389ZM43.993,56.75H35.6V37.759a7.312,7.312,0,0,0,5.243,2.214h3.146V56.75ZM35.71,33.681h3.04a5.251,5.251,0,0,1,5.137,4.194h-3.04A5.251,5.251,0,0,1,35.71,33.681Zm3.04-10.486a5.251,5.251,0,0,1,5.137,4.194h-3.04a5.251,5.251,0,0,1-5.137-4.194Zm2.1,6.292h3.146V33.8a7.312,7.312,0,0,0-5.243-2.214H35.6V27.273A7.312,7.312,0,0,0,40.847,29.486ZM14.632,21.1H33.507V56.75H29.313V35.778H14.632Zm-2.1,16.778H27.215V56.75H12.535Z" transform="translate(-1 -0.125)"/>
      </g>
    </g>
  </g>
</svg>
