<svg xmlns="http://www.w3.org/2000/svg" xmlns:xlink="http://www.w3.org/1999/xlink" width="101" height="101" viewBox="0 0 101 101">
  <defs>
    <clipPath id="clip-path">
      <path id="path9567" d="M0-682.665H65.4v65.4H0Z" transform="translate(0 682.665)"/>
    </clipPath>
  </defs>
  <g id="Grupo_128103" data-name="Grupo 128103" transform="translate(-750 -4474.687)">
    <circle id="Elipse_5067" data-name="Elipse 5067" cx="50.5" cy="50.5" r="50.5" transform="translate(750 4474.687)" fill="#24cb9f"/>
    <g id="g9561" transform="translate(767.298 5175.149)">
      <g id="g9563" transform="translate(0 -682.665)">
        <g id="g9565" clip-path="url(#clip-path)">
          <g id="g9571" transform="translate(24.755 1.246)">
            <path id="path9573" d="M-373.153-233.759l-1.569,4.31a.994.994,0,0,1-1.272.594l-5.305-1.931a13.785,13.785,0,0,1-1.9,2.258l2.824,4.89a.98.98,0,0,1,.049.1.994.994,0,0,1-.413,1.26l-3.973,2.293a.993.993,0,0,1-1.357-.363l-2.822-4.888a13.7,13.7,0,0,1-2.9.509l-.981,5.562a.992.992,0,0,1-1.15.8l-4.517-.8a.994.994,0,0,1-.806-1.151l.98-5.558a13.723,13.723,0,0,1-2.552-1.477l-4.327,3.629a.993.993,0,0,1-1.4-.123l-2.948-3.513a.994.994,0,0,1,.123-1.4l4.324-3.628a13.577,13.577,0,0,1-1.009-2.772H-411.7a.993.993,0,0,1-.993-.993v-4.587a.993.993,0,0,1,.993-.994h5.645a13.605,13.605,0,0,1,1.009-2.772l-4.324-3.628a.992.992,0,0,1-.123-1.4l2.948-3.514a.993.993,0,0,1,1.4-.123l4.327,3.63a13.72,13.72,0,0,1,2.552-1.478l-.98-5.558a.993.993,0,0,1,.806-1.15l4.517-.8a.992.992,0,0,1,1.047.511.985.985,0,0,1,.1.295l.981,5.561a13.686,13.686,0,0,1,2.9.51l2.822-4.888a.994.994,0,0,1,1.357-.364l3.973,2.294a.993.993,0,0,1,.364,1.355l-2.824,4.891a13.731,13.731,0,0,1,1.9,2.258l5.305-1.931a.993.993,0,0,1,1.272.594l1.569,4.31a.993.993,0,0,1-.593,1.272l-5.305,1.931a14.046,14.046,0,0,1,.078,1.474,14.089,14.089,0,0,1-.078,1.476l5.305,1.93a.994.994,0,0,1,.593,1.274" transform="translate(412.692 258.528)" fill="#cc4d39"/>
          </g>
          <g id="g9575" transform="translate(24.755 1.246)">
            <path id="path9577" d="M-301.59-342.081l-3.973,2.293a.992.992,0,0,1-1.357-.363l-2.822-4.887a13.69,13.69,0,0,1-2.9.508l-.981,5.562a.992.992,0,0,1-1.15.8l-4.517-.8a.994.994,0,0,1-.806-1.151l.98-5.558a13.7,13.7,0,0,1-2.552-1.477L-326-343.516a.993.993,0,0,1-1.4-.122l-2.948-3.513a.994.994,0,0,1,.123-1.4l4.324-3.628a13.572,13.572,0,0,1-1.009-2.772h-5.645a.993.993,0,0,1-.993-.993v-4.587a.993.993,0,0,1,.993-.994h5.645A13.6,13.6,0,0,1-325.9-364.3l-4.324-3.628a.992.992,0,0,1-.123-1.4l2.948-3.514a.993.993,0,0,1,1.4-.123l4.327,3.63a13.73,13.73,0,0,1,2.552-1.478l-.98-5.558a.993.993,0,0,1,.806-1.15l4.517-.8a.992.992,0,0,1,1.047.511,21.181,21.181,0,0,0-4.868,13.543,21.27,21.27,0,0,0,17.42,20.918.993.993,0,0,1-.413,1.259" transform="translate(333.546 378.328)" fill="#ff6148"/>
          </g>
          <g id="g9579" transform="translate(11.667 41.852)">
            <path id="path9581" d="M-484.294-92.354l-21.949,11.129a8.908,8.908,0,0,1-9.6-.025c-1.362-.878-1.79-.963-8.954-4.505-3.183-1.557-6.083-2.053-10.81-2.636V-102.14h15.675a3.669,3.669,0,0,1,2.595,1.075l7.051,7.049a3.2,3.2,0,0,1,.94,2.355l.151-.1,23.007-5.792a2.837,2.837,0,0,1,1.9,5.2" transform="translate(535.609 102.14)" fill="#f2bb88"/>
          </g>
          <g id="g9583" transform="translate(11.667 41.852)">
            <path id="path9585" d="M-239.8-118.269a3.106,3.106,0,0,1-4.435.039l-5.863-5.864a1.669,1.669,0,0,0-1.18-.489h-13.932V-130.8h15.676a3.668,3.668,0,0,1,2.594,1.075l7.051,7.05a3.158,3.158,0,0,1,.088,4.407" transform="translate(265.206 130.801)" fill="#f2d1a5"/>
          </g>
          <g id="g9587" transform="translate(1.05 37.589)">
            <path id="path9589" d="M-107.6-36.626v17a3.933,3.933,0,0,1-.065.709h0a3.894,3.894,0,0,1-3.814,3.172h-3.639A3.892,3.892,0,0,1-119-19.628v-17a3.894,3.894,0,0,1,3.2-3.819,3.752,3.752,0,0,1,.682-.061h3.639a3.892,3.892,0,0,1,3.881,3.881" transform="translate(119 40.507)" fill="#ff6148"/>
          </g>
          <g id="g9591" transform="translate(1.05 37.651)">
            <path id="path9593" d="M-106.972-203.153a3.894,3.894,0,0,1-3.814,3.172h-3.639a3.892,3.892,0,0,1-3.881-3.881v-17a3.894,3.894,0,0,1,3.2-3.82,3.822,3.822,0,0,0-.066.709v17a3.892,3.892,0,0,0,3.881,3.881h3.638a3.767,3.767,0,0,0,.683-.061" transform="translate(118.306 224.679)" fill="#cc4d39"/>
          </g>
          <g id="g9595" transform="translate(4.455 53.94)">
            <path id="path9597" d="M-43.325-21.663a2.3,2.3,0,0,1-2.3,2.3,2.3,2.3,0,0,1-2.3-2.3,2.3,2.3,0,0,1,2.3-2.3,2.3,2.3,0,0,1,2.3,2.3" transform="translate(47.916 23.959)" fill="#ff6148"/>
          </g>
          <g id="g9599" transform="translate(0.119 36.621)">
            <path id="path9601" d="M-45.67-10h3.639a4.845,4.845,0,0,1,4.839,4.839v17a4.845,4.845,0,0,1-4.839,4.839H-43.7a.958.958,0,0,1-.958-.958.958.958,0,0,1,.958-.958h1.668a2.926,2.926,0,0,0,2.923-2.923v-17a2.926,2.926,0,0,0-2.923-2.923H-45.67a2.926,2.926,0,0,0-2.923,2.923v17a2.953,2.953,0,0,0,2.25,2.844.958.958,0,0,1,.71,1.154.958.958,0,0,1-1.154.71,4.826,4.826,0,0,1-3.722-4.708v-17A4.845,4.845,0,0,1-45.67-10Z" transform="translate(50.509 10)"/>
          </g>
          <g id="g9603" transform="translate(8.104 40.93)">
            <path id="path9605" d="M-164.054-59.4a4.039,4.039,0,0,1-2.871-1.189l-6.339-6.341a.958.958,0,0,1,0-1.355.958.958,0,0,1,1.355,0l6.338,6.34a2.134,2.134,0,0,0,1.517.628,2.127,2.127,0,0,0,1.542-.655,2.19,2.19,0,0,0-.076-3.055l-7.036-7.036a2.686,2.686,0,0,0-1.912-.792h-16.829a.6.6,0,0,0-.594.593v3.1a.958.958,0,0,1-.958.958.958.958,0,0,1-.958-.958v-3.1a2.513,2.513,0,0,1,2.51-2.51h16.829a4.59,4.59,0,0,1,3.267,1.353l7.036,7.036a4.115,4.115,0,0,1,.1,5.741A4.028,4.028,0,0,1-164.054-59.4Z" transform="translate(190.874 74.766)"/>
          </g>
          <g id="g9607" transform="translate(11.514 45.48)">
            <path id="path9609" d="M14.837-86.246a9.882,9.882,0,0,1-5.351-1.569,14.888,14.888,0,0,0-1.512-.856L.65-92.255a20.385,20.385,0,0,0-5.491-1.777l-4.365-.754a.958.958,0,0,1-.781-1.107.958.958,0,0,1,1.107-.781l4.365.754a22.3,22.3,0,0,1,6.007,1.944l7.324,3.583a16.808,16.808,0,0,1,1.708.967,7.949,7.949,0,0,0,8.55.023l6.953-3.53a.958.958,0,0,1,1.288.421.958.958,0,0,1-.421,1.288L20.021-87.74A9.635,9.635,0,0,1,14.837-86.246ZM29.023-92.42a.958.958,0,0,1-.855-.525.958.958,0,0,1,.421-1.288l12.467-6.321a1.845,1.845,0,0,0,.785-1.532,1.871,1.871,0,0,0-.638-1.408,1.871,1.871,0,0,0-1.431-.453L23.652-99.889a.958.958,0,0,1-1.163-.7.958.958,0,0,1,.7-1.163l16.18-4.073a.958.958,0,0,1,.107-.021,3.787,3.787,0,0,1,3,.9,3.787,3.787,0,0,1,1.292,2.849A3.769,3.769,0,0,1,42-98.892L29.456-92.524A.954.954,0,0,1,29.023-92.42ZM16.637-98.153a.958.958,0,0,1-.928-.724.958.958,0,0,1,.7-1.163l3.992-1a.958.958,0,0,1,1.163.7.958.958,0,0,1-.7,1.163l-3.992,1A.96.96,0,0,1,16.637-98.153Z" transform="translate(10.002 105.874)"/>
          </g>
          <g id="g9611" transform="translate(3.524 53.314)">
            <path id="path9613" d="M-54.662-24.215a3.257,3.257,0,0,1-3.253-3.253,3.236,3.236,0,0,1,1.541-2.767.958.958,0,0,1,1.319.309.958.958,0,0,1-.309,1.319A1.331,1.331,0,0,0-56-27.468a1.339,1.339,0,0,0,1.337,1.337,1.339,1.339,0,0,0,1.337-1.337,1.336,1.336,0,0,0-.478-1.025.958.958,0,0,1-.118-1.35.958.958,0,0,1,1.35-.118,3.247,3.247,0,0,1,1.162,2.492A3.257,3.257,0,0,1-54.662-24.215Z" transform="translate(57.916 30.379)"/>
          </g>
          <g id="g9615" transform="translate(23.824 0.278)">
            <path id="path9617" d="M-186.005-10.159h0a1.947,1.947,0,0,1,1.92,1.612l.854,4.841a14.7,14.7,0,0,1,1.624.284l2.457-4.255a1.958,1.958,0,0,1,1.691-.976,1.952,1.952,0,0,1,.975.262l3.973,2.294a1.938,1.938,0,0,1,.909,1.185,1.938,1.938,0,0,1-.195,1.481L-174.257.826a14.81,14.81,0,0,1,1.06,1.262l4.619-1.681a1.945,1.945,0,0,1,.667-.118,1.957,1.957,0,0,1,1.833,1.284l1.569,4.311a1.953,1.953,0,0,1-1.166,2.5l-4.62,1.681c.015.276.023.551.023.824s-.008.548-.023.824l4.62,1.682a1.938,1.938,0,0,1,1.1,1.009,1.938,1.938,0,0,1,.065,1.492l-1.569,4.311a1.957,1.957,0,0,1-1.833,1.284,1.945,1.945,0,0,1-.667-.118L-173.2,19.69a14.806,14.806,0,0,1-1.06,1.262l2.458,4.258a1.938,1.938,0,0,1,.195,1.48,1.938,1.938,0,0,1-.909,1.185l-3.973,2.294a1.952,1.952,0,0,1-.974.262,1.958,1.958,0,0,1-1.691-.976l-2.457-4.255a14.722,14.722,0,0,1-1.624.284l-.854,4.841a1.947,1.947,0,0,1-1.92,1.612,1.957,1.957,0,0,1-.34-.03l-4.518-.8a1.938,1.938,0,0,1-1.259-.8,1.938,1.938,0,0,1-.323-1.458l.853-4.839a14.724,14.724,0,0,1-1.427-.826l-3.765,3.159a1.953,1.953,0,0,1-1.254.456,1.947,1.947,0,0,1-1.5-.7l-2.949-3.514a1.953,1.953,0,0,1,.24-2.749l3.764-3.158a14.658,14.658,0,0,1-.564-1.55h-4.913a1.953,1.953,0,0,1-1.951-1.951V8.6a1.953,1.953,0,0,1,1.951-1.951h4.913a14.659,14.659,0,0,1,.564-1.55l-3.764-3.158a1.938,1.938,0,0,1-.689-1.324,1.938,1.938,0,0,1,.449-1.424l2.949-3.514a1.947,1.947,0,0,1,1.495-.7,1.953,1.953,0,0,1,1.254.456l3.765,3.16a14.73,14.73,0,0,1,1.427-.826l-.853-4.839a1.938,1.938,0,0,1,.323-1.458,1.938,1.938,0,0,1,1.259-.8l4.518-.8A1.957,1.957,0,0,1-186.005-10.159Zm4.863,8.807a.957.957,0,0,1-.266-.038,12.766,12.766,0,0,0-2.7-.473.958.958,0,0,1-.88-.79l-.981-5.561-.033-.029h-.007l-4.518.8.952,5.6A.958.958,0,0,1-190.134-.8,12.792,12.792,0,0,0-192.509.569.958.958,0,0,1-193.691.53l-4.326-3.63-3,3.518,4.328,3.677a.958.958,0,0,1,.244,1.157,12.722,12.722,0,0,0-.938,2.578.958.958,0,0,1-.93.73h-5.644l-.035,4.622,5.679.035a.958.958,0,0,1,.93.73,12.716,12.716,0,0,0,.938,2.578.958.958,0,0,1-.244,1.157l-4.324,3.628,2.944,3.563,4.375-3.625a.958.958,0,0,1,1.182-.039,12.786,12.786,0,0,0,2.375,1.374.958.958,0,0,1,.556,1.042l-.98,5.558,4.546.837,1.021-5.59a.958.958,0,0,1,.88-.79,12.782,12.782,0,0,0,2.7-.473.958.958,0,0,1,1.1.441l2.822,4.887,4.02-2.281-2.811-4.938a.958.958,0,0,1,.166-1.17,12.867,12.867,0,0,0,1.765-2.1.958.958,0,0,1,1.123-.366l5.305,1.931,1.614-4.331-5.326-1.976a.958.958,0,0,1-.625-1,13.017,13.017,0,0,0,.073-1.373,13.021,13.021,0,0,0-.073-1.373.958.958,0,0,1,.625-1l5.306-1.931-1.548-4.355-5.35,1.91a.958.958,0,0,1-1.123-.366,12.872,12.872,0,0,0-1.765-2.1A.958.958,0,0,1-176.282.5l2.824-4.89-3.985-2.341-2.869,4.9A.958.958,0,0,1-181.143-1.352Z" transform="translate(205.906 10.159)"/>
          </g>
          <g id="g9619" transform="translate(35.291 14.81)">
            <path id="path9621" d="M-177.777,3.031a1.753,1.753,0,0,1-1.248-.517l-4.646-4.646a.958.958,0,0,1,0-1.355.958.958,0,0,1,1.355,0l4.539,4.539,10.772-10.772a.958.958,0,0,1,1.355,0,.958.958,0,0,1,0,1.355L-176.529,2.514A1.753,1.753,0,0,1-177.777,3.031Z" transform="translate(183.952 10)"/>
          </g>
        </g>
      </g>
    </g>
  </g>
</svg>
