<svg xmlns="http://www.w3.org/2000/svg" width="101" height="101" viewBox="0 0 101 101">
  <g id="Grupo_128102" data-name="Grupo 128102" transform="translate(-750 -4313.687)">
    <circle id="Elipse_5066" data-name="Elipse 5066" cx="50.5" cy="50.5" r="50.5" transform="translate(750 4313.687)" fill="#24cb9f"/>
    <g id="FILLED_OUTLINE" transform="translate(754.102 4320.542)">
      <circle id="Elipse_5072" data-name="Elipse 5072" cx="10.315" cy="10.315" r="10.315" transform="translate(52.353 16.938)" fill="#ffb476"/>
      <circle id="Elipse_5073" data-name="Elipse 5073" cx="7.502" cy="7.502" r="7.502" transform="translate(32.66 50.697)" fill="#8bb276"/>
      <path id="Trazado_168190" data-name="Trazado 168190" d="M54.822,199.47a24.406,24.406,0,0,1-4.8-26.673l1.719.751a22.53,22.53,0,0,0,4.429,24.621Z" transform="translate(-26.588 -138.417)" fill="#62b8d3"/>
      <path id="Trazado_168191" data-name="Trazado 168191" d="M443.98,44.377l-1.637,1.637,1.326,1.326,1.637-1.637A10.371,10.371,0,0,0,443.98,44.377Z" transform="translate(-374.711 -25.051)" fill="#00779c"/>
      <path id="Trazado_168192" data-name="Trazado 168192" d="M464,105.876h2.77c.028-.309.043-.622.043-.938s-.015-.629-.043-.938H464Z" transform="translate(-393.829 -77.685)" fill="#00779c"/>
      <path id="Trazado_168193" data-name="Trazado 168193" d="M445.306,155.981l-1.637-1.637-1.326,1.326,1.637,1.637A10.378,10.378,0,0,0,445.306,155.981Z" transform="translate(-374.711 -122.127)" fill="#00779c"/>
      <path id="Trazado_168194" data-name="Trazado 168194" d="M392,178.77c.309.028.622.043.938.043s.629-.015.938-.043V176H392Z" transform="translate(-330.269 -141.245)" fill="#00779c"/>
      <path id="Trazado_168195" data-name="Trazado 168195" d="M332.377,155.981a10.376,10.376,0,0,0,1.326,1.326l1.637-1.637-1.326-1.326Z" transform="translate(-277.635 -122.127)" fill="#00779c"/>
      <path id="Trazado_168196" data-name="Trazado 168196" d="M312.043,105.876h2.77V104h-2.77c-.028.309-.043.622-.043.938S312.015,105.567,312.043,105.876Z" transform="translate(-259.647 -77.685)" fill="#00779c"/>
      <path id="Trazado_168197" data-name="Trazado 168197" d="M332.377,45.7l1.637,1.637,1.326-1.326L333.7,44.377A10.371,10.371,0,0,0,332.377,45.7Z" transform="translate(-277.635 -25.051)" fill="#00779c"/>
      <path id="Trazado_168198" data-name="Trazado 168198" d="M393.876,24.043c-.309-.028-.622-.043-.938-.043s-.629.015-.938.043v2.77h1.876Z" transform="translate(-330.269 -7.062)" fill="#00779c"/>
      <path id="Trazado_168199" data-name="Trazado 168199" d="M371.67,73.1l-1.326-1.326,2.539-2.539V64h1.876v5.627a.938.938,0,0,1-.275.663Z" transform="translate(-311.151 -42.373)" fill="#62b8d3"/>
      <rect id="Rectángulo_45191" data-name="Rectángulo 45191" width="5.627" height="9.378" transform="translate(31.723 22.564)" fill="#ffb476"/>
      <path id="Trazado_168200" data-name="Trazado 168200" d="M35.034,44.689,32.221,40H31.24A1.876,1.876,0,0,0,29.5,42.572l.847,2.117H27.752a1.876,1.876,0,0,0-1.864,2.083l.521,4.689a1.876,1.876,0,0,0,1.864,1.668h4.109a1.876,1.876,0,0,0,1.326-.549l1.326-1.326h3.751V44.689Z" transform="translate(-7.062 -21.187)" fill="#ffcbb1"/>
      <path id="Trazado_168201" data-name="Trazado 168201" d="M141.568,378.813,138.755,376h-6.564a3.751,3.751,0,0,0,3.751,3.751h1.876l-3.751,3.751-10.854-3.34a1.876,1.876,0,0,0-2.112.752l-1.1,1.65,15.942,6.564,5.627-2.813h9.378v-7.5Z" transform="translate(-90.153 -317.801)" fill="#ffcbb1"/>
      <path id="Trazado_168202" data-name="Trazado 168202" d="M207,168.488v-1.972l-1.884-.452-.628-1.516,1.016-1.658-1.394-1.394-1.658,1.016-1.516-.628L200.488,160h-1.972l-.452,1.884-1.516.628L194.89,161.5,193.5,162.89l1.016,1.658-.628,1.516-1.884.452v1.972l1.884.452.628,1.516-1.016,1.658,1.394,1.394,1.658-1.016,1.516.628.452,1.884h1.972l.452-1.884,1.516-.628,1.658,1.016,1.394-1.394-1.016-1.658.628-1.516Zm-7.5.889a1.876,1.876,0,1,1,1.876-1.876A1.876,1.876,0,0,1,199.5,169.378Z" transform="translate(-153.713 -127.12)" fill="#ffb476"/>
      <path id="Trazado_168203" data-name="Trazado 168203" d="M398.154,235.864l-1.375-1.276a22.432,22.432,0,0,0,6-15.3,22.694,22.694,0,0,0-.451-4.507l1.839-.368a24.556,24.556,0,0,1,.488,4.875A24.3,24.3,0,0,1,398.154,235.864Z" transform="translate(-334.488 -175.151)" fill="#62b8d3"/>
      <path id="Trazado_168204" data-name="Trazado 168204" d="M206.535,50.528l-.449-1.821a24.588,24.588,0,0,1,10.726-.219l-.373,1.838a22.713,22.713,0,0,0-9.9.2Z" transform="translate(-166.149 -28.249)" fill="#62b8d3"/>
      <path id="Trazado_168205" data-name="Trazado 168205" d="M90.955,188.211a19.71,19.71,0,0,1,0-20.759l1.593.99a17.834,17.834,0,0,0,0,18.779Z" transform="translate(-61.904 -133.699)" fill="#62b8d3"/>
      <path id="Trazado_168206" data-name="Trazado 168206" d="M363.713,240.409,362.4,239.07a17.685,17.685,0,0,0,5.345-12.724,17.953,17.953,0,0,0-.356-3.564l1.838-.373a19.835,19.835,0,0,1,.394,3.938A19.546,19.546,0,0,1,363.713,240.409Z" transform="translate(-304.139 -182.213)" fill="#62b8d3"/>
      <path id="Trazado_168207" data-name="Trazado 168207" d="M206.165,90.691,205.6,88.9a19.831,19.831,0,0,1,9.845-.508l-.373,1.838A17.957,17.957,0,0,0,206.165,90.691Z" transform="translate(-165.722 -63.56)" fill="#62b8d3"/>
      <path id="Trazado_168208" data-name="Trazado 168208" d="M169.176,343.789a4.689,4.689,0,0,1,5.861-7.163l-.939,1.623a2.814,2.814,0,0,0-3.516,4.3Z" transform="translate(-132.53 -282.488)" fill="#abc79b"/>
      <path id="Trazado_168209" data-name="Trazado 168209" d="M49.871,182.55a22.348,22.348,0,0,1,1.872-9l-1.719-.751a24.406,24.406,0,0,0,4.8,26.673l1.35-1.3a22.4,22.4,0,0,1-6.3-15.619Z" transform="translate(-26.588 -138.417)"/>
      <path id="Trazado_168210" data-name="Trazado 168210" d="M315.253,16a11.253,11.253,0,1,0,11.253,11.253A11.253,11.253,0,0,0,315.253,16Zm7.257,17.184-.968-.968-1.326,1.326.968.968a9.334,9.334,0,0,1-4.993,2.073V34.755h-1.876v1.829a9.334,9.334,0,0,1-4.993-2.073l.968-.968-1.326-1.326-.968.968a9.335,9.335,0,0,1-2.073-4.993h1.829V26.315h-1.829A9.335,9.335,0,0,1,308,21.322l.968.968,1.326-1.326L309.322,20a9.334,9.334,0,0,1,4.993-2.073v1.829h1.876V17.923A9.334,9.334,0,0,1,321.184,20l-.968.968,1.326,1.326.968-.968a9.334,9.334,0,0,1,2.073,4.993h-1.829v1.876h1.829a9.335,9.335,0,0,1-2.073,4.993Z" transform="translate(-252.585)"/>
      <path id="Trazado_168211" data-name="Trazado 168211" d="M372.882,69.238l-2.539,2.539,1.326,1.326,2.813-2.813a.938.938,0,0,0,.275-.663V64h-1.876Z" transform="translate(-311.151 -42.373)"/>
      <path id="Trazado_168212" data-name="Trazado 168212" d="M27.308,46.18l1.051-1.051h2.425v.938a.938.938,0,0,0,.938.938h5.627a.938.938,0,0,0,.938-.938V36.689a.938.938,0,0,0-.938-.938H31.723a.938.938,0,0,0-.938.938H28.5l-2.54-4.233a.938.938,0,0,0-.8-.455h-.981a2.813,2.813,0,0,0-2.612,3.858l.332.831H20.689a2.813,2.813,0,0,0-2.8,3.124l.521,4.689a2.81,2.81,0,0,0,2.8,2.5h4.109a2.8,2.8,0,0,0,1.989-.824Zm5.352-8.554h3.751v7.5H32.66ZM20.278,44.294l-.521-4.689a.938.938,0,0,1,.932-1.041h2.593a.938.938,0,0,0,.871-1.286l-.847-2.117a.938.938,0,0,1,.871-1.286h.45l2.54,4.233a.938.938,0,0,0,.8.455h2.813v4.689H27.972a.938.938,0,0,0-.663.275l-1.326,1.326a.932.932,0,0,1-.663.275H21.21A.937.937,0,0,1,20.278,44.294Z" transform="translate(0 -14.124)"/>
      <path id="Trazado_168213" data-name="Trazado 168213" d="M132.356,311.75a.938.938,0,0,0-.663-.275h-.053a8.439,8.439,0,1,0-16.214,4.089,2.829,2.829,0,0,0-2.168,1.243l-1.1,1.65a.938.938,0,0,0,.423,1.387l15.942,6.564a.938.938,0,0,0,.776-.028l5.429-2.714h9.156V321.79h-9.378a.937.937,0,0,0-.419.1l-5.245,2.622-14.49-5.966.465-.7a.944.944,0,0,1,1.056-.376l10.854,3.34a.937.937,0,0,0,.939-.233l3.751-3.751a.938.938,0,0,0-.663-1.6H128.88a2.818,2.818,0,0,1-2.653-1.876H131.3l2.539,2.539a.938.938,0,0,0,.663.275h9.378v-1.876h-8.989Zm-7.227-.275a.938.938,0,0,0-.938.938,4.7,4.7,0,0,0,4.315,4.674l-1.766,1.766-8.911-2.742a6.485,6.485,0,0,1-1.14-3.7,6.564,6.564,0,0,1,13.06-.938Z" transform="translate(-83.091 -254.214)"/>
      <path id="Trazado_168214" data-name="Trazado 168214" d="M186.4,157.569l-.262.633-1.419.34a.938.938,0,0,0-.719.912v1.972a.938.938,0,0,0,.719.912l1.419.34.262.633-.766,1.251a.938.938,0,0,0,.137,1.153l1.394,1.394a.938.938,0,0,0,1.153.136l1.251-.766.633.262.34,1.419a.938.938,0,0,0,.912.719h1.972a.938.938,0,0,0,.912-.719l.34-1.419.633-.262,1.251.766a.938.938,0,0,0,1.153-.137l1.394-1.394a.938.938,0,0,0,.136-1.153l-.766-1.251.262-.633,1.419-.34a.938.938,0,0,0,.719-.912v-1.972a.938.938,0,0,0-.719-.912l-1.419-.34-.262-.633.766-1.251a.938.938,0,0,0-.137-1.153l-1.394-1.394a.938.938,0,0,0-1.153-.136l-1.251.766-.633-.262-.34-1.419a.938.938,0,0,0-.912-.719h-1.972a.938.938,0,0,0-.912.719l-.34,1.419-.633.262-1.251-.766a.938.938,0,0,0-1.153.136l-1.394,1.394a.938.938,0,0,0-.136,1.153Zm1.287,1.792.628-1.516a.938.938,0,0,0-.067-.849l-.63-1.028.349-.349,1.028.63a.938.938,0,0,0,.849.067l1.516-.628a.938.938,0,0,0,.553-.648l.279-1.165h.493l.279,1.165a.938.938,0,0,0,.553.648l1.516.628a.938.938,0,0,0,.849-.067l1.028-.63.349.349L196.63,157a.938.938,0,0,0-.067.849l.628,1.516a.938.938,0,0,0,.648.553l1.165.279v.493l-1.165.279a.938.938,0,0,0-.648.553l-.628,1.516a.938.938,0,0,0,.067.849l.63,1.028-.349.349-1.028-.63a.938.938,0,0,0-.849-.067l-1.516.628a.938.938,0,0,0-.553.648L192.686,167h-.493l-.279-1.165a.938.938,0,0,0-.553-.648l-1.516-.628a.938.938,0,0,0-.849.067l-1.028.63-.349-.349.63-1.028a.938.938,0,0,0,.067-.849l-.628-1.516a.938.938,0,0,0-.648-.553l-1.165-.279v-.493l1.165-.279a.938.938,0,0,0,.648-.553Z" transform="translate(-146.651 -120.058)"/>
      <path id="Trazado_168215" data-name="Trazado 168215" d="M234.813,205.627A2.813,2.813,0,1,0,232,202.813,2.813,2.813,0,0,0,234.813,205.627Zm0-3.751a.938.938,0,1,1-.938.938A.938.938,0,0,1,234.813,201.876Z" transform="translate(-189.024 -162.432)"/>
      <path id="Trazado_168216" data-name="Trazado 168216" d="M402.333,214.744a22.679,22.679,0,0,1,.45,4.5,22.432,22.432,0,0,1-6,15.3l1.375,1.276a24.3,24.3,0,0,0,6.5-16.58,24.57,24.57,0,0,0-.489-4.88Z" transform="translate(-334.488 -175.113)"/>
      <path id="Trazado_168217" data-name="Trazado 168217" d="M211.937,49.875a22.694,22.694,0,0,1,4.508.451l.368-1.839a24.589,24.589,0,0,0-10.726.219l.449,1.821A22.608,22.608,0,0,1,211.937,49.875Z" transform="translate(-166.148 -28.249)"/>
      <path id="Trazado_168218" data-name="Trazado 168218" d="M90.955,167.452a19.71,19.71,0,0,0,0,20.759l1.593-.99a17.834,17.834,0,0,1,0-18.779Z" transform="translate(-61.904 -133.699)"/>
      <path id="Trazado_168219" data-name="Trazado 168219" d="M363.713,240.378a19.546,19.546,0,0,0,5.908-14.064,19.845,19.845,0,0,0-.395-3.942l-1.837.377a17.955,17.955,0,0,1,.356,3.564,17.685,17.685,0,0,1-5.345,12.724Z" transform="translate(-304.139 -182.182)"/>
      <path id="Trazado_168220" data-name="Trazado 168220" d="M211.511,89.875a17.954,17.954,0,0,1,3.564.356l.373-1.838a19.831,19.831,0,0,0-9.845.508l.562,1.789A17.818,17.818,0,0,1,211.511,89.875Z" transform="translate(-165.722 -63.56)"/>
      <path id="Trazado_168221" data-name="Trazado 168221" d="M168,340.689a4.684,4.684,0,0,0,1.172,3.1l1.406-1.241a2.814,2.814,0,0,1,3.516-4.3l.939-1.623A4.69,4.69,0,0,0,168,340.689Z" transform="translate(-132.526 -282.49)"/>
    </g>
  </g>
</svg>
