<svg xmlns="http://www.w3.org/2000/svg" width="79.23" height="79.23" viewBox="0 0 79.23 79.23">
  <g id="scrum_1_" data-name="scrum(1)" transform="translate(-1 -1)">
    <path id="Trazado_168644" data-name="Trazado 168644" d="M14,6H72.784V57.116H14Z" transform="translate(3.613 1.39)" fill="#ffeaa7"/>
    <path id="Trazado_168645" data-name="Trazado 168645" d="M75.9,3.278V5.834a1.282,1.282,0,0,1-1.278,1.278H13.278A1.282,1.282,0,0,1,12,5.834V3.278A1.282,1.282,0,0,1,13.278,2h61.34A1.282,1.282,0,0,1,75.9,3.278Z" transform="translate(3.057 0.278)" fill="#969faa"/>
    <path id="Trazado_168646" data-name="Trazado 168646" d="M40,28H57.891V43.335H40Z" transform="translate(10.839 7.504)" fill="#cf9e76"/>
    <path id="Trazado_168647" data-name="Trazado 168647" d="M40,12H57.891V27.335H40Z" transform="translate(10.839 3.057)" fill="#cf9e76"/>
    <path id="Trazado_168648" data-name="Trazado 168648" d="M20,12H37.891V27.335H20Z" transform="translate(5.28 3.057)" fill="#cf9e76"/>
    <g id="Grupo_113836" data-name="Grupo 113836" transform="translate(30.392 15.057)">
      <path id="Trazado_168649" data-name="Trazado 168649" d="M24,12h7.667v5.112H24Z" transform="translate(-24 -12)" fill="#ecc19c"/>
      <path id="Trazado_168650" data-name="Trazado 168650" d="M44,12h7.667v5.112H44Z" transform="translate(-18.442 -12)" fill="#ecc19c"/>
      <path id="Trazado_168651" data-name="Trazado 168651" d="M44,20h7.667v5.112H44Z" transform="translate(-18.442 -9.777)" fill="#ecc19c"/>
      <path id="Trazado_168652" data-name="Trazado 168652" d="M44,28h7.667v5.112H44Z" transform="translate(-18.442 -7.553)" fill="#ecc19c"/>
      <path id="Trazado_168653" data-name="Trazado 168653" d="M44,36h7.667v5.112H44Z" transform="translate(-18.442 -5.33)" fill="#ecc19c"/>
    </g>
    <path id="Trazado_168654" data-name="Trazado 168654" d="M18.613,45.891h11.5a3.829,3.829,0,0,0,3.834-3.834V31.195a3.195,3.195,0,1,1,6.39,0V44.817a8.975,8.975,0,0,1-7.348,8.8l-4.089.741a3.183,3.183,0,0,0-2.62,3.144V71.449H2V58.67A12.784,12.784,0,0,1,14.779,45.891h3.834Z" transform="translate(0.278 7.504)" fill="#48cfad"/>
    <circle id="Elipse_5082" data-name="Elipse 5082" cx="7.5" cy="7.5" r="7.5" transform="translate(10 38)" fill="#f0d0b4"/>
    <path id="Trazado_168655" data-name="Trazado 168655" d="M39.447,11H19V28.891H39.447ZM26.667,13.556h5.112v2.556H26.667ZM36.891,26.335H21.556V13.556h2.556v5.112H34.335V13.556h2.556Z" transform="translate(5.002 2.779)"/>
    <path id="Trazado_168656" data-name="Trazado 168656" d="M59.447,11H39V28.891H59.447ZM46.667,13.556h5.112v2.556H46.667Zm5.112,12.779H46.667V23.779h5.112Zm5.112,0H54.335V21.223H44.112v5.112H41.556V13.556h2.556v5.112H54.335V13.556h2.556Z" transform="translate(10.561 2.779)"/>
    <path id="Trazado_168657" data-name="Trazado 168657" d="M59.447,27H39V44.891H59.447ZM46.667,29.556h5.112v2.556H46.667Zm5.112,12.779H46.667V39.779h5.112Zm5.112,0H54.335V37.223H44.112v5.112H41.556V29.556h2.556v5.112H54.335V29.556h2.556Z" transform="translate(10.561 7.226)"/>
    <path id="Trazado_168658" data-name="Trazado 168658" d="M77.675,1H16.335a2.558,2.558,0,0,0-2.556,2.556V6.112a2.558,2.558,0,0,0,2.556,2.556V36.884A8.927,8.927,0,0,0,11.8,52.513,14.07,14.07,0,0,0,1,66.173V80.23H27.836V65.007a1.917,1.917,0,0,1,1.573-1.887l4.088-.744a10.2,10.2,0,0,0,5.145-2.592H77.675V8.667A2.558,2.558,0,0,0,80.23,6.112V3.556A2.558,2.558,0,0,0,77.675,1ZM11.223,45.727a6.39,6.39,0,1,1,6.39,6.39A6.4,6.4,0,0,1,11.223,45.727ZM33.041,59.863l-4.088.742a4.47,4.47,0,0,0-3.673,4.4V77.675H9.945V61.062H7.39V77.675H3.556v-11.5a11.514,11.514,0,0,1,11.5-11.5H30.392A5.117,5.117,0,0,0,35.5,49.561V38.7a1.917,1.917,0,0,1,3.834,0v13.62A7.665,7.665,0,0,1,33.041,59.863Zm42.078-2.635H40.631a10.187,10.187,0,0,0,1.263-4.91V38.7a4.473,4.473,0,0,0-8.945,0V49.561a2.558,2.558,0,0,1-2.556,2.556H23.861a8.928,8.928,0,0,0-4.97-15.233V8.667H75.119ZM77.675,6.112H16.335l0-2.556H77.675Z" transform="translate(0 0)"/>
  </g>
</svg>
