<svg xmlns="http://www.w3.org/2000/svg" width="383.807" height="342.602" viewBox="0 0 383.807 342.602">
  <g id="Grupo_111534" data-name="Grupo 111534" transform="translate(-176.692 -1496.768)">
    <g id="Grupo_111525" data-name="Grupo 111525">
      <g id="Grupo_111517" data-name="Grupo 111517">
        <path id="Trazado_166745" data-name="Trazado 166745" d="M389.757,1718.048c-2-5.75-17.8,2.07-24.2,11.6-4.268,6.346-6.876,13.12-8.094,22.219.147-10.382.312-21.537.474-32.065,1.3-2.625,4.256-8.676,6.385-13.471,7.1-16,23.992-21.958,29.827-32.061,7.645-13.236,7.6-33.092,1.093-40.257-5.656-6.226-24.386,35.876-26.495,40.579a125.078,125.078,0,0,0-10.726,39.817c.155-9.888.3-18.966.425-25.97.4-22.846.892-30.2,1.119-32.456.782-1.1,1.705-2.391,2.241-3.082,4.533-5.835,14.59-12.782,19.615-21.264,7.339-12.386,6.153-27.21,1.006-32.73-5.382-5.771-14.9,7.87-19.948,21.385s-2.893,26.452-4.31,37.676c-.3,2.2-.6,10.564-.886,22.163-1.533-12.48-4.585-20.841-10.242-28.632-6.958-9.583-12.964-21.252-18.7-19.744s-2.647,16.948,1.888,27.788c4.04,9.653,23.965,19.281,26.9,27.043-.346,15.722-.655,35.64-.874,54.184-1.571-9.578-.491-10.383-6.928-25.048-3.827-8.719-19.516-19.47-21.387-13.48-1.836,5.879.973,17.312,6.9,25.242,4.778,6.4,15.379,6.389,17.832,10.358.572.927,2.464,4.477,3.545,6.517-.256,22.641-.37,42.626-.243,49.44l1.028.069c-.049-1.76.075-13.277.277-28.518,2.574-8.11,19.9-12.843,25.257-21.277C388.134,1735.245,392.16,1724.946,389.757,1718.048Z" fill="#e7e7e7"/>
        <g id="Grupo_111516" data-name="Grupo 111516">
          <path id="Trazado_166746" data-name="Trazado 166746" d="M373.462,1804.055H340.2a3.82,3.82,0,0,1-3.745-3.061l-2.361-11.641h45.474l-2.361,11.641A3.82,3.82,0,0,1,373.462,1804.055Z" fill="#f0f0f0"/>
          <path id="Trazado_166747" data-name="Trazado 166747" d="M380.519,1793.866H333.142a2.231,2.231,0,0,1-2.217-1.981l-.968-8.606a2.23,2.23,0,0,1,2.216-2.48h49.314a2.231,2.231,0,0,1,2.217,2.48l-.969,8.606A2.23,2.23,0,0,1,380.519,1793.866Z" fill="#f0f0f0"/>
        </g>
      </g>
      <g id="Grupo_111519" data-name="Grupo 111519">
        <g id="Grupo_111518" data-name="Grupo 111518">
          <rect id="Rectángulo_44954" data-name="Rectángulo 44954" width="31.851" height="135.909" transform="translate(557.465 1799.889) rotate(180)" fill="#f0f0f0"/>
          <rect id="Rectángulo_44955" data-name="Rectángulo 44955" width="165.015" height="4.167" transform="translate(555.32 1804.055) rotate(180)" fill="#f0f0f0"/>
          <rect id="Rectángulo_44956" data-name="Rectángulo 44956" width="137.454" height="135.909" transform="translate(388.16 1663.98)" fill="#f5f5f5"/>
          <rect id="Rectángulo_44957" data-name="Rectángulo 44957" width="112.41" height="28.778" transform="translate(400.683 1717.545)" fill="#f0f0f0"/>
          <rect id="Rectángulo_44958" data-name="Rectángulo 44958" width="112.41" height="28.778" transform="translate(400.683 1754.586)" fill="#f0f0f0"/>
          <rect id="Rectángulo_44959" data-name="Rectángulo 44959" width="31.451" height="6.213" rx="3.106" transform="translate(472.613 1722.51) rotate(-180)" fill="#f5f5f5"/>
          <rect id="Rectángulo_44960" data-name="Rectángulo 44960" width="112.41" height="28.778" transform="translate(400.683 1680.505)" fill="#f0f0f0"/>
          <path id="Trazado_166748" data-name="Trazado 166748" d="M444.268,1685.47h25.239a3.115,3.115,0,0,0,3.106-3.106h0a3.116,3.116,0,0,0-3.106-3.107H444.268a3.116,3.116,0,0,0-3.106,3.107h0A3.115,3.115,0,0,0,444.268,1685.47Z" fill="#f5f5f5"/>
          <path id="Trazado_166749" data-name="Trazado 166749" d="M444.268,1759.551h25.239a3.116,3.116,0,0,0,3.106-3.106h0a3.116,3.116,0,0,0-3.106-3.107H444.268a3.116,3.116,0,0,0-3.106,3.107h0A3.116,3.116,0,0,0,444.268,1759.551Z" fill="#f5f5f5"/>
        </g>
        <rect id="Rectángulo_44961" data-name="Rectángulo 44961" width="140.281" height="3.877" transform="translate(525.615 1663.98) rotate(180)" fill="#f0f0f0"/>
        <rect id="Rectángulo_44962" data-name="Rectángulo 44962" width="34.884" height="3.877" transform="translate(525.615 1660.103)" fill="#e7e7e7"/>
      </g>
      <g id="Grupo_111521" data-name="Grupo 111521">
        <g id="Grupo_111520" data-name="Grupo 111520">
          <rect id="Rectángulo_44963" data-name="Rectángulo 44963" width="31.467" height="203.526" transform="translate(303.738 1804.055) rotate(180)" fill="#e0e0e0"/>
          <path id="Trazado_166750" data-name="Trazado 166750" d="M192.064,1804.055H297.434L308.5,1553.543H203.132Z" fill="#e7e7e7"/>
          <path id="Trazado_166751" data-name="Trazado 166751" d="M176.692,1804.055H293.247l11.069-250.513H187.761Z" fill="#f0f0f0"/>
          <path id="Trazado_166752" data-name="Trazado 166752" d="M281.838,1791.774l9.324-225.951H199.17l-9.324,225.951Z" fill="#fff"/>
          <path id="Trazado_166753" data-name="Trazado 166753" d="M242.311,1791.774l31.268-225.951h-9.81L232.5,1791.774Z" fill="#fafafa"/>
          <path id="Trazado_166754" data-name="Trazado 166754" d="M228.343,1791.774l31.269-225.951H242.884l-31.268,225.951Z" fill="#fafafa"/>
        </g>
      </g>
      <g id="Grupo_111524" data-name="Grupo 111524">
        <g id="Grupo_111523" data-name="Grupo 111523">
          <g id="Grupo_111522" data-name="Grupo 111522">
            <rect id="Rectángulo_44964" data-name="Rectángulo 44964" width="127.532" height="119.296" transform="translate(545.848 1621.774) rotate(180)" fill="#e7e7e7"/>
            <rect id="Rectángulo_44965" data-name="Rectángulo 44965" width="129.64" height="119.296" transform="translate(543.998 1621.774) rotate(180)" fill="#f5f5f5"/>
            <rect id="Rectángulo_44966" data-name="Rectángulo 44966" width="127.532" height="4.883" transform="translate(545.848 1626.657) rotate(180)" fill="#e7e7e7"/>
            <rect id="Rectángulo_44967" data-name="Rectángulo 44967" width="120.979" height="4.883" transform="translate(531.785 1626.657) rotate(180)" fill="#f5f5f5"/>
            <rect id="Rectángulo_44968" data-name="Rectángulo 44968" width="104.512" height="118.558" transform="translate(538.457 1509.87) rotate(90)" fill="#fafafa"/>
            <rect id="Rectángulo_44969" data-name="Rectángulo 44969" width="104.512" height="0.79" transform="translate(420.689 1509.87) rotate(90)" fill="#e7e7e7"/>
            <path id="Trazado_166755" data-name="Trazado 166755" d="M518.8,1614.382,498.3,1509.87H471.424l20.5,104.512Z" fill="#fff"/>
            <path id="Trazado_166756" data-name="Trazado 166756" d="M487.575,1614.382l-20.5-104.512H454.94l20.5,104.512Z" fill="#fff"/>
          </g>
        </g>
        <rect id="Rectángulo_44970" data-name="Rectángulo 44970" width="111.558" height="1.269" rx="0.61" transform="translate(534.494 1497.763) rotate(90)" fill="#ebebeb"/>
        <rect id="Rectángulo_44971" data-name="Rectángulo 44971" width="136.548" height="18.259" transform="translate(547.999 1516.022) rotate(180)" fill="#e7e7e7" opacity="0.5"/>
        <rect id="Rectángulo_44972" data-name="Rectángulo 44972" width="136.548" height="2.269" transform="translate(547.999 1500.032) rotate(180)" fill="#e0e0e0"/>
        <rect id="Rectángulo_44973" data-name="Rectángulo 44973" width="137.838" height="1.991" rx="0.87" transform="translate(548.644 1498.759) rotate(180)" fill="#ebebeb"/>
        <path id="Trazado_166757" data-name="Trazado 166757" d="M411.282,1516.5H548.169a.477.477,0,0,0,.475-.476h0a.477.477,0,0,0-.475-.475H411.282a.477.477,0,0,0-.476.475h0A.477.477,0,0,0,411.282,1516.5Z" fill="#fff"/>
      </g>
    </g>
    <g id="Grupo_111533" data-name="Grupo 111533">
      <path id="Trazado_166758" data-name="Trazado 166758" d="M441.88,1609.766c-.739,3.716-1.531,7.37-2.417,11.023-.87,3.653-1.761,7.3-2.731,10.926l-1.477,5.435-.194.695c-.09.3-.188.6-.3.911a9.266,9.266,0,0,1-.979,1.93,6.885,6.885,0,0,1-1.866,1.9,5.955,5.955,0,0,1-2.731.986,7.82,7.82,0,0,1-4.288-.947,15.158,15.158,0,0,1-2.779-1.923,24.859,24.859,0,0,1-4.07-4.588l2.781-2.5a34.318,34.318,0,0,0,4.3,2.853,10.222,10.222,0,0,0,2.059.891c.615.2,1.15.173,1.156.072.014-.038-.1-.039-.15-.032s-.046-.026,0-.168.117-.349.181-.614l.23-1.1,1.167-5.463,2.35-10.92c.761-3.639,1.577-7.287,2.371-10.889Z" fill="#ffc3bd"/>
      <path id="Trazado_166759" data-name="Trazado 166759" d="M438.537,1598.339c-8.531,6.531-8.188,18.837-8.188,18.837l15.258,3.648s4.681-12.374,2.782-16.9C446.407,1599.193,443.338,1594.664,438.537,1598.339Z" fill="#263238"/>
      <path id="Trazado_166760" data-name="Trazado 166760" d="M421.608,1633.807,416,1628.2l-3.026,8.776s4.736,2.557,9.269.147Z" fill="#ffc3bd"/>
      <path id="Trazado_166761" data-name="Trazado 166761" d="M408.235,1627.332l-1.031,6.935,5.768,2.707L416,1628.2Z" fill="#ffc3bd"/>
      <path id="Trazado_166762" data-name="Trazado 166762" d="M487.974,1830.515l-8.581.839-8.929-20.424,8.581-.839Z" fill="#ffc3bd"/>
      <path id="Trazado_166763" data-name="Trazado 166763" d="M543.251,1800.321l-6.445,6.051-13.914-15.291,6.445-6.051Z" fill="#ffc3bd"/>
      <path id="Trazado_166764" data-name="Trazado 166764" d="M533.831,1803.47l4.843-8.726a.7.7,0,0,1,.874-.326l7.456,2.838a1.427,1.427,0,0,1,.69,2.012c-1.741,3.013-2.733,4.38-4.863,8.217-1.31,2.361-3.862,7.776-5.671,11.036-1.77,3.188-5.13,1.644-4.668.125,2.069-6.814,1.68-10.607,1.1-13.613A2.313,2.313,0,0,1,533.831,1803.47Z" fill="#263238"/>
      <path id="Trazado_166765" data-name="Trazado 166765" d="M478.254,1828.7h10.538a.874.874,0,0,1,.832.64l2.292,8.338a1.311,1.311,0,0,1-1.286,1.668c-3.714.034-5.474.017-10.108.017H466.357c-3.851,0-4.656-3.893-3.063-4.245,7.144-1.581,11.263-3.762,13.467-5.842A2.166,2.166,0,0,1,478.254,1828.7Z" fill="#263238"/>
      <path id="Trazado_166766" data-name="Trazado 166766" d="M470.468,1810.936l4.6,10.528h8.951l-4.967-11.367Z" opacity="0.2"/>
      <path id="Trazado_166767" data-name="Trazado 166767" d="M529.343,1785.032l-6.447,6.054,7.175,7.879,6.447-6.054Z" opacity="0.2"/>
      <path id="Trazado_166768" data-name="Trazado 166768" d="M441.113,1597.074s-3.857,1.7,9.08,52.9l35.944-3.109c-1.868-14.577-2.666-23.6,1.73-54.223a106.48,106.48,0,0,0-15.438-.691,114.7,114.7,0,0,0-16.321,1.413A152.071,152.071,0,0,0,441.113,1597.074Z" fill="#263238"/>
      <path id="Trazado_166769" data-name="Trazado 166769" d="M472.429,1591.7s2.039.036,4.448.036c1.446,2.234-3.258,12-11.039,18.394a19.651,19.651,0,0,0-6.248-9.057Z" fill="#fff"/>
      <path id="Trazado_166770" data-name="Trazado 166770" d="M456.113,1593.231s-.909.129-3.085.625c-1.445,2.234-3.9,11.759.369,16.621a19.183,19.183,0,0,1,6.193-9.407Z" fill="#fff"/>
      <path id="Trazado_166771" data-name="Trazado 166771" d="M469.223,1573.71c-.576,5.341-.771,15.052,3.206,18.238,0,0-4.248,4.336-12.839,9.122-6.25-4.318-3.482-7.709-3.482-7.709,5.735-1.9,5.208-6.237,3.835-10.229Z" fill="#ffc3bd"/>
      <g id="Grupo_111527" data-name="Grupo 111527">
        <path id="Trazado_166772" data-name="Trazado 166772" d="M459.445,1601.1s5.271-5.738,7.991-4.636.62,3.069.378,4.915,1.057,6.772-2.592,5.493S459.445,1601.1,459.445,1601.1Z" fill="#083142"/>
        <path id="Trazado_166773" data-name="Trazado 166773" d="M459.231,1600.98s-2.486-4.4-5.176-3.815-1.088,2.134-.85,3.789c.306,2.128-1.936,6.2,1.308,5.05C457.669,1604.886,459.231,1600.98,459.231,1600.98Z" fill="#083142"/>
        <g id="Grupo_111526" data-name="Grupo 111526" opacity="0.2">
          <path id="Trazado_166774" data-name="Trazado 166774" d="M457.864,1600.026a5.6,5.6,0,0,0,.5,2.586,11.7,11.7,0,0,0,.861-1.628,11.958,11.958,0,0,0-1.27-1.77A2.253,2.253,0,0,0,457.864,1600.026Z"/>
          <path id="Trazado_166775" data-name="Trazado 166775" d="M461.362,1599.242c-1.126.993-1.915,1.852-1.915,1.852a14.8,14.8,0,0,0,1.029,1.733,3.471,3.471,0,0,0,.975-2.273A2.3,2.3,0,0,0,461.362,1599.242Z"/>
        </g>
        <path id="Trazado_166776" data-name="Trazado 166776" d="M459.378,1602.9c-.744,0-1.2-.815-1.258-2.747s1.431-.86,1.431-.86,1.976-1.032,1.641,1.317C460.933,1602.439,460.148,1602.9,459.378,1602.9Z" fill="#083142"/>
      </g>
      <path id="Trazado_166777" data-name="Trazado 166777" d="M465.44,1577.554l-5.493,5.573a16.757,16.757,0,0,1,.754,2.853c2.209-.517,5.407-2.812,5.442-5.175A9.444,9.444,0,0,0,465.44,1577.554Z" opacity="0.2"/>
      <path id="Trazado_166778" data-name="Trazado 166778" d="M460.734,1555.67s-5.981,8.311-6.97,12.041c-4.081,2.373-4.9-9.334-2.74-16.556C457.727,1555.333,460.734,1555.67,460.734,1555.67Z" fill="#263238"/>
      <path id="Trazado_166779" data-name="Trazado 166779" d="M473.921,1565.366c-2.228,8.53-2.989,12.188-8.221,15.763-7.87,5.377-17.86.775-18.226-8.249-.329-8.122,3.369-20.708,12.5-22.482A12.025,12.025,0,0,1,473.921,1565.366Z" fill="#ffc3bd"/>
      <path id="Trazado_166780" data-name="Trazado 166780" d="M478.558,1561.962s-4.286,6.943-4.862,9.964c-3.111,2.116-4.425-7.144-3.111-13.006C472.015,1553.748,478.558,1561.962,478.558,1561.962Z" fill="#263238"/>
      <path id="Trazado_166781" data-name="Trazado 166781" d="M476.849,1557.125c-1.235.939-2.552-2.532-1.313-5.189-2.373.147-5.224-1.26-4.616-3.546-4.665,1.565-6.4-3.186-5.86-6.473.65-3.973,4.135-4.85,6.181-3.8.041-1.786,4.519-5.523,6.237-2.6,3.191-1.126,8.33-.779,8.228,3.14,2.108.066,8.332,2.452,6.038,8.05,2.746.163,4.234,3.656,2.706,6.292a4.258,4.258,0,0,1,.875,6.9c1.267,2.639-2.587,6.564-4.629,6.093-1.562,2.4-3.954,4.193-5.519,2.151-3.038,2.214-6.441-.593-5.67-2.755C476.065,1564.821,472.59,1559.143,476.849,1557.125Z" fill="#263238"/>
      <path id="Trazado_166782" data-name="Trazado 166782" d="M481.933,1548.731c2.24,3.738,2.054,7.968-.416,9.448s-6.287-.351-8.527-4.09-2.054-7.968.415-9.448S479.693,1544.992,481.933,1548.731Z" fill="#dae0e3"/>
      <path id="Trazado_166783" data-name="Trazado 166783" d="M461.135,1554.624c-.137,1.073-3.087.795-3.937-1.093-1.215,1.277-4.085,1.941-5.067.55-1.657,3.115-4.983,2.3-5.855.8s-1.431-4.257.294-4.8c-1.005-.866-.7-4.914,1.921-4.406,1.1-2.157,4.116-4.608,6.314-2.7,1.194-1.042,5.977-3.081,7.941.737a3.4,3.4,0,0,1,5.1,1.6c3.116-.815,4.463,1.546,4.45,2.822,2.213.6,2.359,4.424.969,5.24.523,1.929.246,4-1.786,3.828-.391,2.594-3.87,3-4.692,1.582C464.577,1560.267,459.962,1557.748,461.135,1554.624Z" fill="#263238"/>
      <path id="Trazado_166784" data-name="Trazado 166784" d="M455.873,1547.279c2.533-3.5,11.756-4.957,19.746.292,7.2,4.731,6.734,15.712,1.01,15.128s-11.389-7.3-11.389-7.3Z" fill="#263238"/>
      <path id="Trazado_166785" data-name="Trazado 166785" d="M474.625,1573.067a6.445,6.445,0,0,1-3.788,3.141c-2.163.651-3.289-1.273-2.726-3.338.508-1.859,2.245-4.438,4.434-4.185A2.894,2.894,0,0,1,474.625,1573.067Z" fill="#ffc3bd"/>
      <path id="Trazado_166786" data-name="Trazado 166786" d="M450.193,1649.971s-12.161,53.8-4.043,91.724c5.437,25.4,25.046,76.717,25.046,76.717l15.331-.4s-14.843-53.85-17.912-75.028c-5.25-36.226,7.9-95.3,7.9-95.3Z" fill="#a8b7bd"/>
      <path id="Trazado_166787" data-name="Trazado 166787" d="M464.216,1660.834l7.666,12.09a370.163,370.163,0,0,0-4.386,43.306C456.715,1696.93,461.819,1671.051,464.216,1660.834Z" opacity="0.2"/>
      <path id="Trazado_166788" data-name="Trazado 166788" d="M469.035,1819.206l18.939-.483-1.1-5.819-19.324.916Z" fill="#263238"/>
      <path id="Trazado_166789" data-name="Trazado 166789" d="M458.052,1649.4s7.134,57.053,22.6,88.2c12.491,25.158,45.823,60.972,45.823,60.972l8.522-8.78s-22.514-38.922-31.8-55.634c-22.764-40.978-4.16-72.248-17.062-87.294Z" fill="#a8b7bd"/>
      <path id="Trazado_166790" data-name="Trazado 166790" d="M525.611,1799.745l11-10.721-3.648-4.964L521.3,1795.7Z" fill="#263238"/>
      <g id="Grupo_111528" data-name="Grupo 111528">
        <path id="Trazado_166791" data-name="Trazado 166791" d="M486.493,1644.706l1.9,3.077c.147.239-.126.519-.542.555l-37.7,3.26c-.324.028-.606-.107-.644-.309l-.6-3.19c-.042-.221.223-.433.577-.464l36.4-3.148A.654.654,0,0,1,486.493,1644.706Z" fill="#007cff"/>
        <path id="Trazado_166792" data-name="Trazado 166792" d="M486.493,1644.706l1.9,3.077c.147.239-.126.519-.542.555l-37.7,3.26c-.324.028-.606-.107-.644-.309l-.6-3.19c-.042-.221.223-.433.577-.464l36.4-3.148A.654.654,0,0,1,486.493,1644.706Z" fill="#fff" opacity="0.5"/>
      </g>
      <path id="Trazado_166793" data-name="Trazado 166793" d="M481.956,1649.2l.975-.084c.194-.017.333-.13.31-.251l-.819-4.141c-.024-.121-.2-.206-.4-.19l-.975.085c-.194.016-.333.129-.309.25l.819,4.141C481.584,1649.13,481.762,1649.216,481.956,1649.2Z" fill="#007cff"/>
      <path id="Trazado_166794" data-name="Trazado 166794" d="M452.925,1651.71l.974-.085c.2-.016.334-.129.31-.25l-.819-4.141c-.024-.121-.2-.207-.4-.19l-.975.085c-.194.016-.334.129-.31.25l.819,4.141C452.552,1651.641,452.73,1651.727,452.925,1651.71Z" fill="#007cff"/>
      <path id="Trazado_166795" data-name="Trazado 166795" d="M467.44,1650.454l.975-.084c.194-.017.334-.13.31-.251l-.819-4.14c-.024-.122-.2-.207-.4-.19l-.974.084c-.2.017-.334.13-.31.251l.819,4.141C467.068,1650.386,467.246,1650.471,467.44,1650.454Z" fill="#007cff"/>
      <path id="Trazado_166796" data-name="Trazado 166796" d="M459.48,1565.073c-.138.7-.622,1.2-1.082,1.11s-.72-.734-.582-1.437.623-1.2,1.082-1.109S459.619,1564.37,459.48,1565.073Z" fill="#263238"/>
      <ellipse id="Elipse_5018" data-name="Elipse 5018" cx="1.297" cy="0.848" rx="1.297" ry="0.848" transform="translate(449.619 1564.457) rotate(-78.878)" fill="#263238"/>
      <path id="Trazado_166797" data-name="Trazado 166797" d="M451.147,1562.153l-1.593-.818S450.161,1562.824,451.147,1562.153Z" fill="#263238"/>
      <path id="Trazado_166798" data-name="Trazado 166798" d="M454.266,1565.264a19.127,19.127,0,0,1-3.389,3.994,3.081,3.081,0,0,0,2.414.963Z" fill="#ff847f"/>
      <path id="Trazado_166799" data-name="Trazado 166799" d="M456.542,1573.572a5.828,5.828,0,0,0,4.005-1.524.175.175,0,0,0-.25-.244,5.727,5.727,0,0,1-5,1.294.175.175,0,1,0-.068.343A6.765,6.765,0,0,0,456.542,1573.572Z" fill="#263238"/>
      <path id="Trazado_166800" data-name="Trazado 166800" d="M464.254,1562.347a.349.349,0,0,0,.3-.531,4.1,4.1,0,0,0-3.168-2.048.35.35,0,0,0-.025.7,3.4,3.4,0,0,1,2.6,1.712A.351.351,0,0,0,464.254,1562.347Z" fill="#263238"/>
      <path id="Trazado_166801" data-name="Trazado 166801" d="M449.327,1559.531a.349.349,0,0,0,.17-.044,3.425,3.425,0,0,1,3.1-.2.35.35,0,1,0,.325-.619,4.1,4.1,0,0,0-3.767.212.35.35,0,0,0,.171.655Z" fill="#263238"/>
      <path id="Trazado_166802" data-name="Trazado 166802" d="M489.394,1600.82c.677.662,1.147,1.174,1.681,1.767.51.579,1,1.166,1.477,1.76q1.432,1.782,2.712,3.658a60.591,60.591,0,0,1,4.474,7.908,51.671,51.671,0,0,1,3.117,8.57c.384,1.476.734,2.962.985,4.469a9.576,9.576,0,0,1-.683,6.322,8.267,8.267,0,0,1-2.236,2.661,10.914,10.914,0,0,1-2.613,1.5,18.771,18.771,0,0,1-4.968,1.182,41.757,41.757,0,0,1-9.127-.119,93.236,93.236,0,0,1-17.1-3.633l.914-3.627c2.72.448,5.522.871,8.289,1.155,2.768.32,5.537.55,8.269.61a42.839,42.839,0,0,0,7.9-.433,12.577,12.577,0,0,0,3.26-.973,2.731,2.731,0,0,0,1.474-1.305,2.021,2.021,0,0,0,.122-.725,4.925,4.925,0,0,0-.038-.536c-.042-.207-.064-.388-.157-.755-.28-1.287-.65-2.555-1.044-3.814a54.932,54.932,0,0,0-7.124-14.158c-.749-1.1-1.537-2.167-2.363-3.2-.411-.516-.833-1.021-1.261-1.51-.4-.476-.891-1.016-1.222-1.358Z" fill="#ffc3bd"/>
      <path id="Trazado_166803" data-name="Trazado 166803" d="M470.3,1633.788l-7.01-3.714-.314,9.278s4.951.313,7.857-1.965Z" fill="#ffc3bd"/>
      <g id="Grupo_111532" data-name="Grupo 111532">
        <g id="Grupo_111530" data-name="Grupo 111530">
          <g id="Grupo_111529" data-name="Grupo 111529">
            <path id="Trazado_166804" data-name="Trazado 166804" d="M458.019,1683.657l5.786-62.811-12.352-9.457-37.7-3.473-6.546,71.06Z" fill="#007cff"/>
            <path id="Trazado_166805" data-name="Trazado 166805" d="M458.019,1683.657l5.786-62.811-12.352-9.457-37.7-3.473-6.546,71.06Z" fill="#fff" opacity="0.8"/>
          </g>
          <path id="Trazado_166806" data-name="Trazado 166806" d="M463.805,1620.847l-12.352-9.457,3.238,11.32Z" fill="#083142"/>
        </g>
        <g id="Grupo_111531" data-name="Grupo 111531">
          <circle id="Elipse_5019" data-name="Elipse 5019" cx="15.398" cy="15.398" r="15.398" transform="translate(396.224 1659.161)" fill="#083142"/>
          <circle id="Elipse_5020" data-name="Elipse 5020" cx="12.28" cy="12.28" r="12.28" transform="matrix(0.785, -0.62, 0.62, 0.785, 394.374, 1672.535)" fill="#fff"/>
          <path id="Trazado_166807" data-name="Trazado 166807" d="M419.21,1673.48l-5.418-.636.636-5.418-3.884-.456-.636,5.418-5.418-.636-.456,3.884,5.418.636-.636,5.418,3.884.456.636-5.418,5.418.636Z" fill="#083142"/>
        </g>
        <path id="Trazado_166808" data-name="Trazado 166808" d="M454.583,1633.864h0a4.2,4.2,0,0,1-4.571,3.8l-27.5-2.53a4.2,4.2,0,0,1-3.8-4.571h0a4.2,4.2,0,0,1,4.571-3.8l27.5,2.529A4.2,4.2,0,0,1,454.583,1633.864Z" fill="#007cff" opacity="0.4"/>
        <path id="Trazado_166809" data-name="Trazado 166809" d="M445.215,1645.213h0a4.2,4.2,0,0,1-4.571,3.8l-19.219-1.768a4.2,4.2,0,0,1-3.8-4.57h0a4.2,4.2,0,0,1,4.57-3.8l19.219,1.768A4.2,4.2,0,0,1,445.215,1645.213Z" fill="#007cff" opacity="0.4"/>
      </g>
      <path id="Trazado_166810" data-name="Trazado 166810" d="M459.017,1630.629l1.052,6.932,2.908,1.792.314-9.278Z" fill="#ffc3bd"/>
      <path id="Trazado_166811" data-name="Trazado 166811" d="M487.867,1592.639c4.4.779,10.581,13.418,10.581,13.418L487.34,1616.1s-8.835-9.636-8.364-15.378C479.377,1595.851,482.254,1591.647,487.867,1592.639Z" fill="#263238"/>
      <path id="Trazado_166812" data-name="Trazado 166812" d="M532.131,1808.161a1.08,1.08,0,0,0,.343-.058c1.054-.355,1.745-2.306,2.064-3.437a.175.175,0,0,0-.058-.183.177.177,0,0,0-.192-.019c-.321.168-3.136,1.673-3.228,2.785a.684.684,0,0,0,.3.622A1.279,1.279,0,0,0,532.131,1808.161Zm1.95-3.185c-.489,1.56-1.12,2.594-1.719,2.8a.824.824,0,0,1-.792-.18.332.332,0,0,1-.161-.313C531.465,1806.595,533.115,1805.524,534.081,1804.976Z" fill="#007cff"/>
      <path id="Trazado_166813" data-name="Trazado 166813" d="M531.7,1805.416a6.336,6.336,0,0,0,2.765-.648.175.175,0,0,0-.007-.3c-.094-.052-2.324-1.278-3.524-.852a1.061,1.061,0,0,0-.657.622.7.7,0,0,0,.159.864A2.027,2.027,0,0,0,531.7,1805.416Zm2.288-.8c-.954.406-2.8.656-3.325.215-.087-.073-.173-.193-.062-.465a.714.714,0,0,1,.449-.424C531.864,1803.652,533.35,1804.306,533.984,1804.618Z" fill="#007cff"/>
      <path id="Trazado_166814" data-name="Trazado 166814" d="M473.578,1830.407a14.014,14.014,0,0,0,2.877-.365.175.175,0,0,0,.036-.329c-.433-.2-4.256-1.97-5.219-1.319a.574.574,0,0,0-.249.542,1.274,1.274,0,0,0,.52.986A3.47,3.47,0,0,0,473.578,1830.407Zm2.275-.6c-1.135.212-3.234.488-4.1-.165a.932.932,0,0,1-.382-.727.229.229,0,0,1,.1-.232C472.006,1828.318,474.266,1829.109,475.853,1829.808Z" fill="#007cff"/>
      <path id="Trazado_166815" data-name="Trazado 166815" d="M476.417,1830.046a.174.174,0,0,0,.17-.214c-.036-.16-.9-3.93-2.979-3.69-.519.062-.662.32-.689.525-.13.96,2.28,2.9,3.431,3.366A.173.173,0,0,0,476.417,1830.046Zm-2.621-3.566c1.325,0,2.1,2.194,2.354,3.073-1.245-.652-2.968-2.225-2.885-2.839.006-.045.025-.182.385-.225A1.208,1.208,0,0,1,473.8,1826.48Z" fill="#007cff"/>
      <path id="Trazado_166816" data-name="Trazado 166816" d="M459.094,1563.716l-1.593-.819S458.108,1564.386,459.094,1563.716Z" fill="#263238"/>
    </g>
  </g>
</svg>
