<svg xmlns="http://www.w3.org/2000/svg" xmlns:xlink="http://www.w3.org/1999/xlink" width="90.124" height="90.124" viewBox="0 0 90.124 90.124">
  <defs>
    <clipPath id="clip-path">
      <path id="path1149" d="M0-682.665H90.124v90.124H0Z" transform="translate(0 682.665)"/>
    </clipPath>
  </defs>
  <g id="g1143" transform="translate(0 682.665)">
    <g id="g1145" transform="translate(0 -682.665)">
      <g id="g1147" clip-path="url(#clip-path)">
        <g id="g1153" transform="translate(21.739 6.601)">
          <path id="path1155" d="M-221.046,0h-31.86a1.76,1.76,0,0,0-1.76,1.76V8.8h35.381V1.76A1.76,1.76,0,0,0-221.046,0" transform="translate(254.666 0)" fill="#939393"/>
        </g>
        <g id="g1157" transform="translate(8.361 11.882)">
          <path id="path1159" d="M-34.719,0A5.281,5.281,0,0,0-40,5.281V71.642a5.281,5.281,0,0,0,5.281,5.281H16.856a5.281,5.281,0,0,0,5.281-5.281V5.281A5.281,5.281,0,0,0,16.856,0Z" transform="translate(40)" fill="#aa8452"/>
        </g>
        <g id="g1161" transform="translate(59.947 11.882)">
          <path id="path1163" d="M-69.3-34.719V31.642a5.28,5.28,0,0,1-5.281,5.281h-5.26a5.28,5.28,0,0,0,5.281-5.281V-34.719A5.28,5.28,0,0,0-79.84-40h5.26A5.28,5.28,0,0,1-69.3-34.719" transform="translate(79.84 40)" fill="#7f5c3e"/>
        </g>
        <g id="g1165" transform="translate(13.642 76.482)">
          <path id="path1167" d="M0,0V6.161a.88.88,0,0,0,.88.88H50.695a.88.88,0,0,0,.88-.88V0Z" fill="#ccc"/>
        </g>
        <g id="g1169" transform="translate(13.642 17.162)">
          <path id="path1171" d="M-5.787,0a.88.88,0,0,0-.88.88V60.2a.88.88,0,0,0,.88.88H44.028a.88.88,0,0,0,.88-.88V.88a.88.88,0,0,0-.88-.88Z" transform="translate(6.667 0)" fill="#fff"/>
        </g>
        <g id="g1173" transform="translate(21.563 56.24)">
          <path id="path1175" d="M-49.764-61.337h-5.809a1.76,1.76,0,0,1-1.76-1.76v-5.809a1.76,1.76,0,0,1,1.76-1.76h5.809A1.76,1.76,0,0,1-48-68.906V-63.1a1.76,1.76,0,0,1-1.76,1.76" transform="translate(57.333 70.666)" fill="#ffd47d"/>
        </g>
        <g id="g1177" transform="translate(21.387 36.349)">
          <path id="path1179" d="M-49.764-61.337h-5.809a1.76,1.76,0,0,1-1.76-1.76v-5.809a1.76,1.76,0,0,1,1.76-1.76h5.809A1.76,1.76,0,0,1-48-68.906V-63.1a1.76,1.76,0,0,1-1.76,1.76" transform="translate(57.333 70.666)" fill="#ffd47d"/>
        </g>
        <g id="g1181" transform="translate(55.183 25.083)">
          <path id="path1183" d="M-140.034-174.753h-16.018a5.281,5.281,0,0,1-5.281-5.281v-16.018a5.281,5.281,0,0,1,5.281-5.281h16.018a5.281,5.281,0,0,1,5.281,5.281v16.018a5.281,5.281,0,0,1-5.281,5.281" transform="translate(161.333 201.333)" fill="#7bd6a4"/>
        </g>
        <g id="g1185" transform="translate(31.772 1.32)">
          <path id="path1187" d="M-77.54,0h-8.273a3.52,3.52,0,0,0-3.52,3.52V17.074a1.76,1.76,0,0,0,1.76,1.76h11.794a1.76,1.76,0,0,0,1.76-1.76V3.52A3.52,3.52,0,0,0-77.54,0" transform="translate(89.333 0)" fill="#ccc"/>
        </g>
        <g id="g1189" transform="translate(71.201 25.083)">
          <path id="path1191" d="M-69.438-34.719V-18.7a5.28,5.28,0,0,1-5.281,5.281H-80A5.28,5.28,0,0,0-74.719-18.7V-34.719A5.28,5.28,0,0,0-80-40h5.281a5.28,5.28,0,0,1,5.281,5.281" transform="translate(80 40)" fill="#28af5f"/>
        </g>
        <g id="g1193" transform="translate(38.285 1.32)">
          <path id="path1195" d="M-57.865-23.146V-9.592a1.761,1.761,0,0,1-1.76,1.76h-5.281a1.761,1.761,0,0,0,1.76-1.76V-23.146a3.52,3.52,0,0,0-3.52-3.52h5.281a3.52,3.52,0,0,1,3.52,3.52" transform="translate(66.666 26.667)" fill="#a0a0a0"/>
        </g>
        <g id="g1197" transform="translate(7.041 10.561)">
          <path id="path1199" d="M-94.32-513.1h-7.745a6.608,6.608,0,0,1-6.6-6.6v-66.361a6.608,6.608,0,0,1,6.6-6.6h17.69a1.32,1.32,0,0,1,1.32,1.32,1.32,1.32,0,0,1-1.32,1.32h-17.69a3.965,3.965,0,0,0-3.961,3.961V-519.7a3.965,3.965,0,0,0,3.961,3.961h7.745a1.32,1.32,0,0,1,1.32,1.32A1.32,1.32,0,0,1-94.32-513.1Z" transform="translate(108.666 592.665)"/>
        </g>
        <g id="g1201" transform="translate(26.228 50.519)">
          <path id="path1203" d="M-296.343,29.605h-37.669a1.32,1.32,0,0,1-1.32-1.32,1.32,1.32,0,0,1,1.32-1.32h37.669A3.965,3.965,0,0,0-292.383,23V-8.68a1.32,1.32,0,0,1,1.32-1.32,1.32,1.32,0,0,1,1.32,1.32V23A6.608,6.608,0,0,1-296.343,29.605Z" transform="translate(335.332 10)"/>
        </g>
        <g id="g1205" transform="translate(45.854 10.561)">
          <path id="path1207" d="M14.643,5.578a1.32,1.32,0,0,1-1.32-1.32V-3.4A3.965,3.965,0,0,0,9.363-7.36H-8.68A1.32,1.32,0,0,1-10-8.68,1.32,1.32,0,0,1-8.68-10H9.363a6.608,6.608,0,0,1,6.6,6.6V4.258A1.32,1.32,0,0,1,14.643,5.578Z" transform="translate(10 10)"/>
        </g>
        <g id="g1209" transform="translate(30.452 0)">
          <path id="path1211" d="M-94.492-10h8.273a4.846,4.846,0,0,1,4.841,4.841V8.395a3.084,3.084,0,0,1-3.08,3.08H-96.253a3.084,3.084,0,0,1-3.08-3.08V-5.159A4.846,4.846,0,0,1-94.492-10ZM-84.459,8.835a.441.441,0,0,0,.44-.44V-5.159a2.2,2.2,0,0,0-2.2-2.2h-8.273a2.2,2.2,0,0,0-2.2,2.2V8.395a.441.441,0,0,0,.44.44Z" transform="translate(99.333 10)"/>
        </g>
        <g id="g1213" transform="translate(12.322 15.842)">
          <path id="path1215" d="M-348.651-254.279h-49.815a2.2,2.2,0,0,1-2.2-2.2V-315.8a2.2,2.2,0,0,1,2.2-2.2H-381.3a1.32,1.32,0,0,1,1.32,1.32,1.32,1.32,0,0,1-1.32,1.32h-16.722v58.44h48.935v-19.1a1.32,1.32,0,0,1,1.32-1.32,1.32,1.32,0,0,1,1.32,1.32v19.539A2.2,2.2,0,0,1-348.651-254.279Z" transform="translate(400.666 317.999)"/>
        </g>
        <g id="g1217" transform="translate(45.854 15.842)">
          <path id="path1219" d="M9.363.3a1.32,1.32,0,0,1-1.32-1.32V-7.36H-8.68A1.32,1.32,0,0,1-10-8.68,1.32,1.32,0,0,1-8.68-10H8.483a2.2,2.2,0,0,1,2.2,2.2v6.777A1.32,1.32,0,0,1,9.363.3Z" transform="translate(10 10)"/>
        </g>
        <g id="g1221" transform="translate(12.322 75.162)">
          <path id="path1223" d="M-348.651-.319h-49.815a2.2,2.2,0,0,1-2.2-2.2V-8.68a1.32,1.32,0,0,1,1.32-1.32,1.32,1.32,0,0,1,1.32,1.32v5.721h48.935V-8.68a1.32,1.32,0,0,1,1.32-1.32,1.32,1.32,0,0,1,1.32,1.32v6.161A2.2,2.2,0,0,1-348.651-.319Z" transform="translate(400.666 10)"/>
        </g>
        <g id="g1225" transform="translate(45.766 5.281)">
          <path id="path1227" d="M-71.346-10h8.273a3.084,3.084,0,0,1,3.08,3.08V-3.4a1.32,1.32,0,0,1-1.32,1.32H-71.346a1.32,1.32,0,0,1-1.32-1.32V-8.68A1.32,1.32,0,0,1-71.346-10Zm8.713,5.281v-2.2a.441.441,0,0,0-.44-.44h-6.953v2.64Z" transform="translate(72.666 10)"/>
        </g>
        <g id="g1229" transform="translate(20.419 5.281)">
          <path id="path1231" d="M-20.253-10h8.273a1.32,1.32,0,0,1,1.32,1.32V-3.4a1.32,1.32,0,0,1-1.32,1.32H-22.013a1.32,1.32,0,0,1-1.32-1.32V-6.92A3.084,3.084,0,0,1-20.253-10ZM-13.3-7.36h-6.953a.441.441,0,0,0-.44.44v2.2H-13.3Z" transform="translate(23.333 10)"/>
        </g>
        <g id="g1233" transform="translate(20.243 54.919)">
          <path id="path1235" d="M-58.444-68.7h-5.809a3.084,3.084,0,0,1-3.08-3.08v-5.809a3.084,3.084,0,0,1,3.08-3.08h5.809a3.084,3.084,0,0,1,3.08,3.08v5.809A3.084,3.084,0,0,1-58.444-68.7Zm-5.809-9.329a.441.441,0,0,0-.44.44v5.809a.441.441,0,0,0,.44.44h5.809a.441.441,0,0,0,.44-.44v-5.809a.441.441,0,0,0-.44-.44Z" transform="translate(67.333 80.666)"/>
        </g>
        <g id="g1237" transform="translate(34.706 56.973)">
          <path id="path1239" d="M-4.925-7.36H-8.68A1.32,1.32,0,0,1-10-8.68,1.32,1.32,0,0,1-8.68-10h3.755A1.32,1.32,0,0,1-3.6-8.68,1.32,1.32,0,0,1-4.925-7.36Z" transform="translate(10 10)"/>
        </g>
        <g id="g1241" transform="translate(43.83 56.973)">
          <path id="path1243" d="M3.554-7.36H-8.68A1.32,1.32,0,0,1-10-8.68,1.32,1.32,0,0,1-8.68-10H3.554a1.32,1.32,0,0,1,1.32,1.32A1.32,1.32,0,0,1,3.554-7.36Z" transform="translate(10 10)"/>
        </g>
        <g id="g1245" transform="translate(34.706 62.195)">
          <path id="path1247" d="M1.236-7.36H-8.68A1.32,1.32,0,0,1-10-8.68,1.32,1.32,0,0,1-8.68-10H1.236a1.32,1.32,0,0,1,1.32,1.32A1.32,1.32,0,0,1,1.236-7.36Z" transform="translate(10 10)"/>
        </g>
        <g id="g1249" transform="translate(49.844 62.195)">
          <path id="path1251" d="M-5.511-7.36H-8.68A1.32,1.32,0,0,1-10-8.68,1.32,1.32,0,0,1-8.68-10h3.168a1.32,1.32,0,0,1,1.32,1.32A1.32,1.32,0,0,1-5.511-7.36Z" transform="translate(10 10)"/>
        </g>
        <g id="g1253" transform="translate(20.067 35.029)">
          <path id="path1255" d="M-58.444-68.7h-5.809a3.084,3.084,0,0,1-3.08-3.08v-5.809a3.084,3.084,0,0,1,3.08-3.08h5.809a3.084,3.084,0,0,1,3.08,3.08v5.809A3.084,3.084,0,0,1-58.444-68.7Zm-5.809-9.329a.441.441,0,0,0-.44.44v5.809a.441.441,0,0,0,.44.44h5.809a.441.441,0,0,0,.44-.44v-5.809a.441.441,0,0,0-.44-.44Z" transform="translate(67.333 80.666)"/>
        </g>
        <g id="g1257" transform="translate(34.53 37.082)">
          <path id="path1259" d="M-4.925-7.36H-8.68A1.32,1.32,0,0,1-10-8.68,1.32,1.32,0,0,1-8.68-10h3.755A1.32,1.32,0,0,1-3.6-8.68,1.32,1.32,0,0,1-4.925-7.36Z" transform="translate(10 10)"/>
        </g>
        <g id="g1261" transform="translate(43.654 37.082)">
          <path id="path1263" d="M-4.543-7.36H-8.68A1.32,1.32,0,0,1-10-8.68,1.32,1.32,0,0,1-8.68-10h4.137a1.32,1.32,0,0,1,1.32,1.32A1.32,1.32,0,0,1-4.543-7.36Z" transform="translate(10 10)"/>
        </g>
        <g id="g1265" transform="translate(34.53 42.304)">
          <path id="path1267" d="M1.236-7.36H-8.68A1.32,1.32,0,0,1-10-8.68,1.32,1.32,0,0,1-8.68-10H1.236a1.32,1.32,0,0,1,1.32,1.32A1.32,1.32,0,0,1,1.236-7.36Z" transform="translate(10 10)"/>
        </g>
        <g id="g1269" transform="translate(53.863 23.763)">
          <path id="path1271" d="M-148.714-182.113h-16.018a6.608,6.608,0,0,1-6.6-6.6v-16.018a6.608,6.608,0,0,1,6.6-6.6h16.018a6.608,6.608,0,0,1,6.6,6.6v16.018A6.608,6.608,0,0,1-148.714-182.113Zm-16.018-26.58a3.965,3.965,0,0,0-3.961,3.961v16.018a3.965,3.965,0,0,0,3.961,3.961h16.018a3.965,3.965,0,0,0,3.961-3.961v-16.018a3.965,3.965,0,0,0-3.961-3.961Z" transform="translate(171.333 211.333)"/>
        </g>
        <g id="g1273" transform="translate(60.442 32.418)">
          <path id="path1275" d="M-4.529-37.231a2.186,2.186,0,0,1-1.556-.645L-9.613-41.4a1.32,1.32,0,0,1,0-1.867,1.32,1.32,0,0,1,1.867,0l3.218,3.218,8.337-8.337a1.32,1.32,0,0,1,1.867,0,1.32,1.32,0,0,1,0,1.867l-8.648,8.648A2.186,2.186,0,0,1-4.529-37.231Z" transform="translate(10 48.777)"/>
        </g>
      </g>
    </g>
  </g>
</svg>
