<svg xmlns="http://www.w3.org/2000/svg" xmlns:xlink="http://www.w3.org/1999/xlink" width="203" height="158.75" viewBox="0 0 203 158.75">
  <defs>
    <filter id="Rectángulo_45085" x="0.728" y="59.6" width="49.053" height="49.941" filterUnits="userSpaceOnUse">
      <feOffset dy="8.888" input="SourceAlpha"/>
      <feGaussianBlur stdDeviation="2.666" result="blur"/>
      <feFlood flood-color="#1e85ff" flood-opacity="0.4"/>
      <feComposite operator="in" in2="blur"/>
      <feComposite in="SourceGraphic"/>
    </filter>
    <filter id="Rectángulo_45086" x="30.325" y="100.183" width="57.633" height="45.651" filterUnits="userSpaceOnUse">
      <feOffset dy="8.888" input="SourceAlpha"/>
      <feGaussianBlur stdDeviation="2.666" result="blur-2"/>
      <feFlood flood-color="#1e85ff" flood-opacity="0.4"/>
      <feComposite operator="in" in2="blur-2"/>
      <feComposite in="SourceGraphic"/>
    </filter>
    <filter id="Rectángulo_45087" x="137.367" y="21.094" width="61.923" height="62.812" filterUnits="userSpaceOnUse">
      <feOffset dy="8.888" input="SourceAlpha"/>
      <feGaussianBlur stdDeviation="2.666" result="blur-3"/>
      <feFlood flood-color="#1e85ff" flood-opacity="0.4"/>
      <feComposite operator="in" in2="blur-3"/>
      <feComposite in="SourceGraphic"/>
    </filter>
    <filter id="Rectángulo_45088" x="0.728" y="19.016" width="49.053" height="49.941" filterUnits="userSpaceOnUse">
      <feOffset dy="8.888" input="SourceAlpha"/>
      <feGaussianBlur stdDeviation="2.666" result="blur-4"/>
      <feFlood flood-color="#1e85ff" flood-opacity="0.4"/>
      <feComposite operator="in" in2="blur-4"/>
      <feComposite in="SourceGraphic"/>
    </filter>
  </defs>
  <g id="Grupo_111612" data-name="Grupo 111612" transform="translate(-206.728 -2058.713)">
    <g id="Grupo_111599" data-name="Grupo 111599" transform="translate(206.728 2058.713)">
      <path id="Trazado_167202" data-name="Trazado 167202" d="M493.42,2088.793a22.65,22.65,0,0,0-.454-4.518l7.557-4.363-7.078-12.259-7.534,4.35a22.514,22.514,0,0,0-7.952-4.607v-8.683H463.8v8.683a22.411,22.411,0,0,0-3.792,1.653c-.143.078-.283.163-.424.244s-.284.161-.423.246a22.385,22.385,0,0,0-3.327,2.457l-7.52-4.341-7.078,12.259,7.52,4.342a22.391,22.391,0,0,0-.464,4.109c0,.166,0,.332,0,.5s0,.321,0,.481a22.409,22.409,0,0,0,.464,4.11l-7.52,4.341,7.078,12.259,7.52-4.341a22.508,22.508,0,0,0,7.966,4.583v8.7H477.96v-8.726a22.693,22.693,0,0,0,7.905-4.591l7.581,4.376,7.078-12.259-7.58-4.376A22.631,22.631,0,0,0,493.42,2088.793Zm-13.269,9.977q-.091.085-.185.168c-.244.22-.5.429-.753.63q-.182.141-.368.276c-.211.154-.427.3-.645.44q-.262.167-.532.323t-.545.3q-.348.179-.7.339-.209.093-.421.18c-.3.123-.61.237-.923.338-.079.026-.158.052-.238.076a13.629,13.629,0,0,1-16.552-18.249c.032-.075.063-.15.1-.224.123-.282.258-.557.4-.829.09-.171.182-.342.279-.51s.2-.333.3-.5c.165-.257.335-.512.518-.759.048-.066.1-.131.147-.2a13.63,13.63,0,0,1,24.08,5.21c.018.081.036.162.053.242.069.323.124.646.169.97q.031.227.054.454c.028.26.046.521.059.781.009.207.014.413.013.62s0,.417-.014.624c-.012.26-.031.519-.058.778-.016.153-.034.305-.055.457-.045.323-.1.645-.168.966-.017.082-.035.164-.054.246a13.61,13.61,0,0,1-3.953,6.846Z" transform="translate(-328.053 -2058.713)" fill="#ffc8bf"/>
      <path id="Trazado_167203" data-name="Trazado 167203" d="M587.495,2192.176a12.754,12.754,0,0,0-.256-2.547l4.26-2.459-3.99-6.911-4.247,2.452a12.686,12.686,0,0,0-4.483-2.6v-4.9H570.8v4.9a12.612,12.612,0,0,0-2.138.931c-.081.044-.159.092-.239.138s-.16.091-.239.139a12.651,12.651,0,0,0-1.875,1.385l-4.239-2.448-3.99,6.911,4.239,2.448a12.609,12.609,0,0,0-.262,2.316c0,.094,0,.187,0,.281s0,.181,0,.271a12.622,12.622,0,0,0,.262,2.317l-4.239,2.448,3.99,6.911,4.239-2.448a12.686,12.686,0,0,0,4.491,2.584v4.9h7.98v-4.919a12.8,12.8,0,0,0,4.457-2.588l4.273,2.467,3.99-6.911-4.273-2.467A12.749,12.749,0,0,0,587.495,2192.176Zm-7.48,5.624c-.034.032-.069.063-.1.095-.138.124-.279.242-.425.355-.068.053-.138.1-.208.155q-.178.129-.364.248-.148.094-.3.182c-.1.059-.2.114-.308.168-.13.067-.263.131-.4.191-.079.035-.157.07-.237.1-.171.07-.344.134-.521.191l-.134.043a7.684,7.684,0,0,1-9.331-10.288c.018-.042.036-.085.055-.127.069-.159.145-.313.225-.467.051-.1.1-.193.157-.288s.112-.188.17-.281c.093-.145.189-.289.292-.428.027-.037.055-.074.083-.11a7.683,7.683,0,0,1,13.575,2.938c.01.046.02.091.029.137.039.182.07.364.1.547.012.085.022.17.03.255.015.147.026.294.033.441.005.116.008.233.008.35s0,.235-.008.352c-.007.146-.017.292-.033.438q-.013.129-.03.258c-.026.182-.056.364-.1.545q-.015.07-.03.139a7.659,7.659,0,0,1-2.228,3.859Z" transform="translate(-388.5 -2118.987)" fill="#ffc8bf"/>
      <path id="Trazado_167204" data-name="Trazado 167204" d="M253.865,2289.569a17.743,17.743,0,0,0-1.611-3.176l4.291-5.331-8.648-6.96-4.278,5.314a17.654,17.654,0,0,0-7.12-1.117l-2.46-6.35-10.352,4.009,2.46,6.35a17.59,17.59,0,0,0-2.305,2.282c-.083.1-.161.2-.241.3s-.163.2-.24.3a17.607,17.607,0,0,0-1.737,2.74l-6.729-1.045-1.7,10.969,6.729,1.045a17.57,17.57,0,0,0,.824,3.137c.044.122.094.243.14.365s.088.235.137.352a17.587,17.587,0,0,0,1.5,2.875l-4.27,5.3,8.648,6.961,4.27-5.3a17.643,17.643,0,0,0,7.124,1.1l2.463,6.362,10.352-4.009-2.471-6.382a17.786,17.786,0,0,0,4.481-5.6l6.783,1.054,1.7-10.97-6.783-1.053A17.753,17.753,0,0,0,253.865,2289.569Zm-6.878,11.053c-.028.059-.058.118-.088.175-.116.231-.241.455-.373.674-.062.1-.126.2-.191.306-.111.172-.227.34-.348.5q-.144.2-.3.387c-.1.127-.207.251-.315.373q-.2.229-.419.448c-.084.085-.17.169-.257.251-.187.176-.379.346-.58.509l-.152.123a10.689,10.689,0,0,1-17.273-8.658c0-.064,0-.128.007-.192.01-.241.031-.48.057-.719.017-.151.036-.3.06-.452s.051-.3.08-.449c.047-.235.1-.469.164-.7.016-.062.034-.124.052-.185a10.688,10.688,0,0,1,19.085-3.009c.037.054.072.108.107.162.142.216.274.438.4.662.058.1.113.209.168.316q.14.274.264.555c.065.149.127.3.186.45s.114.305.167.46c.065.193.125.388.178.585.032.116.062.232.09.35.059.249.11.5.151.754.011.065.021.13.03.2a10.67,10.67,0,0,1-.952,6.125Z" transform="translate(-210.072 -2169.031)" fill="#ffc8bf"/>
      <g id="Grupo_111598" data-name="Grupo 111598" transform="translate(0 22.433)">
        <path id="Trazado_167205" data-name="Trazado 167205" d="M304.478,2107.663H207.964a1.236,1.236,0,0,1-1.236-1.236h0a1.236,1.236,0,0,1,1.236-1.236h96.514a1.236,1.236,0,0,1,1.236,1.236h0A1.236,1.236,0,0,1,304.478,2107.663Z" transform="translate(-206.728 -2105.191)" fill="#ffc8bf"/>
        <path id="Trazado_167206" data-name="Trazado 167206" d="M304.478,2126H207.964a1.235,1.235,0,0,1-1.236-1.236h0a1.235,1.235,0,0,1,1.236-1.236h96.514a1.236,1.236,0,0,1,1.236,1.236h0A1.236,1.236,0,0,1,304.478,2126Z" transform="translate(-206.728 -2114.678)" fill="#ffc8bf"/>
        <path id="Trazado_167207" data-name="Trazado 167207" d="M304.478,2144.337H207.964a1.236,1.236,0,0,1-1.236-1.236h0a1.235,1.235,0,0,1,1.236-1.236h96.514a1.236,1.236,0,0,1,1.236,1.236h0A1.236,1.236,0,0,1,304.478,2144.337Z" transform="translate(-206.728 -2124.164)" fill="#ffc8bf"/>
        <path id="Rectángulo_45059" data-name="Rectángulo 45059" d="M1.236,0H97.75a1.236,1.236,0,0,1,1.236,1.236v0A1.236,1.236,0,0,1,97.75,2.472H1.236A1.236,1.236,0,0,1,0,1.236v0A1.236,1.236,0,0,1,1.236,0Z" transform="translate(0 26.551)" fill="#ffc8bf"/>
        <path id="Trazado_167208" data-name="Trazado 167208" d="M304.478,2181.01H207.964a1.236,1.236,0,0,1-1.236-1.236h0a1.236,1.236,0,0,1,1.236-1.236h96.514a1.236,1.236,0,0,1,1.236,1.236h0A1.236,1.236,0,0,1,304.478,2181.01Z" transform="translate(-206.728 -2143.137)" fill="#ffc8bf"/>
        <path id="Trazado_167209" data-name="Trazado 167209" d="M304.478,2199.347H207.964a1.236,1.236,0,0,1-1.236-1.236h0a1.236,1.236,0,0,1,1.236-1.236h96.514a1.236,1.236,0,0,1,1.236,1.236h0A1.236,1.236,0,0,1,304.478,2199.347Z" transform="translate(-206.728 -2152.624)" fill="#ffc8bf"/>
        <path id="Trazado_167210" data-name="Trazado 167210" d="M304.478,2217.684H207.964a1.236,1.236,0,0,1-1.236-1.236h0a1.236,1.236,0,0,1,1.236-1.236h96.514a1.236,1.236,0,0,1,1.236,1.236h0A1.236,1.236,0,0,1,304.478,2217.684Z" transform="translate(-206.728 -2162.11)" fill="#ffc8bf"/>
        <path id="Trazado_167211" data-name="Trazado 167211" d="M304.478,2236.021H207.964a1.235,1.235,0,0,1-1.236-1.236h0a1.235,1.235,0,0,1,1.236-1.236h96.514a1.236,1.236,0,0,1,1.236,1.236h0A1.236,1.236,0,0,1,304.478,2236.021Z" transform="translate(-206.728 -2171.597)" fill="#ffc8bf"/>
        <path id="Trazado_167212" data-name="Trazado 167212" d="M304.478,2254.358H207.964a1.236,1.236,0,0,1-1.236-1.236h0a1.235,1.235,0,0,1,1.236-1.236h96.514a1.236,1.236,0,0,1,1.236,1.236h0A1.236,1.236,0,0,1,304.478,2254.358Z" transform="translate(-206.728 -2181.084)" fill="#ffc8bf"/>
      </g>
    </g>
    <g id="Grupo_111602" data-name="Grupo 111602" transform="translate(230.679 2103.573)">
      <ellipse id="Elipse_5035" data-name="Elipse 5035" cx="74.112" cy="6.997" rx="74.112" ry="6.997" transform="translate(0 99.897)" fill="#f2f2f2"/>
      <g id="Grupo_111601" data-name="Grupo 111601" transform="translate(5.291)">
        <path id="Trazado_167213" data-name="Trazado 167213" d="M408.36,2351.072H365.408l7.387-21.3h28.18Z" transform="translate(-318.063 -2243.808)" fill="#dae0e3"/>
        <g id="Grupo_111600" data-name="Grupo 111600">
          <path id="Rectángulo_45060" data-name="Rectángulo 45060" d="M0,0H137.642a0,0,0,0,1,0,0V60.245a15.3,15.3,0,0,1-15.3,15.3H15.3A15.3,15.3,0,0,1,0,60.245V0A0,0,0,0,1,0,0Z" transform="translate(0 21.176)" fill="#a8b7bd"/>
          <path id="Rectángulo_45061" data-name="Rectángulo 45061" d="M15.3,0H122.339a15.3,15.3,0,0,1,15.3,15.3V79.241a0,0,0,0,1,0,0H0a0,0,0,0,1,0,0V15.3A15.3,15.3,0,0,1,15.3,0Z" fill="#083142"/>
          <rect id="Rectángulo_45062" data-name="Rectángulo 45062" width="126.814" height="64.176" transform="translate(5.535 7.46)" fill="#ffc8bf"/>
        </g>
        <circle id="Elipse_5036" data-name="Elipse 5036" cx="4.007" cy="4.007" r="4.007" transform="translate(64.814 83.069)" fill="#dae0e3" style="mix-blend-mode: multiply;isolation: isolate"/>
        <path id="Trazado_167214" data-name="Trazado 167214" d="M407.556,2369.644H342.224a3.97,3.97,0,0,1,3.97-3.971h57.391a3.97,3.97,0,0,1,3.97,3.971Z" transform="translate(-306.069 -2262.379)" fill="#a8b7bd"/>
      </g>
    </g>
    <g id="Grupo_111604" data-name="Grupo 111604" transform="translate(258.005 2096.862)">
      <rect id="Rectángulo_45063" data-name="Rectángulo 45063" width="84.535" height="54.505" rx="8.888" transform="translate(0 0)" fill="#ff6148"/>
      <rect id="Rectángulo_45064" data-name="Rectángulo 45064" width="75.955" height="45.925" transform="translate(4.29 4.29)" fill="#fff"/>
      <g id="Grupo_111603" data-name="Grupo 111603" transform="translate(12.388 10.426)">
        <rect id="Rectángulo_45065" data-name="Rectángulo 45065" width="7.901" height="1.069" fill="#ff6148"/>
        <rect id="Rectángulo_45066" data-name="Rectángulo 45066" width="16.169" height="1.069" transform="translate(10.403)" fill="#ff6148"/>
        <rect id="Rectángulo_45067" data-name="Rectángulo 45067" width="7.901" height="1.069" transform="translate(3.354 4.325)" fill="#ff6148"/>
        <rect id="Rectángulo_45068" data-name="Rectángulo 45068" width="46.199" height="1.069" transform="translate(13.757 4.325)" fill="#ff6148"/>
        <rect id="Rectángulo_45069" data-name="Rectángulo 45069" width="7.901" height="1.069" transform="translate(3.354 8.339)" fill="#ff6148"/>
        <rect id="Rectángulo_45070" data-name="Rectángulo 45070" width="46.199" height="1.069" transform="translate(13.757 8.339)" fill="#ff6148"/>
        <rect id="Rectángulo_45071" data-name="Rectángulo 45071" width="7.901" height="1.069" transform="translate(3.354 12.353)" fill="#ff6148"/>
        <rect id="Rectángulo_45072" data-name="Rectángulo 45072" width="46.199" height="1.069" transform="translate(13.757 12.353)" fill="#ff6148"/>
        <rect id="Rectángulo_45073" data-name="Rectángulo 45073" width="7.901" height="1.069" transform="translate(3.354 16.367)" fill="#ff6148"/>
        <rect id="Rectángulo_45074" data-name="Rectángulo 45074" width="7.901" height="1.069" transform="translate(0 20.614)" fill="#ff6148"/>
        <rect id="Rectángulo_45075" data-name="Rectángulo 45075" width="16.169" height="1.069" transform="translate(10.403 20.614)" fill="#ff6148"/>
        <rect id="Rectángulo_45076" data-name="Rectángulo 45076" width="29.791" height="1.069" transform="translate(13.757 24.939)" fill="#ff6148"/>
        <rect id="Rectángulo_45077" data-name="Rectángulo 45077" width="29.791" height="1.069" transform="translate(13.757 28.953)" fill="#ff6148"/>
        <rect id="Rectángulo_45078" data-name="Rectángulo 45078" width="2.623" height="1.069" transform="translate(8.633 28.953)" fill="#ff6148"/>
        <rect id="Rectángulo_45079" data-name="Rectángulo 45079" width="7.901" height="1.069" transform="translate(3.354 32.967)" fill="#ff6148"/>
        <rect id="Rectángulo_45080" data-name="Rectángulo 45080" width="29.791" height="1.069" transform="translate(13.757 32.967)" fill="#ff6148"/>
        <rect id="Rectángulo_45081" data-name="Rectángulo 45081" width="14.6" height="1.069" transform="translate(45.691 24.939)" fill="#ff6148"/>
        <rect id="Rectángulo_45082" data-name="Rectángulo 45082" width="14.6" height="1.069" transform="translate(45.691 28.953)" fill="#ff6148"/>
        <rect id="Rectángulo_45083" data-name="Rectángulo 45083" width="14.6" height="1.069" transform="translate(45.691 32.967)" fill="#ff6148"/>
        <rect id="Rectángulo_45084" data-name="Rectángulo 45084" width="46.199" height="1.069" transform="translate(13.757 16.367)" fill="#ff6148"/>
      </g>
    </g>
    <g id="Grupo_111605" data-name="Grupo 111605" transform="translate(215.455 2118.312)">
      <g transform="matrix(1, 0, 0, 1, -8.73, -59.6)" filter="url(#Rectángulo_45085)">
        <rect id="Rectángulo_45085-2" data-name="Rectángulo 45085" width="33.055" height="33.055" rx="8.888" transform="translate(8.73 59.6)" fill="#ffc8bf"/>
      </g>
      <path id="Trazado_167215" data-name="Trazado 167215" d="M255.933,2205.5a7.652,7.652,0,0,0-.153-1.527l2.554-1.475-2.392-4.143-2.546,1.47a7.591,7.591,0,0,0-2.687-1.557v-2.935h-4.784v2.935a7.534,7.534,0,0,0-1.281.558c-.049.026-.1.055-.144.083s-.1.054-.143.083a7.622,7.622,0,0,0-1.125.831l-2.541-1.467L238.3,2202.5l2.542,1.467a7.58,7.58,0,0,0-.157,1.389c0,.056,0,.112,0,.168s0,.108,0,.162a7.578,7.578,0,0,0,.157,1.389l-2.542,1.467,2.392,4.143,2.541-1.467a7.6,7.6,0,0,0,2.693,1.549v2.94h4.784v-2.949a7.673,7.673,0,0,0,2.672-1.552l2.562,1.479,2.392-4.143-2.562-1.479A7.651,7.651,0,0,0,255.933,2205.5Zm-4.484,3.372-.063.057q-.124.111-.255.213c-.041.031-.082.063-.124.093-.071.052-.144.1-.218.148s-.119.074-.18.11-.122.069-.184.1c-.078.041-.157.079-.238.115-.047.021-.095.041-.142.061-.1.042-.206.08-.312.114l-.08.026a4.606,4.606,0,0,1-5.594-6.168l.033-.076c.042-.1.087-.188.135-.28.03-.058.062-.116.095-.173s.067-.113.1-.168c.056-.087.113-.173.175-.257l.05-.066a4.606,4.606,0,0,1,8.138,1.76c.006.028.012.055.018.082q.035.163.057.328c.007.051.013.1.018.154.009.088.015.176.02.264,0,.07,0,.139,0,.209s0,.141,0,.211c0,.088-.011.175-.02.263-.005.052-.011.1-.018.155-.015.109-.034.218-.057.327-.006.027-.012.055-.018.083a4.6,4.6,0,0,1-1.336,2.314Z" transform="translate(-231.788 -2188.993)" fill="#fff"/>
    </g>
    <g id="Grupo_111607" data-name="Grupo 111607" transform="translate(245.052 2158.896)">
      <g transform="matrix(1, 0, 0, 1, -38.32, -100.18)" filter="url(#Rectángulo_45086)">
        <rect id="Rectángulo_45086-2" data-name="Rectángulo 45086" width="41.635" height="28.765" rx="8.888" transform="translate(38.32 100.18)" fill="#ff6148"/>
      </g>
      <g id="Grupo_111606" data-name="Grupo 111606" transform="translate(6.96 5.386)">
        <path id="Trazado_167216" data-name="Trazado 167216" d="M308.388,2282.027l-7.835,6.783,7.835,6.783v-3.676l-3.589-3.107,3.589-3.107Z" transform="translate(-300.553 -2279.814)" fill="#fff"/>
        <path id="Trazado_167217" data-name="Trazado 167217" d="M341.741,2295.593l7.835-6.783-7.835-6.783v3.676l3.589,3.107-3.589,3.107Z" transform="translate(-321.861 -2279.814)" fill="#fff"/>
        <path id="Trazado_167218" data-name="Trazado 167218" d="M324.137,2295.434h-3.318l4.834-17.992h3.318Z" transform="translate(-311.038 -2277.441)" fill="#fff"/>
      </g>
    </g>
    <g transform="matrix(1, 0, 0, 1, 206.73, 2058.71)" filter="url(#Rectángulo_45087)">
      <rect id="Rectángulo_45087-2" data-name="Rectángulo 45087" width="45.925" height="45.925" rx="8.888" transform="translate(145.37 21.09)" fill="#ffc8bf"/>
    </g>
    <g id="Grupo_111608" data-name="Grupo 111608" transform="translate(357.459 2088.077)">
      <path id="Trazado_167219" data-name="Trazado 167219" d="M548,2125.772a6.2,6.2,0,0,0-2.645.59,9.33,9.33,0,0,0-17.912-.189,6.221,6.221,0,0,0-8.418,5.819h35.195A6.22,6.22,0,0,0,548,2125.772Z" transform="translate(-519.027 -2119.553)" fill="#fff"/>
      <path id="Trazado_167220" data-name="Trazado 167220" d="M542.075,2158.836l6.473,6.473,6.473-6.473H550.66V2151.2h-4.223v7.636Z" transform="translate(-530.951 -2135.926)" fill="#fff"/>
    </g>
    <g transform="matrix(1, 0, 0, 1, 206.73, 2058.71)" filter="url(#Rectángulo_45088)">
      <rect id="Rectángulo_45088-2" data-name="Rectángulo 45088" width="33.055" height="33.055" rx="8.888" transform="translate(8.73 19.02)" fill="#ffc8bf"/>
    </g>
    <rect id="Rectángulo_45089" data-name="Rectángulo 45089" width="25.245" height="25.245" transform="translate(219.36 2081.634)" fill="#ff6148"/>
    <g id="Grupo_111609" data-name="Grupo 111609" transform="translate(221.485 2086.548)">
      <rect id="Rectángulo_45090" data-name="Rectángulo 45090" width="2.324" height="1.069" transform="translate(2.145 0)" fill="#ffe7e3"/>
      <rect id="Rectángulo_45091" data-name="Rectángulo 45091" width="11.879" height="1.069" transform="translate(5.684 0)" fill="#ffe7e3"/>
      <rect id="Rectángulo_45092" data-name="Rectángulo 45092" width="3.611" height="1.069" transform="translate(2.145 3.585)" fill="#ffe7e3"/>
      <rect id="Rectángulo_45093" data-name="Rectángulo 45093" width="11.879" height="1.069" transform="translate(6.971 3.585)" fill="#ffe7e3"/>
      <rect id="Rectángulo_45094" data-name="Rectángulo 45094" width="2.324" height="1.069" transform="translate(2.145 10.326)" fill="#ffe7e3"/>
      <rect id="Rectángulo_45095" data-name="Rectángulo 45095" width="11.879" height="1.069" transform="translate(5.684 10.326)" fill="#ffe7e3"/>
      <rect id="Rectángulo_45096" data-name="Rectángulo 45096" width="3.611" height="1.069" transform="translate(2.145 13.911)" fill="#ffe7e3"/>
      <rect id="Rectángulo_45097" data-name="Rectángulo 45097" width="11.879" height="1.069" transform="translate(6.971 13.911)" fill="#ffe7e3"/>
      <rect id="Rectángulo_45098" data-name="Rectángulo 45098" width="3.611" height="1.069" transform="translate(0 7.17)" fill="#ffe7e3"/>
      <rect id="Rectángulo_45099" data-name="Rectángulo 45099" width="16.169" height="1.069" transform="translate(4.826 7.17)" fill="#ffe7e3"/>
    </g>
    <g id="Grupo_111611" data-name="Grupo 111611" transform="translate(305.689 2131.693)">
      <rect id="Rectángulo_45100" data-name="Rectángulo 45100" width="9.68" height="9.68" transform="translate(0 26.301)" fill="#a7c8ff" style="mix-blend-mode: multiply;isolation: isolate"/>
      <rect id="Rectángulo_45101" data-name="Rectángulo 45101" width="9.68" height="9.68" transform="translate(14.067 26.301)" fill="#a7c8ff" style="mix-blend-mode: multiply;isolation: isolate"/>
      <rect id="Rectángulo_45102" data-name="Rectángulo 45102" width="9.68" height="9.68" transform="translate(28.134 26.301)" fill="#a7c8ff" style="mix-blend-mode: multiply;isolation: isolate"/>
      <g id="Grupo_111610" data-name="Grupo 111610" transform="translate(42.497 0)">
        <rect id="Rectángulo_45103" data-name="Rectángulo 45103" width="14.6" height="1.069" fill="#a7c8ff" style="mix-blend-mode: multiply;isolation: isolate"/>
        <rect id="Rectángulo_45104" data-name="Rectángulo 45104" width="14.6" height="1.069" transform="translate(0 4.014)" fill="#a7c8ff" style="mix-blend-mode: multiply;isolation: isolate"/>
        <rect id="Rectángulo_45105" data-name="Rectángulo 45105" width="14.6" height="1.069" transform="translate(0 8.028)" fill="#a7c8ff" style="mix-blend-mode: multiply;isolation: isolate"/>
      </g>
    </g>
  </g>
</svg>
