<svg xmlns="http://www.w3.org/2000/svg" xmlns:xlink="http://www.w3.org/1999/xlink" width="392.135" height="264.994" viewBox="0 0 392.135 264.994">
  <defs>
    <linearGradient id="linear-gradient" y1="0.5" x2="1" y2="0.5" gradientUnits="objectBoundingBox">
      <stop offset="0" stop-color="#ff9f55"/>
      <stop offset="1" stop-color="#ffd255"/>
    </linearGradient>
    <linearGradient id="linear-gradient-2" x1="0.922" y1="0.809" x2="-0.355" y2="-0.127" xlink:href="#linear-gradient"/>
  </defs>
  <g id="Grupo_27429" data-name="Grupo 27429" transform="translate(3926.308 -658.195)">
    <g id="Grupo_27428" data-name="Grupo 27428" transform="translate(-3926.308 658.196)">
      <g id="Grupo_27047" data-name="Grupo 27047" transform="translate(2.763 28.276)">
        <g id="Grupo_27044" data-name="Grupo 27044" transform="translate(0.384)">
          <g id="Grupo_27037" data-name="Grupo 27037" transform="translate(4.356 47.691)">
            <g id="Grupo_27036" data-name="Grupo 27036">
              <g id="Grupo_27035" data-name="Grupo 27035">
                <path id="Trazado_26557" data-name="Trazado 26557" d="M-3725.672,1263.628s24.977-10.734,34.623,3.814-3.867,13.642-3.867,13.642-.751,6.726-13.508-9.192C-3714.438,1264.389-3725.672,1263.628-3725.672,1263.628Z" transform="translate(3725.672 -1259.814)" fill="#bbd070"/>
              </g>
            </g>
          </g>
          <g id="Grupo_27040" data-name="Grupo 27040" transform="translate(0 9.293)">
            <g id="Grupo_27039" data-name="Grupo 27039">
              <g id="Grupo_27038" data-name="Grupo 27038">
                <path id="Trazado_26558" data-name="Trazado 26558" d="M-3755.227,1000.051s22.172-6.876,36.77,21.246,27.721,30.346,27.721,30.346S-3740.884,1060.641-3755.227,1000.051Z" transform="translate(3755.227 -999.309)" fill="#97a43c"/>
              </g>
            </g>
          </g>
          <g id="Grupo_27043" data-name="Grupo 27043" transform="translate(27.655)">
            <g id="Grupo_27042" data-name="Grupo 27042">
              <g id="Grupo_27041" data-name="Grupo 27041">
                <path id="Trazado_26559" data-name="Trazado 26559" d="M-3539.99,999.512c-1.941,9.35-23.343-8.679-25.45-24.848s2.089-28.031-2.165-38.4C-3567.6,936.262-3530.428,953.471-3539.99,999.512Z" transform="translate(3567.605 -936.262)" fill="#48753a"/>
              </g>
            </g>
          </g>
        </g>
        <g id="Grupo_27045" data-name="Grupo 27045" transform="translate(38.71 12.534)">
          <path id="Trazado_26560" data-name="Trazado 26560" d="M-3472.474,1025.178a8.564,8.564,0,0,0-2.5.368,7.039,7.039,0,0,0-6.552-4.248,6.974,6.974,0,0,0-6.836,5.107,5.227,5.227,0,0,0-1.849-.336,4.874,4.874,0,0,0-4.993,4.746h29.769C-3465.44,1027.7-3468.59,1025.178-3472.474,1025.178Z" transform="translate(3495.209 -1021.298)" fill="#ebebeb"/>
        </g>
        <g id="Grupo_27046" data-name="Grupo 27046" transform="translate(0 32.205)">
          <path id="Trazado_26561" data-name="Trazado 26561" d="M-3740.5,1157.715a6.542,6.542,0,0,0-1.91.28,5.365,5.365,0,0,0-5-3.239,5.317,5.317,0,0,0-5.212,3.894,3.989,3.989,0,0,0-1.41-.256,3.717,3.717,0,0,0-3.808,3.619h22.7C-3735.133,1159.639-3737.534,1157.715-3740.5,1157.715Z" transform="translate(3757.833 -1154.756)" fill="#ebebeb"/>
        </g>
      </g>
      <rect id="Rectángulo_5677" data-name="Rectángulo 5677" width="293.849" height="174.406" rx="5" transform="translate(23.763 63.736)" fill="#083142"/>
      <g id="Grupo_27048" data-name="Grupo 27048" transform="translate(53.45 0)">
        <path id="Trazado_26562" data-name="Trazado 26562" d="M-3381.775,758.17a15.037,15.037,0,0,0-1.608-3.876l1.636-2.461-2.27-2.271-2.271-2.27-2.461,1.637a15.026,15.026,0,0,0-3.876-1.608l-.583-2.9h-6.421l-.583,2.9a15.029,15.029,0,0,0-3.876,1.608l-2.461-1.637-2.271,2.27-2.27,2.271,1.636,2.461a15.045,15.045,0,0,0-1.607,3.876l-2.9.583v6.422l2.9.583a15.05,15.05,0,0,0,1.607,3.876l-1.636,2.461,2.27,2.27,2.271,2.27,2.461-1.637a15.036,15.036,0,0,0,3.876,1.608l.583,2.9h6.421l.583-2.9a15.032,15.032,0,0,0,3.876-1.608l2.461,1.637,2.271-2.27,2.27-2.27-1.636-2.461a15.043,15.043,0,0,0,1.608-3.876l2.9-.583v-6.422Zm-14.642,15.044a11.25,11.25,0,0,1-11.251-11.251,11.251,11.251,0,0,1,11.251-11.251,11.25,11.25,0,0,1,11.25,11.251A11.25,11.25,0,0,1-3396.417,773.214Z" transform="translate(3413.954 -744.426)" fill="#ffb476"/>
      </g>
      <g id="Grupo_27049" data-name="Grupo 27049" transform="translate(77.439 33.215)">
        <path id="Trazado_26563" data-name="Trazado 26563" d="M-3236.45,976.07a6.9,6.9,0,0,0-.737-1.777l.75-1.128-1.041-1.041-1.041-1.041-1.128.75a6.881,6.881,0,0,0-1.777-.737l-.267-1.327h-2.944l-.267,1.327a6.881,6.881,0,0,0-1.777.737l-1.128-.75-1.041,1.041-1.041,1.041.75,1.128a6.873,6.873,0,0,0-.737,1.777l-1.327.267v2.944l1.327.267a6.869,6.869,0,0,0,.737,1.777l-.75,1.128,1.041,1.041,1.041,1.041,1.128-.75a6.9,6.9,0,0,0,1.777.737l.267,1.327h2.944l.267-1.327a6.9,6.9,0,0,0,1.777-.737l1.128.75,1.041-1.041,1.041-1.041-.75-1.128a6.894,6.894,0,0,0,.737-1.777l1.327-.267v-2.944Zm-6.712,6.9a5.158,5.158,0,0,1-5.158-5.158,5.158,5.158,0,0,1,5.158-5.158,5.158,5.158,0,0,1,5.157,5.158A5.158,5.158,0,0,1-3243.163,982.967Z" transform="translate(3251.203 -969.769)" fill="#ffb476"/>
      </g>
      <g id="Grupo_27052" data-name="Grupo 27052" transform="translate(7.963 115.748)">
        <g id="Grupo_27051" data-name="Grupo 27051">
          <g id="Grupo_27050" data-name="Grupo 27050">
            <path id="Trazado_26564" data-name="Trazado 26564" d="M-3718.033,1537.092l-4.24-3.7a.835.835,0,0,1-.08-1.178.834.834,0,0,1,1.178-.081l3,2.614,4.276-4.769a.835.835,0,0,1,1.179-.064.836.836,0,0,1,.064,1.179Z" transform="translate(3722.559 -1529.704)" fill="#ffb476"/>
          </g>
        </g>
      </g>
      <path id="Trazado_26565" data-name="Trazado 26565" d="M-2387.922,1083.02h5.488l-1.679-3.484h-5.489Z" transform="translate(2594.039 -1030.141)" fill="#ffdc7d"/>
      <path id="Trazado_26566" data-name="Trazado 26566" d="M-2405.345,1083.02h1.308l-1.68-3.484h-1.308Z" transform="translate(2608.894 -1030.141)" fill="#ffdc7d"/>
      <path id="Trazado_26567" data-name="Trazado 26567" d="M-2528.542,1064.944h22.224l-.738-1.742h-22.224Z" transform="translate(2713.127 -1016.216)" fill="#ffdc7d"/>
      <path id="Trazado_26568" data-name="Trazado 26568" d="M-3751.681,1349.766h7.154l-2.19-4.541h-7.153Z" transform="translate(3757.217 -1256.669)" fill="#ffb476"/>
      <path id="Trazado_26569" data-name="Trazado 26569" d="M-3774.391,1349.766h1.706l-2.19-4.541h-1.7Z" transform="translate(3776.58 -1256.669)" fill="#ffb476"/>
      <path id="Trazado_26713" data-name="Trazado 26713" d="M0,0H36.257V36.257H0Z" transform="translate(34.472 115.068)" fill="#ffca28"/>
      <rect id="Rectángulo_5679" data-name="Rectángulo 5679" width="36.257" height="36.257" transform="translate(34.472 76.03)" fill="#f0f0f0"/>
      <rect id="Rectángulo_5680" data-name="Rectángulo 5680" width="36.257" height="36.257" transform="translate(73.484 76.03)" fill="#f0f0f0"/>
      <rect id="Rectángulo_5681" data-name="Rectángulo 5681" width="36.257" height="36.257" transform="translate(134.804 114.896)" fill="#f0f0f0"/>
      <path id="Trazado_26712" data-name="Trazado 26712" d="M0,0H36.257V36.257H0Z" transform="translate(173.816 114.896)" fill="#ffca28"/>
      <rect id="Rectángulo_5683" data-name="Rectángulo 5683" width="36.257" height="36.257" transform="translate(73.484 153.908)" fill="#f0f0f0"/>
      <rect id="Rectángulo_5684" data-name="Rectángulo 5684" width="36.257" height="36.257" transform="translate(73.484 192.922)" fill="#ffdf69"/>
      <rect id="Rectángulo_5685" data-name="Rectángulo 5685" width="36.257" height="36.257" transform="translate(134.804 192.922)" fill="#f0f0f0"/>
      <rect id="Rectángulo_5686" data-name="Rectángulo 5686" width="36.257" height="36.257" transform="translate(34.472 153.995)" fill="#f0f0f0"/>
      <g id="Grupo_27053" data-name="Grupo 27053" transform="translate(168.164 192.922)">
        <path id="Trazado_26570" data-name="Trazado 26570" d="M-2593.784,2053.284s-.025,16.783-3.959,31.009l-8.385,5.247h-29.563c5.617-14.947,5.651-36.257,5.651-36.257Z" transform="translate(2635.692 -2053.284)" fill="#ffca28"/>
        <path id="Trazado_26571" data-name="Trazado 26571" d="M-2435.124,2268.2v-5.369h8.385Z" transform="translate(2464.687 -2231.948)" fill="#deba35"/>
      </g>
      <g id="Grupo_27054" data-name="Grupo 27054" transform="translate(129.152 153.908)">
        <path id="Trazado_26572" data-name="Trazado 26572" d="M-2858.458,1788.6s-.026,16.782-3.959,31.009l-8.385,5.248h-29.563c5.617-14.947,5.65-36.257,5.65-36.257Z" transform="translate(2900.365 -1788.599)" fill="#039be5"/>
        <path id="Trazado_26573" data-name="Trazado 26573" d="M-2699.8,2003.518v-5.369h8.385Z" transform="translate(2729.361 -1967.262)" fill="#375eab"/>
      </g>
      <rect id="Rectángulo_5687" data-name="Rectángulo 5687" width="36.257" height="36.257" transform="translate(173.816 76.056)" fill="#f0f0f0"/>
      <g id="Grupo_27055" data-name="Grupo 27055" transform="translate(129.152 76.056)">
        <path id="Trazado_26574" data-name="Trazado 26574" d="M-2858.458,1260.42s-.026,16.782-3.959,31.009l-8.385,5.248h-29.563c5.617-14.947,5.65-36.257,5.65-36.257Z" transform="translate(2900.365 -1260.42)" fill="#ffca28"/>
        <path id="Trazado_26575" data-name="Trazado 26575" d="M-2699.8,1475.34v-5.37h8.385Z" transform="translate(2729.361 -1439.083)" fill="#deba35"/>
      </g>
      <g id="Grupo_27057" data-name="Grupo 27057" transform="translate(28.82 192.922)">
        <g id="Grupo_27056" data-name="Grupo 27056">
          <path id="Trazado_26576" data-name="Trazado 26576" d="M-3539.146,2053.284s-.025,16.783-3.959,31.009l-8.385,5.247h-29.563c5.617-14.947,5.651-36.257,5.651-36.257Z" transform="translate(3581.053 -2053.284)" fill="#f0f0f0"/>
          <path id="Trazado_26577" data-name="Trazado 26577" d="M-3380.485,2268.2v-5.369h8.385Z" transform="translate(3410.048 -2231.948)" fill="#c9c9c9"/>
        </g>
      </g>
      <rect id="Rectángulo_5688" data-name="Rectángulo 5688" width="36.257" height="36.257" transform="translate(232.865 115.068)" fill="#ffca28"/>
      <rect id="Rectángulo_5689" data-name="Rectángulo 5689" width="36.257" height="36.257" transform="translate(232.865 76.03)" fill="#f0f0f0"/>
      <rect id="Rectángulo_5690" data-name="Rectángulo 5690" width="36.257" height="36.257" transform="translate(271.877 76.03)" fill="#f0f0f0"/>
      <rect id="Rectángulo_5691" data-name="Rectángulo 5691" width="36.257" height="36.257" transform="translate(271.877 153.908)" fill="#f0f0f0"/>
      <rect id="Rectángulo_5692" data-name="Rectángulo 5692" width="36.257" height="36.257" transform="translate(271.877 192.922)" fill="#ffca28"/>
      <rect id="Rectángulo_5693" data-name="Rectángulo 5693" width="36.257" height="36.257" transform="translate(232.865 153.995)" fill="#f0f0f0"/>
      <g id="Grupo_27059" data-name="Grupo 27059" transform="translate(227.213 192.922)">
        <g id="Grupo_27058" data-name="Grupo 27058">
          <path id="Trazado_26578" data-name="Trazado 26578" d="M-2193.173,2053.284s-.025,16.783-3.959,31.009l-8.385,5.247h-29.564c5.617-14.947,5.651-36.257,5.651-36.257Z" transform="translate(2235.08 -2053.284)" fill="#f0f0f0"/>
          <path id="Trazado_26579" data-name="Trazado 26579" d="M-2034.512,2268.2v-5.369h8.385Z" transform="translate(2064.075 -2231.948)" fill="#c9c9c9"/>
        </g>
      </g>
      <g id="Grupo_27060" data-name="Grupo 27060" transform="translate(168.164 153.908)">
        <path id="Trazado_26580" data-name="Trazado 26580" d="M-2593.784,1788.6s-.025,16.782-3.959,31.009l-8.385,5.248h-29.563c5.617-14.947,5.651-36.257,5.651-36.257Z" transform="translate(2635.692 -1788.599)" fill="#f0f0f0"/>
        <path id="Trazado_26581" data-name="Trazado 26581" d="M-2435.124,2003.518v-5.369h8.385Z" transform="translate(2464.687 -1967.262)" fill="#c9c9c9"/>
      </g>
      <rect id="Rectángulo_5694" data-name="Rectángulo 5694" width="25.549" height="1.791" transform="translate(353.266 144.18) rotate(180)" fill="#ffb476"/>
      <rect id="Rectángulo_5695" data-name="Rectángulo 5695" width="25.549" height="7.53" transform="translate(353.266 153.294) rotate(180)" fill="#ffb476"/>
      <rect id="Rectángulo_5696" data-name="Rectángulo 5696" width="8.849" height="0.661" transform="translate(136.759 52.565) rotate(180)" fill="#ffdc7d"/>
      <rect id="Rectángulo_5697" data-name="Rectángulo 5697" width="8.849" height="1.789" transform="translate(136.759 54.643) rotate(180)" fill="#ffdc7d"/>
      <rect id="Rectángulo_5698" data-name="Rectángulo 5698" width="1.125" height="21.097" transform="translate(358.586 153.833) rotate(180)" fill="#ffb476"/>
      <rect id="Rectángulo_5699" data-name="Rectángulo 5699" width="2.28" height="187.375" transform="translate(120.247 62.091)" fill="#fff"/>
      <rect id="Rectángulo_5700" data-name="Rectángulo 5700" width="2.28" height="187.374" transform="translate(220.329 56.307)" fill="#fff"/>
      <rect id="Rectángulo_5701" data-name="Rectángulo 5701" width="66.791" height="7.088" transform="translate(136.216 60.212)" fill="url(#linear-gradient)"/>
      <g id="Grupo_27067" data-name="Grupo 27067" transform="translate(142.787 20.067)">
        <g id="Grupo_27065" data-name="Grupo 27065" transform="translate(5.629 6.35)">
          <g id="Grupo_27064" data-name="Grupo 27064">
            <g id="Grupo_27063" data-name="Grupo 27063">
              <g id="Grupo_27062" data-name="Grupo 27062">
                <g id="Grupo_27061" data-name="Grupo 27061">
                  <path id="Trazado_26582" data-name="Trazado 26582" d="M-2763.394,933.1l-5.721-2.486a.926.926,0,0,1-.48-1.219.926.926,0,0,1,1.219-.48l4.045,1.758,2.921-6.474a.927.927,0,0,1,1.225-.463.926.926,0,0,1,.463,1.225Z" transform="translate(2769.671 -923.65)" fill="#ffb476"/>
                </g>
              </g>
            </g>
          </g>
        </g>
        <g id="Grupo_27066" data-name="Grupo 27066">
          <path id="Trazado_26583" data-name="Trazado 26583" d="M-2789.45,901.826a11.705,11.705,0,0,1-16.289-2.844,11.705,11.705,0,0,1,2.844-16.289,11.705,11.705,0,0,1,16.289,2.844A11.7,11.7,0,0,1-2789.45,901.826Zm-12.484-17.766a10.033,10.033,0,0,0-2.437,13.962,10.033,10.033,0,0,0,13.962,2.438,10.033,10.033,0,0,0,2.438-13.961A10.033,10.033,0,0,0-2801.935,884.06Z" transform="translate(2807.86 -880.572)" fill="#ffb476"/>
        </g>
      </g>
      <g id="Grupo_27107" data-name="Grupo 27107" transform="translate(257.981 154.814)">
        <g id="Grupo_27070" data-name="Grupo 27070" transform="translate(0 19.454)">
          <g id="Grupo_27069" data-name="Grupo 27069">
            <g id="Grupo_27068" data-name="Grupo 27068">
              <path id="Trazado_26584" data-name="Trazado 26584" d="M-2021.394,1930.753s-1.129-.449-1.21-1.161a4.332,4.332,0,0,0-.726-1.588c-.206-.309-.514-1.492-.876-1.24s.42,1.971.517,2.362-1.443-.443-1.829-.367-1.435,2.778-.321,3.224a10.212,10.212,0,0,0,2.735.282,7.338,7.338,0,0,0,.8.358Z" transform="translate(2026.337 -1926.729)" fill="#eea886"/>
            </g>
          </g>
        </g>
        <g id="Grupo_27071" data-name="Grupo 27071" transform="translate(30.279 95.633)">
          <path id="Trazado_26585" data-name="Trazado 26585" d="M-1816.931,2443.556a15.038,15.038,0,0,0,1.3,2.026c.513.576,2.476,1.6,2.486,3.315.011,1.855-3.309,1.34-4.607,1.272s-1.4-1.058-1.944-2.108-1.1-.872-1.2-1.719a9.94,9.94,0,0,1,.529-2.786Z" transform="translate(1820.91 -2443.556)" fill="#202338"/>
        </g>
        <g id="Grupo_27073" data-name="Grupo 27073" transform="translate(8.494 95.151)">
          <g id="Grupo_27072" data-name="Grupo 27072">
            <path id="Trazado_26586" data-name="Trazado 26586" d="M-1962.713,2440.6a7.832,7.832,0,0,1-3.225,2.142c-1.624.371-2.761.844-2.773,1.86s4.675,1.686,6.534.661c2.774-1.529,3.056-1.068,3.364-1.832s-.369-2.808-.349-3.051C-1959.138,2440.079-1962.713,2440.6-1962.713,2440.6Z" transform="translate(1968.711 -2440.286)" fill="#202338"/>
          </g>
        </g>
        <g id="Grupo_27075" data-name="Grupo 27075" transform="translate(14.488 94.118)">
          <g id="Grupo_27074" data-name="Grupo 27074">
            <path id="Trazado_26587" data-name="Trazado 26587" d="M-1927.858,2433.776a7.2,7.2,0,0,0-.18.847c.032.017,3.661.446,3.551-.22-.089-.54-.216-1.126-.216-1.126Z" transform="translate(1928.042 -2433.277)" fill="#81807e"/>
          </g>
        </g>
        <g id="Grupo_27077" data-name="Grupo 27077" transform="translate(30.739 94.762)">
          <g id="Grupo_27076" data-name="Grupo 27076">
            <path id="Trazado_26588" data-name="Trazado 26588" d="M-1817.667,2437.955a7,7,0,0,0-.123.811c.029.019,3.681.665,3.66.008a3.15,3.15,0,0,0-.337-1.13Z" transform="translate(1817.793 -2437.643)" fill="#81807e"/>
          </g>
        </g>
        <g id="Grupo_27079" data-name="Grupo 27079" transform="translate(14.127 41.144)">
          <g id="Grupo_27078" data-name="Grupo 27078">
            <path id="Trazado_26589" data-name="Trazado 26589" d="M-1926.648,2077.7s-1.32,12.7-2.006,17.053c-.8,5.085-1.074,9.287-1.3,11.918-.281,3.311-.336,19.594-.533,20.562s4.371.267,4.371.267,2.248-21.276,3.086-24.8c.781-3.282,3.679-17.415,4.391-16.519s1.6,16.493,2.123,19.082,2.133,22.858,2.133,22.858,3.636.718,4.6-.094c0,0,.44-17.468.1-22.321-.128-1.85,2.187-22.18-.781-30.365C-1912.024,2071.01-1926.648,2077.7-1926.648,2077.7Z" transform="translate(1930.492 -2073.879)" fill="#292c47"/>
          </g>
        </g>
        <g id="Grupo_27081" data-name="Grupo 27081" transform="translate(18.191 14.716)">
          <g id="Grupo_27080" data-name="Grupo 27080">
            <path id="Trazado_26590" data-name="Trazado 26590" d="M-1878.7,1910.911c.767,2.095-6.269,7.345-5.394,7.505s.837,1.82.837,1.82,6.626-5.771,6.49-7.471c-.075-.944-5.263-14.667-6.055-15.234a57.1,57.1,0,0,0-5.693-2.416,12.545,12.545,0,0,0-1.561-.534c-.4-.025-5.366.45-5.366.45s-.712.244-1.439.578c-1.242.57-3.177,1.46-4.565,2.121-.449.214-1.01.5-1.476.749q.086,2.531.3,5.428s.258,4.223.282,8.488a19.58,19.58,0,0,1,.184,3.21c.061,2.128-.176,4.313-.237,5.534-.1,1.92-.362,4.653-.362,4.653l2.413.986,10.573-.1,3.31-.886s-.2-8.5-.147-10.973c.046-2.382.547-8.566.646-8.923C-1885.959,1905.9-1882.414,1900.747-1878.7,1910.911Z" transform="translate(1902.92 -1894.581)" fill="#dbd8e3"/>
          </g>
        </g>
        <g id="Grupo_27082" data-name="Grupo 27082" transform="translate(18.358 45.026)">
          <path id="Trazado_26591" data-name="Trazado 26591" d="M-1901.469,2100.217a87.889,87.889,0,0,0,13.624,0v2.087s-9.472.9-13.942-.4Z" transform="translate(1901.788 -2100.217)" fill="#1d2033"/>
        </g>
        <g id="Grupo_27084" data-name="Grupo 27084" transform="translate(16.26 15.471)">
          <g id="Grupo_27083" data-name="Grupo 27083">
            <path id="Trazado_26592" data-name="Trazado 26592" d="M-1914.208,1902.816c.056,1.715.139,3.554.285,5.523,0,0,.138,4.809.414,9.371a9.057,9.057,0,0,1,.089,2c-.069.892-.166,1.866-.282,2.883,0,.013,0,.027,0,.039-.028.241-.057.483-.086.729,0,0,0,.007,0,.01a106.611,106.611,0,0,1-2.209,12.677c-.115.369.282.709.566.972l1.986,1.252s.819-7.539,1.091-10.1c.262-2.471,1.088-5.782,1.45-9.009h0c.458-4.094,1.09-8.1,1.43-10.487a39.9,39.9,0,0,1,2.068-8.979C-1907.976,1899.871-1914.208,1902.816-1914.208,1902.816Z" transform="translate(1916.023 -1899.702)" fill="#323657"/>
          </g>
        </g>
        <g id="Grupo_27086" data-name="Grupo 27086" transform="translate(28.184 14.991)">
          <g id="Grupo_27085" data-name="Grupo 27085">
            <path id="Trazado_26593" data-name="Trazado 26593" d="M-1821.587,1911.962c.861,1.888-5.459,7.658-5.385,7.854a18.155,18.155,0,0,0,2.075,3.213s9.788-10.513,9.659-11.808c-.094-.943-8.3-11.421-9.092-11.989-.457-.328-3.848-1.53-5.511-2.186-.3-.12-1.295-.493-1.567-.6-.353.393-2.832,3.059-3.691,13.2a63.822,63.822,0,0,0,.618,8.282c.326,3.152.687,5.611.951,8.247.521,5.192.885,9.324.885,9.324l5.168-2.3c.836-.418,2.282-1.51,1.968-2.391-1.195-3.346-2.987-9.687-2.989-12.624,0,0,1.365-9.809,1.822-11.389C-1826.676,1906.8-1822.55,1909.85-1821.587,1911.962Z" transform="translate(1835.126 -1896.451)" fill="#323657"/>
          </g>
        </g>
        <g id="Grupo_27088" data-name="Grupo 27088" transform="translate(25.713 9.933)">
          <g id="Grupo_27087" data-name="Grupo 27087">
            <path id="Trazado_26594" data-name="Trazado 26594" d="M-1847.024,1867.446a34.845,34.845,0,0,1,.691-5.151c.176-.922-5.357,2.428-5.357,2.428s.017.323.029.759c.006.231.009.492.008.754,0,.093,0,.185,0,.276-.005.244-.016.477-.037.676a3.188,3.188,0,0,1-.185.665C-1852.107,1868.38-1848.887,1868.779-1847.024,1867.446Z" transform="translate(1851.89 -1862.134)" fill="#eea987"/>
          </g>
        </g>
        <g id="Grupo_27089" data-name="Grupo 27089" transform="translate(26.209 17.03)">
          <path id="Trazado_26595" data-name="Trazado 26595" d="M-1847.606,1910.279l-.917,1.232a1.112,1.112,0,0,0,1.491.188Z" transform="translate(1848.523 -1910.279)" fill="#d44040"/>
        </g>
        <g id="Grupo_27090" data-name="Grupo 27090" transform="translate(23.596 18.279)">
          <path id="Trazado_26596" data-name="Trazado 26596" d="M-1863.393,1918.787s-3.478,13.391-2.761,23.814l1.17,2.062,1.1-2.161s.3-18.645,1.254-23.748Z" transform="translate(1866.252 -1918.754)" fill="#d44040"/>
        </g>
        <g id="Grupo_27091" data-name="Grupo 27091" transform="translate(26.144 15.53)">
          <path id="Trazado_26597" data-name="Trazado 26597" d="M-1848.963,1900.456l.982,1.148s1.576-.305,2.039-1.128S-1848.963,1900.456-1848.963,1900.456Z" transform="translate(1848.963 -1900.105)" fill="#eea987"/>
        </g>
        <g id="Grupo_27092" data-name="Grupo 27092" transform="translate(25.287 14.876)">
          <path id="Trazado_26598" data-name="Trazado 26598" d="M-1854.145,1895.665a4.735,4.735,0,0,0,1.207,2.154l-1.193,1.6-.646-3.325Z" transform="translate(1854.777 -1895.665)" fill="#c4c1cc"/>
        </g>
        <g id="Grupo_27093" data-name="Grupo 27093" transform="translate(27.126 14.043)">
          <path id="Trazado_26599" data-name="Trazado 26599" d="M-1838.757,1890.013A12.351,12.351,0,0,1-1842.3,1893l.741,1.833,3.708-3.987Z" transform="translate(1842.301 -1890.013)" fill="#c4c1cc"/>
        </g>
        <g id="Grupo_27095" data-name="Grupo 27095" transform="translate(2.012 18.174)">
          <g id="Grupo_27094" data-name="Grupo 27094">
            <path id="Trazado_26600" data-name="Trazado 26600" d="M-2012.688,1925.259s8.406,9.132,10.389,8.644c.917-.226,2.306-1.809,3.454-3.3.378-.49.749-1,1.1-1.514v0c1.408-2.033,2.511-3.982,2.511-3.982s4.162-4.878.823-7.052a3.766,3.766,0,0,0-2.208.448c-.739.545-2.538,3.979-2.829,4.616s-2.564,5.124-2.776,5.256-2.442-1.206-3.635-2.008a44.077,44.077,0,0,1-4.347-3.557Z" transform="translate(2012.688 -1918.042)" fill="#323657"/>
          </g>
        </g>
        <g id="Grupo_27096" data-name="Grupo 27096" transform="translate(24.032 45.137)">
          <rect id="Rectángulo_5702" data-name="Rectángulo 5702" width="3.397" height="2.577" transform="translate(3.397 2.577) rotate(180)" fill="#3a4066"/>
        </g>
        <g id="Grupo_27097" data-name="Grupo 27097" transform="translate(25.942 11.651)">
          <path id="Trazado_26601" data-name="Trazado 26601" d="M-1850.33,1876.172c0,.093,0,.185,0,.276,3.165-1.062,3.778-2.66,3.778-2.66a21.6,21.6,0,0,1-3.782,1.63C-1850.332,1875.648-1850.329,1875.91-1850.33,1876.172Z" transform="translate(1850.338 -1873.787)" fill="#a77860"/>
        </g>
        <g id="Grupo_27098" data-name="Grupo 27098" transform="translate(34.968 38.283)">
          <path id="Trazado_26602" data-name="Trazado 26602" d="M-1786.589,2054.51a1.111,1.111,0,0,1-.617.248c-.548,0-1.172-.6-1.744-.059s.633,2.841,1.067,3.11,1.421-.215,2.477-1.491S-1786.589,2054.51-1786.589,2054.51Z" transform="translate(1789.102 -2054.472)" fill="#eea886"/>
        </g>
        <g id="Grupo_27099" data-name="Grupo 27099" transform="translate(30.913 38.356)">
          <path id="Trazado_26603" data-name="Trazado 26603" d="M-1812.188,2054.966a22.729,22.729,0,0,0-2.289.957c-1.036.506-2.252,1.278-2.128,1.54.188.4,1.113-.349,2.173-.781.977-.4.851-.153.851-.153s.032-.072-.948.571c-1.053.691-2.156,1.477-2.059,1.694.121.269.159.292.582.1-.22.161-.207.245-.149.344.3.513,2.009-.257,2.687-.563-.519.238-.874.469-.486.664.444.223,2.808-.977,3.7-1.324C-1809.288,2057.64-1812.188,2054.966-1812.188,2054.966Z" transform="translate(1816.614 -2054.966)" fill="#eea886"/>
        </g>
        <g id="Grupo_27100" data-name="Grupo 27100" transform="translate(36.338 34.155)">
          <path id="Trazado_26604" data-name="Trazado 26604" d="M-1779.806,2030.664a6.742,6.742,0,0,0,2.075,3.213s4.2-4.637,4.954-5.506l-3.29-1.908Z" transform="translate(1779.806 -2026.463)" fill="#323657"/>
        </g>
        <g id="Grupo_27102" data-name="Grupo 27102" transform="translate(21.975 1.982)">
          <g id="Grupo_27101" data-name="Grupo 27101">
            <path id="Trazado_26605" data-name="Trazado 26605" d="M-1874.647,1809.912s-1.706,1.909-1.2,2.39c.417.4-1.148,2.3-1.37,2.615s.732.816.893,1.094.136,3.213.951,3.5a12.853,12.853,0,0,0,6.173-.948c1.28-.821,3.271-5.434,3.072-7.628S-1871.647,1806.582-1874.647,1809.912Z" transform="translate(1877.251 -1808.192)" fill="#eea886"/>
          </g>
        </g>
        <g id="Grupo_27104" data-name="Grupo 27104" transform="translate(24.16)">
          <g id="Grupo_27103" data-name="Grupo 27103">
            <path id="Trazado_26606" data-name="Trazado 26606" d="M-1862.359,1798.863a3.462,3.462,0,0,1,1.97-3.887c2.611-1.232,5.917,2.814,6.344,3.041s2.97,1.021.581,5.247a30.5,30.5,0,0,1-2.247,3.756,10.7,10.7,0,0,0-.689-2.914,4.65,4.65,0,0,0-2.266-.973s1.263-1.868.125-2.448S-1861.027,1798.7-1862.359,1798.863Z" transform="translate(1862.428 -1794.743)" fill="#323657"/>
          </g>
        </g>
        <g id="Grupo_27106" data-name="Grupo 27106" transform="translate(28.832 6.717)">
          <g id="Grupo_27105" data-name="Grupo 27105">
            <path id="Trazado_26607" data-name="Trazado 26607" d="M-1830.071,1841.116c.174-.256.807-1.384,1.676-.425s-1.362,2.837-1.55,2.823S-1831.534,1843.272-1830.071,1841.116Z" transform="translate(1830.73 -1840.312)" fill="#eea886"/>
          </g>
        </g>
      </g>
      <g id="Grupo_27200" data-name="Grupo 27200" transform="translate(229.329 103.826)">
        <g id="Grupo_27110" data-name="Grupo 27110" transform="translate(21.997 83.27)">
          <g id="Grupo_27109" data-name="Grupo 27109">
            <g id="Grupo_27108" data-name="Grupo 27108">
              <path id="Trazado_26608" data-name="Trazado 26608" d="M-2067.713,2014.431s-.508,2-.577,2.3-3.2-.527-3.2-.527l0-2.441S-2068.08,2014.1-2067.713,2014.431Z" transform="translate(2071.489 -2013.759)" fill="#666fb3"/>
            </g>
          </g>
        </g>
        <g id="Grupo_27113" data-name="Grupo 27113" transform="translate(20.79 85.493)">
          <g id="Grupo_27112" data-name="Grupo 27112">
            <g id="Grupo_27111" data-name="Grupo 27111">
              <path id="Trazado_26609" data-name="Trazado 26609" d="M-2075.21,2029.333a8.673,8.673,0,0,0,1.793,1.968c.918.638,4.459,1.463,4.976,2.076.373.443.893,2.119-4.79,1.354-4.036-.544-6.028-.406-6.391-1.11s1.151-4.78,1.151-4.78A7.758,7.758,0,0,0-2075.21,2029.333Z" transform="translate(2079.678 -2028.842)" fill="#2d314f"/>
            </g>
          </g>
        </g>
        <g id="Grupo_27116" data-name="Grupo 27116" transform="translate(23.121 25.059)">
          <g id="Grupo_27115" data-name="Grupo 27115" transform="translate(0 0)">
            <g id="Grupo_27114" data-name="Grupo 27114" transform="translate(0)">
              <rect id="Rectángulo_5703" data-name="Rectángulo 5703" width="136.61" height="1.436" transform="matrix(0.097, -0.995, 0.995, 0.097, 0, 135.969)" fill="#b8b8b8"/>
            </g>
          </g>
        </g>
        <g id="Grupo_27119" data-name="Grupo 27119" transform="translate(0 22.815)">
          <g id="Grupo_27118" data-name="Grupo 27118" transform="translate(0 0)">
            <g id="Grupo_27117" data-name="Grupo 27117">
              <rect id="Rectángulo_5704" data-name="Rectángulo 5704" width="136.61" height="1.436" transform="translate(0 135.969) rotate(-84.444)" fill="#b8b8b8"/>
            </g>
          </g>
        </g>
        <g id="Grupo_27147" data-name="Grupo 27147" transform="translate(5.264 24.832)">
          <g id="Grupo_27122" data-name="Grupo 27122" transform="translate(8.347 0)">
            <g id="Grupo_27121" data-name="Grupo 27121" transform="translate(0)">
              <g id="Grupo_27120" data-name="Grupo 27120" transform="translate(0)">
                <rect id="Rectángulo_5705" data-name="Rectángulo 5705" width="1.436" height="23.23" transform="translate(0 1.429) rotate(-84.462)" fill="#b8b8b8"/>
              </g>
            </g>
          </g>
          <g id="Grupo_27125" data-name="Grupo 27125" transform="translate(7.304 10.75)">
            <g id="Grupo_27124" data-name="Grupo 27124" transform="translate(0 0)">
              <g id="Grupo_27123" data-name="Grupo 27123" transform="translate(0)">
                <rect id="Rectángulo_5706" data-name="Rectángulo 5706" width="1.436" height="23.23" transform="translate(0 1.429) rotate(-84.456)" fill="#b8b8b8"/>
              </g>
            </g>
          </g>
          <g id="Grupo_27128" data-name="Grupo 27128" transform="translate(6.26 21.502)">
            <g id="Grupo_27127" data-name="Grupo 27127" transform="translate(0 0)">
              <g id="Grupo_27126" data-name="Grupo 27126">
                <rect id="Rectángulo_5707" data-name="Rectángulo 5707" width="1.436" height="23.23" transform="translate(0 1.429) rotate(-84.461)" fill="#b8b8b8"/>
              </g>
            </g>
          </g>
          <g id="Grupo_27131" data-name="Grupo 27131" transform="translate(5.217 32.254)">
            <g id="Grupo_27130" data-name="Grupo 27130" transform="translate(0 0)">
              <g id="Grupo_27129" data-name="Grupo 27129">
                <rect id="Rectángulo_5708" data-name="Rectángulo 5708" width="1.436" height="23.23" transform="translate(0 1.429) rotate(-84.461)" fill="#b8b8b8"/>
              </g>
            </g>
          </g>
          <g id="Grupo_27134" data-name="Grupo 27134" transform="translate(4.174 43.004)">
            <g id="Grupo_27133" data-name="Grupo 27133" transform="translate(0 0)">
              <g id="Grupo_27132" data-name="Grupo 27132">
                <rect id="Rectángulo_5709" data-name="Rectángulo 5709" width="1.436" height="23.23" transform="translate(0 1.429) rotate(-84.455)" fill="#b8b8b8"/>
              </g>
            </g>
          </g>
          <g id="Grupo_27137" data-name="Grupo 27137" transform="translate(3.13 53.756)">
            <g id="Grupo_27136" data-name="Grupo 27136" transform="translate(0 0)">
              <g id="Grupo_27135" data-name="Grupo 27135" transform="translate(0)">
                <rect id="Rectángulo_5710" data-name="Rectángulo 5710" width="1.436" height="23.23" transform="translate(0 1.429) rotate(-84.461)" fill="#b8b8b8"/>
              </g>
            </g>
          </g>
          <g id="Grupo_27140" data-name="Grupo 27140" transform="translate(2.087 64.507)">
            <g id="Grupo_27139" data-name="Grupo 27139" transform="translate(0 0)">
              <g id="Grupo_27138" data-name="Grupo 27138" transform="translate(0)">
                <rect id="Rectángulo_5711" data-name="Rectángulo 5711" width="1.436" height="23.23" transform="translate(0 1.429) rotate(-84.455)" fill="#b8b8b8"/>
              </g>
            </g>
          </g>
          <g id="Grupo_27143" data-name="Grupo 27143" transform="translate(1.043 75.258)">
            <g id="Grupo_27142" data-name="Grupo 27142" transform="translate(0 0)">
              <g id="Grupo_27141" data-name="Grupo 27141" transform="translate(0)">
                <rect id="Rectángulo_5712" data-name="Rectángulo 5712" width="1.436" height="23.23" transform="translate(0 1.429) rotate(-84.456)" fill="#b8b8b8"/>
              </g>
            </g>
          </g>
          <g id="Grupo_27146" data-name="Grupo 27146" transform="translate(0 86.009)">
            <g id="Grupo_27145" data-name="Grupo 27145" transform="translate(0 0)">
              <g id="Grupo_27144" data-name="Grupo 27144" transform="translate(0)">
                <rect id="Rectángulo_5713" data-name="Rectángulo 5713" width="1.436" height="23.23" transform="matrix(0.097, -0.995, 0.995, 0.097, 0, 1.429)" fill="#b8b8b8"/>
              </g>
            </g>
          </g>
        </g>
        <g id="Grupo_27160" data-name="Grupo 27160" transform="translate(1.09 121.592)">
          <g id="Grupo_27150" data-name="Grupo 27150" transform="translate(3.13 0)">
            <g id="Grupo_27149" data-name="Grupo 27149" transform="translate(0)">
              <g id="Grupo_27148" data-name="Grupo 27148" transform="translate(0)">
                <rect id="Rectángulo_5714" data-name="Rectángulo 5714" width="1.436" height="23.23" transform="translate(0 1.429) rotate(-84.456)" fill="#b8b8b8"/>
              </g>
            </g>
          </g>
          <g id="Grupo_27153" data-name="Grupo 27153" transform="translate(2.087 10.751)">
            <g id="Grupo_27152" data-name="Grupo 27152" transform="translate(0 0)">
              <g id="Grupo_27151" data-name="Grupo 27151" transform="translate(0)">
                <rect id="Rectángulo_5715" data-name="Rectángulo 5715" width="1.436" height="23.23" transform="translate(0 1.429) rotate(-84.456)" fill="#b8b8b8"/>
              </g>
            </g>
          </g>
          <g id="Grupo_27156" data-name="Grupo 27156" transform="translate(1.043 21.504)">
            <g id="Grupo_27155" data-name="Grupo 27155" transform="translate(0 0)">
              <g id="Grupo_27154" data-name="Grupo 27154" transform="translate(0)">
                <rect id="Rectángulo_5716" data-name="Rectángulo 5716" width="1.436" height="23.23" transform="translate(0 1.43) rotate(-84.462)" fill="#b8b8b8"/>
              </g>
            </g>
          </g>
          <g id="Grupo_27159" data-name="Grupo 27159" transform="translate(0 32.254)">
            <g id="Grupo_27158" data-name="Grupo 27158" transform="translate(0 0)">
              <g id="Grupo_27157" data-name="Grupo 27157">
                <rect id="Rectángulo_5717" data-name="Rectángulo 5717" width="1.436" height="23.23" transform="matrix(0.097, -0.995, 0.995, 0.097, 0, 1.429)" fill="#b8b8b8"/>
              </g>
            </g>
          </g>
        </g>
        <g id="Grupo_27163" data-name="Grupo 27163" transform="translate(49.973 2.455)">
          <g id="Grupo_27162" data-name="Grupo 27162">
            <g id="Grupo_27161" data-name="Grupo 27161">
              <path id="Trazado_26610" data-name="Trazado 26610" d="M-1875.3,1469.228a2.132,2.132,0,0,1-.5.463s-.391.148-.662.269a2,2,0,0,0-.205.1,3.921,3.921,0,0,1-1.107.586c-.534.154-2.952.7-2.952.7l-.562-1.435-.4-1.158a24.577,24.577,0,0,1,2.719-3.1,1.388,1.388,0,0,1,.14-.05,5.018,5.018,0,0,1,1.025-.093c.085-.015.937-.111,1.122.066a.84.84,0,0,1,.29.762,2,2,0,0,1,.515.973,1.246,1.246,0,0,1,.336,1.047S-1875.129,1468.876-1875.3,1469.228Z" transform="translate(1881.69 -1465.477)" fill="#eea886"/>
            </g>
          </g>
        </g>
        <g id="Grupo_27166" data-name="Grupo 27166" transform="translate(27.778 5.393)">
          <g id="Grupo_27165" data-name="Grupo 27165">
            <g id="Grupo_27164" data-name="Grupo 27164">
              <path id="Trazado_26611" data-name="Trazado 26611" d="M-2029.591,1505.03a33.112,33.112,0,0,1,3.781-2.1c4.656-2.329,10.4-6.552,11.5-7.162,1.68-.937,6.99-7.424,6.99-7.424-.274-.977-2.791-2.938-2.791-2.938s-8.049,7.623-9.807,8.562c-1.513.807-8.984,1.622-11.042,1.833l-.526.053C-2033.639,1498.789-2030.792,1505.8-2029.591,1505.03Z" transform="translate(2032.269 -1485.409)" fill="#039be5"/>
            </g>
          </g>
        </g>
        <g id="Grupo_27169" data-name="Grupo 27169" transform="translate(12.622 40.325)">
          <g id="Grupo_27168" data-name="Grupo 27168">
            <g id="Grupo_27167" data-name="Grupo 27167">
              <path id="Trazado_26612" data-name="Trazado 26612" d="M-2118.078,1723.995s2.278,8.458,2.878,11.48c.523,2.634,1.576,9.65,1.725,11.318s-6.723,17.812-7.438,20.729l-6.262-1.006s6.607-16.8,4.883-20.537c-2.563-5.553-2.9-5.386-4.916-9.96s-6.641-4.683-7.883-13.171C-2135.09,1722.848-2119.759,1721.3-2118.078,1723.995Z" transform="translate(2135.09 -1722.407)" fill="#2d314f"/>
            </g>
          </g>
        </g>
        <g id="Grupo_27172" data-name="Grupo 27172" transform="translate(15.897 0.442)">
          <g id="Grupo_27171" data-name="Grupo 27171">
            <g id="Grupo_27170" data-name="Grupo 27170">
              <path id="Trazado_26613" data-name="Trazado 26613" d="M-2110.267,1452.207s4.157-1.553,6.074,1.612,1.733,9.5-.363,10.28-5.244.372-6.317-1.609a15.85,15.85,0,0,1-2-6.757A4.168,4.168,0,0,1-2110.267,1452.207Z" transform="translate(2112.87 -1451.826)" fill="#eea886"/>
            </g>
          </g>
        </g>
        <g id="Grupo_27175" data-name="Grupo 27175" transform="translate(17.03 8.69)">
          <g id="Grupo_27174" data-name="Grupo 27174">
            <g id="Grupo_27173" data-name="Grupo 27173">
              <path id="Trazado_26614" data-name="Trazado 26614" d="M-2098.7,1511.611a3.489,3.489,0,0,0,.11,1.627c.277.537-5.23.551-5.23.551a36.288,36.288,0,0,0-1.295-5.388C-2105.966,1505.934-2098.7,1511.611-2098.7,1511.611Z" transform="translate(2105.188 -1507.78)" fill="#eea886"/>
            </g>
          </g>
        </g>
        <g id="Grupo_27178" data-name="Grupo 27178" transform="translate(15.544)">
          <g id="Grupo_27177" data-name="Grupo 27177">
            <g id="Grupo_27176" data-name="Grupo 27176">
              <path id="Trazado_26615" data-name="Trazado 26615" d="M-2113.712,1458.135s.381.627,1.932.384,3.444-2.308,4.092-2.534.654-.607.654-.607l.405.593.688.044s-.627-1.846.319-2.6-.982-5.977-5.958-4.237c0,0-3.822,1.053-3.682,3.227S-2114.567,1457.053-2113.712,1458.135Z" transform="translate(2115.266 -1448.824)" fill="#d88a51"/>
            </g>
          </g>
        </g>
        <g id="Grupo_27181" data-name="Grupo 27181" transform="translate(22.223 4.971)">
          <g id="Grupo_27180" data-name="Grupo 27180">
            <g id="Grupo_27179" data-name="Grupo 27179">
              <path id="Trazado_26616" data-name="Trazado 26616" d="M-2068.5,1483.341c-.087-.364-1.014-1.406-1.369-.291s.536,2.616,1.033,2.487S-2068.283,1484.265-2068.5,1483.341Z" transform="translate(2069.954 -1482.549)" fill="#eea886"/>
            </g>
          </g>
        </g>
        <g id="Grupo_27183" data-name="Grupo 27183" transform="translate(7.785 15.972)">
          <g id="Grupo_27182" data-name="Grupo 27182">
            <path id="Trazado_26617" data-name="Trazado 26617" d="M-2167.874,1569.627a2.449,2.449,0,0,0,1.093,1.427,1.779,1.779,0,0,0,.948.312l.247.009h0l4.32.147s3.212-10.381-2.812-14.34C-2164.265,1557.2-2168.293,1564.623-2167.874,1569.627Z" transform="translate(2167.905 -1557.181)" fill="#039be5"/>
          </g>
        </g>
        <g id="Grupo_27186" data-name="Grupo 27186" transform="translate(20.79 85.493)">
          <g id="Grupo_27185" data-name="Grupo 27185">
            <g id="Grupo_27184" data-name="Grupo 27184">
              <path id="Trazado_26618" data-name="Trazado 26618" d="M-2079.623,2033.62c.363.7,2.354.567,6.392,1.11a18.488,18.488,0,0,0,2.655.2l.235-2.428a18.327,18.327,0,0,1-3.076-1.2,8.671,8.671,0,0,1-1.794-1.968,7.751,7.751,0,0,1-3.26-.491S-2079.986,2032.916-2079.623,2033.62Z" transform="translate(2079.679 -2028.84)" fill="#2d314f"/>
            </g>
          </g>
        </g>
        <g id="Grupo_27188" data-name="Grupo 27188" transform="translate(17.857 13.434)">
          <g id="Grupo_27187" data-name="Grupo 27187">
            <path id="Trazado_26619" data-name="Trazado 26619" d="M-2093.916,1540.362s-3.391-.789-5.3-.144l-.288.267s-.581,1.113,1.605,1.209S-2092.278,1541.949-2093.916,1540.362Z" transform="translate(2099.576 -1539.964)" fill="#4ba2f4"/>
          </g>
        </g>
        <g id="Grupo_27191" data-name="Grupo 27191" transform="translate(6.491 92.605)">
          <g id="Grupo_27190" data-name="Grupo 27190">
            <g id="Grupo_27189" data-name="Grupo 27189">
              <path id="Trazado_26620" data-name="Trazado 26620" d="M-2172.909,2077.764s-.508,2-.577,2.3-3.2-.527-3.2-.527l0-2.441S-2173.276,2077.435-2172.909,2077.764Z" transform="translate(2176.685 -2077.092)" fill="#666fb3"/>
            </g>
          </g>
        </g>
        <g id="Grupo_27194" data-name="Grupo 27194" transform="translate(5.434 40.766)">
          <g id="Grupo_27193" data-name="Grupo 27193">
            <g id="Grupo_27192" data-name="Grupo 27192">
              <path id="Trazado_26621" data-name="Trazado 26621" d="M-2176.671,1725.4a65.865,65.865,0,0,0-1.479,9.42c-.312,4.355-.881,9.132-1.332,13.687-.5,5.078-1.941,13.287-2.015,16s-2.362,14.588-2.362,14.588l5.849.672s3.8-20.978,4.7-23.123,5.348-17.432,5.5-19.148S-2176.671,1725.4-2176.671,1725.4Z" transform="translate(2183.86 -1725.399)" fill="#2d314f"/>
            </g>
          </g>
        </g>
        <g id="Grupo_27197" data-name="Grupo 27197" transform="translate(5.284 94.828)">
          <g id="Grupo_27196" data-name="Grupo 27196">
            <g id="Grupo_27195" data-name="Grupo 27195">
              <path id="Trazado_26622" data-name="Trazado 26622" d="M-2180.409,2092.665a8.675,8.675,0,0,0,1.794,1.968c.918.638,4.459,1.463,4.976,2.076.373.442.892,2.119-4.79,1.354-4.037-.543-6.029-.406-6.392-1.11s1.151-4.78,1.151-4.78A7.758,7.758,0,0,0-2180.409,2092.665Z" transform="translate(2184.876 -2092.174)" fill="#2d314f"/>
            </g>
          </g>
        </g>
        <g id="Grupo_27199" data-name="Grupo 27199" transform="translate(10.48 13.831)">
          <g id="Grupo_27198" data-name="Grupo 27198">
            <path id="Trazado_26623" data-name="Trazado 26623" d="M-2129.284,1581.306c.5-.071-1.237-14.92-1.1-15.851.089-.621.075-5.447.039-8.455l.542-3.045a13.928,13.928,0,0,1,1.192-.753c.754-.435,1.7-.933,2.751-1.458-.122-.719-.207-1.285-.24-1.616a6.08,6.08,0,0,0-3.077-4.688,5.023,5.023,0,0,0-.7-.35c-.386-.164-.767-.323-1.135-.475-2.452-1.009-5.567-1.956-5.567-1.956h-5a42.434,42.434,0,0,0-6.08,1.69,4.218,4.218,0,0,0-.82.45l.679,14.267v.009c0,.005,0,.011,0,.019.306,2.007.629,4.375.736,6.035.044.678-.731,4.318-1.136,7.658l-1.415,7.995S-2148.8,1584.1-2129.284,1581.306Z" transform="translate(2149.62 -1542.66)" fill="#039be5"/>
          </g>
        </g>
      </g>
      <g id="Grupo_27208" data-name="Grupo 27208" transform="translate(291.287 7.189)">
        <g id="Grupo_27201" data-name="Grupo 27201" transform="translate(0 3.829)">
          <rect id="Rectángulo_5718" data-name="Rectángulo 5718" width="0.296" height="31.077" fill="#ffb476"/>
        </g>
        <g id="Grupo_27202" data-name="Grupo 27202" transform="translate(21.061 3.829)">
          <rect id="Rectángulo_5719" data-name="Rectángulo 5719" width="0.296" height="31.077" fill="#ffb476"/>
        </g>
        <g id="Grupo_27203" data-name="Grupo 27203" transform="translate(42.122 3.829)">
          <rect id="Rectángulo_5720" data-name="Rectángulo 5720" width="0.296" height="31.077" fill="#ffb476"/>
        </g>
        <g id="Grupo_27204" data-name="Grupo 27204" transform="translate(63.183 3.829)">
          <rect id="Rectángulo_5721" data-name="Rectángulo 5721" width="0.296" height="31.077" fill="#ffb476"/>
        </g>
        <g id="Grupo_27205" data-name="Grupo 27205" transform="translate(84.245 3.829)">
          <rect id="Rectángulo_5722" data-name="Rectángulo 5722" width="0.296" height="31.077" fill="#ffb476"/>
        </g>
        <rect id="Rectángulo_5723" data-name="Rectángulo 5723" width="3.351" height="1.08" transform="translate(0.148 36.747)" fill="#ffb476"/>
        <rect id="Rectángulo_5724" data-name="Rectángulo 5724" width="5.045" height="0.81" transform="translate(0.148)" fill="#ffb476"/>
        <rect id="Rectángulo_5725" data-name="Rectángulo 5725" width="7.156" height="0.81" transform="translate(0.148 1.497)" fill="#ffb476"/>
        <rect id="Rectángulo_5726" data-name="Rectángulo 5726" width="5.923" height="0.81" transform="translate(20.982)" fill="#ffb476"/>
        <rect id="Rectángulo_5727" data-name="Rectángulo 5727" width="3.787" height="0.81" transform="translate(20.982 1.497)" fill="#ffb476"/>
        <rect id="Rectángulo_5728" data-name="Rectángulo 5728" width="3.67" height="0.81" transform="translate(42.419)" fill="#ffb476"/>
        <rect id="Rectángulo_5729" data-name="Rectángulo 5729" width="4.278" height="0.81" transform="translate(42.419 1.497)" fill="#ffb476"/>
        <rect id="Rectángulo_5730" data-name="Rectángulo 5730" width="5.346" height="0.81" transform="translate(63.48)" fill="#ffb476"/>
        <rect id="Rectángulo_5731" data-name="Rectángulo 5731" width="4.278" height="0.81" transform="translate(63.48 1.497)" fill="#ffb476"/>
        <rect id="Rectángulo_5732" data-name="Rectángulo 5732" width="3.193" height="0.81" transform="translate(84.393)" fill="#ffb476"/>
        <rect id="Rectángulo_5733" data-name="Rectángulo 5733" width="2.555" height="0.81" transform="translate(84.393 1.497)" fill="#ffb476"/>
        <rect id="Rectángulo_5734" data-name="Rectángulo 5734" width="3.351" height="1.08" transform="translate(21.209 36.747)" fill="#ffb476"/>
        <rect id="Rectángulo_5735" data-name="Rectángulo 5735" width="3.351" height="1.08" transform="translate(42.419 36.747)" fill="#ffb476"/>
        <rect id="Rectángulo_5736" data-name="Rectángulo 5736" width="3.351" height="1.08" transform="translate(63.48 36.747)" fill="#ffb476"/>
        <rect id="Rectángulo_5737" data-name="Rectángulo 5737" width="3.351" height="1.08" transform="translate(84.541 36.747)" fill="#ffb476"/>
        <g id="Grupo_27206" data-name="Grupo 27206" transform="translate(0.148 11.886)">
          <path id="Trazado_26624" data-name="Trazado 26624" d="M-1722.422,887.63c-6.569,0-12.28-2.84-18.233-5.8-7.35-3.655-14.949-7.434-25.075-6.4-6.466.661-10.524,3.294-14.1,5.617-3.242,2.1-6.307,3.953-10.459,4.111-6.709.255-9.036-2.606-9.076-2.781v-1.836h0c.009.032,1.473,3.243,9.068,3.205,3.74-.019,6.5-1.81,9.7-3.884,3.715-2.41,7.925-5.142,14.729-5.837,10.532-1.076,18.318,2.8,25.847,6.539,7.879,3.918,15.4,7.592,24.9,4.4v1.51A21.467,21.467,0,0,1-1722.422,887.63Z" transform="translate(1799.368 -873.843)" fill="#ffb476"/>
        </g>
        <g id="Grupo_27207" data-name="Grupo 27207" transform="translate(0.148 7.679)">
          <path id="Trazado_26625" data-name="Trazado 26625" d="M-1761.853,862.941c-4.849,0-8.694-3.261-12.459-6.453-2.855-2.421-5.817-4.9-9.236-6.116-10.434-3.725-15.772,3.077-15.82,3.137V851.44a9.509,9.509,0,0,1,3.764-2.488c2.508-1.075,6.716-1.932,12.52.087,3.677,1.279,6.731,3.868,9.684,6.372,5.991,5.08,11.166,9.466,20.151,2.595,6.806-5.2,13.221-10.164,19.534-11.975,6.175-1.772,12.611-.475,18.637,5.55l-.045,1.879c-12.8-12.855-23.7-4.711-37.267,5.668C-1755.986,861.876-1759.083,862.941-1761.853,862.941Z" transform="translate(1799.368 -845.299)" fill="#ffb476"/>
        </g>
      </g>
      <g id="Grupo_27213" data-name="Grupo 27213" transform="translate(234.882 30.374)">
        <g id="Grupo_27209" data-name="Grupo 27209">
          <path id="Trazado_26626" data-name="Trazado 26626" d="M-2175.368,969.876a3.49,3.49,0,0,1-2.082-.628,2.616,2.616,0,0,1-1.134-1.9,15.87,15.87,0,0,0-1.312-3.976,7,7,0,0,1-3.152-5.758,7.022,7.022,0,0,1,6.916-7.111,7.022,7.022,0,0,1,7.111,6.916,6.984,6.984,0,0,1-2.479,5.447,15.09,15.09,0,0,0-.584,3.941,3.066,3.066,0,0,1-3.019,3.059C-2175.191,969.87-2175.279,969.874-2175.368,969.876Zm-.755-18.8a6.448,6.448,0,0,0-6.35,6.529,6.43,6.43,0,0,0,2.959,5.329l.069.044.035.074a16.565,16.565,0,0,1,1.4,4.213l0,.022a2.05,2.05,0,0,0,.9,1.5,2.954,2.954,0,0,0,1.966.51,2.5,2.5,0,0,0,2.493-2.451v-.022a15.787,15.787,0,0,1,.628-4.193l.024-.088.07-.058a6.415,6.415,0,0,0,2.342-5.056A6.448,6.448,0,0,0-2176.123,951.073Z" transform="translate(2183.048 -950.498)" fill="#ffb476"/>
        </g>
        <g id="Grupo_27210" data-name="Grupo 27210" transform="translate(4.572 9.128)">
          <path id="Trazado_26627" data-name="Trazado 26627" d="M-2150.43,1020.411l-1.6-7.531,1.705,1.171.886-1.181.942.948,1.371-1.39-.217,7.706-.573-.016.176-6.249-.754.765-.884-.889-.818,1.09-.975-.669,1.3,6.126Z" transform="translate(2152.028 -1012.428)" fill="#ffb476"/>
        </g>
        <g id="Grupo_27211" data-name="Grupo 27211" transform="translate(5.404 18.462)">
          <rect id="Rectángulo_5738" data-name="Rectángulo 5738" width="4.975" height="2.005" transform="matrix(0.997, -0.083, 0.083, 0.997, 0, 0.412)" fill="#ffb476"/>
        </g>
        <g id="Grupo_27212" data-name="Grupo 27212" transform="translate(4.437 16.354)">
          <rect id="Rectángulo_5739" data-name="Rectángulo 5739" width="6.575" height="3.227" transform="translate(0 0.544) rotate(-4.747)" fill="#ffb476"/>
        </g>
      </g>
      <g id="Grupo_27252" data-name="Grupo 27252" transform="translate(70.292 182.314)">
        <g id="Grupo_27216" data-name="Grupo 27216" transform="translate(1.836 18.275)">
          <g id="Grupo_27215" data-name="Grupo 27215">
            <g id="Grupo_27214" data-name="Grupo 27214">
              <path id="Trazado_26628" data-name="Trazado 26628" d="M-3284.494,2162.641l-2.266-56.891h39.194l2.267,56.909.45-.018-2.284-57.341h-40.1l2.285,57.36Z" transform="translate(3287.229 -2105.299)" fill="#004e8c"/>
            </g>
          </g>
        </g>
        <g id="Grupo_27219" data-name="Grupo 27219" transform="translate(0 18.275)">
          <g id="Grupo_27218" data-name="Grupo 27218">
            <g id="Grupo_27217" data-name="Grupo 27217">
              <path id="Trazado_26629" data-name="Trazado 26629" d="M-3296.971,2105.75h39.195l-2.267,56.891.45.018,2.285-57.36h-40.1l-2.284,57.341.45.018Z" transform="translate(3299.688 -2105.299)" fill="#004e8c"/>
            </g>
          </g>
        </g>
        <g id="Grupo_27221" data-name="Grupo 27221" transform="translate(0.225)">
          <g id="Grupo_27220" data-name="Grupo 27220">
            <path id="Trazado_26630" data-name="Trazado 26630" d="M-3258.516,2038.441h-39.646l2.276-57.126h39.645Z" transform="translate(3298.162 -1981.315)" fill="#c26c23"/>
          </g>
        </g>
        <g id="Grupo_27223" data-name="Grupo 27223" transform="translate(3.189)">
          <g id="Grupo_27222" data-name="Grupo 27222">
            <path id="Trazado_26631" data-name="Trazado 26631" d="M-3275.777,2038.441h39.646l-2.275-57.126h-39.646Z" transform="translate(3278.052 -1981.315)" fill="url(#linear-gradient-2)"/>
          </g>
        </g>
        <g id="Grupo_27226" data-name="Grupo 27226" transform="translate(36.734 35.015)">
          <g id="Grupo_27225" data-name="Grupo 27225">
            <g id="Grupo_27224" data-name="Grupo 27224">
              <rect id="Rectángulo_5740" data-name="Rectángulo 5740" width="1.992" height="15.165" fill="#e3f2ff"/>
            </g>
          </g>
        </g>
        <g id="Grupo_27229" data-name="Grupo 27229" transform="translate(32.797 36.715)">
          <g id="Grupo_27228" data-name="Grupo 27228">
            <g id="Grupo_27227" data-name="Grupo 27227">
              <rect id="Rectángulo_5741" data-name="Rectángulo 5741" width="1.992" height="13.465" fill="#e3f2ff"/>
            </g>
          </g>
        </g>
        <g id="Grupo_27232" data-name="Grupo 27232" transform="translate(28.52 38.925)">
          <g id="Grupo_27231" data-name="Grupo 27231">
            <g id="Grupo_27230" data-name="Grupo 27230">
              <rect id="Rectángulo_5742" data-name="Rectángulo 5742" width="1.993" height="11.255" fill="#e3f2ff"/>
            </g>
          </g>
        </g>
        <g id="Grupo_27235" data-name="Grupo 27235" transform="translate(24.127 41.713)">
          <g id="Grupo_27234" data-name="Grupo 27234">
            <g id="Grupo_27233" data-name="Grupo 27233">
              <rect id="Rectángulo_5743" data-name="Rectángulo 5743" width="1.993" height="8.467" fill="#e3f2ff"/>
            </g>
          </g>
        </g>
        <g id="Grupo_27237" data-name="Grupo 27237" transform="translate(11.805 3.724)">
          <g id="Grupo_27236" data-name="Grupo 27236">
            <path id="Trazado_26632" data-name="Trazado 26632" d="M-3219.167,2042.769l-.432-.154,3.758-10.541,8.148-2.156,2.929-11.57,6.288-2.775,1.409-9,.453.071-1.447,9.244-6.312,2.786-2.94,11.615-8.176,2.162Z" transform="translate(3219.598 -2006.577)" fill="#e3f2ff"/>
          </g>
        </g>
        <g id="Grupo_27238" data-name="Grupo 27238" transform="translate(22.678 26.029)">
          <path id="Trazado_26633" data-name="Trazado 26633" d="M-3143.664,2158.358a1.223,1.223,0,0,1-.173,1.721,1.222,1.222,0,0,1-1.72-.173,1.222,1.222,0,0,1,.173-1.72A1.222,1.222,0,0,1-3143.664,2158.358Z" transform="translate(3145.833 -2157.909)" fill="#ffb255"/>
        </g>
        <g id="Grupo_27239" data-name="Grupo 27239" transform="translate(22.449 25.801)">
          <path id="Trazado_26634" data-name="Trazado 26634" d="M-3145.014,2158.934a1.454,1.454,0,0,1-2.044-.206,1.454,1.454,0,0,1,.206-2.043,1.453,1.453,0,0,1,2.043.205A1.453,1.453,0,0,1-3145.014,2158.934Zm-1.548-1.893a1,1,0,0,0-.14,1.4,1,1,0,0,0,1.4.14.994.994,0,0,0,.14-1.4A.994.994,0,0,0-3146.562,2157.041Z" transform="translate(3147.385 -2156.358)" fill="#e3f2ff"/>
        </g>
        <g id="Grupo_27240" data-name="Grupo 27240" transform="translate(25.645 14.507)">
          <path id="Trazado_26635" data-name="Trazado 26635" d="M-3123.534,2080.185a1.223,1.223,0,0,1-.173,1.721,1.224,1.224,0,0,1-1.721-.173,1.223,1.223,0,0,1,.173-1.72A1.223,1.223,0,0,1-3123.534,2080.185Z" transform="translate(3125.703 -2079.736)" fill="#ffb555"/>
        </g>
        <g id="Grupo_27241" data-name="Grupo 27241" transform="translate(25.416 14.278)">
          <path id="Trazado_26636" data-name="Trazado 26636" d="M-3124.884,2080.76a1.454,1.454,0,0,1-2.043-.206,1.453,1.453,0,0,1,.205-2.043,1.453,1.453,0,0,1,2.043.205A1.454,1.454,0,0,1-3124.884,2080.76Zm-1.547-1.894a.994.994,0,0,0-.141,1.4,1,1,0,0,0,1.4.14,1,1,0,0,0,.14-1.4A1,1,0,0,0-3126.432,2078.867Z" transform="translate(3127.255 -2078.184)" fill="#e3f2ff"/>
        </g>
        <g id="Grupo_27242" data-name="Grupo 27242" transform="translate(31.836 11.652)">
          <path id="Trazado_26637" data-name="Trazado 26637" d="M-3081.528,2060.819a1.222,1.222,0,0,1-.173,1.72,1.222,1.222,0,0,1-1.721-.173,1.221,1.221,0,0,1,.173-1.72A1.222,1.222,0,0,1-3081.528,2060.819Z" transform="translate(3083.698 -2060.37)" fill="#ffb555"/>
        </g>
        <g id="Grupo_27243" data-name="Grupo 27243" transform="translate(31.608 11.424)">
          <path id="Trazado_26638" data-name="Trazado 26638" d="M-3082.877,2061.394a1.453,1.453,0,0,1-2.043-.205,1.454,1.454,0,0,1,.206-2.043,1.454,1.454,0,0,1,2.043.206A1.453,1.453,0,0,1-3082.877,2061.394Zm-1.548-1.893a1,1,0,0,0-.14,1.4,1,1,0,0,0,1.4.14,1,1,0,0,0,.14-1.4A1,1,0,0,0-3084.426,2059.5Z" transform="translate(3085.248 -2058.818)" fill="#e3f2ff"/>
        </g>
        <g id="Grupo_27244" data-name="Grupo 27244" transform="translate(14.561 28.292)">
          <path id="Trazado_26639" data-name="Trazado 26639" d="M-3198.732,2173.711a1.222,1.222,0,0,1-.173,1.72,1.223,1.223,0,0,1-1.721-.173,1.223,1.223,0,0,1,.173-1.72A1.222,1.222,0,0,1-3198.732,2173.711Z" transform="translate(3200.902 -2173.262)" fill="#ffb455"/>
        </g>
        <g id="Grupo_27245" data-name="Grupo 27245" transform="translate(14.332 28.064)">
          <path id="Trazado_26640" data-name="Trazado 26640" d="M-3200.082,2174.287a1.455,1.455,0,0,1-2.043-.206,1.454,1.454,0,0,1,.205-2.043,1.455,1.455,0,0,1,2.043.205A1.455,1.455,0,0,1-3200.082,2174.287Zm-1.548-1.894a.994.994,0,0,0-.141,1.4.994.994,0,0,0,1.4.141.994.994,0,0,0,.14-1.4A.993.993,0,0,0-3201.63,2172.394Z" transform="translate(3202.453 -2171.711)" fill="#e3f2ff"/>
        </g>
        <g id="Grupo_27248" data-name="Grupo 27248" transform="translate(8.44 14.729)">
          <g id="Grupo_27247" data-name="Grupo 27247">
            <g id="Grupo_27246" data-name="Grupo 27246">
              <rect id="Rectángulo_5744" data-name="Rectángulo 5744" width="12.242" height="2.536" rx="1.268" fill="#ebebeb"/>
            </g>
          </g>
        </g>
        <g id="Grupo_27251" data-name="Grupo 27251" transform="translate(8.44 10.295)">
          <g id="Grupo_27250" data-name="Grupo 27250">
            <g id="Grupo_27249" data-name="Grupo 27249">
              <rect id="Rectángulo_5745" data-name="Rectángulo 5745" width="12.242" height="2.536" rx="1.268" fill="#ebebeb"/>
            </g>
          </g>
        </g>
      </g>
      <g id="Grupo_27311" data-name="Grupo 27311" transform="translate(36.86 147.632)">
        <g id="Grupo_27257" data-name="Grupo 27257" transform="translate(9.503 4.715)">
          <g id="Grupo_27256" data-name="Grupo 27256">
            <g id="Grupo_27255" data-name="Grupo 27255">
              <g id="Grupo_27254" data-name="Grupo 27254">
                <g id="Grupo_27253" data-name="Grupo 27253">
                  <path id="Trazado_26641" data-name="Trazado 26641" d="M-3453.4,1778.743s3.359,1.643,2.528,6.113-1.2,5.072-.269,6.818,2.025,9.2,1.189,10.608-10.349-6.205-11.668-12.6.836-9.234,1.6-10.293S-3456.364,1777.238-3453.4,1778.743Z" transform="translate(3462.036 -1778.006)" fill="#0e2d3d"/>
                </g>
              </g>
            </g>
          </g>
        </g>
        <g id="Grupo_27259" data-name="Grupo 27259" transform="translate(24.235)">
          <g id="Grupo_27258" data-name="Grupo 27258">
            <path id="Trazado_26642" data-name="Trazado 26642" d="M-3351.338,1746.017h-10.747v9.43l1.641-1.641h9.106Z" transform="translate(3362.084 -1746.017)" fill="#ffcb55"/>
          </g>
        </g>
        <g id="Grupo_27260" data-name="Grupo 27260" transform="translate(16.085 99.894)">
          <path id="Trazado_26643" data-name="Trazado 26643" d="M-3416.59,2433.029h.761v-3.59a10.2,10.2,0,0,1,2.43,2.371c.937,1.376,2.225,1.259,4.187,1.172s1.874-.879,1.7-1.991-2.167-1.464-2.81-1.639-2.106-2.695-2.577-3.308a8.384,8.384,0,0,1-.981-1.64s-.366-1.493-2.181,0-1.288,4.363-1.083,4.626A32.52,32.52,0,0,1-3416.59,2433.029Z" transform="translate(3417.377 -2423.739)" fill="#163342"/>
        </g>
        <g id="Grupo_27261" data-name="Grupo 27261" transform="translate(16.987 100.163)">
          <path id="Trazado_26644" data-name="Trazado 26644" d="M-3407.536,2430.907c.673.439,2.43,0,2.43,0-.5-.644-3.557-4.948-3.557-4.948-1.859-1.083-2.594.408-2.594.408C-3410.5,2426.6-3408.211,2430.468-3407.536,2430.907Z" transform="translate(3411.258 -2425.565)" fill="#eea886"/>
        </g>
        <g id="Grupo_27265" data-name="Grupo 27265" transform="translate(40.188 37.252)">
          <g id="Grupo_27264" data-name="Grupo 27264">
            <g id="Grupo_27263" data-name="Grupo 27263">
              <g id="Grupo_27262" data-name="Grupo 27262">
                <path id="Trazado_26645" data-name="Trazado 26645" d="M-3253.759,2000.772s1.219.234,1.635-.339a3.98,3.98,0,0,1,1.412-.977c.333-.154,1.179-1.01,1.378-.591s-1.326,1.477-1.6,1.763,1.5.412,1.8.69-.07,3.2-1.275,2.972a11.089,11.089,0,0,1-2.562-1.264,7.518,7.518,0,0,1-.884-.131Z" transform="translate(3253.856 -1998.751)" fill="#eea886"/>
              </g>
            </g>
          </g>
        </g>
        <g id="Grupo_27269" data-name="Grupo 27269" transform="translate(43.692 39.7)">
          <g id="Grupo_27268" data-name="Grupo 27268">
            <g id="Grupo_27267" data-name="Grupo 27267">
              <g id="Grupo_27266" data-name="Grupo 27266">
                <path id="Trazado_26646" data-name="Trazado 26646" d="M-3229.134,2015.357a27.426,27.426,0,0,1,3.834,1.207c.19.266.127.461-.216.386s-3.547-.807-3.547-.807,4.126,1.839,4.329,2.023c.119.108.02.491-.167.469s-4.381-1.612-4.381-1.612,3.849,1.724,3.973,1.928a.291.291,0,0,1-.365.4c-.294-.108-3.957-1.507-3.957-1.507a17.17,17.17,0,0,1,2.726,1.666c0,.144-.068.479-.759.088s-2.418-1.143-2.418-1.143Z" transform="translate(3230.083 -2015.357)" fill="#eea886"/>
              </g>
            </g>
          </g>
        </g>
        <g id="Grupo_27270" data-name="Grupo 27270" transform="translate(6.795 102.815)">
          <path id="Trazado_26647" data-name="Trazado 26647" d="M-3480.194,2450.169h.469v-2.635a5.731,5.731,0,0,1,1.214,2.116c.381,1.259,1.743,1.632,3.823,1.574s2.107-.879,1.932-2.109-1.932-1.874-1.932-1.874a32.891,32.891,0,0,1-2.752-3.616,2.742,2.742,0,0,0-2.247.46c-.988.8-.681,2.6-.652,3.067S-3480.194,2450.169-3480.194,2450.169Z" transform="translate(3480.408 -2443.555)" fill="#163342"/>
        </g>
        <g id="Grupo_27271" data-name="Grupo 27271" transform="translate(4.181 45.616)">
          <path id="Trazado_26648" data-name="Trazado 26648" d="M-3493.878,2056.535a18.378,18.378,0,0,0-3.149,7.042c-.672,3.821.4,16.645.367,18.533s-1.786,6.588-1.435,10.145,1.738,21.263,1.738,21.263l3.8-.753s-.219-18.05,0-19.543.66-6.936.748-7.551,5.576-16.76,5.576-19.514S-3487.9,2052.041-3493.878,2056.535Z" transform="translate(3498.14 -2055.495)" fill="#1d3b54"/>
        </g>
        <g id="Grupo_27272" data-name="Grupo 27272" transform="translate(12.37 47.109)">
          <path id="Trazado_26649" data-name="Trazado 26649" d="M-3434.067,2066.427s4.07,15.532,4.553,17.685a45.3,45.3,0,0,1,1.183,4.84,31.994,31.994,0,0,1-.787,5.524l-5.168,24.717h-4.922s2.742-14.828,2.816-17.728,2.311-7.032,1.872-8.262-7.071-15.416-7.071-15.416S-3446.612,2061.918-3434.067,2066.427Z" transform="translate(3442.583 -2065.621)" fill="#1d3b54"/>
        </g>
        <g id="Grupo_27273" data-name="Grupo 27273" transform="translate(7.514 102.886)">
          <path id="Trazado_26650" data-name="Trazado 26650" d="M-3470.528,2447.65l-2.752-3.616-2.247.461a10.187,10.187,0,0,0,1.7,2.835C-3472.537,2448.773-3470.528,2447.65-3470.528,2447.65Z" transform="translate(3475.527 -2444.034)" fill="#eea886"/>
        </g>
        <g id="Grupo_27275" data-name="Grupo 27275" transform="translate(17.729 21.52)">
          <g id="Grupo_27274" data-name="Grupo 27274">
            <path id="Trazado_26651" data-name="Trazado 26651" d="M-3404.752,1892.017a5.075,5.075,0,0,1,2.945,1.517,19.428,19.428,0,0,1,2.79,4.249c.332.725,4.987,7.439,5.228,7.589s2.581.933,4.132,1.455c2.393.805,7.188,2.548,7.188,2.548l-.952,3.015s-9.017-2.95-11.276-3.507c-2.761-.68-9.118-8.836-9.118-8.836S-3408.556,1894.492-3404.752,1892.017Z" transform="translate(3406.23 -1892.017)" fill="#285173"/>
          </g>
        </g>
        <g id="Grupo_27277" data-name="Grupo 27277" transform="translate(4.629 20.229)">
          <g id="Grupo_27276" data-name="Grupo 27276">
            <path id="Trazado_26652" data-name="Trazado 26652" d="M-3483.454,1883.372a22.786,22.786,0,0,0,2.928,1.177c.755.151,3.683,3.954,4.2,5.343s0,3.471-1.057,5.916-.06,3.26-.543,5.705-.328,11.592-.238,12.951-14.129,3.417-16.936.942c0,0,1.9-8.243,4.151-10.6.486-.509.435-3.9.1-4.745s-4.075-7.154-4.075-7.154-.275-6.4,1.358-7.667c1.419-1.1,5.285-1.495,5.98-1.736A11.844,11.844,0,0,1-3483.454,1883.372Z" transform="translate(3495.103 -1883.259)" fill="#ffbf55"/>
          </g>
        </g>
        <g id="Grupo_27279" data-name="Grupo 27279" transform="translate(12.146 14.86)">
          <g id="Grupo_27278" data-name="Grupo 27278">
            <path id="Trazado_26653" data-name="Trazado 26653" d="M-3438.934,1849.808s-.065.6-.14,1.407c-.029.32-.06.673-.089,1.035a24.6,24.6,0,0,0-.114,2.843s-2.259,2.264-4.826-2.641a6.739,6.739,0,0,0,.266-4.776C-3444.651,1844.921-3438.934,1849.808-3438.934,1849.808Z" transform="translate(3444.104 -1846.834)" fill="#eea886"/>
          </g>
        </g>
        <g id="Grupo_27280" data-name="Grupo 27280" transform="translate(22.566 27.866)">
          <path id="Trazado_26654" data-name="Trazado 26654" d="M-3372.339,1940.888a18.455,18.455,0,0,0-.035-5.815,14.043,14.043,0,0,1-1.037,4.576Z" transform="translate(3373.41 -1935.073)" fill="#183c59"/>
        </g>
        <g id="Grupo_27281" data-name="Grupo 27281" transform="translate(10.411 20.422)">
          <path id="Trazado_26655" data-name="Trazado 26655" d="M-3455.878,1884.975s1.553,4.589,5.819,4.251,2.022-3.875,2.022-3.875a9.412,9.412,0,0,0-1.363-.667c-.3-.057-4.716-.114-4.716-.114Z" transform="translate(3455.878 -1884.571)" fill="#eea886"/>
        </g>
        <g id="Grupo_27282" data-name="Grupo 27282" transform="translate(18.252 21.203)">
          <path id="Trazado_26656" data-name="Trazado 26656" d="M-3402.682,1889.867a42.039,42.039,0,0,1,2.234,12.478c0,6.3.18,16.558.96,19.8s3,13.26,3,13.26l1.74-.9s-4.185-15.991-4.5-17.145.24-13.335.54-14.355,1.576-5.56,1.378-6.82c-.25-1.588-1.736-3.937-4.136-5.958Z" transform="translate(3402.682 -1889.867)" fill="#285173"/>
        </g>
        <g id="Grupo_27283" data-name="Grupo 27283" transform="translate(1.826 20.633)">
          <path id="Trazado_26657" data-name="Trazado 26657" d="M-3504.695,1886a64.2,64.2,0,0,1,2.092,10.141c.7,5.694-2.16,32.125-4.08,38.125l-7.44-1.2s1.6-18.683,3.775-22.083,2.865-6.408.519-13.5,1.029-10.611,1.029-10.611S-3505.347,1886.075-3504.695,1886Z" transform="translate(3514.122 -1886.001)" fill="#285173"/>
        </g>
        <g id="Grupo_27284" data-name="Grupo 27284" transform="translate(0.231 33.472)">
          <path id="Trazado_26658" data-name="Trazado 26658" d="M-3505.894,1979.119l-9.021,15.625-10.028-5.79,8.629-15.851Z" transform="translate(3524.943 -1973.103)" fill="#616161"/>
        </g>
        <g id="Grupo_27285" data-name="Grupo 27285" transform="translate(1.274 34.682)">
          <path id="Trazado_26659" data-name="Trazado 26659" d="M-3500.944,1986.658l-8.012,13.876-8.906-5.142,7.664-14.078Z" transform="translate(3517.863 -1981.315)" fill="#e0cec7"/>
        </g>
        <g id="Grupo_27286" data-name="Grupo 27286" transform="translate(11.495 35.726)">
          <path id="Trazado_26660" data-name="Trazado 26660" d="M-3444.776,1991.448l.562-.974-3.6-2.079-.7.893Z" transform="translate(3448.518 -1988.395)" fill="#616161"/>
        </g>
        <g id="Grupo_27292" data-name="Grupo 27292" transform="translate(10.67 45.008)">
          <g id="Grupo_27291" data-name="Grupo 27291">
            <g id="Grupo_27290" data-name="Grupo 27290">
              <g id="Grupo_27289" data-name="Grupo 27289">
                <g id="Grupo_27288" data-name="Grupo 27288">
                  <g id="Grupo_27287" data-name="Grupo 27287">
                    <path id="Trazado_26661" data-name="Trazado 26661" d="M-3449.978,2056.225a1.861,1.861,0,0,1-.59-.085s-.315-.183-.547-.3a1.836,1.836,0,0,0-.182-.083,3.4,3.4,0,0,1-1.006-.425,22.944,22.944,0,0,1-1.811-1.912l.667-1.014.49-1.039a23.028,23.028,0,0,1,3.367.406,1.136,1.136,0,0,1,.111.067,4.371,4.371,0,0,1,.628.642c.057.049.592.572.573.795a.731.731,0,0,1-.356.615,1.747,1.747,0,0,1-.374.885,1.085,1.085,0,0,1-.523.8S-3449.648,2056.144-3449.978,2056.225Z" transform="translate(3454.115 -2051.368)" fill="#eea886"/>
                  </g>
                </g>
              </g>
            </g>
          </g>
        </g>
        <g id="Grupo_27294" data-name="Grupo 27294" transform="translate(0 21.428)">
          <g id="Grupo_27293" data-name="Grupo 27293">
            <path id="Trazado_26662" data-name="Trazado 26662" d="M-3517.813,1891.485a3.784,3.784,0,0,0-4.309,2.234,13.771,13.771,0,0,0-1.772,5.781c-.2,1.392-1.092,5.192-1.183,5.584s-2.115,5.072-1.187,6.708,10.415,6.483,10.355,6.845,1.642-3.659,1.642-3.659a40.6,40.6,0,0,1-4.464-2.8c-1.021-1.07-3.174-2.222-2.732-3.548.52-1.559,2.08-6.817,2.443-7.587S-3515.5,1892.466-3517.813,1891.485Z" transform="translate(3526.507 -1891.394)" fill="#285173"/>
          </g>
        </g>
        <g id="Grupo_27299" data-name="Grupo 27299" transform="translate(11.221 5.805)">
          <g id="Grupo_27298" data-name="Grupo 27298">
            <g id="Grupo_27297" data-name="Grupo 27297">
              <g id="Grupo_27296" data-name="Grupo 27296">
                <g id="Grupo_27295" data-name="Grupo 27295">
                  <path id="Trazado_26663" data-name="Trazado 26663" d="M-3443.95,1785.546s4.877,1.533,2.229,9.949-9.309-.975-8.612-6.1S-3443.95,1785.546-3443.95,1785.546Z" transform="translate(3450.383 -1785.404)" fill="#eea987"/>
                </g>
              </g>
            </g>
          </g>
        </g>
        <g id="Grupo_27304" data-name="Grupo 27304" transform="translate(10.836 5.13)">
          <g id="Grupo_27303" data-name="Grupo 27303">
            <g id="Grupo_27302" data-name="Grupo 27302">
              <g id="Grupo_27301" data-name="Grupo 27301">
                <g id="Grupo_27300" data-name="Grupo 27300">
                  <path id="Trazado_26664" data-name="Trazado 26664" d="M-3443.446,1786.548a11,11,0,0,1-6.479,2.675,10.292,10.292,0,0,0-1.678,2.545s-3.618-6.168.83-9.865S-3441.811,1785.024-3443.446,1786.548Z" transform="translate(3452.991 -1780.818)" fill="#0e2d3d"/>
                </g>
              </g>
            </g>
          </g>
        </g>
        <g id="Grupo_27309" data-name="Grupo 27309" transform="translate(12.259 12.018)">
          <g id="Grupo_27308" data-name="Grupo 27308">
            <g id="Grupo_27307" data-name="Grupo 27307">
              <g id="Grupo_27306" data-name="Grupo 27306">
                <g id="Grupo_27305" data-name="Grupo 27305">
                  <path id="Trazado_26665" data-name="Trazado 26665" d="M-3441.646,1829.234c-.031-.613-.409-2.007-1.319-1.616s.056,3.229.659,3.054C-3442.307,1830.672-3441.572,1830.684-3441.646,1829.234Z" transform="translate(3443.339 -1827.55)" fill="#eea987"/>
                </g>
              </g>
            </g>
          </g>
        </g>
        <g id="Grupo_27310" data-name="Grupo 27310" transform="translate(13.495 16.947)">
          <path id="Trazado_26666" data-name="Trazado 26666" d="M-3431.268,1863.284c-.029.32-.061.673-.09,1.035,0,0-2.152-.128-3.591-3.33C-3434.855,1861.129-3433.278,1863.446-3431.268,1863.284Z" transform="translate(3434.949 -1860.989)" fill="#a77860"/>
        </g>
      </g>
      <g id="Grupo_27404" data-name="Grupo 27404" transform="translate(306.178 170.15)">
        <g id="Grupo_27312" data-name="Grupo 27312" transform="translate(41.872 35.913)">
          <rect id="Rectángulo_5746" data-name="Rectángulo 5746" width="16.799" height="0.997" transform="translate(16.799 0.997) rotate(180)" fill="#e2d2ca"/>
        </g>
        <g id="Grupo_27313" data-name="Grupo 27313" transform="translate(54.948 39.506)">
          <rect id="Rectángulo_5747" data-name="Rectángulo 5747" width="1.472" height="45.352" fill="#706865"/>
        </g>
        <g id="Grupo_27314" data-name="Grupo 27314" transform="translate(32.825 35.631)">
          <rect id="Rectángulo_5748" data-name="Rectángulo 5748" width="11.677" height="1.424" transform="translate(11.677 1.424) rotate(180)" fill="#ccbdb7"/>
        </g>
        <g id="Grupo_27315" data-name="Grupo 27315" transform="translate(36.452 23.48)">
          <rect id="Rectángulo_5749" data-name="Rectángulo 5749" width="4.422" height="13.431" transform="translate(4.422 13.431) rotate(180)" fill="#ccbdb7"/>
        </g>
        <g id="Grupo_27316" data-name="Grupo 27316" transform="translate(0 36.927)">
          <rect id="Rectángulo_5750" data-name="Rectángulo 5750" width="64.698" height="2.579" transform="translate(64.698 2.579) rotate(180)" fill="#b59074"/>
        </g>
        <g id="Grupo_27317" data-name="Grupo 27317" transform="translate(69.967 16.988)">
          <path id="Trazado_26667" data-name="Trazado 26667" d="M-1217.521,2018.377s.708,9.923-1.231,11.111c-1.215.744-6.058,3.253-5.914,3.724s2.734,4.187,2.734,4.187,9.3-6.126,9.6-8.056c.293-1.886-.458-14.53-1.736-15.112-.958-.436-1.463-.076-2.67.82A2.825,2.825,0,0,0-1217.521,2018.377Z" transform="translate(1224.669 -2014.046)" fill="#323657"/>
        </g>
        <g id="Grupo_27320" data-name="Grupo 27320" transform="translate(59.341 21.507)">
          <g id="Grupo_27319" data-name="Grupo 27319">
            <g id="Grupo_27318" data-name="Grupo 27318">
              <path id="Trazado_26668" data-name="Trazado 26668" d="M-1295.935,2047.348l-.82-.3s1.022-2.4,1.469-2.342a11.06,11.06,0,0,1,1.156.237Z" transform="translate(1296.755 -2044.702)" fill="#ead8cf"/>
            </g>
          </g>
        </g>
        <g id="Grupo_27323" data-name="Grupo 27323" transform="translate(59.974 21.346)">
          <g id="Grupo_27322" data-name="Grupo 27322">
            <g id="Grupo_27321" data-name="Grupo 27321">
              <path id="Trazado_26669" data-name="Trazado 26669" d="M-1292.464,2046.835c.105-.078,1.743-3.22,1.743-3.22l3.5.475-1.891,3.722Z" transform="translate(1292.464 -2043.614)" fill="#da9b5b"/>
            </g>
          </g>
        </g>
        <g id="Grupo_27326" data-name="Grupo 27326" transform="translate(65.67 78.406)">
          <g id="Grupo_27325" data-name="Grupo 27325">
            <g id="Grupo_27324" data-name="Grupo 27324">
              <path id="Trazado_26670" data-name="Trazado 26670" d="M-1253.821,2430.989s.289,2.008.325,2.309,3.218-.177,3.218-.177l.258-2.39A18.848,18.848,0,0,0-1253.821,2430.989Z" transform="translate(1253.821 -2430.73)" fill="#424773"/>
            </g>
          </g>
        </g>
        <g id="Grupo_27329" data-name="Grupo 27329" transform="translate(60.44 80.583)">
          <g id="Grupo_27328" data-name="Grupo 27328">
            <g id="Grupo_27327" data-name="Grupo 27327">
              <path id="Trazado_26671" data-name="Trazado 26671" d="M-1283.781,2445.637a8.61,8.61,0,0,1-1.983,1.737c-.975.528-2.507.736-3.084,1.282-.416.394-1.516,2.09,2.534,2.056s6,.24,6.436-.41-.628-4.8-.628-4.8A8.589,8.589,0,0,1-1283.781,2445.637Z" transform="translate(1289.302 -2445.501)" fill="#292c47"/>
            </g>
          </g>
        </g>
        <g id="Grupo_27332" data-name="Grupo 27332" transform="translate(45.285 78.425)">
          <g id="Grupo_27331" data-name="Grupo 27331">
            <g id="Grupo_27330" data-name="Grupo 27330">
              <path id="Trazado_26672" data-name="Trazado 26672" d="M-1392.122,2431.118s.289,2.008.325,2.31,3.218-.177,3.218-.177l.258-2.391A18.889,18.889,0,0,0-1392.122,2431.118Z" transform="translate(1392.122 -2430.859)" fill="#424773"/>
            </g>
          </g>
        </g>
        <g id="Grupo_27335" data-name="Grupo 27335" transform="translate(38.184 80.602)">
          <g id="Grupo_27334" data-name="Grupo 27334">
            <g id="Grupo_27333" data-name="Grupo 27333">
              <path id="Trazado_26673" data-name="Trazado 26673" d="M-1432.9,2445.766a8.586,8.586,0,0,1-1.983,1.736c-.975.529-4.563.961-5.139,1.507-.416.394-1.108,1.98,4.589,1.832,4.048-.106,6,.24,6.436-.41s-.628-4.8-.628-4.8A7.782,7.782,0,0,1-1432.9,2445.766Z" transform="translate(1440.294 -2445.63)" fill="#292c47"/>
            </g>
          </g>
        </g>
        <g id="Grupo_27338" data-name="Grupo 27338" transform="translate(42.729 43.982)">
          <g id="Grupo_27337" data-name="Grupo 27337">
            <g id="Grupo_27336" data-name="Grupo 27336">
              <path id="Trazado_26674" data-name="Trazado 26674" d="M-1376.256,2197.182s-11.568,1.958-14.18,2.368-16.779,3.935-18.55,5.009c-1.41.855.739,21.39,1.242,29.225h5.58l.4-23.5c6.7.167,11.474-1.566,16.35-.826s8.941,1.793,12.039-2.363C-1373.372,2207.094-1373.257,2198.09-1376.256,2197.182Z" transform="translate(1409.459 -2197.182)" fill="#292c47"/>
            </g>
          </g>
        </g>
        <g id="Grupo_27341" data-name="Grupo 27341" transform="translate(62.803 46.484)">
          <g id="Grupo_27340" data-name="Grupo 27340">
            <g id="Grupo_27339" data-name="Grupo 27339">
              <path id="Trazado_26675" data-name="Trazado 26675" d="M-1271.545,2248.274l5.438-.336.53-23.184a33.057,33.057,0,0,0,6.2-.394l4.39-10.2c-3.847.769-16.175,3.878-17.819,4.875C-1274.214,2219.886-1272.047,2240.438-1271.545,2248.274Z" transform="translate(1273.273 -2214.155)" fill="#292c47"/>
            </g>
          </g>
        </g>
        <g id="Grupo_27344" data-name="Grupo 27344" transform="translate(63.871 0.419)">
          <g id="Grupo_27343" data-name="Grupo 27343">
            <g id="Grupo_27342" data-name="Grupo 27342">
              <path id="Trazado_26676" data-name="Trazado 26676" d="M-1259.29,1901.839s-4.24-1.172-5.858,2.12-.885,9.533,1.253,10.12,5.211-.089,6.1-2.138a15.718,15.718,0,0,0,1.382-6.845A4.132,4.132,0,0,0-1259.29,1901.839Z" transform="translate(1266.026 -1901.637)" fill="#eea886"/>
            </g>
          </g>
        </g>
        <g id="Grupo_27347" data-name="Grupo 27347" transform="translate(66.871 9.32)">
          <g id="Grupo_27346" data-name="Grupo 27346">
            <g id="Grupo_27345" data-name="Grupo 27345">
              <path id="Trazado_26677" data-name="Trazado 26677" d="M-1245.43,1964.9a12.962,12.962,0,0,1-.23,3.037c-.276.534,5.9.4,5.9.4a12.546,12.546,0,0,1-.421-5.568C-1239.63,1960.238-1245.43,1964.9-1245.43,1964.9Z" transform="translate(1245.669 -1962.019)" fill="#eea886"/>
            </g>
          </g>
        </g>
        <g id="Grupo_27350" data-name="Grupo 27350" transform="translate(63.739)">
          <g id="Grupo_27349" data-name="Grupo 27349">
            <g id="Grupo_27348" data-name="Grupo 27348">
              <path id="Trazado_26678" data-name="Trazado 26678" d="M-1257.963,1907.918s-.33.672-1.93.563-3.71-2.038-4.389-2.211-.72-.559-.72-.559l-.359.639-.7.106s.473-1.934-.557-2.616.464-6.167,5.681-4.844c0,0,3.981.729,4.035,2.952S-1257.189,1906.74-1257.963,1907.918Z" transform="translate(1266.92 -1898.792)" fill="#3a3f47"/>
            </g>
          </g>
        </g>
        <g id="Grupo_27353" data-name="Grupo 27353" transform="translate(66.555 13.532)">
          <g id="Grupo_27352" data-name="Grupo 27352">
            <g id="Grupo_27351" data-name="Grupo 27351">
              <path id="Trazado_26679" data-name="Trazado 26679" d="M-1247.813,1992.241s.017-1.02.48-1.117,4.858-.7,5.426-.479l.243,1.346S-1242.757,1992.663-1247.813,1992.241Z" transform="translate(1247.813 -1990.595)" fill="#e2d2ca"/>
            </g>
          </g>
        </g>
        <g id="Grupo_27356" data-name="Grupo 27356" transform="translate(65.228 5.332)">
          <g id="Grupo_27355" data-name="Grupo 27355">
            <g id="Grupo_27354" data-name="Grupo 27354">
              <path id="Trazado_26680" data-name="Trazado 26680" d="M-1256.762,1936.095c.119-.835,1.069-1.8,1.613-.494s-.368,3.2-.978,3.1S-1256.923,1937.229-1256.762,1936.095Z" transform="translate(1256.817 -1934.963)" fill="#eea886"/>
            </g>
          </g>
        </g>
        <g id="Grupo_27359" data-name="Grupo 27359" transform="translate(48.122 27.225)">
          <g id="Grupo_27358" data-name="Grupo 27358">
            <g id="Grupo_27357" data-name="Grupo 27357">
              <path id="Trazado_26681" data-name="Trazado 26681" d="M-1372.85,2083.5h.007C-1372.874,2083.51-1372.879,2083.512-1372.85,2083.5Z" transform="translate(1372.869 -2083.497)" fill="#323657"/>
            </g>
          </g>
        </g>
        <g id="Grupo_27362" data-name="Grupo 27362" transform="translate(71.844 1.218)">
          <g id="Grupo_27361" data-name="Grupo 27361">
            <g id="Grupo_27360" data-name="Grupo 27360">
              <path id="Trazado_26682" data-name="Trazado 26682" d="M-1211.932,1907.057s5.17-.243.9,7.828Z" transform="translate(1211.932 -1907.057)" fill="#3a3f47"/>
            </g>
          </g>
        </g>
        <g id="Grupo_27364" data-name="Grupo 27364" transform="translate(66.728 77.208)">
          <g id="Grupo_27363" data-name="Grupo 27363">
            <path id="Trazado_26683" data-name="Trazado 26683" d="M-1230,2428.748l-.385,1.082-16.251-5.035.779-2.191Z" transform="translate(1246.639 -2422.603)" fill="#918783"/>
          </g>
        </g>
        <g id="Grupo_27366" data-name="Grupo 27366" transform="translate(66.171 60.96)">
          <g id="Grupo_27365" data-name="Grupo 27365" transform="translate(0 0)">
            <rect id="Rectángulo_5751" data-name="Rectángulo 5751" width="1.847" height="17.668" transform="translate(1.847 17.668) rotate(180)" fill="#918783"/>
          </g>
        </g>
        <g id="Grupo_27368" data-name="Grupo 27368" transform="translate(61.647 60.021)">
          <g id="Grupo_27367" data-name="Grupo 27367" transform="translate(0 0)">
            <rect id="Rectángulo_5752" data-name="Rectángulo 5752" width="10.894" height="1.041" transform="translate(10.894 1.041) rotate(180)" fill="#5e5854"/>
          </g>
        </g>
        <g id="Grupo_27370" data-name="Grupo 27370" transform="translate(50.682 77.071)">
          <g id="Grupo_27369" data-name="Grupo 27369">
            <path id="Trazado_26684" data-name="Trazado 26684" d="M-1355.5,2427.951l.384,1.083,16.251-5.036-.714-2.328Z" transform="translate(1355.503 -2421.669)" fill="#918783"/>
          </g>
        </g>
        <g id="Grupo_27372" data-name="Grupo 27372" transform="translate(62.132 77.071)">
          <g id="Grupo_27371" data-name="Grupo 27371">
            <path id="Trazado_26685" data-name="Trazado 26685" d="M-1277.823,2428.917v1.259l5.186-6.178-.714-2.328Z" transform="translate(1277.823 -2421.669)" fill="#918783"/>
          </g>
        </g>
        <g id="Grupo_27374" data-name="Grupo 27374" transform="translate(49.163 83.339)">
          <g id="Grupo_27373" data-name="Grupo 27373">
            <circle id="Elipse_1420" data-name="Elipse 1420" cx="1.519" cy="1.519" r="1.519" fill="#bfb2ac"/>
          </g>
        </g>
        <g id="Grupo_27376" data-name="Grupo 27376" transform="translate(62.003 83.339)">
          <g id="Grupo_27375" data-name="Grupo 27375">
            <circle id="Elipse_1421" data-name="Elipse 1421" cx="1.519" cy="1.519" r="1.519" fill="#bfb2ac"/>
          </g>
        </g>
        <g id="Grupo_27378" data-name="Grupo 27378" transform="translate(81.845 83.339)">
          <g id="Grupo_27377" data-name="Grupo 27377">
            <circle id="Elipse_1422" data-name="Elipse 1422" cx="1.519" cy="1.519" r="1.519" fill="#bfb2ac"/>
          </g>
        </g>
        <g id="Grupo_27379" data-name="Grupo 27379" transform="translate(54.118 56.078)">
          <path id="Rectángulo_5753" data-name="Rectángulo 5753" d="M1.972,0H23.838a1.972,1.972,0,0,1,1.972,1.972v0a1.972,1.972,0,0,1-1.972,1.972H1.972A1.972,1.972,0,0,1,0,1.972v0A1.972,1.972,0,0,1,1.972,0Z" transform="translate(25.809 3.943) rotate(180)" fill="#e2d2ca"/>
        </g>
        <g id="Grupo_27380" data-name="Grupo 27380" transform="translate(8.278 39.506)">
          <rect id="Rectángulo_5754" data-name="Rectángulo 5754" width="1.472" height="45.352" transform="translate(1.472 45.352) rotate(180)" fill="#706865"/>
        </g>
        <g id="Grupo_27381" data-name="Grupo 27381" transform="translate(19.572 3.014)">
          <rect id="Rectángulo_5755" data-name="Rectángulo 5755" width="38.182" height="26.936" rx="13.176" transform="translate(38.182 26.936) rotate(180)" fill="#f2e2d9"/>
        </g>
        <g id="Grupo_27382" data-name="Grupo 27382" transform="translate(21.067 4.47)">
          <rect id="Rectángulo_5756" data-name="Rectángulo 5756" width="35.192" height="21.259" transform="translate(35.192 21.259) rotate(180)" fill="#f5f7ff"/>
        </g>
        <g id="Grupo_27383" data-name="Grupo 27383" transform="translate(37.417 26.183)">
          <circle id="Elipse_1423" data-name="Elipse 1423" cx="1.232" cy="1.232" r="1.232" transform="translate(0 0.029) rotate(-0.682)" fill="#918681"/>
        </g>
        <g id="Grupo_27384" data-name="Grupo 27384" transform="translate(30.759 33.501)">
          <path id="Trazado_26686" data-name="Trazado 26686" d="M-1490.671,2129.536v-.479s.674-2.981,5.44-2.981,4.67,3.461,4.67,3.461Z" transform="translate(1490.671 -2126.075)" fill="#e2d2ca"/>
        </g>
        <g id="Grupo_27386" data-name="Grupo 27386" transform="translate(32.369 32.097)">
          <g id="Grupo_27385" data-name="Grupo 27385">
            <path id="Trazado_26687" data-name="Trazado 26687" d="M-1471.19,2118.4a4.707,4.707,0,0,1-1.415-.309c-.379-.229-2.649-1.755-3.182-1.511s-4.081,1.331-3.958,1.85.451.469.7.377a18.249,18.249,0,0,1,3.054-.542s-2.53.923-2.541,1.6.53.838.77,1.092.528.888,1.18.936,3.834-1.058,4.49-1.109a16.076,16.076,0,0,0,1.95-.066A18.1,18.1,0,0,0-1471.19,2118.4Z" transform="translate(1479.748 -2116.551)" fill="#eea886"/>
          </g>
        </g>
        <g id="Grupo_27389" data-name="Grupo 27389" transform="translate(39.856 14.927)">
          <g id="Grupo_27388" data-name="Grupo 27388">
            <g id="Grupo_27387" data-name="Grupo 27387">
              <path id="Trazado_26688" data-name="Trazado 26688" d="M-1409.026,2001.726c3.3-.58,6.777-1.413,6.777-1.413l6.149-.251a59.866,59.866,0,0,1,7.866,2.246c.211.1.212,5.035.79,6.33l-1.843,3.888s-1.064,7.7-1.285,11.125c-.1,1.572.287,15.194.287,15.194a23.636,23.636,0,0,1-4.749.735c-4.2.462-14.682-.167-14.748-.663s2.031-18.456,2.123-19.386c.143-1.428-.412-8.024-.412-8.024-.791,1.062-2.807,5.859-4.907,8.14-1.236,1.343-7.356,2.166-8.509,2.2-2.511.083-7.092.583-7.226.339-.107-.146-.4-4.066-.112-4.161.251-.084,8.757-.573,10.937-1.73.8-.423,3.18-5.62,3.18-5.62S-1410.848,2002.545-1409.026,2001.726Z" transform="translate(1428.948 -2000.062)" fill="#323657"/>
            </g>
          </g>
        </g>
        <g id="Grupo_27390" data-name="Grupo 27390" transform="translate(68.158 28.665)">
          <path id="Rectángulo_5757" data-name="Rectángulo 5757" d="M8.9,0h0a8.9,8.9,0,0,1,8.9,8.9v6.853a8.9,8.9,0,0,1-8.9,8.9h0a8.9,8.9,0,0,1-8.9-8.9V8.9A8.9,8.9,0,0,1,8.9,0Z" transform="translate(17.799 24.651) rotate(180)" fill="#e2d2ca"/>
        </g>
        <g id="Grupo_27391" data-name="Grupo 27391" transform="translate(70.322 44.402)">
          <path id="Trazado_26689" data-name="Trazado 26689" d="M-1221.268,2214.671a8.155,8.155,0,0,0,6.326-2.619c3.558-3.928,2.919-10.834,2.89-11.126a.99.99,0,0,0-1.083-.888.99.99,0,0,0-.888,1.082c.008.079.575,6.338-2.391,9.606a6.175,6.175,0,0,1-4.854,1.964.99.99,0,0,0-.99.99A.99.99,0,0,0-1221.268,2214.671Z" transform="translate(1222.258 -2200.033)" fill="#e2d2ca"/>
        </g>
        <g id="Grupo_27394" data-name="Grupo 27394" transform="translate(43.455 6.163)">
          <g id="Grupo_27393" data-name="Grupo 27393" transform="translate(0 0)">
            <g id="Grupo_27392" data-name="Grupo 27392">
              <rect id="Rectángulo_5758" data-name="Rectángulo 5758" width="10.309" height="1.123" rx="0.562" transform="translate(10.309 1.123) rotate(180)" fill="#dfe1e8"/>
            </g>
          </g>
        </g>
        <g id="Grupo_27397" data-name="Grupo 27397" transform="translate(43.455 8.572)">
          <g id="Grupo_27396" data-name="Grupo 27396" transform="translate(0 0)">
            <g id="Grupo_27395" data-name="Grupo 27395">
              <path id="Rectángulo_5759" data-name="Rectángulo 5759" d="M.562,0H9.747a.562.562,0,0,1,.562.562v0a.561.561,0,0,1-.561.561H.562A.562.562,0,0,1,0,.562v0A.562.562,0,0,1,.562,0Z" transform="translate(10.309 1.123) rotate(180)" fill="#dfe1e8"/>
            </g>
          </g>
        </g>
        <g id="Grupo_27400" data-name="Grupo 27400" transform="translate(43.455 11.335)">
          <g id="Grupo_27399" data-name="Grupo 27399" transform="translate(0 0)">
            <g id="Grupo_27398" data-name="Grupo 27398">
              <path id="Rectángulo_5760" data-name="Rectángulo 5760" d="M5.153,0h0a5.154,5.154,0,0,1,5.154,5.154V7.546A5.154,5.154,0,0,1,5.154,12.7h0A5.154,5.154,0,0,1,0,7.546V5.153A5.153,5.153,0,0,1,5.153,0Z" transform="translate(10.309 12.7) rotate(180)" fill="#dfe1e8"/>
            </g>
          </g>
        </g>
        <g id="Grupo_27403" data-name="Grupo 27403" transform="translate(23.017 6.163)">
          <g id="Grupo_27402" data-name="Grupo 27402" transform="translate(0 0)">
            <g id="Grupo_27401" data-name="Grupo 27401">
              <path id="Rectángulo_5761" data-name="Rectángulo 5761" d="M8.936,0h.486a8.936,8.936,0,0,1,8.936,8.936v0a8.937,8.937,0,0,1-8.937,8.937H8.936A8.936,8.936,0,0,1,0,8.937v0A8.936,8.936,0,0,1,8.936,0Z" transform="translate(18.358 17.872) rotate(180)" fill="#dfe1e8"/>
            </g>
          </g>
        </g>
      </g>
      <g id="Grupo_27427" data-name="Grupo 27427" transform="translate(110.195 153.143)">
        <g id="Grupo_27405" data-name="Grupo 27405" transform="translate(0 12.203)">
          <path id="Trazado_26690" data-name="Trazado 26690" d="M-3009.574,1880.259l-9.679,5.32-9.72-15.3,11.757-4.083Z" transform="translate(3028.974 -1866.199)" fill="#292c47"/>
        </g>
        <g id="Grupo_27406" data-name="Grupo 27406" transform="translate(0.644 12.655)">
          <path id="Trazado_26691" data-name="Trazado 26691" d="M-3006.463,1882.413l-9.052,4.976-9.09-14.305,10.995-3.819Z" transform="translate(3024.606 -1869.264)" fill="#e2d2ca"/>
        </g>
        <g id="Grupo_27407" data-name="Grupo 27407" transform="translate(10.624 19.949)">
          <path id="Trazado_26692" data-name="Trazado 26692" d="M-2945.419,1921.93s-1.684-.806-2.425-1.227-2.641-1-2.795-1.137-5.639-.476-5.972-.762-.656.673.766.984,3.4,1.073,3.508,1.628-1.46.687-1.619,1.145.045.355.269.453,1.865-.81,2.587-.552,1.824-.1,2.377.09,3.242,1.094,3.242,1.094Z" transform="translate(2956.896 -1918.751)" fill="#eea886"/>
        </g>
        <g id="Grupo_27408" data-name="Grupo 27408" transform="translate(1.837 19.964)">
          <path id="Trazado_26693" data-name="Trazado 26693" d="M-3009.1,1928.556s-1.415-1.274-2.1-1.807-1.97-2.1-2.16-2.191-2.644-5.129-3.044-5.331.378-.88,1.225.339,2.335,2.786,2.9,2.672.079-1.644.449-1.971.352-.1.532.077-.038,2.074.486,2.653.617,1.758,1.011,2.206,2.293,2.629,2.293,2.629Z" transform="translate(3016.512 -1918.857)" fill="#eea886"/>
        </g>
        <g id="Grupo_27409" data-name="Grupo 27409" transform="translate(39.73 97.477)">
          <path id="Trazado_26694" data-name="Trazado 26694" d="M-2759.428,2445.009s.306,2.125.344,2.445,3.407-.188,3.407-.188l.272-2.53S-2759.008,2444.709-2759.428,2445.009Z" transform="translate(2759.428 -2444.735)" fill="#424773"/>
        </g>
        <g id="Grupo_27410" data-name="Grupo 27410" transform="translate(34.195 99.782)">
          <path id="Trazado_26695" data-name="Trazado 26695" d="M-2791.139,2460.513a9.1,9.1,0,0,1-2.1,1.839c-1.032.558-2.654.779-3.264,1.357-.44.417-1.6,2.212,2.681,2.176s6.353.254,6.812-.435-.665-5.081-.665-5.081A9.077,9.077,0,0,1-2791.139,2460.513Z" transform="translate(2796.983 -2460.369)" fill="#292c47"/>
        </g>
        <g id="Grupo_27411" data-name="Grupo 27411" transform="translate(15.601 97.477)">
          <path id="Trazado_26696" data-name="Trazado 26696" d="M-2923.13,2445.009s.306,2.125.344,2.445,3.406-.188,3.406-.188l.273-2.53S-2922.709,2444.709-2923.13,2445.009Z" transform="translate(2923.13 -2444.735)" fill="#424773"/>
        </g>
        <g id="Grupo_27412" data-name="Grupo 27412" transform="translate(8.086 99.782)">
          <path id="Trazado_26697" data-name="Trazado 26697" d="M-2966.292,2460.513a9.09,9.09,0,0,1-2.1,1.839c-1.032.558-4.829,1.017-5.44,1.594-.44.417-1.173,2.1,4.858,1.939,4.285-.112,6.353.254,6.812-.435s-.664-5.081-.664-5.081A8.233,8.233,0,0,1-2966.292,2460.513Z" transform="translate(2974.116 -2460.369)" fill="#292c47"/>
        </g>
        <g id="Grupo_27413" data-name="Grupo 27413" transform="translate(29.215 43.146)">
          <path id="Trazado_26698" data-name="Trazado 26698" d="M-2823.041,2076.127s3.164,5.028,2.928,9.573,1.148,9.506,1.623,14.253c.53,5.292,2.7,17.821,2.777,20.652s-.337,11.87-.337,11.87l-4.341.1s-3.646-21.9-4.59-24.138-5.627-18.168-5.785-19.957S-2823.041,2076.127-2823.041,2076.127Z" transform="translate(2830.767 -2076.127)" fill="#292c47"/>
        </g>
        <g id="Grupo_27414" data-name="Grupo 27414" transform="translate(15.014 42.28)">
          <path id="Trazado_26699" data-name="Trazado 26699" d="M-2921.841,2071.8s-2.385,12.455-2.7,15.237-.525,13.46-.682,15.2-1.049,22.748-1.888,25.33h5.55s4.26-15.273,4.26-22.5,3.292-15.71,5.416-20.478,6.988-4.881,8.294-13.727C-2903.591,2070.86-2920.073,2068.992-2921.841,2071.8Z" transform="translate(2927.11 -2070.251)" fill="#292c47"/>
        </g>
        <g id="Grupo_27415" data-name="Grupo 27415" transform="translate(24.097 0.489)">
          <path id="Trazado_26700" data-name="Trazado 26700" d="M-2857.926,1787.119s-4.247-1.586-6.206,1.646-1.77,9.706.371,10.5,5.356.38,6.453-1.643a16.2,16.2,0,0,0,2.038-6.9A4.258,4.258,0,0,0-2857.926,1787.119Z" transform="translate(2865.49 -1786.73)" fill="#eea886"/>
        </g>
        <g id="Grupo_27416" data-name="Grupo 27416" transform="translate(26.162 9.143)">
          <path id="Trazado_26701" data-name="Trazado 26701" d="M-2851.355,1849.474a3.67,3.67,0,0,1-.116,1.712c-.292.565,5.5.58,5.5.58a38.208,38.208,0,0,1,1.362-5.669C-2843.714,1843.5-2851.355,1849.474-2851.355,1849.474Z" transform="translate(2851.482 -1845.443)" fill="#eea886"/>
        </g>
        <g id="Grupo_27417" data-name="Grupo 27417" transform="translate(24.279)">
          <path id="Trazado_26702" data-name="Trazado 26702" d="M-2855.5,1793.207s-.4.66-2.033.4-3.624-2.428-4.305-2.667-.688-.639-.688-.639l-.427.623-.724.046s.66-1.943-.336-2.735,1.034-6.289,6.27-4.459c0,0,4.021,1.108,3.875,3.4S-2854.6,1792.068-2855.5,1793.207Z" transform="translate(2864.253 -1783.41)" fill="#3a3f47"/>
        </g>
        <g id="Grupo_27418" data-name="Grupo 27418" transform="translate(25.829 13.231)">
          <path id="Trazado_26703" data-name="Trazado 26703" d="M-2853.742,1874.759s.019-1.079.508-1.183,5.4-.575,6-.339v1.257S-2848.391,1875.206-2853.742,1874.759Z" transform="translate(2853.742 -1873.172)" fill="#e2d2ca"/>
        </g>
        <g id="Grupo_27419" data-name="Grupo 27419" transform="translate(25.991 5.23)">
          <path id="Trazado_26704" data-name="Trazado 26704" d="M-2852.514,1819.728c.091-.383,1.067-1.48,1.44-.306s-.565,2.752-1.088,2.617S-2852.747,1820.7-2852.514,1819.728Z" transform="translate(2852.643 -1818.895)" fill="#eea886"/>
        </g>
        <g id="Grupo_27420" data-name="Grupo 27420" transform="translate(6.319 27.569)">
          <path id="Trazado_26705" data-name="Trazado 26705" d="M-2986.082,1970.452h.008C-2986.108,1970.466-2986.113,1970.468-2986.082,1970.452Z" transform="translate(2986.103 -1970.451)" fill="#323657"/>
        </g>
        <g id="Grupo_27421" data-name="Grupo 27421" transform="translate(6.348 14.553)">
          <path id="Trazado_26706" data-name="Trazado 26706" d="M-2951.745,1922.712a44.937,44.937,0,0,1-7.047,1.257c-4.442.49-15.539-.177-15.609-.7s2.387-19.539,2.247-20.519-.215-4.468-.215-4.468a24.552,24.552,0,0,1-2.2,6.99c-.425.769-1.85,3.18-2.536,2.632-3.325-2.655-8.473-12.657-8.8-12.742.274-.119,2.44-1.116,2.744-1.217.266-.089,2.664,2.451,4.118,4.025.648.7,1.108,1.211,1.108,1.211.42-.944,1.948-6.892,2.423-8.951,1.072-4.643.907-4.836.907-4.836,3.249-.983,8.182-2.983,8.182-2.983l6.508-.265a63.346,63.346,0,0,1,8.326,2.377c.222.1.224,5.329.836,6.7l-1.95,4.115s-1.127,8.15-1.361,11.775C-2954.176,1908.773-2951.745,1922.712-2951.745,1922.712Z" transform="translate(2985.909 -1882.143)" fill="#ffdf69"/>
        </g>
        <g id="Grupo_27422" data-name="Grupo 27422" transform="translate(34.524 16.93)">
          <path id="Trazado_26707" data-name="Trazado 26707" d="M-2787.508,1911.758a2.569,2.569,0,0,1-1.442,1.215,1.87,1.87,0,0,1-1.042.1l-.255-.047h0l-4.46-.828s-.976-11.238,6.093-13.931C-2788.428,1898.332-2785.947,1906.726-2787.508,1911.758Z" transform="translate(2794.753 -1898.271)" fill="#ffdf69"/>
        </g>
        <g id="Grupo_27423" data-name="Grupo 27423" transform="translate(39.029 25.946)">
          <path id="Trazado_26708" data-name="Trazado 26708" d="M-2762.888,1965.121h0a1.861,1.861,0,0,1-1.042.1l-.254-.047h0l.44-5.743Z" transform="translate(2764.185 -1959.436)" fill="#ab9546"/>
        </g>
        <g id="Grupo_27424" data-name="Grupo 27424" transform="translate(13.208 30.377)">
          <path id="Trazado_26709" data-name="Trazado 26709" d="M-2938.254,1990.71l-.545,2.308a18.266,18.266,0,0,1-.563-3.52C-2938.714,1990.2-2938.254,1990.71-2938.254,1990.71Z" transform="translate(2939.363 -1989.498)" fill="#ab9546"/>
        </g>
        <g id="Grupo_27425" data-name="Grupo 27425" transform="translate(32.871 1.248)">
          <path id="Trazado_26710" data-name="Trazado 26710" d="M-2805.964,1791.89s5.566-.7.095,8.6Z" transform="translate(2805.964 -1791.878)" fill="#3a3f47"/>
        </g>
        <g id="Grupo_27426" data-name="Grupo 27426" transform="translate(3.909 12.956)">
          <path id="Trazado_26711" data-name="Trazado 26711" d="M-3001.888,1873.819l-.566-.972,4.456-1.538.566.967Z" transform="translate(3002.454 -1871.309)" fill="#292c47"/>
        </g>
      </g>
    </g>
  </g>
</svg>
