<svg xmlns="http://www.w3.org/2000/svg" width="1030" height="588" viewBox="0 0 1030 588">
  <g id="Grupo_128100" data-name="Grupo 128100" transform="translate(-285 -7117)">
    <path id="Trazado_172624" data-name="Trazado 172624" d="M32.477,15.99V21h-2.93V6.781h5.547a6.417,6.417,0,0,1,2.817.586,4.318,4.318,0,0,1,1.87,1.665,4.643,4.643,0,0,1,.654,2.456A4.083,4.083,0,0,1,39,14.784a5.959,5.959,0,0,1-3.96,1.206Zm0-2.373h2.617a2.573,2.573,0,0,0,1.772-.547,1.989,1.989,0,0,0,.61-1.562,2.345,2.345,0,0,0-.615-1.689,2.3,2.3,0,0,0-1.7-.664H32.477ZM45.24,21H42.408V10.434H45.24Zm-3-13.3a1.39,1.39,0,0,1,.425-1.045,1.831,1.831,0,0,1,2.31,0,1.382,1.382,0,0,1,.43,1.045,1.386,1.386,0,0,1-.435,1.055,1.81,1.81,0,0,1-2.295,0A1.386,1.386,0,0,1,42.242,7.7Zm8.3,13.3H47.711V6h2.832Zm8.447,0a3.134,3.134,0,0,1-.283-.947A3.415,3.415,0,0,1,56.041,21.2a3.752,3.752,0,0,1-2.573-.9,2.89,2.89,0,0,1-1.021-2.266,2.986,2.986,0,0,1,1.245-2.578,6.144,6.144,0,0,1,3.6-.908h1.3v-.605a1.741,1.741,0,0,0-.376-1.172,1.479,1.479,0,0,0-1.187-.439,1.682,1.682,0,0,0-1.118.342,1.161,1.161,0,0,0-.405.938H52.682a2.835,2.835,0,0,1,.566-1.7,3.744,3.744,0,0,1,1.6-1.226,5.837,5.837,0,0,1,2.324-.444,4.611,4.611,0,0,1,3.1.981,3.433,3.433,0,0,1,1.147,2.759v4.58a5.052,5.052,0,0,0,.42,2.275V21Zm-2.334-1.963a2.431,2.431,0,0,0,1.152-.278,1.828,1.828,0,0,0,.781-.747V16.2H57.535q-2.119,0-2.256,1.465l-.01.166a1.13,1.13,0,0,0,.371.869A1.441,1.441,0,0,0,56.656,19.037Zm11.475-3.4A6.368,6.368,0,0,1,69.239,11.7a3.6,3.6,0,0,1,3.032-1.465,3.236,3.236,0,0,1,2.549,1.152V6h2.832V21H75.1l-.137-1.123A3.321,3.321,0,0,1,72.252,21.2a3.587,3.587,0,0,1-2.993-1.47A6.573,6.573,0,0,1,68.131,15.639Zm2.822.21a4.171,4.171,0,0,0,.518,2.279,1.686,1.686,0,0,0,1.5.792,1.888,1.888,0,0,0,1.846-1.105V13.638a1.861,1.861,0,0,0-1.826-1.105Q70.953,12.533,70.953,15.849ZM84.7,21.2a5.187,5.187,0,0,1-3.784-1.426,5.068,5.068,0,0,1-1.46-3.8V15.7a6.383,6.383,0,0,1,.615-2.847,4.515,4.515,0,0,1,1.743-1.934,4.893,4.893,0,0,1,2.573-.679A4.385,4.385,0,0,1,87.8,11.605a5.555,5.555,0,0,1,1.245,3.877v1.152H82.32a2.622,2.622,0,0,0,.825,1.66,2.5,2.5,0,0,0,1.743.625,3.046,3.046,0,0,0,2.549-1.182l1.387,1.553a4.237,4.237,0,0,1-1.719,1.4A5.639,5.639,0,0,1,84.7,21.2Zm-.322-8.682a1.764,1.764,0,0,0-1.362.569,2.946,2.946,0,0,0-.669,1.628h3.926v-.226a2.1,2.1,0,0,0-.508-1.457A1.819,1.819,0,0,0,84.381,12.514Zm20.762,3.3a6.337,6.337,0,0,1-1.108,3.911,3.554,3.554,0,0,1-2.993,1.47,3.292,3.292,0,0,1-2.588-1.113v4.98H95.631V10.434h2.617l.1,1.035a3.317,3.317,0,0,1,2.676-1.23,3.578,3.578,0,0,1,3.037,1.445,6.509,6.509,0,0,1,1.084,3.984Zm-2.822-.205a4.159,4.159,0,0,0-.522-2.275,1.7,1.7,0,0,0-1.519-.8,1.848,1.848,0,0,0-1.826,1.016v4.326A1.879,1.879,0,0,0,100.3,18.92Q102.32,18.92,102.32,15.609Zm10.508-2.529A7.667,7.667,0,0,0,111.813,13a2.067,2.067,0,0,0-2.1,1.084V21h-2.822V10.434h2.666l.078,1.26a2.615,2.615,0,0,1,2.354-1.455,2.957,2.957,0,0,1,.879.127Zm.566,2.539a6.266,6.266,0,0,1,.605-2.8,4.432,4.432,0,0,1,1.743-1.9,5.086,5.086,0,0,1,2.642-.674,4.812,4.812,0,0,1,3.491,1.309,5.252,5.252,0,0,1,1.509,3.555l.02.723a5.523,5.523,0,0,1-1.357,3.9,5.261,5.261,0,0,1-7.29,0,5.62,5.62,0,0,1-1.362-3.984Zm2.822.2a3.95,3.95,0,0,0,.566,2.3,2.035,2.035,0,0,0,3.223.01,4.322,4.322,0,0,0,.576-2.518,3.91,3.91,0,0,0-.576-2.289,1.873,1.873,0,0,0-1.621-.812,1.842,1.842,0,0,0-1.6.807A4.395,4.395,0,0,0,116.217,15.819Zm8.486-.181a6.368,6.368,0,0,1,1.108-3.936,3.6,3.6,0,0,1,3.032-1.465,3.236,3.236,0,0,1,2.549,1.152V6h2.832V21h-2.549l-.137-1.123a3.321,3.321,0,0,1-2.715,1.318,3.587,3.587,0,0,1-2.993-1.47A6.573,6.573,0,0,1,124.7,15.639Zm2.822.21a4.171,4.171,0,0,0,.518,2.279,1.686,1.686,0,0,0,1.5.792,1.888,1.888,0,0,0,1.846-1.105V13.638a1.861,1.861,0,0,0-1.826-1.105Q127.525,12.533,127.525,15.849Zm15.215,4.077a3.539,3.539,0,0,1-2.891,1.27,3.338,3.338,0,0,1-2.593-.977,4.169,4.169,0,0,1-.913-2.861V10.434h2.822v6.834q0,1.652,1.5,1.652a2.038,2.038,0,0,0,1.973-1V10.434h2.832V21h-2.656ZM152,18.92a1.851,1.851,0,0,0,1.27-.43,1.506,1.506,0,0,0,.508-1.143h2.646a3.62,3.62,0,0,1-.586,1.968,3.866,3.866,0,0,1-1.577,1.387,4.936,4.936,0,0,1-2.212.493,4.587,4.587,0,0,1-3.574-1.44,5.7,5.7,0,0,1-1.309-3.979V15.59a5.635,5.635,0,0,1,1.3-3.9,4.534,4.534,0,0,1,3.564-1.455,4.444,4.444,0,0,1,3.179,1.128,3.994,3.994,0,0,1,1.216,3h-2.646a1.939,1.939,0,0,0-.508-1.34,1.887,1.887,0,0,0-2.778.2,4.166,4.166,0,0,0-.5,2.333v.293a4.219,4.219,0,0,0,.5,2.347A1.721,1.721,0,0,0,152,18.92Zm9.414-11.084v2.6h1.807V12.5h-1.807v5.273a1.259,1.259,0,0,0,.225.84,1.128,1.128,0,0,0,.859.254,4.5,4.5,0,0,0,.83-.068v2.139a5.81,5.81,0,0,1-1.709.254q-2.969,0-3.027-3V12.5h-1.543v-2.07h1.543v-2.6Zm2.646,7.783a6.267,6.267,0,0,1,.605-2.8,4.432,4.432,0,0,1,1.743-1.9,5.086,5.086,0,0,1,2.642-.674,4.812,4.812,0,0,1,3.491,1.309,5.252,5.252,0,0,1,1.509,3.555l.02.723a5.523,5.523,0,0,1-1.357,3.9,5.261,5.261,0,0,1-7.29,0,5.62,5.62,0,0,1-1.362-3.984Zm2.822.2a3.95,3.95,0,0,0,.566,2.3,2.035,2.035,0,0,0,3.223.01,4.322,4.322,0,0,0,.576-2.518,3.91,3.91,0,0,0-.576-2.289,1.873,1.873,0,0,0-1.621-.812,1.842,1.842,0,0,0-1.6.807A4.395,4.395,0,0,0,166.881,15.819Z" transform="translate(285 7111)" fill="#12263f"/>
    <path id="Trazado_172625" data-name="Trazado 172625" d="M46.515,15.99V21h-2.93V6.781h5.547a6.417,6.417,0,0,1,2.817.586,4.318,4.318,0,0,1,1.87,1.665,4.643,4.643,0,0,1,.654,2.456,4.083,4.083,0,0,1-1.431,3.3,5.959,5.959,0,0,1-3.96,1.206Zm0-2.373h2.617A2.573,2.573,0,0,0,50.9,13.07a1.989,1.989,0,0,0,.61-1.562A2.345,2.345,0,0,0,50.9,9.818a2.3,2.3,0,0,0-1.7-.664H46.515ZM59.278,21H56.446V10.434h2.832Zm-3-13.3a1.39,1.39,0,0,1,.425-1.045,1.831,1.831,0,0,1,2.31,0,1.382,1.382,0,0,1,.43,1.045,1.386,1.386,0,0,1-.435,1.055,1.81,1.81,0,0,1-2.295,0A1.386,1.386,0,0,1,56.28,7.7Zm8.3,13.3H61.749V6h2.832Zm8.447,0a3.134,3.134,0,0,1-.283-.947A3.415,3.415,0,0,1,70.079,21.2a3.752,3.752,0,0,1-2.573-.9,2.89,2.89,0,0,1-1.021-2.266,2.986,2.986,0,0,1,1.245-2.578,6.144,6.144,0,0,1,3.6-.908h1.3v-.605a1.741,1.741,0,0,0-.376-1.172,1.479,1.479,0,0,0-1.187-.439,1.682,1.682,0,0,0-1.118.342,1.161,1.161,0,0,0-.405.938H66.72a2.835,2.835,0,0,1,.566-1.7,3.744,3.744,0,0,1,1.6-1.226,5.837,5.837,0,0,1,2.324-.444,4.611,4.611,0,0,1,3.1.981,3.433,3.433,0,0,1,1.147,2.759v4.58a5.052,5.052,0,0,0,.42,2.275V21Zm-2.334-1.963a2.431,2.431,0,0,0,1.152-.278,1.828,1.828,0,0,0,.781-.747V16.2H71.573q-2.119,0-2.256,1.465l-.01.166a1.13,1.13,0,0,0,.371.869A1.441,1.441,0,0,0,70.694,19.037Zm11.475-3.4A6.368,6.368,0,0,1,83.277,11.7a3.6,3.6,0,0,1,3.032-1.465,3.236,3.236,0,0,1,2.549,1.152V6H91.69V21H89.142L89,19.877A3.321,3.321,0,0,1,86.29,21.2a3.587,3.587,0,0,1-2.993-1.47A6.573,6.573,0,0,1,82.169,15.639Zm2.822.21a4.171,4.171,0,0,0,.518,2.279,1.686,1.686,0,0,0,1.5.792,1.888,1.888,0,0,0,1.846-1.105V13.638a1.861,1.861,0,0,0-1.826-1.105Q84.991,12.533,84.991,15.849ZM98.741,21.2a5.187,5.187,0,0,1-3.784-1.426,5.068,5.068,0,0,1-1.46-3.8V15.7a6.383,6.383,0,0,1,.615-2.847,4.515,4.515,0,0,1,1.743-1.934,4.893,4.893,0,0,1,2.573-.679,4.385,4.385,0,0,1,3.413,1.367,5.555,5.555,0,0,1,1.245,3.877v1.152H96.358a2.622,2.622,0,0,0,.825,1.66,2.5,2.5,0,0,0,1.743.625,3.046,3.046,0,0,0,2.549-1.182l1.387,1.553a4.237,4.237,0,0,1-1.719,1.4A5.639,5.639,0,0,1,98.741,21.2Zm-.322-8.682a1.764,1.764,0,0,0-1.362.569,2.946,2.946,0,0,0-.669,1.628h3.926v-.226a2.1,2.1,0,0,0-.508-1.457A1.819,1.819,0,0,0,98.419,12.514Zm16.973,5.566a.909.909,0,0,0-.513-.815,5.824,5.824,0,0,0-1.646-.532q-3.77-.791-3.77-3.2a2.9,2.9,0,0,1,1.167-2.349,4.708,4.708,0,0,1,3.052-.942,5.067,5.067,0,0,1,3.218.947,2.985,2.985,0,0,1,1.206,2.461h-2.822a1.366,1.366,0,0,0-.391-1,1.653,1.653,0,0,0-1.221-.4,1.689,1.689,0,0,0-1.1.322,1.017,1.017,0,0,0-.391.82.87.87,0,0,0,.444.757,4.571,4.571,0,0,0,1.5.5,12.244,12.244,0,0,1,1.777.474,2.92,2.92,0,0,1,2.236,2.842A2.756,2.756,0,0,1,116.9,20.3a5.35,5.35,0,0,1-3.2.894,5.588,5.588,0,0,1-2.358-.474,3.957,3.957,0,0,1-1.616-1.3,3.018,3.018,0,0,1-.586-1.782h2.676a1.473,1.473,0,0,0,.557,1.152,2.208,2.208,0,0,0,1.387.4,2.044,2.044,0,0,0,1.226-.308A.957.957,0,0,0,115.392,18.08Zm14.072-2.266a6.337,6.337,0,0,1-1.108,3.911,3.554,3.554,0,0,1-2.993,1.47,3.292,3.292,0,0,1-2.588-1.113v4.98h-2.822V10.434h2.617l.1,1.035a3.317,3.317,0,0,1,2.676-1.23,3.578,3.578,0,0,1,3.037,1.445,6.509,6.509,0,0,1,1.084,3.984Zm-2.822-.205a4.159,4.159,0,0,0-.522-2.275,1.7,1.7,0,0,0-1.519-.8,1.848,1.848,0,0,0-1.826,1.016v4.326a1.879,1.879,0,0,0,1.846,1.045Q126.642,18.92,126.642,15.609Zm10.508-2.529A7.667,7.667,0,0,0,136.134,13a2.067,2.067,0,0,0-2.1,1.084V21h-2.822V10.434h2.666l.078,1.26a2.615,2.615,0,0,1,2.354-1.455,2.957,2.957,0,0,1,.879.127ZM141.485,21h-2.832V10.434h2.832Zm-3-13.3a1.39,1.39,0,0,1,.425-1.045,1.831,1.831,0,0,1,2.31,0,1.382,1.382,0,0,1,.43,1.045,1.386,1.386,0,0,1-.435,1.055,1.81,1.81,0,0,1-2.295,0A1.386,1.386,0,0,1,138.487,7.7Zm7.92,2.734.088,1.221a3.689,3.689,0,0,1,3.037-1.416,3.066,3.066,0,0,1,2.5.986,4.6,4.6,0,0,1,.84,2.949V21H150.05V14.242a1.831,1.831,0,0,0-.391-1.3,1.749,1.749,0,0,0-1.3-.405,1.942,1.942,0,0,0-1.787,1.016V21h-2.822V10.434Zm11.982-2.6v2.6H160.2V12.5H158.39v5.273a1.259,1.259,0,0,0,.225.84,1.128,1.128,0,0,0,.859.254,4.5,4.5,0,0,0,.83-.068v2.139a5.81,5.81,0,0,1-1.709.254q-2.969,0-3.027-3V12.5h-1.543v-2.07h1.543v-2.6Z" transform="translate(1037 7278)" fill="#12263f"/>
    <path id="Trazado_172626" data-name="Trazado 172626" d="M5,0H198a5,5,0,0,1,5,5V55a5,5,0,0,1-5,5H5a5,5,0,0,1-5-5V5A5,5,0,0,1,5,0Z" transform="translate(285 7153)" fill="#ffca28"/>
    <path id="Trazado_172627" data-name="Trazado 172627" d="M5,0H198a5,5,0,0,1,5,5V54a5,5,0,0,1-5,5H5a5,5,0,0,1-5-5V5A5,5,0,0,1,5,0Z" transform="translate(285 7231)" fill="#ffca28"/>
    <path id="Trazado_172628" data-name="Trazado 172628" d="M5,0H198a5,5,0,0,1,5,5V55a5,5,0,0,1-5,5H5a5,5,0,0,1-5-5V5A5,5,0,0,1,5,0Z" transform="translate(285 7308)" fill="#ffca28"/>
    <path id="Trazado_172629" data-name="Trazado 172629" d="M5,0H198a5,5,0,0,1,5,5V55a5,5,0,0,1-5,5H5a5,5,0,0,1-5-5V5A5,5,0,0,1,5,0Z" transform="translate(285 7386)" fill="#ffca28"/>
    <path id="Trazado_172630" data-name="Trazado 172630" d="M5,0H198a5,5,0,0,1,5,5V55a5,5,0,0,1-5,5H5a5,5,0,0,1-5-5V5A5,5,0,0,1,5,0Z" transform="translate(285 7464)" fill="#ffca28"/>
    <path id="Trazado_172631" data-name="Trazado 172631" d="M5,0H198a5,5,0,0,1,5,5V54a5,5,0,0,1-5,5H5a5,5,0,0,1-5-5V5A5,5,0,0,1,5,0Z" transform="translate(285 7542)" fill="#ffca28"/>
    <path id="Trazado_172632" data-name="Trazado 172632" d="M5,0H198a5,5,0,0,1,5,5V54a5,5,0,0,1-5,5H5a5,5,0,0,1-5-5V5A5,5,0,0,1,5,0Z" transform="translate(285 7646)" fill="#ffca28"/>
    <path id="Trazado_172633" data-name="Trazado 172633" d="M5,0H57V60H5a5,5,0,0,1-5-5V5A5,5,0,0,1,5,0Z" transform="translate(285 7153)" fill="#ffa726"/>
    <path id="Trazado_172634" data-name="Trazado 172634" d="M5,0H57V59H5a5,5,0,0,1-5-5V5A5,5,0,0,1,5,0Z" transform="translate(285 7231)" fill="#ffa726"/>
    <path id="Trazado_172635" data-name="Trazado 172635" d="M5,0H57V60H5a5,5,0,0,1-5-5V5A5,5,0,0,1,5,0Z" transform="translate(285 7308)" fill="#ffa726"/>
    <path id="Trazado_172636" data-name="Trazado 172636" d="M5,0H57V60H5a5,5,0,0,1-5-5V5A5,5,0,0,1,5,0Z" transform="translate(285 7386)" fill="#ffa726"/>
    <path id="Trazado_172637" data-name="Trazado 172637" d="M5,0H57V60H5a5,5,0,0,1-5-5V5A5,5,0,0,1,5,0Z" transform="translate(285 7464)" fill="#ffa726"/>
    <path id="Trazado_172638" data-name="Trazado 172638" d="M5,0H57V59H5a5,5,0,0,1-5-5V5A5,5,0,0,1,5,0Z" transform="translate(285 7542)" fill="#ffa726"/>
    <path id="Trazado_172639" data-name="Trazado 172639" d="M5,0H57V59H5a5,5,0,0,1-5-5V5A5,5,0,0,1,5,0Z" transform="translate(285 7646)" fill="#ffa726"/>
    <path id="Trazado_172640" data-name="Trazado 172640" d="M22.642,21H19.233V15.063H14.185V21H10.757V6.781h3.428v5.645h5.049V6.781h3.408ZM31.9,21H28.6V10.492l-3.242.947v-2.5L31.6,6.781h.3Z" transform="translate(352 7168)" fill="#12263f"/>
    <path id="Trazado_172641" data-name="Trazado 172641" d="M22.642,21H19.233V15.063H14.185V21H10.757V6.781h3.428v5.645h5.049V6.781h3.408Zm11.885,0H24.6V18.852l4.57-4.8q1.689-1.924,1.689-3.057a2.126,2.126,0,0,0-.4-1.4A1.43,1.43,0,0,0,29.3,9.115a1.447,1.447,0,0,0-1.221.64,2.629,2.629,0,0,0-.469,1.6h-3.3a4.67,4.67,0,0,1,.654-2.417A4.588,4.588,0,0,1,26.782,7.2a5.4,5.4,0,0,1,2.6-.625,5.308,5.308,0,0,1,3.55,1.064A3.8,3.8,0,0,1,34.175,10.7a4.439,4.439,0,0,1-.312,1.636A7.173,7.173,0,0,1,32.891,14a24.476,24.476,0,0,1-2.124,2.339l-1.836,2.119h5.6Z" transform="translate(352 7246)" fill="#12263f"/>
    <path id="Trazado_172642" data-name="Trazado 172642" d="M22.642,21H19.233V15.063H14.185V21H10.757V6.781h3.428v5.645h5.049V6.781h3.408Zm4.971-8.486h1.553a1.614,1.614,0,0,0,1.846-1.807,1.562,1.562,0,0,0-.439-1.147,1.666,1.666,0,0,0-1.24-.444,1.784,1.784,0,0,0-1.138.381,1.162,1.162,0,0,0-.483.947H24.419a3.369,3.369,0,0,1,.625-2,4.127,4.127,0,0,1,1.733-1.372,5.926,5.926,0,0,1,2.437-.493,5.823,5.823,0,0,1,3.73,1.084A3.6,3.6,0,0,1,34.3,10.639a3,3,0,0,1-.562,1.733A4,4,0,0,1,32.1,13.7a3.823,3.823,0,0,1,1.777,1.245,3.279,3.279,0,0,1,.645,2.065,3.669,3.669,0,0,1-1.465,3.047A6.08,6.08,0,0,1,29.214,21.2a6.306,6.306,0,0,1-2.593-.532,4.062,4.062,0,0,1-1.812-1.475,3.834,3.834,0,0,1-.615-2.144H27.5a1.482,1.482,0,0,0,.527,1.133,1.862,1.862,0,0,0,1.3.479,1.95,1.95,0,0,0,1.387-.483,1.616,1.616,0,0,0,.518-1.235,1.889,1.889,0,0,0-.537-1.523,2.245,2.245,0,0,0-1.484-.449h-1.6Z" transform="translate(352 7324)" fill="#12263f"/>
    <path id="Trazado_172643" data-name="Trazado 172643" d="M22.642,21H19.233V15.063H14.185V21H10.757V6.781h3.428v5.645h5.049V6.781h3.408ZM33.3,15.443h1.445v2.539H33.3V21H30V17.982h-5.5l-.2-2.012L30,6.811V6.781H33.3Zm-5.85,0H30V11.068L29.8,11.4Z" transform="translate(352 7402)" fill="#12263f"/>
    <path id="Trazado_172644" data-name="Trazado 172644" d="M22.642,21H19.233V15.063H14.185V21H10.757V6.781h3.428v5.645h5.049V6.781h3.408ZM24.8,14.055l.869-7.273h8.311V9.34H28.345l-.322,2.825a3.882,3.882,0,0,1,.923-.363,4.643,4.643,0,0,1,4.375,1.1,5.055,5.055,0,0,1,1.138,3.521,5.046,5.046,0,0,1-.61,2.476,4.2,4.2,0,0,1-1.714,1.7,5.411,5.411,0,0,1-2.607.6,5.822,5.822,0,0,1-2.51-.551,4.5,4.5,0,0,1-1.836-1.512,3.675,3.675,0,0,1-.654-2.171h3.3a1.867,1.867,0,0,0,.5,1.238,1.581,1.581,0,0,0,1.182.458q1.66,0,1.66-2.456,0-2.271-2.031-2.271a2.027,2.027,0,0,0-1.719.741Z" transform="translate(352 7479)" fill="#12263f"/>
    <path id="Trazado_172645" data-name="Trazado 172645" d="M22.642,21H19.233V15.063H14.185V21H10.757V6.781h3.428v5.645h5.049V6.781h3.408ZM32.554,6.576V9.164h-.146a4.941,4.941,0,0,0-3.032.884,3.732,3.732,0,0,0-1.46,2.456,3.848,3.848,0,0,1,2.813-1.094,3.59,3.59,0,0,1,2.939,1.348,5.436,5.436,0,0,1,1.094,3.535,4.977,4.977,0,0,1-.64,2.49,4.564,4.564,0,0,1-1.787,1.772,5.135,5.135,0,0,1-2.544.64,5.307,5.307,0,0,1-2.705-.688,4.733,4.733,0,0,1-1.855-1.968,6.48,6.48,0,0,1-.684-2.949V14.271a8.208,8.208,0,0,1,.942-3.95,6.832,6.832,0,0,1,2.69-2.749,7.692,7.692,0,0,1,3.877-1ZM29.585,13.93a1.883,1.883,0,0,0-1.094.3,1.922,1.922,0,0,0-.654.742v.986q0,2.7,1.865,2.7a1.513,1.513,0,0,0,1.255-.674,2.746,2.746,0,0,0,.5-1.689,2.7,2.7,0,0,0-.513-1.7A1.64,1.64,0,0,0,29.585,13.93Z" transform="translate(352 7557)" fill="#12263f"/>
    <path id="Trazado_172646" data-name="Trazado 172646" d="M20.2,19H17.136V13.656H12.592V19H9.507V6.2h3.085v5.08h4.544V6.2H20.2Zm10.7,0H21.97V17.066l4.113-4.324A4.909,4.909,0,0,0,27.6,9.991a1.913,1.913,0,0,0-.36-1.257A1.287,1.287,0,0,0,26.2,8.3a1.3,1.3,0,0,0-1.1.576,2.366,2.366,0,0,0-.422,1.437H21.707A4.2,4.2,0,0,1,22.3,8.141a4.129,4.129,0,0,1,1.635-1.56,4.856,4.856,0,0,1,2.338-.562,4.777,4.777,0,0,1,3.195.958,3.42,3.42,0,0,1,1.121,2.751A4,4,0,0,1,30.3,11.2a6.456,6.456,0,0,1-.875,1.5,22.029,22.029,0,0,1-1.912,2.1l-1.652,1.907H30.9Zm1.67-6.251L33.352,6.2h7.479v2.3H35.76l-.29,2.542a3.493,3.493,0,0,1,.831-.327,4.179,4.179,0,0,1,3.938.988,4.549,4.549,0,0,1,1.024,3.168,4.541,4.541,0,0,1-.549,2.228A3.776,3.776,0,0,1,39.17,18.64a4.87,4.87,0,0,1-2.347.536,5.24,5.24,0,0,1-2.259-.5,4.052,4.052,0,0,1-1.652-1.361,3.308,3.308,0,0,1-.589-1.954h2.971a1.68,1.68,0,0,0,.448,1.114,1.423,1.423,0,0,0,1.063.412q1.494,0,1.494-2.21,0-2.044-1.828-2.044a1.824,1.824,0,0,0-1.547.667ZM51.7,13.771a6.11,6.11,0,0,1-1.165,4,4.551,4.551,0,0,1-6.587-.009,6.1,6.1,0,0,1-1.169-3.99V11.433a6.11,6.11,0,0,1,1.165-4,4.551,4.551,0,0,1,6.587.009,6.116,6.116,0,0,1,1.169,4Zm-2.962-2.716a4.564,4.564,0,0,0-.36-2.061,1.2,1.2,0,0,0-1.143-.681,1.176,1.176,0,0,0-1.112.633,4.3,4.3,0,0,0-.374,1.916v3.27a4.6,4.6,0,0,0,.36,2.1,1.209,1.209,0,0,0,1.143.664,1.193,1.193,0,0,0,1.116-.646,4.39,4.39,0,0,0,.369-2.026Z" transform="translate(346 7662)" fill="#12263f"/>
    <path id="Icon_awesome-star" data-name="Icon awesome-star" d="M13.7.954l-3.351,7.1-7.5,1.142a1.738,1.738,0,0,0-.908,2.927l5.424,5.522-1.283,7.8a1.657,1.657,0,0,0,2.381,1.807l6.707-3.683,6.707,3.683a1.658,1.658,0,0,0,2.381-1.807l-1.283-7.8L28.4,12.122a1.738,1.738,0,0,0-.908-2.927l-7.5-1.142L16.641.954a1.613,1.613,0,0,0-2.946,0Z" transform="translate(298.689 7169.01)" fill="none" stroke="#12263f" stroke-linecap="round" stroke-linejoin="round" stroke-width="3"/>
    <path id="Icon_awesome-star-2" data-name="Icon awesome-star" d="M13.7.954l-3.351,7.1-7.5,1.142a1.738,1.738,0,0,0-.908,2.927l5.424,5.522-1.283,7.8a1.657,1.657,0,0,0,2.381,1.807l6.707-3.683,6.707,3.683a1.658,1.658,0,0,0,2.381-1.807l-1.283-7.8L28.4,12.122a1.738,1.738,0,0,0-.908-2.927l-7.5-1.142L16.641.954a1.613,1.613,0,0,0-2.946,0Z" transform="translate(298.689 7246.755)" fill="none" stroke="#12263f" stroke-linecap="round" stroke-linejoin="round" stroke-width="3"/>
    <path id="Icon_awesome-star-3" data-name="Icon awesome-star" d="M13.7.954l-3.351,7.1-7.5,1.142a1.738,1.738,0,0,0-.908,2.927l5.424,5.522-1.283,7.8a1.657,1.657,0,0,0,2.381,1.807l6.707-3.683,6.707,3.683a1.658,1.658,0,0,0,2.381-1.807l-1.283-7.8L28.4,12.122a1.738,1.738,0,0,0-.908-2.927l-7.5-1.142L16.641.954a1.613,1.613,0,0,0-2.946,0Z" transform="translate(298.689 7324.5)" fill="none" stroke="#12263f" stroke-linecap="round" stroke-linejoin="round" stroke-width="3"/>
    <path id="Icon_awesome-star-4" data-name="Icon awesome-star" d="M13.7.954l-3.351,7.1-7.5,1.142a1.738,1.738,0,0,0-.908,2.927l5.424,5.522-1.283,7.8a1.657,1.657,0,0,0,2.381,1.807l6.707-3.683,6.707,3.683a1.658,1.658,0,0,0,2.381-1.807l-1.283-7.8L28.4,12.122a1.738,1.738,0,0,0-.908-2.927l-7.5-1.142L16.641.954a1.613,1.613,0,0,0-2.946,0Z" transform="translate(298.689 7402.244)" fill="none" stroke="#12263f" stroke-linecap="round" stroke-linejoin="round" stroke-width="3"/>
    <path id="Icon_awesome-star-5" data-name="Icon awesome-star" d="M13.7.954l-3.351,7.1-7.5,1.142a1.738,1.738,0,0,0-.908,2.927l5.424,5.522-1.283,7.8a1.657,1.657,0,0,0,2.381,1.807l6.707-3.683,6.707,3.683a1.658,1.658,0,0,0,2.381-1.807l-1.283-7.8L28.4,12.122a1.738,1.738,0,0,0-.908-2.927l-7.5-1.142L16.641.954a1.613,1.613,0,0,0-2.946,0Z" transform="translate(298.689 7479.989)" fill="none" stroke="#12263f" stroke-linecap="round" stroke-linejoin="round" stroke-width="3"/>
    <path id="Icon_awesome-star-6" data-name="Icon awesome-star" d="M13.7.954l-3.351,7.1-7.5,1.142a1.738,1.738,0,0,0-.908,2.927l5.424,5.522-1.283,7.8a1.657,1.657,0,0,0,2.381,1.807l6.707-3.683,6.707,3.683a1.658,1.658,0,0,0,2.381-1.807l-1.283-7.8L28.4,12.122a1.738,1.738,0,0,0-.908-2.927l-7.5-1.142L16.641.954a1.613,1.613,0,0,0-2.946,0Z" transform="translate(298.689 7557.733)" fill="none" stroke="#12263f" stroke-linecap="round" stroke-linejoin="round" stroke-width="3"/>
    <path id="Icon_awesome-star-7" data-name="Icon awesome-star" d="M13.7.954l-3.351,7.1-7.5,1.142a1.738,1.738,0,0,0-.908,2.927l5.424,5.522-1.283,7.8a1.657,1.657,0,0,0,2.381,1.807l6.707-3.683,6.707,3.683a1.658,1.658,0,0,0,2.381-1.807l-1.283-7.8L28.4,12.122a1.738,1.738,0,0,0-.908-2.927l-7.5-1.142L16.641.954a1.613,1.613,0,0,0-2.946,0Z" transform="translate(298.689 7661.791)" fill="none" stroke="#12263f" stroke-linecap="round" stroke-linejoin="round" stroke-width="3"/>
    <g id="Icon_ionic-ios-list" data-name="Icon ionic-ios-list" transform="translate(410.548 7172)">
      <path id="Trazado_26736" data-name="Trazado 26736" d="M8.913,18.238a2.206,2.206,0,1,1-2.206-2.206A2.206,2.206,0,0,1,8.913,18.238Z" transform="translate(-4.5 -7.38)" fill="#12263f"/>
      <path id="Trazado_26737" data-name="Trazado 26737" d="M8.913,9.519A2.206,2.206,0,1,1,6.706,7.313,2.206,2.206,0,0,1,8.913,9.519Z" transform="translate(-4.5 -7.313)" fill="#12263f"/>
      <path id="Trazado_26738" data-name="Trazado 26738" d="M8.913,26.956A2.206,2.206,0,1,1,6.706,24.75a2.206,2.206,0,0,1,2.206,2.206Z" transform="translate(-4.5 -7.448)" fill="#12263f"/>
      <path id="Trazado_26741" data-name="Trazado 26741" d="M13.6,10.678H62.06a1.261,1.261,0,0,0,0-2.522H13.6a1.261,1.261,0,1,0,0,2.522Z" transform="translate(-4.674 -7.211)" fill="#12263f"/>
      <path id="Trazado_26744" data-name="Trazado 26744" d="M13.6,10.678H62.06a1.261,1.261,0,0,0,0-2.522H13.6a1.261,1.261,0,1,0,0,2.522Z" transform="translate(-4.674 1.44)" fill="#12263f"/>
      <path id="Trazado_26745" data-name="Trazado 26745" d="M13.6,10.678H62.06a1.261,1.261,0,0,0,0-2.522H13.6a1.261,1.261,0,1,0,0,2.522Z" transform="translate(-4.674 10.09)" fill="#12263f"/>
    </g>
    <g id="Icon_ionic-ios-list-2" data-name="Icon ionic-ios-list" transform="translate(410.548 7249.744)">
      <path id="Trazado_26736-2" data-name="Trazado 26736" d="M8.913,18.238a2.206,2.206,0,1,1-2.206-2.206A2.206,2.206,0,0,1,8.913,18.238Z" transform="translate(-4.5 -7.38)" fill="#12263f"/>
      <path id="Trazado_26737-2" data-name="Trazado 26737" d="M8.913,9.519A2.206,2.206,0,1,1,6.706,7.313,2.206,2.206,0,0,1,8.913,9.519Z" transform="translate(-4.5 -7.313)" fill="#12263f"/>
      <path id="Trazado_26738-2" data-name="Trazado 26738" d="M8.913,26.956A2.206,2.206,0,1,1,6.706,24.75a2.206,2.206,0,0,1,2.206,2.206Z" transform="translate(-4.5 -7.448)" fill="#12263f"/>
      <path id="Trazado_26741-2" data-name="Trazado 26741" d="M13.6,10.678H62.06a1.261,1.261,0,0,0,0-2.522H13.6a1.261,1.261,0,1,0,0,2.522Z" transform="translate(-4.674 -7.211)" fill="#12263f"/>
      <path id="Trazado_26744-2" data-name="Trazado 26744" d="M13.6,10.678H62.06a1.261,1.261,0,0,0,0-2.522H13.6a1.261,1.261,0,1,0,0,2.522Z" transform="translate(-4.674 1.44)" fill="#12263f"/>
      <path id="Trazado_26745-2" data-name="Trazado 26745" d="M13.6,10.678H62.06a1.261,1.261,0,0,0,0-2.522H13.6a1.261,1.261,0,1,0,0,2.522Z" transform="translate(-4.674 10.09)" fill="#12263f"/>
    </g>
    <g id="Icon_ionic-ios-list-3" data-name="Icon ionic-ios-list" transform="translate(410.548 7327.489)">
      <path id="Trazado_26736-3" data-name="Trazado 26736" d="M8.913,18.238a2.206,2.206,0,1,1-2.206-2.206A2.206,2.206,0,0,1,8.913,18.238Z" transform="translate(-4.5 -7.38)" fill="#12263f"/>
      <path id="Trazado_26737-3" data-name="Trazado 26737" d="M8.913,9.519A2.206,2.206,0,1,1,6.706,7.313,2.206,2.206,0,0,1,8.913,9.519Z" transform="translate(-4.5 -7.313)" fill="#12263f"/>
      <path id="Trazado_26738-3" data-name="Trazado 26738" d="M8.913,26.956A2.206,2.206,0,1,1,6.706,24.75a2.206,2.206,0,0,1,2.206,2.206Z" transform="translate(-4.5 -7.448)" fill="#12263f"/>
      <path id="Trazado_26741-3" data-name="Trazado 26741" d="M13.6,10.678H62.06a1.261,1.261,0,0,0,0-2.522H13.6a1.261,1.261,0,1,0,0,2.522Z" transform="translate(-4.674 -7.211)" fill="#12263f"/>
      <path id="Trazado_26744-3" data-name="Trazado 26744" d="M13.6,10.678H62.06a1.261,1.261,0,0,0,0-2.522H13.6a1.261,1.261,0,1,0,0,2.522Z" transform="translate(-4.674 1.44)" fill="#12263f"/>
      <path id="Trazado_26745-3" data-name="Trazado 26745" d="M13.6,10.678H62.06a1.261,1.261,0,0,0,0-2.522H13.6a1.261,1.261,0,1,0,0,2.522Z" transform="translate(-4.674 10.09)" fill="#12263f"/>
    </g>
    <g id="Icon_ionic-ios-list-4" data-name="Icon ionic-ios-list" transform="translate(410.548 7405.233)">
      <path id="Trazado_26736-4" data-name="Trazado 26736" d="M8.913,18.238a2.206,2.206,0,1,1-2.206-2.206A2.206,2.206,0,0,1,8.913,18.238Z" transform="translate(-4.5 -7.38)" fill="#12263f"/>
      <path id="Trazado_26737-4" data-name="Trazado 26737" d="M8.913,9.519A2.206,2.206,0,1,1,6.706,7.313,2.206,2.206,0,0,1,8.913,9.519Z" transform="translate(-4.5 -7.313)" fill="#12263f"/>
      <path id="Trazado_26738-4" data-name="Trazado 26738" d="M8.913,26.956A2.206,2.206,0,1,1,6.706,24.75a2.206,2.206,0,0,1,2.206,2.206Z" transform="translate(-4.5 -7.448)" fill="#12263f"/>
      <path id="Trazado_26741-4" data-name="Trazado 26741" d="M13.6,10.678H62.06a1.261,1.261,0,0,0,0-2.522H13.6a1.261,1.261,0,1,0,0,2.522Z" transform="translate(-4.674 -7.211)" fill="#12263f"/>
      <path id="Trazado_26744-4" data-name="Trazado 26744" d="M13.6,10.678H62.06a1.261,1.261,0,0,0,0-2.522H13.6a1.261,1.261,0,1,0,0,2.522Z" transform="translate(-4.674 1.44)" fill="#12263f"/>
      <path id="Trazado_26745-4" data-name="Trazado 26745" d="M13.6,10.678H62.06a1.261,1.261,0,0,0,0-2.522H13.6a1.261,1.261,0,1,0,0,2.522Z" transform="translate(-4.674 10.09)" fill="#12263f"/>
    </g>
    <g id="Icon_ionic-ios-list-5" data-name="Icon ionic-ios-list" transform="translate(410.548 7482.978)">
      <path id="Trazado_26736-5" data-name="Trazado 26736" d="M8.913,18.238a2.206,2.206,0,1,1-2.206-2.206A2.206,2.206,0,0,1,8.913,18.238Z" transform="translate(-4.5 -7.38)" fill="#12263f"/>
      <path id="Trazado_26737-5" data-name="Trazado 26737" d="M8.913,9.519A2.206,2.206,0,1,1,6.706,7.313,2.206,2.206,0,0,1,8.913,9.519Z" transform="translate(-4.5 -7.313)" fill="#12263f"/>
      <path id="Trazado_26738-5" data-name="Trazado 26738" d="M8.913,26.956A2.206,2.206,0,1,1,6.706,24.75a2.206,2.206,0,0,1,2.206,2.206Z" transform="translate(-4.5 -7.448)" fill="#12263f"/>
      <path id="Trazado_26741-5" data-name="Trazado 26741" d="M13.6,10.678H62.06a1.261,1.261,0,0,0,0-2.522H13.6a1.261,1.261,0,1,0,0,2.522Z" transform="translate(-4.674 -7.211)" fill="#12263f"/>
      <path id="Trazado_26744-5" data-name="Trazado 26744" d="M13.6,10.678H62.06a1.261,1.261,0,0,0,0-2.522H13.6a1.261,1.261,0,1,0,0,2.522Z" transform="translate(-4.674 1.44)" fill="#12263f"/>
      <path id="Trazado_26745-5" data-name="Trazado 26745" d="M13.6,10.678H62.06a1.261,1.261,0,0,0,0-2.522H13.6a1.261,1.261,0,1,0,0,2.522Z" transform="translate(-4.674 10.09)" fill="#12263f"/>
    </g>
    <g id="Icon_ionic-ios-list-6" data-name="Icon ionic-ios-list" transform="translate(410.548 7560.722)">
      <path id="Trazado_26736-6" data-name="Trazado 26736" d="M8.913,18.238a2.206,2.206,0,1,1-2.206-2.206A2.206,2.206,0,0,1,8.913,18.238Z" transform="translate(-4.5 -7.38)" fill="#12263f"/>
      <path id="Trazado_26737-6" data-name="Trazado 26737" d="M8.913,9.519A2.206,2.206,0,1,1,6.706,7.313,2.206,2.206,0,0,1,8.913,9.519Z" transform="translate(-4.5 -7.313)" fill="#12263f"/>
      <path id="Trazado_26738-6" data-name="Trazado 26738" d="M8.913,26.956A2.206,2.206,0,1,1,6.706,24.75a2.206,2.206,0,0,1,2.206,2.206Z" transform="translate(-4.5 -7.448)" fill="#12263f"/>
      <path id="Trazado_26741-6" data-name="Trazado 26741" d="M13.6,10.678H62.06a1.261,1.261,0,0,0,0-2.522H13.6a1.261,1.261,0,1,0,0,2.522Z" transform="translate(-4.674 -7.211)" fill="#12263f"/>
      <path id="Trazado_26744-6" data-name="Trazado 26744" d="M13.6,10.678H62.06a1.261,1.261,0,0,0,0-2.522H13.6a1.261,1.261,0,1,0,0,2.522Z" transform="translate(-4.674 1.44)" fill="#12263f"/>
      <path id="Trazado_26745-6" data-name="Trazado 26745" d="M13.6,10.678H62.06a1.261,1.261,0,0,0,0-2.522H13.6a1.261,1.261,0,1,0,0,2.522Z" transform="translate(-4.674 10.09)" fill="#12263f"/>
    </g>
    <g id="Icon_ionic-ios-list-7" data-name="Icon ionic-ios-list" transform="translate(414.136 7664.78)">
      <path id="Trazado_26736-7" data-name="Trazado 26736" d="M8.913,18.238a2.206,2.206,0,1,1-2.206-2.206A2.206,2.206,0,0,1,8.913,18.238Z" transform="translate(-4.5 -7.38)" fill="#12263f"/>
      <path id="Trazado_26737-7" data-name="Trazado 26737" d="M8.913,9.519A2.206,2.206,0,1,1,6.706,7.313,2.206,2.206,0,0,1,8.913,9.519Z" transform="translate(-4.5 -7.313)" fill="#12263f"/>
      <path id="Trazado_26738-7" data-name="Trazado 26738" d="M8.913,26.956A2.206,2.206,0,1,1,6.706,24.75a2.206,2.206,0,0,1,2.206,2.206Z" transform="translate(-4.5 -7.448)" fill="#12263f"/>
      <path id="Trazado_26741-7" data-name="Trazado 26741" d="M13.6,10.678H62.06a1.261,1.261,0,0,0,0-2.522H13.6a1.261,1.261,0,1,0,0,2.522Z" transform="translate(-4.674 -7.211)" fill="#12263f"/>
      <path id="Trazado_26744-7" data-name="Trazado 26744" d="M13.6,10.678H62.06a1.261,1.261,0,0,0,0-2.522H13.6a1.261,1.261,0,1,0,0,2.522Z" transform="translate(-4.674 1.44)" fill="#12263f"/>
      <path id="Trazado_26745-7" data-name="Trazado 26745" d="M13.6,10.678H62.06a1.261,1.261,0,0,0,0-2.522H13.6a1.261,1.261,0,1,0,0,2.522Z" transform="translate(-4.674 10.09)" fill="#12263f"/>
    </g>
    <g id="Icon_ionic-ios-list-8" data-name="Icon ionic-ios-list" transform="translate(384.274 7613.35)">
      <path id="Trazado_26736-8" data-name="Trazado 26736" d="M8.913,18.238a2.206,2.206,0,1,1-2.206-2.206A2.206,2.206,0,0,1,8.913,18.238Z" transform="translate(-4.5 -7.38)" fill="#12263f"/>
      <path id="Trazado_26737-8" data-name="Trazado 26737" d="M8.913,9.519A2.206,2.206,0,1,1,6.706,7.313,2.206,2.206,0,0,1,8.913,9.519Z" transform="translate(-4.5 -7.313)" fill="#12263f"/>
      <path id="Trazado_26738-8" data-name="Trazado 26738" d="M8.913,26.956A2.206,2.206,0,1,1,6.706,24.75a2.206,2.206,0,0,1,2.206,2.206Z" transform="translate(-4.5 -7.448)" fill="#12263f"/>
    </g>
    <path id="Trazado_172647" data-name="Trazado 172647" d="M5,0H258a5,5,0,0,1,5,5V55a5,5,0,0,1-5,5H5a5,5,0,0,1-5-5V5A5,5,0,0,1,5,0Z" transform="translate(1010 7319)" fill="#ff6148"/>
    <path id="Trazado_172648" data-name="Trazado 172648" d="M5,0H258a5,5,0,0,1,5,5V55a5,5,0,0,1-5,5H5a5,5,0,0,1-5-5V5A5,5,0,0,1,5,0Z" transform="translate(1010 7397)" fill="#ff6148"/>
    <path id="Trazado_172649" data-name="Trazado 172649" d="M5,0H258a5,5,0,0,1,5,5V54a5,5,0,0,1-5,5H5a5,5,0,0,1-5-5V5A5,5,0,0,1,5,0Z" transform="translate(1010 7475)" fill="#ff6148"/>
    <path id="Trazado_172650" data-name="Trazado 172650" d="M5,0H57V60H5a5,5,0,0,1-5-5V5A5,5,0,0,1,5,0Z" transform="translate(1010 7319)" fill="#cc4d39"/>
    <path id="Trazado_172651" data-name="Trazado 172651" d="M5,0H57V60H5a5,5,0,0,1-5-5V5A5,5,0,0,1,5,0Z" transform="translate(1010 7397)" fill="#cc4d39"/>
    <path id="Trazado_172652" data-name="Trazado 172652" d="M5,0H57V59H5a5,5,0,0,1-5-5V5A5,5,0,0,1,5,0Z" transform="translate(1010 7475)" fill="#cc4d39"/>
    <path id="Trazado_172653" data-name="Trazado 172653" d="M22.642,21H19.233V15.063H14.185V21H10.757V6.781h3.428v5.645h5.049V6.781h3.408ZM31.9,21H28.6V10.492l-3.242.947v-2.5L31.6,6.781h.3Z" transform="translate(1077 7335)" fill="#12263f"/>
    <path id="Trazado_172654" data-name="Trazado 172654" d="M22.642,21H19.233V15.063H14.185V21H10.757V6.781h3.428v5.645h5.049V6.781h3.408Zm11.885,0H24.6V18.852l4.57-4.8q1.689-1.924,1.689-3.057a2.126,2.126,0,0,0-.4-1.4A1.43,1.43,0,0,0,29.3,9.115a1.447,1.447,0,0,0-1.221.64,2.629,2.629,0,0,0-.469,1.6h-3.3a4.67,4.67,0,0,1,.654-2.417A4.588,4.588,0,0,1,26.782,7.2a5.4,5.4,0,0,1,2.6-.625,5.308,5.308,0,0,1,3.55,1.064A3.8,3.8,0,0,1,34.175,10.7a4.439,4.439,0,0,1-.312,1.636A7.173,7.173,0,0,1,32.891,14a24.476,24.476,0,0,1-2.124,2.339l-1.836,2.119h5.6Z" transform="translate(1077 7412)" fill="#12263f"/>
    <path id="Trazado_172655" data-name="Trazado 172655" d="M22.642,21H19.233V15.063H14.185V21H10.757V6.781h3.428v5.645h5.049V6.781h3.408Zm4.971-8.486h1.553a1.614,1.614,0,0,0,1.846-1.807,1.562,1.562,0,0,0-.439-1.147,1.666,1.666,0,0,0-1.24-.444,1.784,1.784,0,0,0-1.138.381,1.162,1.162,0,0,0-.483.947H24.419a3.369,3.369,0,0,1,.625-2,4.127,4.127,0,0,1,1.733-1.372,5.926,5.926,0,0,1,2.437-.493,5.823,5.823,0,0,1,3.73,1.084A3.6,3.6,0,0,1,34.3,10.639a3,3,0,0,1-.562,1.733A4,4,0,0,1,32.1,13.7a3.823,3.823,0,0,1,1.777,1.245,3.279,3.279,0,0,1,.645,2.065,3.669,3.669,0,0,1-1.465,3.047A6.08,6.08,0,0,1,29.214,21.2a6.306,6.306,0,0,1-2.593-.532,4.062,4.062,0,0,1-1.812-1.475,3.834,3.834,0,0,1-.615-2.144H27.5a1.482,1.482,0,0,0,.527,1.133,1.862,1.862,0,0,0,1.3.479,1.95,1.95,0,0,0,1.387-.483,1.616,1.616,0,0,0,.518-1.235,1.889,1.889,0,0,0-.537-1.523,2.245,2.245,0,0,0-1.484-.449h-1.6Z" transform="translate(1077 7490)" fill="#12263f"/>
    <path id="Icon_awesome-star-8" data-name="Icon awesome-star" d="M13.7.954l-3.351,7.1-7.5,1.142a1.738,1.738,0,0,0-.908,2.927l5.424,5.522-1.283,7.8a1.657,1.657,0,0,0,2.381,1.807l6.707-3.683,6.707,3.683a1.658,1.658,0,0,0,2.381-1.807l-1.283-7.8L28.4,12.122a1.738,1.738,0,0,0-.908-2.927l-7.5-1.142L16.641.954a1.613,1.613,0,0,0-2.946,0Z" transform="translate(1023.508 7335.264)" fill="none" stroke="#12263f" stroke-linecap="round" stroke-linejoin="round" stroke-width="3"/>
    <path id="Icon_awesome-star-9" data-name="Icon awesome-star" d="M13.7.954l-3.351,7.1-7.5,1.142a1.738,1.738,0,0,0-.908,2.927l5.424,5.522-1.283,7.8a1.657,1.657,0,0,0,2.381,1.807l6.707-3.683,6.707,3.683a1.658,1.658,0,0,0,2.381-1.807l-1.283-7.8L28.4,12.122a1.738,1.738,0,0,0-.908-2.927l-7.5-1.142L16.641.954a1.613,1.613,0,0,0-2.946,0Z" transform="translate(1023.508 7413.009)" fill="none" stroke="#12263f" stroke-linecap="round" stroke-linejoin="round" stroke-width="3"/>
    <path id="Icon_awesome-star-10" data-name="Icon awesome-star" d="M13.7.954l-3.351,7.1-7.5,1.142a1.738,1.738,0,0,0-.908,2.927l5.424,5.522-1.283,7.8a1.657,1.657,0,0,0,2.381,1.807l6.707-3.683,6.707,3.683a1.658,1.658,0,0,0,2.381-1.807l-1.283-7.8L28.4,12.122a1.738,1.738,0,0,0-.908-2.927l-7.5-1.142L16.641.954a1.613,1.613,0,0,0-2.946,0Z" transform="translate(1023.508 7490.753)" fill="none" stroke="#12263f" stroke-linecap="round" stroke-linejoin="round" stroke-width="3"/>
    <g id="Icon_ionic-ios-list-9" data-name="Icon ionic-ios-list" transform="translate(1135.367 7338.253)">
      <path id="Trazado_26736-9" data-name="Trazado 26736" d="M8.913,18.238a2.206,2.206,0,1,1-2.206-2.206A2.206,2.206,0,0,1,8.913,18.238Z" transform="translate(-4.5 -7.38)" fill="#12263f"/>
      <path id="Trazado_26737-9" data-name="Trazado 26737" d="M8.913,9.519A2.206,2.206,0,1,1,6.706,7.313,2.206,2.206,0,0,1,8.913,9.519Z" transform="translate(-4.5 -7.313)" fill="#12263f"/>
      <path id="Trazado_26738-9" data-name="Trazado 26738" d="M8.913,26.956A2.206,2.206,0,1,1,6.706,24.75a2.206,2.206,0,0,1,2.206,2.206Z" transform="translate(-4.5 -7.448)" fill="#12263f"/>
      <path id="Trazado_26741-8" data-name="Trazado 26741" d="M13.6,10.678H62.06a1.261,1.261,0,0,0,0-2.522H13.6a1.261,1.261,0,1,0,0,2.522Z" transform="translate(-4.674 -7.211)" fill="#12263f"/>
      <path id="Trazado_26744-8" data-name="Trazado 26744" d="M13.6,10.678H62.06a1.261,1.261,0,0,0,0-2.522H13.6a1.261,1.261,0,1,0,0,2.522Z" transform="translate(-4.674 1.44)" fill="#12263f"/>
      <path id="Trazado_26745-8" data-name="Trazado 26745" d="M13.6,10.678H62.06a1.261,1.261,0,0,0,0-2.522H13.6a1.261,1.261,0,1,0,0,2.522Z" transform="translate(-4.674 10.09)" fill="#12263f"/>
    </g>
    <g id="Icon_ionic-ios-list-10" data-name="Icon ionic-ios-list" transform="translate(1135.367 7415.998)">
      <path id="Trazado_26736-10" data-name="Trazado 26736" d="M8.913,18.238a2.206,2.206,0,1,1-2.206-2.206A2.206,2.206,0,0,1,8.913,18.238Z" transform="translate(-4.5 -7.38)" fill="#12263f"/>
      <path id="Trazado_26737-10" data-name="Trazado 26737" d="M8.913,9.519A2.206,2.206,0,1,1,6.706,7.313,2.206,2.206,0,0,1,8.913,9.519Z" transform="translate(-4.5 -7.313)" fill="#12263f"/>
      <path id="Trazado_26738-10" data-name="Trazado 26738" d="M8.913,26.956A2.206,2.206,0,1,1,6.706,24.75a2.206,2.206,0,0,1,2.206,2.206Z" transform="translate(-4.5 -7.448)" fill="#12263f"/>
      <path id="Trazado_26741-9" data-name="Trazado 26741" d="M13.6,10.678H62.06a1.261,1.261,0,0,0,0-2.522H13.6a1.261,1.261,0,1,0,0,2.522Z" transform="translate(-4.674 -7.211)" fill="#12263f"/>
      <path id="Trazado_26744-9" data-name="Trazado 26744" d="M13.6,10.678H62.06a1.261,1.261,0,0,0,0-2.522H13.6a1.261,1.261,0,1,0,0,2.522Z" transform="translate(-4.674 1.44)" fill="#12263f"/>
      <path id="Trazado_26745-9" data-name="Trazado 26745" d="M13.6,10.678H62.06a1.261,1.261,0,0,0,0-2.522H13.6a1.261,1.261,0,1,0,0,2.522Z" transform="translate(-4.674 10.09)" fill="#12263f"/>
    </g>
    <g id="Icon_ionic-ios-list-11" data-name="Icon ionic-ios-list" transform="translate(1135.367 7493.743)">
      <path id="Trazado_26736-11" data-name="Trazado 26736" d="M8.913,18.238a2.206,2.206,0,1,1-2.206-2.206A2.206,2.206,0,0,1,8.913,18.238Z" transform="translate(-4.5 -7.38)" fill="#12263f"/>
      <path id="Trazado_26737-11" data-name="Trazado 26737" d="M8.913,9.519A2.206,2.206,0,1,1,6.706,7.313,2.206,2.206,0,0,1,8.913,9.519Z" transform="translate(-4.5 -7.313)" fill="#12263f"/>
      <path id="Trazado_26738-11" data-name="Trazado 26738" d="M8.913,26.956A2.206,2.206,0,1,1,6.706,24.75a2.206,2.206,0,0,1,2.206,2.206Z" transform="translate(-4.5 -7.448)" fill="#12263f"/>
      <path id="Trazado_26741-10" data-name="Trazado 26741" d="M13.6,10.678H62.06a1.261,1.261,0,0,0,0-2.522H13.6a1.261,1.261,0,1,0,0,2.522Z" transform="translate(-4.674 -7.211)" fill="#12263f"/>
      <path id="Trazado_26744-10" data-name="Trazado 26744" d="M13.6,10.678H62.06a1.261,1.261,0,0,0,0-2.522H13.6a1.261,1.261,0,1,0,0,2.522Z" transform="translate(-4.674 1.44)" fill="#12263f"/>
      <path id="Trazado_26745-10" data-name="Trazado 26745" d="M13.6,10.678H62.06a1.261,1.261,0,0,0,0-2.522H13.6a1.261,1.261,0,1,0,0,2.522Z" transform="translate(-4.674 10.09)" fill="#12263f"/>
    </g>
    <g id="Icon_feather-check-circle" data-name="Icon feather-check-circle" transform="translate(1213.062 7486.566)">
      <path id="Trazado_26746" data-name="Trazado 26746" d="M38.882,19.292v1.651a17.941,17.941,0,1,1-10.639-16.4" transform="translate(-3 -2.991)" fill="none" stroke="#1565c0" stroke-linecap="round" stroke-linejoin="round" stroke-width="3"/>
      <path id="Trazado_26747" data-name="Trazado 26747" d="M36.823,6,18.882,23.959,13.5,18.577" transform="translate(-0.941 -2.401)" fill="none" stroke="#1565c0" stroke-linecap="round" stroke-linejoin="round" stroke-width="3"/>
    </g>
    <g id="Icon_feather-check-circle-2" data-name="Icon feather-check-circle" transform="translate(1213.062 7408.913)">
      <path id="Trazado_26746-2" data-name="Trazado 26746" d="M38.882,19.292v1.651a17.941,17.941,0,1,1-10.639-16.4" transform="translate(-3 -2.991)" fill="none" stroke="#1565c0" stroke-linecap="round" stroke-linejoin="round" stroke-width="3"/>
      <path id="Trazado_26747-2" data-name="Trazado 26747" d="M36.823,6,18.882,23.959,13.5,18.577" transform="translate(-0.941 -2.401)" fill="none" stroke="#1565c0" stroke-linecap="round" stroke-linejoin="round" stroke-width="3"/>
    </g>
    <g id="Icon_feather-check-circle-3" data-name="Icon feather-check-circle" transform="translate(1213.062 7331.168)">
      <path id="Trazado_26746-3" data-name="Trazado 26746" d="M38.882,19.292v1.651a17.941,17.941,0,1,1-10.639-16.4" transform="translate(-3 -2.991)" fill="none" stroke="#1565c0" stroke-linecap="round" stroke-linejoin="round" stroke-width="3"/>
      <path id="Trazado_26747-3" data-name="Trazado 26747" d="M36.823,6,18.882,23.959,13.5,18.577" transform="translate(-0.941 -2.401)" fill="none" stroke="#1565c0" stroke-linecap="round" stroke-linejoin="round" stroke-width="3"/>
    </g>
    <path id="Icon_awesome-user-alt" data-name="Icon awesome-user-alt" d="M14.537,16.354A8.177,8.177,0,1,0,6.36,8.177,8.179,8.179,0,0,0,14.537,16.354Zm7.268,1.817H18.676a9.885,9.885,0,0,1-8.279,0H7.268A7.268,7.268,0,0,0,0,25.439v.909a2.726,2.726,0,0,0,2.726,2.726H26.348a2.726,2.726,0,0,0,2.726-2.726v-.909A7.268,7.268,0,0,0,21.805,18.171Z" transform="translate(1285.926 7490.154)" fill="#40b8e2"/>
    <path id="Icon_awesome-user-alt-2" data-name="Icon awesome-user-alt" d="M14.537,16.354A8.177,8.177,0,1,0,6.36,8.177,8.179,8.179,0,0,0,14.537,16.354Zm7.268,1.817H18.676a9.885,9.885,0,0,1-8.279,0H7.268A7.268,7.268,0,0,0,0,25.439v.909a2.726,2.726,0,0,0,2.726,2.726H26.348a2.726,2.726,0,0,0,2.726-2.726v-.909A7.268,7.268,0,0,0,21.805,18.171Z" transform="translate(1285.926 7412.41)" fill="#ffa726"/>
    <path id="Icon_awesome-user-alt-3" data-name="Icon awesome-user-alt" d="M14.537,16.354A8.177,8.177,0,1,0,6.36,8.177,8.179,8.179,0,0,0,14.537,16.354Zm7.268,1.817H18.676a9.885,9.885,0,0,1-8.279,0H7.268A7.268,7.268,0,0,0,0,25.439v.909a2.726,2.726,0,0,0,2.726,2.726H26.348a2.726,2.726,0,0,0,2.726-2.726v-.909A7.268,7.268,0,0,0,21.805,18.171Z" transform="translate(1285.926 7334.665)" fill="#26a69a"/>
    <path id="Trazado_172656" data-name="Trazado 172656" d="M25.021,15.99V21h-2.93V6.781h5.547a6.417,6.417,0,0,1,2.817.586,4.318,4.318,0,0,1,1.87,1.665,4.643,4.643,0,0,1,.654,2.456,4.083,4.083,0,0,1-1.431,3.3,5.959,5.959,0,0,1-3.96,1.206Zm0-2.373h2.617a2.573,2.573,0,0,0,1.772-.547,1.989,1.989,0,0,0,.61-1.562,2.345,2.345,0,0,0-.615-1.689,2.3,2.3,0,0,0-1.7-.664H25.021ZM37.784,21H34.952V6h2.832Zm8.447,0a3.134,3.134,0,0,1-.283-.947A3.415,3.415,0,0,1,43.282,21.2a3.752,3.752,0,0,1-2.573-.9,2.89,2.89,0,0,1-1.021-2.266,2.986,2.986,0,0,1,1.245-2.578,6.144,6.144,0,0,1,3.6-.908h1.3v-.605a1.741,1.741,0,0,0-.376-1.172,1.479,1.479,0,0,0-1.187-.439,1.682,1.682,0,0,0-1.118.342,1.161,1.161,0,0,0-.405.938H39.923a2.835,2.835,0,0,1,.566-1.7,3.744,3.744,0,0,1,1.6-1.226,5.837,5.837,0,0,1,2.324-.444,4.611,4.611,0,0,1,3.1.981,3.433,3.433,0,0,1,1.147,2.759v4.58a5.052,5.052,0,0,0,.42,2.275V21ZM43.9,19.037a2.431,2.431,0,0,0,1.152-.278,1.828,1.828,0,0,0,.781-.747V16.2H44.776q-2.119,0-2.256,1.465l-.01.166a1.13,1.13,0,0,0,.371.869A1.441,1.441,0,0,0,43.9,19.037Zm9.531-8.6.088,1.221a3.689,3.689,0,0,1,3.037-1.416,3.066,3.066,0,0,1,2.5.986,4.6,4.6,0,0,1,.84,2.949V21H57.071V14.242a1.831,1.831,0,0,0-.391-1.3,1.749,1.749,0,0,0-1.3-.405,1.942,1.942,0,0,0-1.787,1.016V21H50.772V10.434ZM66.9,21.2a5.187,5.187,0,0,1-3.784-1.426,5.068,5.068,0,0,1-1.46-3.8V15.7a6.383,6.383,0,0,1,.615-2.847,4.515,4.515,0,0,1,1.743-1.934,4.893,4.893,0,0,1,2.573-.679A4.385,4.385,0,0,1,70,11.605a5.555,5.555,0,0,1,1.245,3.877v1.152H64.513a2.622,2.622,0,0,0,.825,1.66,2.5,2.5,0,0,0,1.743.625,3.046,3.046,0,0,0,2.549-1.182l1.387,1.553a4.237,4.237,0,0,1-1.719,1.4A5.639,5.639,0,0,1,66.9,21.2Zm-.322-8.682a1.764,1.764,0,0,0-1.362.569,2.946,2.946,0,0,0-.669,1.628h3.926v-.226a2.1,2.1,0,0,0-.508-1.457A1.819,1.819,0,0,0,66.573,12.514ZM78.966,21a3.134,3.134,0,0,1-.283-.947A3.415,3.415,0,0,1,76.017,21.2a3.752,3.752,0,0,1-2.573-.9,2.89,2.89,0,0,1-1.021-2.266,2.986,2.986,0,0,1,1.245-2.578,6.144,6.144,0,0,1,3.6-.908h1.3v-.605a1.741,1.741,0,0,0-.376-1.172A1.479,1.479,0,0,0,77,12.328a1.682,1.682,0,0,0-1.118.342,1.161,1.161,0,0,0-.405.938H72.657a2.835,2.835,0,0,1,.566-1.7,3.744,3.744,0,0,1,1.6-1.226,5.837,5.837,0,0,1,2.324-.444,4.611,4.611,0,0,1,3.1.981A3.433,3.433,0,0,1,81.4,13.979v4.58a5.052,5.052,0,0,0,.42,2.275V21Zm-2.334-1.963a2.431,2.431,0,0,0,1.152-.278,1.828,1.828,0,0,0,.781-.747V16.2H77.511q-2.119,0-2.256,1.465l-.01.166a1.13,1.13,0,0,0,.371.869A1.441,1.441,0,0,0,76.632,19.037ZM87.96,18.92a1.851,1.851,0,0,0,1.27-.43,1.506,1.506,0,0,0,.508-1.143h2.646a3.62,3.62,0,0,1-.586,1.968A3.866,3.866,0,0,1,90.221,20.7a4.936,4.936,0,0,1-2.212.493,4.587,4.587,0,0,1-3.574-1.44,5.7,5.7,0,0,1-1.309-3.979V15.59a5.635,5.635,0,0,1,1.3-3.9,4.534,4.534,0,0,1,3.564-1.455,4.444,4.444,0,0,1,3.179,1.128,3.994,3.994,0,0,1,1.216,3H89.737a1.939,1.939,0,0,0-.508-1.34,1.887,1.887,0,0,0-2.778.2,4.166,4.166,0,0,0-.5,2.333v.293a4.219,4.219,0,0,0,.5,2.347A1.721,1.721,0,0,0,87.96,18.92ZM96.974,21H94.142V10.434h2.832Zm-3-13.3A1.39,1.39,0,0,1,94.4,6.654a1.831,1.831,0,0,1,2.31,0A1.382,1.382,0,0,1,97.14,7.7a1.386,1.386,0,0,1-.435,1.055,1.81,1.81,0,0,1-2.295,0A1.386,1.386,0,0,1,93.976,7.7Zm4.883,7.92a6.266,6.266,0,0,1,.605-2.8,4.432,4.432,0,0,1,1.743-1.9,5.086,5.086,0,0,1,2.642-.674,4.812,4.812,0,0,1,3.491,1.309,5.252,5.252,0,0,1,1.509,3.555l.02.723a5.523,5.523,0,0,1-1.357,3.9,5.261,5.261,0,0,1-7.29,0,5.62,5.62,0,0,1-1.362-3.984Zm2.822.2a3.95,3.95,0,0,0,.566,2.3,2.035,2.035,0,0,0,3.223.01,4.322,4.322,0,0,0,.576-2.518,3.91,3.91,0,0,0-.576-2.289,1.873,1.873,0,0,0-1.621-.812,1.842,1.842,0,0,0-1.6.807A4.395,4.395,0,0,0,101.681,15.819ZM104.405,6h3.076l-2.705,3.027h-2.295Zm8.8,4.434.088,1.221a3.689,3.689,0,0,1,3.037-1.416,3.066,3.066,0,0,1,2.5.986,4.6,4.6,0,0,1,.84,2.949V21h-2.822V14.242a1.831,1.831,0,0,0-.391-1.3,1.749,1.749,0,0,0-1.3-.405,1.942,1.942,0,0,0-1.787,1.016V21h-2.822V10.434Zm13.145,5.205a6.368,6.368,0,0,1,1.108-3.936,3.6,3.6,0,0,1,3.032-1.465,3.236,3.236,0,0,1,2.549,1.152V6h2.832V21h-2.549l-.137-1.123A3.321,3.321,0,0,1,130.47,21.2a3.587,3.587,0,0,1-2.993-1.47A6.573,6.573,0,0,1,126.349,15.639Zm2.822.21a4.171,4.171,0,0,0,.518,2.279,1.686,1.686,0,0,0,1.5.792,1.888,1.888,0,0,0,1.846-1.105V13.638a1.861,1.861,0,0,0-1.826-1.105Q129.171,12.533,129.171,15.849Zm13.75,5.347a5.187,5.187,0,0,1-3.784-1.426,5.068,5.068,0,0,1-1.46-3.8V15.7a6.383,6.383,0,0,1,.615-2.847,4.515,4.515,0,0,1,1.743-1.934,4.893,4.893,0,0,1,2.573-.679,4.385,4.385,0,0,1,3.413,1.367,5.555,5.555,0,0,1,1.245,3.877v1.152h-6.729a2.622,2.622,0,0,0,.825,1.66,2.5,2.5,0,0,0,1.743.625,3.046,3.046,0,0,0,2.549-1.182l1.387,1.553a4.237,4.237,0,0,1-1.719,1.4A5.639,5.639,0,0,1,142.921,21.2Zm-.322-8.682a1.764,1.764,0,0,0-1.362.569,2.946,2.946,0,0,0-.669,1.628h3.926v-.226a2.1,2.1,0,0,0-.508-1.457A1.819,1.819,0,0,0,142.6,12.514ZM151.847,21h-2.832V6h2.832Zm14.863-3.73A1.5,1.5,0,0,0,166.124,16a7.685,7.685,0,0,0-2.109-.937,14.953,14.953,0,0,1-2.412-.972,3.941,3.941,0,0,1-2.422-3.525A3.434,3.434,0,0,1,159.83,8.5,4.236,4.236,0,0,1,161.7,7.094a7.021,7.021,0,0,1,2.729-.508,6.39,6.39,0,0,1,2.715.552A4.323,4.323,0,0,1,168.99,8.7a4.076,4.076,0,0,1,.659,2.285h-2.93a1.917,1.917,0,0,0-.615-1.519,2.529,2.529,0,0,0-1.729-.542,2.7,2.7,0,0,0-1.67.454,1.432,1.432,0,0,0-.6,1.2,1.372,1.372,0,0,0,.7,1.162,7.889,7.889,0,0,0,2.056.879,8.882,8.882,0,0,1,3.643,1.865,3.715,3.715,0,0,1,1.143,2.773,3.422,3.422,0,0,1-1.4,2.9,6.113,6.113,0,0,1-3.76,1.05,7.26,7.26,0,0,1-2.988-.6,4.729,4.729,0,0,1-2.056-1.646,4.214,4.214,0,0,1-.708-2.422h2.939q0,2.354,2.813,2.354a2.736,2.736,0,0,0,1.631-.425A1.382,1.382,0,0,0,166.71,17.27Zm14.248-1.455a6.337,6.337,0,0,1-1.108,3.911,3.554,3.554,0,0,1-2.993,1.47,3.292,3.292,0,0,1-2.588-1.113v4.98h-2.822V10.434h2.617l.1,1.035a3.317,3.317,0,0,1,2.676-1.23,3.578,3.578,0,0,1,3.037,1.445,6.509,6.509,0,0,1,1.084,3.984Zm-2.822-.205a4.158,4.158,0,0,0-.522-2.275,1.7,1.7,0,0,0-1.519-.8,1.848,1.848,0,0,0-1.826,1.016v4.326a1.879,1.879,0,0,0,1.846,1.045Q178.136,18.92,178.136,15.609Zm10.508-2.529A7.667,7.667,0,0,0,187.628,13a2.067,2.067,0,0,0-2.1,1.084V21h-2.822V10.434h2.666l.078,1.26a2.615,2.615,0,0,1,2.354-1.455,2.957,2.957,0,0,1,.879.127ZM192.979,21h-2.832V10.434h2.832Zm-3-13.3a1.39,1.39,0,0,1,.425-1.045,1.831,1.831,0,0,1,2.31,0,1.382,1.382,0,0,1,.43,1.045,1.386,1.386,0,0,1-.435,1.055,1.81,1.81,0,0,1-2.295,0A1.386,1.386,0,0,1,189.981,7.7Zm7.92,2.734.088,1.221a3.689,3.689,0,0,1,3.037-1.416,3.066,3.066,0,0,1,2.5.986,4.6,4.6,0,0,1,.84,2.949V21h-2.822V14.242a1.831,1.831,0,0,0-.391-1.3,1.749,1.749,0,0,0-1.3-.405,1.942,1.942,0,0,0-1.787,1.016V21h-2.822V10.434Zm11.982-2.6v2.6h1.807V12.5h-1.807v5.273a1.259,1.259,0,0,0,.225.84,1.128,1.128,0,0,0,.859.254,4.5,4.5,0,0,0,.83-.068v2.139a5.81,5.81,0,0,1-1.709.254q-2.969,0-3.027-3V12.5h-1.543v-2.07h1.543v-2.6Z" transform="translate(635 7217)" fill="#12263f"/>
    <path id="Icon_awesome-arrow-right" data-name="Icon awesome-arrow-right" d="M16.021,5.107,17.888,3.24a2.01,2.01,0,0,1,2.851,0l16.349,16.34a2.01,2.01,0,0,1,0,2.851L20.739,38.78a2.01,2.01,0,0,1-2.851,0l-1.867-1.867a2.021,2.021,0,0,1,.034-2.885l10.134-9.655H2.018A2.014,2.014,0,0,1,0,22.356V19.665a2.014,2.014,0,0,1,2.018-2.018h24.17L16.054,7.992A2.006,2.006,0,0,1,16.021,5.107Z" transform="translate(944.154 7404.978)" fill="#993a2b"/>
    <path id="Icon_awesome-arrow-right-2" data-name="Icon awesome-arrow-right" d="M16.021,5.107,17.888,3.24a2.01,2.01,0,0,1,2.851,0l16.349,16.34a2.01,2.01,0,0,1,0,2.851L20.739,38.78a2.01,2.01,0,0,1-2.851,0l-1.867-1.867a2.021,2.021,0,0,1,.034-2.885l10.134-9.655H2.018A2.014,2.014,0,0,1,0,22.356V19.665a2.014,2.014,0,0,1,2.018-2.018h24.17L16.054,7.992A2.006,2.006,0,0,1,16.021,5.107Z" transform="translate(520.745 7404.978)" fill="#993a2b"/>
    <path id="Trazado_172657" data-name="Trazado 172657" d="M10,0H330a10,10,0,0,1,10,10V329a10,10,0,0,1-10,10H10A10,10,0,0,1,0,329V10A10,10,0,0,1,10,0Z" transform="translate(583 7256)" fill="#fff5f3"/>
    <path id="Trazado_172658" data-name="Trazado 172658" d="M29.2,6.12H26V15H24.7V6.12H21.507V5.047h7.7Zm4.348,9.017a3.232,3.232,0,0,1-2.447-.988,3.666,3.666,0,0,1-.943-2.642v-.232a4.438,4.438,0,0,1,.42-1.965,3.28,3.28,0,0,1,1.176-1.354,2.956,2.956,0,0,1,1.637-.489,2.77,2.77,0,0,1,2.242.95,4.114,4.114,0,0,1,.8,2.721v.526H31.426a2.629,2.629,0,0,0,.639,1.767,2.009,2.009,0,0,0,1.555.673,2.2,2.2,0,0,0,1.135-.273,2.851,2.851,0,0,0,.813-.725l.772.6A3.106,3.106,0,0,1,33.552,15.137Zm-.157-6.631a1.687,1.687,0,0,0-1.285.557,2.708,2.708,0,0,0-.643,1.562h3.705v-.1a2.409,2.409,0,0,0-.52-1.494A1.588,1.588,0,0,0,33.395,8.506ZM42.466,15a2.657,2.657,0,0,1-.178-.779,2.822,2.822,0,0,1-2.105.916,2.611,2.611,0,0,1-1.794-.619,2,2,0,0,1-.7-1.569,2.091,2.091,0,0,1,.878-1.794,4.142,4.142,0,0,1,2.471-.639h1.23V9.935a1.42,1.42,0,0,0-.4-1.056A1.593,1.593,0,0,0,40.7,8.485a1.844,1.844,0,0,0-1.135.342,1.007,1.007,0,0,0-.458.827H37.838a1.745,1.745,0,0,1,.393-1.07A2.683,2.683,0,0,1,39.3,7.768a3.588,3.588,0,0,1,1.48-.3,2.924,2.924,0,0,1,2,.639,2.306,2.306,0,0,1,.752,1.76v3.4a4.162,4.162,0,0,0,.26,1.62V15Zm-2.1-.964a2.223,2.223,0,0,0,1.128-.308,1.861,1.861,0,0,0,.772-.8V11.411h-.991q-2.324,0-2.324,1.36a1.151,1.151,0,0,0,.4.93A1.524,1.524,0,0,0,40.367,14.036ZM46.7,7.6l.034.82a2.732,2.732,0,0,1,2.194-.957,2.115,2.115,0,0,1,2.112,1.189,2.8,2.8,0,0,1,.96-.861,2.837,2.837,0,0,1,1.4-.328q2.434,0,2.475,2.577V15H54.613V10.119a1.7,1.7,0,0,0-.362-1.186,1.6,1.6,0,0,0-1.217-.393,1.677,1.677,0,0,0-1.169.42,1.706,1.706,0,0,0-.54,1.131V15H50.054V10.153A1.411,1.411,0,0,0,48.475,8.54a1.692,1.692,0,0,0-1.7,1.06V15H45.508V7.6Z" transform="translate(714 7266)" fill="#12263f"/>
    <g id="Grupo_27482" data-name="Grupo 27482" transform="translate(640.095 7295.195)">
      <g id="Grupo_27466" data-name="Grupo 27466" transform="translate(9.425 8.929)">
        <path id="Trazado_26748" data-name="Trazado 26748" d="M82.337,66.943s1.756-1.612,5.1,1.305L89,65.827A4.485,4.485,0,0,0,82.337,66.943Z" transform="translate(-82.337 -59.875)" fill="#ff6148"/>
        <path id="Trazado_26749" data-name="Trazado 26749" d="M89.808,57.861s-2.078,2.581.914,5.522L88.7,65.421S84.075,59.749,89.808,57.861Z" transform="translate(-83.676 -57.861)" fill="#ff6148"/>
      </g>
      <path id="Trazado_26750" data-name="Trazado 26750" d="M78.962,150.937a17.747,17.747,0,0,1,9.364-7.161l13.713-5.082h13.09l13.708,5.082a17.753,17.753,0,0,1,9.365,7.161Z" transform="translate(-71.93 -72.455)" fill="#a4dbf7"/>
      <path id="Trazado_26751" data-name="Trazado 26751" d="M144.52,179.576H165.7c0-3.619-.236-8.774-.236-8.774-1.245-21.663-17.033-25.069-17.033-25.069-12.31-2.981-5.6,16.06-5.6,16.06C142.514,166.381,143.2,172.553,144.52,179.576Z" transform="translate(-89.987 -74.411)" fill="#993a2b"/>
      <g id="Grupo_27467" data-name="Grupo 27467" transform="translate(27.668 53.382)">
        <rect id="Rectngulo_5812" data-name="Rectngulo 5812" width="17.971" height="17.521" fill="#ffe7e3"/>
      </g>
      <g id="Grupo_27468" data-name="Grupo 27468" transform="translate(27.668 53.382)">
        <path id="Trazado_26752" data-name="Trazado 26752" d="M126.04,128.7V120.56H108.069v4.033C113.195,128.86,119.37,129.4,126.04,128.7Z" transform="translate(-108.069 -120.56)" fill="#ffc8bf"/>
      </g>
      <path id="Trazado_26753" data-name="Trazado 26753" d="M134.483,177.991c.345-9.447.24-12.042.155-15.265-.188-7.179-1.723-13.245-6.454-18.573l-.023-.006L115.35,139.97s2.694,4.715-9.08,4.715c0,0-7.756-.3-8.889-4.715l-13.01,4.177s-11.122,2.735-13.029,14.442l6.538,12.022-.233,7.38Z" transform="translate(-69.713 -72.827)" fill="#cc4d39"/>
      <g id="Grupo_27469" data-name="Grupo 27469" transform="translate(12.096 0)">
        <path id="Trazado_26754" data-name="Trazado 26754" d="M148.821,81.911c.511-4.03-.347-7.89-.3-11.861.029-2.665-.492-6.687-3.806-7.025-4.591-.469-6.009,7.46-6.279,10.9-.374,4.737.8,9.856,1.714,14.491.329,1.674.295,5.019,2.179,5.828,1.612.691,3.259-.937,4.083-2.148C148.393,89.17,148.4,85.284,148.821,81.911Z" transform="translate(-101.312 -50.429)" fill="#ff6148"/>
        <path id="Trazado_26755" data-name="Trazado 26755" d="M132.716,99.1c-1.816,7.107-5.015,9.065-5.015,9.065l-4.291.837c-2.468-.313-6.726-1.319-6.726-1.319-9.8-3.332-12.64-4.231-14.159-7.956-.064-.157-7.725-26.751-7.725-26.751-1.253-13.687,13.074-16.535,15.237-16.892,2.14-.494,15.781-4.285,19.811,8.855A71.367,71.367,0,0,1,132.716,99.1Z" transform="translate(-88.613 -48.159)" fill="#ffe7e3"/>
        <path id="Trazado_26756" data-name="Trazado 26756" d="M134.714,48.806c.776,4.25.05,10.131-3.243,12.845-3.575,2.944-6.644,2.144-10.947,3.1-4.473.993-9.05,1.387-13.546,2.257-3.149.61-6.783.959-8.232,4.3a22.584,22.584,0,0,0-1,14.474c1.073,3.583,1.4,7.067,2.58,11.731a41.51,41.51,0,0,1-7.22-8.269c-2.026-3.564-2.026-3.564-4.311-9.764-1.34-3.634-2.5-6.83-2.671-10.577-.223-4.833,2.121-6.94,4.7-11.377a17.468,17.468,0,0,1,10.263-8.383s22.492,1.263,22.069-3.874c0,0,5.4,1.379,4.374,4.971,0,0,5.651-1.032,4.452-4.971A5.273,5.273,0,0,1,134.714,48.806Z" transform="translate(-86.105 -45.267)" fill="#ff6148"/>
        <path id="Trazado_26757" data-name="Trazado 26757" d="M100.962,99.818s-2.423-5.278-6.23-2.151c0,0-1.733,1.352.4,4.885,0,0,3.1,5.077,6.816,2.264Z" transform="translate(-88.423 -60.228)" fill="#ffe7e3"/>
        <path id="Trazado_26758" data-name="Trazado 26758" d="M101.454,83.746s.016,9.449,1.752,14.461l-1.841.365s-.968-6.48-4.3-6.557Z" transform="translate(-89.293 -56.465)" fill="#ff6148"/>
      </g>
      <path id="Trazado_26759" data-name="Trazado 26759" d="M88.847,180.062h-19.8c.006,0,.069-4.7.079-5.035A93.724,93.724,0,0,1,70.4,161.194c1.19-6.512,4.352-12.286,11.313-13.941,3.185-.758,6.018,1.171,7.744,3.792C89.454,151.044,92.6,154.93,88.847,180.062Z" transform="translate(-69.044 -74.898)" fill="#993a2b"/>
    </g>
    <g id="Grupo_27483" data-name="Grupo 27483" transform="translate(793.86 7295.195)">
      <path id="Trazado_26760" data-name="Trazado 26760" d="M299.117,113.052c-3.263-1.185-5.32-3.911-9.194-3.57-6.89.608-11.778,8.353-18.41,3.1-8.026-6.364-5.918-44.643-2.438-53.313,2.951-7.354,8.391-.165,16.154-2.635,9.02-2.87,16.8,4.247,21.459,11.637a44.574,44.574,0,0,1,6.636,26.52C312.662,103.129,311.155,117.423,299.117,113.052Z" transform="translate(-256.2 -46.766)" fill="#ff6148"/>
      <g id="Grupo_27471" data-name="Grupo 27471" transform="translate(53.579 75.74)">
        <path id="Trazado_26761" data-name="Trazado 26761" d="M347.883,180.871H330.971l-3.024-12.211s-2.458-18.535,10.251-18.794c0,0,6.6,4.625,8.394,15.5A103.511,103.511,0,0,1,347.883,180.871Z" transform="translate(-327.756 -149.866)" fill="#ff6148"/>
      </g>
      <g id="Grupo_27472" data-name="Grupo 27472" transform="translate(0 78.74)">
        <path id="Trazado_26762" data-name="Trazado 26762" d="M267.152,182.1l2.281-9.211s2.458-18.535-10.252-18.794c0,0-7.622,5.552-6.954,28.005h14.925" transform="translate(-252.186 -154.097)" fill="#ff6148"/>
      </g>
      <g id="Grupo_27473" data-name="Grupo 27473" transform="translate(27.741 48.944)">
        <rect id="Rectngulo_5813" data-name="Rectngulo 5813" width="15.431" height="22.59" fill="#ffe7e3"/>
      </g>
      <g id="Grupo_27474" data-name="Grupo 27474" transform="translate(27.741 48.944)">
        <path id="Trazado_26763" data-name="Trazado 26763" d="M306.743,121.291v-9.22h-15.43v13.281C296.4,125.2,302.443,124.276,306.743,121.291Z" transform="translate(-291.313 -112.071)" fill="#ffc8bf"/>
      </g>
      <path id="Trazado_26764" data-name="Trazado 26764" d="M262.465,149.318a16.883,16.883,0,0,1,8.9-6.81l13.041-4.831h12.446l15.944,4.831a16.881,16.881,0,0,1,8.906,6.81Z" transform="translate(-255.177 -70.579)" fill="#ffe7e3"/>
      <path id="Trazado_26765" data-name="Trazado 26765" d="M264.689,177.794h51.378l-.328-9.652,7.555-11.432a16.769,16.769,0,0,0-11.462-13.732L299.275,139.4s.749,4.088-9.612,4.088c0,0-8.323,0-9.318-4.2l-9.945,3.685a21.1,21.1,0,0,0-11.267,9.593l5.556,15.57Z" transform="translate(-254.207 -71.049)" fill="#ff6148"/>
      <path id="Trazado_26766" data-name="Trazado 26766" d="M302.5,96.509a10.175,10.175,0,0,1-2.291,3.341,28.258,28.258,0,0,1-8.846,5.814c-4.035,1.655-10.126,1.867-13.333-1.456-2.6-2.694-4.024-6.774-5.152-10.273-2.194-6.8-2.166-14.236-1.608-21.3.128-1.611.291-3.224.559-4.819,2.511-15.41,15.695-15.376,15.695-15.376,9.956-.433,19.044,4.271,20.573,14.763.588,4.018-.186,8.333-.389,12.351a32.33,32.33,0,0,1-1.456,8.714C305.289,91.143,303.7,93.736,302.5,96.509Z" transform="translate(-257.646 -45.766)" fill="#ffe7e3"/>
      <path id="Trazado_26767" data-name="Trazado 26767" d="M269.206,78.991c-3.721-11.522-.719-25.069,3.729-29.307,12.6-12.018,35.865-7.444,42.975,11.343,2.2,5.8,1.165,27.441.169,34.093-1.333,8.911-4.609,15.016-11.376,15.016.181-7.347-.383-15.488.268-24.471.647-8.913-.539-9.132-7.956-13.279a22.077,22.077,0,0,1-8.125-7.564c-2.836-4.145-.7-5.595-6.316-5.407C282.574,59.415,269.526,58.97,269.206,78.991Z" transform="translate(-256.65 -43.037)" fill="#ff6148"/>
      <path id="Trazado_26768" data-name="Trazado 26768" d="M317.261,96.492s1.317-5.483,5.533-3.217c0,0,1.9.964.532,4.728,0,0-2,5.417-6.069,3.436Z" transform="translate(-271.122 -57.497)" fill="#ffe7e3"/>
    </g>
    <g id="Grupo_27484" data-name="Grupo 27484" transform="translate(640.095 7441.201)">
      <path id="Trazado_26769" data-name="Trazado 26769" d="M78.962,339.5a17.747,17.747,0,0,1,9.364-7.161l13.713-5.081h13.09l13.708,5.081A17.753,17.753,0,0,1,138.2,339.5Z" transform="translate(-71.93 -260.314)" fill="#a4dbf7"/>
      <path id="Trazado_26770" data-name="Trazado 26770" d="M144.52,368.142H165.7c0-3.618-.236-8.774-.236-8.774C164.224,337.7,148.436,334.3,148.436,334.3c-12.31-2.981-5.6,16.06-5.6,16.06C142.514,354.947,143.2,361.119,144.52,368.142Z" transform="translate(-89.987 -262.27)" fill="#cc4d39"/>
      <g id="Grupo_27476" data-name="Grupo 27476" transform="translate(27.668 54.09)">
        <rect id="Rectngulo_5814" data-name="Rectngulo 5814" width="17.971" height="17.521" fill="#ffe7e3"/>
      </g>
      <g id="Grupo_27477" data-name="Grupo 27477" transform="translate(27.668 54.09)">
        <path id="Trazado_26771" data-name="Trazado 26771" d="M126.04,317.27v-8.143H108.069v4.033C113.195,317.426,119.37,317.968,126.04,317.27Z" transform="translate(-108.069 -309.127)" fill="#ffc8bf"/>
      </g>
      <path id="Trazado_26772" data-name="Trazado 26772" d="M134.483,366.557c.345-9.447.24-12.042.155-15.265-.188-7.178-1.723-13.245-6.454-18.573l-.023-.006-12.811-4.177s2.694,4.715-9.08,4.715c0,0-7.756-.3-8.889-4.715l-13.01,4.177s-11.122,2.735-13.029,14.442l6.538,12.022-.233,7.38Z" transform="translate(-69.713 -260.685)" fill="#ff6148"/>
      <g id="Grupo_27478" data-name="Grupo 27478" transform="translate(12.051)">
        <path id="Trazado_26773" data-name="Trazado 26773" d="M147.248,266.255c0-4.164-.177-8.32-.079-12.48.063-2.659.308-1.974-2.771-2.265-4.268-.406-5.695,7.522-5.994,10.952-.413,4.729.611,9.819,1.4,14.429.283,1.665.206,5,1.95,5.783,1.49.667,3.046-.979,3.829-2.2,1.8-2.8,1.482-7.088,1.6-10.269C147.23,268.889,147.248,267.572,147.248,266.255Z" transform="translate(-101.252 -238.266)" fill="#ff6148"/>
        <path id="Trazado_26774" data-name="Trazado 26774" d="M132.716,287.669c-1.816,7.107-5.015,9.066-5.015,9.066l-4.291.837c-2.468-.313-6.726-1.319-6.726-1.319-9.8-3.332-12.64-4.231-14.159-7.956-.064-.158-7.725-26.751-7.725-26.751-1.253-13.688,13.074-16.536,15.237-16.893,2.14-.493,15.781-4.284,19.811,8.855A71.367,71.367,0,0,1,132.716,287.669Z" transform="translate(-88.568 -236.018)" fill="#ffe7e3"/>
        <path id="Trazado_26775" data-name="Trazado 26775" d="M90.8,251.121c-4.761,2.294-4.924,6.545-4.7,11.377.173,3.747,1.331,6.943,2.671,10.577,2.285,6.2,2.285,6.2,4.311,9.764a41.509,41.509,0,0,0,7.22,8.269c-1.178-4.664-1.507-8.148-2.58-11.731a22.586,22.586,0,0,1,1-14.475s1.085-2.939,5.539-3.777h0l-13.464-10" transform="translate(-86.041 -238.157)" fill="#ff6148"/>
        <path id="Trazado_26776" data-name="Trazado 26776" d="M100.962,288.384s-2.423-5.278-6.23-2.151c0,0-1.733,1.353.4,4.885,0,0,3.1,5.078,6.816,2.264Z" transform="translate(-88.377 -248.086)" fill="#ffe7e3"/>
        <path id="Trazado_26777" data-name="Trazado 26777" d="M101.454,272.313s.016,9.449,1.752,14.46l-1.841.365s-.968-6.48-4.3-6.557Z" transform="translate(-89.248 -244.324)" fill="#ff6148"/>
        <path id="Trazado_26778" data-name="Trazado 26778" d="M136.325,240.589c15.316,15.6-31.031,15.44-31.031,15.44s-4.862,2.247-12.559-10.229c0,0-2.076-9.759,19.84-12.831C112.575,232.969,127.061,231.192,136.325,240.589Z" transform="translate(-87.974 -232.835)" fill="#ff6148"/>
      </g>
      <path id="Trazado_26779" data-name="Trazado 26779" d="M88.847,368.628h-19.8c.006,0,.069-4.7.079-5.035A93.725,93.725,0,0,1,70.4,349.76c1.19-6.511,4.352-12.286,11.313-13.941,3.185-.757,6.018,1.171,7.744,3.792C89.454,339.611,92.6,343.5,88.847,368.628Z" transform="translate(-69.044 -262.756)" fill="#cc4d39"/>
    </g>
    <g id="Grupo_27485" data-name="Grupo 27485" transform="translate(793.867 7443.986)">
      <path id="Trazado_26780" data-name="Trazado 26780" d="M279.719,238.834s-16.536,4.971-14.977,31.149V326.4h18.808Z" transform="translate(-255.816 -237.366)" fill="#ff6148"/>
      <path id="Trazado_26781" data-name="Trazado 26781" d="M283.258,255.752V336.8h35.964V268.526s2.363-26.192-14.823-29.409C304.4,239.117,283.258,235.288,283.258,255.752Z" transform="translate(-261.235 -237.366)" fill="#ff6148"/>
      <rect id="Rectngulo_5815" data-name="Rectngulo 5815" width="25.008" height="12.381" transform="translate(21.12 70.283)" fill="#ff6148"/>
      <path id="Trazado_26782" data-name="Trazado 26782" d="M347.883,369.437H330.971l-3.024-12.211s-2.458-18.534,10.251-18.793c0,0,6.6,4.625,8.394,15.5A103.511,103.511,0,0,1,347.883,369.437Z" transform="translate(-274.184 -266.35)" fill="#ff6148"/>
      <path id="Trazado_26783" data-name="Trazado 26783" d="M267.155,369.832l2.281-9.211s4.043-20.571-8.667-20.83c0,0-9.206,7.588-8.539,30.041h14.925" transform="translate(-252.195 -266.746)" fill="#ff6148"/>
      <rect id="Rectngulo_5816" data-name="Rectngulo 5816" width="15.431" height="22.59" transform="translate(27.734 45.286)" fill="#ffe7e3"/>
      <path id="Trazado_26784" data-name="Trazado 26784" d="M306.743,309.857v-9.22h-15.43v13.282C296.4,313.763,302.443,312.842,306.743,309.857Z" transform="translate(-263.579 -255.351)" fill="#ffc8bf"/>
      <path id="Trazado_26785" data-name="Trazado 26785" d="M262.465,337.884a16.883,16.883,0,0,1,8.9-6.81l13.041-4.83h12.446l15.944,4.83a16.881,16.881,0,0,1,8.906,6.81Z" transform="translate(-255.184 -262.803)" fill="#ff6148"/>
      <path id="Trazado_26786" data-name="Trazado 26786" d="M266.19,356.708v9.652h50.08l-.588-11.209c-.621-21.594,1.793-21.6,1.793-21.6a15.521,15.521,0,0,0-4.143-2.005l-12.557-3.574s-2.722,11.707-13.082,11.707c0,0-8.023-4.321-5.848-11.817l-9.945,3.685a20.965,20.965,0,0,0-7.612,4.774S266.061,337.407,266.19,356.708Z" transform="translate(-255.714 -263.274)" fill="#cc4d39"/>
      <path id="Trazado_26787" data-name="Trazado 26787" d="M302.5,285.076a10.183,10.183,0,0,1-2.291,3.341,28.282,28.282,0,0,1-8.846,5.814c-4.035,1.655-10.126,1.867-13.333-1.457-2.6-2.694-4.024-6.774-5.152-10.273-2.194-6.8-2.166-14.237-1.608-21.3.128-1.612.291-3.225.559-4.82,2.511-15.41,15.695-15.375,15.695-15.375,9.956-.434,19.044,4.27,20.573,14.763.588,4.018-.186,8.333-.389,12.351a32.33,32.33,0,0,1-1.456,8.714C305.289,279.709,303.7,282.3,302.5,285.076Z" transform="translate(-257.653 -237.99)" fill="#ffe7e3"/>
      <path id="Trazado_26788" data-name="Trazado 26788" d="M317.261,285.058s1.317-5.483,5.533-3.217c0,0,1.9.964.532,4.729,0,0-2,5.417-6.069,3.436Z" transform="translate(-271.129 -249.722)" fill="#ffe7e3"/>
      <path id="Trazado_26789" data-name="Trazado 26789" d="M269.977,256.918c-.709-21.151,19.367-20.147,19.367-20.147,19.733.81,20.715,9.749,20.715,9.749,2.388,11.344-1.029,22.363-1.029,22.363-4.194-.915-4.9,4.7-4.9,4.7.44-8.992-.3-9.534-.3-9.534a89.06,89.06,0,0,1-11.015-.754l-.283-6.27-1.543,5.941a100.385,100.385,0,0,1-18.5-2.44s-2.51.177-2.51,7.812Z" transform="translate(-257.364 -236.763)" fill="#ff6148"/>
    </g>
    <path id="Icon_awesome-clipboard-list" data-name="Icon awesome-clipboard-list" d="M28.257,5.382H21.529a5.382,5.382,0,1,0-10.765,0H4.037A4.038,4.038,0,0,0,0,9.419v29.6a4.038,4.038,0,0,0,4.037,4.037h24.22a4.038,4.038,0,0,0,4.037-4.037V9.419A4.038,4.038,0,0,0,28.257,5.382ZM8.073,35.658a2.018,2.018,0,1,1,2.018-2.018A2.014,2.014,0,0,1,8.073,35.658Zm0-8.073a2.018,2.018,0,1,1,2.018-2.018A2.014,2.014,0,0,1,8.073,27.584Zm0-8.073a2.018,2.018,0,1,1,2.018-2.018A2.014,2.014,0,0,1,8.073,19.511ZM16.147,3.364a2.018,2.018,0,1,1-2.018,2.018A2.014,2.014,0,0,1,16.147,3.364ZM26.912,34.312a.675.675,0,0,1-.673.673H14.129a.675.675,0,0,1-.673-.673V32.967a.675.675,0,0,1,.673-.673h12.11a.675.675,0,0,1,.673.673Zm0-8.073a.675.675,0,0,1-.673.673H14.129a.675.675,0,0,1-.673-.673V24.893a.675.675,0,0,1,.673-.673h12.11a.675.675,0,0,1,.673.673Zm0-8.073a.675.675,0,0,1-.673.673H14.129a.675.675,0,0,1-.673-.673V16.82a.675.675,0,0,1,.673-.673h12.11a.675.675,0,0,1,.673.673Z" transform="translate(737.115 7404.037)" fill="#ff6148"/>
    <path id="Icon_ionic-ios-time" data-name="Icon ionic-ios-time" d="M20.868,3.375A17.493,17.493,0,1,0,38.36,20.868,17.49,17.49,0,0,0,20.868,3.375Zm1.177,19.006a1.181,1.181,0,0,1-1.177,1.177H12.794a1.177,1.177,0,1,1,0-2.355h6.9V10.1a1.177,1.177,0,1,1,2.355,0Z" transform="translate(731.347 7460.915)" fill="#ff6148"/>
  </g>
</svg>
