<svg xmlns="http://www.w3.org/2000/svg" width="109.75" height="109.75" viewBox="0 0 109.75 109.75">
  <g id="_x38_2_Workflow" transform="translate(-9.066 -9.066)">
    <g id="Grupo_111614" data-name="Grupo 111614" transform="translate(9.066 9.066)">
      <path id="Trazado_167221" data-name="Trazado 167221" d="M164.22,126.4h-4.733a28.333,28.333,0,0,0-1.509-5.625l4.116-2.366a2.518,2.518,0,0,0,.926-3.43l-2.092-3.658a2.56,2.56,0,0,0-3.452-.926l-4.093,2.389a30.289,30.289,0,0,0-4.116-4.093l2.378-4.116a2.552,2.552,0,0,0-.915-3.452l-3.658-2.1a2.544,2.544,0,0,0-3.43.926l-2.367,4.15a27.673,27.673,0,0,0-5.625-1.544V97.827a2.513,2.513,0,0,0-2.515-2.538h-4.184a2.532,2.532,0,0,0-2.538,2.538v4.721a27.858,27.858,0,0,0-5.6,1.544l-2.389-4.15a2.533,2.533,0,0,0-3.43-.926l-3.624,2.1a2.545,2.545,0,0,0-.926,3.452l2.378,4.116a29.022,29.022,0,0,0-4.116,4.093l-4.116-2.389a2.547,2.547,0,0,0-3.43.926l-2.092,3.658a2.518,2.518,0,0,0,.926,3.43l4.116,2.366A28.333,28.333,0,0,0,102.6,126.4H97.844a2.505,2.505,0,0,0-2.5,2.515V133.1a2.511,2.511,0,0,0,2.5,2.538H102.6a29.194,29.194,0,0,0,1.509,5.625l-4.116,2.355a2.531,2.531,0,0,0-.926,3.441l2.092,3.624a2.526,2.526,0,0,0,3.43.926l4.116-2.389a29.867,29.867,0,0,0,4.116,4.127l-2.378,4.116a2.521,2.521,0,0,0,.926,3.43l3.624,2.092a2.474,2.474,0,0,0,3.43-.926l2.389-4.115a28.553,28.553,0,0,0,5.6,1.509V164.2a2.525,2.525,0,0,0,2.538,2.5h4.184a2.505,2.505,0,0,0,2.515-2.5v-4.756a28.35,28.35,0,0,0,5.625-1.509l2.366,4.115a2.484,2.484,0,0,0,3.43.926l3.658-2.092a2.528,2.528,0,0,0,.915-3.43l-2.378-4.116a29.876,29.876,0,0,0,4.116-4.127l4.093,2.389a2.539,2.539,0,0,0,3.452-.926l2.092-3.624a2.531,2.531,0,0,0-.926-3.441l-4.116-2.355a29.193,29.193,0,0,0,1.509-5.625h4.733a2.515,2.515,0,0,0,2.526-2.538v-4.185a2.51,2.51,0,0,0-2.526-2.515Zm-33.177,15.969A11.367,11.367,0,1,1,142.415,131,11.369,11.369,0,0,1,131.043,142.365Z" transform="translate(-76.168 -76.128)" fill="#f78721"/>
      <path id="Trazado_167222" data-name="Trazado 167222" d="M218.415,180.628v4.2a2.515,2.515,0,0,1-2.529,2.529h-4.735a29.343,29.343,0,0,1-1.507,5.632l4.125,2.349a2.548,2.548,0,0,1,.915,3.444L212.6,202.4a2.554,2.554,0,0,1-3.462.932l-4.089-2.385a30.8,30.8,0,0,1-4.125,4.107l2.385,4.125a2.532,2.532,0,0,1-.915,3.426l-3.659,2.1a2.515,2.515,0,0,1-3.444-.933l-2.35-4.107a29.585,29.585,0,0,1-5.632,1.507v4.753a2.518,2.518,0,0,1-2.511,2.511h-4.2a2.534,2.534,0,0,1-2.529-2.511v-4.753a29.589,29.589,0,0,1-5.6-1.507l-2.385,4.107a2.5,2.5,0,0,1-3.444.933l-3.623-2.1a2.522,2.522,0,0,1-.933-3.426l1.327-2.3A38.721,38.721,0,0,0,206.7,168.45a34.6,34.6,0,0,0-.3-4.735l2.744-1.6a2.555,2.555,0,0,1,3.462.933l2.08,3.641a2.549,2.549,0,0,1-.915,3.444l-4.125,2.367a28.165,28.165,0,0,1,1.507,5.614h4.735a2.511,2.511,0,0,1,2.529,2.511Z" transform="translate(-127.835 -127.851)" opacity="0.12"/>
      <path id="Trazado_167223" data-name="Trazado 167223" d="M412.995,26.327a12.114,12.114,0,1,1-12.114-12.114A12.109,12.109,0,0,1,412.995,26.327Z" transform="translate(-304.388 -13.069)" fill="#e77c6a"/>
      <path id="Trazado_167224" data-name="Trazado 167224" d="M416.9,30.232A12.111,12.111,0,0,1,393.788,35.3a11.916,11.916,0,0,0,5.069,1.116A12.109,12.109,0,0,0,410.971,24.3a11.8,11.8,0,0,0-1.132-5.069A12.087,12.087,0,0,1,416.9,30.232Z" transform="translate(-308.293 -16.974)" opacity="0.1"/>
      <path id="Trazado_167225" data-name="Trazado 167225" d="M38.44,26.327A12.114,12.114,0,1,1,26.326,14.213,12.109,12.109,0,0,1,38.44,26.327Z" transform="translate(-13.068 -13.069)" fill="#475da9"/>
      <path id="Trazado_167226" data-name="Trazado 167226" d="M42.344,30.232A12.111,12.111,0,0,1,19.232,35.3,11.916,11.916,0,0,0,24.3,36.417,12.109,12.109,0,0,0,36.415,24.3a11.8,11.8,0,0,0-1.132-5.069A12.087,12.087,0,0,1,42.344,30.232Z" transform="translate(-16.973 -16.974)" opacity="0.1"/>
      <path id="Trazado_167227" data-name="Trazado 167227" d="M412.995,400.883a12.114,12.114,0,1,1-12.114-12.114A12.109,12.109,0,0,1,412.995,400.883Z" transform="translate(-304.388 -304.389)" fill="#f14f4a"/>
      <path id="Trazado_167228" data-name="Trazado 167228" d="M416.9,404.788a12.111,12.111,0,0,1-23.112,5.069,11.916,11.916,0,0,0,5.069,1.116,12.109,12.109,0,0,0,12.114-12.114,11.8,11.8,0,0,0-1.132-5.069,12.087,12.087,0,0,1,7.061,11Z" transform="translate(-308.293 -308.295)" opacity="0.1"/>
      <path id="Trazado_167229" data-name="Trazado 167229" d="M38.439,400.883a12.114,12.114,0,1,1-12.114-12.114A12.109,12.109,0,0,1,38.439,400.883Z" transform="translate(-13.068 -304.389)" fill="#0e9c4a"/>
      <path id="Trazado_167230" data-name="Trazado 167230" d="M42.344,404.788a12.111,12.111,0,0,1-23.112,5.069,11.916,11.916,0,0,0,5.069,1.116,12.109,12.109,0,0,0,12.114-12.114,11.8,11.8,0,0,0-1.132-5.069,12.087,12.087,0,0,1,7.061,11Z" transform="translate(-16.973 -308.295)" opacity="0.1"/>
      <path id="Trazado_167231" data-name="Trazado 167231" d="M198.37,43.934l-1.691-5.022a1.143,1.143,0,0,0-2.166.73l.783,2.325c-15.158-7.581-29.413-7.133-42.407,1.375a1.144,1.144,0,0,0,1.253,1.914C166.61,37.091,179.8,36.7,194.388,44.07l-2.479.835a1.143,1.143,0,1,0,.73,2.166l5.013-1.688a1.067,1.067,0,0,0,.712-.772C198.447,44.324,198.444,44.45,198.37,43.934Z" transform="translate(-120.526 -30.483)"/>
      <path id="Trazado_167232" data-name="Trazado 167232" d="M197.949,431.813A1.144,1.144,0,1,0,196.7,429.9c-12.47,8.168-25.662,8.552-40.247,1.187l2.478-.835a1.143,1.143,0,1,0-.73-2.166l-4.961,1.671a1.4,1.4,0,0,0-.685.544,1.365,1.365,0,0,0-.087.9c.068.217,1.728,5.161,1.693,5.045a1.143,1.143,0,1,0,2.166-.73l-.782-2.324C169.9,440.368,184.253,440.778,197.949,431.813Z" transform="translate(-120.562 -334.921)"/>
      <path id="Trazado_167233" data-name="Trazado 167233" d="M430.254,191.911a1.143,1.143,0,1,0-2.166.73l1.688,5.013a1.134,1.134,0,0,0,.668.69,1.062,1.062,0,0,0,.78.027l5.021-1.69a1.143,1.143,0,1,0-.73-2.166l-2.324.782c7.582-15.158,7.133-29.413-1.375-42.407a1.144,1.144,0,1,0-1.914,1.253c8.165,12.47,8.551,25.661,1.187,40.246Z" transform="translate(-334.924 -120.527)"/>
      <path id="Trazado_167234" data-name="Trazado 167234" d="M44.9,158.93a1.143,1.143,0,0,0,2.166-.73l-1.67-4.96v0a1.352,1.352,0,0,0-.542-.683c-.722-.243-.808-.079-.922-.084l-5.021,1.69a1.143,1.143,0,0,0,.73,2.166l2.326-.783c-7.583,15.158-7.133,29.414,1.374,42.408a1.144,1.144,0,1,0,1.914-1.253c-8.165-12.47-8.551-25.66-1.188-40.245Z" transform="translate(-30.481 -120.563)"/>
      <path id="Trazado_167235" data-name="Trazado 167235" d="M396.879,9.066a13.257,13.257,0,1,0,13.257,13.258A13.273,13.273,0,0,0,396.879,9.066Zm0,24.228a10.971,10.971,0,1,1,10.97-10.97A10.983,10.983,0,0,1,396.879,33.294Z" transform="translate(-300.386 -9.066)"/>
      <path id="Trazado_167236" data-name="Trazado 167236" d="M396.879,410.139a13.257,13.257,0,1,0-13.258-13.257A13.272,13.272,0,0,0,396.879,410.139Zm0-24.227a10.97,10.97,0,1,1-10.971,10.97A10.983,10.983,0,0,1,396.879,385.913Z" transform="translate(-300.386 -300.389)"/>
      <path id="Trazado_167237" data-name="Trazado 167237" d="M9.066,22.324A13.257,13.257,0,1,0,22.324,9.066,13.272,13.272,0,0,0,9.066,22.324ZM22.324,11.352A10.971,10.971,0,1,1,11.352,22.324,10.983,10.983,0,0,1,22.324,11.352Z" transform="translate(-9.066 -9.066)"/>
      <path id="Trazado_167238" data-name="Trazado 167238" d="M212.2,199.677a12.511,12.511,0,1,0,12.515,12.515A12.529,12.529,0,0,0,212.2,199.677Zm0,22.735a10.224,10.224,0,1,1,10.229-10.22A10.235,10.235,0,0,1,212.2,222.412Z" transform="translate(-157.326 -157.318)"/>
      <path id="Trazado_167239" data-name="Trazado 167239" d="M157.916,147.249l2.094-3.628a3.675,3.675,0,0,0-1.351-5l-3.285-1.879a30.489,30.489,0,0,0,1.066-3.964h3.777a3.68,3.68,0,0,0,3.67-3.682V124.91a3.668,3.668,0,0,0-3.67-3.657h-3.775a29.706,29.706,0,0,0-1.066-3.969l3.274-1.882a3.663,3.663,0,0,0,1.359-4.994l-2.091-3.656A3.7,3.7,0,0,0,152.9,105.4l-3.271,1.909a31.03,31.03,0,0,0-2.892-2.884l1.9-3.3a3.706,3.706,0,0,0-1.34-5.006l-3.664-2.107a3.689,3.689,0,0,0-4.986,1.354l-1.886,3.306a28.945,28.945,0,0,0-3.97-1.086V93.827a3.674,3.674,0,0,0-3.658-3.681h-4.185a3.685,3.685,0,0,0-3.681,3.681V97.6a29.241,29.241,0,0,0-3.951,1.086l-1.9-3.3a3.682,3.682,0,0,0-5-1.351l-3.625,2.1a3.7,3.7,0,0,0-1.341,5.012l1.9,3.286a30.312,30.312,0,0,0-2.9,2.884l-3.3-1.915a3.706,3.706,0,0,0-4.987,1.352l-2.09,3.655a3.663,3.663,0,0,0,1.346,4.992l3.285,1.888a29.6,29.6,0,0,0-1.067,3.969h-3.8A3.656,3.656,0,0,0,90.2,124.91v4.184a3.668,3.668,0,0,0,3.646,3.682h3.8a30.43,30.43,0,0,0,1.067,3.964l-3.284,1.879a3.673,3.673,0,0,0-1.349,5l2.1,3.633a3.684,3.684,0,0,0,4.988,1.335l3.287-1.909a30.647,30.647,0,0,0,2.9,2.91l-1.9,3.291a3.662,3.662,0,0,0,1.344,4.992l3.619,2.089a3.616,3.616,0,0,0,4.995-1.34l1.909-3.289a29.739,29.739,0,0,0,3.95,1.065v3.8a3.669,3.669,0,0,0,3.681,3.647h4.184a3.657,3.657,0,0,0,3.659-3.647v-3.8a29.564,29.564,0,0,0,3.968-1.066l1.887,3.28a3.627,3.627,0,0,0,4.99,1.353l3.663-2.094a3.659,3.659,0,0,0,1.333-4.992l-1.9-3.291a30.765,30.765,0,0,0,2.9-2.908l3.277,1.912A3.682,3.682,0,0,0,157.916,147.249Zm-9.421-2.759a28.545,28.545,0,0,1-3.959,3.969,1.143,1.143,0,0,0-.262,1.454l2.378,4.115a1.386,1.386,0,0,1-.491,1.867l-3.677,2.1a1.34,1.34,0,0,1-1.853-.515l-2.367-4.115a1.142,1.142,0,0,0-1.4-.5,27.377,27.377,0,0,1-5.4,1.448,1.142,1.142,0,0,0-.965,1.129V160.2a1.368,1.368,0,0,1-1.372,1.361h-4.185a1.38,1.38,0,0,1-1.394-1.361v-4.756a1.143,1.143,0,0,0-.962-1.129,27.567,27.567,0,0,1-5.378-1.448,1.143,1.143,0,0,0-1.394.495l-2.4,4.138a1.33,1.33,0,0,1-1.857.488l-3.628-2.094a1.376,1.376,0,0,1-.5-1.866l2.378-4.116a1.143,1.143,0,0,0-.262-1.454,28.5,28.5,0,0,1-3.96-3.969,1.145,1.145,0,0,0-1.458-.265l-4.112,2.388a1.385,1.385,0,0,1-1.869-.508l-2.09-3.619a1.387,1.387,0,0,1,.5-1.881l4.116-2.354a1.145,1.145,0,0,0,.5-1.394,28.184,28.184,0,0,1-1.451-5.4,1.143,1.143,0,0,0-1.129-.961H93.841a1.363,1.363,0,0,1-1.36-1.4V124.91a1.367,1.367,0,0,1,1.36-1.371H98.6a1.143,1.143,0,0,0,1.129-.964,27.254,27.254,0,0,1,1.449-5.4,1.143,1.143,0,0,0-.5-1.4l-4.125-2.372a1.375,1.375,0,0,1-.494-1.866l2.082-3.641a1.4,1.4,0,0,1,1.873-.521l4.115,2.389a1.144,1.144,0,0,0,1.456-.262,27.945,27.945,0,0,1,3.954-3.932,1.142,1.142,0,0,0,.27-1.459l-2.374-4.108a1.4,1.4,0,0,1,.5-1.9l3.606-2.093a1.385,1.385,0,0,1,1.883.5l2.389,4.15a1.144,1.144,0,0,0,1.408.494,26.833,26.833,0,0,1,5.373-1.479,1.142,1.142,0,0,0,.954-1.128V93.827a1.4,1.4,0,0,1,1.394-1.394h4.185a1.369,1.369,0,0,1,1.372,1.394v4.721a1.143,1.143,0,0,0,.957,1.128,26.669,26.669,0,0,1,5.393,1.479,1.144,1.144,0,0,0,1.41-.5l2.361-4.138a1.406,1.406,0,0,1,1.873-.512l3.65,2.1a1.406,1.406,0,0,1,.5,1.895l-2.378,4.116a1.142,1.142,0,0,0,.27,1.459,28.829,28.829,0,0,1,3.959,3.94,1.141,1.141,0,0,0,1.452.252l4.073-2.377a1.416,1.416,0,0,1,1.9.494l2.094,3.662a1.374,1.374,0,0,1-.507,1.868l-4.114,2.367a1.143,1.143,0,0,0-.5,1.4,27.359,27.359,0,0,1,1.448,5.4,1.142,1.142,0,0,0,1.129.965h4.734a1.362,1.362,0,0,1,1.383,1.371V129.1a1.374,1.374,0,0,1-1.383,1.4h-4.734a1.143,1.143,0,0,0-1.129.962,28.244,28.244,0,0,1-1.45,5.4,1.144,1.144,0,0,0,.5,1.393l4.116,2.354a1.388,1.388,0,0,1,.5,1.877l-2.1,3.635a1.4,1.4,0,0,1-1.88.5l-4.093-2.389A1.138,1.138,0,0,0,148.5,144.491Z" transform="translate(-72.166 -72.128)"/>
      <path id="Trazado_167240" data-name="Trazado 167240" d="M22.324,410.139A13.257,13.257,0,1,0,9.066,396.883,13.272,13.272,0,0,0,22.324,410.139Zm0-24.227a10.97,10.97,0,1,1-10.971,10.97,10.983,10.983,0,0,1,10.971-10.97Z" transform="translate(-9.066 -300.389)"/>
    </g>
  </g>
</svg>
