<svg xmlns="http://www.w3.org/2000/svg" width="820" height="249.554" viewBox="0 0 820 249.554">
  <g id="Grupo_128083" data-name="Grupo 128083" transform="translate(-390 -3455)">
    <path id="Trazado_165793" data-name="Trazado 165793" d="M492.685,867.531H330.17V763.776H492.685c19.273,0,34.9,13.244,34.9,29.582v44.591C527.583,854.287,511.958,867.531,492.685,867.531Z" transform="translate(109.25 2696.622)" fill="#ffb476"/>
    <path id="Trazado_165794" data-name="Trazado 165794" d="M296.441,870.23V792.858H278.654V761.077h58.165V870.23Z" transform="translate(114.044 2696.622)" fill="#ffb476"/>
    <path id="Trazado_165795" data-name="Trazado 165795" d="M334.12,763.776V867.531H299.14V790.159H281.353V763.776H334.12m5.4-5.4H275.956v37.179h17.787v77.372h45.775V758.378Z" transform="translate(114.044 2696.622)" fill="#fff"/>
    <path id="Trazado_165796" data-name="Trazado 165796" d="M748.329,867.531H610.565V763.776H748.329a29.582,29.582,0,0,1,29.582,29.582v44.591A29.582,29.582,0,0,1,748.329,867.531Z" transform="translate(149.329 2696.622)" fill="#ffb476"/>
    <path id="Trazado_165797" data-name="Trazado 165797" d="M562.574,870.17v-24.8l37.509-34.693a27.967,27.967,0,0,0,5.808-6.924,11.33,11.33,0,0,0,1.315-5.05,4.6,4.6,0,0,0-1.582-3.837c-1.2-.991-3.093-1.494-5.633-1.494a13.758,13.758,0,0,0-7.325,2.08,13.461,13.461,0,0,0-5.226,5.85l-1.164,2.406-30.607-15.3,1.274-2.39a45.111,45.111,0,0,1,17.985-18.228c7.8-4.409,17.31-6.645,28.251-6.645a57.28,57.28,0,0,1,22.326,4.12A36.061,36.061,0,0,1,641.113,777.3a30.507,30.507,0,0,1,5.714,18.206,38.337,38.337,0,0,1-3.815,16.874c-2.544,5.239-7.269,10.931-14.446,17.4l-9.437,8.587h30.016v31.8Z" transform="translate(149.329 2696.622)" fill="#ffb476"/>
    <path id="Trazado_165798" data-name="Trazado 165798" d="M603.179,763.776a54.414,54.414,0,0,1,21.3,3.912,33.325,33.325,0,0,1,14.492,11.158,27.8,27.8,0,0,1,5.216,16.666,35.55,35.55,0,0,1-3.55,15.722q-3.554,7.318-13.839,16.592l-14.491,13.186h34.2v26.519H565.213V846.519l36.662-33.909q4.782-4.488,6.375-7.679a13.877,13.877,0,0,0,1.595-6.232,7.205,7.205,0,0,0-2.536-5.868q-2.537-2.1-7.318-2.1a16.465,16.465,0,0,0-8.7,2.464,16.175,16.175,0,0,0-6.231,6.955l-25.793-12.9a42.31,42.31,0,0,1,16.954-17.171q11.157-6.3,26.953-6.3m0-5.277c-11.4,0-21.343,2.35-29.549,6.986a47.7,47.7,0,0,0-19.015,19.284l-2.549,4.78,4.846,2.422,25.793,12.9,4.781,2.391,2.329-4.812a10.92,10.92,0,0,1,4.222-4.745,11.181,11.181,0,0,1,5.954-1.7,6.636,6.636,0,0,1,3.952.89c.232.192.625.517.625,1.8a8.748,8.748,0,0,1-1.038,3.872c-.439.877-1.709,2.852-5.267,6.192L561.63,842.645l-1.694,1.567v28.6h91.848V835.735H625.948l4.4-4.006c7.415-6.684,12.339-12.639,15.034-18.19a40.948,40.948,0,0,0,4.081-18.027,33.1,33.1,0,0,0-6.211-19.748,38.658,38.658,0,0,0-16.723-12.938,59.9,59.9,0,0,0-23.353-4.327Z" transform="translate(149.329 2696.622)" fill="#fff"/>
    <path id="Trazado_165799" data-name="Trazado 165799" d="M1041.886,871.072H893.87V767.317h148.016c17.554,0,31.785,13.245,31.785,29.583v44.59C1073.671,857.828,1059.44,871.072,1041.886,871.072Z" transform="translate(136.329 2696.622)" fill="#ffb476"/>
    <path id="Trazado_165800" data-name="Trazado 165800" d="M880.337,873.711a103.43,103.43,0,0,1-21.935-2.379,69.407,69.407,0,0,1-19.356-7.091l-2.116-1.193,13.821-30.06,2.511,1.46a51.123,51.123,0,0,0,12.746,5.235,52.044,52.044,0,0,0,13.17,1.8,17.084,17.084,0,0,0,8.273-1.692,3.722,3.722,0,0,0,2.274-3.5c0-1.067,0-4.316-9.388-4.316H864.222V807.249l11.281-11.5H842.92v-31.07h80.92V789.41l-16.515,16.77a33.548,33.548,0,0,1,15.111,10.1,30.492,30.492,0,0,1,6.911,20.013,34,34,0,0,1-5.409,18.44c-3.59,5.671-9.154,10.314-16.536,13.8C900.12,871.968,891.015,873.711,880.337,873.711Z" transform="translate(136.329 2696.622)" fill="#ffb476"/>
    <path id="Trazado_165801" data-name="Trazado 165801" d="M921.2,767.317v21.012l-18.838,19.128q11.739,2.9,18.041,10.506a27.8,27.8,0,0,1,6.3,18.33,31.26,31.26,0,0,1-5,17.028q-5,7.9-15.434,12.825t-25.938,4.927a100.307,100.307,0,0,1-21.374-2.319,66.516,66.516,0,0,1-18.621-6.811l11.593-25.214a53.563,53.563,0,0,0,13.4,5.506,54.423,54.423,0,0,0,13.839,1.884,19.51,19.51,0,0,0,9.564-2.029,6.342,6.342,0,0,0,3.623-5.8q0-6.956-12.027-6.955H866.86V808.327l14.926-15.217H845.558V767.317H921.2m5.277-5.277h-86.2v36.348h28.936l-6.124,6.243-1.51,1.539v28.446h18.754c5.548,0,6.69,1.253,6.706,1.273h0a1.3,1.3,0,0,1,.044.4c0,.392,0,.675-.924,1.193a14.6,14.6,0,0,1-6.986,1.356,49.4,49.4,0,0,1-12.5-1.711,48.45,48.45,0,0,1-12.091-4.964l-5.022-2.921-2.427,5.278-11.592,25.215-2.03,4.414,4.232,2.387a72.064,72.064,0,0,0,20.091,7.37,106.019,106.019,0,0,0,22.5,2.44c11.07,0,20.554-1.828,28.191-5.432,7.842-3.7,13.777-8.673,17.639-14.774a36.591,36.591,0,0,0,5.818-19.851,33.057,33.057,0,0,0-7.518-21.7,34.73,34.73,0,0,0-12.485-9.385l12.979-13.179,1.517-1.54V762.04Z" transform="translate(136.329 2696.622)" fill="#fff"/>
    <path id="Trazado_165802" data-name="Trazado 165802" d="M479.58,1002.163H326.355V898.408H479.58c18.172,0,32.9,13.245,32.9,29.583v44.59C512.482,988.919,497.752,1002.163,479.58,1002.163Z" transform="translate(128.82 2696.622)" fill="#ffb476"/>
    <path id="Trazado_165803" data-name="Trazado 165803" d="M324.707,1005.118V987.193H270.485V961.1l45.7-66.166h42.873l-28.8,43.317H364.54v15.983h13.891v32.962H364.54v17.925Zm1.045-50.887v-9.213l-6.127,9.213Z" transform="translate(122.329 2696.622)" fill="#ffb476"/>
    <path id="Trazado_165804" data-name="Trazado 165804" d="M353.809,897.745l-39.434,59.3h14.191V941.062h33.16v15.983h13.892V984.38H361.726V1002.3H327.52V984.38H273.3V961.974l44.363-64.229h36.147m10.5-5.628h-49.6l-1.678,2.429-44.363,64.23-1,1.443v29.788h54.222v17.925h45.461V990.007h13.891v-38.59H367.354V935.435H335.5l22.991-34.574,5.815-8.744Z" transform="translate(122.329 2696.622)" fill="#fff"/>
    <path id="Trazado_165805" data-name="Trazado 165805" d="M748.329,1002.163H610.565V898.408H748.329a29.582,29.582,0,0,1,29.582,29.583v44.59A29.582,29.582,0,0,1,748.329,1002.163Z" transform="translate(149.329 2696.622)" fill="#ffb476"/>
    <path id="Trazado_165806" data-name="Trazado 165806" d="M597.019,1007.387c-15.6,0-27.885-3.509-36.505-10.427-8.956-7.187-13.5-17.021-13.5-29.225a5.052,5.052,0,0,1,5.051-5.051h17.549l-13.809-1.923a5.052,5.052,0,0,1-4.341-5.383l4.288-56.927a5.052,5.052,0,0,1,5.037-4.672h70.383a5.052,5.052,0,0,1,5.052,5.052v25.137a5.052,5.052,0,0,1-5.052,5.051H615.553a36.689,36.689,0,0,1,17.141,9.286c7.348,7.121,11.074,16.873,11.074,28.986a37.05,37.05,0,0,1-5.988,20.49,40.944,40.944,0,0,1-16.646,14.427A54.176,54.176,0,0,1,597.019,1007.387Zm-39.541-34.6a24.767,24.767,0,0,0,9.359,16.295c6.782,5.443,16.937,8.2,30.182,8.2a44.2,44.2,0,0,0,19.653-4.14A30.585,30.585,0,0,0,629.3,982.286a26.747,26.747,0,0,0,4.362-14.995c0-9.405-2.617-16.513-8-21.731-5.43-5.26-12.721-7.818-22.287-7.818a32.849,32.849,0,0,0-9.48,1.263,33.623,33.623,0,0,0-6.783,2.725c-.992.569-1.528.9-1.8,1.085a5.052,5.052,0,0,1-8.722-3.47,5.887,5.887,0,0,1,.035-.65l1.162-15.115a5.053,5.053,0,0,1,5.037-4.664h43.3V903.882H565.477L561.9,951.408l15.726,2.19a21.878,21.878,0,0,1,5.206-4.383c2.786-1.783,6.458-2.648,11.232-2.648,6.328,0,11.407,1.936,15.094,5.757,3.638,3.772,5.483,8.658,5.483,14.524a19.946,19.946,0,0,1-5.483,14.374c-3.687,3.822-8.816,5.759-15.242,5.759-6.38,0-11.5-1.856-15.223-5.517a18.274,18.274,0,0,1-5.045-8.678Zm23.835-8.942a5.04,5.04,0,0,1,1.831,3.891,8.57,8.57,0,0,0,2.626,6.523c1.795,1.764,4.457,2.62,8.144,2.62,3.63,0,6.238-.874,7.972-2.671a10.063,10.063,0,0,0,2.65-7.359,10.272,10.272,0,0,0-2.65-7.509c-1.734-1.8-4.294-2.669-7.824-2.669-3.6,0-5.166.658-5.779,1.051a11.627,11.627,0,0,0-2.864,2.306c-.716.926-1.168,1.519-1.352,1.79A5.141,5.141,0,0,1,581.313,963.844Zm6.189-34.825-.117,1.518q1.662-.619,3.584-1.2.549-.165,1.112-.316Z" transform="translate(149.329 2696.622)" fill="#fff"/>
    <path id="Trazado_165807" data-name="Trazado 165807" d="M582.824,923.968l-1.183,15.377q0-.294,2.957-2a38.408,38.408,0,0,1,7.837-3.18,37.759,37.759,0,0,1,10.942-1.478q16.263,0,25.8,9.241t9.537,25.359a31.941,31.941,0,0,1-5.175,17.743A35.805,35.805,0,0,1,618.9,997.677a48.968,48.968,0,0,1-21.884,4.658q-21.736,0-33.343-9.315t-11.608-25.285h26.024a13.61,13.61,0,0,0,4.141,10.128q4.137,4.07,11.681,4.066t11.607-4.214a15,15,0,0,0,4.066-10.867,15.2,15.2,0,0,0-4.066-11.016q-4.068-4.215-11.459-4.214-5.622,0-8.5,1.848a16.559,16.559,0,0,0-4.141,3.476q-1.257,1.627-1.552,2.069L556.5,955.758l4.288-56.927h70.383v25.137Z" transform="translate(149.329 2696.622)" fill="#ffb476"/>
    <path id="Trazado_165808" data-name="Trazado 165808" d="M1041.886,1002.163H893.87V898.408h148.016c17.554,0,31.785,13.245,31.785,29.583v44.59C1073.671,988.919,1059.44,1002.163,1041.886,1002.163Z" transform="translate(136.329 2696.622)" fill="#ffb476"/>
    <path id="Trazado_165809" data-name="Trazado 165809" d="M883.644,1006.665c-16.1,0-28.36-4.592-36.429-13.648-7.939-8.911-11.964-22.642-11.964-40.808,0-20.649,3.829-35.333,11.708-44.895,7.976-9.68,20.319-14.588,36.685-14.588,13.278,0,24.142,3.334,32.291,9.906h0c8.427,6.8,12.7,16.466,12.7,28.728v4.33h-16.9a32.863,32.863,0,0,1,19.418,31.158c0,12.561-4.45,22.5-13.227,29.549C909.431,1003.21,897.9,1006.665,883.644,1006.665Zm0-105.279c-13.848,0-23.661,3.741-30,11.436-6.458,7.836-9.732,21.088-9.732,39.387,0,15.978,3.288,27.77,9.771,35.047,6.355,7.133,16.436,10.749,29.963,10.749,12.234,0,21.943-2.813,28.859-8.362,6.72-5.4,9.987-12.851,9.987-22.795,0-5.775-1.306-10.522-3.993-14.513a25.2,25.2,0,0,0-11.1-9.1,41.055,41.055,0,0,0-16.66-3.253,32.252,32.252,0,0,0-9.9,1.71,23.9,23.9,0,0,0-8.65,4.872l-7.22,6.474V934.761c0-6.418,1.646-11.692,4.892-15.674,3.464-4.247,8.249-6.4,14.224-6.4,5.754,0,10.3,1.727,13.5,5.132a17.034,17.034,0,0,1,4.476,9.211H919.75c-.819-7.51-3.867-13.314-9.252-17.659h0C903.928,904.072,894.893,901.386,883.644,901.386Zm.443,19.962c-3.338,0-5.725,1.02-7.513,3.212-1.952,2.394-2.943,5.828-2.943,10.2v.518a35.018,35.018,0,0,1,4.533-1.826,40.888,40.888,0,0,1,12.577-2.134q1.474,0,2.916.072v-1.065a9.119,9.119,0,0,0-2.373-6.571C889.76,922.136,887.405,921.348,884.087,921.348Zm-.443,65.355c-5.82,0-10.442-1.705-13.739-5.07-3.274-3.339-4.934-7.966-4.934-13.75,0-5.8,1.7-10.438,5.038-13.781h0v0c3.343-3.342,7.979-5.037,13.782-5.037,5.831,0,10.487,1.764,13.838,5.244,3.306,3.438,4.982,8.1,4.982,13.872,0,5.836-1.716,10.444-5.1,13.7C894.177,985.078,889.511,986.7,883.644,986.7Zm.148-28.981c-3.471,0-5.976.819-7.659,2.5v0c-1.684,1.682-2.5,4.187-2.5,7.657,0,3.487.8,6,2.458,7.688,1.63,1.664,4.1,2.473,7.555,2.473,3.554,0,6.2-.812,7.868-2.415,1.642-1.577,2.44-4.014,2.44-7.45,0-3.5-.837-6.075-2.561-7.866C889.714,958.571,887.227,957.722,883.792,957.722Z" transform="translate(136.329 2696.622)" fill="#fff"/>
    <path id="Trazado_165810" data-name="Trazado 165810" d="M913.216,906q11.091,8.949,11.09,25.358H897.987v-1.034a13.367,13.367,0,0,0-3.549-9.538q-3.549-3.77-10.351-3.77-6.951,0-10.868,4.8T869.3,934.761v8.577a28.071,28.071,0,0,1,10.2-5.768,36.43,36.43,0,0,1,11.237-1.921,45.133,45.133,0,0,1,18.409,3.622,29.659,29.659,0,0,1,12.938,10.646q4.731,7.024,4.732,16.931,0,16.857-11.607,26.172t-31.569,9.315q-22.329,0-33.2-12.2T839.58,952.209q0-29.127,10.721-42.141t33.343-13.012Q902.126,897.056,913.216,906Zm-40.145,51.161q-3.77,3.77-3.77,10.72T873,978.6q3.695,3.77,10.647,3.77,7.1,0,10.868-3.622t3.77-10.572q0-6.949-3.77-10.868t-10.72-3.918Q876.839,953.393,873.071,957.163Z" transform="translate(136.329 2696.622)" fill="#ffb476"/>
  </g>
</svg>
