<svg xmlns="http://www.w3.org/2000/svg" width="820" height="249.554" viewBox="0 0 820 249.554">
  <g id="Grupo_128083" data-name="Grupo 128083" transform="translate(-390 -3455)">
    <path id="Trazado_165793" data-name="Trazado 165793" d="M492.685,867.531H330.17V763.776H492.685c19.273,0,34.9,13.244,34.9,29.582v44.591C527.583,854.287,511.958,867.531,492.685,867.531Z" transform="translate(109.25 2696.622)" fill="#ffb476"/>
    <path id="Trazado_165794" data-name="Trazado 165794" d="M296.441,870.23V792.858H278.654V761.077h58.165V870.23Z" transform="translate(114.044 2696.622)" fill="#ffb476"/>
    <path id="Trazado_165795" data-name="Trazado 165795" d="M334.12,763.776V867.531H299.14V790.159H281.353V763.776H334.12m5.4-5.4H275.956v37.179h17.787v77.372h45.775V758.378Z" transform="translate(114.044 2696.622)" fill="#fff"/>
    <path id="Trazado_165796" data-name="Trazado 165796" d="M748.329,867.531H610.565V763.776H748.329a29.582,29.582,0,0,1,29.582,29.582v44.591A29.582,29.582,0,0,1,748.329,867.531Z" transform="translate(149.329 2696.622)" fill="#ffb476"/>
    <path id="Trazado_165797" data-name="Trazado 165797" d="M562.574,870.17v-24.8l37.509-34.693a27.967,27.967,0,0,0,5.808-6.924,11.33,11.33,0,0,0,1.315-5.05,4.6,4.6,0,0,0-1.582-3.837c-1.2-.991-3.093-1.494-5.633-1.494a13.758,13.758,0,0,0-7.325,2.08,13.461,13.461,0,0,0-5.226,5.85l-1.164,2.406-30.607-15.3,1.274-2.39a45.111,45.111,0,0,1,17.985-18.228c7.8-4.409,17.31-6.645,28.251-6.645a57.28,57.28,0,0,1,22.326,4.12A36.061,36.061,0,0,1,641.113,777.3a30.507,30.507,0,0,1,5.714,18.206,38.337,38.337,0,0,1-3.815,16.874c-2.544,5.239-7.269,10.931-14.446,17.4l-9.437,8.587h30.016v31.8Z" transform="translate(149.329 2696.622)" fill="#ffb476"/>
    <path id="Trazado_165798" data-name="Trazado 165798" d="M603.179,763.776a54.414,54.414,0,0,1,21.3,3.912,33.325,33.325,0,0,1,14.492,11.158,27.8,27.8,0,0,1,5.216,16.666,35.55,35.55,0,0,1-3.55,15.722q-3.554,7.318-13.839,16.592l-14.491,13.186h34.2v26.519H565.213V846.519l36.662-33.909q4.782-4.488,6.375-7.679a13.877,13.877,0,0,0,1.595-6.232,7.205,7.205,0,0,0-2.536-5.868q-2.537-2.1-7.318-2.1a16.465,16.465,0,0,0-8.7,2.464,16.175,16.175,0,0,0-6.231,6.955l-25.793-12.9a42.31,42.31,0,0,1,16.954-17.171q11.157-6.3,26.953-6.3m0-5.277c-11.4,0-21.343,2.35-29.549,6.986a47.7,47.7,0,0,0-19.015,19.284l-2.549,4.78,4.846,2.422,25.793,12.9,4.781,2.391,2.329-4.812a10.92,10.92,0,0,1,4.222-4.745,11.181,11.181,0,0,1,5.954-1.7,6.636,6.636,0,0,1,3.952.89c.232.192.625.517.625,1.8a8.748,8.748,0,0,1-1.038,3.872c-.439.877-1.709,2.852-5.267,6.192L561.63,842.645l-1.694,1.567v28.6h91.848V835.735H625.948l4.4-4.006c7.415-6.684,12.339-12.639,15.034-18.19a40.948,40.948,0,0,0,4.081-18.027,33.1,33.1,0,0,0-6.211-19.748,38.658,38.658,0,0,0-16.723-12.938,59.9,59.9,0,0,0-23.353-4.327Z" transform="translate(149.329 2696.622)" fill="#fff"/>
    <path id="Trazado_165799" data-name="Trazado 165799" d="M1041.886,871.072H893.87V767.317h148.016c17.554,0,31.785,13.245,31.785,29.583v44.59C1073.671,857.828,1059.44,871.072,1041.886,871.072Z" transform="translate(136.329 2696.622)" fill="#ffb476"/>
    <path id="Trazado_165800" data-name="Trazado 165800" d="M880.337,873.711a103.43,103.43,0,0,1-21.935-2.379,69.407,69.407,0,0,1-19.356-7.091l-2.116-1.193,13.821-30.06,2.511,1.46a51.123,51.123,0,0,0,12.746,5.235,52.044,52.044,0,0,0,13.17,1.8,17.084,17.084,0,0,0,8.273-1.692,3.722,3.722,0,0,0,2.274-3.5c0-1.067,0-4.316-9.388-4.316H864.222V807.249l11.281-11.5H842.92v-31.07h80.92V789.41l-16.515,16.77a33.548,33.548,0,0,1,15.111,10.1,30.492,30.492,0,0,1,6.911,20.013,34,34,0,0,1-5.409,18.44c-3.59,5.671-9.154,10.314-16.536,13.8C900.12,871.968,891.015,873.711,880.337,873.711Z" transform="translate(136.329 2696.622)" fill="#ffb476"/>
    <path id="Trazado_165801" data-name="Trazado 165801" d="M921.2,767.317v21.012l-18.838,19.128q11.739,2.9,18.041,10.506a27.8,27.8,0,0,1,6.3,18.33,31.26,31.26,0,0,1-5,17.028q-5,7.9-15.434,12.825t-25.938,4.927a100.307,100.307,0,0,1-21.374-2.319,66.516,66.516,0,0,1-18.621-6.811l11.593-25.214a53.563,53.563,0,0,0,13.4,5.506,54.423,54.423,0,0,0,13.839,1.884,19.51,19.51,0,0,0,9.564-2.029,6.342,6.342,0,0,0,3.623-5.8q0-6.956-12.027-6.955H866.86V808.327l14.926-15.217H845.558V767.317H921.2m5.277-5.277h-86.2v36.348h28.936l-6.124,6.243-1.51,1.539v28.446h18.754c5.548,0,6.69,1.253,6.706,1.273h0a1.3,1.3,0,0,1,.044.4c0,.392,0,.675-.924,1.193a14.6,14.6,0,0,1-6.986,1.356,49.4,49.4,0,0,1-12.5-1.711,48.45,48.45,0,0,1-12.091-4.964l-5.022-2.921-2.427,5.278-11.592,25.215-2.03,4.414,4.232,2.387a72.064,72.064,0,0,0,20.091,7.37,106.019,106.019,0,0,0,22.5,2.44c11.07,0,20.554-1.828,28.191-5.432,7.842-3.7,13.777-8.673,17.639-14.774a36.591,36.591,0,0,0,5.818-19.851,33.057,33.057,0,0,0-7.518-21.7,34.73,34.73,0,0,0-12.485-9.385l12.979-13.179,1.517-1.54V762.04Z" transform="translate(136.329 2696.622)" fill="#fff"/>
    <path id="Trazado_165802" data-name="Trazado 165802" d="M479.58,1002.163H326.355V898.408H479.58c18.172,0,32.9,13.245,32.9,29.583v44.59C512.482,988.919,497.752,1002.163,479.58,1002.163Z" transform="translate(128.82 2696.622)" fill="#ffb476"/>
    <path id="Trazado_165803" data-name="Trazado 165803" d="M324.707,1005.118V987.193H270.485V961.1l45.7-66.166h42.873l-28.8,43.317H364.54v15.983h13.891v32.962H364.54v17.925Zm1.045-50.887v-9.213l-6.127,9.213Z" transform="translate(122.329 2696.622)" fill="#ffb476"/>
    <path id="Trazado_165804" data-name="Trazado 165804" d="M353.809,897.745l-39.434,59.3h14.191V941.062h33.16v15.983h13.892V984.38H361.726V1002.3H327.52V984.38H273.3V961.974l44.363-64.229h36.147m10.5-5.628h-49.6l-1.678,2.429-44.363,64.23-1,1.443v29.788h54.222v17.925h45.461V990.007h13.891v-38.59H367.354V935.435H335.5l22.991-34.574,5.815-8.744Z" transform="translate(122.329 2696.622)" fill="#fff"/>
    <path id="Trazado_165805" data-name="Trazado 165805" d="M748.329,1002.163H610.565V898.408H748.329a29.582,29.582,0,0,1,29.582,29.583v44.59A29.582,29.582,0,0,1,748.329,1002.163Z" transform="translate(149.329 2696.622)" fill="#ffb476"/>
    <path id="Trazado_165806" data-name="Trazado 165806" d="M597.019,1007.387c-15.6,0-27.885-3.509-36.505-10.427-8.956-7.187-13.5-17.021-13.5-29.225a5.052,5.052,0,0,1,5.051-5.051h17.549l-13.809-1.923a5.052,5.052,0,0,1-4.341-5.383l4.288-56.927a5.052,5.052,0,0,1,5.037-4.672h70.383a5.052,5.052,0,0,1,5.052,5.052v25.137a5.052,5.052,0,0,1-5.052,5.051H615.553a36.689,36.689,0,0,1,17.141,9.286c7.348,7.121,11.074,16.873,11.074,28.986a37.05,37.05,0,0,1-5.988,20.49,40.944,40.944,0,0,1-16.646,14.427A54.176,54.176,0,0,1,597.019,1007.387Zm-39.541-34.6a24.767,24.767,0,0,0,9.359,16.295c6.782,5.443,16.937,8.2,30.182,8.2a44.2,44.2,0,0,0,19.653-4.14A30.585,30.585,0,0,0,629.3,982.286a26.747,26.747,0,0,0,4.362-14.995c0-9.405-2.617-16.513-8-21.731-5.43-5.26-12.721-7.818-22.287-7.818a32.849,32.849,0,0,0-9.48,1.263,33.623,33.623,0,0,0-6.783,2.725c-.992.569-1.528.9-1.8,1.085a5.052,5.052,0,0,1-8.722-3.47,5.887,5.887,0,0,1,.035-.65l1.162-15.115a5.053,5.053,0,0,1,5.037-4.664h43.3V903.882H565.477L561.9,951.408l15.726,2.19a21.878,21.878,0,0,1,5.206-4.383c2.786-1.783,6.458-2.648,11.232-2.648,6.328,0,11.407,1.936,15.094,5.757,3.638,3.772,5.483,8.658,5.483,14.524a19.946,19.946,0,0,1-5.483,14.374c-3.687,3.822-8.816,5.759-15.242,5.759-6.38,0-11.5-1.856-15.223-5.517a18.274,18.274,0,0,1-5.045-8.678Zm23.835-8.942a5.04,5.04,0,0,1,1.831,3.891,8.57,8.57,0,0,0,2.626,6.523c1.795,1.764,4.457,2.62,8.144,2.62,3.63,0,6.238-.874,7.972-2.671a10.063,10.063,0,0,0,2.65-7.359,10.272,10.272,0,0,0-2.65-7.509c-1.734-1.8-4.294-2.669-7.824-2.669-3.6,0-5.166.658-5.779,1.051a11.627,11.627,0,0,0-2.864,2.306c-.716.926-1.168,1.519-1.352,1.79A5.141,5.141,0,0,1,581.313,963.844Zm6.189-34.825-.117,1.518q1.662-.619,3.584-1.2.549-.165,1.112-.316Z" transform="translate(149.329 2696.622)" fill="#fff"/>
    <path id="Trazado_165807" data-name="Trazado 165807" d="M582.824,923.968l-1.183,15.377q0-.294,2.957-2a38.408,38.408,0,0,1,7.837-3.18,37.759,37.759,0,0,1,10.942-1.478q16.263,0,25.8,9.241t9.537,25.359a31.941,31.941,0,0,1-5.175,17.743A35.805,35.805,0,0,1,618.9,997.677a48.968,48.968,0,0,1-21.884,4.658q-21.736,0-33.343-9.315t-11.608-25.285h26.024a13.61,13.61,0,0,0,4.141,10.128q4.137,4.07,11.681,4.066t11.607-4.214a15,15,0,0,0,4.066-10.867,15.2,15.2,0,0,0-4.066-11.016q-4.068-4.215-11.459-4.214-5.622,0-8.5,1.848a16.559,16.559,0,0,0-4.141,3.476q-1.257,1.627-1.552,2.069L556.5,955.758l4.288-56.927h70.383v25.137Z" transform="translate(149.329 2696.622)" fill="#ffb476"/>
    <path id="Trazado_165808" data-name="Trazado 165808" d="M1041.886,1002.163H893.87V898.408h148.016c17.554,0,31.785,13.245,31.785,29.583v44.59C1073.671,988.919,1059.44,1002.163,1041.886,1002.163Z" transform="translate(136.329 2696.622)" fill="#ffb476"/>
    <path id="Trazado_165809" data-name="Trazado 165809" d="M883.644,1006.665c-16.1,0-28.36-4.592-36.429-13.648-7.939-8.911-11.964-22.642-11.964-40.808,0-20.649,3.829-35.333,11.708-44.895,7.976-9.68,20.319-14.588,36.685-14.588,13.278,0,24.142,3.334,32.291,9.906h0c8.427,6.8,12.7,16.466,12.7,28.728v4.33h-16.9a32.863,32.863,0,0,1,19.418,31.158c0,12.561-4.45,22.5-13.227,29.549C909.431,1003.21,897.9,1006.665,883.644,1006.665Zm0-105.279c-13.848,0-23.661,3.741-30,11.436-6.458,7.836-9.732,21.088-9.732,39.387,0,15.978,3.288,27.77,9.771,35.047,6.355,7.133,16.436,10.749,29.963,10.749,12.234,0,21.943-2.813,28.859-8.362,6.72-5.4,9.987-12.851,9.987-22.795,0-5.775-1.306-10.522-3.993-14.513a25.2,25.2,0,0,0-11.1-9.1,41.055,41.055,0,0,0-16.66-3.253,32.252,32.252,0,0,0-9.9,1.71,23.9,23.9,0,0,0-8.65,4.872l-7.22,6.474V934.761c0-6.418,1.646-11.692,4.892-15.674,3.464-4.247,8.249-6.4,14.224-6.4,5.754,0,10.3,1.727,13.5,5.132a17.034,17.034,0,0,1,4.476,9.211H919.75c-.819-7.51-3.867-13.314-9.252-17.659h0C903.928,904.072,894.893,901.386,883.644,901.386Zm.443,19.962c-3.338,0-5.725,1.02-7.513,3.212-1.952,2.394-2.943,5.828-2.943,10.2v.518a35.018,35.018,0,0,1,4.533-1.826,40.888,40.888,0,0,1,12.577-2.134q1.474,0,2.916.072v-1.065a9.119,9.119,0,0,0-2.373-6.571C889.76,922.136,887.405,921.348,884.087,921.348Zm-.443,65.355c-5.82,0-10.442-1.705-13.739-5.07-3.274-3.339-4.934-7.966-4.934-13.75,0-5.8,1.7-10.438,5.038-13.781h0v0c3.343-3.342,7.979-5.037,13.782-5.037,5.831,0,10.487,1.764,13.838,5.244,3.306,3.438,4.982,8.1,4.982,13.872,0,5.836-1.716,10.444-5.1,13.7C894.177,985.078,889.511,986.7,883.644,986.7Zm.148-28.981c-3.471,0-5.976.819-7.659,2.5v0c-1.684,1.682-2.5,4.187-2.5,7.657,0,3.487.8,6,2.458,7.688,1.63,1.664,4.1,2.473,7.555,2.473,3.554,0,6.2-.812,7.868-2.415,1.642-1.577,2.44-4.014,2.44-7.45,0-3.5-.837-6.075-2.561-7.866C889.714,958.571,887.227,957.722,883.792,957.722Z" transform="translate(136.329 2696.622)" fill="#fff"/>
    <path id="Trazado_165810" data-name="Trazado 165810" d="M913.216,906q11.091,8.949,11.09,25.358H897.987v-1.034a13.367,13.367,0,0,0-3.549-9.538q-3.549-3.77-10.351-3.77-6.951,0-10.868,4.8T869.3,934.761v8.577a28.071,28.071,0,0,1,10.2-5.768,36.43,36.43,0,0,1,11.237-1.921,45.133,45.133,0,0,1,18.409,3.622,29.659,29.659,0,0,1,12.938,10.646q4.731,7.024,4.732,16.931,0,16.857-11.607,26.172t-31.569,9.315q-22.329,0-33.2-12.2T839.58,952.209q0-29.127,10.721-42.141t33.343-13.012Q902.126,897.056,913.216,906Zm-40.145,51.161q-3.77,3.77-3.77,10.72T873,978.6q3.695,3.77,10.647,3.77,7.1,0,10.868-3.622t3.77-10.572q0-6.949-3.77-10.868t-10.72-3.918Q876.839,953.393,873.071,957.163Z" transform="translate(136.329 2696.622)" fill="#ffb476"/>
    <path id="Trazado_172595" data-name="Trazado 172595" d="M18.723,13.148a4.154,4.154,0,0,1-.641,2.1,3.866,3.866,0,0,1-1.645,1.41,5.6,5.6,0,0,1-2.418.5A4.467,4.467,0,0,1,10.488,15.7,6.032,6.032,0,0,1,9.2,11.57v-.562a6.885,6.885,0,0,1,.582-2.926,4.41,4.41,0,0,1,1.676-1.937,4.676,4.676,0,0,1,2.531-.684,4.9,4.9,0,0,1,3.328,1.09,4.306,4.306,0,0,1,1.43,3H16.012a2.037,2.037,0,0,0-.523-1.492,2.153,2.153,0,0,0-1.5-.453,1.638,1.638,0,0,0-1.5.766,4.921,4.921,0,0,0-.5,2.445v.8a5.445,5.445,0,0,0,.457,2.6,1.672,1.672,0,0,0,1.574.781,2.106,2.106,0,0,0,1.445-.445A1.89,1.89,0,0,0,16,13.148ZM22.676,17H20.035V5h2.641Zm6.383,0a2.973,2.973,0,0,1-.25-.758,2.448,2.448,0,0,1-2.031.914,3,3,0,0,1-2.031-.723,2.3,2.3,0,0,1-.836-1.816,2.364,2.364,0,0,1,1.016-2.078,5.174,5.174,0,0,1,2.953-.7h.813v-.448q0-1.17-1.008-1.17a.824.824,0,0,0-.937.926H24.113a2.36,2.36,0,0,1,1.043-1.99,4.383,4.383,0,0,1,2.66-.765,3.843,3.843,0,0,1,2.555.789,2.743,2.743,0,0,1,.961,2.164v3.742a3.832,3.832,0,0,0,.359,1.781V17ZM27.41,15.281a1.469,1.469,0,0,0,.816-.211,1.322,1.322,0,0,0,.465-.477V13.242h-.766q-1.375,0-1.375,1.234a.754.754,0,0,0,.242.582A.876.876,0,0,0,27.41,15.281Zm9.8-.656a.608.608,0,0,0-.352-.539,5.348,5.348,0,0,0-1.336-.422A6.092,6.092,0,0,1,33.9,13.09a2.722,2.722,0,0,1-.977-.863,2.061,2.061,0,0,1-.336-1.164,2.336,2.336,0,0,1,.961-1.918,3.958,3.958,0,0,1,2.516-.754,4.386,4.386,0,0,1,2.688.758,2.37,2.37,0,0,1,1.016,1.992H37.129q0-1.016-1.07-1.016a1.061,1.061,0,0,0-.7.23.714.714,0,0,0-.281.574.655.655,0,0,0,.344.57,3.248,3.248,0,0,0,1.1.359,9.485,9.485,0,0,1,1.324.336,2.406,2.406,0,0,1,1.906,2.352,2.214,2.214,0,0,1-1.027,1.883,4.505,4.505,0,0,1-2.66.727,4.6,4.6,0,0,1-1.937-.391A3.24,3.24,0,0,1,32.8,15.7a2.406,2.406,0,0,1-.477-1.414h2.461a1.017,1.017,0,0,0,.391.855,1.607,1.607,0,0,0,.961.27,1.264,1.264,0,0,0,.809-.219A.7.7,0,0,0,37.215,14.625ZM43.762,17H41.121V8.547h2.641Zm-2.8-10.633a1.175,1.175,0,0,1,.406-.922,1.727,1.727,0,0,1,2.109,0,1.175,1.175,0,0,1,.406.922,1.175,1.175,0,0,1-.406.922,1.727,1.727,0,0,1-2.109,0A1.175,1.175,0,0,1,40.965,6.367ZM46,17V10.375H44.77V8.547H46V8.266A3.228,3.228,0,0,1,47.105,5.68a4.433,4.433,0,0,1,2.883-.844,10.23,10.23,0,0,1,2.75.453l-.359,2.078-.437-.117a6.962,6.962,0,0,0-1.8-.227q-1.508,0-1.508,1.375v.148h1.656v1.828H48.637V17Zm7.953,0H51.3V8.547h2.648Zm5.18-1.875a1.171,1.171,0,0,0,.859-.3,1.1,1.1,0,0,0,.3-.84h2.469a2.922,2.922,0,0,1-1,2.281,3.705,3.705,0,0,1-2.566.891A3.751,3.751,0,0,1,56.285,16a4.556,4.556,0,0,1-1.062-3.2v-.109a5.149,5.149,0,0,1,.473-2.262,3.441,3.441,0,0,1,1.363-1.508,4.065,4.065,0,0,1,2.109-.527,3.658,3.658,0,0,1,2.617.914,3.242,3.242,0,0,1,.969,2.477H60.285a1.445,1.445,0,0,0-.32-1.008,1.106,1.106,0,0,0-.859-.352q-1.023,0-1.2,1.3a9.206,9.206,0,0,0-.055,1.141,3.616,3.616,0,0,0,.3,1.766A1.055,1.055,0,0,0,59.129,15.125ZM68.629,17a2.973,2.973,0,0,1-.25-.758,2.448,2.448,0,0,1-2.031.914,3,3,0,0,1-2.031-.723,2.3,2.3,0,0,1-.836-1.816A2.364,2.364,0,0,1,64.5,12.539a5.174,5.174,0,0,1,2.953-.7h.813v-.448q0-1.17-1.008-1.17a.824.824,0,0,0-.937.926H63.684a2.36,2.36,0,0,1,1.043-1.99,4.383,4.383,0,0,1,2.66-.765,3.843,3.843,0,0,1,2.555.789,2.743,2.743,0,0,1,.961,2.164v3.742a3.832,3.832,0,0,0,.359,1.781V17ZM66.98,15.281a1.469,1.469,0,0,0,.816-.211,1.322,1.322,0,0,0,.465-.477V13.242H67.5q-1.375,0-1.375,1.234a.754.754,0,0,0,.242.582A.876.876,0,0,0,66.98,15.281Zm8.953-.156a1.171,1.171,0,0,0,.859-.3,1.1,1.1,0,0,0,.3-.84h2.469a2.922,2.922,0,0,1-1,2.281A3.705,3.705,0,0,1,76,17.156,3.751,3.751,0,0,1,73.09,16a4.556,4.556,0,0,1-1.062-3.2v-.109a5.149,5.149,0,0,1,.473-2.262,3.441,3.441,0,0,1,1.363-1.508,4.065,4.065,0,0,1,2.109-.527A3.658,3.658,0,0,1,78.59,9.3a3.242,3.242,0,0,1,.969,2.477H77.09a1.445,1.445,0,0,0-.32-1.008,1.106,1.106,0,0,0-.859-.352q-1.023,0-1.2,1.3a9.206,9.206,0,0,0-.055,1.141,3.616,3.616,0,0,0,.3,1.766A1.055,1.055,0,0,0,75.934,15.125ZM83.449,17H80.809V8.547h2.641Zm-2.8-10.633a1.175,1.175,0,0,1,.406-.922,1.727,1.727,0,0,1,2.109,0,1.175,1.175,0,0,1,.406.922,1.175,1.175,0,0,1-.406.922,1.727,1.727,0,0,1-2.109,0A1.175,1.175,0,0,1,80.652,6.367ZM84.738,12.7a4.989,4.989,0,0,1,.492-2.254,3.52,3.52,0,0,1,1.414-1.52,4.259,4.259,0,0,1,2.164-.531A3.887,3.887,0,0,1,91.8,9.566a4.512,4.512,0,0,1,1.094,3.2v.094A4.378,4.378,0,0,1,91.8,16a3.9,3.9,0,0,1-2.973,1.16,3.942,3.942,0,0,1-2.9-1.082,4.232,4.232,0,0,1-1.18-2.934Zm2.633.164a3.145,3.145,0,0,0,.367,1.719,1.223,1.223,0,0,0,1.086.547q1.406,0,1.438-2.164V12.7q0-2.273-1.453-2.273-1.32,0-1.43,1.961ZM89.168,5h2.781L89.777,7.453l-2.148,0Zm7.3,3.547.086.992a2.867,2.867,0,0,1,2.414-1.148,2.412,2.412,0,0,1,1.973.789,3.757,3.757,0,0,1,.676,2.375V17H98.98V11.664a1.426,1.426,0,0,0-.258-.941,1.193,1.193,0,0,0-.937-.3,1.256,1.256,0,0,0-1.148.609V17H94V8.547Z" transform="translate(489 3498)" fill="#083142"/>
    <path id="Trazado_172597" data-name="Trazado 172597" d="M12.453,13.148a4.154,4.154,0,0,1-.641,2.1,3.866,3.866,0,0,1-1.645,1.41,5.6,5.6,0,0,1-2.418.5A4.467,4.467,0,0,1,4.219,15.7,6.032,6.032,0,0,1,2.93,11.57v-.562a6.885,6.885,0,0,1,.582-2.926A4.41,4.41,0,0,1,5.188,6.145a4.676,4.676,0,0,1,2.531-.684,4.9,4.9,0,0,1,3.328,1.09,4.306,4.306,0,0,1,1.43,3H9.742a2.037,2.037,0,0,0-.523-1.492,2.153,2.153,0,0,0-1.5-.453,1.638,1.638,0,0,0-1.5.766,4.921,4.921,0,0,0-.5,2.445v.8a5.445,5.445,0,0,0,.457,2.6,1.672,1.672,0,0,0,1.574.781A2.106,2.106,0,0,0,9.2,14.563a1.89,1.89,0,0,0,.531-1.414ZM13.3,12.7a4.989,4.989,0,0,1,.492-2.254A3.52,3.52,0,0,1,15.2,8.922a4.259,4.259,0,0,1,2.164-.531,3.887,3.887,0,0,1,2.992,1.176,4.512,4.512,0,0,1,1.094,3.2v.094A4.378,4.378,0,0,1,20.355,16a3.9,3.9,0,0,1-2.973,1.16,3.942,3.942,0,0,1-2.9-1.082,4.232,4.232,0,0,1-1.18-2.934Zm2.633.164a3.145,3.145,0,0,0,.367,1.719,1.223,1.223,0,0,0,1.086.547q1.406,0,1.438-2.164V12.7q0-2.273-1.453-2.273-1.32,0-1.43,1.961Zm9.1-4.312.086.992a2.867,2.867,0,0,1,2.414-1.148A2.412,2.412,0,0,1,29.5,9.18a3.757,3.757,0,0,1,.676,2.375V17H27.539V11.664a1.426,1.426,0,0,0-.258-.941,1.193,1.193,0,0,0-.937-.3,1.256,1.256,0,0,0-1.148.609V17H22.563V8.547ZM32.25,17V10.375H31.023V8.547H32.25V8.266A3.228,3.228,0,0,1,33.359,5.68a4.433,4.433,0,0,1,2.883-.844,10.23,10.23,0,0,1,2.75.453l-.359,2.078L38.2,7.25a6.962,6.962,0,0,0-1.8-.227q-1.508,0-1.508,1.375v.148h1.656v1.828H34.891V17ZM40.2,17H37.555V8.547H40.2Zm1.273-4.289a5.164,5.164,0,0,1,.867-3.164,2.854,2.854,0,0,1,2.422-1.156,2.428,2.428,0,0,1,1.906.891V5h2.641V17H46.945l-.133-.906a2.493,2.493,0,0,1-2.062,1.063A2.849,2.849,0,0,1,42.359,16,5.327,5.327,0,0,1,41.477,12.711Zm2.633.164q0,2.25,1.313,2.25a1.3,1.3,0,0,0,1.25-.734V11.172a1.261,1.261,0,0,0-1.234-.75q-1.219,0-1.32,1.969ZM54.9,17.156A4.345,4.345,0,0,1,51.75,16a4.006,4.006,0,0,1-1.2-3.02v-.219a5.191,5.191,0,0,1,.48-2.289,3.516,3.516,0,0,1,1.4-1.535,4.233,4.233,0,0,1,2.188-.543A3.659,3.659,0,0,1,57.43,9.5a4.344,4.344,0,0,1,1.031,3.082V13.6H53.227a1.9,1.9,0,0,0,.617,1.117,1.836,1.836,0,0,0,1.234.406,2.366,2.366,0,0,0,1.953-.875l1.2,1.422a3.363,3.363,0,0,1-1.395,1.082A4.713,4.713,0,0,1,54.9,17.156Zm-.3-6.734q-1.156,0-1.375,1.531h2.656v-.2a1.3,1.3,0,0,0-.32-.98A1.275,1.275,0,0,0,54.6,10.422Zm7.336-1.875.086.992a2.867,2.867,0,0,1,2.414-1.148,2.412,2.412,0,0,1,1.973.789,3.757,3.757,0,0,1,.676,2.375V17H64.445V11.664a1.426,1.426,0,0,0-.258-.941,1.193,1.193,0,0,0-.937-.3,1.256,1.256,0,0,0-1.148.609V17H59.469V8.547Zm10.18,6.578a1.171,1.171,0,0,0,.859-.3,1.1,1.1,0,0,0,.3-.84h2.469a2.922,2.922,0,0,1-1,2.281,3.705,3.705,0,0,1-2.566.891A3.751,3.751,0,0,1,69.273,16a4.556,4.556,0,0,1-1.062-3.2v-.109a5.149,5.149,0,0,1,.473-2.262,3.441,3.441,0,0,1,1.363-1.508,4.065,4.065,0,0,1,2.109-.527,3.658,3.658,0,0,1,2.617.914,3.242,3.242,0,0,1,.969,2.477H73.273a1.445,1.445,0,0,0-.32-1.008,1.106,1.106,0,0,0-.859-.352q-1.023,0-1.2,1.3a9.206,9.206,0,0,0-.055,1.141,3.616,3.616,0,0,0,.3,1.766A1.055,1.055,0,0,0,72.117,15.125ZM79.633,17H76.992V8.547h2.641Zm-2.8-10.633a1.175,1.175,0,0,1,.406-.922,1.727,1.727,0,0,1,2.109,0,1.175,1.175,0,0,1,.406.922,1.175,1.175,0,0,1-.406.922,1.727,1.727,0,0,1-2.109,0A1.175,1.175,0,0,1,76.836,6.367ZM86.016,17a2.973,2.973,0,0,1-.25-.758,2.448,2.448,0,0,1-2.031.914,3,3,0,0,1-2.031-.723,2.3,2.3,0,0,1-.836-1.816,2.364,2.364,0,0,1,1.016-2.078,5.174,5.174,0,0,1,2.953-.7h.813v-.448q0-1.17-1.008-1.17a.824.824,0,0,0-.937.926H81.07a2.36,2.36,0,0,1,1.043-1.99,4.383,4.383,0,0,1,2.66-.765,3.843,3.843,0,0,1,2.555.789,2.743,2.743,0,0,1,.961,2.164v3.742a3.832,3.832,0,0,0,.359,1.781V17Zm-1.648-1.719a1.469,1.469,0,0,0,.816-.211,1.322,1.322,0,0,0,.465-.477V13.242h-.766q-1.375,0-1.375,1.234a.754.754,0,0,0,.242.582A.876.876,0,0,0,84.367,15.281ZM92.523,17H89.883V5h2.641Zm4.4,0H94.281V8.547h2.641Zm-2.8-10.633a1.175,1.175,0,0,1,.406-.922,1.727,1.727,0,0,1,2.109,0,1.175,1.175,0,0,1,.406.922,1.175,1.175,0,0,1-.406.922,1.727,1.727,0,0,1-2.109,0A1.175,1.175,0,0,1,94.125,6.367Zm4.086,6.344a5.164,5.164,0,0,1,.867-3.164A2.854,2.854,0,0,1,101.5,8.391a2.428,2.428,0,0,1,1.906.891V5h2.641V17H103.68l-.133-.906a2.493,2.493,0,0,1-2.062,1.063A2.849,2.849,0,0,1,99.094,16,5.327,5.327,0,0,1,98.211,12.711Zm2.633.164q0,2.25,1.313,2.25a1.3,1.3,0,0,0,1.25-.734V11.172a1.261,1.261,0,0,0-1.234-.75q-1.219,0-1.32,1.969ZM112.3,17a2.973,2.973,0,0,1-.25-.758,2.448,2.448,0,0,1-2.031.914,3,3,0,0,1-2.031-.723,2.3,2.3,0,0,1-.836-1.816,2.364,2.364,0,0,1,1.016-2.078,5.174,5.174,0,0,1,2.953-.7h.813v-.448q0-1.17-1.008-1.17a.824.824,0,0,0-.937.926h-2.633a2.36,2.36,0,0,1,1.043-1.99,4.383,4.383,0,0,1,2.66-.765,3.843,3.843,0,0,1,2.555.789,2.743,2.743,0,0,1,.961,2.164v3.742a3.832,3.832,0,0,0,.359,1.781V17Zm-1.648-1.719a1.469,1.469,0,0,0,.816-.211,1.322,1.322,0,0,0,.465-.477V13.242h-.766q-1.375,0-1.375,1.234a.754.754,0,0,0,.242.582A.876.876,0,0,0,110.656,15.281Zm5.047-2.57a5.164,5.164,0,0,1,.867-3.164,2.854,2.854,0,0,1,2.422-1.156,2.428,2.428,0,0,1,1.906.891V5h2.641V17h-2.367l-.133-.906a2.493,2.493,0,0,1-2.062,1.063A2.849,2.849,0,0,1,116.586,16,5.327,5.327,0,0,1,115.7,12.711Zm2.633.164q0,2.25,1.313,2.25a1.3,1.3,0,0,0,1.25-.734V11.172a1.261,1.261,0,0,0-1.234-.75q-1.219,0-1.32,1.969Zm7.625,7.188-1.328-.625.266-.531a4.333,4.333,0,0,0,.57-1.937V15.016h2.109l-.008,1.7a4.238,4.238,0,0,1-.461,1.828A4.645,4.645,0,0,1,125.961,20.063ZM25.988,42H23.348V33.547h2.641Zm-2.8-10.633a1.175,1.175,0,0,1,.406-.922,1.727,1.727,0,0,1,2.109,0,1.249,1.249,0,0,1,0,1.844,1.727,1.727,0,0,1-2.109,0A1.175,1.175,0,0,1,23.191,31.367Zm6.836,2.18.086.992a2.867,2.867,0,0,1,2.414-1.148,2.412,2.412,0,0,1,1.973.789,3.757,3.757,0,0,1,.676,2.375V42H32.535V36.664a1.426,1.426,0,0,0-.258-.941,1.193,1.193,0,0,0-.937-.3,1.256,1.256,0,0,0-1.148.609V42H27.559V33.547Zm9.672-2.1v2.1H41.09v1.828H39.7v3.867a.987.987,0,0,0,.172.664.922.922,0,0,0,.68.188,3.862,3.862,0,0,0,.656-.047V41.93a4.859,4.859,0,0,1-1.484.227,2.758,2.758,0,0,1-2.008-.641,2.626,2.626,0,0,1-.648-1.945v-4.2H35.988V33.547h1.078v-2.1Zm6.516,10.711A4.345,4.345,0,0,1,43.066,41a4.006,4.006,0,0,1-1.2-3.02v-.219a5.191,5.191,0,0,1,.48-2.289,3.516,3.516,0,0,1,1.4-1.535,4.233,4.233,0,0,1,2.188-.543A3.659,3.659,0,0,1,48.746,34.5a4.344,4.344,0,0,1,1.031,3.082V38.6H44.543a1.9,1.9,0,0,0,.617,1.117,1.836,1.836,0,0,0,1.234.406,2.366,2.366,0,0,0,1.953-.875l1.2,1.422a3.363,3.363,0,0,1-1.395,1.082A4.713,4.713,0,0,1,46.215,42.156Zm-.3-6.734q-1.156,0-1.375,1.531H47.2v-.2a1.3,1.3,0,0,0-.32-.98A1.275,1.275,0,0,0,45.918,35.422Zm4.609,2.289a5.708,5.708,0,0,1,.422-2.266,3.4,3.4,0,0,1,1.211-1.52A3.192,3.192,0,0,1,54,33.391a2.538,2.538,0,0,1,2.063.891l.094-.734h2.391V41.68a3.564,3.564,0,0,1-.52,1.941,3.334,3.334,0,0,1-1.5,1.266,5.528,5.528,0,0,1-2.281.441,4.769,4.769,0,0,1-1.8-.352,3.251,3.251,0,0,1-1.332-.914l1.1-1.547a2.414,2.414,0,0,0,1.938.867,1.568,1.568,0,0,0,1.75-1.8V41.32a2.472,2.472,0,0,1-1.914.836,3.055,3.055,0,0,1-2.5-1.184,4.9,4.9,0,0,1-.953-3.168Zm2.641.164a3.007,3.007,0,0,0,.391,1.645,1.232,1.232,0,0,0,1.094.605,1.4,1.4,0,0,0,1.242-.57V36a1.363,1.363,0,0,0-1.227-.578,1.241,1.241,0,0,0-1.1.629A3.429,3.429,0,0,0,53.168,37.875ZM65.152,35.93l-.867-.062a1.558,1.558,0,0,0-1.594.781V42H60.059V33.547h2.469l.086,1.086a2.039,2.039,0,0,1,1.852-1.242,2.567,2.567,0,0,1,.734.094ZM68.879,42H66.238V33.547h2.641Zm-2.8-10.633a1.175,1.175,0,0,1,.406-.922,1.727,1.727,0,0,1,2.109,0,1.249,1.249,0,0,1,0,1.844,1.727,1.727,0,0,1-2.109,0A1.175,1.175,0,0,1,66.082,31.367Zm4.086,6.344a5.164,5.164,0,0,1,.867-3.164,2.854,2.854,0,0,1,2.422-1.156,2.428,2.428,0,0,1,1.906.891V30H78V42H75.637l-.133-.906a2.493,2.493,0,0,1-2.062,1.063A2.849,2.849,0,0,1,71.051,41,5.327,5.327,0,0,1,70.168,37.711Zm2.633.164q0,2.25,1.313,2.25a1.3,1.3,0,0,0,1.25-.734V36.172a1.261,1.261,0,0,0-1.234-.75q-1.219,0-1.32,1.969ZM84.262,42a2.973,2.973,0,0,1-.25-.758,2.448,2.448,0,0,1-2.031.914,3,3,0,0,1-2.031-.723,2.3,2.3,0,0,1-.836-1.816,2.364,2.364,0,0,1,1.016-2.078,5.174,5.174,0,0,1,2.953-.7h.813v-.448q0-1.17-1.008-1.17a.824.824,0,0,0-.937.926H79.316a2.36,2.36,0,0,1,1.043-1.99,4.383,4.383,0,0,1,2.66-.765,3.843,3.843,0,0,1,2.555.789,2.743,2.743,0,0,1,.961,2.164v3.742a3.832,3.832,0,0,0,.359,1.781V42Zm-1.648-1.719a1.469,1.469,0,0,0,.816-.211,1.322,1.322,0,0,0,.465-.477V38.242h-.766q-1.375,0-1.375,1.234a.754.754,0,0,0,.242.582A.876.876,0,0,0,82.613,40.281Zm5.047-2.57a5.164,5.164,0,0,1,.867-3.164,2.854,2.854,0,0,1,2.422-1.156,2.428,2.428,0,0,1,1.906.891V30H95.5V42H93.129L93,41.094a2.493,2.493,0,0,1-2.062,1.063A2.849,2.849,0,0,1,88.543,41,5.327,5.327,0,0,1,87.66,37.711Zm2.633.164q0,2.25,1.313,2.25a1.3,1.3,0,0,0,1.25-.734V36.172a1.261,1.261,0,0,0-1.234-.75q-1.219,0-1.32,1.969Zm14.063.438,1.406-4.766h2.82l-3.445,9.867-.148.359a2.617,2.617,0,0,1-2.594,1.641,4.126,4.126,0,0,1-1.086-.156V43.383h.344a1.8,1.8,0,0,0,.848-.16.973.973,0,0,0,.434-.575l.211-.563-2.937-8.538h2.813Zm-91.719,24.4a5.164,5.164,0,0,1,.867-3.164,2.854,2.854,0,0,1,2.422-1.156,2.428,2.428,0,0,1,1.906.891V55h2.641V67H18.105l-.133-.906a2.493,2.493,0,0,1-2.062,1.063A2.849,2.849,0,0,1,13.52,66,5.327,5.327,0,0,1,12.637,62.711Zm2.633.164q0,2.25,1.313,2.25a1.3,1.3,0,0,0,1.25-.734V61.172a1.261,1.261,0,0,0-1.234-.75q-1.219,0-1.32,1.969ZM24.746,67H22.105V58.547h2.641Zm-2.8-10.633a1.175,1.175,0,0,1,.406-.922,1.727,1.727,0,0,1,2.109,0,1.249,1.249,0,0,1,0,1.844,1.727,1.727,0,0,1-2.109,0A1.175,1.175,0,0,1,21.949,56.367Zm8.844,8.258a.608.608,0,0,0-.352-.539,5.347,5.347,0,0,0-1.336-.422,6.092,6.092,0,0,1-1.625-.574,2.722,2.722,0,0,1-.977-.863,2.061,2.061,0,0,1-.336-1.164,2.336,2.336,0,0,1,.961-1.918,3.958,3.958,0,0,1,2.516-.754,4.386,4.386,0,0,1,2.688.758,2.37,2.37,0,0,1,1.016,1.992H30.707q0-1.016-1.07-1.016a1.061,1.061,0,0,0-.7.23.714.714,0,0,0-.281.574A.655.655,0,0,0,29,61.5a3.248,3.248,0,0,0,1.1.359,9.486,9.486,0,0,1,1.324.336,2.406,2.406,0,0,1,1.906,2.352A2.214,2.214,0,0,1,32.3,66.43a4.505,4.505,0,0,1-2.66.727,4.6,4.6,0,0,1-1.937-.391A3.24,3.24,0,0,1,26.379,65.7a2.406,2.406,0,0,1-.477-1.414h2.461a1.017,1.017,0,0,0,.391.855,1.607,1.607,0,0,0,.961.27,1.264,1.264,0,0,0,.809-.219A.7.7,0,0,0,30.793,64.625ZM42.41,62.836a5.1,5.1,0,0,1-.887,3.145,2.843,2.843,0,0,1-2.395,1.176,2.437,2.437,0,0,1-1.914-.852V70.25H34.582v-11.7h2.461l.078.781a2.437,2.437,0,0,1,1.992-.937,2.866,2.866,0,0,1,2.43,1.152,5.16,5.16,0,0,1,.867,3.168Zm-2.633-.164q0-2.25-1.312-2.25a1.239,1.239,0,0,0-1.25.672v3.328a1.279,1.279,0,0,0,1.266.7q1.258,0,1.3-2.172Zm3.461.023a4.989,4.989,0,0,1,.492-2.254,3.52,3.52,0,0,1,1.414-1.52,4.259,4.259,0,0,1,2.164-.531A3.887,3.887,0,0,1,50.3,59.566a4.512,4.512,0,0,1,1.094,3.2v.094A4.378,4.378,0,0,1,50.3,66a3.9,3.9,0,0,1-2.973,1.16,3.942,3.942,0,0,1-2.9-1.082,4.232,4.232,0,0,1-1.18-2.934Zm2.633.164a3.145,3.145,0,0,0,.367,1.719,1.223,1.223,0,0,0,1.086.547q1.406,0,1.438-2.164V62.7q0-2.273-1.453-2.273-1.32,0-1.43,1.961Zm9.1-4.312.086.992a2.867,2.867,0,0,1,2.414-1.148,2.412,2.412,0,0,1,1.973.789,3.757,3.757,0,0,1,.676,2.375V67H57.48V61.664a1.426,1.426,0,0,0-.258-.941,1.193,1.193,0,0,0-.937-.3,1.256,1.256,0,0,0-1.148.609V67H52.5V58.547ZM64.355,67H61.715V58.547h2.641Zm-2.8-10.633a1.175,1.175,0,0,1,.406-.922,1.727,1.727,0,0,1,2.109,0,1.249,1.249,0,0,1,0,1.844,1.727,1.727,0,0,1-2.109,0A1.175,1.175,0,0,1,61.559,56.367Zm12.266,6.477a5.152,5.152,0,0,1-.859,3.2,2.878,2.878,0,0,1-2.422,1.117,2.5,2.5,0,0,1-2.078-1.023L68.355,67H66V55h2.633v4.227a2.41,2.41,0,0,1,1.9-.836,2.879,2.879,0,0,1,2.438,1.133,5.179,5.179,0,0,1,.859,3.188Zm-2.641-.168a3.437,3.437,0,0,0-.324-1.735,1.093,1.093,0,0,0-1-.519,1.261,1.261,0,0,0-1.234.679v3.354a1.268,1.268,0,0,0,1.25.671,1.118,1.118,0,0,0,1.18-.9A6.5,6.5,0,0,0,71.184,62.676ZM77.762,67H75.121V58.547h2.641Zm-2.8-10.633a1.175,1.175,0,0,1,.406-.922,1.727,1.727,0,0,1,2.109,0,1.249,1.249,0,0,1,0,1.844,1.727,1.727,0,0,1-2.109,0A1.175,1.175,0,0,1,74.965,56.367ZM82.16,67H79.52V55H82.16Zm4.4,0H83.918V58.547h2.641Zm-2.8-10.633a1.175,1.175,0,0,1,.406-.922,1.727,1.727,0,0,1,2.109,0,1.249,1.249,0,0,1,0,1.844,1.727,1.727,0,0,1-2.109,0A1.175,1.175,0,0,1,83.762,56.367Zm4.086,6.344a5.164,5.164,0,0,1,.867-3.164,2.854,2.854,0,0,1,2.422-1.156,2.428,2.428,0,0,1,1.906.891V55h2.641V67H93.316l-.133-.906a2.493,2.493,0,0,1-2.062,1.063A2.849,2.849,0,0,1,88.73,66,5.327,5.327,0,0,1,87.848,62.711Zm2.633.164q0,2.25,1.313,2.25a1.3,1.3,0,0,0,1.25-.734V61.172a1.261,1.261,0,0,0-1.234-.75q-1.219,0-1.32,1.969ZM101.941,67a2.973,2.973,0,0,1-.25-.758,2.448,2.448,0,0,1-2.031.914,3,3,0,0,1-2.031-.723,2.3,2.3,0,0,1-.836-1.816,2.364,2.364,0,0,1,1.016-2.078,5.174,5.174,0,0,1,2.953-.7h.813v-.448q0-1.17-1.008-1.17a.824.824,0,0,0-.937.926H97a2.36,2.36,0,0,1,1.043-1.99,4.383,4.383,0,0,1,2.66-.765,3.843,3.843,0,0,1,2.555.789,2.743,2.743,0,0,1,.961,2.164v3.742a3.832,3.832,0,0,0,.359,1.781V67Zm-1.648-1.719a1.469,1.469,0,0,0,.816-.211,1.322,1.322,0,0,0,.465-.477V63.242h-.766q-1.375,0-1.375,1.234a.754.754,0,0,0,.242.582A.876.876,0,0,0,100.293,65.281Zm5.047-2.57a5.164,5.164,0,0,1,.867-3.164,2.854,2.854,0,0,1,2.422-1.156,2.428,2.428,0,0,1,1.906.891V55h2.641V67h-2.367l-.133-.906a2.493,2.493,0,0,1-2.062,1.063A2.849,2.849,0,0,1,106.223,66,5.327,5.327,0,0,1,105.34,62.711Zm2.633.164q0,2.25,1.313,2.25a1.3,1.3,0,0,0,1.25-.734V61.172a1.261,1.261,0,0,0-1.234-.75q-1.219,0-1.32,1.969Zm8.328,1.57a1.5,1.5,0,0,1,1.039.371,1.3,1.3,0,0,1,0,1.9,1.639,1.639,0,0,1-2.082,0,1.294,1.294,0,0,1,0-1.891A1.486,1.486,0,0,1,116.3,64.445Z" transform="translate(501 3612)" fill="#083142"/>
    <path id="Trazado_172598" data-name="Trazado 172598" d="M9.637,14.875H5.879L5.223,17H2.293L6.465,5.625H9.043L13.246,17H10.3Zm-3.1-2.117H8.98L7.754,8.813ZM16.73,17H14.09V5H16.73ZM20.84,8.547l.086.992A2.906,2.906,0,0,1,23.34,8.391,2.14,2.14,0,0,1,25.5,9.664a2.813,2.813,0,0,1,2.484-1.273q2.57,0,2.641,3.109V17H27.988V11.664a1.611,1.611,0,0,0-.219-.945.931.931,0,0,0-.8-.3,1.247,1.247,0,0,0-1.164.7l.008.109V17H23.176V11.68a1.694,1.694,0,0,0-.211-.961.929.929,0,0,0-.8-.3,1.263,1.263,0,0,0-1.156.7V17H18.371V8.547ZM36.895,17a2.973,2.973,0,0,1-.25-.758,2.448,2.448,0,0,1-2.031.914,3,3,0,0,1-2.031-.723,2.3,2.3,0,0,1-.836-1.816,2.364,2.364,0,0,1,1.016-2.078,5.174,5.174,0,0,1,2.953-.7h.813v-.448q0-1.17-1.008-1.17a.824.824,0,0,0-.937.926H31.949a2.36,2.36,0,0,1,1.043-1.99,4.383,4.383,0,0,1,2.66-.765,3.843,3.843,0,0,1,2.555.789,2.743,2.743,0,0,1,.961,2.164v3.742a3.832,3.832,0,0,0,.359,1.781V17Zm-1.648-1.719a1.469,1.469,0,0,0,.816-.211,1.322,1.322,0,0,0,.465-.477V13.242h-.766q-1.375,0-1.375,1.234a.754.754,0,0,0,.242.582A.876.876,0,0,0,35.246,15.281Zm8.953-.156a1.171,1.171,0,0,0,.859-.3,1.1,1.1,0,0,0,.3-.84h2.469a2.922,2.922,0,0,1-1,2.281,3.705,3.705,0,0,1-2.566.891A3.751,3.751,0,0,1,41.355,16a4.556,4.556,0,0,1-1.062-3.2v-.109a5.149,5.149,0,0,1,.473-2.262,3.441,3.441,0,0,1,1.363-1.508,4.065,4.065,0,0,1,2.109-.527,3.658,3.658,0,0,1,2.617.914,3.242,3.242,0,0,1,.969,2.477H45.355a1.445,1.445,0,0,0-.32-1.008,1.106,1.106,0,0,0-.859-.352q-1.023,0-1.2,1.3a9.206,9.206,0,0,0-.055,1.141,3.616,3.616,0,0,0,.3,1.766A1.055,1.055,0,0,0,44.2,15.125Zm8.828,2.031A4.345,4.345,0,0,1,49.879,16a4.006,4.006,0,0,1-1.2-3.02v-.219a5.191,5.191,0,0,1,.48-2.289,3.516,3.516,0,0,1,1.4-1.535,4.233,4.233,0,0,1,2.188-.543A3.659,3.659,0,0,1,55.559,9.5a4.344,4.344,0,0,1,1.031,3.082V13.6H51.355a1.9,1.9,0,0,0,.617,1.117,1.836,1.836,0,0,0,1.234.406,2.366,2.366,0,0,0,1.953-.875l1.2,1.422a3.363,3.363,0,0,1-1.395,1.082A4.713,4.713,0,0,1,53.027,17.156Zm-.3-6.734q-1.156,0-1.375,1.531h2.656v-.2a1.3,1.3,0,0,0-.32-.98A1.275,1.275,0,0,0,52.73,10.422Zm7.336-1.875.086.992a2.867,2.867,0,0,1,2.414-1.148,2.412,2.412,0,0,1,1.973.789,3.757,3.757,0,0,1,.676,2.375V17H62.574V11.664a1.426,1.426,0,0,0-.258-.941,1.193,1.193,0,0,0-.937-.3,1.256,1.256,0,0,0-1.148.609V17H57.6V8.547ZM71.434,17a2.973,2.973,0,0,1-.25-.758,2.448,2.448,0,0,1-2.031.914,3,3,0,0,1-2.031-.723,2.3,2.3,0,0,1-.836-1.816A2.364,2.364,0,0,1,67.3,12.539a5.174,5.174,0,0,1,2.953-.7h.813v-.448q0-1.17-1.008-1.17a.824.824,0,0,0-.937.926H66.488a2.36,2.36,0,0,1,1.043-1.99,4.383,4.383,0,0,1,2.66-.765,3.843,3.843,0,0,1,2.555.789,2.743,2.743,0,0,1,.961,2.164v3.742a3.832,3.832,0,0,0,.359,1.781V17Zm-1.648-1.719a1.469,1.469,0,0,0,.816-.211,1.322,1.322,0,0,0,.465-.477V13.242H70.3q-1.375,0-1.375,1.234a.754.754,0,0,0,.242.582A.876.876,0,0,0,69.785,15.281Zm5.047-2.57A5.164,5.164,0,0,1,75.7,9.547a2.854,2.854,0,0,1,2.422-1.156,2.428,2.428,0,0,1,1.906.891V5h2.641V17H80.3l-.133-.906a2.493,2.493,0,0,1-2.062,1.063A2.849,2.849,0,0,1,75.715,16,5.327,5.327,0,0,1,74.832,12.711Zm2.633.164q0,2.25,1.313,2.25a1.3,1.3,0,0,0,1.25-.734V11.172a1.261,1.261,0,0,0-1.234-.75q-1.219,0-1.32,1.969Zm6.367-.18a4.989,4.989,0,0,1,.492-2.254,3.52,3.52,0,0,1,1.414-1.52A4.259,4.259,0,0,1,87.9,8.391a3.887,3.887,0,0,1,2.992,1.176,4.512,4.512,0,0,1,1.094,3.2v.094A4.378,4.378,0,0,1,90.891,16a3.9,3.9,0,0,1-2.973,1.16,3.942,3.942,0,0,1-2.9-1.082,4.232,4.232,0,0,1-1.18-2.934Zm2.633.164a3.145,3.145,0,0,0,.367,1.719,1.223,1.223,0,0,0,1.086.547q1.406,0,1.438-2.164V12.7q0-2.273-1.453-2.273-1.32,0-1.43,1.961Zm14.047.453,1.406-4.766h2.82l-3.445,9.867-.148.359a2.617,2.617,0,0,1-2.594,1.641,4.126,4.126,0,0,1-1.086-.156V18.383h.344a1.8,1.8,0,0,0,.848-.16.973.973,0,0,0,.434-.575l.211-.563L96.363,8.547h2.813ZM27.926,35.93l-.867-.062a1.558,1.558,0,0,0-1.594.781V42H22.832V33.547H25.3l.086,1.086a2.039,2.039,0,0,1,1.852-1.242,2.567,2.567,0,0,1,.734.094Zm5.039,6.227A4.345,4.345,0,0,1,29.816,41a4.006,4.006,0,0,1-1.2-3.02v-.219a5.191,5.191,0,0,1,.48-2.289,3.516,3.516,0,0,1,1.4-1.535,4.233,4.233,0,0,1,2.188-.543A3.659,3.659,0,0,1,35.5,34.5a4.344,4.344,0,0,1,1.031,3.082V38.6H31.293a1.9,1.9,0,0,0,.617,1.117,1.836,1.836,0,0,0,1.234.406A2.366,2.366,0,0,0,35.1,39.25l1.2,1.422a3.363,3.363,0,0,1-1.395,1.082A4.713,4.713,0,0,1,32.965,42.156Zm-.3-6.734q-1.156,0-1.375,1.531h2.656v-.2a1.3,1.3,0,0,0-.32-.98A1.275,1.275,0,0,0,32.668,35.422Zm9.344,4.2a.608.608,0,0,0-.352-.539,5.347,5.347,0,0,0-1.336-.422A6.092,6.092,0,0,1,38.7,38.09a2.722,2.722,0,0,1-.977-.863,2.061,2.061,0,0,1-.336-1.164,2.336,2.336,0,0,1,.961-1.918,3.958,3.958,0,0,1,2.516-.754,4.386,4.386,0,0,1,2.688.758,2.37,2.37,0,0,1,1.016,1.992H41.926q0-1.016-1.07-1.016a1.061,1.061,0,0,0-.7.23.714.714,0,0,0-.281.574.655.655,0,0,0,.344.57,3.248,3.248,0,0,0,1.1.359,9.486,9.486,0,0,1,1.324.336,2.406,2.406,0,0,1,1.906,2.352,2.214,2.214,0,0,1-1.027,1.883,4.505,4.505,0,0,1-2.66.727,4.6,4.6,0,0,1-1.937-.391A3.24,3.24,0,0,1,37.6,40.7a2.406,2.406,0,0,1-.477-1.414h2.461a1.017,1.017,0,0,0,.391.855,1.607,1.607,0,0,0,.961.27,1.264,1.264,0,0,0,.809-.219A.7.7,0,0,0,42.012,39.625Zm11.617-1.789a5.1,5.1,0,0,1-.887,3.145,2.843,2.843,0,0,1-2.395,1.176,2.437,2.437,0,0,1-1.914-.852V45.25H45.8v-11.7h2.461l.078.781a2.437,2.437,0,0,1,1.992-.937,2.866,2.866,0,0,1,2.43,1.152,5.16,5.16,0,0,1,.867,3.168ZM51,37.672q0-2.25-1.312-2.25a1.239,1.239,0,0,0-1.25.672v3.328a1.279,1.279,0,0,0,1.266.7q1.258,0,1.3-2.172ZM59.551,42a2.973,2.973,0,0,1-.25-.758,2.448,2.448,0,0,1-2.031.914,3,3,0,0,1-2.031-.723,2.3,2.3,0,0,1-.836-1.816,2.364,2.364,0,0,1,1.016-2.078,5.174,5.174,0,0,1,2.953-.7h.813v-.448q0-1.17-1.008-1.17a.824.824,0,0,0-.937.926H54.605a2.36,2.36,0,0,1,1.043-1.99,4.383,4.383,0,0,1,2.66-.765,3.843,3.843,0,0,1,2.555.789,2.743,2.743,0,0,1,.961,2.164v3.742a3.832,3.832,0,0,0,.359,1.781V42ZM57.9,40.281a1.469,1.469,0,0,0,.816-.211,1.322,1.322,0,0,0,.465-.477V38.242h-.766q-1.375,0-1.375,1.234a.754.754,0,0,0,.242.582A.876.876,0,0,0,57.9,40.281ZM66.059,42H63.418V30h2.641Zm1.289-4.289a5.164,5.164,0,0,1,.867-3.164,2.854,2.854,0,0,1,2.422-1.156,2.428,2.428,0,0,1,1.906.891V30h2.641V42H72.816l-.133-.906a2.493,2.493,0,0,1-2.062,1.063A2.849,2.849,0,0,1,68.23,41,5.327,5.327,0,0,1,67.348,37.711Zm2.633.164q0,2.25,1.313,2.25a1.3,1.3,0,0,0,1.25-.734V36.172a1.261,1.261,0,0,0-1.234-.75q-1.219,0-1.32,1.969Zm6.367-.18a4.989,4.989,0,0,1,.492-2.254,3.52,3.52,0,0,1,1.414-1.52,4.259,4.259,0,0,1,2.164-.531,3.887,3.887,0,0,1,2.992,1.176,4.512,4.512,0,0,1,1.094,3.2v.094A4.378,4.378,0,0,1,83.406,41a3.9,3.9,0,0,1-2.973,1.16,3.942,3.942,0,0,1-2.9-1.082,4.232,4.232,0,0,1-1.18-2.934Zm2.633.164a3.145,3.145,0,0,0,.367,1.719,1.223,1.223,0,0,0,1.086.547q1.406,0,1.438-2.164V37.7q0-2.273-1.453-2.273-1.32,0-1.43,1.961Z" transform="translate(800 3623)" fill="#083142"/>
    <path id="Trazado_172600" data-name="Trazado 172600" d="M30.969,13.977a1.127,1.127,0,0,0-.426-.937,5.292,5.292,0,0,0-1.5-.7,14.353,14.353,0,0,1-1.75-.7,3.314,3.314,0,0,1-2.211-2.984A2.676,2.676,0,0,1,25.637,7,3.562,3.562,0,0,1,27.2,5.871a6.065,6.065,0,0,1,2.266-.4,5.305,5.305,0,0,1,2.2.438,3.482,3.482,0,0,1,1.512,1.246A3.254,3.254,0,0,1,33.711,9H30.977a1.375,1.375,0,0,0-.426-1.078A1.66,1.66,0,0,0,29.4,7.539a1.872,1.872,0,0,0-1.16.324.955.955,0,0,0,.043,1.617,5.911,5.911,0,0,0,1.648.734,10.1,10.1,0,0,1,1.938.816,3.256,3.256,0,0,1,1.844,2.93A2.778,2.778,0,0,1,32.586,16.3a5,5,0,0,1-3.086.852,6.122,6.122,0,0,1-2.5-.5A3.775,3.775,0,0,1,25.309,15.3a3.542,3.542,0,0,1-.566-1.988h2.75a1.744,1.744,0,0,0,.473,1.348,2.234,2.234,0,0,0,1.535.434,1.765,1.765,0,0,0,1.074-.293A.967.967,0,0,0,30.969,13.977Zm8.117,3.18A4.345,4.345,0,0,1,35.938,16a4.006,4.006,0,0,1-1.2-3.02v-.219a5.191,5.191,0,0,1,.48-2.289,3.516,3.516,0,0,1,1.4-1.535A4.233,4.233,0,0,1,38.8,8.391,3.659,3.659,0,0,1,41.617,9.5a4.344,4.344,0,0,1,1.031,3.082V13.6H37.414a1.9,1.9,0,0,0,.617,1.117,1.836,1.836,0,0,0,1.234.406,2.366,2.366,0,0,0,1.953-.875l1.2,1.422a3.363,3.363,0,0,1-1.395,1.082A4.713,4.713,0,0,1,39.086,17.156Zm-.3-6.734q-1.156,0-1.375,1.531H40.07v-.2a1.3,1.3,0,0,0-.32-.98A1.275,1.275,0,0,0,38.789,10.422ZM43.4,12.711a5.708,5.708,0,0,1,.422-2.266,3.4,3.4,0,0,1,1.211-1.52,3.192,3.192,0,0,1,1.836-.535,2.538,2.538,0,0,1,2.063.891l.094-.734h2.391V16.68a3.564,3.564,0,0,1-.52,1.941,3.334,3.334,0,0,1-1.5,1.266,5.528,5.528,0,0,1-2.281.441,4.769,4.769,0,0,1-1.8-.352,3.251,3.251,0,0,1-1.332-.914l1.1-1.547a2.414,2.414,0,0,0,1.938.867,1.568,1.568,0,0,0,1.75-1.8V16.32a2.472,2.472,0,0,1-1.914.836,3.055,3.055,0,0,1-2.5-1.184A4.9,4.9,0,0,1,43.4,12.8Zm2.641.164a3.007,3.007,0,0,0,.391,1.645,1.232,1.232,0,0,0,1.094.605,1.4,1.4,0,0,0,1.242-.57V11a1.363,1.363,0,0,0-1.227-.578,1.241,1.241,0,0,0-1.1.629A3.429,3.429,0,0,0,46.039,12.875Zm11.906,3.211a2.714,2.714,0,0,1-2.258,1.07,2.662,2.662,0,0,1-2.105-.809,3.4,3.4,0,0,1-.715-2.324V8.547H55.5v5.492a.946.946,0,0,0,1.055,1.086,1.376,1.376,0,0,0,1.289-.648V8.547h2.648V17H58.023Zm9.1-5.156-.867-.062a1.558,1.558,0,0,0-1.594.781V17H61.953V8.547h2.469l.086,1.086a2.039,2.039,0,0,1,1.852-1.242,2.567,2.567,0,0,1,.734.094ZM70.773,17H68.133V8.547h2.641Zm-2.8-10.633a1.175,1.175,0,0,1,.406-.922,1.727,1.727,0,0,1,2.109,0,1.175,1.175,0,0,1,.406.922,1.175,1.175,0,0,1-.406.922,1.727,1.727,0,0,1-2.109,0A1.175,1.175,0,0,1,67.977,6.367Zm4.086,6.344a5.164,5.164,0,0,1,.867-3.164,2.854,2.854,0,0,1,2.422-1.156,2.428,2.428,0,0,1,1.906.891V5H79.9V17H77.531l-.133-.906a2.493,2.493,0,0,1-2.062,1.063A2.849,2.849,0,0,1,72.945,16,5.327,5.327,0,0,1,72.063,12.711Zm2.633.164q0,2.25,1.313,2.25a1.3,1.3,0,0,0,1.25-.734V11.172a1.261,1.261,0,0,0-1.234-.75q-1.219,0-1.32,1.969ZM86.156,17a2.973,2.973,0,0,1-.25-.758,2.448,2.448,0,0,1-2.031.914,3,3,0,0,1-2.031-.723,2.3,2.3,0,0,1-.836-1.816,2.364,2.364,0,0,1,1.016-2.078,5.174,5.174,0,0,1,2.953-.7h.813v-.448q0-1.17-1.008-1.17a.824.824,0,0,0-.937.926H81.211a2.36,2.36,0,0,1,1.043-1.99,4.383,4.383,0,0,1,2.66-.765,3.843,3.843,0,0,1,2.555.789,2.743,2.743,0,0,1,.961,2.164v3.742a3.832,3.832,0,0,0,.359,1.781V17Zm-1.648-1.719a1.469,1.469,0,0,0,.816-.211,1.322,1.322,0,0,0,.465-.477V13.242h-.766q-1.375,0-1.375,1.234a.754.754,0,0,0,.242.582A.876.876,0,0,0,84.508,15.281Zm5.047-2.57a5.164,5.164,0,0,1,.867-3.164,2.854,2.854,0,0,1,2.422-1.156,2.428,2.428,0,0,1,1.906.891V5h2.641V17H95.023l-.133-.906a2.493,2.493,0,0,1-2.062,1.063A2.849,2.849,0,0,1,90.438,16,5.327,5.327,0,0,1,89.555,12.711Zm2.633.164q0,2.25,1.313,2.25a1.3,1.3,0,0,0,1.25-.734V11.172a1.261,1.261,0,0,0-1.234-.75q-1.219,0-1.32,1.969Zm8.258-4.664a1.5,1.5,0,0,1,1.039.371,1.3,1.3,0,0,1,0,1.9,1.639,1.639,0,0,1-2.082,0,1.294,1.294,0,0,1,0-1.891A1.486,1.486,0,0,1,100.445,8.211Zm-.437,11.852-1.328-.625.266-.531a4.333,4.333,0,0,0,.57-1.937V15.016h2.109l-.008,1.7a4.238,4.238,0,0,1-.461,1.828A4.645,4.645,0,0,1,100.008,20.063ZM31.477,40.125a1.171,1.171,0,0,0,.859-.3,1.1,1.1,0,0,0,.3-.84H35.1a2.923,2.923,0,0,1-1,2.281,3.705,3.705,0,0,1-2.566.891A3.751,3.751,0,0,1,28.633,41a4.556,4.556,0,0,1-1.062-3.2v-.109a5.149,5.149,0,0,1,.473-2.262,3.441,3.441,0,0,1,1.363-1.508,4.065,4.065,0,0,1,2.109-.527,3.658,3.658,0,0,1,2.617.914,3.242,3.242,0,0,1,.969,2.477H32.633a1.445,1.445,0,0,0-.32-1.008,1.106,1.106,0,0,0-.859-.352q-1.023,0-1.2,1.3a9.206,9.206,0,0,0-.055,1.141,3.616,3.616,0,0,0,.3,1.766A1.055,1.055,0,0,0,31.477,40.125Zm4.406-2.43a4.989,4.989,0,0,1,.492-2.254,3.52,3.52,0,0,1,1.414-1.52,4.259,4.259,0,0,1,2.164-.531,3.887,3.887,0,0,1,2.992,1.176,4.512,4.512,0,0,1,1.094,3.2v.094A4.378,4.378,0,0,1,42.941,41a3.9,3.9,0,0,1-2.973,1.16,3.942,3.942,0,0,1-2.9-1.082,4.232,4.232,0,0,1-1.18-2.934Zm2.633.164a3.145,3.145,0,0,0,.367,1.719,1.223,1.223,0,0,0,1.086.547q1.406,0,1.438-2.164V37.7q0-2.273-1.453-2.273-1.32,0-1.43,1.961Zm9.1-4.312.086.992a2.867,2.867,0,0,1,2.414-1.148,2.412,2.412,0,0,1,1.973.789,3.757,3.757,0,0,1,.676,2.375V42H50.125V36.664a1.426,1.426,0,0,0-.258-.941,1.193,1.193,0,0,0-.937-.3,1.256,1.256,0,0,0-1.148.609V42H45.148V33.547Zm9.672-2.1v2.1H58.68v1.828H57.289v3.867a.987.987,0,0,0,.172.664.922.922,0,0,0,.68.188,3.862,3.862,0,0,0,.656-.047V41.93a4.859,4.859,0,0,1-1.484.227,2.758,2.758,0,0,1-2.008-.641,2.626,2.626,0,0,1-.648-1.945v-4.2H53.578V33.547h1.078v-2.1Zm7.539,4.484-.867-.062a1.558,1.558,0,0,0-1.594.781V42H59.734V33.547H62.2l.086,1.086a2.039,2.039,0,0,1,1.852-1.242,2.567,2.567,0,0,1,.734.094Zm.336,1.766a4.989,4.989,0,0,1,.492-2.254,3.52,3.52,0,0,1,1.414-1.52,4.259,4.259,0,0,1,2.164-.531,3.887,3.887,0,0,1,2.992,1.176,4.512,4.512,0,0,1,1.094,3.2v.094A4.378,4.378,0,0,1,72.223,41a3.9,3.9,0,0,1-2.973,1.16,3.942,3.942,0,0,1-2.9-1.082,4.232,4.232,0,0,1-1.18-2.934Zm2.633.164a3.145,3.145,0,0,0,.367,1.719,1.223,1.223,0,0,0,1.086.547q1.406,0,1.438-2.164V37.7q0-2.273-1.453-2.273-1.32,0-1.43,1.961ZM77.258,42H74.617V30h2.641Zm5.273-4.289a5.164,5.164,0,0,1,.867-3.164,2.854,2.854,0,0,1,2.422-1.156,2.428,2.428,0,0,1,1.906.891V30h2.641V42H88l-.133-.906A2.493,2.493,0,0,1,85.8,42.156,2.849,2.849,0,0,1,83.414,41,5.327,5.327,0,0,1,82.531,37.711Zm2.633.164q0,2.25,1.313,2.25a1.3,1.3,0,0,0,1.25-.734V36.172a1.261,1.261,0,0,0-1.234-.75q-1.219,0-1.32,1.969Zm10.789,4.281A4.345,4.345,0,0,1,92.8,41a4.006,4.006,0,0,1-1.2-3.02v-.219a5.191,5.191,0,0,1,.48-2.289,3.516,3.516,0,0,1,1.4-1.535,4.233,4.233,0,0,1,2.188-.543A3.659,3.659,0,0,1,98.484,34.5a4.344,4.344,0,0,1,1.031,3.082V38.6H94.281a1.9,1.9,0,0,0,.617,1.117,1.836,1.836,0,0,0,1.234.406,2.366,2.366,0,0,0,1.953-.875l1.2,1.422a3.363,3.363,0,0,1-1.395,1.082A4.713,4.713,0,0,1,95.953,42.156Zm-.3-6.734q-1.156,0-1.375,1.531h2.656v-.2a1.3,1.3,0,0,0-.32-.98A1.275,1.275,0,0,0,95.656,35.422ZM9.961,67a2.973,2.973,0,0,1-.25-.758,2.448,2.448,0,0,1-2.031.914,3,3,0,0,1-2.031-.723,2.3,2.3,0,0,1-.836-1.816,2.364,2.364,0,0,1,1.016-2.078,5.174,5.174,0,0,1,2.953-.7h.813v-.448q0-1.17-1.008-1.17a.824.824,0,0,0-.937.926H5.016a2.36,2.36,0,0,1,1.043-1.99,4.383,4.383,0,0,1,2.66-.765,3.843,3.843,0,0,1,2.555.789,2.743,2.743,0,0,1,.961,2.164v3.742a3.832,3.832,0,0,0,.359,1.781V67ZM8.313,65.281a1.469,1.469,0,0,0,.816-.211,1.322,1.322,0,0,0,.465-.477V63.242H8.828q-1.375,0-1.375,1.234a.754.754,0,0,0,.242.582A.876.876,0,0,0,8.313,65.281Zm8.953-.156a1.171,1.171,0,0,0,.859-.3,1.1,1.1,0,0,0,.3-.84h2.469a2.922,2.922,0,0,1-1,2.281,3.705,3.705,0,0,1-2.566.891A3.751,3.751,0,0,1,14.422,66a4.556,4.556,0,0,1-1.062-3.2v-.109a5.149,5.149,0,0,1,.473-2.262A3.441,3.441,0,0,1,15.2,58.918a4.065,4.065,0,0,1,2.109-.527,3.658,3.658,0,0,1,2.617.914,3.242,3.242,0,0,1,.969,2.477H18.422a1.445,1.445,0,0,0-.32-1.008,1.106,1.106,0,0,0-.859-.352q-1.023,0-1.2,1.3a9.206,9.206,0,0,0-.055,1.141,3.616,3.616,0,0,0,.3,1.766A1.055,1.055,0,0,0,17.266,65.125Zm8.313,0a1.171,1.171,0,0,0,.859-.3,1.1,1.1,0,0,0,.3-.84H29.2a2.922,2.922,0,0,1-1,2.281,3.705,3.705,0,0,1-2.566.891A3.751,3.751,0,0,1,22.734,66a4.556,4.556,0,0,1-1.062-3.2v-.109a5.149,5.149,0,0,1,.473-2.262,3.441,3.441,0,0,1,1.363-1.508,4.065,4.065,0,0,1,2.109-.527,3.658,3.658,0,0,1,2.617.914,3.242,3.242,0,0,1,.969,2.477H26.734a1.445,1.445,0,0,0-.32-1.008,1.106,1.106,0,0,0-.859-.352q-1.023,0-1.2,1.3a9.206,9.206,0,0,0-.055,1.141,3.616,3.616,0,0,0,.3,1.766A1.055,1.055,0,0,0,25.578,65.125Zm8.828,2.031A4.345,4.345,0,0,1,31.258,66a4.006,4.006,0,0,1-1.2-3.02v-.219a5.191,5.191,0,0,1,.48-2.289,3.516,3.516,0,0,1,1.4-1.535,4.233,4.233,0,0,1,2.188-.543A3.659,3.659,0,0,1,36.938,59.5a4.344,4.344,0,0,1,1.031,3.082V63.6H32.734a1.9,1.9,0,0,0,.617,1.117,1.836,1.836,0,0,0,1.234.406,2.366,2.366,0,0,0,1.953-.875l1.2,1.422a3.363,3.363,0,0,1-1.395,1.082A4.713,4.713,0,0,1,34.406,67.156Zm-.3-6.734q-1.156,0-1.375,1.531h2.656v-.2a1.3,1.3,0,0,0-.32-.98A1.275,1.275,0,0,0,34.109,60.422Zm9.344,4.2a.608.608,0,0,0-.352-.539,5.347,5.347,0,0,0-1.336-.422,6.092,6.092,0,0,1-1.625-.574,2.722,2.722,0,0,1-.977-.863,2.061,2.061,0,0,1-.336-1.164,2.336,2.336,0,0,1,.961-1.918,3.958,3.958,0,0,1,2.516-.754,4.386,4.386,0,0,1,2.688.758,2.37,2.37,0,0,1,1.016,1.992H43.367q0-1.016-1.07-1.016a1.061,1.061,0,0,0-.7.23.714.714,0,0,0-.281.574.655.655,0,0,0,.344.57,3.248,3.248,0,0,0,1.1.359,9.486,9.486,0,0,1,1.324.336,2.406,2.406,0,0,1,1.906,2.352,2.214,2.214,0,0,1-1.027,1.883,4.505,4.505,0,0,1-2.66.727,4.6,4.6,0,0,1-1.937-.391A3.24,3.24,0,0,1,39.039,65.7a2.406,2.406,0,0,1-.477-1.414h2.461a1.017,1.017,0,0,0,.391.855,1.607,1.607,0,0,0,.961.27,1.264,1.264,0,0,0,.809-.219A.7.7,0,0,0,43.453,64.625Zm3.438-1.93a4.989,4.989,0,0,1,.492-2.254,3.52,3.52,0,0,1,1.414-1.52,4.259,4.259,0,0,1,2.164-.531,3.887,3.887,0,0,1,2.992,1.176,4.512,4.512,0,0,1,1.094,3.2v.094A4.378,4.378,0,0,1,53.949,66a3.9,3.9,0,0,1-2.973,1.16,3.942,3.942,0,0,1-2.9-1.082,4.232,4.232,0,0,1-1.18-2.934Zm2.633.164a3.145,3.145,0,0,0,.367,1.719,1.223,1.223,0,0,0,1.086.547q1.406,0,1.438-2.164V62.7q0-2.273-1.453-2.273-1.32,0-1.43,1.961Zm14.047.453,1.406-4.766H67.8l-3.445,9.867-.148.359a2.617,2.617,0,0,1-2.594,1.641,4.126,4.126,0,0,1-1.086-.156V68.383h.344a1.8,1.8,0,0,0,.848-.16.973.973,0,0,0,.434-.575l.211-.563-2.937-8.538h2.813Zm12.469,1.813a1.171,1.171,0,0,0,.859-.3,1.1,1.1,0,0,0,.3-.84h2.469a2.922,2.922,0,0,1-1,2.281,3.705,3.705,0,0,1-2.566.891A3.751,3.751,0,0,1,73.2,66a4.556,4.556,0,0,1-1.062-3.2v-.109a5.149,5.149,0,0,1,.473-2.262,3.441,3.441,0,0,1,1.363-1.508,4.065,4.065,0,0,1,2.109-.527A3.658,3.658,0,0,1,78.7,59.3a3.242,3.242,0,0,1,.969,2.477H77.2a1.445,1.445,0,0,0-.32-1.008,1.106,1.106,0,0,0-.859-.352q-1.023,0-1.2,1.3a9.206,9.206,0,0,0-.055,1.141,3.616,3.616,0,0,0,.3,1.766A1.055,1.055,0,0,0,76.039,65.125ZM83.555,67H80.914V58.547h2.641Zm-2.8-10.633a1.175,1.175,0,0,1,.406-.922,1.727,1.727,0,0,1,2.109,0,1.249,1.249,0,0,1,0,1.844,1.727,1.727,0,0,1-2.109,0A1.175,1.175,0,0,1,80.758,56.367Zm5,10.633V60.375H84.531V58.547h1.227v-.672a2.921,2.921,0,0,1,.852-2.242,3.364,3.364,0,0,1,2.391-.8A5.235,5.235,0,0,1,90.234,55l.008,1.938a2.4,2.4,0,0,0-.648-.07q-1.2,0-1.2,1.031v.648h1.648v1.828H88.4V67Zm10.328-6.07-.867-.062a1.558,1.558,0,0,0-1.594.781V67H90.992V58.547h2.469l.086,1.086A2.039,2.039,0,0,1,95.4,58.391a2.567,2.567,0,0,1,.734.094ZM101.563,67a2.973,2.973,0,0,1-.25-.758,2.448,2.448,0,0,1-2.031.914,3,3,0,0,1-2.031-.723,2.3,2.3,0,0,1-.836-1.816,2.364,2.364,0,0,1,1.016-2.078,5.174,5.174,0,0,1,2.953-.7h.813v-.448q0-1.17-1.008-1.17a.824.824,0,0,0-.937.926H96.617a2.36,2.36,0,0,1,1.043-1.99,4.383,4.383,0,0,1,2.66-.765,3.843,3.843,0,0,1,2.555.789,2.743,2.743,0,0,1,.961,2.164v3.742a3.832,3.832,0,0,0,.359,1.781V67Zm-1.648-1.719a1.469,1.469,0,0,0,.816-.211,1.322,1.322,0,0,0,.465-.477V63.242h-.766q-1.375,0-1.375,1.234a.754.754,0,0,0,.242.582A.876.876,0,0,0,99.914,65.281Zm5.047-2.57a5.164,5.164,0,0,1,.867-3.164,2.854,2.854,0,0,1,2.422-1.156,2.428,2.428,0,0,1,1.906.891V55H112.8V67H110.43l-.133-.906a2.493,2.493,0,0,1-2.062,1.063A2.849,2.849,0,0,1,105.844,66,5.327,5.327,0,0,1,104.961,62.711Zm2.633.164q0,2.25,1.313,2.25a1.3,1.3,0,0,0,1.25-.734V61.172a1.261,1.261,0,0,0-1.234-.75q-1.219,0-1.32,1.969Zm6.367-.18a4.989,4.989,0,0,1,.492-2.254,3.52,3.52,0,0,1,1.414-1.52,4.259,4.259,0,0,1,2.164-.531,3.887,3.887,0,0,1,2.992,1.176,4.512,4.512,0,0,1,1.094,3.2v.094A4.378,4.378,0,0,1,121.02,66a3.9,3.9,0,0,1-2.973,1.16,3.942,3.942,0,0,1-2.9-1.082,4.232,4.232,0,0,1-1.18-2.934Zm2.633.164a3.145,3.145,0,0,0,.367,1.719,1.223,1.223,0,0,0,1.086.547q1.406,0,1.438-2.164V62.7q0-2.273-1.453-2.273-1.32,0-1.43,1.961Z" transform="translate(1075 3612)" fill="#083142"/>
    <path id="Trazado_172596" data-name="Trazado 172596" d="M7.914,12.172H3.6v2.719H8.7V17H.859V5.625H8.711V7.742H3.6v2.4H7.914Zm4.844-5.727v2.1h1.391v1.828H12.758v3.867a.987.987,0,0,0,.172.664.922.922,0,0,0,.68.188,3.862,3.862,0,0,0,.656-.047V16.93a4.859,4.859,0,0,1-1.484.227,2.758,2.758,0,0,1-2.008-.641,2.626,2.626,0,0,1-.648-1.945v-4.2H9.047V8.547h1.078v-2.1ZM17.961,17H15.32V8.547h2.641Zm-2.8-10.633a1.175,1.175,0,0,1,.406-.922,1.727,1.727,0,0,1,2.109,0,1.175,1.175,0,0,1,.406.922,1.175,1.175,0,0,1-.406.922,1.727,1.727,0,0,1-2.109,0A1.175,1.175,0,0,1,15.164,6.367Zm4.086,6.32a5.074,5.074,0,0,1,.875-3.156,2.874,2.874,0,0,1,2.414-1.141,2.454,2.454,0,0,1,2.078,1.063l.188-.906h2.281v11.7H24.445V16.3a2.451,2.451,0,0,1-1.922.859A2.849,2.849,0,0,1,20.137,16,5.357,5.357,0,0,1,19.25,12.688Zm2.633.164q0,2.273,1.313,2.273a1.271,1.271,0,0,0,1.25-.687V11.094a1.244,1.244,0,0,0-1.234-.672q-1.227,0-1.32,1.961Zm11.727,3.234a2.714,2.714,0,0,1-2.258,1.07,2.662,2.662,0,0,1-2.105-.809,3.4,3.4,0,0,1-.715-2.324V8.547h2.633v5.492a.946.946,0,0,0,1.055,1.086,1.376,1.376,0,0,0,1.289-.648V8.547h2.648V17H33.688Zm8.078,1.07A4.345,4.345,0,0,1,38.539,16a4.006,4.006,0,0,1-1.2-3.02v-.219a5.191,5.191,0,0,1,.48-2.289,3.516,3.516,0,0,1,1.4-1.535,4.233,4.233,0,0,1,2.188-.543A3.659,3.659,0,0,1,44.219,9.5a4.344,4.344,0,0,1,1.031,3.082V13.6H40.016a1.9,1.9,0,0,0,.617,1.117,1.836,1.836,0,0,0,1.234.406,2.366,2.366,0,0,0,1.953-.875l1.2,1.422a3.363,3.363,0,0,1-1.395,1.082A4.713,4.713,0,0,1,41.688,17.156Zm-.3-6.734q-1.156,0-1.375,1.531h2.656v-.2a1.3,1.3,0,0,0-.32-.98A1.275,1.275,0,0,0,41.391,10.422Zm7.984-3.977v2.1h1.391v1.828H49.375v3.867a.987.987,0,0,0,.172.664.922.922,0,0,0,.68.188,3.862,3.862,0,0,0,.656-.047V16.93a4.859,4.859,0,0,1-1.484.227,2.758,2.758,0,0,1-2.008-.641,2.626,2.626,0,0,1-.648-1.945v-4.2H45.664V8.547h1.078v-2.1ZM56.563,17a2.973,2.973,0,0,1-.25-.758,2.448,2.448,0,0,1-2.031.914,3,3,0,0,1-2.031-.723,2.3,2.3,0,0,1-.836-1.816,2.364,2.364,0,0,1,1.016-2.078,5.174,5.174,0,0,1,2.953-.7H56.2v-.448q0-1.17-1.008-1.17a.824.824,0,0,0-.937.926H51.617a2.36,2.36,0,0,1,1.043-1.99,4.383,4.383,0,0,1,2.66-.765,3.843,3.843,0,0,1,2.555.789,2.743,2.743,0,0,1,.961,2.164v3.742a3.832,3.832,0,0,0,.359,1.781V17Zm-1.648-1.719a1.469,1.469,0,0,0,.816-.211,1.322,1.322,0,0,0,.465-.477V13.242H55.43q-1.375,0-1.375,1.234a.754.754,0,0,0,.242.582A.876.876,0,0,0,54.914,15.281Zm5.047-2.57a5.164,5.164,0,0,1,.867-3.164A2.854,2.854,0,0,1,63.25,8.391a2.428,2.428,0,0,1,1.906.891V5H67.8V17H65.43l-.133-.906a2.493,2.493,0,0,1-2.062,1.063A2.849,2.849,0,0,1,60.844,16,5.327,5.327,0,0,1,59.961,12.711Zm2.633.164q0,2.25,1.313,2.25a1.3,1.3,0,0,0,1.25-.734V11.172a1.261,1.261,0,0,0-1.234-.75q-1.219,0-1.32,1.969Zm6.367-.18a4.989,4.989,0,0,1,.492-2.254,3.52,3.52,0,0,1,1.414-1.52,4.259,4.259,0,0,1,2.164-.531,3.887,3.887,0,0,1,2.992,1.176,4.512,4.512,0,0,1,1.094,3.2v.094A4.378,4.378,0,0,1,76.02,16a3.9,3.9,0,0,1-2.973,1.16,3.942,3.942,0,0,1-2.9-1.082,4.232,4.232,0,0,1-1.18-2.934Zm2.633.164a3.145,3.145,0,0,0,.367,1.719,1.223,1.223,0,0,0,1.086.547q1.406,0,1.438-2.164V12.7q0-2.273-1.453-2.273-1.32,0-1.43,1.961Z" transform="translate(810 3498)" fill="#083142"/>
    <path id="Trazado_172599" data-name="Trazado 172599" d="M7.918,17V5.625h3.664a5.39,5.39,0,0,1,2.711.684,4.805,4.805,0,0,1,1.879,1.93,5.826,5.826,0,0,1,.684,2.793v.523a5.86,5.86,0,0,1-.66,2.8,4.826,4.826,0,0,1-1.859,1.938A5.271,5.271,0,0,1,11.66,17ZM10.66,7.742v7.148h.953a2.133,2.133,0,0,0,1.813-.84,4.116,4.116,0,0,0,.633-2.5v-.492a4.082,4.082,0,0,0-.633-2.484,2.17,2.17,0,0,0-1.844-.836ZM17.809,12.7a4.989,4.989,0,0,1,.492-2.254,3.52,3.52,0,0,1,1.414-1.52,4.259,4.259,0,0,1,2.164-.531,3.887,3.887,0,0,1,2.992,1.176,4.512,4.512,0,0,1,1.094,3.2v.094A4.378,4.378,0,0,1,24.867,16a3.9,3.9,0,0,1-2.973,1.16A3.942,3.942,0,0,1,19,16.074a4.232,4.232,0,0,1-1.18-2.934Zm2.633.164a3.145,3.145,0,0,0,.367,1.719,1.223,1.223,0,0,0,1.086.547q1.406,0,1.438-2.164V12.7q0-2.273-1.453-2.273-1.32,0-1.43,1.961ZM30.7,15.125a1.171,1.171,0,0,0,.859-.3,1.1,1.1,0,0,0,.3-.84h2.469a2.922,2.922,0,0,1-1,2.281,3.705,3.705,0,0,1-2.566.891A3.751,3.751,0,0,1,27.855,16a4.556,4.556,0,0,1-1.062-3.2v-.109a5.149,5.149,0,0,1,.473-2.262,3.441,3.441,0,0,1,1.363-1.508,4.065,4.065,0,0,1,2.109-.527,3.658,3.658,0,0,1,2.617.914,3.242,3.242,0,0,1,.969,2.477H31.855a1.445,1.445,0,0,0-.32-1.008,1.106,1.106,0,0,0-.859-.352q-1.023,0-1.2,1.3a9.206,9.206,0,0,0-.055,1.141,3.616,3.616,0,0,0,.3,1.766A1.055,1.055,0,0,0,30.7,15.125Zm9.773.961a2.714,2.714,0,0,1-2.258,1.07,2.662,2.662,0,0,1-2.105-.809,3.4,3.4,0,0,1-.715-2.324V8.547h2.633v5.492a.946.946,0,0,0,1.055,1.086,1.376,1.376,0,0,0,1.289-.648V8.547H43.02V17H40.551Zm6.477-7.539.086.992a2.906,2.906,0,0,1,2.414-1.148,2.14,2.14,0,0,1,2.164,1.273A2.813,2.813,0,0,1,54.1,8.391q2.57,0,2.641,3.109V17H54.1V11.664a1.611,1.611,0,0,0-.219-.945.931.931,0,0,0-.8-.3,1.247,1.247,0,0,0-1.164.7l.008.109V17H49.285V11.68a1.694,1.694,0,0,0-.211-.961.929.929,0,0,0-.8-.3,1.263,1.263,0,0,0-1.156.7V17H44.48V8.547Zm15.383,8.609A4.345,4.345,0,0,1,59.184,16a4.006,4.006,0,0,1-1.2-3.02v-.219a5.191,5.191,0,0,1,.48-2.289,3.516,3.516,0,0,1,1.4-1.535,4.233,4.233,0,0,1,2.188-.543A3.659,3.659,0,0,1,64.863,9.5a4.344,4.344,0,0,1,1.031,3.082V13.6H60.66a1.9,1.9,0,0,0,.617,1.117,1.836,1.836,0,0,0,1.234.406,2.366,2.366,0,0,0,1.953-.875l1.2,1.422a3.363,3.363,0,0,1-1.395,1.082A4.713,4.713,0,0,1,62.332,17.156Zm-.3-6.734q-1.156,0-1.375,1.531h2.656v-.2a1.3,1.3,0,0,0-.32-.98A1.275,1.275,0,0,0,62.035,10.422Zm7.336-1.875.086.992a2.867,2.867,0,0,1,2.414-1.148,2.412,2.412,0,0,1,1.973.789,3.757,3.757,0,0,1,.676,2.375V17H71.879V11.664a1.426,1.426,0,0,0-.258-.941,1.193,1.193,0,0,0-.937-.3,1.256,1.256,0,0,0-1.148.609V17H66.9V8.547Zm9.672-2.1v2.1h1.391v1.828H79.043v3.867a.987.987,0,0,0,.172.664.922.922,0,0,0,.68.188,3.862,3.862,0,0,0,.656-.047V16.93a4.859,4.859,0,0,1-1.484.227,2.758,2.758,0,0,1-2.008-.641,2.626,2.626,0,0,1-.648-1.945v-4.2H75.332V8.547H76.41v-2.1ZM86.23,17a2.973,2.973,0,0,1-.25-.758,2.448,2.448,0,0,1-2.031.914,3,3,0,0,1-2.031-.723,2.3,2.3,0,0,1-.836-1.816A2.364,2.364,0,0,1,82.1,12.539a5.174,5.174,0,0,1,2.953-.7h.813v-.448q0-1.17-1.008-1.17a.824.824,0,0,0-.937.926H81.285a2.36,2.36,0,0,1,1.043-1.99,4.383,4.383,0,0,1,2.66-.765,3.843,3.843,0,0,1,2.555.789,2.743,2.743,0,0,1,.961,2.164v3.742a3.832,3.832,0,0,0,.359,1.781V17Zm-1.648-1.719a1.469,1.469,0,0,0,.816-.211,1.322,1.322,0,0,0,.465-.477V13.242H85.1q-1.375,0-1.375,1.234a.754.754,0,0,0,.242.582A.876.876,0,0,0,84.582,15.281Zm8.953-.156a1.171,1.171,0,0,0,.859-.3,1.1,1.1,0,0,0,.3-.84H97.16a2.922,2.922,0,0,1-1,2.281,3.705,3.705,0,0,1-2.566.891A3.751,3.751,0,0,1,90.691,16a4.556,4.556,0,0,1-1.062-3.2v-.109a5.149,5.149,0,0,1,.473-2.262,3.441,3.441,0,0,1,1.363-1.508,4.065,4.065,0,0,1,2.109-.527,3.658,3.658,0,0,1,2.617.914,3.242,3.242,0,0,1,.969,2.477H94.691a1.445,1.445,0,0,0-.32-1.008,1.106,1.106,0,0,0-.859-.352q-1.023,0-1.2,1.3a9.206,9.206,0,0,0-.055,1.141,3.616,3.616,0,0,0,.3,1.766A1.055,1.055,0,0,0,93.535,15.125ZM101.051,17H98.41V8.547h2.641Zm-2.8-10.633a1.175,1.175,0,0,1,.406-.922,1.727,1.727,0,0,1,2.109,0,1.175,1.175,0,0,1,.406.922,1.175,1.175,0,0,1-.406.922,1.727,1.727,0,0,1-2.109,0A1.175,1.175,0,0,1,98.254,6.367ZM102.34,12.7a4.989,4.989,0,0,1,.492-2.254,3.52,3.52,0,0,1,1.414-1.52,4.259,4.259,0,0,1,2.164-.531A3.887,3.887,0,0,1,109.4,9.566a4.512,4.512,0,0,1,1.094,3.2v.094A4.378,4.378,0,0,1,109.4,16a3.9,3.9,0,0,1-2.973,1.16,3.942,3.942,0,0,1-2.9-1.082,4.232,4.232,0,0,1-1.18-2.934Zm2.633.164a3.145,3.145,0,0,0,.367,1.719,1.223,1.223,0,0,0,1.086.547q1.406,0,1.438-2.164V12.7q0-2.273-1.453-2.273-1.32,0-1.43,1.961ZM106.77,5h2.781l-2.172,2.453-2.148,0Zm7.3,3.547.086.992a2.867,2.867,0,0,1,2.414-1.148,2.412,2.412,0,0,1,1.973.789,3.757,3.757,0,0,1,.676,2.375V17h-2.641V11.664a1.426,1.426,0,0,0-.258-.941,1.193,1.193,0,0,0-.937-.3,1.256,1.256,0,0,0-1.148.609V17h-2.633V8.547ZM30.023,37.7a4.989,4.989,0,0,1,.492-2.254,3.52,3.52,0,0,1,1.414-1.52,4.259,4.259,0,0,1,2.164-.531,3.887,3.887,0,0,1,2.992,1.176,4.512,4.512,0,0,1,1.094,3.2v.094A4.378,4.378,0,0,1,37.082,41a3.9,3.9,0,0,1-2.973,1.16,3.942,3.942,0,0,1-2.9-1.082,4.232,4.232,0,0,1-1.18-2.934Zm2.633.164a3.145,3.145,0,0,0,.367,1.719,1.223,1.223,0,0,0,1.086.547q1.406,0,1.438-2.164V37.7q0-2.273-1.453-2.273-1.32,0-1.43,1.961Zm11.8-1.93-.867-.062a1.558,1.558,0,0,0-1.594.781V42H39.359V33.547h2.469l.086,1.086a2.039,2.039,0,0,1,1.852-1.242,2.567,2.567,0,0,1,.734.094Zm.617,1.781a5.164,5.164,0,0,1,.867-3.164,2.854,2.854,0,0,1,2.422-1.156,2.428,2.428,0,0,1,1.906.891V30h2.641V42H50.539l-.133-.906a2.493,2.493,0,0,1-2.062,1.063A2.849,2.849,0,0,1,45.953,41,5.327,5.327,0,0,1,45.07,37.711Zm2.633.164q0,2.25,1.313,2.25a1.3,1.3,0,0,0,1.25-.734V36.172a1.261,1.261,0,0,0-1.234-.75q-1.219,0-1.32,1.969Zm10.789,4.281A4.345,4.345,0,0,1,55.344,41a4.006,4.006,0,0,1-1.2-3.02v-.219a5.191,5.191,0,0,1,.48-2.289,3.516,3.516,0,0,1,1.4-1.535,4.233,4.233,0,0,1,2.188-.543A3.659,3.659,0,0,1,61.023,34.5a4.344,4.344,0,0,1,1.031,3.082V38.6H56.82a1.9,1.9,0,0,0,.617,1.117,1.836,1.836,0,0,0,1.234.406,2.366,2.366,0,0,0,1.953-.875l1.2,1.422a3.363,3.363,0,0,1-1.395,1.082A4.713,4.713,0,0,1,58.492,42.156Zm-.3-6.734q-1.156,0-1.375,1.531h2.656v-.2a1.3,1.3,0,0,0-.32-.98A1.275,1.275,0,0,0,58.2,35.422Zm7.336-1.875.086.992a2.867,2.867,0,0,1,2.414-1.148A2.412,2.412,0,0,1,70,34.18a3.757,3.757,0,0,1,.676,2.375V42H68.039V36.664a1.426,1.426,0,0,0-.258-.941,1.193,1.193,0,0,0-.937-.3,1.256,1.256,0,0,0-1.148.609V42H63.063V33.547ZM76.9,42a2.973,2.973,0,0,1-.25-.758,2.448,2.448,0,0,1-2.031.914,3,3,0,0,1-2.031-.723,2.3,2.3,0,0,1-.836-1.816,2.364,2.364,0,0,1,1.016-2.078,5.174,5.174,0,0,1,2.953-.7h.813v-.448q0-1.17-1.008-1.17a.824.824,0,0,0-.937.926H71.953A2.36,2.36,0,0,1,73,34.155a4.383,4.383,0,0,1,2.66-.765,3.843,3.843,0,0,1,2.555.789,2.743,2.743,0,0,1,.961,2.164v3.742a3.832,3.832,0,0,0,.359,1.781V42ZM75.25,40.281a1.469,1.469,0,0,0,.816-.211,1.322,1.322,0,0,0,.465-.477V38.242h-.766q-1.375,0-1.375,1.234a.754.754,0,0,0,.242.582A.876.876,0,0,0,75.25,40.281Zm5.047-2.57a5.164,5.164,0,0,1,.867-3.164,2.854,2.854,0,0,1,2.422-1.156,2.428,2.428,0,0,1,1.906.891V30h2.641V42H85.766l-.133-.906a2.493,2.493,0,0,1-2.062,1.063A2.849,2.849,0,0,1,81.18,41,5.327,5.327,0,0,1,80.3,37.711Zm2.633.164q0,2.25,1.313,2.25a1.3,1.3,0,0,0,1.25-.734V36.172a1.261,1.261,0,0,0-1.234-.75q-1.219,0-1.32,1.969ZM94.391,42a2.973,2.973,0,0,1-.25-.758,2.448,2.448,0,0,1-2.031.914,3,3,0,0,1-2.031-.723,2.3,2.3,0,0,1-.836-1.816,2.364,2.364,0,0,1,1.016-2.078,5.174,5.174,0,0,1,2.953-.7h.813v-.448q0-1.17-1.008-1.17a.824.824,0,0,0-.937.926H89.445a2.36,2.36,0,0,1,1.043-1.99,4.383,4.383,0,0,1,2.66-.765,3.843,3.843,0,0,1,2.555.789,2.743,2.743,0,0,1,.961,2.164v3.742a3.832,3.832,0,0,0,.359,1.781V42Zm-1.648-1.719a1.469,1.469,0,0,0,.816-.211,1.322,1.322,0,0,0,.465-.477V38.242h-.766q-1.375,0-1.375,1.234a.754.754,0,0,0,.242.582A.876.876,0,0,0,92.742,40.281Z" transform="translate(1065 3490)" fill="#083142"/>
  </g>
</svg>
