<svg xmlns="http://www.w3.org/2000/svg" width="230.895" height="113.608" viewBox="0 0 230.895 113.608">
  <g id="Grupo_128090" data-name="Grupo 128090" transform="translate(9549.506 5883.707)">
    <path id="Trazado_165805" data-name="Trazado 165805" d="M748.329,1002.163H610.565V898.408H748.329a29.582,29.582,0,0,1,29.582,29.583v44.59A29.582,29.582,0,0,1,748.329,1002.163Z" transform="translate(-10096.522 -6777.485)" fill="#ffb476"/>
    <g id="Grupo_111426" data-name="Grupo 111426" transform="translate(-10096.522 -6777.485)">
      <path id="Trazado_165806" data-name="Trazado 165806" d="M597.019,1007.387c-15.6,0-27.885-3.509-36.505-10.427-8.956-7.187-13.5-17.021-13.5-29.225a5.052,5.052,0,0,1,5.051-5.051h17.549l-13.809-1.923a5.052,5.052,0,0,1-4.341-5.383l4.288-56.927a5.052,5.052,0,0,1,5.037-4.672h70.383a5.052,5.052,0,0,1,5.052,5.052v25.137a5.052,5.052,0,0,1-5.052,5.051H615.553a36.689,36.689,0,0,1,17.141,9.286c7.348,7.121,11.074,16.873,11.074,28.986a37.05,37.05,0,0,1-5.988,20.49,40.944,40.944,0,0,1-16.646,14.427A54.176,54.176,0,0,1,597.019,1007.387Zm-39.541-34.6a24.767,24.767,0,0,0,9.359,16.295c6.782,5.443,16.937,8.2,30.182,8.2a44.2,44.2,0,0,0,19.653-4.14A30.585,30.585,0,0,0,629.3,982.286a26.747,26.747,0,0,0,4.362-14.995c0-9.405-2.617-16.513-8-21.731-5.43-5.26-12.721-7.818-22.287-7.818a32.849,32.849,0,0,0-9.48,1.263,33.623,33.623,0,0,0-6.783,2.725c-.992.569-1.528.9-1.8,1.085a5.052,5.052,0,0,1-8.722-3.47,5.887,5.887,0,0,1,.035-.65l1.162-15.115a5.053,5.053,0,0,1,5.037-4.664h43.3V903.882H565.477L561.9,951.408l15.726,2.19a21.878,21.878,0,0,1,5.206-4.383c2.786-1.783,6.458-2.648,11.232-2.648,6.328,0,11.407,1.936,15.094,5.757,3.638,3.772,5.483,8.658,5.483,14.524a19.946,19.946,0,0,1-5.483,14.374c-3.687,3.822-8.816,5.759-15.242,5.759-6.38,0-11.5-1.856-15.223-5.517a18.274,18.274,0,0,1-5.045-8.678Zm23.835-8.942a5.04,5.04,0,0,1,1.831,3.891,8.57,8.57,0,0,0,2.626,6.523c1.795,1.764,4.457,2.62,8.144,2.62,3.63,0,6.238-.874,7.972-2.671a10.063,10.063,0,0,0,2.65-7.359,10.272,10.272,0,0,0-2.65-7.509c-1.734-1.8-4.294-2.669-7.824-2.669-3.6,0-5.166.658-5.779,1.051a11.627,11.627,0,0,0-2.864,2.306c-.716.926-1.168,1.519-1.352,1.79A5.141,5.141,0,0,1,581.313,963.844Zm6.189-34.825-.117,1.518q1.662-.619,3.584-1.2.549-.165,1.112-.316Z" fill="#fff"/>
    </g>
    <g id="Grupo_111427" data-name="Grupo 111427" transform="translate(-10096.522 -6777.485)">
      <path id="Trazado_165807" data-name="Trazado 165807" d="M582.824,923.968l-1.183,15.377q0-.294,2.957-2a38.408,38.408,0,0,1,7.837-3.18,37.759,37.759,0,0,1,10.942-1.478q16.263,0,25.8,9.241t9.537,25.359a31.941,31.941,0,0,1-5.175,17.743A35.805,35.805,0,0,1,618.9,997.677a48.968,48.968,0,0,1-21.884,4.658q-21.736,0-33.343-9.315t-11.608-25.285h26.024a13.61,13.61,0,0,0,4.141,10.128q4.137,4.07,11.681,4.066t11.607-4.214a15,15,0,0,0,4.066-10.867,15.2,15.2,0,0,0-4.066-11.016q-4.068-4.215-11.459-4.214-5.622,0-8.5,1.848a16.559,16.559,0,0,0-4.141,3.476q-1.257,1.627-1.552,2.069L556.5,955.758l4.288-56.927h70.383v25.137Z" fill="#ffb476"/>
    </g>
    <path id="Trazado_172616" data-name="Trazado 172616" d="M9.637,14.875H5.879L5.223,17H2.293L6.465,5.625H9.043L13.246,17H10.3Zm-3.1-2.117H8.98L7.754,8.813ZM16.73,17H14.09V5H16.73ZM20.84,8.547l.086.992A2.906,2.906,0,0,1,23.34,8.391,2.14,2.14,0,0,1,25.5,9.664a2.813,2.813,0,0,1,2.484-1.273q2.57,0,2.641,3.109V17H27.988V11.664a1.611,1.611,0,0,0-.219-.945.931.931,0,0,0-.8-.3,1.247,1.247,0,0,0-1.164.7l.008.109V17H23.176V11.68a1.694,1.694,0,0,0-.211-.961.929.929,0,0,0-.8-.3,1.263,1.263,0,0,0-1.156.7V17H18.371V8.547ZM36.895,17a2.973,2.973,0,0,1-.25-.758,2.448,2.448,0,0,1-2.031.914,3,3,0,0,1-2.031-.723,2.3,2.3,0,0,1-.836-1.816,2.364,2.364,0,0,1,1.016-2.078,5.174,5.174,0,0,1,2.953-.7h.813v-.448q0-1.17-1.008-1.17a.824.824,0,0,0-.937.926H31.949a2.36,2.36,0,0,1,1.043-1.99,4.383,4.383,0,0,1,2.66-.765,3.843,3.843,0,0,1,2.555.789,2.743,2.743,0,0,1,.961,2.164v3.742a3.832,3.832,0,0,0,.359,1.781V17Zm-1.648-1.719a1.469,1.469,0,0,0,.816-.211,1.322,1.322,0,0,0,.465-.477V13.242h-.766q-1.375,0-1.375,1.234a.754.754,0,0,0,.242.582A.876.876,0,0,0,35.246,15.281Zm8.953-.156a1.171,1.171,0,0,0,.859-.3,1.1,1.1,0,0,0,.3-.84h2.469a2.922,2.922,0,0,1-1,2.281,3.705,3.705,0,0,1-2.566.891A3.751,3.751,0,0,1,41.355,16a4.556,4.556,0,0,1-1.062-3.2v-.109a5.149,5.149,0,0,1,.473-2.262,3.441,3.441,0,0,1,1.363-1.508,4.065,4.065,0,0,1,2.109-.527,3.658,3.658,0,0,1,2.617.914,3.242,3.242,0,0,1,.969,2.477H45.355a1.445,1.445,0,0,0-.32-1.008,1.106,1.106,0,0,0-.859-.352q-1.023,0-1.2,1.3a9.206,9.206,0,0,0-.055,1.141,3.616,3.616,0,0,0,.3,1.766A1.055,1.055,0,0,0,44.2,15.125Zm8.828,2.031A4.345,4.345,0,0,1,49.879,16a4.006,4.006,0,0,1-1.2-3.02v-.219a5.191,5.191,0,0,1,.48-2.289,3.516,3.516,0,0,1,1.4-1.535,4.233,4.233,0,0,1,2.188-.543A3.659,3.659,0,0,1,55.559,9.5a4.344,4.344,0,0,1,1.031,3.082V13.6H51.355a1.9,1.9,0,0,0,.617,1.117,1.836,1.836,0,0,0,1.234.406,2.366,2.366,0,0,0,1.953-.875l1.2,1.422a3.363,3.363,0,0,1-1.395,1.082A4.713,4.713,0,0,1,53.027,17.156Zm-.3-6.734q-1.156,0-1.375,1.531h2.656v-.2a1.3,1.3,0,0,0-.32-.98A1.275,1.275,0,0,0,52.73,10.422Zm7.336-1.875.086.992a2.867,2.867,0,0,1,2.414-1.148,2.412,2.412,0,0,1,1.973.789,3.757,3.757,0,0,1,.676,2.375V17H62.574V11.664a1.426,1.426,0,0,0-.258-.941,1.193,1.193,0,0,0-.937-.3,1.256,1.256,0,0,0-1.148.609V17H57.6V8.547ZM71.434,17a2.973,2.973,0,0,1-.25-.758,2.448,2.448,0,0,1-2.031.914,3,3,0,0,1-2.031-.723,2.3,2.3,0,0,1-.836-1.816A2.364,2.364,0,0,1,67.3,12.539a5.174,5.174,0,0,1,2.953-.7h.813v-.448q0-1.17-1.008-1.17a.824.824,0,0,0-.937.926H66.488a2.36,2.36,0,0,1,1.043-1.99,4.383,4.383,0,0,1,2.66-.765,3.843,3.843,0,0,1,2.555.789,2.743,2.743,0,0,1,.961,2.164v3.742a3.832,3.832,0,0,0,.359,1.781V17Zm-1.648-1.719a1.469,1.469,0,0,0,.816-.211,1.322,1.322,0,0,0,.465-.477V13.242H70.3q-1.375,0-1.375,1.234a.754.754,0,0,0,.242.582A.876.876,0,0,0,69.785,15.281Zm5.047-2.57A5.164,5.164,0,0,1,75.7,9.547a2.854,2.854,0,0,1,2.422-1.156,2.428,2.428,0,0,1,1.906.891V5h2.641V17H80.3l-.133-.906a2.493,2.493,0,0,1-2.062,1.063A2.849,2.849,0,0,1,75.715,16,5.327,5.327,0,0,1,74.832,12.711Zm2.633.164q0,2.25,1.313,2.25a1.3,1.3,0,0,0,1.25-.734V11.172a1.261,1.261,0,0,0-1.234-.75q-1.219,0-1.32,1.969Zm6.367-.18a4.989,4.989,0,0,1,.492-2.254,3.52,3.52,0,0,1,1.414-1.52A4.259,4.259,0,0,1,87.9,8.391a3.887,3.887,0,0,1,2.992,1.176,4.512,4.512,0,0,1,1.094,3.2v.094A4.378,4.378,0,0,1,90.891,16a3.9,3.9,0,0,1-2.973,1.16,3.942,3.942,0,0,1-2.9-1.082,4.232,4.232,0,0,1-1.18-2.934Zm2.633.164a3.145,3.145,0,0,0,.367,1.719,1.223,1.223,0,0,0,1.086.547q1.406,0,1.438-2.164V12.7q0-2.273-1.453-2.273-1.32,0-1.43,1.961Zm14.047.453,1.406-4.766h2.82l-3.445,9.867-.148.359a2.617,2.617,0,0,1-2.594,1.641,4.126,4.126,0,0,1-1.086-.156V18.383h.344a1.8,1.8,0,0,0,.848-.16.973.973,0,0,0,.434-.575l.211-.563L96.363,8.547h2.813ZM27.926,35.93l-.867-.062a1.558,1.558,0,0,0-1.594.781V42H22.832V33.547H25.3l.086,1.086a2.039,2.039,0,0,1,1.852-1.242,2.567,2.567,0,0,1,.734.094Zm5.039,6.227A4.345,4.345,0,0,1,29.816,41a4.006,4.006,0,0,1-1.2-3.02v-.219a5.191,5.191,0,0,1,.48-2.289,3.516,3.516,0,0,1,1.4-1.535,4.233,4.233,0,0,1,2.188-.543A3.659,3.659,0,0,1,35.5,34.5a4.344,4.344,0,0,1,1.031,3.082V38.6H31.293a1.9,1.9,0,0,0,.617,1.117,1.836,1.836,0,0,0,1.234.406A2.366,2.366,0,0,0,35.1,39.25l1.2,1.422a3.363,3.363,0,0,1-1.395,1.082A4.713,4.713,0,0,1,32.965,42.156Zm-.3-6.734q-1.156,0-1.375,1.531h2.656v-.2a1.3,1.3,0,0,0-.32-.98A1.275,1.275,0,0,0,32.668,35.422Zm9.344,4.2a.608.608,0,0,0-.352-.539,5.347,5.347,0,0,0-1.336-.422A6.092,6.092,0,0,1,38.7,38.09a2.722,2.722,0,0,1-.977-.863,2.061,2.061,0,0,1-.336-1.164,2.336,2.336,0,0,1,.961-1.918,3.958,3.958,0,0,1,2.516-.754,4.386,4.386,0,0,1,2.688.758,2.37,2.37,0,0,1,1.016,1.992H41.926q0-1.016-1.07-1.016a1.061,1.061,0,0,0-.7.23.714.714,0,0,0-.281.574.655.655,0,0,0,.344.57,3.248,3.248,0,0,0,1.1.359,9.486,9.486,0,0,1,1.324.336,2.406,2.406,0,0,1,1.906,2.352,2.214,2.214,0,0,1-1.027,1.883,4.505,4.505,0,0,1-2.66.727,4.6,4.6,0,0,1-1.937-.391A3.24,3.24,0,0,1,37.6,40.7a2.406,2.406,0,0,1-.477-1.414h2.461a1.017,1.017,0,0,0,.391.855,1.607,1.607,0,0,0,.961.27,1.264,1.264,0,0,0,.809-.219A.7.7,0,0,0,42.012,39.625Zm11.617-1.789a5.1,5.1,0,0,1-.887,3.145,2.843,2.843,0,0,1-2.395,1.176,2.437,2.437,0,0,1-1.914-.852V45.25H45.8v-11.7h2.461l.078.781a2.437,2.437,0,0,1,1.992-.937,2.866,2.866,0,0,1,2.43,1.152,5.16,5.16,0,0,1,.867,3.168ZM51,37.672q0-2.25-1.312-2.25a1.239,1.239,0,0,0-1.25.672v3.328a1.279,1.279,0,0,0,1.266.7q1.258,0,1.3-2.172ZM59.551,42a2.973,2.973,0,0,1-.25-.758,2.448,2.448,0,0,1-2.031.914,3,3,0,0,1-2.031-.723,2.3,2.3,0,0,1-.836-1.816,2.364,2.364,0,0,1,1.016-2.078,5.174,5.174,0,0,1,2.953-.7h.813v-.448q0-1.17-1.008-1.17a.824.824,0,0,0-.937.926H54.605a2.36,2.36,0,0,1,1.043-1.99,4.383,4.383,0,0,1,2.66-.765,3.843,3.843,0,0,1,2.555.789,2.743,2.743,0,0,1,.961,2.164v3.742a3.832,3.832,0,0,0,.359,1.781V42ZM57.9,40.281a1.469,1.469,0,0,0,.816-.211,1.322,1.322,0,0,0,.465-.477V38.242h-.766q-1.375,0-1.375,1.234a.754.754,0,0,0,.242.582A.876.876,0,0,0,57.9,40.281ZM66.059,42H63.418V30h2.641Zm1.289-4.289a5.164,5.164,0,0,1,.867-3.164,2.854,2.854,0,0,1,2.422-1.156,2.428,2.428,0,0,1,1.906.891V30h2.641V42H72.816l-.133-.906a2.493,2.493,0,0,1-2.062,1.063A2.849,2.849,0,0,1,68.23,41,5.327,5.327,0,0,1,67.348,37.711Zm2.633.164q0,2.25,1.313,2.25a1.3,1.3,0,0,0,1.25-.734V36.172a1.261,1.261,0,0,0-1.234-.75q-1.219,0-1.32,1.969Zm6.367-.18a4.989,4.989,0,0,1,.492-2.254,3.52,3.52,0,0,1,1.414-1.52,4.259,4.259,0,0,1,2.164-.531,3.887,3.887,0,0,1,2.992,1.176,4.512,4.512,0,0,1,1.094,3.2v.094A4.378,4.378,0,0,1,83.406,41a3.9,3.9,0,0,1-2.973,1.16,3.942,3.942,0,0,1-2.9-1.082,4.232,4.232,0,0,1-1.18-2.934Zm2.633.164a3.145,3.145,0,0,0,.367,1.719,1.223,1.223,0,0,0,1.086.547q1.406,0,1.438-2.164V37.7q0-2.273-1.453-2.273-1.32,0-1.43,1.961Z" transform="translate(-9445.852 -5851.107)" fill="#083142"/>
  </g>
</svg>
