<svg xmlns="http://www.w3.org/2000/svg" width="238.42" height="113.939" viewBox="0 0 238.42 113.939">
  <g id="Grupo_128091" data-name="Grupo 128091" transform="translate(9549.506 5255.037)">
    <g id="Grupo_111431" data-name="Grupo 111431" transform="translate(-10384.757 -6147.763)">
      <path id="Trazado_165808" data-name="Trazado 165808" d="M1041.886,1002.163H893.87V898.408h148.016c17.554,0,31.785,13.245,31.785,29.583v44.59C1073.671,988.919,1059.44,1002.163,1041.886,1002.163Z" fill="#ffb476"/>
      <g id="Grupo_111429" data-name="Grupo 111429">
        <path id="Trazado_165809" data-name="Trazado 165809" d="M883.644,1006.665c-16.1,0-28.36-4.592-36.429-13.648-7.939-8.911-11.964-22.642-11.964-40.808,0-20.649,3.829-35.333,11.708-44.895,7.976-9.68,20.319-14.588,36.685-14.588,13.278,0,24.142,3.334,32.291,9.906h0c8.427,6.8,12.7,16.466,12.7,28.728v4.33h-16.9a32.863,32.863,0,0,1,19.418,31.158c0,12.561-4.45,22.5-13.227,29.549C909.431,1003.21,897.9,1006.665,883.644,1006.665Zm0-105.279c-13.848,0-23.661,3.741-30,11.436-6.458,7.836-9.732,21.088-9.732,39.387,0,15.978,3.288,27.77,9.771,35.047,6.355,7.133,16.436,10.749,29.963,10.749,12.234,0,21.943-2.813,28.859-8.362,6.72-5.4,9.987-12.851,9.987-22.795,0-5.775-1.306-10.522-3.993-14.513a25.2,25.2,0,0,0-11.1-9.1,41.055,41.055,0,0,0-16.66-3.253,32.252,32.252,0,0,0-9.9,1.71,23.9,23.9,0,0,0-8.65,4.872l-7.22,6.474V934.761c0-6.418,1.646-11.692,4.892-15.674,3.464-4.247,8.249-6.4,14.224-6.4,5.754,0,10.3,1.727,13.5,5.132a17.034,17.034,0,0,1,4.476,9.211H919.75c-.819-7.51-3.867-13.314-9.252-17.659h0C903.928,904.072,894.893,901.386,883.644,901.386Zm.443,19.962c-3.338,0-5.725,1.02-7.513,3.212-1.952,2.394-2.943,5.828-2.943,10.2v.518a35.018,35.018,0,0,1,4.533-1.826,40.888,40.888,0,0,1,12.577-2.134q1.474,0,2.916.072v-1.065a9.119,9.119,0,0,0-2.373-6.571C889.76,922.136,887.405,921.348,884.087,921.348Zm-.443,65.355c-5.82,0-10.442-1.705-13.739-5.07-3.274-3.339-4.934-7.966-4.934-13.75,0-5.8,1.7-10.438,5.038-13.781h0v0c3.343-3.342,7.979-5.037,13.782-5.037,5.831,0,10.487,1.764,13.838,5.244,3.306,3.438,4.982,8.1,4.982,13.872,0,5.836-1.716,10.444-5.1,13.7C894.177,985.078,889.511,986.7,883.644,986.7Zm.148-28.981c-3.471,0-5.976.819-7.659,2.5v0c-1.684,1.682-2.5,4.187-2.5,7.657,0,3.487.8,6,2.458,7.688,1.63,1.664,4.1,2.473,7.555,2.473,3.554,0,6.2-.812,7.868-2.415,1.642-1.577,2.44-4.014,2.44-7.45,0-3.5-.837-6.075-2.561-7.866C889.714,958.571,887.227,957.722,883.792,957.722Z" fill="#fff"/>
      </g>
      <g id="Grupo_111430" data-name="Grupo 111430">
        <path id="Trazado_165810" data-name="Trazado 165810" d="M913.216,906q11.091,8.949,11.09,25.358H897.987v-1.034a13.367,13.367,0,0,0-3.549-9.538q-3.549-3.77-10.351-3.77-6.951,0-10.868,4.8T869.3,934.761v8.577a28.071,28.071,0,0,1,10.2-5.768,36.43,36.43,0,0,1,11.237-1.921,45.133,45.133,0,0,1,18.409,3.622,29.659,29.659,0,0,1,12.938,10.646q4.731,7.024,4.732,16.931,0,16.857-11.607,26.172t-31.569,9.315q-22.329,0-33.2-12.2T839.58,952.209q0-29.127,10.721-42.141t33.343-13.012Q902.126,897.056,913.216,906Zm-40.145,51.161q-3.77,3.77-3.77,10.72T873,978.6q3.695,3.77,10.647,3.77,7.1,0,10.868-3.622t3.77-10.572q0-6.949-3.77-10.868t-10.72-3.918Q876.839,953.393,873.071,957.163Z" fill="#ffb476"/>
      </g>
    </g>
    <path id="Trazado_172617" data-name="Trazado 172617" d="M30.969,13.977a1.127,1.127,0,0,0-.426-.937,5.292,5.292,0,0,0-1.5-.7,14.353,14.353,0,0,1-1.75-.7,3.314,3.314,0,0,1-2.211-2.984A2.676,2.676,0,0,1,25.637,7,3.562,3.562,0,0,1,27.2,5.871a6.065,6.065,0,0,1,2.266-.4,5.305,5.305,0,0,1,2.2.438,3.482,3.482,0,0,1,1.512,1.246A3.254,3.254,0,0,1,33.711,9H30.977a1.375,1.375,0,0,0-.426-1.078A1.66,1.66,0,0,0,29.4,7.539a1.872,1.872,0,0,0-1.16.324.955.955,0,0,0,.043,1.617,5.911,5.911,0,0,0,1.648.734,10.1,10.1,0,0,1,1.938.816,3.256,3.256,0,0,1,1.844,2.93A2.778,2.778,0,0,1,32.586,16.3a5,5,0,0,1-3.086.852,6.122,6.122,0,0,1-2.5-.5A3.775,3.775,0,0,1,25.309,15.3a3.542,3.542,0,0,1-.566-1.988h2.75a1.744,1.744,0,0,0,.473,1.348,2.234,2.234,0,0,0,1.535.434,1.765,1.765,0,0,0,1.074-.293A.967.967,0,0,0,30.969,13.977Zm8.117,3.18A4.345,4.345,0,0,1,35.938,16a4.006,4.006,0,0,1-1.2-3.02v-.219a5.191,5.191,0,0,1,.48-2.289,3.516,3.516,0,0,1,1.4-1.535A4.233,4.233,0,0,1,38.8,8.391,3.659,3.659,0,0,1,41.617,9.5a4.344,4.344,0,0,1,1.031,3.082V13.6H37.414a1.9,1.9,0,0,0,.617,1.117,1.836,1.836,0,0,0,1.234.406,2.366,2.366,0,0,0,1.953-.875l1.2,1.422a3.363,3.363,0,0,1-1.395,1.082A4.713,4.713,0,0,1,39.086,17.156Zm-.3-6.734q-1.156,0-1.375,1.531H40.07v-.2a1.3,1.3,0,0,0-.32-.98A1.275,1.275,0,0,0,38.789,10.422ZM43.4,12.711a5.708,5.708,0,0,1,.422-2.266,3.4,3.4,0,0,1,1.211-1.52,3.192,3.192,0,0,1,1.836-.535,2.538,2.538,0,0,1,2.063.891l.094-.734h2.391V16.68a3.564,3.564,0,0,1-.52,1.941,3.334,3.334,0,0,1-1.5,1.266,5.528,5.528,0,0,1-2.281.441,4.769,4.769,0,0,1-1.8-.352,3.251,3.251,0,0,1-1.332-.914l1.1-1.547a2.414,2.414,0,0,0,1.938.867,1.568,1.568,0,0,0,1.75-1.8V16.32a2.472,2.472,0,0,1-1.914.836,3.055,3.055,0,0,1-2.5-1.184A4.9,4.9,0,0,1,43.4,12.8Zm2.641.164a3.007,3.007,0,0,0,.391,1.645,1.232,1.232,0,0,0,1.094.605,1.4,1.4,0,0,0,1.242-.57V11a1.363,1.363,0,0,0-1.227-.578,1.241,1.241,0,0,0-1.1.629A3.429,3.429,0,0,0,46.039,12.875Zm11.906,3.211a2.714,2.714,0,0,1-2.258,1.07,2.662,2.662,0,0,1-2.105-.809,3.4,3.4,0,0,1-.715-2.324V8.547H55.5v5.492a.946.946,0,0,0,1.055,1.086,1.376,1.376,0,0,0,1.289-.648V8.547h2.648V17H58.023Zm9.1-5.156-.867-.062a1.558,1.558,0,0,0-1.594.781V17H61.953V8.547h2.469l.086,1.086a2.039,2.039,0,0,1,1.852-1.242,2.567,2.567,0,0,1,.734.094ZM70.773,17H68.133V8.547h2.641Zm-2.8-10.633a1.175,1.175,0,0,1,.406-.922,1.727,1.727,0,0,1,2.109,0,1.175,1.175,0,0,1,.406.922,1.175,1.175,0,0,1-.406.922,1.727,1.727,0,0,1-2.109,0A1.175,1.175,0,0,1,67.977,6.367Zm4.086,6.344a5.164,5.164,0,0,1,.867-3.164,2.854,2.854,0,0,1,2.422-1.156,2.428,2.428,0,0,1,1.906.891V5H79.9V17H77.531l-.133-.906a2.493,2.493,0,0,1-2.062,1.063A2.849,2.849,0,0,1,72.945,16,5.327,5.327,0,0,1,72.063,12.711Zm2.633.164q0,2.25,1.313,2.25a1.3,1.3,0,0,0,1.25-.734V11.172a1.261,1.261,0,0,0-1.234-.75q-1.219,0-1.32,1.969ZM86.156,17a2.973,2.973,0,0,1-.25-.758,2.448,2.448,0,0,1-2.031.914,3,3,0,0,1-2.031-.723,2.3,2.3,0,0,1-.836-1.816,2.364,2.364,0,0,1,1.016-2.078,5.174,5.174,0,0,1,2.953-.7h.813v-.448q0-1.17-1.008-1.17a.824.824,0,0,0-.937.926H81.211a2.36,2.36,0,0,1,1.043-1.99,4.383,4.383,0,0,1,2.66-.765,3.843,3.843,0,0,1,2.555.789,2.743,2.743,0,0,1,.961,2.164v3.742a3.832,3.832,0,0,0,.359,1.781V17Zm-1.648-1.719a1.469,1.469,0,0,0,.816-.211,1.322,1.322,0,0,0,.465-.477V13.242h-.766q-1.375,0-1.375,1.234a.754.754,0,0,0,.242.582A.876.876,0,0,0,84.508,15.281Zm5.047-2.57a5.164,5.164,0,0,1,.867-3.164,2.854,2.854,0,0,1,2.422-1.156,2.428,2.428,0,0,1,1.906.891V5h2.641V17H95.023l-.133-.906a2.493,2.493,0,0,1-2.062,1.063A2.849,2.849,0,0,1,90.438,16,5.327,5.327,0,0,1,89.555,12.711Zm2.633.164q0,2.25,1.313,2.25a1.3,1.3,0,0,0,1.25-.734V11.172a1.261,1.261,0,0,0-1.234-.75q-1.219,0-1.32,1.969Zm8.258-4.664a1.5,1.5,0,0,1,1.039.371,1.3,1.3,0,0,1,0,1.9,1.639,1.639,0,0,1-2.082,0,1.294,1.294,0,0,1,0-1.891A1.486,1.486,0,0,1,100.445,8.211Zm-.437,11.852-1.328-.625.266-.531a4.333,4.333,0,0,0,.57-1.937V15.016h2.109l-.008,1.7a4.238,4.238,0,0,1-.461,1.828A4.645,4.645,0,0,1,100.008,20.063ZM36.133,38.148a4.154,4.154,0,0,1-.641,2.1,3.866,3.866,0,0,1-1.645,1.41,5.6,5.6,0,0,1-2.418.5A4.467,4.467,0,0,1,27.9,40.7a6.032,6.032,0,0,1-1.289-4.125v-.562a6.885,6.885,0,0,1,.582-2.926,4.41,4.41,0,0,1,1.676-1.937,4.676,4.676,0,0,1,2.531-.684,4.9,4.9,0,0,1,3.328,1.09,4.306,4.306,0,0,1,1.43,3H33.422a2.037,2.037,0,0,0-.523-1.492,2.153,2.153,0,0,0-1.5-.453,1.638,1.638,0,0,0-1.5.766,4.921,4.921,0,0,0-.5,2.445v.8a5.445,5.445,0,0,0,.457,2.6,1.672,1.672,0,0,0,1.574.781,2.106,2.106,0,0,0,1.445-.445,1.89,1.89,0,0,0,.531-1.414Zm.844-.453a4.989,4.989,0,0,1,.492-2.254,3.52,3.52,0,0,1,1.414-1.52,4.259,4.259,0,0,1,2.164-.531,3.887,3.887,0,0,1,2.992,1.176,4.512,4.512,0,0,1,1.094,3.2v.094A4.378,4.378,0,0,1,44.035,41a3.9,3.9,0,0,1-2.973,1.16,3.942,3.942,0,0,1-2.9-1.082,4.232,4.232,0,0,1-1.18-2.934Zm2.633.164a3.145,3.145,0,0,0,.367,1.719,1.223,1.223,0,0,0,1.086.547q1.406,0,1.438-2.164V37.7q0-2.273-1.453-2.273-1.32,0-1.43,1.961Zm9.1-4.312.086.992a2.867,2.867,0,0,1,2.414-1.148,2.412,2.412,0,0,1,1.973.789,3.757,3.757,0,0,1,.676,2.375V42H51.219V36.664a1.426,1.426,0,0,0-.258-.941,1.193,1.193,0,0,0-.937-.3,1.256,1.256,0,0,0-1.148.609V42H46.242V33.547Zm9.672-2.1v2.1h1.391v1.828H58.383v3.867a.987.987,0,0,0,.172.664.922.922,0,0,0,.68.188,3.862,3.862,0,0,0,.656-.047V41.93a4.859,4.859,0,0,1-1.484.227,2.758,2.758,0,0,1-2.008-.641,2.626,2.626,0,0,1-.648-1.945v-4.2H54.672V33.547H55.75v-2.1Zm7.539,4.484-.867-.062a1.558,1.558,0,0,0-1.594.781V42H60.828V33.547H63.3l.086,1.086a2.039,2.039,0,0,1,1.852-1.242,2.567,2.567,0,0,1,.734.094Zm.336,1.766a4.989,4.989,0,0,1,.492-2.254,3.52,3.52,0,0,1,1.414-1.52,4.259,4.259,0,0,1,2.164-.531,3.887,3.887,0,0,1,2.992,1.176,4.512,4.512,0,0,1,1.094,3.2v.094A4.378,4.378,0,0,1,73.316,41a3.9,3.9,0,0,1-2.973,1.16,3.942,3.942,0,0,1-2.9-1.082,4.232,4.232,0,0,1-1.18-2.934Zm2.633.164a3.145,3.145,0,0,0,.367,1.719,1.223,1.223,0,0,0,1.086.547q1.406,0,1.438-2.164V37.7q0-2.273-1.453-2.273-1.32,0-1.43,1.961ZM78.352,42H75.711V30h2.641Zm5.273-4.289a5.164,5.164,0,0,1,.867-3.164,2.854,2.854,0,0,1,2.422-1.156,2.428,2.428,0,0,1,1.906.891V30h2.641V42H89.094l-.133-.906A2.493,2.493,0,0,1,86.9,42.156,2.849,2.849,0,0,1,84.508,41,5.327,5.327,0,0,1,83.625,37.711Zm2.633.164q0,2.25,1.313,2.25a1.3,1.3,0,0,0,1.25-.734V36.172a1.261,1.261,0,0,0-1.234-.75q-1.219,0-1.32,1.969Zm10.789,4.281A4.345,4.345,0,0,1,93.9,41a4.006,4.006,0,0,1-1.2-3.02v-.219a5.191,5.191,0,0,1,.48-2.289,3.516,3.516,0,0,1,1.4-1.535,4.233,4.233,0,0,1,2.188-.543A3.659,3.659,0,0,1,99.578,34.5a4.344,4.344,0,0,1,1.031,3.082V38.6H95.375a1.9,1.9,0,0,0,.617,1.117,1.836,1.836,0,0,0,1.234.406,2.366,2.366,0,0,0,1.953-.875l1.2,1.422a3.363,3.363,0,0,1-1.395,1.082A4.713,4.713,0,0,1,97.047,42.156Zm-.3-6.734q-1.156,0-1.375,1.531h2.656v-.2a1.3,1.3,0,0,0-.32-.98A1.275,1.275,0,0,0,96.75,35.422ZM9.484,64.875H5.727L5.07,67H2.141L6.313,55.625H8.891L13.094,67H10.148Zm-3.1-2.117H8.828L7.6,58.813Zm10.992,2.367a1.171,1.171,0,0,0,.859-.3,1.1,1.1,0,0,0,.3-.84H21a2.922,2.922,0,0,1-1,2.281,3.705,3.705,0,0,1-2.566.891A3.751,3.751,0,0,1,14.531,66a4.556,4.556,0,0,1-1.062-3.2v-.109a5.149,5.149,0,0,1,.473-2.262A3.441,3.441,0,0,1,15.3,58.918a4.065,4.065,0,0,1,2.109-.527,3.658,3.658,0,0,1,2.617.914A3.242,3.242,0,0,1,21,61.781H18.531a1.445,1.445,0,0,0-.32-1.008,1.106,1.106,0,0,0-.859-.352q-1.023,0-1.2,1.3a9.206,9.206,0,0,0-.055,1.141,3.616,3.616,0,0,0,.3,1.766A1.055,1.055,0,0,0,17.375,65.125Zm8.313,0a1.171,1.171,0,0,0,.859-.3,1.1,1.1,0,0,0,.3-.84h2.469a2.922,2.922,0,0,1-1,2.281,3.705,3.705,0,0,1-2.566.891A3.751,3.751,0,0,1,22.844,66a4.556,4.556,0,0,1-1.062-3.2v-.109a5.149,5.149,0,0,1,.473-2.262,3.441,3.441,0,0,1,1.363-1.508,4.065,4.065,0,0,1,2.109-.527,3.658,3.658,0,0,1,2.617.914,3.242,3.242,0,0,1,.969,2.477H26.844a1.445,1.445,0,0,0-.32-1.008,1.106,1.106,0,0,0-.859-.352q-1.023,0-1.2,1.3a9.206,9.206,0,0,0-.055,1.141,3.616,3.616,0,0,0,.3,1.766A1.055,1.055,0,0,0,25.688,65.125Zm8.828,2.031A4.345,4.345,0,0,1,31.367,66a4.006,4.006,0,0,1-1.2-3.02v-.219a5.191,5.191,0,0,1,.48-2.289,3.516,3.516,0,0,1,1.4-1.535,4.233,4.233,0,0,1,2.188-.543A3.659,3.659,0,0,1,37.047,59.5a4.344,4.344,0,0,1,1.031,3.082V63.6H32.844a1.9,1.9,0,0,0,.617,1.117,1.836,1.836,0,0,0,1.234.406,2.366,2.366,0,0,0,1.953-.875l1.2,1.422a3.363,3.363,0,0,1-1.395,1.082A4.713,4.713,0,0,1,34.516,67.156Zm-.3-6.734q-1.156,0-1.375,1.531H35.5v-.2a1.3,1.3,0,0,0-.32-.98A1.275,1.275,0,0,0,34.219,60.422Zm9.344,4.2a.608.608,0,0,0-.352-.539,5.347,5.347,0,0,0-1.336-.422,6.092,6.092,0,0,1-1.625-.574,2.722,2.722,0,0,1-.977-.863,2.061,2.061,0,0,1-.336-1.164,2.336,2.336,0,0,1,.961-1.918,3.958,3.958,0,0,1,2.516-.754,4.386,4.386,0,0,1,2.688.758,2.37,2.37,0,0,1,1.016,1.992H43.477q0-1.016-1.07-1.016a1.061,1.061,0,0,0-.7.23.714.714,0,0,0-.281.574.655.655,0,0,0,.344.57,3.248,3.248,0,0,0,1.1.359A9.486,9.486,0,0,1,44.2,62.2,2.406,2.406,0,0,1,46.1,64.547a2.214,2.214,0,0,1-1.027,1.883,4.505,4.505,0,0,1-2.66.727,4.6,4.6,0,0,1-1.937-.391A3.24,3.24,0,0,1,39.148,65.7a2.406,2.406,0,0,1-.477-1.414h2.461a1.017,1.017,0,0,0,.391.855,1.607,1.607,0,0,0,.961.27,1.264,1.264,0,0,0,.809-.219A.7.7,0,0,0,43.563,64.625ZM47,62.7a4.989,4.989,0,0,1,.492-2.254,3.52,3.52,0,0,1,1.414-1.52,4.259,4.259,0,0,1,2.164-.531,3.887,3.887,0,0,1,2.992,1.176,4.512,4.512,0,0,1,1.094,3.2v.094A4.378,4.378,0,0,1,54.059,66a3.9,3.9,0,0,1-2.973,1.16,3.942,3.942,0,0,1-2.9-1.082,4.232,4.232,0,0,1-1.18-2.934Zm2.633.164A3.145,3.145,0,0,0,50,64.578a1.223,1.223,0,0,0,1.086.547q1.406,0,1.438-2.164V62.7q0-2.273-1.453-2.273-1.32,0-1.43,1.961Zm14.047.453,1.406-4.766h2.82l-3.445,9.867-.148.359a2.617,2.617,0,0,1-2.594,1.641,4.126,4.126,0,0,1-1.086-.156V68.383h.344a1.8,1.8,0,0,0,.848-.16.973.973,0,0,0,.434-.575l.211-.563-2.937-8.538h2.813ZM81.9,63.148a4.154,4.154,0,0,1-.641,2.1,3.866,3.866,0,0,1-1.645,1.41,5.6,5.6,0,0,1-2.418.5A4.467,4.467,0,0,1,73.664,65.7a6.032,6.032,0,0,1-1.289-4.125v-.562a6.885,6.885,0,0,1,.582-2.926,4.41,4.41,0,0,1,1.676-1.937,4.676,4.676,0,0,1,2.531-.684,4.9,4.9,0,0,1,3.328,1.09,4.306,4.306,0,0,1,1.43,3H79.188a2.037,2.037,0,0,0-.523-1.492,2.153,2.153,0,0,0-1.5-.453,1.638,1.638,0,0,0-1.5.766,4.921,4.921,0,0,0-.5,2.445v.8a5.445,5.445,0,0,0,.457,2.6,1.672,1.672,0,0,0,1.574.781,2.106,2.106,0,0,0,1.445-.445,1.89,1.89,0,0,0,.531-1.414ZM85.852,67H83.211V58.547h2.641Zm-2.8-10.633a1.175,1.175,0,0,1,.406-.922,1.727,1.727,0,0,1,2.109,0,1.249,1.249,0,0,1,0,1.844,1.727,1.727,0,0,1-2.109,0A1.175,1.175,0,0,1,83.055,56.367Zm5,10.633V60.375H86.828V58.547h1.227v-.672a2.921,2.921,0,0,1,.852-2.242,3.364,3.364,0,0,1,2.391-.8A5.235,5.235,0,0,1,92.531,55l.008,1.938a2.4,2.4,0,0,0-.648-.07q-1.2,0-1.2,1.031v.648h1.648v1.828H90.7V67Zm10.328-6.07-.867-.062a1.558,1.558,0,0,0-1.594.781V67H93.289V58.547h2.469l.086,1.086A2.039,2.039,0,0,1,97.7,58.391a2.567,2.567,0,0,1,.734.094ZM103.859,67a2.973,2.973,0,0,1-.25-.758,2.448,2.448,0,0,1-2.031.914,3,3,0,0,1-2.031-.723,2.3,2.3,0,0,1-.836-1.816,2.364,2.364,0,0,1,1.016-2.078,5.174,5.174,0,0,1,2.953-.7h.813v-.448q0-1.17-1.008-1.17a.824.824,0,0,0-.937.926H98.914a2.36,2.36,0,0,1,1.043-1.99,4.383,4.383,0,0,1,2.66-.765,3.843,3.843,0,0,1,2.555.789,2.743,2.743,0,0,1,.961,2.164v3.742a3.832,3.832,0,0,0,.359,1.781V67Zm-1.648-1.719a1.469,1.469,0,0,0,.816-.211,1.322,1.322,0,0,0,.465-.477V63.242h-.766q-1.375,0-1.375,1.234a.754.754,0,0,0,.242.582A.876.876,0,0,0,102.211,65.281Zm5.047-2.57a5.164,5.164,0,0,1,.867-3.164,2.854,2.854,0,0,1,2.422-1.156,2.428,2.428,0,0,1,1.906.891V55h2.641V67h-2.367l-.133-.906a2.493,2.493,0,0,1-2.062,1.063A2.849,2.849,0,0,1,108.141,66,5.327,5.327,0,0,1,107.258,62.711Zm2.633.164q0,2.25,1.313,2.25a1.3,1.3,0,0,0,1.25-.734V61.172a1.261,1.261,0,0,0-1.234-.75q-1.219,0-1.32,1.969Zm6.367-.18a4.989,4.989,0,0,1,.492-2.254,3.52,3.52,0,0,1,1.414-1.52,4.259,4.259,0,0,1,2.164-.531,3.887,3.887,0,0,1,2.992,1.176,4.512,4.512,0,0,1,1.094,3.2v.094a4.378,4.378,0,0,1-1.1,3.137,3.9,3.9,0,0,1-2.973,1.16,3.942,3.942,0,0,1-2.9-1.082,4.232,4.232,0,0,1-1.18-2.934Zm2.633.164a3.145,3.145,0,0,0,.367,1.719,1.223,1.223,0,0,0,1.086.547q1.406,0,1.438-2.164V62.7q0-2.273-1.453-2.273-1.32,0-1.43,1.961Z" transform="translate(-9446.086 -5232.385)" fill="#083142"/>
  </g>
</svg>
