<svg id="_022-performance" data-name="022-performance" xmlns="http://www.w3.org/2000/svg" width="61.923" height="61.924" viewBox="0 0 61.923 61.924">
  <g id="Grupo_26917" data-name="Grupo 26917" transform="translate(0.907 0.907)">
    <path id="Trazado_26385" data-name="Trazado 26385" d="M55.685,19.427A25.632,25.632,0,1,1,37.56,11.919a25.559,25.559,0,0,1,18.125,7.508ZM37.56,7.5A30.055,30.055,0,1,0,67.616,37.553,30.054,30.054,0,0,0,37.56,7.5Z" transform="translate(-7.507 -7.5)" fill="#ffca28" fill-rule="evenodd"/>
  </g>
  <g id="Grupo_26918" data-name="Grupo 26918" transform="translate(5.326 5.326)">
    <path id="Trazado_26386" data-name="Trazado 26386" d="M87.8,51.547a25.634,25.634,0,1,0,7.508,18.126A25.552,25.552,0,0,0,87.8,51.547Z" transform="translate(-44.045 -44.039)" fill="#98d9e2" fill-rule="evenodd"/>
  </g>
  <g id="Grupo_26919" data-name="Grupo 26919" transform="translate(23.945 5.326)">
    <path id="Trazado_26387" data-name="Trazado 26387" d="M205.005,44.516c29.792,4.971,27.2,48.79-7.014,49.822a25.638,25.638,0,1,0,7.014-50.3Z" transform="translate(-197.991 -44.039)" fill="#43b6c5" fill-rule="evenodd"/>
  </g>
  <g id="Grupo_26920" data-name="Grupo 26920" transform="translate(29.671 12.523)">
    <path id="Trazado_26388" data-name="Trazado 26388" d="M246.622,108.375a13.561,13.561,0,0,1,9.62,3.984h2.678l.74-3.422a18.383,18.383,0,0,0-13.038-5.4l-1.288,2.676Z" transform="translate(-245.334 -103.538)" fill="#ffd772" fill-rule="evenodd"/>
  </g>
  <g id="Grupo_26921" data-name="Grupo 26921" transform="translate(25.149 0.907)">
    <path id="Trazado_26389" data-name="Trazado 26389" d="M209.516,7.795a29.9,29.9,0,0,1,12.1,5.355,25.643,25.643,0,0,1-1.3,49.187,29.845,29.845,0,0,1-12.38,4.711A30.057,30.057,0,1,0,213.75,7.5,30.276,30.276,0,0,0,209.516,7.795Z" transform="translate(-207.939 -7.5)" fill="#ffa726" fill-rule="evenodd"/>
  </g>
  <g id="Grupo_26922" data-name="Grupo 26922" transform="translate(17.922 12.522)">
    <path id="Trazado_26390" data-name="Trazado 26390" d="M148.187,108.937l1.026,2.679,2.4.743a13.559,13.559,0,0,1,9.616-3.984v-4.837A18.383,18.383,0,0,0,148.187,108.937Z" transform="translate(-148.187 -103.537)" fill="#7fdbae" fill-rule="evenodd"/>
  </g>
  <g id="Grupo_26923" data-name="Grupo 26923" transform="translate(12.522 17.922)">
    <path id="Trazado_26391" data-name="Trazado 26391" d="M112.363,151.606l-3.421-3.422a18.384,18.384,0,0,0-5.4,13.038h4.837A13.559,13.559,0,0,1,112.363,151.606Z" transform="translate(-103.542 -148.184)" fill="#375e7d" fill-rule="evenodd"/>
  </g>
  <g id="Grupo_26924" data-name="Grupo 26924" transform="translate(21.858 23.703)">
    <path id="Trazado_26392" data-name="Trazado 26392" d="M189.866,205.534l-5.785-9.558a9.1,9.1,0,0,0,4.045,16C188.683,210.432,189.866,205.534,189.866,205.534Z" transform="translate(-180.728 -195.976)" fill="#375e7d" fill-rule="evenodd"/>
  </g>
  <g id="Grupo_26925" data-name="Grupo 26925" transform="translate(40.579 17.922)">
    <path id="Trazado_26393" data-name="Trazado 26393" d="M338.942,148.184l-3.418,3.422a13.559,13.559,0,0,1,3.984,9.617h4.837A18.372,18.372,0,0,0,338.942,148.184Z" transform="translate(-335.524 -148.184)" fill="#eb5468" fill-rule="evenodd"/>
  </g>
  <g id="Grupo_26926" data-name="Grupo 26926" transform="translate(28.258 21.656)">
    <path id="Trazado_26394" data-name="Trazado 26394" d="M245.454,188.155a9.108,9.108,0,0,0-11.8-8.694l3.187,11.317c.922,1.337,4.384,2.552,5.891,3.874A9.075,9.075,0,0,0,245.454,188.155Z" transform="translate(-233.65 -179.053)" fill="#375e7d" fill-rule="evenodd"/>
  </g>
  <g id="Grupo_26927" data-name="Grupo 26927" transform="translate(24.165 17.77)">
    <path id="Trazado_26395" data-name="Trazado 26395" d="M211.862,162.717l-7.961-11.5-2.53-3.662c-.771-1.114-1.8-.669-1.515.655l1,4.646,2.869,13.384a6.131,6.131,0,0,0,1.176,2.612c2.544,3.123,7.7,1.245,8.081-2.444A5.5,5.5,0,0,0,211.862,162.717Z" transform="translate(-199.808 -146.925)" fill="#eb5468" fill-rule="evenodd"/>
  </g>
  <g id="Grupo_26928" data-name="Grupo 26928" transform="translate(24.165 17.77)">
    <path id="Trazado_26396" data-name="Trazado 26396" d="M211.862,162.717l-7.961-11.5-2.53-3.662c-.771-1.114-1.8-.669-1.515.655l.521,2.427.727,1.049,7.957,11.5a5.494,5.494,0,0,1,1.118,3.692,4.479,4.479,0,0,1-2.575,3.511,4.761,4.761,0,0,0,5.376-3.98A5.5,5.5,0,0,0,211.862,162.717Z" transform="translate(-199.808 -146.925)" fill="#e5384f" fill-rule="evenodd"/>
  </g>
  <g id="Grupo_26929" data-name="Grupo 26929" transform="translate(29.938 21.656)">
    <path id="Trazado_26397" data-name="Trazado 26397" d="M247.539,179.111a9.108,9.108,0,0,1,5.609,10.882l.672.967a5.5,5.5,0,0,1,1.118,3.692,9.1,9.1,0,0,0-7.4-15.541Z" transform="translate(-247.539 -179.053)" fill="#2b4d66" fill-rule="evenodd"/>
  </g>
  <g id="Grupo_26930" data-name="Grupo 26930" transform="translate(44.268 18.605)">
    <path id="Trazado_26398" data-name="Trazado 26398" d="M366.84,157.874a18.634,18.634,0,0,1-.816,5.489,13.622,13.622,0,0,1,.295,2.818h4.837a18.385,18.385,0,0,0-4.752-12.356A18.911,18.911,0,0,1,366.84,157.874Z" transform="translate(-366.024 -153.825)" fill="#e5384f" fill-rule="evenodd"/>
  </g>
  <g id="Grupo_26931" data-name="Grupo 26931" transform="translate(0 0)">
    <path id="Trazado_26399" data-name="Trazado 26399" d="M224.709,380.921h-7.971a.907.907,0,1,0,0,1.814h7.971a.907.907,0,1,0,0-1.814Z" transform="translate(-189.728 -334.85)"/>
    <path id="Trazado_26400" data-name="Trazado 26400" d="M134.735,115.383a19.346,19.346,0,0,0-38.693,0,.907.907,0,0,0,.907.907h4.837a.907.907,0,0,0,.907-.907,12.734,12.734,0,0,1,5.351-10.355l.593,2.763a9.97,9.97,0,0,0-3.259,7.39.907.907,0,0,0,1.814,0,8.158,8.158,0,0,1,1.9-5.248L111.62,121.7a8.51,8.51,0,0,0,.236.876,8.217,8.217,0,0,1-3.89-3.916.907.907,0,1,0-1.642.77,10.028,10.028,0,0,0,6.874,5.517,5.019,5.019,0,0,0,2.84,1.574,5.372,5.372,0,0,0,.97.087A5.88,5.88,0,0,0,121.876,124a5.038,5.038,0,0,0,.746-1.905,10.005,10.005,0,0,0-7.235-16.921,10.039,10.039,0,0,0-2.317.272l-1.5-2.169a12.706,12.706,0,0,1,16.514,12.109.907.907,0,0,0,.907.907h4.837a.908.908,0,0,0,.907-.907Zm-33.827-.907H97.879a17.464,17.464,0,0,1,4.493-10.825l2.139,2.139A14.546,14.546,0,0,0,100.908,114.476Zm14.479-7.491a8.2,8.2,0,0,1,7,12.455,7.715,7.715,0,0,0-1-1.971l-7.194-10.4A8.251,8.251,0,0,1,115.387,106.985ZM119.9,118.5c1.122,1.623,1.283,3.225.452,4.512a4.053,4.053,0,0,1-3.986,1.724c-1.5-.276-2.559-1.489-2.972-3.417l-3.8-17.709Zm-5.42-17.6a14.387,14.387,0,0,0-4.075.85,1.682,1.682,0,0,0-1.76-.349,1.717,1.717,0,0,0-.957,1.683,14.488,14.488,0,0,0-1.894,1.419l-2.138-2.138a17.46,17.46,0,0,1,10.824-4.493Zm1.814,0V97.876a17.466,17.466,0,0,1,10.826,4.492l-2.139,2.141A14.453,14.453,0,0,0,116.294,100.9Zm13.575,13.571a14.447,14.447,0,0,0-3.605-8.685l2.138-2.141a17.461,17.461,0,0,1,4.495,10.826Z" transform="translate(-84.427 -84.423)"/>
    <path id="Trazado_26401" data-name="Trazado 26401" d="M44.318,44.312a26.539,26.539,0,1,0,18.767-7.774,26.368,26.368,0,0,0-18.767,7.774Zm1.937,36.881,1.255-1.255a.907.907,0,0,0-1.283-1.283L44.972,79.91a24.533,24.533,0,0,1-6.6-15.923h1.776a.907.907,0,0,0,0-1.814H38.376a24.533,24.533,0,0,1,6.6-15.923L46.227,47.5a.907.907,0,0,0,1.283-1.283l-1.255-1.255a24.531,24.531,0,0,1,15.923-6.6v1.776a.907.907,0,0,0,1.814,0V38.37a24.532,24.532,0,0,1,15.923,6.6l-1.255,1.255A.907.907,0,1,0,79.942,47.5L81.2,46.249a24.532,24.532,0,0,1,6.6,15.923H86.016a.907.907,0,1,0,0,1.814h1.776A24.533,24.533,0,0,1,81.2,79.91l-1.255-1.255a.907.907,0,0,0-1.283,1.283l1.255,1.255a24.72,24.72,0,0,1-33.66,0Z" transform="translate(-32.125 -32.119)"/>
    <path id="Trazado_26402" data-name="Trazado 26402" d="M59.211,18.258A30.864,30.864,0,0,0,51.847,8.1a.907.907,0,0,0-1.224,1.339,29.126,29.126,0,1,1-3-2.4.907.907,0,1,0,1.038-1.488,30.962,30.962,0,0,0-39.586,47.3A30.962,30.962,0,0,0,61.93,30.961,30.718,30.718,0,0,0,59.211,18.258Z" transform="translate(-0.007 0)"/>
  </g>
</svg>
