<svg xmlns="http://www.w3.org/2000/svg" width="125.418" height="150.45" viewBox="0 0 125.418 150.45">
  <g id="Grupo_128098" data-name="Grupo 128098" transform="translate(21417.416 4137.359)">
    <g id="_012-pie_chart" data-name="012-pie chart" transform="translate(-21417.416 -4137.359)">
      <g id="Grupo_26826" data-name="Grupo 26826" transform="translate(2.204 41.994)">
        <path id="Trazado_26250" data-name="Trazado 26250" d="M103.037,163.552l-48.7-20.641a52.376,52.376,0,0,0,21.382,65.67,53.052,53.052,0,0,0,27.32,7.522Z" transform="translate(-50.096 -142.911)" fill="#4dd0e1" fill-rule="evenodd"/>
      </g>
      <g id="Grupo_26827" data-name="Grupo 26827" transform="translate(6.443 10.084)">
        <path id="Trazado_26251" data-name="Trazado 26251" d="M64.524,66.226l48.7,20.641h52.941a52.325,52.325,0,0,0-20.532-41.556A53.169,53.169,0,0,0,64.524,66.226Z" transform="translate(-64.524 -34.316)" fill="#ffca28" fill-rule="evenodd"/>
      </g>
      <g id="Grupo_26828" data-name="Grupo 26828" transform="translate(70.271 77.22)">
        <path id="Trazado_26252" data-name="Trazado 26252" d="M281.738,262.788V315.34a53.129,53.129,0,0,0,19.891-3.84,52.565,52.565,0,0,0,33.051-48.712H281.738Z" transform="translate(-281.738 -262.788)" fill="#26a69a" fill-rule="evenodd"/>
      </g>
      <g id="Grupo_26829" data-name="Grupo 26829" transform="translate(26.967 10.084)">
        <path id="Trazado_26253" data-name="Trazado 26253" d="M149.111,39.255c21.606,0,40.3,19.4,49.268,47.612h17.108a52.325,52.325,0,0,0-20.532-41.556,53.288,53.288,0,0,0-60.588-2.94A36.869,36.869,0,0,1,149.111,39.255Z" transform="translate(-134.368 -34.316)" fill="#ffa726" fill-rule="evenodd"/>
      </g>
      <g id="Grupo_26830" data-name="Grupo 26830" transform="translate(70.271 77.219)">
        <path id="Trazado_26254" data-name="Trazado 26254" d="M295.9,302.145a53.032,53.032,0,0,1-14.16,8.929v4.265a53.129,53.129,0,0,0,19.891-3.84,52.565,52.565,0,0,0,33.051-48.712H313.756a52.025,52.025,0,0,1-6.98,26.1c-.167.283-.333.575-.508.858a52.763,52.763,0,0,1-10.37,12.4Z" transform="translate(-281.738 -262.787)" fill="#1d9186" fill-rule="evenodd"/>
      </g>
      <g id="Grupo_26831" data-name="Grupo 26831" transform="translate(0)">
        <path id="Trazado_26255" data-name="Trazado 26255" d="M152.887,81.57a54.51,54.51,0,0,0-19.853-42.039l3.15-5.144h14.5a2.2,2.2,0,1,0,0-4.408H134.949a2.2,2.2,0,0,0-1.879,1.053l-3.556,5.808a55.442,55.442,0,0,0-60.544-1.992,2.2,2.2,0,0,0,2.289,3.767,51.036,51.036,0,0,1,55.949,1.992L112.921,63.935a2.2,2.2,0,1,0,3.759,2.3l14.027-22.905a50.124,50.124,0,0,1,17.725,36.035H98.19L52.008,59.794a50.408,50.408,0,0,1,11.7-15.567,2.2,2.2,0,0,0-2.945-3.279,54.5,54.5,0,0,0,6.659,86.333l-6.487,10.592H46.425a2.2,2.2,0,1,0,0,4.408H62.168a2.2,2.2,0,0,0,1.879-1.053L71.2,129.552a55.111,55.111,0,0,0,26.544,6.774,2.2,2.2,0,0,0,2.2-2.2V83.774h50.738a2.2,2.2,0,0,0,2.2-2.2ZM73.5,125.79l4.6-7.518a2.2,2.2,0,1,0-3.759-2.3l-4.626,7.553a50.022,50.022,0,0,1-19.456-59.68L95.538,83.03v48.841A50.677,50.677,0,0,1,73.5,125.79Z" transform="translate(-42.597 -18.935)" fill="#111e61"/>
        <path id="Trazado_26256" data-name="Trazado 26256" d="M227.931,113.577a2.2,2.2,0,0,0,2.2-2.2V97.5a2.2,2.2,0,0,0-2.2-2.2h-2.965a2.2,2.2,0,1,0,0,4.408h.761v11.665A2.2,2.2,0,0,0,227.931,113.577Z" transform="translate(-169.821 -67.297)" fill="#111e61"/>
        <path id="Trazado_26257" data-name="Trazado 26257" d="M142.951,239.826c-.945.012-1.933.021-2.854.026.678-.924,1.52-2.093,2.552-3.569a11.069,11.069,0,0,0,1.818-3.779c.014-.062.026-.124.035-.187l.075-.533a2.191,2.191,0,0,0,.021-.307,5.753,5.753,0,0,0-11.4-1.111,2.2,2.2,0,1,0,4.327.839,1.345,1.345,0,0,1,2.658.154l-.033.236a6.971,6.971,0,0,1-1.113,2.159c-2.184,3.122-3.49,4.833-4.191,5.753-.888,1.164-1.475,1.933-1.093,3.125a2.286,2.286,0,0,0,1.458,1.464c.3.1.548.174,3.3.174,1.069,0,2.517-.011,4.492-.035a2.2,2.2,0,0,0-.054-4.408Z" transform="translate(-106.549 -159.395)" fill="#111e61"/>
        <path id="Trazado_26258" data-name="Trazado 26258" d="M341.953,303.251a5.773,5.773,0,0,0-5.643,4.639,2.2,2.2,0,1,0,4.323.86,1.344,1.344,0,1,1,1.32,1.6,2.2,2.2,0,1,0,0,4.408,1.344,1.344,0,1,1-1.327,1.572c-.009-.09-.017-.18-.017-.227a2.2,2.2,0,1,0-4.408,0,6.99,6.99,0,0,0,.044.719c0,.029.006.058.01.086a5.752,5.752,0,1,0,10.216-4.354,5.744,5.744,0,0,0-4.518-9.3Z" transform="translate(-249.926 -214.141)" fill="#111e61"/>
        <path id="Trazado_26259" data-name="Trazado 26259" d="M351.587,4.408h15.734a2.2,2.2,0,1,0,0-4.408H351.587a2.2,2.2,0,1,0,0,4.408Z" transform="translate(-259.235)" fill="#111e61"/>
        <path id="Trazado_26260" data-name="Trazado 26260" d="M66.07,442.348H50.328a2.2,2.2,0,1,0,0,4.408H66.07a2.2,2.2,0,1,0,0-4.408Z" transform="translate(-46.5 -312.365)" fill="#111e61"/>
        <path id="Trazado_26261" data-name="Trazado 26261" d="M318.972,315.27H304.464l-4.934-8.059a54.806,54.806,0,0,0,32.058-49.719,2.2,2.2,0,0,0-2.2-2.2H299.089a2.2,2.2,0,0,0,0,4.408h28.042a50.441,50.441,0,0,1-29.92,43.729l-8.77-14.324a2.2,2.2,0,1,0-3.759,2.3l8.366,13.665a50.774,50.774,0,0,1-14.4,2.725V259.7h11.04a2.2,2.2,0,0,0,0-4.408H276.442a2.2,2.2,0,0,0-2.2,2.2v52.551a2.2,2.2,0,0,0,2.2,2.2,55.239,55.239,0,0,0,18.961-3.335l5.947,9.712a2.2,2.2,0,0,0,1.879,1.053h15.743a2.2,2.2,0,1,0,0-4.407Z" transform="translate(-206.171 -180.273)" fill="#111e61"/>
        <path id="Trazado_26262" data-name="Trazado 26262" d="M383.344,497H367.6a2.2,2.2,0,0,0,0,4.408h15.743a2.2,2.2,0,0,0,0-4.408Z" transform="translate(-270.544 -350.957)" fill="#111e61"/>
      </g>
    </g>
  </g>
</svg>
