<svg xmlns="http://www.w3.org/2000/svg" width="200" height="200" viewBox="0 0 200 200">
  <g id="Grupo_128104" data-name="Grupo 128104" transform="translate(4035 2545)">
    <g id="Grupo_128101" data-name="Grupo 128101">
      <rect id="Rectángulo_5790" data-name="Rectángulo 5790" width="200" height="200" rx="10" transform="translate(-4035 -2545)" fill="#e3edf8"/>
    </g>
    <g id="_005-timeline" data-name="005-timeline" transform="translate(-3991 -2486)">
      <g id="Grupo_26753" data-name="Grupo 26753" transform="translate(1.627 1.629)">
        <path id="Trazado_26129" data-name="Trazado 26129" d="M8.5,91.21c1.361,3.836,4.082,6.939,6.508,10.147l2.7,3.1a2.822,2.822,0,0,0,2.106,1.108,2.821,2.821,0,0,0,2.1-1.108l2.7-3.1c2.426-3.208,5.141-6.311,6.508-10.147,3.245-9.119-1.613-17.979-11.311-17.979S5.246,82.091,8.5,91.21Zm16.347-5.585a5.036,5.036,0,1,1-5.036-5A5.023,5.023,0,0,1,24.844,85.625Z" transform="translate(-7.492 -73.231)" fill="#ffca28" fill-rule="evenodd"/>
      </g>
      <g id="Grupo_26754" data-name="Grupo 26754" transform="translate(7.14 43.221)">
        <path id="Trazado_26130" data-name="Trazado 26130" d="M39.674,264.717a6.8,6.8,0,1,0,6.8,6.8A6.8,6.8,0,0,0,39.674,264.717Z" transform="translate(-32.87 -264.717)" fill="#63c8be" fill-rule="evenodd"/>
      </g>
      <g id="Grupo_26755" data-name="Grupo 26755" transform="translate(48.798 43.221)">
        <path id="Trazado_26131" data-name="Trazado 26131" d="M231.467,264.717a6.8,6.8,0,1,0,6.8,6.8A6.806,6.806,0,0,0,231.467,264.717Z" transform="translate(-224.663 -264.717)" fill="#63c8be" fill-rule="evenodd"/>
      </g>
      <g id="Grupo_26756" data-name="Grupo 26756" transform="translate(43.289 1.629)">
        <path id="Trazado_26132" data-name="Trazado 26132" d="M209.511,104.46a2.549,2.549,0,0,0,4.205,0l2.7-3.1c2.426-3.208,5.147-6.311,6.508-10.147,3.245-9.119-1.607-17.979-11.311-17.979S197.056,82.091,200.3,91.21c1.367,3.836,4.082,6.939,6.508,10.147Zm7.136-18.835a5.036,5.036,0,1,1-5.036-5A5.019,5.019,0,0,1,216.647,85.625Z" transform="translate(-199.298 -73.231)" fill="#4dd0e1" fill-rule="evenodd"/>
      </g>
      <g id="Grupo_26757" data-name="Grupo 26757" transform="translate(90.463 43.221)">
        <path id="Trazado_26133" data-name="Trazado 26133" d="M430.091,271.521a6.8,6.8,0,1,0-6.8,6.8A6.806,6.806,0,0,0,430.091,271.521Z" transform="translate(-416.484 -264.717)" fill="#63c8be" fill-rule="evenodd"/>
      </g>
      <g id="Grupo_26758" data-name="Grupo 26758" transform="translate(12.552 1.629)">
        <path id="Trazado_26134" data-name="Trazado 26134" d="M70.489,91.21c3.245-9.119-1.613-17.979-11.311-17.979-.474,0-.942.018-1.391.061.412,2.223.745,4.692.979,7.352.136-.012.271-.018.412-.018a5,5,0,1,1,0,10,99.674,99.674,0,0,1-1.084,14.666,2.326,2.326,0,0,0,1.084.277,2.821,2.821,0,0,0,2.1-1.108l2.7-3.1c2.426-3.208,5.141-6.311,6.508-10.147Z" transform="translate(-57.787 -73.231)" fill="#ffa726" fill-rule="evenodd"/>
      </g>
      <g id="Grupo_26759" data-name="Grupo 26759" transform="translate(54.216 1.623)">
        <path id="Trazado_26135" data-name="Trazado 26135" d="M262.3,91.182C265.548,82.063,260.7,73.2,250.992,73.2c-.474,0-.936.018-1.385.061.406,2.223.739,4.692.979,7.352q.2-.019.406-.018a5,5,0,1,1,0,10,98.871,98.871,0,0,1-1.078,14.666,2.3,2.3,0,0,0,1.078.277,2.823,2.823,0,0,0,2.106-1.108l2.7-3.1C258.221,98.121,260.942,95.018,262.3,91.182Z" transform="translate(-249.607 -73.203)" fill="#1ebace" fill-rule="evenodd"/>
      </g>
      <g id="Grupo_26760" data-name="Grupo 26760" transform="translate(11.154 43.221)">
        <path id="Trazado_26136" data-name="Trazado 26136" d="M60.945,271.521a6.8,6.8,0,0,0-9.593-6.206,6.805,6.805,0,0,1,0,12.419,6.816,6.816,0,0,0,9.593-6.212Z" transform="translate(-51.352 -264.717)" fill="#26a69a" fill-rule="evenodd"/>
      </g>
      <g id="Grupo_26761" data-name="Grupo 26761" transform="translate(52.819 43.22)">
        <path id="Trazado_26137" data-name="Trazado 26137" d="M243.173,265.313a6.81,6.81,0,0,1,0,12.419,6.807,6.807,0,1,0,0-12.419Z" transform="translate(-243.173 -264.715)" fill="#26a69a" fill-rule="evenodd"/>
      </g>
      <g id="Grupo_26762" data-name="Grupo 26762" transform="translate(94.477 43.22)">
        <path id="Trazado_26138" data-name="Trazado 26138" d="M434.966,265.313a6.805,6.805,0,0,1,0,12.419,6.807,6.807,0,1,0,0-12.419Z" transform="translate(-434.966 -264.715)" fill="#26a69a" fill-rule="evenodd"/>
      </g>
      <g id="Grupo_26763" data-name="Grupo 26763" transform="translate(84.95 1.629)">
        <path id="Trazado_26139" data-name="Trazado 26139" d="M392.11,91.21c1.361,3.836,4.082,6.939,6.508,10.147l2.7,3.1a2.548,2.548,0,0,0,4.205,0l2.7-3.1c2.426-3.208,5.141-6.311,6.508-10.147,3.245-9.119-1.613-17.979-11.311-17.979S388.859,82.091,392.11,91.21Zm16.347-5.585a5.036,5.036,0,1,1-5.036-5A5.023,5.023,0,0,1,408.457,85.625Z" transform="translate(-391.105 -73.231)" fill="#eb5468" fill-rule="evenodd"/>
      </g>
      <g id="Grupo_26764" data-name="Grupo 26764" transform="translate(95.875 1.629)">
        <path id="Trazado_26140" data-name="Trazado 26140" d="M454.1,91.21c3.245-9.119-1.613-17.979-11.31-17.979-.474,0-.942.018-1.391.061.412,2.223.745,4.692.979,7.352.135-.012.271-.018.412-.018a5,5,0,1,1,0,10,99.683,99.683,0,0,1-1.084,14.666,2.325,2.325,0,0,0,1.084.277,2.821,2.821,0,0,0,2.1-1.108l2.7-3.1c2.426-3.208,5.141-6.311,6.508-10.147Z" transform="translate(-441.4 -73.231)" fill="#e5384f" fill-rule="evenodd"/>
      </g>
      <g id="Grupo_26765" data-name="Grupo 26765" transform="translate(0 0)">
        <path id="Trazado_26141" data-name="Trazado 26141" d="M238.629,106.4a6.666,6.666,0,1,0-6.666,6.629A6.655,6.655,0,0,0,238.629,106.4Zm-10.073,0a3.408,3.408,0,1,1,3.408,3.371A3.393,3.393,0,0,1,228.556,106.4Z" transform="translate(-176.362 -92.381)" fill="#111e61"/>
        <path id="Trazado_26142" data-name="Trazado 26142" d="M33.505,106.4a6.666,6.666,0,1,0,6.666-6.629,6.655,6.655,0,0,0-6.666,6.629Zm10.073,0a3.408,3.408,0,1,1-3.407-3.371A3.393,3.393,0,0,1,43.578,106.4Z" transform="translate(-26.228 -92.381)" fill="#111e61"/>
        <path id="Trazado_26143" data-name="Trazado 26143" d="M109.58,114.127h-4.042a8.456,8.456,0,0,0-6.644-6.644v-6.521a5.034,5.034,0,0,0,1.7-1.3l2.7-3.1c.025-.029,1.261-1.637,1.261-1.637a1.629,1.629,0,0,0-2.577-1.994s-.828,1.07-1.179,1.535l-2.668,3.063a.969.969,0,0,1-1.745,0l-2.661-3.062c-.389-.514-.786-1.026-1.183-1.538-2.059-2.656-4-5.164-5.056-8.129-1.5-4.214-1.111-8.557,1.047-11.618a11.19,11.19,0,0,1,17.451,0c2.16,3.061,2.554,7.406,1.055,11.62a17.5,17.5,0,0,1-1.247,2.7,1.629,1.629,0,1,0,2.84,1.6,20.717,20.717,0,0,0,1.475-3.2c1.855-5.212,1.308-10.667-1.461-14.592a14.436,14.436,0,0,0-22.776,0c-2.768,3.925-3.311,9.379-1.454,14.587,1.226,3.456,3.425,6.292,5.551,9.034.4.517,1.238,1.609,1.263,1.637l2.7,3.1a5.047,5.047,0,0,0,1.708,1.308v6.518a8.456,8.456,0,0,0-6.644,6.644H63.874a8.456,8.456,0,0,0-6.644-6.644v-6.518a5.04,5.04,0,0,0,1.706-1.306l2.7-3.1c.024-.028.863-1.121,1.263-1.638,2.126-2.742,4.325-5.577,5.55-9.031,1.855-5.214,1.309-10.669-1.46-14.594A13.454,13.454,0,0,0,55.6,65.731a13.454,13.454,0,0,0-11.384,5.562c-2.769,3.925-3.316,9.38-1.461,14.593,1.233,3.46,3.432,6.3,5.56,9.043.4.513,1.23,1.6,1.254,1.627l2.7,3.1a5.045,5.045,0,0,0,1.7,1.3v6.521a8.456,8.456,0,0,0-6.644,6.644H22.216a8.456,8.456,0,0,0-6.644-6.644v-6.521a5.034,5.034,0,0,0,1.7-1.3l2.7-3.1c.025-.029,1.261-1.637,1.261-1.637a1.629,1.629,0,0,0-2.577-1.993s-.838,1.083-1.178,1.534l-2.668,3.063a1.311,1.311,0,0,1-.872.546,1.314,1.314,0,0,1-.873-.548l-2.661-3.062c-.389-.515-.787-1.027-1.184-1.539-2.059-2.655-4-5.163-5.055-8.128-1.5-4.214-1.111-8.557,1.047-11.618a10.288,10.288,0,0,1,8.729-4.185,10.283,10.283,0,0,1,8.722,4.182c2.16,3.061,2.554,7.406,1.054,11.62a17.443,17.443,0,0,1-1.247,2.7,1.629,1.629,0,0,0,2.84,1.6,20.669,20.669,0,0,0,1.475-3.2c1.855-5.212,1.308-10.667-1.461-14.592a13.453,13.453,0,0,0-11.384-5.562A13.458,13.458,0,0,0,2.552,71.3C-.216,75.222-.759,80.676,1.1,85.884c1.226,3.456,3.424,6.291,5.55,9.033.4.517,1.239,1.611,1.263,1.638l2.7,3.1a5.045,5.045,0,0,0,1.708,1.308v6.518a8.456,8.456,0,0,0-6.644,6.644H1.629a1.629,1.629,0,0,0,0,3.258H5.67a8.432,8.432,0,0,0,16.546,0H47.328a8.432,8.432,0,0,0,16.546,0H88.993a8.432,8.432,0,0,0,16.546,0h4.041a1.629,1.629,0,0,0,0-3.258Zm-95.637,6.8a5.175,5.175,0,1,1,5.174-5.175A5.18,5.18,0,0,1,13.943,120.93ZM52.064,94.458c-.386-.51-.779-1.017-1.173-1.525-2.061-2.66-4.008-5.172-5.066-8.14-1.5-4.216-1.106-8.561,1.054-11.622A10.283,10.283,0,0,1,55.6,68.989a10.285,10.285,0,0,1,8.724,4.181c2.159,3.06,2.553,7.405,1.051,11.624-1.051,2.962-3,5.47-5.054,8.125-.4.513-.795,1.025-1.184,1.539l-2.662,3.063a.969.969,0,0,1-1.743,0l0,0ZM55.6,120.93a5.175,5.175,0,1,1,5.174-5.175A5.18,5.18,0,0,1,55.6,120.93Zm41.665,0a5.175,5.175,0,1,1,5.174-5.175A5.18,5.18,0,0,1,97.266,120.93Z" transform="translate(0 -65.731)" fill="#111e61"/>
        <path id="Trazado_26144" data-name="Trazado 26144" d="M51.071,364.2a1.629,1.629,0,0,0,0-3.258h-4.8a1.629,1.629,0,0,0,0,3.258Z" transform="translate(-34.949 -296.819)" fill="#111e61"/>
        <path id="Trazado_26145" data-name="Trazado 26145" d="M41.141,396.119H28.728a1.629,1.629,0,1,0,0,3.258H41.14a1.629,1.629,0,0,0,0-3.258Z" transform="translate(-21.213 -324.357)" fill="#111e61"/>
        <path id="Trazado_26146" data-name="Trazado 26146" d="M245.869,364.2a1.629,1.629,0,1,0,0-3.258h-4.8a1.629,1.629,0,1,0,0,3.258Z" transform="translate(-187.435 -296.819)" fill="#111e61"/>
        <path id="Trazado_26147" data-name="Trazado 26147" d="M235.938,396.119H223.526a1.629,1.629,0,1,0,0,3.258h12.412a1.629,1.629,0,1,0,0-3.258Z" transform="translate(-173.7 -324.357)" fill="#111e61"/>
        <path id="Trazado_26148" data-name="Trazado 26148" d="M440.666,364.2a1.629,1.629,0,0,0,0-3.258h-4.8a1.629,1.629,0,0,0,0,3.258Z" transform="translate(-339.921 -296.819)" fill="#111e61"/>
        <path id="Trazado_26149" data-name="Trazado 26149" d="M430.735,396.119H418.323a1.629,1.629,0,1,0,0,3.258h12.412a1.629,1.629,0,1,0,0-3.258Z" transform="translate(-326.186 -324.357)" fill="#111e61"/>
        <path id="Trazado_26150" data-name="Trazado 26150" d="M41.141,431.269H28.728a1.629,1.629,0,0,0,0,3.258H41.14a1.629,1.629,0,0,0,0-3.258Z" transform="translate(-21.213 -351.872)" fill="#111e61"/>
        <path id="Trazado_26151" data-name="Trazado 26151" d="M235.938,431.269H223.526a1.629,1.629,0,1,0,0,3.258h12.412a1.629,1.629,0,0,0,0-3.258Z" transform="translate(-173.7 -351.872)" fill="#111e61"/>
        <path id="Trazado_26152" data-name="Trazado 26152" d="M430.735,431.269H418.323a1.629,1.629,0,1,0,0,3.258h12.412a1.629,1.629,0,0,0,0-3.258Z" transform="translate(-326.186 -351.872)" fill="#111e61"/>
        <path id="Trazado_26153" data-name="Trazado 26153" d="M417.119,106.4a6.666,6.666,0,1,0,6.665-6.629A6.655,6.655,0,0,0,417.119,106.4Zm10.073,0a3.408,3.408,0,1,1-3.408-3.371A3.393,3.393,0,0,1,427.192,106.4Z" transform="translate(-326.518 -92.381)" fill="#111e61"/>
      </g>
    </g>
  </g>
</svg>
