<svg xmlns="http://www.w3.org/2000/svg" width="62.101" height="62.101" viewBox="0 0 62.101 62.101">
  <g id="prueba" transform="translate(0.001 0.001)">
    <path id="Trazado_165815" data-name="Trazado 165815" d="M44.688,10H12.426A2.426,2.426,0,0,0,10,12.426V67.249a2.426,2.426,0,0,0,2.426,2.426H54.147a2.426,2.426,0,0,0,2.426-2.426V21.885Zm0,0" transform="translate(-8.788 -8.788)" fill="#edf2fa"/>
    <path id="Trazado_165816" data-name="Trazado 165816" d="M378.094,382.195l10.078,10.078a2.9,2.9,0,0,0,4.1-4.1L382.2,378.093Zm0,0" transform="translate(-332.235 -332.235)" fill="#ff5d5d"/>
    <path id="Trazado_165817" data-name="Trazado 165817" d="M219.114,204.555A14.555,14.555,0,1,1,204.559,190,14.555,14.555,0,0,1,219.114,204.555Zm0,0" transform="translate(-166.959 -166.955)" fill="#fff"/>
    <path id="Trazado_165818" data-name="Trazado 165818" d="M298.414,21.888h9.459L295.988,10v9.459A2.426,2.426,0,0,0,298.414,21.888Zm0,0" transform="translate(-260.088 -8.791)" fill="#ffb954"/>
    <g id="Grupo_111511" data-name="Grupo 111511" transform="translate(7.762 7.762)">
      <path id="Trazado_165819" data-name="Trazado 165819" d="M71.763,368H65.941A1.941,1.941,0,0,0,64,369.941v5.822a1.941,1.941,0,0,0,1.941,1.941h5.822a1.941,1.941,0,0,0,1.941-1.941v-5.822A1.941,1.941,0,0,0,71.763,368Zm0,0" transform="translate(-64 -331.127)" fill="#72d8ff"/>
      <path id="Trazado_165820" data-name="Trazado 165820" d="M71.763,216H65.941A1.941,1.941,0,0,0,64,217.941v5.822a1.941,1.941,0,0,0,1.941,1.941h5.822a1.941,1.941,0,0,0,1.941-1.941v-5.822A1.941,1.941,0,0,0,71.763,216Zm0,0" transform="translate(-64 -197.564)" fill="#72d8ff"/>
      <path id="Trazado_165821" data-name="Trazado 165821" d="M71.763,64H65.941A1.941,1.941,0,0,0,64,65.941v5.822A1.941,1.941,0,0,0,65.941,73.7h5.822A1.941,1.941,0,0,0,73.7,71.763V65.941A1.941,1.941,0,0,0,71.763,64Zm0,0" transform="translate(-64 -64)" fill="#72d8ff"/>
      <path id="Trazado_165822" data-name="Trazado 165822" d="M250.925,241.461A9.461,9.461,0,1,1,241.465,232,9.461,9.461,0,0,1,250.925,241.461Zm0,0" transform="translate(-211.627 -211.623)" fill="#72d8ff"/>
    </g>
    <path id="Trazado_165823" data-name="Trazado 165823" d="M1.213,248.426a1.213,1.213,0,1,0-.858-2.07,1.213,1.213,0,0,0,.858,2.07Zm0,0" transform="translate(-0.001 -216.163)"/>
    <path id="Trazado_165824" data-name="Trazado 165824" d="M54,366.975a3.157,3.157,0,0,0,3.154,3.154h5.822a3.157,3.157,0,0,0,3.154-3.154v-5.822A3.157,3.157,0,0,0,62.976,358H57.154A3.157,3.157,0,0,0,54,361.154Zm2.426-5.822a.729.729,0,0,1,.728-.728h5.822a.729.729,0,0,1,.728.728v5.822a.729.729,0,0,1-.728.728H57.154a.729.729,0,0,1-.728-.728Zm0,0" transform="translate(-47.451 -314.578)"/>
    <path id="Trazado_165825" data-name="Trazado 165825" d="M54,214.976a3.157,3.157,0,0,0,3.154,3.154h5.822a3.157,3.157,0,0,0,3.154-3.154v-5.822A3.157,3.157,0,0,0,62.976,206H57.154A3.157,3.157,0,0,0,54,209.154Zm2.426-5.822a.729.729,0,0,1,.728-.728h5.822a.729.729,0,0,1,.728.728v5.822a.729.729,0,0,1-.728.728H57.154a.729.729,0,0,1-.728-.728Zm0,0" transform="translate(-47.451 -181.015)"/>
    <path id="Trazado_165826" data-name="Trazado 165826" d="M57.154,66.129h5.822a3.157,3.157,0,0,0,3.154-3.154V57.154A3.157,3.157,0,0,0,62.976,54H57.154A3.157,3.157,0,0,0,54,57.154v5.822A3.157,3.157,0,0,0,57.154,66.129Zm-.728-8.976a.729.729,0,0,1,.728-.728h5.822a.729.729,0,0,1,.728.728v5.822a.729.729,0,0,1-.728.728H57.154a.729.729,0,0,1-.728-.728Zm0,0" transform="translate(-47.451 -47.451)"/>
    <path id="Trazado_165827" data-name="Trazado 165827" d="M195.381,96.426a1.213,1.213,0,1,0,0-2.426h-7.172a1.213,1.213,0,1,0,0,2.426Zm0,0" transform="translate(-164.316 -82.599)"/>
    <path id="Trazado_165828" data-name="Trazado 165828" d="M224.43,300.979v-.026a1.213,1.213,0,0,0-1.206-1.22h-.007A1.213,1.213,0,0,0,222,300.941v.039a1.213,1.213,0,0,0,2.426,0Zm0,0" transform="translate(-195.078 -263.38)"/>
    <path id="Trazado_165829" data-name="Trazado 165829" d="M239.384,222a10.736,10.736,0,0,0-9.628,6.062,1.213,1.213,0,0,0,2.188,1.049,8.248,8.248,0,1,1,.174,7.467,1.213,1.213,0,0,0-2.136,1.151,10.674,10.674,0,1,0,9.4-15.729Zm0,0" transform="translate(-201.784 -195.074)"/>
    <path id="Trazado_165830" data-name="Trazado 165830" d="M60.9,55.079l-9.626-9.627A15.742,15.742,0,0,0,49,26.715V13.1a.2.2,0,0,0,0-.024,1.212,1.212,0,0,0-.353-.834L36.758.355A1.213,1.213,0,0,0,35.949,0L35.9,0H3.638A3.643,3.643,0,0,0,0,3.638V26.2a1.213,1.213,0,0,0,2.426,0V3.638A1.214,1.214,0,0,1,3.638,2.425H34.687v8.246a3.643,3.643,0,0,0,3.639,3.639h8.246V24.641a15.766,15.766,0,1,0-1.119,26.628l1.119,1.12v6.073a1.214,1.214,0,0,1-1.213,1.213H3.638a1.214,1.214,0,0,1-1.213-1.213V35.9A1.213,1.213,0,1,0,0,35.9v22.56A3.643,3.643,0,0,0,3.638,62.1H45.359A3.643,3.643,0,0,0,49,58.462V54.814L55.079,60.9A4.113,4.113,0,1,0,60.9,55.079ZM38.326,11.884a1.214,1.214,0,0,1-1.213-1.213V4.141l7.744,7.744ZM24.258,37.6A13.342,13.342,0,1,1,37.6,50.942,13.357,13.357,0,0,1,24.258,37.6ZM59.18,59.18a1.687,1.687,0,0,1-2.386,0l-9.308-9.308a15.905,15.905,0,0,0,2.386-2.386l9.308,9.308a1.687,1.687,0,0,1,0,2.386Zm0,0" transform="translate(0 0)"/>
    <path id="Trazado_165831" data-name="Trazado 165831" d="M304.249,270.462a1.213,1.213,0,0,0,2.426,0A5.464,5.464,0,0,0,301.217,265a1.213,1.213,0,0,0,0,2.426A3.035,3.035,0,0,1,304.249,270.462Zm0,0" transform="translate(-263.617 -232.862)"/>
  </g>
</svg>
