<svg xmlns="http://www.w3.org/2000/svg" width="200" height="200" viewBox="0 0 200 200">
  <g id="Grupo_128099" data-name="Grupo 128099" transform="translate(-247 -8833)">
    <rect id="Rectángulo_5781" data-name="Rectángulo 5781" width="200" height="200" rx="10" transform="translate(247 8833)" fill="#dae0e3"/>
    <g id="_004-list" data-name="004-list" transform="translate(301 8882)">
      <g id="Grupo_26740" data-name="Grupo 26740" transform="translate(26.439 77.008)">
        <path id="Trazado_26105" data-name="Trazado 26105" d="M158.205,409.3h58.2l5.565-10.634-5.565-10.639h-58.2Z" transform="translate(-158.205 -388.029)" fill="#ffca28" fill-rule="evenodd"/>
      </g>
      <g id="Grupo_26741" data-name="Grupo 26741" transform="translate(1.488 75.172)">
        <path id="Trazado_26106" data-name="Trazado 26106" d="M57.436,401.887V379.8a1.024,1.024,0,0,0-1.026-1.021h-22.9a1.02,1.02,0,0,0-1.021,1.021v22.9a1.026,1.026,0,0,0,1.009,1.026H56.421a1.031,1.031,0,0,0,1.015-1.026v-.815Z" transform="translate(-32.486 -378.778)" fill="#f9f7f8" fill-rule="evenodd"/>
      </g>
      <g id="Grupo_26742" data-name="Grupo 26742" transform="translate(1.488 38.328)">
        <path id="Trazado_26107" data-name="Trazado 26107" d="M33.507,218.076h22.9a1.028,1.028,0,0,0,1.026-1.021v-22.9a1.029,1.029,0,0,0-1.026-1.026h-22.9a1.025,1.025,0,0,0-1.021,1.026v22.9A1.023,1.023,0,0,0,33.507,218.076Z" transform="translate(-32.486 -193.125)" fill="#f9f7f8" fill-rule="evenodd"/>
      </g>
      <g id="Grupo_26743" data-name="Grupo 26743" transform="translate(26.439 40.163)">
        <path id="Trazado_26108" data-name="Trazado 26108" d="M158.205,202.375v21.279h58.2l5.565-10.639-5.565-10.64Z" transform="translate(-158.205 -202.375)" fill="#4dd0e1" fill-rule="evenodd"/>
      </g>
      <g id="Grupo_26744" data-name="Grupo 26744" transform="translate(26.439 3.324)">
        <path id="Trazado_26109" data-name="Trazado 26109" d="M158.205,38.024h58.2l5.565-10.634-5.565-10.639h-58.2Z" transform="translate(-158.205 -16.751)" fill="#eb5468" fill-rule="evenodd"/>
      </g>
      <g id="Grupo_26745" data-name="Grupo 26745" transform="translate(1.488 1.488)">
        <path id="Trazado_26110" data-name="Trazado 26110" d="M57.436,30.609V8.521A1.025,1.025,0,0,0,56.41,7.5h-22.9a1.02,1.02,0,0,0-1.021,1.021v22.9a1.024,1.024,0,0,0,1.021,1.026h22.9a1.029,1.029,0,0,0,1.026-1.026Z" transform="translate(-32.486 -7.5)" fill="#f9f7f8" fill-rule="evenodd"/>
      </g>
      <g id="Grupo_26746" data-name="Grupo 26746" transform="translate(18.171 1.488)">
        <path id="Trazado_26111" data-name="Trazado 26111" d="M117.574,9.336V31.425a1.029,1.029,0,0,1-1.026,1.026h7.241a1.029,1.029,0,0,0,1.026-1.026V8.521A1.025,1.025,0,0,0,123.789,7.5h-7.241a1.024,1.024,0,0,1,1.026,1.021Z" transform="translate(-116.548 -7.5)" fill="#dddaec" fill-rule="evenodd"/>
      </g>
      <g id="Grupo_26747" data-name="Grupo 26747" transform="translate(18.171 38.327)">
        <path id="Trazado_26112" data-name="Trazado 26112" d="M123.789,193.124h-7.241a1.029,1.029,0,0,1,1.026,1.026v22.9a1.028,1.028,0,0,1-1.026,1.021h7.241a1.028,1.028,0,0,0,1.026-1.021v-22.9A1.029,1.029,0,0,0,123.789,193.124Z" transform="translate(-116.548 -193.124)" fill="#dddaec" fill-rule="evenodd"/>
      </g>
      <g id="Grupo_26748" data-name="Grupo 26748" transform="translate(18.171 75.172)">
        <path id="Trazado_26113" data-name="Trazado 26113" d="M123.789,378.778h-7.241a1.024,1.024,0,0,1,1.026,1.021v22.9a1.03,1.03,0,0,1-1.015,1.026H123.8a1.031,1.031,0,0,0,1.015-1.026V379.8A1.024,1.024,0,0,0,123.789,378.778Z" transform="translate(-116.548 -378.778)" fill="#dddaec" fill-rule="evenodd"/>
      </g>
      <g id="Grupo_26749" data-name="Grupo 26749" transform="translate(75.586 3.324)">
        <path id="Trazado_26114" data-name="Trazado 26114" d="M405.851,16.751a35.26,35.26,0,0,1,2.064,12,35.693,35.693,0,0,1-1.2,9.271h8.193l5.565-10.634-5.565-10.639h-9.054Z" transform="translate(-405.851 -16.751)" fill="#e5384f" fill-rule="evenodd"/>
      </g>
      <g id="Grupo_26750" data-name="Grupo 26750" transform="translate(75.586 40.163)">
        <path id="Trazado_26115" data-name="Trazado 26115" d="M405.851,202.375a35.269,35.269,0,0,1,2.064,12.008,35.759,35.759,0,0,1-1.2,9.271h8.193l5.565-10.639-5.565-10.639Z" transform="translate(-405.851 -202.375)" fill="#1ebace" fill-rule="evenodd"/>
      </g>
      <g id="Grupo_26751" data-name="Grupo 26751" transform="translate(75.586 77.008)">
        <path id="Trazado_26116" data-name="Trazado 26116" d="M405.851,388.029a35.259,35.259,0,0,1,2.064,12,35.726,35.726,0,0,1-1.2,9.271h8.193l5.565-10.634-5.565-10.639h-9.054Z" transform="translate(-405.851 -388.029)" fill="#ffa726" fill-rule="evenodd"/>
      </g>
      <g id="Grupo_26752" data-name="Grupo 26752" transform="translate(0 0)">
        <path id="Trazado_26117" data-name="Trazado 26117" d="M27.5,27.928H50.4a2.517,2.517,0,0,0,2.42-1.842h56.808a1.489,1.489,0,0,0,1.319-.8l5.565-10.634a1.488,1.488,0,0,0,0-1.38L110.946,2.635a1.488,1.488,0,0,0-1.319-.8H84.916a1.488,1.488,0,1,0,0,2.977h23.81l4.786,9.151-4.786,9.145H52.913V4.813H77.954a1.488,1.488,0,1,0,0-2.977H52.819A2.516,2.516,0,0,0,50.4,0H27.5a2.512,2.512,0,0,0-2.509,2.509v22.9A2.515,2.515,0,0,0,27.5,27.928Zm.468-24.951H49.936V24.951H27.963Z" transform="translate(-24.986 0)" fill="#111e61"/>
        <path id="Trazado_26118" data-name="Trazado 26118" d="M110.945,188.259a1.488,1.488,0,0,0-1.319-.8H52.817a2.517,2.517,0,0,0-2.419-1.836H27.5a2.515,2.515,0,0,0-2.509,2.515v22.9a2.512,2.512,0,0,0,2.509,2.509H50.4a2.516,2.516,0,0,0,2.42-1.836h56.808a1.488,1.488,0,0,0,1.319-.8l5.565-10.639a1.487,1.487,0,0,0,0-1.38ZM49.936,210.575H27.963V188.6H49.936Zm58.789-1.836H52.913v-18.3h55.812l4.786,9.151Z" transform="translate(-24.986 -148.785)" fill="#111e61"/>
        <path id="Trazado_26119" data-name="Trazado 26119" d="M85.76,35.251H83.416a1.488,1.488,0,0,0,0,2.977h.855v9.465a1.488,1.488,0,1,0,2.977,0V36.739A1.489,1.489,0,0,0,85.76,35.251Z" transform="translate(-70.627 -28.255)" fill="#111e61"/>
        <path id="Trazado_26120" data-name="Trazado 26120" d="M80.162,231.5c-.922.012-1.894.02-2.755.024.579-.782,1.337-1.826,2.311-3.217a8.6,8.6,0,0,0,1.4-2.892,1.5,1.5,0,0,0,.029-.163l.051-.428a1.477,1.477,0,0,0,.011-.178,4.292,4.292,0,0,0-8.5-.826,1.488,1.488,0,0,0,2.922.569,1.315,1.315,0,0,1,2.6.185l-.028.231a5.859,5.859,0,0,1-.922,1.793c-1.74,2.486-2.773,3.837-3.328,4.563-.688.9-1.068,1.4-.823,2.2a1.542,1.542,0,0,0,1,1.018,8.756,8.756,0,0,0,2.508.122c.842,0,1.99-.009,3.564-.029a1.488,1.488,0,1,0-.038-2.977Z" transform="translate(-63.212 -176.627)" fill="#111e61"/>
        <path id="Trazado_26121" data-name="Trazado 26121" d="M78.005,405.869a4.309,4.309,0,0,0-4.214,3.461,1.488,1.488,0,0,0,2.92.581,1.315,1.315,0,1,1,1.294,1.568,1.488,1.488,0,1,0,0,2.977,1.314,1.314,0,1,1-1.3,1.512,1.508,1.508,0,0,1-.016-.2,1.488,1.488,0,0,0-2.977,0,4.425,4.425,0,0,0,.042.6,4.29,4.29,0,1,0,7.494-3.4,4.291,4.291,0,0,0-3.243-7.1Z" transform="translate(-64.042 -325.32)" fill="#111e61"/>
        <path id="Trazado_26122" data-name="Trazado 26122" d="M193.305,48h9.18a1.488,1.488,0,0,0,0-2.977h-9.18a1.488,1.488,0,1,0,0,2.977Z" transform="translate(-158.708 -36.085)" fill="#111e61"/>
        <path id="Trazado_26123" data-name="Trazado 26123" d="M193.305,84.829h18.661a1.488,1.488,0,1,0,0-2.977H193.305a1.488,1.488,0,1,0,0,2.977Z" transform="translate(-158.708 -65.608)" fill="#111e61"/>
        <path id="Trazado_26124" data-name="Trazado 26124" d="M193.305,232.415h9.18a1.488,1.488,0,0,0,0-2.977h-9.18a1.488,1.488,0,1,0,0,2.977Z" transform="translate(-158.708 -183.904)" fill="#111e61"/>
        <path id="Trazado_26125" data-name="Trazado 26125" d="M211.967,266.3H193.305a1.488,1.488,0,1,0,0,2.977h18.661a1.488,1.488,0,1,0,0-2.977Z" transform="translate(-158.708 -213.449)" fill="#111e61"/>
        <path id="Trazado_26126" data-name="Trazado 26126" d="M193.305,419.217h9.18a1.488,1.488,0,1,0,0-2.977h-9.18a1.488,1.488,0,1,0,0,2.977Z" transform="translate(-158.708 -333.633)" fill="#111e61"/>
        <path id="Trazado_26127" data-name="Trazado 26127" d="M193.305,456.049h18.661a1.488,1.488,0,1,0,0-2.977H193.305a1.488,1.488,0,1,0,0,2.977Z" transform="translate(-158.708 -363.155)" fill="#111e61"/>
        <path id="Trazado_26128" data-name="Trazado 26128" d="M110.945,373.913a1.488,1.488,0,0,0-1.319-.8H84.916a1.488,1.488,0,0,0,0,2.977h23.81l4.786,9.151-4.786,9.146H52.913v-18.3H77.954a1.488,1.488,0,1,0,0-2.977H52.819a2.516,2.516,0,0,0-2.42-1.836H27.5a2.512,2.512,0,0,0-2.509,2.509v22.9a2.515,2.515,0,0,0,2.509,2.515H50.4a2.517,2.517,0,0,0,2.42-1.842h56.808a1.489,1.489,0,0,0,1.319-.8l5.565-10.634a1.488,1.488,0,0,0,0-1.38ZM49.936,396.23H27.963V374.256H49.936Z" transform="translate(-24.986 -297.595)" fill="#111e61"/>
      </g>
    </g>
  </g>
</svg>
