<svg xmlns="http://www.w3.org/2000/svg" width="191.56" height="186.91" viewBox="0 0 191.56 186.91">
  <g id="Grupo_128080" data-name="Grupo 128080" transform="translate(-42.631 -46.458)">
    <g id="Grupo_127764" data-name="Grupo 127764" transform="translate(42.631 76.095)">
      <g id="Grupo_127759" data-name="Grupo 127759" transform="translate(0 1.768)">
        <path id="Trazado_172312" data-name="Trazado 172312" d="M52.293,120.176,45.68,152.1c2.941,2.985,6.06,5.807,11.1,6.872L81,163.225,86.687,125.7Z" transform="translate(-44.299 -118.207)" fill="#fafafa"/>
        <path id="Trazado_172313" data-name="Trazado 172313" d="M49.243,115.826l-6.613,31.92,11.1,6.871,24.223,4.257,7.15-36.018Z" transform="translate(-42.631 -115.826)" fill="#f5f5f5"/>
        <path id="Trazado_172314" data-name="Trazado 172314" d="M47.146,182.569l-4.515,1.7a14.029,14.029,0,0,0,4.006,4.1,20.255,20.255,0,0,0,7.089,2.774A13.468,13.468,0,0,1,47.146,182.569Z" transform="translate(-42.631 -152.352)" fill="#e0e0e0"/>
      </g>
      <path id="Trazado_172315" data-name="Trazado 172315" d="M47.5,120.542l16.554-5.135L63,111.921,46.17,116.813Z" transform="translate(-44.568 -111.921)" fill="#ebebeb"/>
      <path id="Trazado_172316" data-name="Trazado 172316" d="M126.321,133.925,115.59,120.313l-2.875,2.237,10.6,13.953Z" transform="translate(-80.986 -116.514)" fill="#ebebeb"/>
      <g id="Grupo_127760" data-name="Grupo 127760" transform="translate(8.977 14.068)">
        <path id="Trazado_172317" data-name="Trazado 172317" d="M89.724,148.329c-.013.064-6.126-1.078-13.654-2.55S62.447,143.061,62.46,143s6.125,1.078,13.655,2.551S89.736,148.265,89.724,148.329Z" transform="translate(-62.46 -142.994)" fill="#e0e0e0"/>
      </g>
      <g id="Grupo_127761" data-name="Grupo 127761" transform="translate(7.895 18.961)">
        <path id="Trazado_172318" data-name="Trazado 172318" d="M87.334,159.138c-.013.064-6.126-1.078-13.654-2.55s-13.622-2.718-13.61-2.782,6.125,1.078,13.655,2.551S87.346,159.074,87.334,159.138Z" transform="translate(-60.07 -153.803)" fill="#e0e0e0"/>
      </g>
      <g id="Grupo_127762" data-name="Grupo 127762" transform="translate(7.195 23.35)">
        <path id="Trazado_172319" data-name="Trazado 172319" d="M85.788,168.832c-.012.064-6.126-1.078-13.654-2.55s-13.622-2.718-13.61-2.782,6.125,1.077,13.655,2.55S85.8,168.768,85.788,168.832Z" transform="translate(-58.524 -163.497)" fill="#e0e0e0"/>
      </g>
      <g id="Grupo_127763" data-name="Grupo 127763" transform="translate(6.346 27.541)">
        <path id="Trazado_172320" data-name="Trazado 172320" d="M83.911,178.089c-.012.064-6.126-1.078-13.654-2.55s-13.622-2.718-13.61-2.782,6.125,1.077,13.655,2.55S83.923,178.025,83.911,178.089Z" transform="translate(-56.647 -172.754)" fill="#e0e0e0"/>
      </g>
    </g>
    <g id="Grupo_127770" data-name="Grupo 127770" transform="translate(172.488 54.718)">
      <g id="Grupo_127765" data-name="Grupo 127765">
        <path id="Trazado_172321" data-name="Trazado 172321" d="M362.587,75.5l-8.559,20.869c-2.842.575-5.723.986-9.024-.352l-15.543-6.932,11.257-23.724Z" transform="translate(-329.461 -65.065)" fill="#fafafa"/>
        <path id="Trazado_172322" data-name="Trazado 172322" d="M366.02,74.545,357.46,95.414l-9.024-.352-15.543-6.932L342.73,64.7Z" transform="translate(-331.34 -64.703)" fill="#f5f5f5"/>
        <path id="Trazado_172323" data-name="Trazado 172323" d="M374.317,126.522l1.93,2.724a9.7,9.7,0,0,1-3.884.8,14.008,14.008,0,0,1-5.14-1.152A9.32,9.32,0,0,0,374.317,126.522Z" transform="translate(-350.127 -98.534)" fill="#e0e0e0"/>
      </g>
      <path id="Trazado_172324" data-name="Trazado 172324" d="M395.792,85.045l-7.509-9.352,1.955-1.59L398,83.42Z" transform="translate(-361.652 -69.847)" fill="#ebebeb"/>
      <path id="Trazado_172325" data-name="Trazado 172325" d="M343.629,68.746l11.423-3.655.783,2.4-11.48,3.9Z" transform="translate(-337.214 -64.915)" fill="#ebebeb"/>
      <g id="Grupo_127766" data-name="Grupo 127766" transform="translate(10.86 8.491)">
        <path id="Trazado_172326" data-name="Trazado 172326" d="M353.449,83.46c.025-.06,4.009,1.569,8.9,3.637s8.831,3.794,8.806,3.855-4.008-1.568-8.9-3.638S353.424,83.52,353.449,83.46Z" transform="translate(-353.449 -83.458)" fill="#e0e0e0"/>
      </g>
      <g id="Grupo_127767" data-name="Grupo 127767" transform="translate(9.587 11.717)">
        <path id="Trazado_172327" data-name="Trazado 172327" d="M350.637,90.585c.025-.06,4.009,1.569,8.9,3.637s8.831,3.794,8.806,3.855-4.008-1.568-8.9-3.638S350.612,90.645,350.637,90.585Z" transform="translate(-350.637 -90.583)" fill="#e0e0e0"/>
      </g>
      <g id="Grupo_127768" data-name="Grupo 127768" transform="translate(8.29 14.505)">
        <path id="Trazado_172328" data-name="Trazado 172328" d="M347.772,96.744c.025-.06,4.009,1.569,8.9,3.637s8.831,3.795,8.806,3.855-4.008-1.568-8.9-3.637S347.746,96.8,347.772,96.744Z" transform="translate(-347.772 -96.742)" fill="#e0e0e0"/>
      </g>
      <g id="Grupo_127769" data-name="Grupo 127769" transform="translate(7.156 17.238)">
        <path id="Trazado_172329" data-name="Trazado 172329" d="M345.267,102.78c.025-.06,4.009,1.569,8.9,3.637s8.831,3.794,8.806,3.855-4.008-1.568-8.9-3.638S345.242,102.84,345.267,102.78Z" transform="translate(-345.267 -102.778)" fill="#e0e0e0"/>
      </g>
    </g>
    <g id="Grupo_127794" data-name="Grupo 127794" transform="translate(189.043 105.555)">
      <g id="Grupo_127773" data-name="Grupo 127773" transform="translate(0 0)">
        <g id="Grupo_127772" data-name="Grupo 127772">
          <g id="Grupo_127771" data-name="Grupo 127771">
            <path id="Trazado_172330" data-name="Trazado 172330" d="M373.29,225.526c-6.934-5.651-7.89-15.258-6.968-23.76.153-1.419.109-2.931.878-4.129a2.906,2.906,0,0,1,3.642-1.24c1.02.576,1.389,1.839,1.905,2.9a8.349,8.349,0,0,0,3.1,3.435,3.18,3.18,0,0,0,2.9.481c1.278-.586,1.548-2.271,1.644-3.687q.268-3.958.537-7.916a13.228,13.228,0,0,1,.738-4.172,4.4,4.4,0,0,1,2.979-2.763,2.67,2.67,0,0,1,3.163,2.029,13.151,13.151,0,0,1-.09,1.765,1.492,1.492,0,0,0,.767,1.466,1.715,1.715,0,0,0,1.6-.534,18.883,18.883,0,0,0,3.757-4.85,26.182,26.182,0,0,1,3.541-5.03,7.676,7.676,0,0,1,5.4-2.524,4.6,4.6,0,0,1,4.467,3.474c.366,2.033-.948,3.971-2.335,5.493a31.674,31.674,0,0,1-7.042,5.782,2.607,2.607,0,0,0-1.188,1.1c-.377.921.447,1.924,1.356,2.3a16.422,16.422,0,0,0,3.276.617,3.192,3.192,0,0,1,2.593,1.861c.472,1.489-.85,2.916-2.114,3.821a27.14,27.14,0,0,1-8.352,4.029,9.151,9.151,0,0,0-3.084,1.226,2.627,2.627,0,0,0-1.062,2.938,2.674,2.674,0,0,0,2.817,1.33,18.963,18.963,0,0,0,3.194-.956c2-.59,4.5-.27,5.622,1.5a4.49,4.49,0,0,1,.183,4,10.348,10.348,0,0,1-2.4,3.339,27.285,27.285,0,0,1-12.225,7.3c-4.627,1.23-8.839,1.343-13.2-.629" transform="translate(-366.027 -176.993)" fill="#f5f5f5"/>
          </g>
        </g>
      </g>
      <g id="Grupo_127777" data-name="Grupo 127777" transform="translate(6.683 1.382)">
        <g id="Grupo_127776" data-name="Grupo 127776">
          <g id="Grupo_127775" data-name="Grupo 127775">
            <g id="Grupo_127774" data-name="Grupo 127774">
              <path id="Trazado_172331" data-name="Trazado 172331" d="M380.788,233.508a62.3,62.3,0,0,1,3.177-11.492,127.057,127.057,0,0,1,6.046-13.28l1.764-3.4c.581-1.115,1.158-2.22,1.789-3.266a63.5,63.5,0,0,1,3.968-5.8c1.352-1.785,2.7-3.429,3.97-4.958s2.49-2.926,3.653-4.156a50.371,50.371,0,0,1,5.91-5.386c.745-.579,1.337-1.009,1.743-1.3l.463-.322a1.039,1.039,0,0,1,.163-.1.991.991,0,0,1-.147.124l-.448.344c-.395.3-.977.743-1.712,1.334a53.28,53.28,0,0,0-5.838,5.434c-1.15,1.234-2.355,2.638-3.62,4.168s-2.6,3.181-3.946,4.965a64.093,64.093,0,0,0-3.94,5.79c-.626,1.041-1.2,2.137-1.778,3.255l-1.762,3.4a130.23,130.23,0,0,0-6.053,13.245,63.4,63.4,0,0,0-3.22,11.437" transform="translate(-380.788 -180.046)" fill="#e0e0e0"/>
            </g>
          </g>
        </g>
      </g>
      <g id="Grupo_127781" data-name="Grupo 127781" transform="translate(18.614 7.679)">
        <g id="Grupo_127780" data-name="Grupo 127780">
          <g id="Grupo_127779" data-name="Grupo 127779">
            <g id="Grupo_127778" data-name="Grupo 127778">
              <path id="Trazado_172332" data-name="Trazado 172332" d="M408.061,209.677a2.832,2.832,0,0,1-.094-.614c-.045-.4-.092-.972-.139-1.685-.1-1.424-.161-3.4-.224-5.568s-.156-4.138-.273-5.557c-.057-.709-.108-1.283-.149-1.68a2.858,2.858,0,0,1-.034-.62,2.81,2.81,0,0,1,.134.607c.072.393.152.965.231,1.675.165,1.419.287,3.39.351,5.566.057,2.145.108,4.085.148,5.568.022.67.041,1.234.056,1.687A2.858,2.858,0,0,1,408.061,209.677Z" transform="translate(-407.141 -193.954)" fill="#e0e0e0"/>
            </g>
          </g>
        </g>
      </g>
      <g id="Grupo_127785" data-name="Grupo 127785" transform="translate(19.534 21.242)">
        <g id="Grupo_127784" data-name="Grupo 127784">
          <g id="Grupo_127783" data-name="Grupo 127783">
            <g id="Grupo_127782" data-name="Grupo 127782">
              <path id="Trazado_172333" data-name="Trazado 172333" d="M427.62,224.022a3.925,3.925,0,0,1-.732.033c-.47.007-1.15.013-1.99.048-1.68.057-4,.215-6.547.5s-4.846.654-6.5.965c-.828.149-1.495.288-1.956.381a3.917,3.917,0,0,1-.723.122,3.881,3.881,0,0,1,.7-.222c.455-.124,1.118-.291,1.944-.465,1.649-.358,3.948-.751,6.506-1.044a64.394,64.394,0,0,1,6.572-.426c.843-.011,1.525.011,2,.036A3.854,3.854,0,0,1,427.62,224.022Z" transform="translate(-409.173 -223.914)" fill="#e0e0e0"/>
            </g>
          </g>
        </g>
      </g>
      <g id="Grupo_127789" data-name="Grupo 127789" transform="translate(2.669 19.116)">
        <g id="Grupo_127788" data-name="Grupo 127788">
          <g id="Grupo_127787" data-name="Grupo 127787">
            <g id="Grupo_127786" data-name="Grupo 127786">
              <path id="Trazado_172334" data-name="Trazado 172334" d="M379.362,243.134a.914.914,0,0,1-.109-.231l-.262-.681c-.225-.593-.529-1.459-.89-2.534-.723-2.15-1.629-5.15-2.584-8.475s-1.832-6.331-2.509-8.492l-.809-2.558-.217-.7a.935.935,0,0,1-.058-.249.963.963,0,0,1,.108.231l.262.681c.225.593.529,1.459.89,2.534.723,2.15,1.629,5.15,2.584,8.476s1.831,6.33,2.509,8.491c.333,1.05.607,1.915.81,2.557l.216.7A.954.954,0,0,1,379.362,243.134Z" transform="translate(-371.922 -219.216)" fill="#e0e0e0"/>
            </g>
          </g>
        </g>
      </g>
      <g id="Grupo_127793" data-name="Grupo 127793" transform="translate(10.109 37.03)">
        <g id="Grupo_127792" data-name="Grupo 127792">
          <g id="Grupo_127791" data-name="Grupo 127791">
            <g id="Grupo_127790" data-name="Grupo 127790">
              <path id="Trazado_172335" data-name="Trazado 172335" d="M413.111,258.789a.987.987,0,0,1-.247.081l-.72.183-2.651.647c-2.239.547-5.322,1.338-8.728,2.216s-6.5,1.642-8.751,2.143c-1.125.251-2.038.445-2.671.565l-.73.135a.935.935,0,0,1-.258.029.991.991,0,0,1,.247-.081l.719-.183,2.651-.647c2.239-.546,5.322-1.338,8.729-2.217s6.5-1.642,8.75-2.142c1.125-.251,2.038-.445,2.672-.565l.73-.135A.977.977,0,0,1,413.111,258.789Z" transform="translate(-388.355 -258.786)" fill="#e0e0e0"/>
            </g>
          </g>
        </g>
      </g>
    </g>
    <g id="Grupo_127795" data-name="Grupo 127795" transform="translate(42.855 233.045)">
      <path id="Trazado_172336" data-name="Trazado 172336" d="M234.462,458.711c0,.065-42.835.118-95.663.118-52.846,0-95.672-.052-95.672-.118s42.826-.118,95.672-.118C191.627,458.593,234.462,458.646,234.462,458.711Z" transform="translate(-43.127 -458.593)" fill="#263238"/>
    </g>
    <g id="Grupo_127801" data-name="Grupo 127801" transform="translate(95.305 46.458)">
      <g id="Grupo_127796" data-name="Grupo 127796" transform="translate(2.999 0.451)">
        <path id="Trazado_172337" data-name="Trazado 172337" d="M170.774,61.768l10.921,33.3c4.34,1.209,8.759,2.17,14.023.467l24.863-9L205.8,48.512Z" transform="translate(-168.433 -48.033)" fill="#e0e0e0"/>
        <path id="Trazado_172338" data-name="Trazado 172338" d="M165.6,60.093l10.921,33.3,14.023.467,24.863-9L202.8,47.454Z" transform="translate(-165.603 -47.454)" fill="#e83737"/>
        <path id="Trazado_172339" data-name="Trazado 172339" d="M193.024,140.077l-3.3,4a15.076,15.076,0,0,0,5.929,1.676,21.772,21.772,0,0,0,8.094-1.209A14.478,14.478,0,0,1,193.024,140.077Z" transform="translate(-178.805 -98.144)" fill="#e83737"/>
        <path id="Trazado_172340" data-name="Trazado 172340" d="M193.024,140.077c-1,2.026-2.014,4.4-3.3,4a15.076,15.076,0,0,0,5.929,1.676,21.772,21.772,0,0,0,8.094-1.209A14.478,14.478,0,0,1,193.024,140.077Z" transform="translate(-178.805 -98.144)" opacity="0.3"/>
      </g>
      <path id="Trazado_172341" data-name="Trazado 172341" d="M162.214,74.091,174.9,60.442l-2.851-2.684-13.07,13.568Z" transform="translate(-158.979 -52.642)" fill="#e0e0e0"/>
      <path id="Trazado_172342" data-name="Trazado 172342" d="M241.148,53.4l-17.291-6.947-1.483,3.624,17.352,7.334Z" transform="translate(-193.673 -46.458)" fill="#e0e0e0"/>
      <g id="Grupo_127797" data-name="Grupo 127797" transform="translate(11.789 13.67)">
        <path id="Trazado_172343" data-name="Trazado 172343" d="M213.292,76.654c.021.062-6.292,2.265-14.1,4.923s-14.154,4.761-14.175,4.7,6.29-2.265,14.1-4.923S213.271,76.593,213.292,76.654Z" transform="translate(-185.019 -76.653)" fill="#263238"/>
      </g>
      <g id="Grupo_127798" data-name="Grupo 127798" transform="translate(13.4 18.812)">
        <path id="Trazado_172344" data-name="Trazado 172344" d="M216.849,88.01c.021.062-6.292,2.266-14.1,4.923s-14.154,4.761-14.175,4.7,6.29-2.265,14.1-4.923S216.828,87.949,216.849,88.01Z" transform="translate(-188.576 -88.009)" fill="#263238"/>
      </g>
      <g id="Grupo_127799" data-name="Grupo 127799" transform="translate(15.097 23.278)">
        <path id="Trazado_172345" data-name="Trazado 172345" d="M220.6,97.875c.021.062-6.292,2.266-14.1,4.923s-14.154,4.761-14.175,4.7,6.29-2.265,14.1-4.923S220.576,97.814,220.6,97.875Z" transform="translate(-192.324 -97.874)" fill="#263238"/>
      </g>
      <g id="Grupo_127800" data-name="Grupo 127800" transform="translate(16.548 27.64)">
        <path id="Trazado_172346" data-name="Trazado 172346" d="M223.8,107.511c.021.062-6.292,2.265-14.1,4.923s-14.154,4.761-14.175,4.7,6.29-2.265,14.1-4.923S223.781,107.45,223.8,107.511Z" transform="translate(-195.529 -107.51)" fill="#263238"/>
      </g>
    </g>
    <g id="Grupo_127928" data-name="Grupo 127928" transform="translate(127.709 95.372)">
      <path id="Trazado_172347" data-name="Trazado 172347" d="M274.515,299.588l-2.19,20.394s-4.268-6.453-7.157-3.577c-2.752,2.74-7.612,22.749-7.612,22.749s-.067,6.525,3.4,8.248c11.113,5.517,23.492-4.886,23.492-4.886L282.7,284.2h0A23.392,23.392,0,0,0,274.515,299.588Z" transform="translate(-245.33 -225.481)" fill="#e83737"/>
      <g id="Grupo_127858" data-name="Grupo 127858" transform="translate(30.821 0)">
        <g id="Grupo_127857" data-name="Grupo 127857">
          <g id="Grupo_127856" data-name="Grupo 127856">
            <g id="Grupo_127852" data-name="Grupo 127852" transform="translate(5.949)">
              <g id="Grupo_127850" data-name="Grupo 127850" transform="translate(2.618 9.566)">
                <g id="Grupo_127810" data-name="Grupo 127810">
                  <g id="Grupo_127809" data-name="Grupo 127809">
                    <g id="Grupo_127808" data-name="Grupo 127808">
                      <g id="Grupo_127804" data-name="Grupo 127804">
                        <g id="Grupo_127803" data-name="Grupo 127803">
                          <g id="Grupo_127802" data-name="Grupo 127802">
                            <path id="Trazado_172348" data-name="Trazado 172348" d="M344.872,226.011l-19.247-1.537c-.12-2.247.041-10.941.041-10.941s-8.008-1.245-8.107-9.252,1.289-26.392,1.289-26.392h0A27.828,27.828,0,0,1,346.81,181.4l1.186.914Z" transform="translate(-317.554 -175.628)" fill="#b78876"/>
                          </g>
                        </g>
                      </g>
                      <g id="Grupo_127807" data-name="Grupo 127807" transform="translate(8.08 34.823)">
                        <g id="Grupo_127806" data-name="Grupo 127806">
                          <g id="Grupo_127805" data-name="Grupo 127805">
                            <path id="Trazado_172349" data-name="Trazado 172349" d="M335.421,255.512a18.62,18.62,0,0,0,10.438-2.966s-2.467,5.762-10.457,5.041Z" transform="translate(-335.402 -252.546)" fill="#aa6550"/>
                          </g>
                        </g>
                      </g>
                    </g>
                  </g>
                </g>
                <g id="Grupo_127818" data-name="Grupo 127818" transform="translate(29.143 14.731)">
                  <g id="Grupo_127813" data-name="Grupo 127813">
                    <g id="Grupo_127812" data-name="Grupo 127812">
                      <g id="Grupo_127811" data-name="Grupo 127811">
                        <path id="Trazado_172350" data-name="Trazado 172350" d="M382.237,208.417c.137-.059,5.5-1.627,5.326,3.847s-5.634,4.169-5.639,4.012S382.237,208.417,382.237,208.417Z" transform="translate(-381.925 -208.165)" fill="#b78876"/>
                      </g>
                    </g>
                  </g>
                  <g id="Grupo_127817" data-name="Grupo 127817" transform="translate(1.733 1.792)">
                    <g id="Grupo_127816" data-name="Grupo 127816">
                      <g id="Grupo_127815" data-name="Grupo 127815">
                        <g id="Grupo_127814" data-name="Grupo 127814">
                          <path id="Trazado_172351" data-name="Trazado 172351" d="M385.758,216.422c.024-.017.093.07.252.149a.953.953,0,0,0,.712.037,2.36,2.36,0,0,0,1.159-2.082,3.152,3.152,0,0,0-.223-1.374,1.1,1.1,0,0,0-.694-.755.486.486,0,0,0-.571.243c-.078.151-.047.261-.076.269s-.115-.1-.063-.32a.61.61,0,0,1,.226-.336.719.719,0,0,1,.532-.122,1.341,1.341,0,0,1,.969.88,3.241,3.241,0,0,1,.282,1.537,2.477,2.477,0,0,1-1.467,2.319,1.02,1.02,0,0,1-.867-.173C385.764,216.555,385.739,216.432,385.758,216.422Z" transform="translate(-385.753 -212.124)" fill="#aa6550"/>
                        </g>
                      </g>
                    </g>
                  </g>
                </g>
                <g id="Grupo_127849" data-name="Grupo 127849" transform="translate(2.792 8.01)">
                  <g id="Grupo_127848" data-name="Grupo 127848">
                    <g id="Grupo_127841" data-name="Grupo 127841" transform="translate(0 4.313)">
                      <g id="Grupo_127840" data-name="Grupo 127840">
                        <g id="Grupo_127839" data-name="Grupo 127839">
                          <g id="Grupo_127826" data-name="Grupo 127826">
                            <g id="Grupo_127821" data-name="Grupo 127821" transform="translate(0.267 1.313)">
                              <g id="Grupo_127820" data-name="Grupo 127820">
                                <g id="Grupo_127819" data-name="Grupo 127819">
                                  <path id="Trazado_172352" data-name="Trazado 172352" d="M324.31,206.782a1.144,1.144,0,0,0,1.1,1.154,1.094,1.094,0,0,0,1.179-1.031,1.144,1.144,0,0,0-1.1-1.155A1.094,1.094,0,0,0,324.31,206.782Z" transform="translate(-324.31 -205.748)" fill="#263238"/>
                                </g>
                              </g>
                            </g>
                            <g id="Grupo_127825" data-name="Grupo 127825">
                              <g id="Grupo_127824" data-name="Grupo 127824">
                                <g id="Grupo_127823" data-name="Grupo 127823">
                                  <g id="Grupo_127822" data-name="Grupo 127822">
                                    <path id="Trazado_172353" data-name="Trazado 172353" d="M323.738,204.049c.142.149,1.008-.492,2.238-.489,1.229-.014,2.132.618,2.265.468.066-.067-.079-.336-.472-.623a3.137,3.137,0,0,0-1.814-.559,3.011,3.011,0,0,0-1.782.575C323.8,203.712,323.668,203.982,323.738,204.049Z" transform="translate(-323.72 -202.847)" fill="#263238"/>
                                  </g>
                                </g>
                              </g>
                            </g>
                          </g>
                          <g id="Grupo_127834" data-name="Grupo 127834" transform="translate(12.095 0.23)">
                            <g id="Grupo_127829" data-name="Grupo 127829" transform="translate(0.222 1.513)">
                              <g id="Grupo_127828" data-name="Grupo 127828">
                                <g id="Grupo_127827" data-name="Grupo 127827">
                                  <path id="Trazado_172354" data-name="Trazado 172354" d="M350.926,207.73a1.143,1.143,0,0,0,1.1,1.154,1.093,1.093,0,0,0,1.178-1.031,1.144,1.144,0,0,0-1.1-1.154A1.1,1.1,0,0,0,350.926,207.73Z" transform="translate(-350.926 -206.696)" fill="#263238"/>
                                </g>
                              </g>
                            </g>
                            <g id="Grupo_127833" data-name="Grupo 127833">
                              <g id="Grupo_127832" data-name="Grupo 127832">
                                <g id="Grupo_127831" data-name="Grupo 127831">
                                  <g id="Grupo_127830" data-name="Grupo 127830">
                                    <path id="Trazado_172355" data-name="Trazado 172355" d="M350.452,204.556c.142.149,1.01-.492,2.239-.488,1.229-.014,2.132.619,2.266.468.065-.067-.078-.336-.473-.622a3.134,3.134,0,0,0-1.813-.559,3.013,3.013,0,0,0-1.782.575C350.512,204.22,350.383,204.489,350.452,204.556Z" transform="translate(-350.434 -203.354)" fill="#263238"/>
                                  </g>
                                </g>
                              </g>
                            </g>
                          </g>
                          <g id="Grupo_127838" data-name="Grupo 127838" transform="translate(4.512 0.304)">
                            <g id="Grupo_127837" data-name="Grupo 127837">
                              <g id="Grupo_127836" data-name="Grupo 127836">
                                <g id="Grupo_127835" data-name="Grupo 127835">
                                  <path id="Trazado_172356" data-name="Trazado 172356" d="M336.822,213.771a8.122,8.122,0,0,0-2-.361c-.314-.032-.612-.095-.665-.309a1.6,1.6,0,0,1,.21-.931l.929-2.392a41.117,41.117,0,0,0,2.087-6.258,41.2,41.2,0,0,0-2.586,6.075c-.311.84-.608,1.641-.89,2.407a1.82,1.82,0,0,0-.163,1.233.788.788,0,0,0,.517.46,2.158,2.158,0,0,0,.534.074A8.021,8.021,0,0,0,336.822,213.771Z" transform="translate(-333.687 -203.518)" fill="#263238"/>
                                </g>
                              </g>
                            </g>
                          </g>
                        </g>
                      </g>
                    </g>
                    <g id="Grupo_127844" data-name="Grupo 127844" transform="translate(11.789)">
                      <g id="Grupo_127843" data-name="Grupo 127843">
                        <g id="Grupo_127842" data-name="Grupo 127842">
                          <path id="Trazado_172357" data-name="Trazado 172357" d="M349.765,194.243c.121.335,1.35.176,2.793.35,1.447.145,2.611.568,2.8.268.086-.144-.117-.458-.588-.782a4.895,4.895,0,0,0-4.263-.47C349.98,193.821,349.713,194.084,349.765,194.243Z" transform="translate(-349.759 -193.321)" fill="#263238"/>
                        </g>
                      </g>
                    </g>
                    <g id="Grupo_127847" data-name="Grupo 127847" transform="translate(0.439 0.679)">
                      <g id="Grupo_127846" data-name="Grupo 127846">
                        <g id="Grupo_127845" data-name="Grupo 127845">
                          <path id="Trazado_172358" data-name="Trazado 172358" d="M324.721,196.1c.216.279,1.064-.011,2.083-.024,1.019-.05,1.882.187,2.081-.105.087-.142-.048-.421-.426-.686a3.017,3.017,0,0,0-3.355.1C324.743,195.671,324.625,195.959,324.721,196.1Z" transform="translate(-324.689 -194.821)" fill="#263238"/>
                        </g>
                      </g>
                    </g>
                  </g>
                </g>
              </g>
              <g id="Grupo_127851" data-name="Grupo 127851">
                <path id="Trazado_172359" data-name="Trazado 172359" d="M311.782,161.272a2.956,2.956,0,0,1,1.092-2.641,2.1,2.1,0,0,1,2.716.2,2.446,2.446,0,0,1,2.1-2.967c1.306-.083,2.419.9,3.681,1.25a5.946,5.946,0,0,0,3.739-.431c1.185-.477,2.292-1.135,3.492-1.574a10.238,10.238,0,0,1,13.095,6.012,4.545,4.545,0,0,1,4.821,1.825,7.455,7.455,0,0,1,1.142,5.254,16.668,16.668,0,0,1-.915,3.592c0,.1.01.2.009.307-.083,4.4-.58,9.573-2.459,9.6-3.274.05-2.494-6.118-2.494-6.118-4.018-1.552-2.521-7.572-3.525-8.485s-3.106-3.035-11.518,1.264a16.3,16.3,0,0,1-9.98,1.079c-.069-.015-.14-.025-.209-.042l-.048-.01c-.026-.006-.044-.02-.07-.028a7.578,7.578,0,0,1-2.157-.915,4.264,4.264,0,0,1-1.778-1.977,2.333,2.333,0,0,1,.459-2.506A5.132,5.132,0,0,1,311.782,161.272Z" transform="translate(-311.77 -154.5)" fill="#263238"/>
              </g>
            </g>
            <g id="Grupo_127855" data-name="Grupo 127855" transform="translate(0 55.306)">
              <g id="Grupo_127854" data-name="Grupo 127854">
                <g id="Grupo_127853" data-name="Grupo 127853">
                  <path id="Trazado_172360" data-name="Trazado 172360" d="M350.261,331.546l.605,11.362,1.353,16.321H300.777l2.234-24.114-4.381-38.1c.38-13.462,5.55-19.06,16.127-20.346l-.833.1c1.456-.172,0,0,.833-.1a34.053,34.053,0,0,0,20.522-.013h0c3.171.134,5.8,1.111,8.5,1.628,8.5,1.628,15.493,8.194,17.192,13.908,1.4,4.705,11.517,45.508,11.517,45.508H352.356Z" transform="translate(-298.63 -276.659)" fill="#e83737"/>
                </g>
              </g>
            </g>
          </g>
        </g>
      </g>
      <path id="Trazado_172361" data-name="Trazado 172361" d="M338.1,232.856a5.494,5.494,0,0,0,.714,1.4,1.858,1.858,0,0,0,1.321.766,1.667,1.667,0,0,0,1.41-.769,2.661,2.661,0,0,0,.393-1.6c-.023-.505-.254-1.109-.757-1.168a1.264,1.264,0,0,0-.61.135l-2.641,1.071" transform="translate(-289.316 -196.626)" fill="#aa6550"/>
      <g id="Grupo_127859" data-name="Grupo 127859" transform="translate(48.111 34.577)">
        <path id="Trazado_172362" data-name="Trazado 172362" d="M338.547,234.7a3.829,3.829,0,0,0,1.409-.174,2.015,2.015,0,0,0,1.065-.967,2.12,2.12,0,0,0,.034-1.728,1.9,1.9,0,0,0-.23-.395c-.1-.11-.086-.1-.2-.088s-.281.111-.423.166l-.434.177c-.565.229-1.077.429-1.509.59a4.8,4.8,0,0,1-1.438.433,4.827,4.827,0,0,1,1.307-.739c.416-.2.914-.433,1.47-.683l.427-.192a4.888,4.888,0,0,1,.482-.2.617.617,0,0,1,.392.012.726.726,0,0,1,.291.23,2.266,2.266,0,0,1,.3.5,2.475,2.475,0,0,1-.081,2.113,2.259,2.259,0,0,1-1.341,1.084,2.124,2.124,0,0,1-1.144.044C338.66,234.815,338.537,234.725,338.547,234.7Z" transform="translate(-336.82 -230.874)" fill="#263238"/>
      </g>
      <g id="Grupo_127905" data-name="Grupo 127905" transform="translate(0 47.368)">
        <g id="Grupo_127904" data-name="Grupo 127904">
          <g id="Grupo_127863" data-name="Grupo 127863" transform="translate(0.32)">
            <g id="Grupo_127862" data-name="Grupo 127862">
              <g id="Grupo_127861" data-name="Grupo 127861">
                <g id="Grupo_127860" data-name="Grupo 127860">
                  <path id="Trazado_172363" data-name="Trazado 172363" d="M261.674,319.677l-12.115-37.2-1.1-6.245s-3.3-13.922-3.443-15.3c-.169-1.592-.977-1.893-1.56-1.791-.908.159-1.435,1.355-1.332,2.726.036.474.9,7.926.9,7.926a17.641,17.641,0,0,0-1.661-1.858c-1.254-1.277-3.929-1.8-6.578-1.424s-3.358.71-3.261,1.745a1.324,1.324,0,0,0,.629.948,2.619,2.619,0,0,0,1.818.416c4.25-.537,5.641,1.615,5.641,1.615l.144.817s-2.787-1.569-4.765-.567a2.514,2.514,0,0,0-.767.6,3.351,3.351,0,0,0-2.352,5.281,1.393,1.393,0,0,0,1.428.691,1.782,1.782,0,0,0,.7-.539,2.66,2.66,0,0,1,.349-.321l.722,2.232s1.891,4.929,2.471,7.167l5.9,37.456a9.4,9.4,0,0,0,10.913,7.8h0A9.4,9.4,0,0,0,261.674,319.677Z" transform="translate(-231.259 -259.125)" fill="#b78876"/>
                </g>
              </g>
            </g>
          </g>
          <g id="Grupo_127873" data-name="Grupo 127873" transform="translate(8.219 13.865)">
            <g id="Grupo_127867" data-name="Grupo 127867" transform="translate(0.228 0.22)">
              <g id="Grupo_127866" data-name="Grupo 127866">
                <g id="Grupo_127865" data-name="Grupo 127865">
                  <g id="Grupo_127864" data-name="Grupo 127864">
                    <path id="Trazado_172364" data-name="Trazado 172364" d="M258.1,299.126a1.953,1.953,0,0,1-2.118-.834c-.5-.647-.759-1.442-1.208-2.122-1.341-2.035-4.135-2.774-5.378-4.871-.173-.292-.3-.708-.046-.939.231-.215.6-.1.89.018l7.442,3.131" transform="translate(-249.212 -290.237)" fill="#b78876"/>
                  </g>
                </g>
              </g>
            </g>
            <g id="Grupo_127872" data-name="Grupo 127872">
              <g id="Grupo_127871" data-name="Grupo 127871">
                <g id="Grupo_127870" data-name="Grupo 127870">
                  <g id="Grupo_127869" data-name="Grupo 127869">
                    <g id="Grupo_127868" data-name="Grupo 127868">
                      <path id="Trazado_172365" data-name="Trazado 172365" d="M257.409,293.241a3.264,3.264,0,0,0-.77-.421c-.508-.244-1.248-.582-2.166-.991l-3.235-1.415-.938-.4a1.6,1.6,0,0,0-1.193-.2.681.681,0,0,0-.4.652,1.4,1.4,0,0,0,.186.634,5.247,5.247,0,0,0,.715.951,30.846,30.846,0,0,0,3.455,2.642,6.094,6.094,0,0,1,1.266,1.307c.32.469.543.973.8,1.417a2.841,2.841,0,0,0,1.819,1.576,1.021,1.021,0,0,0,.88-.128,2.362,2.362,0,0,1-.836-.046,2.752,2.752,0,0,1-1.576-1.557c-.228-.437-.433-.954-.766-1.474a6.27,6.27,0,0,0-1.317-1.425,35.963,35.963,0,0,1-3.386-2.627,4.966,4.966,0,0,1-.65-.857c-.166-.291-.182-.6-.008-.653.181-.084.523.06.84.2l.943.388,3.274,1.324c.934.371,1.694.664,2.222.856A3.211,3.211,0,0,0,257.409,293.241Z" transform="translate(-248.708 -289.751)" fill="#aa6550"/>
                    </g>
                  </g>
                </g>
              </g>
            </g>
          </g>
          <g id="Grupo_127878" data-name="Grupo 127878" transform="translate(0.52 8.648)">
            <g id="Grupo_127877" data-name="Grupo 127877">
              <g id="Grupo_127876" data-name="Grupo 127876">
                <g id="Grupo_127875" data-name="Grupo 127875">
                  <g id="Grupo_127874" data-name="Grupo 127874">
                    <path id="Trazado_172366" data-name="Trazado 172366" d="M240.1,282.536a3.325,3.325,0,0,0-.644-1.383,2.572,2.572,0,0,0-1.4-.8,6.576,6.576,0,0,0-2.045-.074,10.464,10.464,0,0,1-2.125.043,3.384,3.384,0,0,1-1.651-.613,1.321,1.321,0,0,1-.539-1.057.781.781,0,0,1,.1-.425c.029.005,0,.157.019.419a1.249,1.249,0,0,0,.551.9,3.358,3.358,0,0,0,1.554.508,11.565,11.565,0,0,0,2.071-.067,6.391,6.391,0,0,1,2.135.1,2.7,2.7,0,0,1,1.494.933,2.4,2.4,0,0,1,.481,1.083A.83.83,0,0,1,240.1,282.536Z" transform="translate(-231.702 -278.227)" fill="#aa6550"/>
                  </g>
                </g>
              </g>
            </g>
          </g>
          <g id="Grupo_127883" data-name="Grupo 127883" transform="translate(11.114 2.215)">
            <g id="Grupo_127882" data-name="Grupo 127882">
              <g id="Grupo_127881" data-name="Grupo 127881">
                <g id="Grupo_127880" data-name="Grupo 127880">
                  <g id="Grupo_127879" data-name="Grupo 127879">
                    <path id="Trazado_172367" data-name="Trazado 172367" d="M255.144,264.018a8.441,8.441,0,0,1,.181,1.48c.1,1.018.216,2.232.346,3.573.15,1.339.285,2.551.4,3.568a8.4,8.4,0,0,1,.128,1.486,6.682,6.682,0,0,1-.336-1.455c-.161-.908-.34-2.169-.487-3.568s-.23-2.669-.26-3.591A6.665,6.665,0,0,1,255.144,264.018Z" transform="translate(-255.101 -264.018)" fill="#aa6550"/>
                  </g>
                </g>
              </g>
            </g>
          </g>
          <g id="Grupo_127888" data-name="Grupo 127888" transform="translate(2.483 13.349)">
            <g id="Grupo_127887" data-name="Grupo 127887">
              <g id="Grupo_127886" data-name="Grupo 127886">
                <g id="Grupo_127885" data-name="Grupo 127885">
                  <g id="Grupo_127884" data-name="Grupo 127884">
                    <path id="Trazado_172368" data-name="Trazado 172368" d="M240.975,290.08a1.8,1.8,0,0,1-.451-.121,1.386,1.386,0,0,0-1.152.068.743.743,0,0,0-.319.661,3.949,3.949,0,0,0,.174.957,1.674,1.674,0,0,1-.051,1.186,1.424,1.424,0,0,1-1.073.712,1.617,1.617,0,0,1-1.221-.38,2.021,2.021,0,0,1-.662-.977,6.547,6.547,0,0,1-.176-1.911,3.866,3.866,0,0,1,.246-1.268c.124-.285.255-.405.264-.4s-.071.154-.155.434a4.561,4.561,0,0,0-.145,1.235,7.038,7.038,0,0,0,.228,1.827,1.6,1.6,0,0,0,1.583,1.141,1.143,1.143,0,0,0,.853-.554,1.425,1.425,0,0,0,.042-.989,3.926,3.926,0,0,1-.153-1.026.963.963,0,0,1,.454-.83,1.447,1.447,0,0,1,1.3,0A1.2,1.2,0,0,1,240.975,290.08Z" transform="translate(-236.037 -288.611)" fill="#aa6550"/>
                  </g>
                </g>
              </g>
            </g>
          </g>
          <g id="Grupo_127893" data-name="Grupo 127893" transform="translate(0 13.06)">
            <g id="Grupo_127892" data-name="Grupo 127892">
              <g id="Grupo_127891" data-name="Grupo 127891">
                <g id="Grupo_127890" data-name="Grupo 127890">
                  <g id="Grupo_127889" data-name="Grupo 127889">
                    <path id="Trazado_172369" data-name="Trazado 172369" d="M233.979,292.575c.014,0,.072.15,0,.426a1.3,1.3,0,0,1-.783.858,1.731,1.731,0,0,1-1.687-.328,2.833,2.833,0,0,1-.94-1.884,3.426,3.426,0,0,1,.423-2.059,3.279,3.279,0,0,1,1.216-1.21,3.1,3.1,0,0,1,1.084-.383.891.891,0,0,1,.421,0,5.382,5.382,0,0,0-1.4.566,3.232,3.232,0,0,0-1.086,1.164,3.267,3.267,0,0,0-.367,1.894,2.633,2.633,0,0,0,.82,1.706,1.536,1.536,0,0,0,1.441.34,1.232,1.232,0,0,0,.744-.7C233.967,292.728,233.953,292.575,233.979,292.575Z" transform="translate(-230.553 -287.971)" fill="#aa6550"/>
                  </g>
                </g>
              </g>
            </g>
          </g>
          <g id="Grupo_127898" data-name="Grupo 127898" transform="translate(9.097 18.609)">
            <g id="Grupo_127897" data-name="Grupo 127897">
              <g id="Grupo_127896" data-name="Grupo 127896">
                <g id="Grupo_127895" data-name="Grupo 127895">
                  <g id="Grupo_127894" data-name="Grupo 127894">
                    <path id="Trazado_172370" data-name="Trazado 172370" d="M250.646,303.715a1.217,1.217,0,0,1,.714-.067,2.811,2.811,0,0,1,1.653.772l-.243.1a8.367,8.367,0,0,1,.057-1.011,6.41,6.41,0,0,1,1.2-3.277,16.226,16.226,0,0,0-.907,3.312c-.041.341-.062.672-.068.978l-.007.339-.235-.239a2.948,2.948,0,0,0-1.48-.8C250.913,303.736,250.649,303.754,250.646,303.715Z" transform="translate(-250.646 -300.23)" fill="#aa6550"/>
                  </g>
                </g>
              </g>
            </g>
          </g>
          <g id="Grupo_127903" data-name="Grupo 127903" transform="translate(5.598 9.415)">
            <g id="Grupo_127902" data-name="Grupo 127902">
              <g id="Grupo_127901" data-name="Grupo 127901">
                <g id="Grupo_127900" data-name="Grupo 127900">
                  <g id="Grupo_127899" data-name="Grupo 127899">
                    <path id="Trazado_172371" data-name="Trazado 172371" d="M244.91,279.925c.074.027-.157.593-.781.944s-1.226.264-1.211.187.525-.132,1.064-.445S244.836,279.88,244.91,279.925Z" transform="translate(-242.917 -279.922)" fill="#aa6550"/>
                  </g>
                </g>
              </g>
            </g>
          </g>
        </g>
      </g>
      <g id="Grupo_127906" data-name="Grupo 127906" transform="translate(28.266 56.782)">
        <path id="Trazado_172372" data-name="Trazado 172372" d="M305.052,279.921c.012.013-.165.181-.469.528a5.421,5.421,0,0,0-1.05,1.686,2.213,2.213,0,0,0-.119.652,1.5,1.5,0,0,0,.172.685,2.413,2.413,0,0,0,1.306.97,12.9,12.9,0,0,0,4.14.584c.781.015,1.621.044,2.483.1l1.318.154c.449.049.9.169,1.355.253a13.723,13.723,0,0,1,5.443,2.418,10.008,10.008,0,0,1,2.248,2.357,8.036,8.036,0,0,1,.427.734c.131.265.224.526.333.786a9.566,9.566,0,0,1,.471,1.655,10.5,10.5,0,0,1-1.065,6.958,10.143,10.143,0,0,1-5.35,4.569,10.523,10.523,0,0,1-3.333.661,12.849,12.849,0,0,1-3.221-.392,20.605,20.605,0,0,0-2.963-.529,5.141,5.141,0,0,0-2.69.475,6.939,6.939,0,0,0-2.014,1.634c-.564.634-1.044,1.3-1.519,1.932a9.608,9.608,0,0,1-3.094,2.958,3.8,3.8,0,0,1-1.725.451,3.878,3.878,0,0,1-1.471-.275,3.2,3.2,0,0,1-1.01-.637,2.414,2.414,0,0,1-.506-.714,1.578,1.578,0,0,1-.159-.7,6.56,6.56,0,0,0,.244.654,2.447,2.447,0,0,0,.516.653,3.135,3.135,0,0,0,.98.569,3.592,3.592,0,0,0,3.008-.239,9.466,9.466,0,0,0,2.949-2.923c.463-.633.941-1.315,1.514-1.973a7.267,7.267,0,0,1,2.11-1.742,5.531,5.531,0,0,1,2.892-.54,20.645,20.645,0,0,1,3.029.518,12.5,12.5,0,0,0,3.116.367,10.117,10.117,0,0,0,3.184-.644,9.712,9.712,0,0,0,5.1-4.363,10.072,10.072,0,0,0,1.026-6.644,9.189,9.189,0,0,0-.445-1.583c-.106-.253-.2-.515-.312-.744a7.57,7.57,0,0,0-.4-.688,9.609,9.609,0,0,0-2.136-2.26,13.427,13.427,0,0,0-5.264-2.381c-.45-.086-.885-.208-1.325-.261l-1.294-.165c-.853-.059-1.664-.1-2.458-.124a12.918,12.918,0,0,1-4.23-.673,2.626,2.626,0,0,1-1.407-1.109,1.7,1.7,0,0,1-.179-.795,2.393,2.393,0,0,1,.15-.71,5.128,5.128,0,0,1,1.154-1.69A2.532,2.532,0,0,1,305.052,279.921Z" transform="translate(-292.987 -279.921)" fill="#fafafa"/>
      </g>
      <g id="Grupo_127907" data-name="Grupo 127907" transform="translate(74.505 73.508)">
        <path id="Trazado_172373" data-name="Trazado 172373" d="M395.385,330.326a3.367,3.367,0,0,1-.216-1.018,8.377,8.377,0,0,1,.188-2.839,10.931,10.931,0,0,1,1.758-3.841,12.624,12.624,0,0,1,3.8-3.506,16.029,16.029,0,0,1,4.833-1.825,21,21,0,0,1,4.186-.431,23.661,23.661,0,0,1,2.825.143,4.112,4.112,0,0,1,1.023.178c-.007.084-1.476-.079-3.84.012a23.013,23.013,0,0,0-4.1.522,16.357,16.357,0,0,0-4.686,1.807,12.635,12.635,0,0,0-3.689,3.354,11.13,11.13,0,0,0-1.786,3.668,9.377,9.377,0,0,0-.329,2.746A6.251,6.251,0,0,1,395.385,330.326Z" transform="translate(-395.119 -316.865)" fill="#fafafa"/>
      </g>
      <g id="Grupo_127908" data-name="Grupo 127908" transform="translate(77.971 94.837)">
        <path id="Trazado_172374" data-name="Trazado 172374" d="M424.313,363.978a3.248,3.248,0,0,1-.532.8,13.056,13.056,0,0,1-1.823,1.871,14.826,14.826,0,0,1-3.264,2.1,14.6,14.6,0,0,1-9.325,1.125,14.835,14.835,0,0,1-3.671-1.265,13.057,13.057,0,0,1-2.216-1.383,3.248,3.248,0,0,1-.706-.646,35.141,35.141,0,0,0,3.065,1.729,15.2,15.2,0,0,0,15.906-1.92A34.949,34.949,0,0,0,424.313,363.978Z" transform="translate(-402.776 -363.976)" fill="#fafafa"/>
      </g>
      <g id="Grupo_127909" data-name="Grupo 127909" transform="translate(50.013 93.387)">
        <path id="Trazado_172375" data-name="Trazado 172375" d="M367.779,360.778a2.23,2.23,0,0,1-.413.169,3.111,3.111,0,0,0-1.036.69,5.023,5.023,0,0,0-1.043,1.671,15.5,15.5,0,0,0-.727,2.555,29.907,29.907,0,0,1-.737,3.191,7.447,7.447,0,0,1-.783,1.686,6.55,6.55,0,0,1-1.32,1.475,10.349,10.349,0,0,1-3.74,1.891c-1.394.413-2.872.64-4.354.93a18.288,18.288,0,0,0-7.74,3.224,12.685,12.685,0,0,0-2.579,2.6,11.447,11.447,0,0,0-1.472,2.832,9.816,9.816,0,0,0-.478,4.583c.163,1.091.41,1.664.364,1.68a1.6,1.6,0,0,1-.192-.407,4.067,4.067,0,0,1-.175-.517,5.939,5.939,0,0,1-.177-.726,9.542,9.542,0,0,1,.343-4.718,11.542,11.542,0,0,1,1.47-2.953,12.863,12.863,0,0,1,2.634-2.719,18.391,18.391,0,0,1,7.913-3.342c1.5-.293,2.959-.515,4.315-.911a10.029,10.029,0,0,0,3.593-1.782,6.184,6.184,0,0,0,1.25-1.367,7.124,7.124,0,0,0,.76-1.585,31.864,31.864,0,0,0,.782-3.137,14.922,14.922,0,0,1,.81-2.586,5.018,5.018,0,0,1,1.159-1.7,2.909,2.909,0,0,1,1.13-.646A1.286,1.286,0,0,1,367.779,360.778Z" transform="translate(-341.021 -360.774)" fill="#fafafa"/>
      </g>
      <g id="Grupo_127910" data-name="Grupo 127910" transform="translate(57.015 88.668)">
        <path id="Trazado_172376" data-name="Trazado 172376" d="M364.112,353.184a1.889,1.889,0,0,1,.235.926,3.977,3.977,0,0,1-.723,2.5,3.877,3.877,0,0,1-1.364,1.238,3.609,3.609,0,0,1-.982.357,3.959,3.959,0,0,1-1.106.046,4.33,4.33,0,0,1-2.174-.88,3.887,3.887,0,0,1-1.4-2.1,3.406,3.406,0,0,1,.7-3.088,7.588,7.588,0,0,1,.994-1.085,3.73,3.73,0,0,1,.576-.431,1.536,1.536,0,0,1,.71-.248l.061.4-.224.056-.112-.39a3.854,3.854,0,0,1,2.5.135,4.08,4.08,0,0,1,1.575,1.089,3.415,3.415,0,0,1,.644,1.043c.091.268.115.417.1.421a6.1,6.1,0,0,0-.913-1.3,4.035,4.035,0,0,0-1.518-.94,3.574,3.574,0,0,0-2.258-.059l-.112-.39.222-.061.061.4a2.061,2.061,0,0,0-1.011.593,7.359,7.359,0,0,0-.92,1.033,2.977,2.977,0,0,0-.607,2.7,3.461,3.461,0,0,0,1.229,1.849,3.943,3.943,0,0,0,1.937.812,3.6,3.6,0,0,0,.982-.021,3.267,3.267,0,0,0,.877-.3,3.611,3.611,0,0,0,1.274-1.085,4.019,4.019,0,0,0,.81-2.307C364.172,353.522,364.069,353.2,364.112,353.184Z" transform="translate(-356.488 -350.35)" fill="#fafafa"/>
      </g>
      <g id="Grupo_127911" data-name="Grupo 127911" transform="translate(34.176 76.715)">
        <path id="Trazado_172377" data-name="Trazado 172377" d="M307.292,323.948a.466.466,0,0,1,0,.122c0,.094-.007.211-.011.356-.016.33-.039.786-.067,1.365-.071,1.185-.142,2.9-.236,5.021-.177,4.241-.351,10.1-.488,16.578s-.224,12.341-.284,16.586c-.032,2.108-.058,3.821-.077,5.027-.012.579-.022,1.036-.029,1.366-.005.145-.01.262-.014.355a.47.47,0,0,1-.012.121.461.461,0,0,1-.012-.121c0-.094-.006-.211-.01-.355L306.041,369c0-1.206,0-2.919,0-5.028.018-4.246.076-10.111.215-16.59s.337-12.34.557-16.58c.116-2.12.212-3.836.311-5.019.047-.578.084-1.034.111-1.363.014-.144.026-.26.035-.354A.471.471,0,0,1,307.292,323.948Z" transform="translate(-306.041 -323.948)" fill="#263238"/>
      </g>
      <g id="Grupo_127912" data-name="Grupo 127912" transform="translate(26.773 91.452)" opacity="0.2">
        <path id="Trazado_172378" data-name="Trazado 172378" d="M289.69,383.859c2.525,1.208,5.828-1.113,7.119-3.6a74.3,74.3,0,0,0,.58-8.274c-.174-5.18.2-10.308.03-15.488a16.3,16.3,0,0,1-3.7,8.414,5.658,5.658,0,0,0-1.389,2.139c-.37,1.493.771,4.181,1.5,5.532,2.244,4.138-2.671,11.3-3.984,11.168" transform="translate(-289.69 -356.5)"/>
      </g>
      <g id="Grupo_127913" data-name="Grupo 127913" transform="translate(74.051 85.015)" opacity="0.2">
        <path id="Trazado_172379" data-name="Trazado 172379" d="M394.117,342.282l2.481,30.969a9.117,9.117,0,0,0,.544,2.869,3.089,3.089,0,0,0,2.084,1.9c1.467.3,2.89-.963,3.3-2.4a8.643,8.643,0,0,0-.277-4.43c-.613-2.476-1.31-4.931-2.007-7.386l-6.061-21.361" transform="translate(-394.117 -342.282)"/>
      </g>
      <g id="Grupo_127914" data-name="Grupo 127914" transform="translate(34.623 98.71)">
        <path id="Trazado_172380" data-name="Trazado 172380" d="M318.082,411.711a5.984,5.984,0,0,0,.689-1.644,7.759,7.759,0,0,0-.77-4.72c-.427-.935-1.029-1.907-1.636-2.978a12.964,12.964,0,0,1-1.533-3.658,8.707,8.707,0,0,1,.321-4.381c.444-1.46,1.106-2.877,1.639-4.361a13.039,13.039,0,0,0,.226-8.659,12.738,12.738,0,0,0-1.716-3.436,13.347,13.347,0,0,0-2.289-2.456,13.562,13.562,0,0,0-4.251-2.371c-1.1-.369-1.742-.467-1.734-.511a1.79,1.79,0,0,1,.47.041,9.711,9.711,0,0,1,1.319.3,12.9,12.9,0,0,1,4.406,2.287,13.35,13.35,0,0,1,2.4,2.486,12.928,12.928,0,0,1,1.812,3.529,13.314,13.314,0,0,1-.195,8.953c-.545,1.512-1.206,2.921-1.641,4.337a8.327,8.327,0,0,0-.337,4.159,12.788,12.788,0,0,0,1.449,3.555c.587,1.072,1.177,2.059,1.6,3.033a7.711,7.711,0,0,1,.644,4.9,4.3,4.3,0,0,1-.558,1.242A1.713,1.713,0,0,1,318.082,411.711Z" transform="translate(-307.028 -372.531)" fill="#fafafa"/>
      </g>
      <g id="Grupo_127915" data-name="Grupo 127915" transform="translate(70.912 57.215)">
        <path id="Trazado_172381" data-name="Trazado 172381" d="M404.448,287.071a2.543,2.543,0,0,1-.439.9,6.589,6.589,0,0,1-1.966,1.907,8.371,8.371,0,0,1-3.86,1.277,12.768,12.768,0,0,1-4.931-.629,10.278,10.278,0,0,1-4.3-2.5,6.39,6.39,0,0,1-1.255-1.812,5.945,5.945,0,0,1-.488-1.856,4.718,4.718,0,0,1,.5-2.695,2.581,2.581,0,0,1,.23-.367,1.581,1.581,0,0,1,.2-.248c.116-.126.182-.185.195-.175.035.028-.2.3-.456.871a4.843,4.843,0,0,0-.336,2.577,5.817,5.817,0,0,0,.511,1.728,6.153,6.153,0,0,0,1.21,1.672,10.158,10.158,0,0,0,4.137,2.354,12.838,12.838,0,0,0,4.754.646,8.346,8.346,0,0,0,3.718-1.127,7.143,7.143,0,0,0,1.992-1.731C404.248,287.368,404.412,287.053,404.448,287.071Z" transform="translate(-387.183 -280.875)" fill="#fafafa"/>
      </g>
      <g id="Grupo_127916" data-name="Grupo 127916" transform="translate(71.006 62.847)">
        <path id="Trazado_172382" data-name="Trazado 172382" d="M398.364,342.582a.568.568,0,0,1-.048-.127c-.03-.1-.069-.223-.118-.379-.1-.351-.247-.841-.431-1.465l-1.541-5.4-5-17.838c-.967-3.486-1.887-6.806-2.725-9.829a33.777,33.777,0,0,1-.964-4.355,13.352,13.352,0,0,1-.012-3.89,8.375,8.375,0,0,1,2.561-4.926,6.2,6.2,0,0,1,1.271-.854l.367-.156a.574.574,0,0,1,.128-.045,7.085,7.085,0,0,0-1.7,1.123,8.384,8.384,0,0,0-2.457,4.885,13.315,13.315,0,0,0,.041,3.837,34.3,34.3,0,0,0,.98,4.325l2.742,9.824,4.932,17.856,1.469,5.42.388,1.477.1.385A.582.582,0,0,1,398.364,342.582Z" transform="translate(-387.391 -293.317)" fill="#263238"/>
      </g>
      <g id="Grupo_127917" data-name="Grupo 127917" transform="translate(42.003 7.228)">
        <path id="Trazado_172383" data-name="Trazado 172383" d="M344.869,175.091a4.787,4.787,0,0,0,0-.969,3.78,3.78,0,0,0-1.252-2.249,5.093,5.093,0,0,0-3.6-1.191,15.7,15.7,0,0,0-4.684,1.048c-.818.269-1.624.527-2.424.7a12.575,12.575,0,0,1-2.342.285,12.724,12.724,0,0,1-3.944-.518,12.248,12.248,0,0,1-2.469-1.047c-.278-.153-.483-.288-.62-.383a1.039,1.039,0,0,1-.2-.153c.013-.021.306.171.867.455a13.611,13.611,0,0,0,2.471.967,12.979,12.979,0,0,0,3.891.462,12.664,12.664,0,0,0,2.3-.293c.786-.177,1.584-.433,2.4-.7a15.506,15.506,0,0,1,4.755-1.04,5.215,5.215,0,0,1,3.72,1.285,3.786,3.786,0,0,1,1.23,2.361A2.2,2.2,0,0,1,344.869,175.091Z" transform="translate(-323.331 -170.465)" fill="#455a64"/>
      </g>
      <g id="Grupo_127918" data-name="Grupo 127918" transform="translate(64.782 9.767)">
        <path id="Trazado_172384" data-name="Trazado 172384" d="M378.63,191.691a.63.63,0,0,1-.105-.168c-.064-.113-.148-.285-.249-.511a10.276,10.276,0,0,1-.638-1.99,10.975,10.975,0,0,1-.206-3.1,27.561,27.561,0,0,1,.714-3.72,7.283,7.283,0,0,0,.007-3.68,3.724,3.724,0,0,0-.767-1.394,2.8,2.8,0,0,0-1.15-.755,2.629,2.629,0,0,0-1.976.051,3.808,3.808,0,0,0-.615.431,1.528,1.528,0,0,1,.573-.512,2.657,2.657,0,0,1,2.072-.127,2.939,2.939,0,0,1,1.242.781,3.88,3.88,0,0,1,.829,1.461,7.373,7.373,0,0,1,.016,3.793,29.608,29.608,0,0,0-.729,3.689,11.336,11.336,0,0,0,.153,3.045,11.994,11.994,0,0,0,.559,1.988A7.277,7.277,0,0,1,378.63,191.691Z" transform="translate(-373.645 -176.073)" fill="#455a64"/>
      </g>
      <g id="Grupo_127919" data-name="Grupo 127919" transform="translate(41.152 2.203)">
        <path id="Trazado_172385" data-name="Trazado 172385" d="M344.608,168.37a1.692,1.692,0,0,1,0-.322c.009-.233.02-.538.034-.918a10.643,10.643,0,0,0-.37-3.325,5.873,5.873,0,0,0-1.07-2.02,4.13,4.13,0,0,0-2.146-1.418,5.419,5.419,0,0,0-2.865.117,13.251,13.251,0,0,0-2.865,1.3,23.713,23.713,0,0,1-2.841,1.461,8.7,8.7,0,0,1-2.928.588,9.258,9.258,0,0,1-2.682-.329,10.369,10.369,0,0,1-2.176-.9,8.893,8.893,0,0,1-2.576-2.2,5.594,5.594,0,0,1-.522-.761,1.7,1.7,0,0,1-.155-.282,1.628,1.628,0,0,1,.2.256,6.962,6.962,0,0,0,.553.729,9.208,9.208,0,0,0,2.586,2.111,10.392,10.392,0,0,0,2.145.853,9.154,9.154,0,0,0,2.625.3,8.547,8.547,0,0,0,2.849-.585,24.044,24.044,0,0,0,2.811-1.452,13.285,13.285,0,0,1,2.918-1.316,5.609,5.609,0,0,1,2.984-.105,4.317,4.317,0,0,1,2.242,1.5,5.984,5.984,0,0,1,1.078,2.1,10.181,10.181,0,0,1,.3,3.377c-.024.4-.055.709-.079.918A1.6,1.6,0,0,1,344.608,168.37Z" transform="translate(-321.449 -159.366)" fill="#455a64"/>
      </g>
      <g id="Grupo_127927" data-name="Grupo 127927" transform="translate(30.352 116.35)">
        <g id="Grupo_127925" data-name="Grupo 127925">
          <g id="Grupo_127921" data-name="Grupo 127921">
            <path id="Trazado_172386" data-name="Trazado 172386" d="M344.936,419.555l33.857-5.05-.547-3.011h18.223l.534,4.632a14.009,14.009,0,0,1-13.615,16.654l-39.488-.439Z" transform="translate(-322.935 -411.495)" fill="#b78876"/>
            <g id="Grupo_127920" data-name="Grupo 127920" transform="translate(0 5.372)">
              <path id="Trazado_172387" data-name="Trazado 172387" d="M322.038,426.632a35.785,35.785,0,0,1-4.5-1.907,14.735,14.735,0,0,0-6.935-1.344l-9.413.479a4.611,4.611,0,0,0,1.58,2.105c1,.552,6.85.671,6.85.671l-.3.308a6.77,6.77,0,0,1-4.685,2.05l-.9.023a8.806,8.806,0,0,1-1.965-.384l-2.322-.939c-.7-.317-1.445-.265-1.75.442-.277.64-.074,1.522,1.843,2.487,1.071.54,5.044,1.914,5.044,1.914a9.592,9.592,0,0,0,.231,1.676c.173.578,1.734,1.156,1.734,1.156a20.587,20.587,0,0,0,1.388,2.486,14.287,14.287,0,0,0,3.1,1.069,13.329,13.329,0,0,0,7.417-.056l3.587-1.071V426.87" transform="translate(-297.594 -423.361)" fill="#b78876"/>
            </g>
          </g>
          <g id="Grupo_127922" data-name="Grupo 127922" transform="translate(6.817 14.525)">
            <path id="Trazado_172388" data-name="Trazado 172388" d="M317.4,444.835a10.722,10.722,0,0,1-4.75-1.25c.027-.064,1.054.331,2.362.673S317.41,444.766,317.4,444.835Z" transform="translate(-312.652 -443.579)" fill="#aa6550"/>
          </g>
          <g id="Grupo_127923" data-name="Grupo 127923" transform="translate(8.72 17.293)">
            <path id="Trazado_172389" data-name="Trazado 172389" d="M319.372,450.385a3.462,3.462,0,0,1-2.514-.683,46.027,46.027,0,0,0,2.514.683Z" transform="translate(-316.856 -449.693)" fill="#aa6550"/>
          </g>
          <g id="Grupo_127924" data-name="Grupo 127924" transform="translate(55.828 2.848)">
            <path id="Trazado_172390" data-name="Trazado 172390" d="M429.881,425.844c-.043.016-.268-.655-.811-1.647a13.119,13.119,0,0,0-1.084-1.658,13.122,13.122,0,0,0-3.59-3.223,13.165,13.165,0,0,0-1.765-.9c-1.044-.433-1.735-.584-1.724-.629a2,2,0,0,1,.49.081,4.747,4.747,0,0,1,.564.147c.216.068.468.135.732.246a11.778,11.778,0,0,1,1.815.868,12.355,12.355,0,0,1,3.651,3.278,11.77,11.77,0,0,1,1.058,1.711c.139.251.232.494.323.7a4.768,4.768,0,0,1,.207.545A2,2,0,0,1,429.881,425.844Z" transform="translate(-420.908 -417.785)" fill="#aa6550"/>
          </g>
        </g>
        <g id="Grupo_127926" data-name="Grupo 127926" transform="translate(6.714 7.794)">
          <path id="Trazado_172391" data-name="Trazado 172391" d="M318.666,428.713a4.142,4.142,0,0,1-.727.776,11.674,11.674,0,0,1-2.051,1.553,8.152,8.152,0,0,1-2.4.928,3.444,3.444,0,0,1-1.06.115,13.741,13.741,0,0,0,3.345-1.246,16.015,16.015,0,0,0,2.06-1.475A5.582,5.582,0,0,1,318.666,428.713Z" transform="translate(-312.425 -428.711)" fill="#aa6550"/>
        </g>
      </g>
    </g>
    <g id="Grupo_128068" data-name="Grupo 128068" transform="translate(51.01 100.497)">
      <path id="Trazado_172392" data-name="Trazado 172392" d="M101.045,336.528c.807,0-6.167,18.732-7.961,23.517-.2.53-.338,1-.338,1l48.815.085-.575-45.42a.852.852,0,0,0-.006-.09L136.9,283.128a.8.8,0,0,0-.583-.673,74.1,74.1,0,0,0-14.227-2.519,110.617,110.617,0,0,0-15.28,1.008s-8.106.836-12.567,2.445a.8.8,0,0,0-.523.867Z" transform="translate(-78.436 -228.256)" fill="#e83737"/>
      <g id="Grupo_127929" data-name="Grupo 127929" transform="translate(32.282 88.139)">
        <path id="Trazado_172393" data-name="Trazado 172393" d="M145.314,360.5a3.347,3.347,0,0,1-.245.589,5.668,5.668,0,0,1-.343.666,9.548,9.548,0,0,1-.518.848,10.612,10.612,0,0,1-.713.972c-.261.348-.584.68-.915,1.039a14.637,14.637,0,0,1-5.272,3.453c-.461.16-.9.324-1.318.424a10.573,10.573,0,0,1-1.176.265,9.411,9.411,0,0,1-.984.136,5.71,5.71,0,0,1-.748.048,3.289,3.289,0,0,1-.638-.011c0-.052.91-.046,2.338-.336a11.277,11.277,0,0,0,1.154-.29c.415-.106.841-.274,1.293-.438a15.256,15.256,0,0,0,5.2-3.4c.331-.349.655-.672.918-1.01a11.372,11.372,0,0,0,.727-.943C144.908,361.319,145.268,360.48,145.314,360.5Z" transform="translate(-132.444 -360.503)" fill="#263238"/>
      </g>
      <g id="Grupo_127930" data-name="Grupo 127930" transform="translate(15.967 114.298)" opacity="0.2">
        <path id="Trazado_172394" data-name="Trazado 172394" d="M96.407,432.234a14.368,14.368,0,0,0,14-1.752c1.76-1.278,3.238-2.949,5.137-4.009,2.634-1.47,5.775-1.609,8.783-1.824a42.807,42.807,0,0,0,11.872-2.184,4.746,4.746,0,0,0,2.076-1.255,1.849,1.849,0,0,0,.188-2.258,2.774,2.774,0,0,0-2.321-.664c-12.624.373-24.159,1.385-36.446,4.3" transform="translate(-96.407 -418.284)"/>
      </g>
      <path id="Trazado_172395" data-name="Trazado 172395" d="M126.458,170.772c3.9-3.972,10.059-6.317,15.16-4.085,3.429,1.5,5.756,4.719,8.766,6.945,2.192,1.62,4.9,2.873,6.05,5.345,1.013,2.18.524,4.717.28,7.108s-.073,5.149,1.779,6.681a22.24,22.24,0,0,0,3.346,1.75,8.956,8.956,0,0,1,3.986,6.217,26.53,26.53,0,0,1-.039,7.594l-10.507,2-1.726-2.9-.6,4.564-13.409,1.21Z" transform="translate(-96.886 -165.821)" fill="#263238"/>
      <g id="Grupo_127997" data-name="Grupo 127997" transform="translate(26.989 8.088)">
        <g id="Grupo_127996" data-name="Grupo 127996">
          <g id="Grupo_127995" data-name="Grupo 127995">
            <g id="Grupo_127984" data-name="Grupo 127984">
              <g id="Grupo_127983" data-name="Grupo 127983">
                <g id="Grupo_127982" data-name="Grupo 127982">
                  <g id="Grupo_127935" data-name="Grupo 127935">
                    <g id="Grupo_127934" data-name="Grupo 127934">
                      <g id="Grupo_127933" data-name="Grupo 127933">
                        <g id="Grupo_127932" data-name="Grupo 127932">
                          <g id="Grupo_127931" data-name="Grupo 127931">
                            <path id="Trazado_172396" data-name="Trazado 172396" d="M121.6,184.885l-.023,2.924-.827,43.826c-.072,5.08,4.789,9.406,10.229,9.441h0c5.494.036,7.735-4.092,7.892-9.222.165-5.385.438-11.052.438-11.052s6.97-.96,8.657-9.973c.839-4.482.816-11.869.6-17.913a9.562,9.562,0,0,0-10.3-9.2Z" transform="translate(-120.752 -183.686)" fill="#ffbe9d"/>
                          </g>
                        </g>
                      </g>
                    </g>
                  </g>
                  <g id="Grupo_127947" data-name="Grupo 127947" transform="translate(21.525 11.743)">
                    <g id="Grupo_127940" data-name="Grupo 127940" transform="translate(1.587 2.23)">
                      <g id="Grupo_127939" data-name="Grupo 127939">
                        <g id="Grupo_127938" data-name="Grupo 127938">
                          <g id="Grupo_127937" data-name="Grupo 127937">
                            <g id="Grupo_127936" data-name="Grupo 127936">
                              <path id="Trazado_172397" data-name="Trazado 172397" d="M174.12,215.629a1.161,1.161,0,0,1-1.152,1.14,1.11,1.11,0,0,1-1.168-1.079,1.161,1.161,0,0,1,1.15-1.141A1.112,1.112,0,0,1,174.12,215.629Z" transform="translate(-171.801 -214.548)" fill="#263238"/>
                            </g>
                          </g>
                        </g>
                      </g>
                    </g>
                    <g id="Grupo_127946" data-name="Grupo 127946">
                      <g id="Grupo_127945" data-name="Grupo 127945">
                        <g id="Grupo_127944" data-name="Grupo 127944">
                          <g id="Grupo_127943" data-name="Grupo 127943">
                            <g id="Grupo_127942" data-name="Grupo 127942">
                              <g id="Grupo_127941" data-name="Grupo 127941">
                                <path id="Trazado_172398" data-name="Trazado 172398" d="M172.883,210.908c-.148.147-1.01-.528-2.259-.559-1.247-.049-2.182.568-2.313.412-.065-.07.09-.339.5-.618a3.19,3.19,0,0,1,1.857-.517,3.06,3.06,0,0,1,1.793.634C172.833,210.565,172.956,210.842,172.883,210.908Z" transform="translate(-168.297 -209.624)" fill="#263238"/>
                              </g>
                            </g>
                          </g>
                        </g>
                      </g>
                    </g>
                  </g>
                  <g id="Grupo_127959" data-name="Grupo 127959" transform="translate(9.239 11.637)">
                    <g id="Grupo_127952" data-name="Grupo 127952" transform="translate(1.567 2.335)">
                      <g id="Grupo_127951" data-name="Grupo 127951">
                        <g id="Grupo_127950" data-name="Grupo 127950">
                          <g id="Grupo_127949" data-name="Grupo 127949">
                            <g id="Grupo_127948" data-name="Grupo 127948">
                              <path id="Trazado_172399" data-name="Trazado 172399" d="M146.94,215.629a1.161,1.161,0,0,1-1.152,1.14,1.111,1.111,0,0,1-1.168-1.079,1.162,1.162,0,0,1,1.151-1.141A1.112,1.112,0,0,1,146.94,215.629Z" transform="translate(-144.62 -214.548)" fill="#263238"/>
                            </g>
                          </g>
                        </g>
                      </g>
                    </g>
                    <g id="Grupo_127958" data-name="Grupo 127958">
                      <g id="Grupo_127957" data-name="Grupo 127957">
                        <g id="Grupo_127956" data-name="Grupo 127956">
                          <g id="Grupo_127955" data-name="Grupo 127955">
                            <g id="Grupo_127954" data-name="Grupo 127954">
                              <g id="Grupo_127953" data-name="Grupo 127953">
                                <path id="Trazado_172400" data-name="Trazado 172400" d="M145.746,210.675c-.148.147-1.011-.527-2.259-.559-1.248-.049-2.182.568-2.314.411-.064-.069.089-.338.5-.618a3.186,3.186,0,0,1,1.857-.517,3.064,3.064,0,0,1,1.793.634C145.695,210.331,145.819,210.609,145.746,210.675Z" transform="translate(-141.159 -209.391)" fill="#263238"/>
                              </g>
                            </g>
                          </g>
                        </g>
                      </g>
                    </g>
                  </g>
                  <g id="Grupo_127965" data-name="Grupo 127965" transform="translate(17.805 11.886)">
                    <g id="Grupo_127964" data-name="Grupo 127964">
                      <g id="Grupo_127963" data-name="Grupo 127963">
                        <g id="Grupo_127962" data-name="Grupo 127962">
                          <g id="Grupo_127961" data-name="Grupo 127961">
                            <g id="Grupo_127960" data-name="Grupo 127960">
                              <path id="Trazado_172401" data-name="Trazado 172401" d="M160.378,220.365a8.289,8.289,0,0,1,2.039-.31c.32-.024.623-.079.684-.3a1.628,1.628,0,0,0-.187-.951l-.876-2.455a41.815,41.815,0,0,1-1.944-6.412,41.806,41.806,0,0,1,2.455,6.24c.292.862.571,1.682.836,2.468a1.846,1.846,0,0,1,.131,1.257.8.8,0,0,1-.537.452,2.165,2.165,0,0,1-.544.06A8.146,8.146,0,0,1,160.378,220.365Z" transform="translate(-160.079 -209.941)" fill="#263238"/>
                            </g>
                          </g>
                        </g>
                      </g>
                    </g>
                  </g>
                  <g id="Grupo_127970" data-name="Grupo 127970" transform="translate(6.526 33.549)">
                    <g id="Grupo_127969" data-name="Grupo 127969">
                      <g id="Grupo_127968" data-name="Grupo 127968">
                        <g id="Grupo_127967" data-name="Grupo 127967">
                          <g id="Grupo_127966" data-name="Grupo 127966">
                            <path id="Trazado_172402" data-name="Trazado 172402" d="M147.2,261.357a23.034,23.034,0,0,1-12.034-3.568s2.769,6.3,11.853,5.7Z" transform="translate(-135.166 -257.789)" fill="#eb996e"/>
                          </g>
                        </g>
                      </g>
                    </g>
                  </g>
                  <g id="Grupo_127975" data-name="Grupo 127975" transform="translate(13.744 24.408)">
                    <g id="Grupo_127974" data-name="Grupo 127974">
                      <g id="Grupo_127973" data-name="Grupo 127973">
                        <g id="Grupo_127972" data-name="Grupo 127972">
                          <g id="Grupo_127971" data-name="Grupo 127971">
                            <path id="Trazado_172403" data-name="Trazado 172403" d="M154.859,238.5a2.251,2.251,0,0,0-1.995-.892,2.056,2.056,0,0,0-1.44.722,1.3,1.3,0,0,0-.14,1.486,1.512,1.512,0,0,0,1.626.46,4.736,4.736,0,0,0,1.623-.909A1.381,1.381,0,0,0,154.9,239a.419.419,0,0,0,.011-.465" transform="translate(-151.11 -237.598)" fill="#eb996e"/>
                          </g>
                        </g>
                      </g>
                    </g>
                  </g>
                  <g id="Grupo_127981" data-name="Grupo 127981" transform="translate(14.182 23.073)">
                    <g id="Grupo_127980" data-name="Grupo 127980">
                      <g id="Grupo_127979" data-name="Grupo 127979">
                        <g id="Grupo_127978" data-name="Grupo 127978">
                          <g id="Grupo_127977" data-name="Grupo 127977">
                            <g id="Grupo_127976" data-name="Grupo 127976">
                              <path id="Trazado_172404" data-name="Trazado 172404" d="M152.3,234.651c.2-.006.169,1.35,1.3,2.344s2.581.885,2.587,1.075c.017.086-.329.254-.94.254a3.376,3.376,0,0,1-2.161-.82,2.942,2.942,0,0,1-1.006-1.963C152.045,234.972,152.206,234.64,152.3,234.651Z" transform="translate(-152.076 -234.65)" fill="#263238"/>
                            </g>
                          </g>
                        </g>
                      </g>
                    </g>
                  </g>
                </g>
              </g>
            </g>
            <g id="Grupo_127989" data-name="Grupo 127989" transform="translate(8.507 8.283)">
              <g id="Grupo_127988" data-name="Grupo 127988">
                <g id="Grupo_127987" data-name="Grupo 127987">
                  <g id="Grupo_127986" data-name="Grupo 127986">
                    <g id="Grupo_127985" data-name="Grupo 127985">
                      <path id="Trazado_172405" data-name="Trazado 172405" d="M145.258,202.986c-.133.336-1.375.141-2.845.277-1.474.107-2.667.5-2.853.193-.083-.148.132-.462.619-.777a4.969,4.969,0,0,1,4.342-.359C145.052,202.552,145.315,202.826,145.258,202.986Z" transform="translate(-139.542 -201.981)" fill="#263238"/>
                    </g>
                  </g>
                </g>
              </g>
            </g>
            <g id="Grupo_127994" data-name="Grupo 127994" transform="translate(20.987 9.135)">
              <g id="Grupo_127993" data-name="Grupo 127993">
                <g id="Grupo_127992" data-name="Grupo 127992">
                  <g id="Grupo_127991" data-name="Grupo 127991">
                    <g id="Grupo_127990" data-name="Grupo 127990">
                      <path id="Trazado_172406" data-name="Trazado 172406" d="M172.279,205.231c-.276.276-1.315-.047-2.574-.1-1.258-.085-2.332.126-2.569-.177-.1-.147.072-.427.546-.683a4.156,4.156,0,0,1,2.106-.407,4.077,4.077,0,0,1,2.038.627C172.263,204.8,172.4,205.1,172.279,205.231Z" transform="translate(-167.108 -203.863)" fill="#263238"/>
                    </g>
                  </g>
                </g>
              </g>
            </g>
          </g>
        </g>
      </g>
      <path id="Trazado_172407" data-name="Trazado 172407" d="M79.636,285.767s-14.559,3.416-17.383,17.223c-1.3,6.344-3.116,42.772,5.37,48.431,10.953,7.3,24.875.657,24.875.657l-1.788-17.62h-9.04l-1.22-19.3C80.792,316.636,79.636,285.767,79.636,285.767Z" transform="translate(-61.139 -231.464)" fill="#e83737"/>
      <path id="Trazado_172408" data-name="Trazado 172408" d="M202.017,346.454a11.258,11.258,0,0,0,10.1-11.688l-5.946-25.272s-3.856-21.688-16.051-23.644l4.155,33.064-.4,6.968s.188,4.61.657,13.246Z" transform="translate(-131.725 -231.509)" fill="#e83737"/>
      <g id="Grupo_127998" data-name="Grupo 127998" transform="translate(62.404 99.07)">
        <path id="Trazado_172409" data-name="Trazado 172409" d="M208.443,384.708a15.558,15.558,0,0,0-2.2.241,8.916,8.916,0,0,0-7,7.142,15.421,15.421,0,0,0-.2,2.2,2.438,2.438,0,0,1-.069-.6,7.92,7.92,0,0,1,.1-1.633,8.765,8.765,0,0,1,7.127-7.276,7.909,7.909,0,0,1,1.631-.134A2.436,2.436,0,0,1,208.443,384.708Z" transform="translate(-198.978 -384.648)" fill="#263238"/>
      </g>
      <path id="Trazado_172410" data-name="Trazado 172410" d="M104.579,173.762c1.64,2.2,2.419,3.892,3.4,7.807.481,1.917-1.077,3.271-2.626,4.441a1.249,1.249,0,0,1-1.973-.722h0s.538,6-1.631,8.688a5.188,5.188,0,0,0-.819,4.241,7.193,7.193,0,0,0,1.937,3.668,9.054,9.054,0,0,1,1.479,10.2,26.8,26.8,0,0,0-1.379,2.463,3.711,3.711,0,0,0-.289,1.592,1.261,1.261,0,0,1-1.069,1.34,99.016,99.016,0,0,1-22.5.676,1.234,1.234,0,0,1-1.1-.933c-.587-2.486.392-5.2,1.648-7.485,1.4-2.556,3.189-5.009,3.672-7.884.454-2.706-.284-5.624.8-8.143,1.334-3.092,4.961-4.554,6.777-7.39,1.713-2.676,1.576-6.185,3.11-8.968a8.577,8.577,0,0,1,10.561-3.59" transform="translate(-70.275 -169.822)" fill="#263238"/>
      <path id="Trazado_172411" data-name="Trazado 172411" d="M137.411,177.574c2.847,1.464,4.163,4.946,6.929,6.558,2.519,1.468,5.662,1.08,8.546.647l-.321-1.919a5.177,5.177,0,0,0,1.068,1.553,1.756,1.756,0,0,0,1.753.415c.967-.389,1.1-1.72.848-2.733a9.384,9.384,0,0,0-2.517-4.263,12.765,12.765,0,0,0-16.653-1.331" transform="translate(-102.689 -170.31)" fill="#263238"/>
      <g id="Grupo_127999" data-name="Grupo 127999" transform="translate(61.384 71.71)">
        <path id="Trazado_172412" data-name="Trazado 172412" d="M196.76,324.214a2.023,2.023,0,0,1,.027.355q.012.383.031,1.02c.018.886.062,2.167.13,3.749.13,3.165.426,7.531.782,12.352s.627,9.2.714,12.365c.046,1.585.065,2.867.054,3.754-.005.426-.01.765-.013,1.02a2.028,2.028,0,0,1-.021.356,2,2,0,0,1-.027-.355q-.012-.383-.031-1.02c-.018-.885-.062-2.166-.129-3.749-.13-3.165-.426-7.531-.782-12.354s-.626-9.193-.714-12.363c-.046-1.585-.066-2.868-.055-3.754.005-.426.01-.765.013-1.021A2,2,0,0,1,196.76,324.214Z" transform="translate(-196.724 -324.214)" fill="#263238"/>
      </g>
      <g id="Grupo_128000" data-name="Grupo 128000" transform="translate(18.912 78.056)">
        <path id="Trazado_172413" data-name="Trazado 172413" d="M104.532,363.17a1.045,1.045,0,0,1-.033-.253c-.012-.192-.028-.433-.047-.727-.037-.664-.087-1.57-.149-2.673-.129-2.257-.327-5.374-.562-8.816s-.454-6.529-.613-8.815c-.072-1.1-.132-2.008-.176-2.672-.015-.294-.028-.535-.038-.728a1.053,1.053,0,0,1,0-.255,1.03,1.03,0,0,1,.045.251c.022.192.048.431.081.724.062.662.147,1.566.25,2.667.2,2.253.447,5.368.682,8.812s.407,6.563.493,8.824c.04,1.13.07,2.045.074,2.678,0,.295,0,.536,0,.728A1.029,1.029,0,0,1,104.532,363.17Z" transform="translate(-102.911 -338.232)" fill="#263238"/>
      </g>
      <g id="Grupo_128001" data-name="Grupo 128001" transform="translate(15.584 102.976)">
        <path id="Trazado_172414" data-name="Trazado 172414" d="M100.51,393.294c0,.042-.473.063-1.185.3a5.269,5.269,0,0,0-3.572,4.239c-.116.743-.056,1.216-.1,1.219a.839.839,0,0,1-.07-.328,4.321,4.321,0,0,1,0-.913,5.077,5.077,0,0,1,3.688-4.376,4.3,4.3,0,0,1,.9-.158A.847.847,0,0,1,100.51,393.294Z" transform="translate(-95.561 -393.276)" fill="#263238"/>
      </g>
      <g id="Grupo_128002" data-name="Grupo 128002" transform="translate(19.473 102.881)">
        <path id="Trazado_172415" data-name="Trazado 172415" d="M116.038,410.8a1.272,1.272,0,0,1-.052-.278c-.027-.209-.061-.475-.1-.8-.083-.729-.2-1.734-.338-2.961-.266-2.529-.627-5.973-1.027-9.778l-.38-3.787.113.1-7.241-.042-2.1-.033-.562-.019a.725.725,0,0,1-.194-.02.739.739,0,0,1,.194-.019l.562-.019,2.1-.033,7.241-.042h.1l.01.1.389,3.786c.373,3.807.71,7.254.958,9.785.11,1.23.2,2.237.263,2.969.024.33.044.6.06.808A1.273,1.273,0,0,1,116.038,410.8Z" transform="translate(-104.151 -393.065)" fill="#263238"/>
      </g>
      <g id="Grupo_128003" data-name="Grupo 128003" transform="translate(1.962 111.225)">
        <path id="Trazado_172416" data-name="Trazado 172416" d="M94.87,420.885a2.11,2.11,0,0,1-.342.126l-.993.317c-.865.268-2.119.651-3.685,1.068a46.4,46.4,0,0,1-5.576,1.158,19.276,19.276,0,0,1-6.956-.33,29.57,29.57,0,0,1-3.483-.982c-.551-.2-1.088-.4-1.608-.614-.259-.11-.517-.21-.764-.344l-.371-.187-.345-.222a8.5,8.5,0,0,1-2.184-2.141,14.873,14.873,0,0,1-1.345-2.3,27.059,27.059,0,0,1-1.369-3.588c-.132-.434-.231-.771-.292-1a2.129,2.129,0,0,1-.084-.354,2.091,2.091,0,0,1,.129.34l.334.987a30.5,30.5,0,0,0,1.432,3.544,15.115,15.115,0,0,0,1.352,2.253,8.374,8.374,0,0,0,2.145,2.075l.335.213.36.179c.236.127.5.227.753.335.516.212,1.05.411,1.6.6a30.025,30.025,0,0,0,3.456.969,19.332,19.332,0,0,0,6.878.345,49.069,49.069,0,0,0,5.564-1.1c1.568-.4,2.828-.754,3.7-1l1.006-.274A2.145,2.145,0,0,1,94.87,420.885Z" transform="translate(-65.472 -411.495)" fill="#263238"/>
      </g>
      <path id="Trazado_172417" data-name="Trazado 172417" d="M100.183,188.507a5.788,5.788,0,0,0-1.323-6.332,6.514,6.514,0,0,0-6.411-1.389,4.94,4.94,0,0,0-2.5,1.712,4.571,4.571,0,0,0,.254,5.293,6.67,6.67,0,0,0,4.95,2.4,12.683,12.683,0,0,0,5.513-1.141" transform="translate(-76.506 -173.839)" fill="#263238"/>
      <g id="Grupo_128011" data-name="Grupo 128011" transform="translate(29.715 82.237)">
        <g id="Grupo_128006" data-name="Grupo 128006" transform="translate(6.778)">
          <path id="Trazado_172418" data-name="Trazado 172418" d="M145.955,353.227c3.166,2.613,10.618,8.8,10.618,8.8l4.172-.743-12.64-10.633a1.679,1.679,0,0,0-2.3.127h0A1.678,1.678,0,0,0,145.955,353.227Z" transform="translate(-143.715 -348.992)" fill="#455a64"/>
          <path id="Trazado_172419" data-name="Trazado 172419" d="M143.65,350.344l-1.641-1.481a.8.8,0,0,1-.076-1.112h0a.8.8,0,0,1,1.154-.074l1.579,1.447Z" transform="translate(-141.744 -347.466)" fill="#455a64"/>
          <g id="Grupo_128004" data-name="Grupo 128004" transform="translate(4.581 3.671)">
            <path id="Trazado_172420" data-name="Trazado 172420" d="M154.071,355.578a10.985,10.985,0,0,1-2.2,2.329,10.953,10.953,0,0,1,2.2-2.329Z" transform="translate(-151.862 -355.575)" fill="#263238"/>
          </g>
          <g id="Grupo_128005" data-name="Grupo 128005" transform="translate(1.295 1.499)">
            <path id="Trazado_172421" data-name="Trazado 172421" d="M150.225,358.159a8.142,8.142,0,0,1-1.261-.824c-.755-.544-1.772-1.332-2.843-2.265a4.7,4.7,0,0,1-1.331-1.532,2.2,2.2,0,0,1-.043-1.664,2.089,2.089,0,0,1,.67-.9.841.841,0,0,1,.359-.2,3.762,3.762,0,0,1-.3.266,2.2,2.2,0,0,0-.572.887,2.073,2.073,0,0,0,.084,1.517,4.723,4.723,0,0,0,1.288,1.444c1.066.929,2.063,1.734,2.79,2.31A11.53,11.53,0,0,1,150.225,358.159Z" transform="translate(-144.604 -350.776)" fill="#263238"/>
          </g>
        </g>
        <g id="Grupo_128010" data-name="Grupo 128010" transform="translate(0 12.136)">
          <path id="Trazado_172422" data-name="Trazado 172422" d="M126.774,384.306c3-1.009,6.192-.33,9.195-1.338a7.963,7.963,0,0,0,2.837-1.4,18.694,18.694,0,0,0,2.2-3.116c2.273-3.06,6.518-3.694,10.31-4.083a7.673,7.673,0,0,1,2.655.038,2.6,2.6,0,0,1,1.93,1.664,1.6,1.6,0,0,1-1.2,2.014,1.92,1.92,0,0,1,1.565,1.7c.153.817.017,1.664.127,2.488.154,1.158.788,2.242.751,3.41a4.3,4.3,0,0,1-2.851,3.53,18.849,18.849,0,0,1-4.693.918c-7.774,1.094-13.687,5.508-21.182,8.842" transform="translate(-126.774 -374.273)" fill="#ffbe9d"/>
          <path id="Trazado_172423" data-name="Trazado 172423" d="M188.193,382.456a1.073,1.073,0,0,0,1.532.315,1.643,1.643,0,0,0,.588-1.582,3.686,3.686,0,0,0-.75-1.592,20.5,20.5,0,0,0-2.175-2.4l-2.409,2.016Z" transform="translate(-158.627 -375.872)" fill="#ffbe9d"/>
          <g id="Grupo_128007" data-name="Grupo 128007" transform="translate(22.242 3.811)">
            <path id="Trazado_172424" data-name="Trazado 172424" d="M182.339,382.832c0,.074-1.475-.046-3.257.23s-3.153.812-3.179.742a3.172,3.172,0,0,1,.879-.405,12.085,12.085,0,0,1,4.6-.694A3.2,3.2,0,0,1,182.339,382.832Z" transform="translate(-175.903 -382.691)" fill="#eb996e"/>
          </g>
          <g id="Grupo_128008" data-name="Grupo 128008" transform="translate(24.221 8.293)">
            <path id="Trazado_172425" data-name="Trazado 172425" d="M185.792,392.967c-.014.071-1.238-.18-2.763-.136s-2.736.344-2.754.273a8.86,8.86,0,0,1,5.517-.137Z" transform="translate(-180.274 -392.591)" fill="#eb996e"/>
          </g>
          <g id="Grupo_128009" data-name="Grupo 128009" transform="translate(28.311 1.464)">
            <path id="Trazado_172426" data-name="Trazado 172426" d="M190.48,383.317c-.038,0,0-.354-.066-.907a4.775,4.775,0,0,0-.729-2.011,4.6,4.6,0,0,0-.309-.419l-.068-.085.075-.074a2.181,2.181,0,0,0,.626-1.593c-.011-.45-.136-.709-.1-.722a1.191,1.191,0,0,1,.253.712,2.2,2.2,0,0,1-.616,1.769l.007-.158a4.4,4.4,0,0,1,.33.441,4.333,4.333,0,0,1,.7,2.126A2.034,2.034,0,0,1,190.48,383.317Z" transform="translate(-189.307 -377.506)" fill="#eb996e"/>
          </g>
        </g>
      </g>
      <path id="Trazado_172427" data-name="Trazado 172427" d="M192.063,388.247l3.95,3.706.5,2.2-3.653-.824A15.817,15.817,0,0,1,192.063,388.247Z" transform="translate(-132.78 -287.548)" fill="#455a64"/>
      <path id="Trazado_172428" data-name="Trazado 172428" d="M154.514,397.448c-.081.145-21.311,10.612-21.311,10.612v2.251l21.665-11.269,26.882-1.015v-1.594Z" transform="translate(-100.577 -292.027)" fill="#f5f5f5"/>
      <path id="Trazado_172429" data-name="Trazado 172429" d="M133.2,412.562c.148-.1,23.44-2.2,23.44-2.2l25.107-10.407-26.882,1.015L133.2,412.238Z" transform="translate(-100.577 -293.954)" fill="#263238"/>
      <g id="Grupo_128015" data-name="Grupo 128015" transform="translate(54.897 107.619)">
        <path id="Trazado_172430" data-name="Trazado 172430" d="M182.439,408.944c-.189-1.22.98-2.265,2.17-2.591s2.464-.2,3.668-.471a16.732,16.732,0,0,0,2.237-.8c3.713-1.425,7.787-1.5,11.763-1.554a2.525,2.525,0,0,1-.9,3.086,4.156,4.156,0,0,1-.123,2.982,9.308,9.308,0,0,1-1.659,2.548,5.786,5.786,0,0,1-1.963,1.645,6.532,6.532,0,0,1-2.519.387c-2.667.057-5.529.058-7.735-1.442-1.715-1.165-2.9-3.165-4.891-3.756l.471.019" transform="translate(-182.408 -403.531)" fill="#ffbe9d"/>
        <g id="Grupo_128012" data-name="Grupo 128012" transform="translate(6.639 1.761)">
          <path id="Trazado_172431" data-name="Trazado 172431" d="M208.245,409.593a2.154,2.154,0,0,1-.511.048l-1.393.044c-1.176.027-2.8.048-4.6.057h-2.533a3.489,3.489,0,0,1-1.119-.172,1.717,1.717,0,0,1-.809-.589,1.074,1.074,0,0,1-.211-.8,1.008,1.008,0,0,1,.281-.557.562.562,0,0,1,.478-.2,1.03,1.03,0,0,0-.411.262.928.928,0,0,0,0,1.2,1.577,1.577,0,0,0,.74.5,3.4,3.4,0,0,0,1.058.138l2.529-.019c1.795-.009,3.42,0,4.6.012l1.394.03A2.157,2.157,0,0,1,208.245,409.593Z" transform="translate(-197.06 -407.42)" fill="#eb996e"/>
        </g>
        <g id="Grupo_128013" data-name="Grupo 128013" transform="translate(0 5.158)">
          <path id="Trazado_172432" data-name="Trazado 172432" d="M198.851,415.936a3.41,3.41,0,0,1-.641.125c-.415.064-1.017.15-1.766.222a17.143,17.143,0,0,1-2.647.063,19.492,19.492,0,0,1-3.2-.537,24.89,24.89,0,0,0-5.783-.71c-.748,0-1.353.026-1.771.049a3.935,3.935,0,0,1-.652.019,3.127,3.127,0,0,1,.644-.111c.417-.051,1.025-.106,1.777-.125a22.526,22.526,0,0,1,5.836.647,20.738,20.738,0,0,0,3.159.551,18.889,18.889,0,0,0,2.619-.013c.746-.05,1.35-.111,1.768-.147A3.542,3.542,0,0,1,198.851,415.936Z" transform="translate(-182.395 -414.925)" fill="#eb996e"/>
        </g>
        <g id="Grupo_128014" data-name="Grupo 128014" transform="translate(1.771 6.422)">
          <path id="Trazado_172433" data-name="Trazado 172433" d="M198.775,419.853a2.09,2.09,0,0,1-.5.093c-.323.043-.792.1-1.374.15a16.523,16.523,0,0,1-4.564-.148,20.118,20.118,0,0,1-4.243-1.675,10.809,10.809,0,0,0-1.788-.549,1.573,1.573,0,0,1,.509.027,6.493,6.493,0,0,1,1.341.368,23.682,23.682,0,0,0,4.227,1.6,18.679,18.679,0,0,0,4.507.212l1.376-.075A2.12,2.12,0,0,1,198.775,419.853Z" transform="translate(-186.307 -417.715)" fill="#eb996e"/>
        </g>
      </g>
      <g id="Grupo_128016" data-name="Grupo 128016" transform="translate(63.115 95.269)" opacity="0.2">
        <path id="Trazado_172434" data-name="Trazado 172434" d="M200.547,385.009a15.267,15.267,0,0,1,1.323-4.785,7.386,7.386,0,0,1,3.419-3.5,4.914,4.914,0,0,1,4.758.292A2.472,2.472,0,0,1,211,378.15a1.388,1.388,0,0,1-.228,1.407c-.5.531-1.346.446-2.074.414a8.732,8.732,0,0,0-8.072,4.863" transform="translate(-200.547 -376.252)"/>
      </g>
      <g id="Grupo_128017" data-name="Grupo 128017" transform="translate(19.06 81.723)" opacity="0.2">
        <path id="Trazado_172435" data-name="Trazado 172435" d="M107.979,367.256c1.8-3.244,1.161-7.314-.219-10.758s-3.443-6.61-4.5-10.167a62.777,62.777,0,0,0,3.1,21.262" transform="translate(-103.24 -346.331)"/>
      </g>
      <path id="Trazado_172436" data-name="Trazado 172436" d="M114.7,280.909s2.2,5.175,10.116,4.846,8.178-6.475,8.178-6.475l5.3,5.634-5.034,10.377-6.762,5.048-9.214-3.786-7.59-5.889Z" transform="translate(-87.711 -227.913)" fill="#e83737"/>
      <g id="Grupo_128018" data-name="Grupo 128018" transform="translate(3.509 75.108)" opacity="0.5">
        <path id="Trazado_172437" data-name="Trazado 172437" d="M73.817,331.729a10.772,10.772,0,0,1-2.314,2.159,10.774,10.774,0,0,1-2.61,1.791,10.754,10.754,0,0,1,2.314-2.159A10.773,10.773,0,0,1,73.817,331.729Z" transform="translate(-68.889 -331.72)" fill="#fafafa"/>
      </g>
      <g id="Grupo_128019" data-name="Grupo 128019" transform="translate(7.345 66.58)">
        <path id="Trazado_172438" data-name="Trazado 172438" d="M82.166,315.838a8.633,8.633,0,0,1-4.8-2.945,17.033,17.033,0,0,1,2.4,1.472A17.055,17.055,0,0,1,82.166,315.838Z" transform="translate(-77.363 -312.884)" fill="#fafafa"/>
      </g>
      <g id="Grupo_128020" data-name="Grupo 128020" transform="translate(14.786 70.136)">
        <path id="Trazado_172439" data-name="Trazado 172439" d="M97.965,320.742a27.182,27.182,0,0,1-2.033,3.384,27.132,27.132,0,0,1-2.122,3.329,18.8,18.8,0,0,1,4.154-6.714Z" transform="translate(-93.799 -320.739)" fill="#fafafa"/>
      </g>
      <g id="Grupo_128021" data-name="Grupo 128021" transform="translate(9.856 80.25)">
        <path id="Trazado_172440" data-name="Trazado 172440" d="M86.191,348.7a11.1,11.1,0,0,1-3.263-5.621,24.119,24.119,0,0,1,1.619,2.818A24.1,24.1,0,0,1,86.191,348.7Z" transform="translate(-82.908 -343.077)" fill="#fafafa"/>
      </g>
      <g id="Grupo_128022" data-name="Grupo 128022" transform="translate(6.284 88.274)">
        <path id="Trazado_172441" data-name="Trazado 172441" d="M75.8,366.013a14.764,14.764,0,0,1-.709-5.21,14.764,14.764,0,0,1,.709,5.21Z" transform="translate(-75.019 -360.803)" fill="#fafafa"/>
      </g>
      <g id="Grupo_128023" data-name="Grupo 128023" transform="translate(12.771 90.373)" opacity="0.5">
        <path id="Trazado_172442" data-name="Trazado 172442" d="M89.362,370.624a19.139,19.139,0,0,1,3.006-5.183,19.154,19.154,0,0,1-3.006,5.183Z" transform="translate(-89.348 -365.438)" fill="#fafafa"/>
      </g>
      <g id="Grupo_128024" data-name="Grupo 128024" transform="translate(2.609 98.316)">
        <path id="Trazado_172443" data-name="Trazado 172443" d="M70.431,388.108a12.4,12.4,0,0,1-3.515-5.123,15.622,15.622,0,0,1,1.82,2.519A15.658,15.658,0,0,1,70.431,388.108Z" transform="translate(-66.902 -382.983)" fill="#fafafa"/>
      </g>
      <g id="Grupo_128025" data-name="Grupo 128025" transform="translate(10.187 102.135)">
        <path id="Trazado_172444" data-name="Trazado 172444" d="M88.622,391.424A13.484,13.484,0,0,1,86.3,394.1a13.434,13.434,0,0,1-2.656,2.346,13.489,13.489,0,0,1,2.321-2.677A13.445,13.445,0,0,1,88.622,391.424Z" transform="translate(-83.639 -391.419)" fill="#fafafa"/>
      </g>
      <g id="Grupo_128026" data-name="Grupo 128026" transform="translate(6.767 113.766)" opacity="0.5">
        <path id="Trazado_172445" data-name="Trazado 172445" d="M79.355,421.752a8.965,8.965,0,0,1-3.251-4.641,16.5,16.5,0,0,1,1.636,2.313A16.426,16.426,0,0,1,79.355,421.752Z" transform="translate(-76.086 -417.109)" fill="#fafafa"/>
      </g>
      <g id="Grupo_128027" data-name="Grupo 128027" transform="translate(16.482 115.102)">
        <path id="Trazado_172446" data-name="Trazado 172446" d="M102.753,420.073a9.722,9.722,0,0,1-2.486,1.689,9.717,9.717,0,0,1-2.72,1.279,9.722,9.722,0,0,1,2.486-1.689A9.737,9.737,0,0,1,102.753,420.073Z" transform="translate(-97.545 -420.059)" fill="#fafafa"/>
      </g>
      <g id="Grupo_128028" data-name="Grupo 128028" transform="translate(22.826 106.723)">
        <path id="Trazado_172447" data-name="Trazado 172447" d="M114.963,406.2a8.565,8.565,0,0,1-3.39-4.641,19.851,19.851,0,0,1,1.675,2.336A19.926,19.926,0,0,1,114.963,406.2Z" transform="translate(-111.556 -401.552)" fill="#fafafa"/>
      </g>
      <g id="Grupo_128029" data-name="Grupo 128029" transform="translate(28.602 85.287)">
        <path id="Trazado_172448" data-name="Trazado 172448" d="M129.956,354.212a13.34,13.34,0,0,1-2.677,2.3,13.352,13.352,0,0,1-2.96,1.922,13.359,13.359,0,0,1,2.677-2.3A13.362,13.362,0,0,1,129.956,354.212Z" transform="translate(-124.315 -354.203)" fill="#fafafa"/>
      </g>
      <g id="Grupo_128030" data-name="Grupo 128030" transform="translate(25.715 79.258)">
        <path id="Trazado_172449" data-name="Trazado 172449" d="M118.024,346.379a16.251,16.251,0,0,1,.563-5.493,16.283,16.283,0,0,1-.563,5.493Z" transform="translate(-117.939 -340.887)" fill="#fafafa"/>
      </g>
      <g id="Grupo_128031" data-name="Grupo 128031" transform="translate(28.038 69.411)" opacity="0.5">
        <path id="Trazado_172450" data-name="Trazado 172450" d="M128.616,323.871a17.789,17.789,0,0,1-5.542-4.727,20.222,20.222,0,0,1,2.832,2.292A20.246,20.246,0,0,1,128.616,323.871Z" transform="translate(-123.069 -319.137)" fill="#fafafa"/>
      </g>
      <g id="Grupo_128032" data-name="Grupo 128032" transform="translate(22.95 60.912)">
        <path id="Trazado_172451" data-name="Trazado 172451" d="M116.621,300.369a14.708,14.708,0,0,1-2.212,2.972,14.676,14.676,0,0,1-2.572,2.667,29.126,29.126,0,0,1,4.783-5.638Z" transform="translate(-111.831 -300.365)" fill="#fafafa"/>
      </g>
      <g id="Grupo_128033" data-name="Grupo 128033" transform="translate(16.228 57.796)" opacity="0.5">
        <path id="Trazado_172452" data-name="Trazado 172452" d="M101.8,295.185a16.129,16.129,0,0,1-2.4-.844,16.054,16.054,0,0,1-2.417-.788,6.692,6.692,0,0,1,4.815,1.633Z" transform="translate(-96.983 -293.482)" fill="#fafafa"/>
      </g>
      <g id="Grupo_128034" data-name="Grupo 128034" transform="translate(38.027 60.808)">
        <path id="Trazado_172453" data-name="Trazado 172453" d="M145.169,304.924a13.332,13.332,0,0,1,1.408-4.789,13.324,13.324,0,0,1-1.408,4.789Z" transform="translate(-145.133 -300.135)" fill="#fafafa"/>
      </g>
      <g id="Grupo_128035" data-name="Grupo 128035" transform="translate(41.995 71.229)">
        <path id="Trazado_172454" data-name="Trazado 172454" d="M154.033,327.942a12.329,12.329,0,0,1,.276-4.789,12.327,12.327,0,0,1-.276,4.789Z" transform="translate(-153.898 -323.153)" fill="#fafafa"/>
      </g>
      <g id="Grupo_128036" data-name="Grupo 128036" transform="translate(44.682 80.506)">
        <path id="Trazado_172455" data-name="Trazado 172455" d="M163.97,346.975a15.02,15.02,0,0,1-4.131-3.322,15.021,15.021,0,0,1,4.131,3.322Z" transform="translate(-159.833 -343.643)" fill="#fafafa"/>
      </g>
      <g id="Grupo_128037" data-name="Grupo 128037" transform="translate(51.677 72.91)">
        <path id="Trazado_172456" data-name="Trazado 172456" d="M179.551,326.875a17.236,17.236,0,0,1-4.262,3.76,17.262,17.262,0,0,1,4.262-3.76Z" transform="translate(-175.283 -326.867)" fill="#fafafa"/>
      </g>
      <g id="Grupo_128038" data-name="Grupo 128038" transform="translate(48.341 64.174)" opacity="0.5">
        <path id="Trazado_172457" data-name="Trazado 172457" d="M172.244,311.161a10.93,10.93,0,0,1-4.321-3.583,37.525,37.525,0,0,1,4.321,3.583Z" transform="translate(-167.915 -307.57)" fill="#fafafa"/>
      </g>
      <g id="Grupo_128039" data-name="Grupo 128039" transform="translate(57.484 58.57)">
        <path id="Trazado_172458" data-name="Trazado 172458" d="M191.53,295.2a6.64,6.64,0,0,1-3.414,3.208c-.073-.113.748-.76,1.676-1.637S191.421,295.117,191.53,295.2Z" transform="translate(-188.111 -295.191)" fill="#fafafa"/>
      </g>
      <g id="Grupo_128040" data-name="Grupo 128040" transform="translate(49.048 56.125)" opacity="0.5">
        <path id="Trazado_172459" data-name="Trazado 172459" d="M175.671,291.381a13.686,13.686,0,0,1-6.192-1.566,15.646,15.646,0,0,1,3.119.692A15.672,15.672,0,0,1,175.671,291.381Z" transform="translate(-169.478 -289.791)" fill="#fafafa"/>
      </g>
      <g id="Grupo_128041" data-name="Grupo 128041" transform="translate(65.728 64.757)" opacity="0.5">
        <path id="Trazado_172460" data-name="Trazado 172460" d="M206.348,316.446a21.421,21.421,0,0,1,2.318-7.588,78.055,78.055,0,0,1-2.318,7.588Z" transform="translate(-206.32 -308.857)" fill="#fafafa"/>
      </g>
      <g id="Grupo_128042" data-name="Grupo 128042" transform="translate(63.429 77.4)">
        <path id="Trazado_172461" data-name="Trazado 172461" d="M205.9,341.714a24.461,24.461,0,0,1-4.65-4.927,24.454,24.454,0,0,1,4.65,4.927Z" transform="translate(-201.241 -336.782)" fill="#fafafa"/>
      </g>
      <g id="Grupo_128043" data-name="Grupo 128043" transform="translate(71.508 81.37)" opacity="0.5">
        <path id="Trazado_172462" data-name="Trazado 172462" d="M219.272,352.172a23.37,23.37,0,0,1,.113-6.62,23.369,23.369,0,0,1-.113,6.62Z" transform="translate(-219.086 -345.552)" fill="#fafafa"/>
      </g>
      <g id="Grupo_128044" data-name="Grupo 128044" transform="translate(64.8 91.37)">
        <path id="Trazado_172463" data-name="Trazado 172463" d="M207.5,373.576a14.06,14.06,0,0,1-3.214-5.934,93.682,93.682,0,0,1,3.214,5.934Z" transform="translate(-204.269 -367.641)" fill="#fafafa"/>
      </g>
      <g id="Grupo_128045" data-name="Grupo 128045" transform="translate(74.24 98.997)">
        <path id="Trazado_172464" data-name="Trazado 172464" d="M228.264,384.5c.091.093-.537.854-1.4,1.7s-1.641,1.455-1.732,1.362.537-.854,1.4-1.7S228.173,384.4,228.264,384.5Z" transform="translate(-225.121 -384.486)" fill="#fafafa"/>
      </g>
      <g id="Grupo_128046" data-name="Grupo 128046" transform="translate(54.598 82.945)" opacity="0.5">
        <path id="Trazado_172465" data-name="Trazado 172465" d="M181.755,354.474a9.23,9.23,0,0,1,3.752-5.437c.093.1-.967,1.144-1.991,2.639S181.885,354.524,181.755,354.474Z" transform="translate(-181.736 -349.03)" fill="#fafafa"/>
      </g>
      <g id="Grupo_128047" data-name="Grupo 128047" transform="translate(28.182 94.906)">
        <path id="Trazado_172466" data-name="Trazado 172466" d="M123.422,381.356a19.715,19.715,0,0,1,1.453-5.9,19.705,19.705,0,0,1-1.453,5.9Z" transform="translate(-123.387 -375.451)" fill="#fafafa"/>
      </g>
      <g id="Grupo_128048" data-name="Grupo 128048" transform="translate(34.556 98.79)">
        <path id="Trazado_172467" data-name="Trazado 172467" d="M142.249,387.158a17.381,17.381,0,0,1-4.778-3.115,17.364,17.364,0,0,1,4.778,3.115Z" transform="translate(-137.467 -384.03)" fill="#fafafa"/>
      </g>
      <g id="Grupo_128049" data-name="Grupo 128049" transform="translate(36.786 90.934)">
        <path id="Trazado_172468" data-name="Trazado 172468" d="M144.386,369.638c-.109.072-.638-.531-1.184-1.346s-.9-1.537-.791-1.609.638.531,1.183,1.347S144.494,369.566,144.386,369.638Z" transform="translate(-142.391 -366.677)" fill="#fafafa"/>
      </g>
      <g id="Grupo_128050" data-name="Grupo 128050" transform="translate(41.278 95.701)">
        <path id="Trazado_172469" data-name="Trazado 172469" d="M154.72,377.229c.075.106-.4.57-1.063,1.035s-1.26.756-1.335.649.4-.57,1.064-1.035S154.645,377.122,154.72,377.229Z" transform="translate(-152.314 -377.207)" fill="#fafafa"/>
      </g>
      <g id="Grupo_128051" data-name="Grupo 128051" transform="translate(30.84 123.623)" opacity="0.5">
        <path id="Trazado_172470" data-name="Trazado 172470" d="M129.3,443.53a34.514,34.514,0,0,1,.693-4.649,7.25,7.25,0,0,1-.693,4.649Z" transform="translate(-129.259 -438.881)" fill="#fafafa"/>
      </g>
      <g id="Grupo_128052" data-name="Grupo 128052" transform="translate(38.72 118.569)" opacity="0.5">
        <path id="Trazado_172471" data-name="Trazado 172471" d="M150.107,433.747a25.635,25.635,0,0,1-3.43-6.028,25.592,25.592,0,0,1,3.43,6.028Z" transform="translate(-146.665 -427.717)" fill="#fafafa"/>
      </g>
      <g id="Grupo_128053" data-name="Grupo 128053" transform="translate(48.683 119.547)" opacity="0.5">
        <path id="Trazado_172472" data-name="Trazado 172472" d="M174.117,429.881A42.614,42.614,0,0,1,168.676,437a42.63,42.63,0,0,1,5.441-7.114Z" transform="translate(-168.669 -429.879)" fill="#fafafa"/>
      </g>
      <g id="Grupo_128054" data-name="Grupo 128054" transform="translate(50.741 129.11)" opacity="0.5">
        <path id="Trazado_172473" data-name="Trazado 172473" d="M179.977,451.053a24.874,24.874,0,0,1-6.762.978,24.887,24.887,0,0,1,6.762-.978Z" transform="translate(-173.216 -451)" fill="#fafafa"/>
      </g>
      <g id="Grupo_128055" data-name="Grupo 128055" transform="translate(57.961 119.96)">
        <path id="Trazado_172474" data-name="Trazado 172474" d="M189.224,435.149a39.811,39.811,0,0,1,.19-4.359,5.984,5.984,0,0,1-.19,4.359Z" transform="translate(-189.164 -430.789)" fill="#fafafa"/>
      </g>
      <g id="Grupo_128056" data-name="Grupo 128056" transform="translate(37.348 126.715)">
        <path id="Trazado_172475" data-name="Trazado 172475" d="M148.148,448.956a7.949,7.949,0,0,1-4.507-3.239,19.021,19.021,0,0,1,2.237,1.643A19.02,19.02,0,0,1,148.148,448.956Z" transform="translate(-143.634 -445.71)" fill="#fafafa"/>
      </g>
      <g id="Grupo_128057" data-name="Grupo 128057" transform="translate(22.618 124.74)">
        <path id="Trazado_172476" data-name="Trazado 172476" d="M111.142,445.853a11.558,11.558,0,0,1,1.134-4.505,11.564,11.564,0,0,1-1.134,4.505Z" transform="translate(-111.098 -441.347)" fill="#fafafa"/>
      </g>
      <g id="Grupo_128058" data-name="Grupo 128058" transform="translate(20.576 14.731)">
        <path id="Trazado_172477" data-name="Trazado 172477" d="M106.587,198.36c.029-.037.544.405,1.491.926a10.984,10.984,0,0,0,1.734.757,11.056,11.056,0,0,0,4.573.527,10.948,10.948,0,0,0,1.861-.343c1.041-.292,1.643-.606,1.663-.563a1.841,1.841,0,0,1-.412.239,4.1,4.1,0,0,1-.508.231,6.72,6.72,0,0,1-.7.253,9.876,9.876,0,0,1-1.887.4,10.509,10.509,0,0,1-4.666-.537,9.918,9.918,0,0,1-1.746-.818,6.737,6.737,0,0,1-.62-.4,4,4,0,0,1-.442-.34A1.852,1.852,0,0,1,106.587,198.36Z" transform="translate(-106.587 -198.358)" fill="#455a64"/>
      </g>
      <g id="Grupo_128059" data-name="Grupo 128059" transform="translate(20.833 16.441)">
        <path id="Trazado_172478" data-name="Trazado 172478" d="M118.594,205.635a2.133,2.133,0,0,1-.493.153c-.321.082-.79.188-1.376.29a12.55,12.55,0,0,1-4.637.028,7.219,7.219,0,0,1-4.007-2.284,4.935,4.935,0,0,1-.759-1.194,1.754,1.754,0,0,1-.166-.491,8.082,8.082,0,0,0,1.05,1.575,7.4,7.4,0,0,0,3.93,2.164,13.577,13.577,0,0,0,4.564.038c.584-.08,1.056-.161,1.383-.215A2.234,2.234,0,0,1,118.594,205.635Z" transform="translate(-107.154 -202.136)" fill="#455a64"/>
      </g>
      <g id="Grupo_128060" data-name="Grupo 128060" transform="translate(15.517 20.733)">
        <path id="Trazado_172479" data-name="Trazado 172479" d="M96.047,238.532s-.023-.019-.06-.062a2.3,2.3,0,0,1-.154-.2,2.618,2.618,0,0,1-.361-.906,4.154,4.154,0,0,1,1-3.363,8.534,8.534,0,0,1,1.894-1.6c.742-.49,1.577-.94,2.395-1.491a7.3,7.3,0,0,0,2.181-2.13,3.861,3.861,0,0,0,.542-1.5,4.673,4.673,0,0,0-.087-1.647,20.455,20.455,0,0,0-1.146-3.122,8.649,8.649,0,0,1-.766-3.047,8.127,8.127,0,0,1,1.553-5.018,7.608,7.608,0,0,1,2.67-2.354l.507-.243.388-.136a1.757,1.757,0,0,1,.325-.1,1.883,1.883,0,0,1-.308.141l-.377.156-.492.259a7.774,7.774,0,0,0-2.578,2.369,8.036,8.036,0,0,0-1.472,4.912,8.515,8.515,0,0,0,.762,2.97,20.163,20.163,0,0,1,1.163,3.159,4.878,4.878,0,0,1,.09,1.73,4.086,4.086,0,0,1-.577,1.584,7.46,7.46,0,0,1-2.257,2.189c-.836.556-1.671,1-2.41,1.476a8.47,8.47,0,0,0-1.873,1.542,4.1,4.1,0,0,0-1.031,3.238A3.126,3.126,0,0,0,96.047,238.532Z" transform="translate(-95.412 -211.617)" fill="#455a64"/>
      </g>
      <g id="Grupo_128061" data-name="Grupo 128061" transform="translate(25.007 21.855)">
        <path id="Trazado_172480" data-name="Trazado 172480" d="M119.578,240.052a1.419,1.419,0,0,1-.262-.148,2.116,2.116,0,0,1-.584-.636,3.035,3.035,0,0,1-.407-1.3,4.935,4.935,0,0,1,.2-1.8c.368-1.329,1.478-2.538,2.312-4.057a5.075,5.075,0,0,0,.68-2.579,6.917,6.917,0,0,0-.727-2.795,51.279,51.279,0,0,0-3.1-4.782,9.86,9.86,0,0,1-1.068-2.276,5.5,5.5,0,0,1-.222-2.183,4.322,4.322,0,0,1,1.318-2.831,3.069,3.069,0,0,1,.726-.466,1.4,1.4,0,0,1,.283-.1,4.644,4.644,0,0,0-.947.634,4.305,4.305,0,0,0-1.214,2.778,5.386,5.386,0,0,0,.243,2.11,9.832,9.832,0,0,0,1.066,2.219c.463.74,1.011,1.48,1.569,2.258A16.035,16.035,0,0,1,121,226.633a7.1,7.1,0,0,1,.745,2.892,5.269,5.269,0,0,1-.721,2.686c-.866,1.546-1.975,2.731-2.344,4a4.888,4.888,0,0,0-.225,1.741,3.016,3.016,0,0,0,.355,1.269A2.675,2.675,0,0,0,119.578,240.052Z" transform="translate(-116.376 -214.094)" fill="#455a64"/>
      </g>
      <g id="Grupo_128062" data-name="Grupo 128062" transform="translate(33.361 2.606)">
        <path id="Trazado_172481" data-name="Trazado 172481" d="M147.543,182.8a.547.547,0,0,1-.171-.072,3.411,3.411,0,0,1-.448-.286,5.458,5.458,0,0,1-1.3-1.452,16.2,16.2,0,0,1-1.254-2.6c-.209-.5-.431-1.018-.7-1.532a9.492,9.492,0,0,0-1-1.493,10.241,10.241,0,0,0-5.233-3.372,14.082,14.082,0,0,0-2.6-.373,3.772,3.772,0,0,1,.713-.04,9.4,9.4,0,0,1,1.932.252,10.049,10.049,0,0,1,5.374,3.385,9.442,9.442,0,0,1,1.02,1.534c.277.527.5,1.055.7,1.557a17.438,17.438,0,0,0,1.194,2.594,5.893,5.893,0,0,0,1.218,1.469C147.328,182.66,147.554,182.78,147.543,182.8Z" transform="translate(-134.828 -171.578)" fill="#455a64"/>
      </g>
      <g id="Grupo_128063" data-name="Grupo 128063" transform="translate(33.525 2.108)">
        <path id="Trazado_172482" data-name="Trazado 172482" d="M154.054,182.158a.945.945,0,0,1-.243-.025,3.727,3.727,0,0,1-.68-.177,5.886,5.886,0,0,1-2.158-1.4,13.022,13.022,0,0,1-2.24-3.094,23.774,23.774,0,0,0-2.462-3.921,7.733,7.733,0,0,0-3.842-2.4,15.005,15.005,0,0,0-3.738-.5c-1.08-.024-1.956.021-2.561.045l-.7.026a.974.974,0,0,1-.244-.005.96.96,0,0,1,.241-.042c.159-.019.393-.046.7-.071.6-.052,1.48-.123,2.569-.12a14.53,14.53,0,0,1,3.795.456,7.855,7.855,0,0,1,3.961,2.451,22.978,22.978,0,0,1,2.473,3.97,13.329,13.329,0,0,0,2.167,3.082,6.1,6.1,0,0,0,2.073,1.435C153.723,182.091,154.06,182.133,154.054,182.158Z" transform="translate(-135.189 -170.477)" fill="#455a64"/>
      </g>
      <g id="Grupo_128064" data-name="Grupo 128064" transform="translate(55.609 21.473)">
        <path id="Trazado_172483" data-name="Trazado 172483" d="M191.44,234.952c-.026-.01.116-.321.266-.914a8.574,8.574,0,0,0-1.984-8.048c-.524-.582-1.124-1.135-1.731-1.715a15.722,15.722,0,0,1-1.678-1.8,11.163,11.163,0,0,1-1.207-1.954,11.471,11.471,0,0,1-1.07-3.721,10.576,10.576,0,0,1,.026-2.61,6.537,6.537,0,0,1,.124-.7,1,1,0,0,1,.066-.239c.024,0-.045.338-.1.948a11.584,11.584,0,0,0,.048,2.58,11.665,11.665,0,0,0,1.1,3.646,11.179,11.179,0,0,0,1.195,1.908,15.865,15.865,0,0,0,1.658,1.772c.6.578,1.208,1.136,1.739,1.731a8.747,8.747,0,0,1,1.316,1.887,8.608,8.608,0,0,1,.936,3.754,8.145,8.145,0,0,1-.35,2.587,5.445,5.445,0,0,1-.245.667A.973.973,0,0,1,191.44,234.952Z" transform="translate(-183.968 -213.252)" fill="#455a64"/>
      </g>
      <g id="Grupo_128065" data-name="Grupo 128065" transform="translate(13.48 9.304)">
        <path id="Trazado_172484" data-name="Trazado 172484" d="M90.919,190.5a1.342,1.342,0,0,1,.057-.444,4.35,4.35,0,0,1,.445-1.139,4.838,4.838,0,0,1,7.034-1.682,4.343,4.343,0,0,1,.912.814,1.354,1.354,0,0,1,.252.369,8.159,8.159,0,0,0-1.255-1.044,4.815,4.815,0,0,0-6.8,1.626A8.094,8.094,0,0,0,90.919,190.5Z" transform="translate(-90.913 -186.372)" fill="#455a64"/>
      </g>
      <g id="Grupo_128066" data-name="Grupo 128066" transform="translate(17.862 11.324)">
        <path id="Trazado_172485" data-name="Trazado 172485" d="M100.6,194.847a3.709,3.709,0,0,1,.126-1.028,4.533,4.533,0,0,1,1.07-2.27,2.4,2.4,0,0,1,2.4-.608,1.408,1.408,0,0,1,.642.439c.114.145.148.242.138.248a2.114,2.114,0,0,0-.83-.528,2.327,2.327,0,0,0-2.18.613,4.887,4.887,0,0,0-1.077,2.144A5.764,5.764,0,0,1,100.6,194.847Z" transform="translate(-100.593 -190.834)" fill="#455a64"/>
      </g>
      <g id="Grupo_128067" data-name="Grupo 128067" transform="translate(21.779 8.704)">
        <path id="Trazado_172486" data-name="Trazado 172486" d="M111.088,185.048a12.316,12.316,0,0,0-1.8,5.134,7.122,7.122,0,0,1,1.8-5.134Z" transform="translate(-109.245 -185.047)" fill="#e83737"/>
      </g>
    </g>
    <g id="Grupo_128079" data-name="Grupo 128079" transform="translate(126.136 103.775)">
      <g id="Grupo_128075" data-name="Grupo 128075" transform="translate(9.473 15.055)">
        <g id="Grupo_128070" data-name="Grupo 128070" transform="translate(11.452 0)">
          <g id="Grupo_128069" data-name="Grupo 128069">
            <path id="Trazado_172487" data-name="Trazado 172487" d="M273.3,207.724a1.409,1.409,0,1,0,1.409-1.409A1.409,1.409,0,0,0,273.3,207.724Z" transform="translate(-273.298 -206.315)" fill="#455a64"/>
          </g>
        </g>
        <g id="Grupo_128072" data-name="Grupo 128072" transform="translate(5.813 0)">
          <g id="Grupo_128071" data-name="Grupo 128071">
            <circle id="Elipse_5112" data-name="Elipse 5112" cx="1.409" cy="1.409" r="1.409" fill="#455a64"/>
          </g>
        </g>
        <g id="Grupo_128074" data-name="Grupo 128074">
          <g id="Grupo_128073" data-name="Grupo 128073">
            <path id="Trazado_172488" data-name="Trazado 172488" d="M248.191,207.019a1.409,1.409,0,1,0,1.925-.516A1.409,1.409,0,0,0,248.191,207.019Z" transform="translate(-248.002 -206.315)" fill="#455a64"/>
          </g>
        </g>
      </g>
      <g id="Grupo_128078" data-name="Grupo 128078">
        <g id="Grupo_128077" data-name="Grupo 128077">
          <g id="Grupo_128076" data-name="Grupo 128076">
            <path id="Trazado_172489" data-name="Trazado 172489" d="M243.686,173.068a1.575,1.575,0,0,0-.285,0l-.838.024c-.184.009-.391.008-.617.027l-.738.1-.862.124-.963.239a15.606,15.606,0,0,0-4.667,2.035A16.473,16.473,0,0,0,227.15,188a17.069,17.069,0,0,0-.045,2.257c.027.382.019.77.075,1.154l.175,1.163a16.54,16.54,0,0,0,1.568,4.592,17.691,17.691,0,0,0,3,4.128,17.345,17.345,0,0,0,4.322,3.1,15.7,15.7,0,0,0,5.268,1.617,10.439,10.439,0,0,0,1.4.12,12.583,12.583,0,0,0,1.42.026,16.873,16.873,0,0,0,2.845-.359,16.629,16.629,0,0,0,5.664-2.384l-.172.017,5.769,2.316.341.137-.1-.355-1.7-6.168-.029.152a16.551,16.551,0,0,0,3.079-7.048,14.973,14.973,0,0,0,.224-3.611,11.571,11.571,0,0,0-.163-1.734q-.066-.425-.131-.844c-.052-.278-.136-.546-.2-.817a16.5,16.5,0,0,0-6.437-9.383,15.776,15.776,0,0,0-3.831-2.021l-.863-.309-.819-.208-.749-.186c-.24-.046-.473-.071-.69-.1-.436-.055-.819-.131-1.155-.147l-.848-.029-.518-.012a.769.769,0,0,0-.175.006.8.8,0,0,0,.175.024l.515.041.843.057c.333.026.713.11,1.145.174a16.407,16.407,0,0,1,13.118,12.169c.063.266.145.53.194.8s.082.551.125.829a11.339,11.339,0,0,1,.153,1.7,14.717,14.717,0,0,1-.234,3.54,16.254,16.254,0,0,1-3.036,6.894l-.052.069.023.083,1.683,6.171.244-.217-5.767-2.322-.09-.037-.082.054a16.288,16.288,0,0,1-5.537,2.328,16.53,16.53,0,0,1-2.781.352,12.351,12.351,0,0,1-1.389-.025,10.211,10.211,0,0,1-1.374-.116,15.379,15.379,0,0,1-5.152-1.576,17.028,17.028,0,0,1-4.233-3.03A17.394,17.394,0,0,1,229.229,197a16.283,16.283,0,0,1-1.551-4.494q-.088-.573-.176-1.139c-.057-.377-.05-.758-.078-1.132a16.048,16.048,0,0,1,2.684-9.775,16.641,16.641,0,0,1,4.721-4.672,15.7,15.7,0,0,1,4.592-2.07l.951-.253.853-.14.732-.121c.225-.025.43-.031.613-.045l.833-.061A1.6,1.6,0,0,0,243.686,173.068Z" transform="translate(-227.078 -173.062)" fill="#455a64"/>
          </g>
        </g>
      </g>
    </g>
  </g>
</svg>
