<svg xmlns="http://www.w3.org/2000/svg" xmlns:xlink="http://www.w3.org/1999/xlink" width="365.099" height="380.11" viewBox="0 0 365.099 380.11">
  <defs>
    <clipPath id="clip-path">
      <path id="Trazado_165434" data-name="Trazado 165434" d="M0,2.411A2.41,2.41,0,1,0,2.409,0,2.409,2.409,0,0,0,0,2.411" fill="#2efec7"/>
    </clipPath>
    <clipPath id="clip-path-2">
      <path id="Trazado_165436" data-name="Trazado 165436" d="M0,2.41A2.41,2.41,0,1,0,2.41,0h0A2.412,2.412,0,0,0,0,2.41" fill="#2efec7"/>
    </clipPath>
    <clipPath id="clip-path-3">
      <path id="Trazado_165438" data-name="Trazado 165438" d="M2.409,0a2.409,2.409,0,1,0,2.41,2.41A2.409,2.409,0,0,0,2.409,0Z" fill="#2efec7"/>
    </clipPath>
    <clipPath id="clip-path-4">
      <path id="Trazado_165440" data-name="Trazado 165440" d="M0,2.411A2.409,2.409,0,1,0,2.409,0,2.41,2.41,0,0,0,0,2.411" fill="#2efec7"/>
    </clipPath>
    <clipPath id="clip-path-5">
      <path id="Trazado_165442" data-name="Trazado 165442" d="M0,2.41A2.409,2.409,0,1,0,2.409,0,2.409,2.409,0,0,0,0,2.41" fill="#2efec7"/>
    </clipPath>
    <clipPath id="clip-path-6">
      <path id="Trazado_165444" data-name="Trazado 165444" d="M2.408,0a2.409,2.409,0,1,0,2.41,2.41A2.408,2.408,0,0,0,2.408,0Z" fill="#2efec7"/>
    </clipPath>
    <clipPath id="clip-path-7">
      <path id="Trazado_165446" data-name="Trazado 165446" d="M0,2.411A2.41,2.41,0,1,0,2.409,0,2.41,2.41,0,0,0,0,2.411" fill="#2efec7"/>
    </clipPath>
    <clipPath id="clip-path-9">
      <path id="Trazado_165450" data-name="Trazado 165450" d="M2.408,0a2.409,2.409,0,1,0,2.41,2.41A2.409,2.409,0,0,0,2.408,0Z" fill="#2efec7"/>
    </clipPath>
    <clipPath id="clip-path-10">
      <path id="Trazado_165452" data-name="Trazado 165452" d="M0,2.411A2.409,2.409,0,1,0,2.409,0,2.409,2.409,0,0,0,0,2.411" fill="#2efec7"/>
    </clipPath>
  </defs>
  <g id="Grupo_128089" data-name="Grupo 128089" transform="translate(-9146.901 10828)">
    <g id="Grupo_113880" data-name="Grupo 113880" transform="translate(18252.902 -3003.698)">
      <g id="Rectángulo_45283" data-name="Rectángulo 45283" transform="translate(-9105.902 -7806.302)" fill="#fff" stroke="#ffb476" stroke-width="1">
        <rect width="365" height="329" rx="10" stroke="none"/>
        <rect x="0.5" y="0.5" width="364" height="328" rx="9.5" fill="none"/>
      </g>
      <rect id="Rectángulo_37181" data-name="Rectángulo 37181" width="37.283" height="79.589" rx="18.642" transform="translate(-9049.723 -7526.833) rotate(45)" fill="#ff6148"/>
      <rect id="Rectángulo_37182" data-name="Rectángulo 37182" width="21.848" height="45.778" rx="10.924" transform="translate(-8768.526 -7824.302) rotate(45)" fill="#ffb476"/>
      <g id="Grupo_110632" data-name="Grupo 110632" transform="translate(-8803.767 -7453.928) rotate(-90)">
        <g id="Group_881454" data-name="Group 881454" transform="translate(0 39.156)">
          <g id="Grupo_108438" data-name="Grupo 108438">
            <path id="Trazado_165433" data-name="Trazado 165433" d="M0,2.411A2.41,2.41,0,1,0,2.409,0,2.409,2.409,0,0,0,0,2.411" fill="#2efec7"/>
            <g id="Grupo_108437" data-name="Grupo 108437" clip-path="url(#clip-path)">
              <g id="Group_881453" data-name="Group 881453" transform="translate(0 0)">
                <rect id="Rectangle_298909" data-name="Rectangle 298909" width="4.818" height="4.818" fill="#2efec7"/>
              </g>
            </g>
          </g>
        </g>
        <g id="Group_881456" data-name="Group 881456" transform="translate(0 20.38)">
          <g id="Grupo_108440" data-name="Grupo 108440">
            <path id="Trazado_165435" data-name="Trazado 165435" d="M0,2.41A2.41,2.41,0,1,0,2.41,0h0A2.412,2.412,0,0,0,0,2.41" fill="#2efec7"/>
            <g id="Grupo_108439" data-name="Grupo 108439" clip-path="url(#clip-path-2)">
              <g id="Group_881455" data-name="Group 881455" transform="translate(0 0)">
                <rect id="Rectangle_298910" data-name="Rectangle 298910" width="4.818" height="4.818" fill="#2efec7"/>
              </g>
            </g>
          </g>
        </g>
        <g id="Group_881458" data-name="Group 881458" transform="translate(0.001 0)">
          <g id="Grupo_108442" data-name="Grupo 108442">
            <path id="Trazado_165437" data-name="Trazado 165437" d="M2.409,0a2.409,2.409,0,1,0,2.41,2.41A2.409,2.409,0,0,0,2.409,0Z" fill="#2efec7"/>
            <g id="Grupo_108441" data-name="Grupo 108441" clip-path="url(#clip-path-3)">
              <g id="Group_881457" data-name="Group 881457" transform="translate(-0.001 0.001)">
                <rect id="Rectangle_298911" data-name="Rectangle 298911" width="4.818" height="4.818" fill="#2efec7"/>
              </g>
            </g>
          </g>
        </g>
        <g id="Group_881460" data-name="Group 881460" transform="translate(16.33 39.156)">
          <g id="Grupo_108444" data-name="Grupo 108444">
            <path id="Trazado_165439" data-name="Trazado 165439" d="M0,2.411A2.409,2.409,0,1,0,2.409,0,2.41,2.41,0,0,0,0,2.411" fill="#2efec7"/>
            <g id="Grupo_108443" data-name="Grupo 108443" clip-path="url(#clip-path-4)">
              <g id="Group_881459" data-name="Group 881459" transform="translate(0 0)">
                <rect id="Rectangle_298912" data-name="Rectangle 298912" width="4.818" height="4.818" fill="#2efec7"/>
              </g>
            </g>
          </g>
        </g>
        <g id="Group_881462" data-name="Group 881462" transform="translate(16.33 20.38)">
          <g id="Grupo_108446" data-name="Grupo 108446">
            <path id="Trazado_165441" data-name="Trazado 165441" d="M0,2.41A2.409,2.409,0,1,0,2.409,0,2.409,2.409,0,0,0,0,2.41" fill="#2efec7"/>
            <g id="Grupo_108445" data-name="Grupo 108445" clip-path="url(#clip-path-5)">
              <g id="Group_881461" data-name="Group 881461" transform="translate(0 0)">
                <rect id="Rectangle_298913" data-name="Rectangle 298913" width="4.818" height="4.818" fill="#2efec7"/>
              </g>
            </g>
          </g>
        </g>
        <g id="Group_881464" data-name="Group 881464" transform="translate(16.331 0)">
          <g id="Grupo_108448" data-name="Grupo 108448" transform="translate(0)">
            <path id="Trazado_165443" data-name="Trazado 165443" d="M2.408,0a2.409,2.409,0,1,0,2.41,2.41A2.408,2.408,0,0,0,2.408,0Z" fill="#2efec7"/>
            <g id="Grupo_108447" data-name="Grupo 108447" clip-path="url(#clip-path-6)">
              <g id="Group_881463" data-name="Group 881463" transform="translate(-0.001 0.001)">
                <rect id="Rectangle_298914" data-name="Rectangle 298914" width="4.818" height="4.818" fill="#2efec7"/>
              </g>
            </g>
          </g>
        </g>
        <g id="Group_881454-2" data-name="Group 881454" transform="translate(33.365 39.156)">
          <g id="Grupo_108450" data-name="Grupo 108450">
            <path id="Trazado_165445" data-name="Trazado 165445" d="M0,2.411A2.41,2.41,0,1,0,2.409,0,2.41,2.41,0,0,0,0,2.411" fill="#2efec7"/>
            <g id="Grupo_108449" data-name="Grupo 108449" clip-path="url(#clip-path-7)">
              <g id="Group_881453-2" data-name="Group 881453" transform="translate(0 0)">
                <rect id="Rectangle_298909-2" data-name="Rectangle 298909" width="4.818" height="4.818" fill="#2efec7"/>
              </g>
            </g>
          </g>
        </g>
        <g id="Group_881456-2" data-name="Group 881456" transform="translate(33.365 20.38)">
          <g id="Grupo_108452" data-name="Grupo 108452">
            <path id="Trazado_165447" data-name="Trazado 165447" d="M0,2.41A2.41,2.41,0,1,0,2.41,0h0A2.412,2.412,0,0,0,0,2.41" fill="#2efec7"/>
            <g id="Grupo_108451" data-name="Grupo 108451" clip-path="url(#clip-path-2)">
              <g id="Group_881455-2" data-name="Group 881455" transform="translate(0 0)">
                <rect id="Rectangle_298910-2" data-name="Rectangle 298910" width="4.818" height="4.818" fill="#2efec7"/>
              </g>
            </g>
          </g>
        </g>
        <g id="Group_881458-2" data-name="Group 881458" transform="translate(33.366 0)">
          <g id="Grupo_108454" data-name="Grupo 108454" transform="translate(0)">
            <path id="Trazado_165449" data-name="Trazado 165449" d="M2.408,0a2.409,2.409,0,1,0,2.41,2.41A2.409,2.409,0,0,0,2.408,0Z" fill="#2efec7"/>
            <g id="Grupo_108453" data-name="Grupo 108453" clip-path="url(#clip-path-9)">
              <g id="Group_881457-2" data-name="Group 881457" transform="translate(-0.001 0.001)">
                <rect id="Rectangle_298911-2" data-name="Rectangle 298911" width="4.818" height="4.818" fill="#2efec7"/>
              </g>
            </g>
          </g>
        </g>
        <g id="Group_881460-2" data-name="Group 881460" transform="translate(49.695 39.156)">
          <g id="Grupo_108456" data-name="Grupo 108456">
            <path id="Trazado_165451" data-name="Trazado 165451" d="M0,2.411A2.409,2.409,0,1,0,2.409,0,2.409,2.409,0,0,0,0,2.411" fill="#2efec7"/>
            <g id="Grupo_108455" data-name="Grupo 108455" clip-path="url(#clip-path-10)">
              <g id="Group_881459-2" data-name="Group 881459" transform="translate(0 0)">
                <rect id="Rectangle_298912-2" data-name="Rectangle 298912" width="4.818" height="4.818" fill="#2efec7"/>
              </g>
            </g>
          </g>
        </g>
        <g id="Group_881462-2" data-name="Group 881462" transform="translate(49.695 20.38)">
          <g id="Grupo_108458" data-name="Grupo 108458">
            <path id="Trazado_165453" data-name="Trazado 165453" d="M0,2.41A2.409,2.409,0,1,0,2.409,0,2.409,2.409,0,0,0,0,2.41" fill="#2efec7"/>
            <g id="Grupo_108457" data-name="Grupo 108457" clip-path="url(#clip-path-5)">
              <g id="Group_881461-2" data-name="Group 881461" transform="translate(0 0)">
                <rect id="Rectangle_298913-2" data-name="Rectangle 298913" width="4.818" height="4.818" fill="#2efec7"/>
              </g>
            </g>
          </g>
        </g>
        <g id="Group_881464-2" data-name="Group 881464" transform="translate(49.696 0)">
          <g id="Grupo_108460" data-name="Grupo 108460" transform="translate(0)">
            <path id="Trazado_165455" data-name="Trazado 165455" d="M2.408,0a2.409,2.409,0,1,0,2.41,2.41A2.409,2.409,0,0,0,2.408,0Z" fill="#2efec7"/>
            <g id="Grupo_108459" data-name="Grupo 108459" clip-path="url(#clip-path-9)">
              <g id="Group_881463-2" data-name="Group 881463" transform="translate(-0.001 0.001)">
                <rect id="Rectangle_298914-2" data-name="Rectangle 298914" width="4.818" height="4.818" fill="#2efec7"/>
              </g>
            </g>
          </g>
        </g>
      </g>
    </g>
    <path id="Trazado_172610" data-name="Trazado 172610" d="M12.352,18.8a7.592,7.592,0,0,1-1.324,4.664,4.244,4.244,0,0,1-3.586,1.77A4.65,4.65,0,0,1,3.809,23.77v6.105H1.641V12.32h1.98l.105,1.406a4.466,4.466,0,0,1,3.68-1.641,4.324,4.324,0,0,1,3.615,1.723,7.675,7.675,0,0,1,1.33,4.793Zm-2.168-.246a5.6,5.6,0,0,0-.914-3.387,2.945,2.945,0,0,0-2.508-1.242,3.187,3.187,0,0,0-2.953,1.746V21.73a3.193,3.193,0,0,0,2.977,1.734,2.931,2.931,0,0,0,2.479-1.236A6.115,6.115,0,0,0,10.184,18.555ZM22.934,25a4.554,4.554,0,0,1-.3-1.336,4.837,4.837,0,0,1-3.609,1.57,4.476,4.476,0,0,1-3.076-1.061,3.431,3.431,0,0,1-1.2-2.689,3.584,3.584,0,0,1,1.506-3.076,7.1,7.1,0,0,1,4.236-1.1h2.109v-1a2.435,2.435,0,0,0-.68-1.811,2.732,2.732,0,0,0-2-.674,3.161,3.161,0,0,0-1.945.586,1.727,1.727,0,0,0-.785,1.418H15A2.992,2.992,0,0,1,15.674,14,4.6,4.6,0,0,1,17.5,12.6a6.15,6.15,0,0,1,2.537-.516,5.013,5.013,0,0,1,3.434,1.1A3.953,3.953,0,0,1,24.762,16.2v5.836a7.135,7.135,0,0,0,.445,2.777V25Zm-3.6-1.652a3.81,3.81,0,0,0,1.934-.527,3.19,3.19,0,0,0,1.324-1.371v-2.6h-1.7q-3.984,0-3.984,2.332a1.974,1.974,0,0,0,.68,1.594A2.612,2.612,0,0,0,19.336,23.348Zm13.91.117a3.123,3.123,0,0,0,2.027-.7A2.474,2.474,0,0,0,36.234,21h2.051a3.931,3.931,0,0,1-.75,2.074,4.94,4.94,0,0,1-1.846,1.57,5.326,5.326,0,0,1-2.443.586,5.223,5.223,0,0,1-4.119-1.729A6.884,6.884,0,0,1,27.6,18.777v-.363a7.634,7.634,0,0,1,.68-3.293,5.177,5.177,0,0,1,1.951-2.238,5.543,5.543,0,0,1,3.006-.8,5.085,5.085,0,0,1,3.545,1.277,4.565,4.565,0,0,1,1.506,3.316H36.234a2.988,2.988,0,0,0-.932-2.021,2.9,2.9,0,0,0-2.068-.791,3.034,3.034,0,0,0-2.561,1.189,5.586,5.586,0,0,0-.908,3.439v.41a5.475,5.475,0,0,0,.9,3.375A3.049,3.049,0,0,0,33.246,23.465Zm11.016-4.336L42.9,20.547V25H40.734V7H42.9V17.887l1.16-1.395,3.949-4.172h2.637l-4.934,5.3L51.223,25H48.68ZM60.715,25a4.554,4.554,0,0,1-.3-1.336,4.837,4.837,0,0,1-3.609,1.57,4.476,4.476,0,0,1-3.076-1.061,3.431,3.431,0,0,1-1.2-2.689,3.584,3.584,0,0,1,1.506-3.076,7.1,7.1,0,0,1,4.236-1.1h2.109v-1a2.435,2.435,0,0,0-.68-1.811,2.732,2.732,0,0,0-2-.674,3.161,3.161,0,0,0-1.945.586,1.727,1.727,0,0,0-.785,1.418h-2.18A2.992,2.992,0,0,1,53.455,14a4.6,4.6,0,0,1,1.828-1.4,6.15,6.15,0,0,1,2.537-.516,5.013,5.013,0,0,1,3.434,1.1A3.953,3.953,0,0,1,62.543,16.2v5.836a7.135,7.135,0,0,0,.445,2.777V25Zm-3.6-1.652a3.81,3.81,0,0,0,1.934-.527,3.19,3.19,0,0,0,1.324-1.371v-2.6h-1.7q-3.984,0-3.984,2.332a1.974,1.974,0,0,0,.68,1.594A2.612,2.612,0,0,0,57.117,23.348Zm8.309-4.793A7.452,7.452,0,0,1,66.8,13.838a4.727,4.727,0,0,1,7.254-.111l.105-1.406h1.98V24.7a5.158,5.158,0,0,1-1.459,3.879,5.384,5.384,0,0,1-3.92,1.418,6.521,6.521,0,0,1-2.684-.586,4.62,4.62,0,0,1-2-1.605L67.2,26.5a4.239,4.239,0,0,0,3.41,1.723,3.322,3.322,0,0,0,2.467-.891,3.4,3.4,0,0,0,.885-2.508v-1.09a4.456,4.456,0,0,1-3.551,1.5,4.331,4.331,0,0,1-3.6-1.793A7.835,7.835,0,0,1,65.426,18.555Zm2.18.246a5.685,5.685,0,0,0,.879,3.369,2.856,2.856,0,0,0,2.461,1.225,3.176,3.176,0,0,0,3.012-1.863V15.742a3.213,3.213,0,0,0-2.988-1.816,2.882,2.882,0,0,0-2.473,1.23A6.192,6.192,0,0,0,67.605,18.8Zm17.063,6.434a5.54,5.54,0,0,1-4.2-1.693,6.285,6.285,0,0,1-1.617-4.529v-.4a7.609,7.609,0,0,1,.721-3.369,5.622,5.622,0,0,1,2.016-2.32,5.068,5.068,0,0,1,2.807-.838,4.749,4.749,0,0,1,3.844,1.629,7.053,7.053,0,0,1,1.371,4.664v.9h-8.59a4.507,4.507,0,0,0,1.1,3.029,3.444,3.444,0,0,0,2.666,1.154A3.776,3.776,0,0,0,86.73,23a4.888,4.888,0,0,0,1.395-1.242l1.324,1.031A5.325,5.325,0,0,1,84.668,25.234ZM84.4,13.867a2.892,2.892,0,0,0-2.2.955,4.642,4.642,0,0,0-1.1,2.678h6.352v-.164a4.129,4.129,0,0,0-.891-2.561A2.723,2.723,0,0,0,84.4,13.867ZM108.773,18.8a7.592,7.592,0,0,1-1.324,4.664,4.244,4.244,0,0,1-3.586,1.77,4.65,4.65,0,0,1-3.633-1.465v6.105H98.063V12.32h1.98l.105,1.406a4.466,4.466,0,0,1,3.68-1.641,4.324,4.324,0,0,1,3.615,1.723,7.675,7.675,0,0,1,1.33,4.793Zm-2.168-.246a5.6,5.6,0,0,0-.914-3.387,2.945,2.945,0,0,0-2.508-1.242,3.187,3.187,0,0,0-2.953,1.746V21.73a3.193,3.193,0,0,0,2.977,1.734,2.931,2.931,0,0,0,2.479-1.236A6.115,6.115,0,0,0,106.605,18.555ZM119.355,25a4.554,4.554,0,0,1-.3-1.336,4.837,4.837,0,0,1-3.609,1.57,4.476,4.476,0,0,1-3.076-1.061,3.431,3.431,0,0,1-1.2-2.689,3.584,3.584,0,0,1,1.506-3.076,7.1,7.1,0,0,1,4.236-1.1h2.109v-1a2.435,2.435,0,0,0-.68-1.811,2.732,2.732,0,0,0-2-.674,3.161,3.161,0,0,0-1.945.586,1.727,1.727,0,0,0-.785,1.418h-2.18A2.992,2.992,0,0,1,112.1,14a4.6,4.6,0,0,1,1.828-1.4,6.15,6.15,0,0,1,2.537-.516,5.013,5.013,0,0,1,3.434,1.1,3.953,3.953,0,0,1,1.289,3.018v5.836a7.135,7.135,0,0,0,.445,2.777V25Zm-3.6-1.652a3.81,3.81,0,0,0,1.934-.527,3.19,3.19,0,0,0,1.324-1.371v-2.6h-1.7q-3.984,0-3.984,2.332a1.974,1.974,0,0,0,.68,1.594A2.612,2.612,0,0,0,115.758,23.348Zm8.3-4.793a7.442,7.442,0,0,1,1.371-4.729,4.839,4.839,0,0,1,7.23-.229l.094-1.277h1.992V29.875h-2.168V23.828a4.55,4.55,0,0,1-3.492,1.406,4.373,4.373,0,0,1-3.662-1.787,7.608,7.608,0,0,1-1.365-4.74Zm2.168.246a5.642,5.642,0,0,0,.92,3.422,2.926,2.926,0,0,0,2.479,1.242,3.246,3.246,0,0,0,2.953-1.711V15.543a3.257,3.257,0,0,0-2.93-1.676,2.948,2.948,0,0,0-2.5,1.248A6.141,6.141,0,0,0,126.223,18.8Zm19.828,4.945a4.6,4.6,0,0,1-3.715,1.488,3.942,3.942,0,0,1-3.088-1.178,5.1,5.1,0,0,1-1.072-3.486V12.32h2.168v8.191q0,2.883,2.344,2.883a3.245,3.245,0,0,0,3.3-1.852V12.32h2.168V25H146.1Zm10.664,1.488a5.54,5.54,0,0,1-4.2-1.693,6.285,6.285,0,0,1-1.617-4.529v-.4a7.609,7.609,0,0,1,.721-3.369,5.622,5.622,0,0,1,2.016-2.32,5.068,5.068,0,0,1,2.807-.838,4.749,4.749,0,0,1,3.844,1.629,7.053,7.053,0,0,1,1.371,4.664v.9h-8.59a4.507,4.507,0,0,0,1.1,3.029,3.444,3.444,0,0,0,2.666,1.154A3.776,3.776,0,0,0,158.777,23a4.888,4.888,0,0,0,1.395-1.242l1.324,1.031A5.325,5.325,0,0,1,156.715,25.234Zm-.27-11.367a2.892,2.892,0,0,0-2.2.955,4.642,4.642,0,0,0-1.1,2.678h6.352v-.164a4.129,4.129,0,0,0-.891-2.561A2.723,2.723,0,0,0,156.445,13.867ZM167.109,9.25v3.07h2.367V14h-2.367v7.873a1.76,1.76,0,0,0,.316,1.144,1.332,1.332,0,0,0,1.078.381,5.249,5.249,0,0,0,1.031-.141V25a6.322,6.322,0,0,1-1.664.233,2.7,2.7,0,0,1-2.191-.879,3.776,3.776,0,0,1-.738-2.5V14h-2.309V12.32h2.309V9.25Zm10.16,15.984a5.54,5.54,0,0,1-4.2-1.693,6.285,6.285,0,0,1-1.617-4.529v-.4a7.609,7.609,0,0,1,.721-3.369,5.622,5.622,0,0,1,2.016-2.32A5.068,5.068,0,0,1,177,12.086a4.749,4.749,0,0,1,3.844,1.629,7.053,7.053,0,0,1,1.371,4.664v.9h-8.59a4.507,4.507,0,0,0,1.1,3.029,3.444,3.444,0,0,0,2.666,1.154A3.776,3.776,0,0,0,179.332,23a4.888,4.888,0,0,0,1.395-1.242l1.324,1.031A5.325,5.325,0,0,1,177.27,25.234ZM177,13.867a2.892,2.892,0,0,0-2.2.955,4.642,4.642,0,0,0-1.1,2.678h6.352v-.164a4.129,4.129,0,0,0-.891-2.561A2.723,2.723,0,0,0,177,13.867Zm7.383-.352a1.358,1.358,0,0,1,.334-.937,1.273,1.273,0,0,1,1-.375,1.311,1.311,0,0,1,1.014.375,1.33,1.33,0,0,1,.346.938,1.258,1.258,0,0,1-.346.9,1.334,1.334,0,0,1-1.014.363,1.205,1.205,0,0,1-1.336-1.266Zm.41,14.883-1.23-.844a5.655,5.655,0,0,0,1.148-3.164V22.434h2.121v1.7a5.338,5.338,0,0,1-.58,2.367A5.542,5.542,0,0,1,184.793,28.4ZM12.352,49.8a7.592,7.592,0,0,1-1.324,4.664,4.244,4.244,0,0,1-3.586,1.77A4.65,4.65,0,0,1,3.809,54.77v6.105H1.641V43.32h1.98l.105,1.406a4.466,4.466,0,0,1,3.68-1.641,4.324,4.324,0,0,1,3.615,1.723,7.675,7.675,0,0,1,1.33,4.793Zm-2.168-.246a5.6,5.6,0,0,0-.914-3.387,2.945,2.945,0,0,0-2.508-1.242,3.187,3.187,0,0,0-2.953,1.746V52.73a3.193,3.193,0,0,0,2.977,1.734,2.931,2.931,0,0,0,2.479-1.236A6.115,6.115,0,0,0,10.184,49.555Zm12.75,5.191a4.6,4.6,0,0,1-3.715,1.488,3.942,3.942,0,0,1-3.088-1.178,5.1,5.1,0,0,1-1.072-3.486V43.32h2.168v8.191q0,2.883,2.344,2.883a3.245,3.245,0,0,0,3.3-1.852V43.32h2.168V56H22.98ZM39.07,49.8a7.539,7.539,0,0,1-1.336,4.67,4.269,4.269,0,0,1-3.586,1.764,4.42,4.42,0,0,1-3.715-1.7L30.328,56H28.336V38H30.5v6.715a4.4,4.4,0,0,1,3.621-1.629,4.3,4.3,0,0,1,3.627,1.746,7.766,7.766,0,0,1,1.318,4.781ZM36.9,49.555a5.858,5.858,0,0,0-.855-3.422,2.832,2.832,0,0,0-2.461-1.207A3.183,3.183,0,0,0,30.5,46.918V52.4a3.272,3.272,0,0,0,3.105,1.992,2.816,2.816,0,0,0,2.426-1.207A6.23,6.23,0,0,0,36.9,49.555ZM44.156,56H41.988V38h2.168Zm5.824,0H47.813V43.32H49.98ZM47.637,39.957a1.294,1.294,0,0,1,.322-.891,1.21,1.21,0,0,1,.955-.363,1.229,1.229,0,0,1,.961.363,1.28,1.28,0,0,1,.328.891,1.238,1.238,0,0,1-.328.879,1.251,1.251,0,0,1-.961.352,1.232,1.232,0,0,1-.955-.352A1.251,1.251,0,0,1,47.637,39.957Zm10.9,14.508a3.123,3.123,0,0,0,2.027-.7A2.474,2.474,0,0,0,61.523,52h2.051a3.931,3.931,0,0,1-.75,2.074,4.94,4.94,0,0,1-1.846,1.57,5.326,5.326,0,0,1-2.443.586,5.223,5.223,0,0,1-4.119-1.729,6.884,6.884,0,0,1-1.529-4.729v-.363a7.634,7.634,0,0,1,.68-3.293,5.177,5.177,0,0,1,1.951-2.238,5.543,5.543,0,0,1,3.006-.8,5.085,5.085,0,0,1,3.545,1.277,4.565,4.565,0,0,1,1.506,3.316H61.523a2.988,2.988,0,0,0-.932-2.021,2.9,2.9,0,0,0-2.068-.791,3.034,3.034,0,0,0-2.561,1.189,5.586,5.586,0,0,0-.908,3.439v.41a5.475,5.475,0,0,0,.9,3.375A3.049,3.049,0,0,0,58.535,54.465Zm18.5,0a3.123,3.123,0,0,0,2.027-.7A2.474,2.474,0,0,0,80.027,52h2.051a3.931,3.931,0,0,1-.75,2.074,4.94,4.94,0,0,1-1.846,1.57,5.326,5.326,0,0,1-2.443.586,5.223,5.223,0,0,1-4.119-1.729,6.884,6.884,0,0,1-1.529-4.729v-.363a7.634,7.634,0,0,1,.68-3.293,5.177,5.177,0,0,1,1.951-2.238,5.543,5.543,0,0,1,3.006-.8,5.085,5.085,0,0,1,3.545,1.277,4.565,4.565,0,0,1,1.506,3.316H80.027a2.988,2.988,0,0,0-.932-2.021,2.9,2.9,0,0,0-2.068-.791,3.034,3.034,0,0,0-2.561,1.189,5.586,5.586,0,0,0-.908,3.439v.41a5.475,5.475,0,0,0,.9,3.375A3.049,3.049,0,0,0,77.039,54.465ZM86.871,56H84.7V38h2.168Zm11.3,0a4.554,4.554,0,0,1-.3-1.336,4.837,4.837,0,0,1-3.609,1.57,4.476,4.476,0,0,1-3.076-1.061,3.431,3.431,0,0,1-1.2-2.689,3.584,3.584,0,0,1,1.506-3.076,7.1,7.1,0,0,1,4.236-1.1h2.109v-1a2.435,2.435,0,0,0-.68-1.811,2.732,2.732,0,0,0-2-.674,3.161,3.161,0,0,0-1.945.586,1.727,1.727,0,0,0-.785,1.418h-2.18A2.992,2.992,0,0,1,90.908,45a4.6,4.6,0,0,1,1.828-1.4,6.15,6.15,0,0,1,2.537-.516,5.013,5.013,0,0,1,3.434,1.1A3.953,3.953,0,0,1,100,47.2v5.836a7.135,7.135,0,0,0,.445,2.777V56Zm-3.6-1.652A3.81,3.81,0,0,0,96.5,53.82a3.19,3.19,0,0,0,1.324-1.371v-2.6h-1.7q-3.984,0-3.984,2.332a1.974,1.974,0,0,0,.68,1.594A2.612,2.612,0,0,0,94.57,54.348Zm16.207-1.711a1.6,1.6,0,0,0-.662-1.365,6.373,6.373,0,0,0-2.309-.838,10.915,10.915,0,0,1-2.613-.844,3.718,3.718,0,0,1-1.43-1.172A2.8,2.8,0,0,1,103.3,46.8a3.289,3.289,0,0,1,1.318-2.637,5.149,5.149,0,0,1,3.369-1.078,5.3,5.3,0,0,1,3.5,1.113,3.536,3.536,0,0,1,1.342,2.848h-2.18a1.957,1.957,0,0,0-.756-1.535,2.832,2.832,0,0,0-1.9-.645,2.964,2.964,0,0,0-1.852.516,1.623,1.623,0,0,0-.668,1.348,1.315,1.315,0,0,0,.621,1.184,7.642,7.642,0,0,0,2.244.762,11.693,11.693,0,0,1,2.631.867,3.838,3.838,0,0,1,1.494,1.213,2.982,2.982,0,0,1,.486,1.729,3.245,3.245,0,0,1-1.359,2.725,5.7,5.7,0,0,1-3.527,1.025,6.385,6.385,0,0,1-2.7-.539,4.384,4.384,0,0,1-1.834-1.506,3.629,3.629,0,0,1-.662-2.092h2.168a2.245,2.245,0,0,0,.873,1.729,3.387,3.387,0,0,0,2.15.639,3.5,3.5,0,0,0,1.975-.5A1.53,1.53,0,0,0,110.777,52.637Zm12.375,0a1.6,1.6,0,0,0-.662-1.365,6.373,6.373,0,0,0-2.309-.838,10.915,10.915,0,0,1-2.613-.844,3.718,3.718,0,0,1-1.43-1.172,2.8,2.8,0,0,1-.463-1.617,3.289,3.289,0,0,1,1.318-2.637,5.149,5.149,0,0,1,3.369-1.078,5.3,5.3,0,0,1,3.5,1.113,3.536,3.536,0,0,1,1.342,2.848h-2.18a1.957,1.957,0,0,0-.756-1.535,2.832,2.832,0,0,0-1.9-.645,2.964,2.964,0,0,0-1.852.516,1.623,1.623,0,0,0-.668,1.348,1.315,1.315,0,0,0,.621,1.184,7.642,7.642,0,0,0,2.244.762,11.693,11.693,0,0,1,2.631.867,3.838,3.838,0,0,1,1.494,1.213,2.982,2.982,0,0,1,.486,1.729,3.245,3.245,0,0,1-1.359,2.725,5.7,5.7,0,0,1-3.527,1.025,6.385,6.385,0,0,1-2.7-.539,4.384,4.384,0,0,1-1.834-1.506,3.629,3.629,0,0,1-.662-2.092h2.168a2.245,2.245,0,0,0,.873,1.729,3.387,3.387,0,0,0,2.15.639,3.5,3.5,0,0,0,1.975-.5A1.53,1.53,0,0,0,123.152,52.637Zm23.824-2.051a6.277,6.277,0,0,1-2,4.178,6.548,6.548,0,0,1-4.471,1.471,6.012,6.012,0,0,1-4.846-2.168,8.722,8.722,0,0,1-1.822-5.8V46.625a9.722,9.722,0,0,1,.85-4.184A6.346,6.346,0,0,1,137.1,39.67a6.705,6.705,0,0,1,3.609-.967,6.165,6.165,0,0,1,4.359,1.518,6.353,6.353,0,0,1,1.91,4.2h-2.262a4.9,4.9,0,0,0-1.271-2.962,3.847,3.847,0,0,0-2.736-.917,4.026,4.026,0,0,0-3.381,1.6,7.323,7.323,0,0,0-1.225,4.539v1.654a7.527,7.527,0,0,0,1.16,4.422,3.749,3.749,0,0,0,3.246,1.642,4.33,4.33,0,0,0,2.877-.85,4.715,4.715,0,0,0,1.33-2.959ZM157.535,56a4.554,4.554,0,0,1-.3-1.336,4.837,4.837,0,0,1-3.609,1.57,4.476,4.476,0,0,1-3.076-1.061,3.431,3.431,0,0,1-1.2-2.689,3.584,3.584,0,0,1,1.506-3.076,7.1,7.1,0,0,1,4.236-1.1H157.2v-1a2.435,2.435,0,0,0-.68-1.811,2.732,2.732,0,0,0-2-.674,3.161,3.161,0,0,0-1.945.586,1.727,1.727,0,0,0-.785,1.418H149.6A2.992,2.992,0,0,1,150.275,45a4.6,4.6,0,0,1,1.828-1.4,6.15,6.15,0,0,1,2.537-.516,5.013,5.013,0,0,1,3.434,1.1,3.953,3.953,0,0,1,1.289,3.018v5.836a7.135,7.135,0,0,0,.445,2.777V56Zm-3.6-1.652a3.81,3.81,0,0,0,1.934-.527,3.19,3.19,0,0,0,1.324-1.371v-2.6h-1.7q-3.984,0-3.984,2.332a1.974,1.974,0,0,0,.68,1.594A2.612,2.612,0,0,0,153.938,54.348Zm14.953-9.082a6.5,6.5,0,0,0-1.066-.082A2.857,2.857,0,0,0,164.93,47v9h-2.168V43.32h2.109l.035,1.465a3.376,3.376,0,0,1,3.023-1.7,2.215,2.215,0,0,1,.961.164Zm8.121,0a6.5,6.5,0,0,0-1.066-.082A2.857,2.857,0,0,0,173.051,47v9h-2.168V43.32h2.109l.035,1.465a3.376,3.376,0,0,1,3.023-1.7,2.215,2.215,0,0,1,.961.164Zm1.184,4.277a7.489,7.489,0,0,1,.732-3.352,5.464,5.464,0,0,1,2.039-2.3,5.551,5.551,0,0,1,2.982-.809,5.347,5.347,0,0,1,4.189,1.793,6.9,6.9,0,0,1,1.6,4.77V49.8a7.555,7.555,0,0,1-.709,3.322A5.383,5.383,0,0,1,187,55.414a5.614,5.614,0,0,1-3.029.82,5.334,5.334,0,0,1-4.178-1.793,6.863,6.863,0,0,1-1.6-4.746Zm2.18.258a5.424,5.424,0,0,0,.979,3.387,3.316,3.316,0,0,0,5.244-.018,5.932,5.932,0,0,0,.973-3.627,5.415,5.415,0,0,0-.99-3.381,3.148,3.148,0,0,0-2.631-1.295,3.113,3.113,0,0,0-2.59,1.277A5.888,5.888,0,0,0,180.375,49.8Zm23.789,10.488a5.824,5.824,0,0,1-3.123-1.928,5.6,5.6,0,0,1-1.049-3.545V52.484q0-2.848-2.484-2.848v-1.7q2.484,0,2.484-2.836V42.664a5.587,5.587,0,0,1,1.049-3.463,5.83,5.83,0,0,1,3.123-1.916l.445,1.348q-2.449.785-2.449,4.09V45.09a3.828,3.828,0,0,1-1.957,3.7,3.875,3.875,0,0,1,1.957,3.738v2.414q.035,3.223,2.449,4ZM.223,89.941Q2.6,89.18,2.684,86.063V83.484A3.69,3.69,0,0,1,4.8,79.793,3.663,3.663,0,0,1,2.684,76.1V73.723q0-3.3-2.449-4.09L.68,68.285a5.858,5.858,0,0,1,3.117,1.9,5.508,5.508,0,0,1,1.055,3.486v2.461q0,2.8,2.484,2.8v1.7q-2.484,0-2.484,2.848v2.367a5.479,5.479,0,0,1-1.061,3.527A5.931,5.931,0,0,1,.68,91.289Z" transform="translate(9222 -10791)" fill="#12263f"/>
    <path id="Trazado_172611" data-name="Trazado 172611" d="M1.113,18.555A7.428,7.428,0,0,1,2.5,13.861a4.373,4.373,0,0,1,3.621-1.775,4.4,4.4,0,0,1,3.527,1.523V7h2.168V25H9.82l-.105-1.359a4.415,4.415,0,0,1-3.621,1.594A4.331,4.331,0,0,1,2.5,23.43a7.512,7.512,0,0,1-1.389-4.711Zm2.168.246a5.624,5.624,0,0,0,.891,3.375,2.879,2.879,0,0,0,2.461,1.219,3.163,3.163,0,0,0,3.012-1.852V15.719a3.187,3.187,0,0,0-2.988-1.793,2.893,2.893,0,0,0-2.484,1.23A6.192,6.192,0,0,0,3.281,18.8Zm11.32-.258a7.489,7.489,0,0,1,.732-3.352,5.464,5.464,0,0,1,2.039-2.3,5.551,5.551,0,0,1,2.982-.809,5.347,5.347,0,0,1,4.189,1.793,6.9,6.9,0,0,1,1.6,4.77V18.8a7.555,7.555,0,0,1-.709,3.322,5.383,5.383,0,0,1-2.027,2.291,5.614,5.614,0,0,1-3.029.82A5.334,5.334,0,0,1,16.2,23.441,6.863,6.863,0,0,1,14.6,18.7Zm2.18.258a5.424,5.424,0,0,0,.979,3.387A3.316,3.316,0,0,0,23,22.17a5.932,5.932,0,0,0,.973-3.627,5.415,5.415,0,0,0-.99-3.381,3.148,3.148,0,0,0-2.631-1.295,3.113,3.113,0,0,0-2.59,1.277A5.888,5.888,0,0,0,16.781,18.8Zm19.91,4.945a4.6,4.6,0,0,1-3.715,1.488,3.942,3.942,0,0,1-3.088-1.178,5.1,5.1,0,0,1-1.072-3.486V12.32h2.168v8.191q0,2.883,2.344,2.883a3.245,3.245,0,0,0,3.3-1.852V12.32H38.8V25H36.738ZM52.828,18.8a7.539,7.539,0,0,1-1.336,4.67,4.269,4.269,0,0,1-3.586,1.764,4.42,4.42,0,0,1-3.715-1.7L44.086,25H42.094V7h2.168v6.715a4.4,4.4,0,0,1,3.621-1.629,4.3,4.3,0,0,1,3.627,1.746,7.766,7.766,0,0,1,1.318,4.781Zm-2.168-.246a5.858,5.858,0,0,0-.855-3.422,2.832,2.832,0,0,0-2.461-1.207,3.183,3.183,0,0,0-3.082,1.992V21.4a3.272,3.272,0,0,0,3.105,1.992,2.816,2.816,0,0,0,2.426-1.207A6.23,6.23,0,0,0,50.66,18.555ZM57.914,25H55.746V7h2.168Zm8.73.234a5.54,5.54,0,0,1-4.2-1.693,6.285,6.285,0,0,1-1.617-4.529v-.4a7.609,7.609,0,0,1,.721-3.369,5.622,5.622,0,0,1,2.016-2.32,5.068,5.068,0,0,1,2.807-.838,4.749,4.749,0,0,1,3.844,1.629,7.053,7.053,0,0,1,1.371,4.664v.9H63a4.507,4.507,0,0,0,1.1,3.029,3.444,3.444,0,0,0,2.666,1.154A3.776,3.776,0,0,0,68.707,23,4.888,4.888,0,0,0,70.1,21.754l1.324,1.031A5.325,5.325,0,0,1,66.645,25.234Zm-.27-11.367a2.892,2.892,0,0,0-2.2.955,4.642,4.642,0,0,0-1.1,2.678h6.352v-.164a4.129,4.129,0,0,0-.891-2.561A2.723,2.723,0,0,0,66.375,13.867ZM90.75,18.8a7.592,7.592,0,0,1-1.324,4.664,4.244,4.244,0,0,1-3.586,1.77,4.65,4.65,0,0,1-3.633-1.465v6.105H80.039V12.32h1.98l.105,1.406a4.466,4.466,0,0,1,3.68-1.641,4.324,4.324,0,0,1,3.615,1.723A7.675,7.675,0,0,1,90.75,18.6Zm-2.168-.246a5.6,5.6,0,0,0-.914-3.387,2.945,2.945,0,0,0-2.508-1.242,3.187,3.187,0,0,0-2.953,1.746V21.73a3.193,3.193,0,0,0,2.977,1.734,2.931,2.931,0,0,0,2.479-1.236A6.115,6.115,0,0,0,88.582,18.555Zm10.184,6.68a5.54,5.54,0,0,1-4.2-1.693,6.285,6.285,0,0,1-1.617-4.529v-.4a7.609,7.609,0,0,1,.721-3.369,5.622,5.622,0,0,1,2.016-2.32,5.068,5.068,0,0,1,2.807-.838,4.749,4.749,0,0,1,3.844,1.629,7.053,7.053,0,0,1,1.371,4.664v.9h-8.59a4.507,4.507,0,0,0,1.1,3.029,3.444,3.444,0,0,0,2.666,1.154A3.776,3.776,0,0,0,100.828,23a4.888,4.888,0,0,0,1.395-1.242l1.324,1.031A5.325,5.325,0,0,1,98.766,25.234ZM98.5,13.867a2.892,2.892,0,0,0-2.2.955,4.642,4.642,0,0,0-1.1,2.678h6.352v-.164a4.129,4.129,0,0,0-.891-2.561A2.723,2.723,0,0,0,98.5,13.867Zm15.105,7.77a1.6,1.6,0,0,0-.662-1.365,6.373,6.373,0,0,0-2.309-.838,10.915,10.915,0,0,1-2.613-.844,3.718,3.718,0,0,1-1.43-1.172,2.8,2.8,0,0,1-.463-1.617,3.289,3.289,0,0,1,1.318-2.637,5.149,5.149,0,0,1,3.369-1.078,5.3,5.3,0,0,1,3.5,1.113,3.536,3.536,0,0,1,1.342,2.848h-2.18a1.957,1.957,0,0,0-.756-1.535,2.832,2.832,0,0,0-1.9-.645,2.964,2.964,0,0,0-1.852.516,1.623,1.623,0,0,0-.668,1.348,1.315,1.315,0,0,0,.621,1.184,7.642,7.642,0,0,0,2.244.762,11.693,11.693,0,0,1,2.631.867,3.838,3.838,0,0,1,1.494,1.213,2.982,2.982,0,0,1,.486,1.729,3.245,3.245,0,0,1-1.359,2.725,5.7,5.7,0,0,1-3.527,1.025,6.385,6.385,0,0,1-2.7-.539,4.384,4.384,0,0,1-1.834-1.506,3.629,3.629,0,0,1-.662-2.092h2.168a2.245,2.245,0,0,0,.873,1.729,3.387,3.387,0,0,0,2.15.639,3.5,3.5,0,0,0,1.975-.5A1.53,1.53,0,0,0,113.6,21.637Zm4.418-3.094a7.489,7.489,0,0,1,.732-3.352,5.464,5.464,0,0,1,2.039-2.3,5.551,5.551,0,0,1,2.982-.809,5.347,5.347,0,0,1,4.189,1.793,6.9,6.9,0,0,1,1.6,4.77V18.8a7.555,7.555,0,0,1-.709,3.322,5.383,5.383,0,0,1-2.027,2.291,5.614,5.614,0,0,1-3.029.82,5.334,5.334,0,0,1-4.178-1.793,6.863,6.863,0,0,1-1.6-4.746Zm2.18.258a5.424,5.424,0,0,0,.979,3.387,3.316,3.316,0,0,0,5.244-.018,5.932,5.932,0,0,0,.973-3.627,5.415,5.415,0,0,0-.99-3.381,3.148,3.148,0,0,0-2.631-1.295,3.113,3.113,0,0,0-2.59,1.277A5.888,5.888,0,0,0,120.2,18.8Zm11.742-5.285a1.358,1.358,0,0,1,.334-.937,1.273,1.273,0,0,1,1-.375,1.311,1.311,0,0,1,1.014.375,1.33,1.33,0,0,1,.346.938,1.258,1.258,0,0,1-.346.9,1.334,1.334,0,0,1-1.014.363,1.205,1.205,0,0,1-1.336-1.266Zm.41,14.883-1.23-.844a5.655,5.655,0,0,0,1.148-3.164V22.434h2.121v1.7a5.338,5.338,0,0,1-.58,2.367A5.542,5.542,0,0,1,132.352,28.4ZM1.113,49.555A7.428,7.428,0,0,1,2.5,44.861a4.373,4.373,0,0,1,3.621-1.775,4.4,4.4,0,0,1,3.527,1.523V38h2.168V56H9.82l-.105-1.359a4.415,4.415,0,0,1-3.621,1.594A4.331,4.331,0,0,1,2.5,54.43a7.512,7.512,0,0,1-1.389-4.711Zm2.168.246a5.624,5.624,0,0,0,.891,3.375,2.879,2.879,0,0,0,2.461,1.219,3.163,3.163,0,0,0,3.012-1.852V46.719a3.187,3.187,0,0,0-2.988-1.793,2.893,2.893,0,0,0-2.484,1.23A6.192,6.192,0,0,0,3.281,49.8Zm11.32-.258a7.489,7.489,0,0,1,.732-3.352,5.464,5.464,0,0,1,2.039-2.3,5.551,5.551,0,0,1,2.982-.809,5.347,5.347,0,0,1,4.189,1.793,6.9,6.9,0,0,1,1.6,4.77V49.8a7.555,7.555,0,0,1-.709,3.322,5.383,5.383,0,0,1-2.027,2.291,5.614,5.614,0,0,1-3.029.82A5.334,5.334,0,0,1,16.2,54.441,6.863,6.863,0,0,1,14.6,49.7Zm2.18.258a5.424,5.424,0,0,0,.979,3.387A3.316,3.316,0,0,0,23,53.17a5.932,5.932,0,0,0,.973-3.627,5.415,5.415,0,0,0-.99-3.381,3.148,3.148,0,0,0-2.631-1.295,3.113,3.113,0,0,0-2.59,1.277A5.888,5.888,0,0,0,16.781,49.8Zm19.91,4.945a4.6,4.6,0,0,1-3.715,1.488,3.942,3.942,0,0,1-3.088-1.178,5.1,5.1,0,0,1-1.072-3.486V43.32h2.168v8.191q0,2.883,2.344,2.883a3.245,3.245,0,0,0,3.3-1.852V43.32H38.8V56H36.738ZM52.828,49.8a7.539,7.539,0,0,1-1.336,4.67,4.269,4.269,0,0,1-3.586,1.764,4.42,4.42,0,0,1-3.715-1.7L44.086,56H42.094V38h2.168v6.715a4.4,4.4,0,0,1,3.621-1.629,4.3,4.3,0,0,1,3.627,1.746,7.766,7.766,0,0,1,1.318,4.781Zm-2.168-.246a5.858,5.858,0,0,0-.855-3.422,2.832,2.832,0,0,0-2.461-1.207,3.183,3.183,0,0,0-3.082,1.992V52.4a3.272,3.272,0,0,0,3.105,1.992,2.816,2.816,0,0,0,2.426-1.207A6.23,6.23,0,0,0,50.66,49.555ZM57.914,56H55.746V38h2.168Zm8.73.234a5.54,5.54,0,0,1-4.2-1.693,6.285,6.285,0,0,1-1.617-4.529v-.4a7.609,7.609,0,0,1,.721-3.369,5.622,5.622,0,0,1,2.016-2.32,5.068,5.068,0,0,1,2.807-.838,4.749,4.749,0,0,1,3.844,1.629,7.053,7.053,0,0,1,1.371,4.664v.9H63a4.507,4.507,0,0,0,1.1,3.029,3.444,3.444,0,0,0,2.666,1.154A3.776,3.776,0,0,0,68.707,54,4.888,4.888,0,0,0,70.1,52.754l1.324,1.031A5.325,5.325,0,0,1,66.645,56.234Zm-.27-11.367a2.892,2.892,0,0,0-2.2.955,4.642,4.642,0,0,0-1.1,2.678h6.352v-.164a4.129,4.129,0,0,0-.891-2.561A2.723,2.723,0,0,0,66.375,44.867ZM87.867,56a4.554,4.554,0,0,1-.3-1.336,4.837,4.837,0,0,1-3.609,1.57,4.476,4.476,0,0,1-3.076-1.061,3.431,3.431,0,0,1-1.2-2.689,3.584,3.584,0,0,1,1.506-3.076,7.1,7.1,0,0,1,4.236-1.1h2.109v-1a2.435,2.435,0,0,0-.68-1.811,2.732,2.732,0,0,0-2-.674,3.161,3.161,0,0,0-1.945.586,1.727,1.727,0,0,0-.785,1.418h-2.18A2.992,2.992,0,0,1,80.607,45a4.6,4.6,0,0,1,1.828-1.4,6.15,6.15,0,0,1,2.537-.516,5.013,5.013,0,0,1,3.434,1.1A3.953,3.953,0,0,1,89.7,47.2v5.836a7.135,7.135,0,0,0,.445,2.777V56Zm-3.6-1.652A3.81,3.81,0,0,0,86.2,53.82a3.19,3.19,0,0,0,1.324-1.371v-2.6h-1.7q-3.984,0-3.984,2.332a1.974,1.974,0,0,0,.68,1.594A2.612,2.612,0,0,0,84.27,54.348ZM95.449,56H93.281V38h2.168Zm6.41-15.75v3.07h2.367V45h-2.367v7.873a1.76,1.76,0,0,0,.316,1.144,1.332,1.332,0,0,0,1.078.381,5.249,5.249,0,0,0,1.031-.141V56a6.322,6.322,0,0,1-1.664.233,2.7,2.7,0,0,1-2.191-.879,3.776,3.776,0,0,1-.738-2.5V45H97.383V43.32h2.309V40.25Zm12.727,14.5a4.6,4.6,0,0,1-3.715,1.488,3.942,3.942,0,0,1-3.088-1.178,5.1,5.1,0,0,1-1.072-3.486V43.32h2.168v8.191q0,2.883,2.344,2.883a3.245,3.245,0,0,0,3.3-1.852V43.32H116.7V56h-2.062Zm11.531-9.48a6.5,6.5,0,0,0-1.066-.082A2.857,2.857,0,0,0,122.156,47v9h-2.168V43.32H122.1l.035,1.465a3.376,3.376,0,0,1,3.023-1.7,2.215,2.215,0,0,1,.961.164ZM135.469,56a4.554,4.554,0,0,1-.3-1.336,4.837,4.837,0,0,1-3.609,1.57,4.476,4.476,0,0,1-3.076-1.061,3.431,3.431,0,0,1-1.2-2.689,3.584,3.584,0,0,1,1.506-3.076,7.1,7.1,0,0,1,4.236-1.1h2.109v-1a2.435,2.435,0,0,0-.68-1.811,2.732,2.732,0,0,0-2-.674,3.161,3.161,0,0,0-1.945.586,1.727,1.727,0,0,0-.785,1.418h-2.18A2.992,2.992,0,0,1,128.209,45a4.6,4.6,0,0,1,1.828-1.4,6.15,6.15,0,0,1,2.537-.516,5.013,5.013,0,0,1,3.434,1.1A3.953,3.953,0,0,1,137.3,47.2v5.836a7.135,7.135,0,0,0,.445,2.777V56Zm-3.6-1.652a3.81,3.81,0,0,0,1.934-.527,3.19,3.19,0,0,0,1.324-1.371v-2.6h-1.7q-3.984,0-3.984,2.332a1.974,1.974,0,0,0,.68,1.594A2.612,2.612,0,0,0,131.871,54.348Zm8.484-9.832a1.358,1.358,0,0,1,.334-.937,1.273,1.273,0,0,1,1-.375,1.311,1.311,0,0,1,1.014.375,1.33,1.33,0,0,1,.346.938,1.258,1.258,0,0,1-.346.9,1.334,1.334,0,0,1-1.014.363,1.205,1.205,0,0,1-1.336-1.266Zm.41,14.883-1.23-.844a5.655,5.655,0,0,0,1.148-3.164V53.434H142.8v1.7a5.338,5.338,0,0,1-.58,2.367A5.542,5.542,0,0,1,140.766,59.4ZM1.113,80.555A7.428,7.428,0,0,1,2.5,75.861a4.373,4.373,0,0,1,3.621-1.775,4.4,4.4,0,0,1,3.527,1.523V69h2.168V87H9.82l-.105-1.359a4.415,4.415,0,0,1-3.621,1.594A4.331,4.331,0,0,1,2.5,85.43a7.512,7.512,0,0,1-1.389-4.711Zm2.168.246a5.624,5.624,0,0,0,.891,3.375,2.879,2.879,0,0,0,2.461,1.219,3.163,3.163,0,0,0,3.012-1.852V77.719a3.187,3.187,0,0,0-2.988-1.793,2.893,2.893,0,0,0-2.484,1.23A6.192,6.192,0,0,0,3.281,80.8Zm11.32-.258a7.489,7.489,0,0,1,.732-3.352,5.464,5.464,0,0,1,2.039-2.3,5.551,5.551,0,0,1,2.982-.809,5.347,5.347,0,0,1,4.189,1.793,6.9,6.9,0,0,1,1.6,4.77V80.8a7.555,7.555,0,0,1-.709,3.322,5.383,5.383,0,0,1-2.027,2.291,5.614,5.614,0,0,1-3.029.82A5.334,5.334,0,0,1,16.2,85.441,6.863,6.863,0,0,1,14.6,80.7Zm2.18.258a5.424,5.424,0,0,0,.979,3.387A3.316,3.316,0,0,0,23,84.17a5.932,5.932,0,0,0,.973-3.627,5.415,5.415,0,0,0-.99-3.381,3.148,3.148,0,0,0-2.631-1.295,3.113,3.113,0,0,0-2.59,1.277A5.888,5.888,0,0,0,16.781,80.8Zm19.91,4.945a4.6,4.6,0,0,1-3.715,1.488,3.942,3.942,0,0,1-3.088-1.178,5.1,5.1,0,0,1-1.072-3.486V74.32h2.168v8.191q0,2.883,2.344,2.883a3.245,3.245,0,0,0,3.3-1.852V74.32H38.8V87H36.738ZM52.828,80.8a7.539,7.539,0,0,1-1.336,4.67,4.269,4.269,0,0,1-3.586,1.764,4.42,4.42,0,0,1-3.715-1.7L44.086,87H42.094V69h2.168v6.715a4.4,4.4,0,0,1,3.621-1.629,4.3,4.3,0,0,1,3.627,1.746,7.766,7.766,0,0,1,1.318,4.781Zm-2.168-.246a5.858,5.858,0,0,0-.855-3.422,2.832,2.832,0,0,0-2.461-1.207,3.183,3.183,0,0,0-3.082,1.992V83.4a3.272,3.272,0,0,0,3.105,1.992,2.816,2.816,0,0,0,2.426-1.207A6.23,6.23,0,0,0,50.66,80.555ZM57.914,87H55.746V69h2.168Zm8.73.234a5.54,5.54,0,0,1-4.2-1.693,6.285,6.285,0,0,1-1.617-4.529v-.4a7.609,7.609,0,0,1,.721-3.369,5.622,5.622,0,0,1,2.016-2.32,5.068,5.068,0,0,1,2.807-.838,4.749,4.749,0,0,1,3.844,1.629,7.053,7.053,0,0,1,1.371,4.664v.9H63a4.507,4.507,0,0,0,1.1,3.029,3.444,3.444,0,0,0,2.666,1.154A3.776,3.776,0,0,0,68.707,85,4.888,4.888,0,0,0,70.1,83.754l1.324,1.031A5.325,5.325,0,0,1,66.645,87.234Zm-.27-11.367a2.892,2.892,0,0,0-2.2.955,4.642,4.642,0,0,0-1.1,2.678h6.352v-.164a4.129,4.129,0,0,0-.891-2.561A2.723,2.723,0,0,0,66.375,75.867ZM87.867,87a4.554,4.554,0,0,1-.3-1.336,4.837,4.837,0,0,1-3.609,1.57,4.476,4.476,0,0,1-3.076-1.061,3.431,3.431,0,0,1-1.2-2.689,3.584,3.584,0,0,1,1.506-3.076,7.1,7.1,0,0,1,4.236-1.1h2.109v-1a2.435,2.435,0,0,0-.68-1.811,2.732,2.732,0,0,0-2-.674,3.161,3.161,0,0,0-1.945.586,1.727,1.727,0,0,0-.785,1.418h-2.18A2.992,2.992,0,0,1,80.607,76a4.6,4.6,0,0,1,1.828-1.4,6.15,6.15,0,0,1,2.537-.516,5.013,5.013,0,0,1,3.434,1.1A3.953,3.953,0,0,1,89.7,78.2v5.836a7.135,7.135,0,0,0,.445,2.777V87Zm-3.6-1.652A3.81,3.81,0,0,0,86.2,84.82a3.19,3.19,0,0,0,1.324-1.371v-2.6h-1.7q-3.984,0-3.984,2.332a1.974,1.974,0,0,0,.68,1.594A2.612,2.612,0,0,0,84.27,85.348ZM95.145,74.32l.07,1.594a4.621,4.621,0,0,1,3.8-1.828q4.02,0,4.055,4.535V87H100.9V78.609a2.919,2.919,0,0,0-.627-2.027,2.512,2.512,0,0,0-1.916-.656,3.129,3.129,0,0,0-1.852.563,3.82,3.82,0,0,0-1.242,1.477V87H93.094V74.32Zm16.277,11.145a3.123,3.123,0,0,0,2.027-.7A2.474,2.474,0,0,0,114.41,83h2.051a3.931,3.931,0,0,1-.75,2.074,4.94,4.94,0,0,1-1.846,1.57,5.326,5.326,0,0,1-2.443.586,5.223,5.223,0,0,1-4.119-1.729,6.884,6.884,0,0,1-1.529-4.729v-.363a7.634,7.634,0,0,1,.68-3.293,5.177,5.177,0,0,1,1.951-2.238,5.543,5.543,0,0,1,3.006-.8,5.085,5.085,0,0,1,3.545,1.277,4.565,4.565,0,0,1,1.506,3.316H114.41a2.988,2.988,0,0,0-.932-2.021,2.9,2.9,0,0,0-2.068-.791,3.034,3.034,0,0,0-2.561,1.189,5.586,5.586,0,0,0-.908,3.439v.41a5.475,5.475,0,0,0,.9,3.375A3.049,3.049,0,0,0,111.422,85.465Zm9.645-9.609a4.609,4.609,0,0,1,3.75-1.77q4.02,0,4.055,4.535V87H126.7V78.609a2.919,2.919,0,0,0-.627-2.027,2.512,2.512,0,0,0-1.916-.656,3.129,3.129,0,0,0-1.852.563,3.82,3.82,0,0,0-1.242,1.477V87H118.9V69h2.168Zm10.477,4.688a7.489,7.489,0,0,1,.732-3.352,5.464,5.464,0,0,1,2.039-2.3,5.551,5.551,0,0,1,2.982-.809,5.347,5.347,0,0,1,4.189,1.793,6.9,6.9,0,0,1,1.6,4.77V80.8a7.555,7.555,0,0,1-.709,3.322,5.383,5.383,0,0,1-2.027,2.291,5.614,5.614,0,0,1-3.029.82,5.334,5.334,0,0,1-4.178-1.793,6.863,6.863,0,0,1-1.6-4.746Zm2.18.258a5.424,5.424,0,0,0,.979,3.387,3.316,3.316,0,0,0,5.244-.018,5.932,5.932,0,0,0,.973-3.627,5.415,5.415,0,0,0-.99-3.381,3.148,3.148,0,0,0-2.631-1.295,3.113,3.113,0,0,0-2.59,1.277A5.888,5.888,0,0,0,133.723,80.8Zm11.742-5.285a1.358,1.358,0,0,1,.334-.937,1.273,1.273,0,0,1,1-.375,1.311,1.311,0,0,1,1.014.375,1.33,1.33,0,0,1,.346.938,1.258,1.258,0,0,1-.346.9,1.334,1.334,0,0,1-1.014.363,1.205,1.205,0,0,1-1.336-1.266Zm.41,14.883-1.23-.844a5.655,5.655,0,0,0,1.148-3.164V84.434h2.121v1.7a5.338,5.338,0,0,1-.58,2.367A5.542,5.542,0,0,1,145.875,90.4ZM1.113,111.555A7.428,7.428,0,0,1,2.5,106.861a4.373,4.373,0,0,1,3.621-1.775,4.4,4.4,0,0,1,3.527,1.523V100h2.168v18H9.82l-.105-1.359a4.415,4.415,0,0,1-3.621,1.594,4.331,4.331,0,0,1-3.592-1.8,7.512,7.512,0,0,1-1.389-4.711Zm2.168.246a5.624,5.624,0,0,0,.891,3.375,2.879,2.879,0,0,0,2.461,1.219,3.163,3.163,0,0,0,3.012-1.852v-5.824a3.187,3.187,0,0,0-2.988-1.793,2.893,2.893,0,0,0-2.484,1.23A6.192,6.192,0,0,0,3.281,111.8Zm11.32-.258a7.489,7.489,0,0,1,.732-3.352,5.464,5.464,0,0,1,2.039-2.3,5.551,5.551,0,0,1,2.982-.809,5.347,5.347,0,0,1,4.189,1.793,6.9,6.9,0,0,1,1.6,4.77v.152a7.555,7.555,0,0,1-.709,3.322,5.383,5.383,0,0,1-2.027,2.291,5.614,5.614,0,0,1-3.029.82,5.334,5.334,0,0,1-4.178-1.793,6.863,6.863,0,0,1-1.6-4.746Zm2.18.258a5.424,5.424,0,0,0,.979,3.387A3.316,3.316,0,0,0,23,115.17a5.932,5.932,0,0,0,.973-3.627,5.415,5.415,0,0,0-.99-3.381,3.148,3.148,0,0,0-2.631-1.295,3.113,3.113,0,0,0-2.59,1.277A5.888,5.888,0,0,0,16.781,111.8Zm19.91,4.945a4.6,4.6,0,0,1-3.715,1.488,3.942,3.942,0,0,1-3.088-1.178,5.1,5.1,0,0,1-1.072-3.486v-8.25h2.168v8.191q0,2.883,2.344,2.883a3.245,3.245,0,0,0,3.3-1.852V105.32H38.8V118H36.738ZM52.828,111.8a7.539,7.539,0,0,1-1.336,4.67,4.269,4.269,0,0,1-3.586,1.764,4.42,4.42,0,0,1-3.715-1.7L44.086,118H42.094V100h2.168v6.715a4.4,4.4,0,0,1,3.621-1.629,4.3,4.3,0,0,1,3.627,1.746,7.766,7.766,0,0,1,1.318,4.781Zm-2.168-.246a5.858,5.858,0,0,0-.855-3.422,2.832,2.832,0,0,0-2.461-1.207,3.183,3.183,0,0,0-3.082,1.992V114.4a3.272,3.272,0,0,0,3.105,1.992,2.816,2.816,0,0,0,2.426-1.207A6.23,6.23,0,0,0,50.66,111.555ZM57.914,118H55.746V100h2.168Zm8.73.234a5.54,5.54,0,0,1-4.2-1.693,6.285,6.285,0,0,1-1.617-4.529v-.4a7.609,7.609,0,0,1,.721-3.369,5.622,5.622,0,0,1,2.016-2.32,5.068,5.068,0,0,1,2.807-.838,4.749,4.749,0,0,1,3.844,1.629,7.053,7.053,0,0,1,1.371,4.664v.9H63a4.507,4.507,0,0,0,1.1,3.029,3.444,3.444,0,0,0,2.666,1.154A3.776,3.776,0,0,0,68.707,116a4.888,4.888,0,0,0,1.395-1.242l1.324,1.031A5.325,5.325,0,0,1,66.645,118.234Zm-.27-11.367a2.892,2.892,0,0,0-2.2.955,4.642,4.642,0,0,0-1.1,2.678h6.352v-.164a4.129,4.129,0,0,0-.891-2.561A2.723,2.723,0,0,0,66.375,106.867ZM82.395,118H80.227V100h2.168Zm11.3,0a4.554,4.554,0,0,1-.3-1.336,4.837,4.837,0,0,1-3.609,1.57,4.476,4.476,0,0,1-3.076-1.061,3.431,3.431,0,0,1-1.2-2.689,3.584,3.584,0,0,1,1.506-3.076,7.1,7.1,0,0,1,4.236-1.1h2.109v-1a2.435,2.435,0,0,0-.68-1.811,2.732,2.732,0,0,0-2-.674,3.161,3.161,0,0,0-1.945.586,1.727,1.727,0,0,0-.785,1.418h-2.18A2.992,2.992,0,0,1,86.432,107a4.6,4.6,0,0,1,1.828-1.4,6.15,6.15,0,0,1,2.537-.516,5.013,5.013,0,0,1,3.434,1.1A3.953,3.953,0,0,1,95.52,109.2v5.836a7.135,7.135,0,0,0,.445,2.777V118Zm-3.6-1.652a3.81,3.81,0,0,0,1.934-.527,3.19,3.19,0,0,0,1.324-1.371v-2.6h-1.7q-3.984,0-3.984,2.332a1.974,1.974,0,0,0,.68,1.594A2.612,2.612,0,0,0,90.094,116.348Zm14.953-9.082a6.5,6.5,0,0,0-1.066-.082A2.857,2.857,0,0,0,101.086,109v9H98.918V105.32h2.109l.035,1.465a3.376,3.376,0,0,1,3.023-1.7,2.215,2.215,0,0,1,.961.164Zm1.477,4.289a7.452,7.452,0,0,1,1.371-4.717,4.727,4.727,0,0,1,7.254-.111l.105-1.406h1.98V117.7a5.158,5.158,0,0,1-1.459,3.879,5.384,5.384,0,0,1-3.92,1.418,6.521,6.521,0,0,1-2.684-.586,4.62,4.62,0,0,1-2-1.605l1.125-1.3a4.239,4.239,0,0,0,3.41,1.723,3.322,3.322,0,0,0,2.467-.891,3.4,3.4,0,0,0,.885-2.508v-1.09a4.456,4.456,0,0,1-3.551,1.5,4.331,4.331,0,0,1-3.6-1.793A7.835,7.835,0,0,1,106.523,111.555Zm2.18.246a5.685,5.685,0,0,0,.879,3.369,2.856,2.856,0,0,0,2.461,1.225,3.176,3.176,0,0,0,3.012-1.863v-5.789a3.213,3.213,0,0,0-2.988-1.816,2.882,2.882,0,0,0-2.473,1.23A6.192,6.192,0,0,0,108.7,111.8Zm11.227-.258a7.489,7.489,0,0,1,.732-3.352,5.464,5.464,0,0,1,2.039-2.3,5.551,5.551,0,0,1,2.982-.809,5.347,5.347,0,0,1,4.189,1.793,6.9,6.9,0,0,1,1.6,4.77v.152a7.555,7.555,0,0,1-.709,3.322,5.383,5.383,0,0,1-2.027,2.291,5.614,5.614,0,0,1-3.029.82,5.334,5.334,0,0,1-4.178-1.793,6.863,6.863,0,0,1-1.6-4.746Zm2.18.258a5.424,5.424,0,0,0,.979,3.387,3.316,3.316,0,0,0,5.244-.018,5.932,5.932,0,0,0,.973-3.627,5.415,5.415,0,0,0-.99-3.381,3.148,3.148,0,0,0-2.631-1.295,3.113,3.113,0,0,0-2.59,1.277A5.888,5.888,0,0,0,122.109,111.8Zm11.742-5.285a1.358,1.358,0,0,1,.334-.937,1.273,1.273,0,0,1,1-.375,1.311,1.311,0,0,1,1.014.375,1.33,1.33,0,0,1,.346.938,1.258,1.258,0,0,1-.346.9,1.334,1.334,0,0,1-1.014.363,1.205,1.205,0,0,1-1.336-1.266Zm.41,14.883-1.23-.844a5.655,5.655,0,0,0,1.148-3.164v-1.957H136.3v1.7a5.338,5.338,0,0,1-.58,2.367A5.542,5.542,0,0,1,134.262,121.4ZM1.113,142.555A7.428,7.428,0,0,1,2.5,137.861a4.373,4.373,0,0,1,3.621-1.775,4.4,4.4,0,0,1,3.527,1.523V131h2.168v18H9.82l-.105-1.359a4.415,4.415,0,0,1-3.621,1.594,4.331,4.331,0,0,1-3.592-1.8,7.512,7.512,0,0,1-1.389-4.711Zm2.168.246a5.624,5.624,0,0,0,.891,3.375,2.879,2.879,0,0,0,2.461,1.219,3.163,3.163,0,0,0,3.012-1.852v-5.824a3.187,3.187,0,0,0-2.988-1.793,2.893,2.893,0,0,0-2.484,1.23A6.192,6.192,0,0,0,3.281,142.8Zm11.32-.258a7.489,7.489,0,0,1,.732-3.352,5.464,5.464,0,0,1,2.039-2.3,5.551,5.551,0,0,1,2.982-.809,5.347,5.347,0,0,1,4.189,1.793,6.9,6.9,0,0,1,1.6,4.77v.152a7.555,7.555,0,0,1-.709,3.322,5.383,5.383,0,0,1-2.027,2.291,5.614,5.614,0,0,1-3.029.82,5.334,5.334,0,0,1-4.178-1.793,6.863,6.863,0,0,1-1.6-4.746Zm2.18.258a5.424,5.424,0,0,0,.979,3.387A3.316,3.316,0,0,0,23,146.17a5.932,5.932,0,0,0,.973-3.627,5.415,5.415,0,0,0-.99-3.381,3.148,3.148,0,0,0-2.631-1.295,3.113,3.113,0,0,0-2.59,1.277A5.888,5.888,0,0,0,16.781,142.8Zm19.91,4.945a4.6,4.6,0,0,1-3.715,1.488,3.942,3.942,0,0,1-3.088-1.178,5.1,5.1,0,0,1-1.072-3.486v-8.25h2.168v8.191q0,2.883,2.344,2.883a3.245,3.245,0,0,0,3.3-1.852V136.32H38.8V149H36.738ZM52.828,142.8a7.539,7.539,0,0,1-1.336,4.67,4.269,4.269,0,0,1-3.586,1.764,4.42,4.42,0,0,1-3.715-1.7L44.086,149H42.094V131h2.168v6.715a4.4,4.4,0,0,1,3.621-1.629,4.3,4.3,0,0,1,3.627,1.746,7.766,7.766,0,0,1,1.318,4.781Zm-2.168-.246a5.858,5.858,0,0,0-.855-3.422,2.832,2.832,0,0,0-2.461-1.207,3.183,3.183,0,0,0-3.082,1.992V145.4a3.272,3.272,0,0,0,3.105,1.992,2.816,2.816,0,0,0,2.426-1.207A6.23,6.23,0,0,0,50.66,142.555ZM57.914,149H55.746V131h2.168Zm8.73.234a5.54,5.54,0,0,1-4.2-1.693,6.285,6.285,0,0,1-1.617-4.529v-.4a7.609,7.609,0,0,1,.721-3.369,5.622,5.622,0,0,1,2.016-2.32,5.068,5.068,0,0,1,2.807-.838,4.749,4.749,0,0,1,3.844,1.629,7.053,7.053,0,0,1,1.371,4.664v.9H63a4.507,4.507,0,0,0,1.1,3.029,3.444,3.444,0,0,0,2.666,1.154A3.776,3.776,0,0,0,68.707,147a4.888,4.888,0,0,0,1.395-1.242l1.324,1.031A5.325,5.325,0,0,1,66.645,149.234Zm-.27-11.367a2.892,2.892,0,0,0-2.2.955,4.642,4.642,0,0,0-1.1,2.678h6.352v-.164a4.129,4.129,0,0,0-.891-2.561A2.723,2.723,0,0,0,66.375,137.867ZM82.09,136.32l.07,1.594a4.621,4.621,0,0,1,3.8-1.828q4.02,0,4.055,4.535V149H87.844v-8.391a2.919,2.919,0,0,0-.627-2.027,2.512,2.512,0,0,0-1.916-.656,3.129,3.129,0,0,0-1.852.563,3.82,3.82,0,0,0-1.242,1.477V149H80.039V136.32Zm19.02,11.426a4.6,4.6,0,0,1-3.715,1.488,3.942,3.942,0,0,1-3.088-1.178,5.1,5.1,0,0,1-1.072-3.486v-8.25H95.4v8.191q0,2.883,2.344,2.883a3.245,3.245,0,0,0,3.3-1.852V136.32h2.168V149h-2.062Zm7.441-11.426.059,1.406a4.683,4.683,0,0,1,3.762-1.641,3.625,3.625,0,0,1,3.621,2.039,4.8,4.8,0,0,1,1.646-1.477,4.863,4.863,0,0,1,2.4-.562q4.172,0,4.242,4.418V149h-2.168v-8.367a2.911,2.911,0,0,0-.621-2.033,2.735,2.735,0,0,0-2.086-.674,2.875,2.875,0,0,0-2,.721,2.924,2.924,0,0,0-.926,1.939V149h-2.18v-8.309q0-2.766-2.707-2.766a2.9,2.9,0,0,0-2.918,1.816V149H106.5V136.32Zm24.258,12.914a5.54,5.54,0,0,1-4.2-1.693A6.285,6.285,0,0,1,127,143.012v-.4a7.609,7.609,0,0,1,.721-3.369,5.622,5.622,0,0,1,2.016-2.32,5.068,5.068,0,0,1,2.807-.838,4.749,4.749,0,0,1,3.844,1.629,7.053,7.053,0,0,1,1.371,4.664v.9h-8.59a4.507,4.507,0,0,0,1.1,3.029,3.444,3.444,0,0,0,2.666,1.154,3.776,3.776,0,0,0,1.945-.469,4.888,4.888,0,0,0,1.395-1.242l1.324,1.031A5.325,5.325,0,0,1,132.809,149.234Zm-.27-11.367a2.892,2.892,0,0,0-2.2.955,4.642,4.642,0,0,0-1.1,2.678h6.352v-.164a4.129,4.129,0,0,0-.891-2.561A2.723,2.723,0,0,0,132.539,137.867Zm13.852.4a6.5,6.5,0,0,0-1.066-.082A2.857,2.857,0,0,0,142.43,140v9h-2.168V136.32h2.109l.035,1.465a3.376,3.376,0,0,1,3.023-1.7,2.215,2.215,0,0,1,.961.164Zm1.184,4.277a7.489,7.489,0,0,1,.732-3.352,5.464,5.464,0,0,1,2.039-2.3,5.551,5.551,0,0,1,2.982-.809,5.347,5.347,0,0,1,4.189,1.793,6.9,6.9,0,0,1,1.6,4.77v.152a7.555,7.555,0,0,1-.709,3.322,5.383,5.383,0,0,1-2.027,2.291,5.614,5.614,0,0,1-3.029.82,5.334,5.334,0,0,1-4.178-1.793,6.863,6.863,0,0,1-1.6-4.746Zm2.18.258a5.424,5.424,0,0,0,.979,3.387,3.316,3.316,0,0,0,5.244-.018,5.932,5.932,0,0,0,.973-3.627,5.415,5.415,0,0,0-.99-3.381,3.148,3.148,0,0,0-2.631-1.295,3.113,3.113,0,0,0-2.59,1.277A5.888,5.888,0,0,0,149.754,142.8Zm14.672-.48V149h-2.25V131.938h6.293a6.322,6.322,0,0,1,4.389,1.43,4.847,4.847,0,0,1,1.588,3.785,4.783,4.783,0,0,1-1.553,3.826,6.6,6.6,0,0,1-4.447,1.342Zm0-1.84h4.043a4.042,4.042,0,0,0,2.766-.851,3.112,3.112,0,0,0,.961-2.459,3.215,3.215,0,0,0-.961-2.442,3.787,3.787,0,0,0-2.637-.951h-4.172Zm20.379,7.266a4.6,4.6,0,0,1-3.715,1.488A3.942,3.942,0,0,1,178,148.057a5.1,5.1,0,0,1-1.072-3.486v-8.25H179.1v8.191q0,2.883,2.344,2.883a3.245,3.245,0,0,0,3.3-1.852V136.32h2.168V149h-2.062Zm10.664,1.488a5.54,5.54,0,0,1-4.2-1.693,6.285,6.285,0,0,1-1.617-4.529v-.4a7.609,7.609,0,0,1,.721-3.369,5.622,5.622,0,0,1,2.016-2.32,5.068,5.068,0,0,1,2.807-.838,4.749,4.749,0,0,1,3.844,1.629,7.053,7.053,0,0,1,1.371,4.664v.9h-8.59a4.507,4.507,0,0,0,1.1,3.029,3.444,3.444,0,0,0,2.666,1.154,3.776,3.776,0,0,0,1.945-.469,4.888,4.888,0,0,0,1.395-1.242l1.324,1.031A5.325,5.325,0,0,1,195.469,149.234Zm-.27-11.367a2.892,2.892,0,0,0-2.2.955,4.642,4.642,0,0,0-1.1,2.678h6.352v-.164a4.129,4.129,0,0,0-.891-2.561A2.723,2.723,0,0,0,195.2,137.867Zm13.852.4a6.5,6.5,0,0,0-1.066-.082A2.857,2.857,0,0,0,205.09,140v9h-2.168V136.32h2.109l.035,1.465a3.376,3.376,0,0,1,3.023-1.7,2.215,2.215,0,0,1,.961.164Zm5.52-5.016v3.07h2.367V138H214.57v7.873a1.76,1.76,0,0,0,.316,1.144,1.332,1.332,0,0,0,1.078.381,5.249,5.249,0,0,0,1.031-.141V149a6.322,6.322,0,0,1-1.664.233,2.7,2.7,0,0,1-2.191-.879,3.776,3.776,0,0,1-.738-2.5V138h-2.309V136.32H212.4v-3.07ZM227.3,149a4.554,4.554,0,0,1-.3-1.336,4.837,4.837,0,0,1-3.609,1.57,4.476,4.476,0,0,1-3.076-1.061,3.431,3.431,0,0,1-1.2-2.689,3.584,3.584,0,0,1,1.506-3.076,7.1,7.1,0,0,1,4.236-1.1h2.109v-1a2.435,2.435,0,0,0-.68-1.811,2.732,2.732,0,0,0-2-.674,3.161,3.161,0,0,0-1.945.586,1.727,1.727,0,0,0-.785,1.418h-2.18a2.992,2.992,0,0,1,.674-1.834,4.6,4.6,0,0,1,1.828-1.4,6.15,6.15,0,0,1,2.537-.516,5.013,5.013,0,0,1,3.434,1.1,3.953,3.953,0,0,1,1.289,3.018v5.836a7.135,7.135,0,0,0,.445,2.777V149Zm-3.6-1.652a3.81,3.81,0,0,0,1.934-.527,3.19,3.19,0,0,0,1.324-1.371v-2.6h-1.7q-3.984,0-3.984,2.332a1.974,1.974,0,0,0,.68,1.594A2.612,2.612,0,0,0,223.7,147.348Zm16.207-1.711a1.6,1.6,0,0,0-.662-1.365,6.373,6.373,0,0,0-2.309-.838,10.915,10.915,0,0,1-2.613-.844,3.718,3.718,0,0,1-1.43-1.172,2.8,2.8,0,0,1-.463-1.617,3.289,3.289,0,0,1,1.318-2.637,5.149,5.149,0,0,1,3.369-1.078,5.3,5.3,0,0,1,3.5,1.113,3.536,3.536,0,0,1,1.342,2.848h-2.18a1.957,1.957,0,0,0-.756-1.535,2.832,2.832,0,0,0-1.9-.645,2.964,2.964,0,0,0-1.852.516,1.623,1.623,0,0,0-.668,1.348,1.315,1.315,0,0,0,.621,1.184,7.642,7.642,0,0,0,2.244.762,11.693,11.693,0,0,1,2.631.867,3.838,3.838,0,0,1,1.494,1.213,2.982,2.982,0,0,1,.486,1.729,3.245,3.245,0,0,1-1.359,2.725,5.7,5.7,0,0,1-3.527,1.025,6.385,6.385,0,0,1-2.7-.539,4.384,4.384,0,0,1-1.834-1.506A3.629,3.629,0,0,1,232,145.1h2.168a2.245,2.245,0,0,0,.873,1.729,3.387,3.387,0,0,0,2.15.639,3.5,3.5,0,0,0,1.975-.5A1.53,1.53,0,0,0,239.906,145.637Zm4.652-8.121a1.358,1.358,0,0,1,.334-.937,1.273,1.273,0,0,1,1-.375,1.311,1.311,0,0,1,1.014.375,1.33,1.33,0,0,1,.346.938,1.258,1.258,0,0,1-.346.9,1.334,1.334,0,0,1-1.014.363,1.205,1.205,0,0,1-1.336-1.266Zm.41,14.883-1.23-.844a5.655,5.655,0,0,0,1.148-3.164v-1.957h2.121v1.7a5.338,5.338,0,0,1-.58,2.367A5.542,5.542,0,0,1,244.969,152.4ZM1.113,173.555A7.428,7.428,0,0,1,2.5,168.861a4.373,4.373,0,0,1,3.621-1.775,4.4,4.4,0,0,1,3.527,1.523V162h2.168v18H9.82l-.105-1.359a4.415,4.415,0,0,1-3.621,1.594,4.331,4.331,0,0,1-3.592-1.8,7.512,7.512,0,0,1-1.389-4.711Zm2.168.246a5.624,5.624,0,0,0,.891,3.375,2.879,2.879,0,0,0,2.461,1.219,3.163,3.163,0,0,0,3.012-1.852v-5.824a3.187,3.187,0,0,0-2.988-1.793,2.893,2.893,0,0,0-2.484,1.23A6.192,6.192,0,0,0,3.281,173.8Zm11.32-.258a7.489,7.489,0,0,1,.732-3.352,5.464,5.464,0,0,1,2.039-2.3,5.551,5.551,0,0,1,2.982-.809,5.347,5.347,0,0,1,4.189,1.793,6.9,6.9,0,0,1,1.6,4.77v.152a7.555,7.555,0,0,1-.709,3.322,5.383,5.383,0,0,1-2.027,2.291,5.614,5.614,0,0,1-3.029.82,5.334,5.334,0,0,1-4.178-1.793,6.863,6.863,0,0,1-1.6-4.746Zm2.18.258a5.424,5.424,0,0,0,.979,3.387A3.316,3.316,0,0,0,23,177.17a5.932,5.932,0,0,0,.973-3.627,5.415,5.415,0,0,0-.99-3.381,3.148,3.148,0,0,0-2.631-1.295,3.113,3.113,0,0,0-2.59,1.277A5.888,5.888,0,0,0,16.781,173.8Zm19.91,4.945a4.6,4.6,0,0,1-3.715,1.488,3.942,3.942,0,0,1-3.088-1.178,5.1,5.1,0,0,1-1.072-3.486v-8.25h2.168v8.191q0,2.883,2.344,2.883a3.245,3.245,0,0,0,3.3-1.852V167.32H38.8V180H36.738ZM52.828,173.8a7.539,7.539,0,0,1-1.336,4.67,4.269,4.269,0,0,1-3.586,1.764,4.42,4.42,0,0,1-3.715-1.7L44.086,180H42.094V162h2.168v6.715a4.4,4.4,0,0,1,3.621-1.629,4.3,4.3,0,0,1,3.627,1.746,7.766,7.766,0,0,1,1.318,4.781Zm-2.168-.246a5.858,5.858,0,0,0-.855-3.422,2.832,2.832,0,0,0-2.461-1.207,3.183,3.183,0,0,0-3.082,1.992V176.4a3.272,3.272,0,0,0,3.105,1.992,2.816,2.816,0,0,0,2.426-1.207A6.23,6.23,0,0,0,50.66,173.555ZM57.914,180H55.746V162h2.168Zm8.73.234a5.54,5.54,0,0,1-4.2-1.693,6.285,6.285,0,0,1-1.617-4.529v-.4a7.609,7.609,0,0,1,.721-3.369,5.622,5.622,0,0,1,2.016-2.32,5.068,5.068,0,0,1,2.807-.838,4.749,4.749,0,0,1,3.844,1.629,7.053,7.053,0,0,1,1.371,4.664v.9H63a4.507,4.507,0,0,0,1.1,3.029,3.444,3.444,0,0,0,2.666,1.154A3.776,3.776,0,0,0,68.707,178a4.888,4.888,0,0,0,1.395-1.242l1.324,1.031A5.325,5.325,0,0,1,66.645,180.234Zm-.27-11.367a2.892,2.892,0,0,0-2.2.955,4.642,4.642,0,0,0-1.1,2.678h6.352v-.164a4.129,4.129,0,0,0-.891-2.561A2.723,2.723,0,0,0,66.375,168.867Zm15.7-1.547.059,1.406a4.683,4.683,0,0,1,3.762-1.641,3.625,3.625,0,0,1,3.621,2.039,4.8,4.8,0,0,1,1.646-1.477,4.863,4.863,0,0,1,2.4-.562q4.172,0,4.242,4.418V180H95.637v-8.367a2.911,2.911,0,0,0-.621-2.033,2.735,2.735,0,0,0-2.086-.674,2.875,2.875,0,0,0-2,.721A2.924,2.924,0,0,0,90,171.586V180H87.82v-8.309q0-2.766-2.707-2.766a2.9,2.9,0,0,0-2.918,1.816V180H80.027V167.32Zm18.422,6.223a7.489,7.489,0,0,1,.732-3.352,5.464,5.464,0,0,1,2.039-2.3,5.551,5.551,0,0,1,2.982-.809,5.347,5.347,0,0,1,4.189,1.793,6.9,6.9,0,0,1,1.6,4.77v.152a7.555,7.555,0,0,1-.709,3.322,5.383,5.383,0,0,1-2.027,2.291,5.614,5.614,0,0,1-3.029.82,5.334,5.334,0,0,1-4.178-1.793,6.863,6.863,0,0,1-1.6-4.746Zm2.18.258a5.424,5.424,0,0,0,.979,3.387,3.316,3.316,0,0,0,5.244-.018,5.932,5.932,0,0,0,.973-3.627,5.415,5.415,0,0,0-.99-3.381,3.148,3.148,0,0,0-2.631-1.295,3.113,3.113,0,0,0-2.59,1.277A5.888,5.888,0,0,0,102.68,173.8Zm11.555-.246a7.428,7.428,0,0,1,1.383-4.693,4.7,4.7,0,0,1,7.148-.252V162h2.168v18h-1.992l-.105-1.359a4.415,4.415,0,0,1-3.621,1.594,4.331,4.331,0,0,1-3.592-1.8,7.512,7.512,0,0,1-1.389-4.711Zm2.168.246a5.624,5.624,0,0,0,.891,3.375,2.879,2.879,0,0,0,2.461,1.219,3.163,3.163,0,0,0,3.012-1.852v-5.824a3.187,3.187,0,0,0-2.988-1.793,2.893,2.893,0,0,0-2.484,1.23A6.192,6.192,0,0,0,116.4,173.8Zm17.156,6.434a5.54,5.54,0,0,1-4.2-1.693,6.285,6.285,0,0,1-1.617-4.529v-.4a7.609,7.609,0,0,1,.721-3.369,5.622,5.622,0,0,1,2.016-2.32,5.068,5.068,0,0,1,2.807-.838,4.749,4.749,0,0,1,3.844,1.629,7.053,7.053,0,0,1,1.371,4.664v.9h-8.59a4.507,4.507,0,0,0,1.1,3.029,3.444,3.444,0,0,0,2.666,1.154,3.776,3.776,0,0,0,1.945-.469,4.888,4.888,0,0,0,1.395-1.242l1.324,1.031A5.325,5.325,0,0,1,133.559,180.234Zm-.27-11.367a2.892,2.892,0,0,0-2.2.955,4.642,4.642,0,0,0-1.1,2.678h6.352v-.164a4.129,4.129,0,0,0-.891-2.561A2.723,2.723,0,0,0,133.289,168.867ZM143.367,180H141.2V162h2.168Zm2.895-6.457a7.489,7.489,0,0,1,.732-3.352,5.464,5.464,0,0,1,2.039-2.3,5.551,5.551,0,0,1,2.982-.809,5.347,5.347,0,0,1,4.189,1.793,6.9,6.9,0,0,1,1.6,4.77v.152a7.555,7.555,0,0,1-.709,3.322,5.383,5.383,0,0,1-2.027,2.291,5.614,5.614,0,0,1-3.029.82,5.334,5.334,0,0,1-4.178-1.793,6.863,6.863,0,0,1-1.6-4.746Zm2.18.258a5.424,5.424,0,0,0,.979,3.387,3.316,3.316,0,0,0,5.244-.018,5.932,5.932,0,0,0,.973-3.627,5.415,5.415,0,0,0-.99-3.381,3.148,3.148,0,0,0-2.631-1.295,3.113,3.113,0,0,0-2.59,1.277A5.888,5.888,0,0,0,148.441,173.8Zm11.742-5.285a1.358,1.358,0,0,1,.334-.937,1.273,1.273,0,0,1,1-.375,1.311,1.311,0,0,1,1.014.375,1.33,1.33,0,0,1,.346.938,1.258,1.258,0,0,1-.346.9,1.334,1.334,0,0,1-1.014.363,1.205,1.205,0,0,1-1.336-1.266Zm.41,14.883-1.23-.844a5.655,5.655,0,0,0,1.148-3.164v-1.957h2.121v1.7a5.338,5.338,0,0,1-.58,2.367A5.542,5.542,0,0,1,160.594,183.4Z" transform="translate(9237 -10709)" fill="#2d679a"/>
  </g>
</svg>
