<svg xmlns="http://www.w3.org/2000/svg" xmlns:xlink="http://www.w3.org/1999/xlink" width="365.099" height="380.11" viewBox="0 0 365.099 380.11">
  <defs>
    <clipPath id="clip-path">
      <path id="Trazado_165434" data-name="Trazado 165434" d="M0,2.411A2.41,2.41,0,1,0,2.409,0,2.409,2.409,0,0,0,0,2.411" fill="#2efec7"/>
    </clipPath>
    <clipPath id="clip-path-2">
      <path id="Trazado_165436" data-name="Trazado 165436" d="M0,2.41A2.41,2.41,0,1,0,2.41,0h0A2.412,2.412,0,0,0,0,2.41" fill="#2efec7"/>
    </clipPath>
    <clipPath id="clip-path-3">
      <path id="Trazado_165438" data-name="Trazado 165438" d="M2.409,0a2.409,2.409,0,1,0,2.41,2.41A2.409,2.409,0,0,0,2.409,0Z" fill="#2efec7"/>
    </clipPath>
    <clipPath id="clip-path-4">
      <path id="Trazado_165440" data-name="Trazado 165440" d="M0,2.411A2.409,2.409,0,1,0,2.409,0,2.41,2.41,0,0,0,0,2.411" fill="#2efec7"/>
    </clipPath>
    <clipPath id="clip-path-5">
      <path id="Trazado_165442" data-name="Trazado 165442" d="M0,2.41A2.409,2.409,0,1,0,2.409,0,2.409,2.409,0,0,0,0,2.41" fill="#2efec7"/>
    </clipPath>
    <clipPath id="clip-path-6">
      <path id="Trazado_165444" data-name="Trazado 165444" d="M2.408,0a2.409,2.409,0,1,0,2.41,2.41A2.408,2.408,0,0,0,2.408,0Z" fill="#2efec7"/>
    </clipPath>
    <clipPath id="clip-path-7">
      <path id="Trazado_165446" data-name="Trazado 165446" d="M0,2.411A2.41,2.41,0,1,0,2.409,0,2.41,2.41,0,0,0,0,2.411" fill="#2efec7"/>
    </clipPath>
    <clipPath id="clip-path-9">
      <path id="Trazado_165450" data-name="Trazado 165450" d="M2.408,0a2.409,2.409,0,1,0,2.41,2.41A2.409,2.409,0,0,0,2.408,0Z" fill="#2efec7"/>
    </clipPath>
    <clipPath id="clip-path-10">
      <path id="Trazado_165452" data-name="Trazado 165452" d="M0,2.411A2.409,2.409,0,1,0,2.409,0,2.409,2.409,0,0,0,0,2.411" fill="#2efec7"/>
    </clipPath>
  </defs>
  <g id="Grupo_128090" data-name="Grupo 128090" transform="translate(-9146.901 10268)">
    <g id="Grupo_113885" data-name="Grupo 113885" transform="translate(18252.902 -2443.698)">
      <g id="Rectángulo_45283" data-name="Rectángulo 45283" transform="translate(-9105.902 -7806.302)" fill="#fff" stroke="#ffb476" stroke-width="1">
        <rect width="365" height="329" rx="10" stroke="none"/>
        <rect x="0.5" y="0.5" width="364" height="328" rx="9.5" fill="none"/>
      </g>
      <rect id="Rectángulo_37181" data-name="Rectángulo 37181" width="37.283" height="79.589" rx="18.642" transform="translate(-9049.723 -7526.833) rotate(45)" fill="#ff6148"/>
      <rect id="Rectángulo_37182" data-name="Rectángulo 37182" width="21.848" height="45.778" rx="10.924" transform="translate(-8768.526 -7824.302) rotate(45)" fill="#ffb476"/>
      <g id="Grupo_110632" data-name="Grupo 110632" transform="translate(-8803.767 -7453.928) rotate(-90)">
        <g id="Group_881454" data-name="Group 881454" transform="translate(0 39.156)">
          <g id="Grupo_108438" data-name="Grupo 108438">
            <path id="Trazado_165433" data-name="Trazado 165433" d="M0,2.411A2.41,2.41,0,1,0,2.409,0,2.409,2.409,0,0,0,0,2.411" fill="#2efec7"/>
            <g id="Grupo_108437" data-name="Grupo 108437" clip-path="url(#clip-path)">
              <g id="Group_881453" data-name="Group 881453" transform="translate(0 0)">
                <rect id="Rectangle_298909" data-name="Rectangle 298909" width="4.818" height="4.818" fill="#2efec7"/>
              </g>
            </g>
          </g>
        </g>
        <g id="Group_881456" data-name="Group 881456" transform="translate(0 20.38)">
          <g id="Grupo_108440" data-name="Grupo 108440">
            <path id="Trazado_165435" data-name="Trazado 165435" d="M0,2.41A2.41,2.41,0,1,0,2.41,0h0A2.412,2.412,0,0,0,0,2.41" fill="#2efec7"/>
            <g id="Grupo_108439" data-name="Grupo 108439" clip-path="url(#clip-path-2)">
              <g id="Group_881455" data-name="Group 881455" transform="translate(0 0)">
                <rect id="Rectangle_298910" data-name="Rectangle 298910" width="4.818" height="4.818" fill="#2efec7"/>
              </g>
            </g>
          </g>
        </g>
        <g id="Group_881458" data-name="Group 881458" transform="translate(0.001 0)">
          <g id="Grupo_108442" data-name="Grupo 108442">
            <path id="Trazado_165437" data-name="Trazado 165437" d="M2.409,0a2.409,2.409,0,1,0,2.41,2.41A2.409,2.409,0,0,0,2.409,0Z" fill="#2efec7"/>
            <g id="Grupo_108441" data-name="Grupo 108441" clip-path="url(#clip-path-3)">
              <g id="Group_881457" data-name="Group 881457" transform="translate(-0.001 0.001)">
                <rect id="Rectangle_298911" data-name="Rectangle 298911" width="4.818" height="4.818" fill="#2efec7"/>
              </g>
            </g>
          </g>
        </g>
        <g id="Group_881460" data-name="Group 881460" transform="translate(16.33 39.156)">
          <g id="Grupo_108444" data-name="Grupo 108444">
            <path id="Trazado_165439" data-name="Trazado 165439" d="M0,2.411A2.409,2.409,0,1,0,2.409,0,2.41,2.41,0,0,0,0,2.411" fill="#2efec7"/>
            <g id="Grupo_108443" data-name="Grupo 108443" clip-path="url(#clip-path-4)">
              <g id="Group_881459" data-name="Group 881459" transform="translate(0 0)">
                <rect id="Rectangle_298912" data-name="Rectangle 298912" width="4.818" height="4.818" fill="#2efec7"/>
              </g>
            </g>
          </g>
        </g>
        <g id="Group_881462" data-name="Group 881462" transform="translate(16.33 20.38)">
          <g id="Grupo_108446" data-name="Grupo 108446">
            <path id="Trazado_165441" data-name="Trazado 165441" d="M0,2.41A2.409,2.409,0,1,0,2.409,0,2.409,2.409,0,0,0,0,2.41" fill="#2efec7"/>
            <g id="Grupo_108445" data-name="Grupo 108445" clip-path="url(#clip-path-5)">
              <g id="Group_881461" data-name="Group 881461" transform="translate(0 0)">
                <rect id="Rectangle_298913" data-name="Rectangle 298913" width="4.818" height="4.818" fill="#2efec7"/>
              </g>
            </g>
          </g>
        </g>
        <g id="Group_881464" data-name="Group 881464" transform="translate(16.331 0)">
          <g id="Grupo_108448" data-name="Grupo 108448" transform="translate(0)">
            <path id="Trazado_165443" data-name="Trazado 165443" d="M2.408,0a2.409,2.409,0,1,0,2.41,2.41A2.408,2.408,0,0,0,2.408,0Z" fill="#2efec7"/>
            <g id="Grupo_108447" data-name="Grupo 108447" clip-path="url(#clip-path-6)">
              <g id="Group_881463" data-name="Group 881463" transform="translate(-0.001 0.001)">
                <rect id="Rectangle_298914" data-name="Rectangle 298914" width="4.818" height="4.818" fill="#2efec7"/>
              </g>
            </g>
          </g>
        </g>
        <g id="Group_881454-2" data-name="Group 881454" transform="translate(33.365 39.156)">
          <g id="Grupo_108450" data-name="Grupo 108450">
            <path id="Trazado_165445" data-name="Trazado 165445" d="M0,2.411A2.41,2.41,0,1,0,2.409,0,2.41,2.41,0,0,0,0,2.411" fill="#2efec7"/>
            <g id="Grupo_108449" data-name="Grupo 108449" clip-path="url(#clip-path-7)">
              <g id="Group_881453-2" data-name="Group 881453" transform="translate(0 0)">
                <rect id="Rectangle_298909-2" data-name="Rectangle 298909" width="4.818" height="4.818" fill="#2efec7"/>
              </g>
            </g>
          </g>
        </g>
        <g id="Group_881456-2" data-name="Group 881456" transform="translate(33.365 20.38)">
          <g id="Grupo_108452" data-name="Grupo 108452">
            <path id="Trazado_165447" data-name="Trazado 165447" d="M0,2.41A2.41,2.41,0,1,0,2.41,0h0A2.412,2.412,0,0,0,0,2.41" fill="#2efec7"/>
            <g id="Grupo_108451" data-name="Grupo 108451" clip-path="url(#clip-path-2)">
              <g id="Group_881455-2" data-name="Group 881455" transform="translate(0 0)">
                <rect id="Rectangle_298910-2" data-name="Rectangle 298910" width="4.818" height="4.818" fill="#2efec7"/>
              </g>
            </g>
          </g>
        </g>
        <g id="Group_881458-2" data-name="Group 881458" transform="translate(33.366 0)">
          <g id="Grupo_108454" data-name="Grupo 108454" transform="translate(0)">
            <path id="Trazado_165449" data-name="Trazado 165449" d="M2.408,0a2.409,2.409,0,1,0,2.41,2.41A2.409,2.409,0,0,0,2.408,0Z" fill="#2efec7"/>
            <g id="Grupo_108453" data-name="Grupo 108453" clip-path="url(#clip-path-9)">
              <g id="Group_881457-2" data-name="Group 881457" transform="translate(-0.001 0.001)">
                <rect id="Rectangle_298911-2" data-name="Rectangle 298911" width="4.818" height="4.818" fill="#2efec7"/>
              </g>
            </g>
          </g>
        </g>
        <g id="Group_881460-2" data-name="Group 881460" transform="translate(49.695 39.156)">
          <g id="Grupo_108456" data-name="Grupo 108456">
            <path id="Trazado_165451" data-name="Trazado 165451" d="M0,2.411A2.409,2.409,0,1,0,2.409,0,2.409,2.409,0,0,0,0,2.411" fill="#2efec7"/>
            <g id="Grupo_108455" data-name="Grupo 108455" clip-path="url(#clip-path-10)">
              <g id="Group_881459-2" data-name="Group 881459" transform="translate(0 0)">
                <rect id="Rectangle_298912-2" data-name="Rectangle 298912" width="4.818" height="4.818" fill="#2efec7"/>
              </g>
            </g>
          </g>
        </g>
        <g id="Group_881462-2" data-name="Group 881462" transform="translate(49.695 20.38)">
          <g id="Grupo_108458" data-name="Grupo 108458">
            <path id="Trazado_165453" data-name="Trazado 165453" d="M0,2.41A2.409,2.409,0,1,0,2.409,0,2.409,2.409,0,0,0,0,2.41" fill="#2efec7"/>
            <g id="Grupo_108457" data-name="Grupo 108457" clip-path="url(#clip-path-5)">
              <g id="Group_881461-2" data-name="Group 881461" transform="translate(0 0)">
                <rect id="Rectangle_298913-2" data-name="Rectangle 298913" width="4.818" height="4.818" fill="#2efec7"/>
              </g>
            </g>
          </g>
        </g>
        <g id="Group_881464-2" data-name="Group 881464" transform="translate(49.696 0)">
          <g id="Grupo_108460" data-name="Grupo 108460" transform="translate(0)">
            <path id="Trazado_165455" data-name="Trazado 165455" d="M2.408,0a2.409,2.409,0,1,0,2.41,2.41A2.409,2.409,0,0,0,2.408,0Z" fill="#2efec7"/>
            <g id="Grupo_108459" data-name="Grupo 108459" clip-path="url(#clip-path-9)">
              <g id="Group_881463-2" data-name="Group 881463" transform="translate(-0.001 0.001)">
                <rect id="Rectangle_298914-2" data-name="Rectangle 298914" width="4.818" height="4.818" fill="#2efec7"/>
              </g>
            </g>
          </g>
        </g>
      </g>
    </g>
    <path id="Trazado_172613" data-name="Trazado 172613" d="M4.23,18.32V25H1.98V7.938H8.273a6.322,6.322,0,0,1,4.389,1.43,4.847,4.847,0,0,1,1.588,3.785A4.783,4.783,0,0,1,12.7,16.979,6.6,6.6,0,0,1,8.25,18.32Zm0-1.84H8.273a4.042,4.042,0,0,0,2.766-.851A3.112,3.112,0,0,0,12,13.17a3.215,3.215,0,0,0-.961-2.442A3.787,3.787,0,0,0,8.4,9.777H4.23Zm20.379,7.266a4.6,4.6,0,0,1-3.715,1.488,3.942,3.942,0,0,1-3.088-1.178,5.1,5.1,0,0,1-1.072-3.486V12.32H18.9v8.191q0,2.883,2.344,2.883a3.245,3.245,0,0,0,3.3-1.852V12.32h2.168V25H24.656ZM40.746,18.8a7.539,7.539,0,0,1-1.336,4.67,4.269,4.269,0,0,1-3.586,1.764,4.42,4.42,0,0,1-3.715-1.7L32,25H30.012V7H32.18v6.715A4.4,4.4,0,0,1,35.8,12.086a4.3,4.3,0,0,1,3.627,1.746,7.766,7.766,0,0,1,1.318,4.781Zm-2.168-.246a5.858,5.858,0,0,0-.855-3.422,2.832,2.832,0,0,0-2.461-1.207,3.183,3.183,0,0,0-3.082,1.992V21.4a3.272,3.272,0,0,0,3.105,1.992,2.816,2.816,0,0,0,2.426-1.207A6.23,6.23,0,0,0,38.578,18.555ZM45.832,25H43.664V7h2.168Zm5.824,0H49.488V12.32h2.168ZM49.313,8.957a1.294,1.294,0,0,1,.322-.891A1.21,1.21,0,0,1,50.59,7.7a1.229,1.229,0,0,1,.961.363,1.28,1.28,0,0,1,.328.891,1.238,1.238,0,0,1-.328.879,1.251,1.251,0,0,1-.961.352,1.232,1.232,0,0,1-.955-.352A1.251,1.251,0,0,1,49.313,8.957Zm10.9,14.508a3.123,3.123,0,0,0,2.027-.7A2.474,2.474,0,0,0,63.2,21H65.25a3.931,3.931,0,0,1-.75,2.074,4.94,4.94,0,0,1-1.846,1.57,5.326,5.326,0,0,1-2.443.586,5.223,5.223,0,0,1-4.119-1.729,6.884,6.884,0,0,1-1.529-4.729v-.363a7.634,7.634,0,0,1,.68-3.293,5.177,5.177,0,0,1,1.951-2.238,5.543,5.543,0,0,1,3.006-.8,5.085,5.085,0,0,1,3.545,1.277A4.565,4.565,0,0,1,65.25,16.68H63.2a2.988,2.988,0,0,0-.932-2.021,2.9,2.9,0,0,0-2.068-.791,3.034,3.034,0,0,0-2.561,1.189A5.586,5.586,0,0,0,56.73,18.5v.41a5.475,5.475,0,0,0,.9,3.375A3.049,3.049,0,0,0,60.211,23.465Zm17.6-1.406,3.141-9.738h2.215L78.621,25H76.969L72.375,12.32H74.59ZM84.5,18.543a7.489,7.489,0,0,1,.732-3.352,5.464,5.464,0,0,1,2.039-2.3,5.551,5.551,0,0,1,2.982-.809,5.347,5.347,0,0,1,4.189,1.793,6.9,6.9,0,0,1,1.6,4.77V18.8a7.555,7.555,0,0,1-.709,3.322,5.383,5.383,0,0,1-2.027,2.291,5.614,5.614,0,0,1-3.029.82A5.334,5.334,0,0,1,86.1,23.441,6.863,6.863,0,0,1,84.5,18.7Zm2.18.258a5.424,5.424,0,0,0,.979,3.387,3.316,3.316,0,0,0,5.244-.018,5.932,5.932,0,0,0,.973-3.627,5.415,5.415,0,0,0-.99-3.381,3.148,3.148,0,0,0-2.631-1.295,3.113,3.113,0,0,0-2.59,1.277A5.888,5.888,0,0,0,86.684,18.8ZM101.121,25H98.953V12.32h2.168ZM98.777,8.957a1.294,1.294,0,0,1,.322-.891,1.21,1.21,0,0,1,.955-.363,1.229,1.229,0,0,1,.961.363,1.28,1.28,0,0,1,.328.891,1.238,1.238,0,0,1-.328.879,1.251,1.251,0,0,1-.961.352,1.232,1.232,0,0,1-.955-.352A1.251,1.251,0,0,1,98.777,8.957Zm5.285,9.6a7.428,7.428,0,0,1,1.383-4.693,4.7,4.7,0,0,1,7.148-.252V7h2.168V25H112.77l-.105-1.359a4.415,4.415,0,0,1-3.621,1.594,4.331,4.331,0,0,1-3.592-1.8,7.512,7.512,0,0,1-1.389-4.711Zm2.168.246a5.624,5.624,0,0,0,.891,3.375,2.879,2.879,0,0,0,2.461,1.219,3.163,3.163,0,0,0,3.012-1.852V15.719a3.187,3.187,0,0,0-2.988-1.793,2.893,2.893,0,0,0-2.484,1.23A6.192,6.192,0,0,0,106.23,18.8Zm27.82-1.687h-7.395V23.16h8.59V25h-10.84V7.938h10.723v1.84h-8.473v5.5h7.395Zm5.707-4.793.07,1.594a4.621,4.621,0,0,1,3.8-1.828q4.02,0,4.055,4.535V25h-2.168V16.609a2.919,2.919,0,0,0-.627-2.027,2.512,2.512,0,0,0-1.916-.656,3.129,3.129,0,0,0-1.852.563,3.82,3.82,0,0,0-1.242,1.477V25h-2.168V12.32Zm16.277,11.145a3.123,3.123,0,0,0,2.027-.7A2.474,2.474,0,0,0,159.023,21h2.051a3.931,3.931,0,0,1-.75,2.074,4.94,4.94,0,0,1-1.846,1.57,5.326,5.326,0,0,1-2.443.586,5.223,5.223,0,0,1-4.119-1.729,6.884,6.884,0,0,1-1.529-4.729v-.363a7.634,7.634,0,0,1,.68-3.293,5.177,5.177,0,0,1,1.951-2.238,5.543,5.543,0,0,1,3.006-.8,5.085,5.085,0,0,1,3.545,1.277,4.565,4.565,0,0,1,1.506,3.316h-2.051a2.988,2.988,0,0,0-.932-2.021,2.9,2.9,0,0,0-2.068-.791,3.034,3.034,0,0,0-2.561,1.189,5.586,5.586,0,0,0-.908,3.439v.41a5.475,5.475,0,0,0,.9,3.375A3.049,3.049,0,0,0,156.035,23.465Zm12.738,1.77a5.54,5.54,0,0,1-4.2-1.693,6.285,6.285,0,0,1-1.617-4.529v-.4a7.609,7.609,0,0,1,.721-3.369,5.622,5.622,0,0,1,2.016-2.32,5.068,5.068,0,0,1,2.807-.838,4.749,4.749,0,0,1,3.844,1.629,7.053,7.053,0,0,1,1.371,4.664v.9h-8.59a4.507,4.507,0,0,0,1.1,3.029,3.444,3.444,0,0,0,2.666,1.154A3.776,3.776,0,0,0,170.836,23a4.888,4.888,0,0,0,1.395-1.242l1.324,1.031A5.325,5.325,0,0,1,168.773,25.234Zm-.27-11.367a2.892,2.892,0,0,0-2.2.955,4.642,4.642,0,0,0-1.1,2.678h6.352v-.164a4.129,4.129,0,0,0-.891-2.561A2.723,2.723,0,0,0,168.5,13.867Zm9.773-1.547.07,1.594a4.621,4.621,0,0,1,3.8-1.828q4.02,0,4.055,4.535V25h-2.168V16.609a2.919,2.919,0,0,0-.627-2.027,2.512,2.512,0,0,0-1.916-.656,3.129,3.129,0,0,0-1.852.563,3.82,3.82,0,0,0-1.242,1.477V25h-2.168V12.32Zm10.664,6.234a7.428,7.428,0,0,1,1.383-4.693,4.7,4.7,0,0,1,7.148-.252V7h2.168V25h-1.992l-.105-1.359a4.415,4.415,0,0,1-3.621,1.594,4.331,4.331,0,0,1-3.592-1.8,7.512,7.512,0,0,1-1.389-4.711Zm2.168.246A5.624,5.624,0,0,0,192,22.176a2.879,2.879,0,0,0,2.461,1.219,3.163,3.163,0,0,0,3.012-1.852V15.719a3.187,3.187,0,0,0-2.988-1.793A2.893,2.893,0,0,0,192,15.156,6.192,6.192,0,0,0,191.109,18.8Zm17.156,6.434a5.54,5.54,0,0,1-4.2-1.693,6.285,6.285,0,0,1-1.617-4.529v-.4a7.609,7.609,0,0,1,.721-3.369,5.622,5.622,0,0,1,2.016-2.32A5.068,5.068,0,0,1,208,12.086a4.749,4.749,0,0,1,3.844,1.629,7.053,7.053,0,0,1,1.371,4.664v.9h-8.59a4.507,4.507,0,0,0,1.1,3.029,3.444,3.444,0,0,0,2.666,1.154A3.776,3.776,0,0,0,210.328,23a4.888,4.888,0,0,0,1.395-1.242l1.324,1.031A5.325,5.325,0,0,1,208.266,25.234ZM208,13.867a2.892,2.892,0,0,0-2.2.955,4.642,4.642,0,0,0-1.1,2.678h6.352v-.164a4.129,4.129,0,0,0-.891-2.561A2.723,2.723,0,0,0,208,13.867Zm13.852.4a6.5,6.5,0,0,0-1.066-.082A2.857,2.857,0,0,0,217.887,16v9h-2.168V12.32h2.109l.035,1.465a3.376,3.376,0,0,1,3.023-1.7,2.215,2.215,0,0,1,.961.164Zm1.91,3.809a18.118,18.118,0,0,1,.709-5.086,14.774,14.774,0,0,1,2.115-4.43A9,9,0,0,1,229.5,5.746l.445,1.43a9.333,9.333,0,0,0-2.807,4.008,17.374,17.374,0,0,0-1.2,6.035l-.012,1a17.465,17.465,0,0,0,1.652,7.852,9.377,9.377,0,0,0,2.367,3.117l-.445,1.324a9.288,9.288,0,0,1-2.977-2.906A16.289,16.289,0,0,1,223.758,18.074Zm19.23.117a18.127,18.127,0,0,1-.686,5.01,14.814,14.814,0,0,1-2.1,4.424,9.191,9.191,0,0,1-2.959,2.883l-.457-1.324a9.421,9.421,0,0,0,2.9-4.295,18.581,18.581,0,0,0,1.119-6.463v-.375a19.292,19.292,0,0,0-.516-4.576,15.444,15.444,0,0,0-1.436-3.791,8.756,8.756,0,0,0-2.068-2.613l.457-1.324a9.155,9.155,0,0,1,2.947,2.859,14.845,14.845,0,0,1,2.1,4.418A18.545,18.545,0,0,1,242.988,18.191ZM7.406,60.289a5.824,5.824,0,0,1-3.123-1.928,5.6,5.6,0,0,1-1.049-3.545V52.484q0-2.848-2.484-2.848v-1.7q2.484,0,2.484-2.836V42.664A5.587,5.587,0,0,1,4.283,39.2a5.83,5.83,0,0,1,3.123-1.916l.445,1.348Q5.4,39.418,5.4,42.723V45.09a3.828,3.828,0,0,1-1.957,3.7A3.875,3.875,0,0,1,5.4,52.531v2.414q.035,3.223,2.449,4Z" transform="translate(9207 -10231)" fill="#12263f"/>
    <path id="Trazado_172612" data-name="Trazado 172612" d="M4.582,9.25v3.07H6.949V14H4.582v7.873A1.76,1.76,0,0,0,4.9,23.013a1.332,1.332,0,0,0,1.078.381,5.249,5.249,0,0,0,1.031-.141V25a6.322,6.322,0,0,1-1.664.233,2.7,2.7,0,0,1-2.191-.879,3.776,3.776,0,0,1-.738-2.5V14H.105V12.32H2.414V9.25Zm7.066,4.605a4.609,4.609,0,0,1,3.75-1.77q4.02,0,4.055,4.535V25H17.285V16.609a2.919,2.919,0,0,0-.627-2.027,2.512,2.512,0,0,0-1.916-.656,3.129,3.129,0,0,0-1.852.563,3.82,3.82,0,0,0-1.242,1.477V25H9.48V7h2.168ZM25.055,25H22.887V12.32h2.168ZM22.711,8.957a1.294,1.294,0,0,1,.322-.891,1.21,1.21,0,0,1,.955-.363,1.229,1.229,0,0,1,.961.363,1.28,1.28,0,0,1,.328.891,1.238,1.238,0,0,1-.328.879,1.251,1.251,0,0,1-.961.352,1.232,1.232,0,0,1-.955-.352A1.251,1.251,0,0,1,22.711,8.957Zm13.2,12.68a1.6,1.6,0,0,0-.662-1.365,6.373,6.373,0,0,0-2.309-.838,10.915,10.915,0,0,1-2.613-.844,3.718,3.718,0,0,1-1.43-1.172A2.8,2.8,0,0,1,28.43,15.8a3.289,3.289,0,0,1,1.318-2.637,5.149,5.149,0,0,1,3.369-1.078,5.3,5.3,0,0,1,3.5,1.113,3.536,3.536,0,0,1,1.342,2.848h-2.18a1.957,1.957,0,0,0-.756-1.535,2.832,2.832,0,0,0-1.9-.645,2.964,2.964,0,0,0-1.852.516A1.623,1.623,0,0,0,30.6,15.73a1.315,1.315,0,0,0,.621,1.184,7.642,7.642,0,0,0,2.244.762,11.693,11.693,0,0,1,2.631.867,3.838,3.838,0,0,1,1.494,1.213,2.982,2.982,0,0,1,.486,1.729,3.245,3.245,0,0,1-1.359,2.725,5.7,5.7,0,0,1-3.527,1.025,6.385,6.385,0,0,1-2.7-.539,4.384,4.384,0,0,1-1.834-1.506A3.629,3.629,0,0,1,28,21.1h2.168a2.245,2.245,0,0,0,.873,1.729,3.387,3.387,0,0,0,2.15.639,3.5,3.5,0,0,0,1.975-.5A1.53,1.53,0,0,0,35.906,21.637Zm5.039,2.227a1.358,1.358,0,0,1,.334-.937,1.273,1.273,0,0,1,1-.375,1.311,1.311,0,0,1,1.014.375,1.33,1.33,0,0,1,.346.938,1.258,1.258,0,0,1-.346.9,1.334,1.334,0,0,1-1.014.363,1.205,1.205,0,0,1-1.336-1.266Zm17.473,1.371a5.54,5.54,0,0,1-4.2-1.693,6.285,6.285,0,0,1-1.617-4.529v-.4a7.609,7.609,0,0,1,.721-3.369,5.622,5.622,0,0,1,2.016-2.32,5.068,5.068,0,0,1,2.807-.838,4.749,4.749,0,0,1,3.844,1.629,7.053,7.053,0,0,1,1.371,4.664v.9h-8.59a4.507,4.507,0,0,0,1.1,3.029,3.444,3.444,0,0,0,2.666,1.154A3.776,3.776,0,0,0,60.48,23a4.888,4.888,0,0,0,1.395-1.242L63.2,22.785A5.325,5.325,0,0,1,58.418,25.234Zm-.27-11.367a2.892,2.892,0,0,0-2.2.955,4.642,4.642,0,0,0-1.1,2.678H61.2v-.164a4.129,4.129,0,0,0-.891-2.561A2.723,2.723,0,0,0,58.148,13.867Zm9.773-1.547.07,1.594a4.621,4.621,0,0,1,3.8-1.828q4.02,0,4.055,4.535V25H73.676V16.609a2.919,2.919,0,0,0-.627-2.027,2.512,2.512,0,0,0-1.916-.656,3.129,3.129,0,0,0-1.852.563,3.82,3.82,0,0,0-1.242,1.477V25H65.871V12.32ZM84.2,23.465a3.123,3.123,0,0,0,2.027-.7A2.474,2.474,0,0,0,87.188,21h2.051a3.931,3.931,0,0,1-.75,2.074,4.94,4.94,0,0,1-1.846,1.57,5.326,5.326,0,0,1-2.443.586,5.223,5.223,0,0,1-4.119-1.729,6.884,6.884,0,0,1-1.529-4.729v-.363a7.634,7.634,0,0,1,.68-3.293,5.177,5.177,0,0,1,1.951-2.238,5.543,5.543,0,0,1,3.006-.8,5.085,5.085,0,0,1,3.545,1.277,4.565,4.565,0,0,1,1.506,3.316H87.188a2.988,2.988,0,0,0-.932-2.021,2.9,2.9,0,0,0-2.068-.791,3.034,3.034,0,0,0-2.561,1.189,5.586,5.586,0,0,0-.908,3.439v.41a5.475,5.475,0,0,0,.9,3.375A3.049,3.049,0,0,0,84.2,23.465Zm12.738,1.77a5.54,5.54,0,0,1-4.2-1.693,6.285,6.285,0,0,1-1.617-4.529v-.4a7.609,7.609,0,0,1,.721-3.369,5.622,5.622,0,0,1,2.016-2.32,5.068,5.068,0,0,1,2.807-.838,4.749,4.749,0,0,1,3.844,1.629,7.053,7.053,0,0,1,1.371,4.664v.9h-8.59a4.507,4.507,0,0,0,1.1,3.029,3.444,3.444,0,0,0,2.666,1.154A3.776,3.776,0,0,0,99,23a4.888,4.888,0,0,0,1.395-1.242l1.324,1.031A5.325,5.325,0,0,1,96.938,25.234Zm-.27-11.367a2.892,2.892,0,0,0-2.2.955,4.642,4.642,0,0,0-1.1,2.678h6.352v-.164a4.129,4.129,0,0,0-.891-2.561A2.723,2.723,0,0,0,96.668,13.867Zm9.773-1.547.07,1.594a4.621,4.621,0,0,1,3.8-1.828q4.02,0,4.055,4.535V25H112.2V16.609a2.919,2.919,0,0,0-.627-2.027,2.512,2.512,0,0,0-1.916-.656,3.129,3.129,0,0,0-1.852.563,3.82,3.82,0,0,0-1.242,1.477V25h-2.168V12.32Zm10.664,6.234a7.428,7.428,0,0,1,1.383-4.693,4.7,4.7,0,0,1,7.148-.252V7H127.8V25h-1.992l-.105-1.359a4.415,4.415,0,0,1-3.621,1.594,4.331,4.331,0,0,1-3.592-1.8,7.512,7.512,0,0,1-1.389-4.711Zm2.168.246a5.624,5.624,0,0,0,.891,3.375,2.879,2.879,0,0,0,2.461,1.219,3.163,3.163,0,0,0,3.012-1.852V15.719a3.187,3.187,0,0,0-2.988-1.793,2.893,2.893,0,0,0-2.484,1.23A6.192,6.192,0,0,0,119.273,18.8Zm14.25,6.2h-2.168V12.32h2.168ZM131.18,8.957a1.294,1.294,0,0,1,.322-.891,1.21,1.21,0,0,1,.955-.363,1.229,1.229,0,0,1,.961.363,1.28,1.28,0,0,1,.328.891,1.238,1.238,0,0,1-.328.879,1.251,1.251,0,0,1-.961.352,1.232,1.232,0,0,1-.955-.352A1.251,1.251,0,0,1,131.18,8.957Zm5.285,9.6a7.428,7.428,0,0,1,1.383-4.693A4.7,4.7,0,0,1,145,13.609V7h2.168V25h-1.992l-.105-1.359a4.415,4.415,0,0,1-3.621,1.594,4.331,4.331,0,0,1-3.592-1.8,7.512,7.512,0,0,1-1.389-4.711Zm2.168.246a5.624,5.624,0,0,0,.891,3.375,2.879,2.879,0,0,0,2.461,1.219A3.163,3.163,0,0,0,145,21.543V15.719a3.187,3.187,0,0,0-2.988-1.793,2.893,2.893,0,0,0-2.484,1.23A6.192,6.192,0,0,0,138.633,18.8Zm11.32-.258a7.489,7.489,0,0,1,.732-3.352,5.464,5.464,0,0,1,2.039-2.3,5.551,5.551,0,0,1,2.982-.809,5.347,5.347,0,0,1,4.189,1.793,6.9,6.9,0,0,1,1.6,4.77V18.8a7.555,7.555,0,0,1-.709,3.322,5.383,5.383,0,0,1-2.027,2.291,5.614,5.614,0,0,1-3.029.82,5.334,5.334,0,0,1-4.178-1.793,6.863,6.863,0,0,1-1.6-4.746Zm2.18.258a5.424,5.424,0,0,0,.979,3.387,3.316,3.316,0,0,0,5.244-.018,5.932,5.932,0,0,0,.973-3.627,5.415,5.415,0,0,0-.99-3.381,3.148,3.148,0,0,0-2.631-1.295,3.113,3.113,0,0,0-2.59,1.277A5.888,5.888,0,0,0,152.133,18.8Zm27.938-3.34H170.3V13.574h9.773Zm0,4.863H170.3V18.449h9.773ZM192.211,9.25v3.07h2.367V14h-2.367v7.873a1.76,1.76,0,0,0,.316,1.144,1.332,1.332,0,0,0,1.078.381,5.249,5.249,0,0,0,1.031-.141V25a6.322,6.322,0,0,1-1.664.233,2.7,2.7,0,0,1-2.191-.879,3.776,3.776,0,0,1-.738-2.5V14h-2.309V12.32h2.309V9.25Zm11.027,5.016a6.5,6.5,0,0,0-1.066-.082A2.857,2.857,0,0,0,199.277,16v9h-2.168V12.32h2.109l.035,1.465a3.376,3.376,0,0,1,3.023-1.7,2.215,2.215,0,0,1,.961.164Zm9.82,9.48a4.6,4.6,0,0,1-3.715,1.488,3.942,3.942,0,0,1-3.088-1.178,5.1,5.1,0,0,1-1.072-3.486V12.32h2.168v8.191q0,2.883,2.344,2.883a3.245,3.245,0,0,0,3.3-1.852V12.32h2.168V25h-2.062Zm10.664,1.488a5.54,5.54,0,0,1-4.2-1.693,6.285,6.285,0,0,1-1.617-4.529v-.4a7.609,7.609,0,0,1,.721-3.369,5.622,5.622,0,0,1,2.016-2.32,5.068,5.068,0,0,1,2.807-.838,4.749,4.749,0,0,1,3.844,1.629,7.053,7.053,0,0,1,1.371,4.664v.9h-8.59a4.507,4.507,0,0,0,1.1,3.029,3.444,3.444,0,0,0,2.666,1.154A3.776,3.776,0,0,0,225.785,23a4.888,4.888,0,0,0,1.395-1.242l1.324,1.031A5.325,5.325,0,0,1,223.723,25.234Zm-.27-11.367a2.892,2.892,0,0,0-2.2.955,4.642,4.642,0,0,0-1.1,2.678H226.5v-.164a4.129,4.129,0,0,0-.891-2.561A2.723,2.723,0,0,0,223.453,13.867Zm7.383-.352a1.358,1.358,0,0,1,.334-.937,1.273,1.273,0,0,1,1-.375,1.311,1.311,0,0,1,1.014.375,1.33,1.33,0,0,1,.346.938,1.258,1.258,0,0,1-.346.9,1.334,1.334,0,0,1-1.014.363,1.205,1.205,0,0,1-1.336-1.266Zm.41,14.883-1.23-.844a5.655,5.655,0,0,0,1.148-3.164V22.434h2.121v1.7a5.338,5.338,0,0,1-.58,2.367A5.542,5.542,0,0,1,231.246,28.4Zm-224.238,20A10.58,10.58,0,0,1,2.795,46.35a3.907,3.907,0,0,1-1.318-2.994,4.127,4.127,0,0,1,1.611-3.334A6.4,6.4,0,0,1,7.277,38.7a6.99,6.99,0,0,1,3.135.68,5.154,5.154,0,0,1,2.133,1.875,4.8,4.8,0,0,1,.756,2.613H11.039a3.12,3.12,0,0,0-.984-2.44,4,4,0,0,0-2.777-.888,4.1,4.1,0,0,0-2.6.734,2.448,2.448,0,0,0-.932,2.037,2.2,2.2,0,0,0,.885,1.767A8.678,8.678,0,0,0,7.646,46.4a13.974,13.974,0,0,1,3.328,1.319A5.05,5.05,0,0,1,12.756,49.4a4.292,4.292,0,0,1,.58,2.262,3.987,3.987,0,0,1-1.617,3.322,6.9,6.9,0,0,1-4.324,1.248,8.02,8.02,0,0,1-3.281-.674,5.522,5.522,0,0,1-2.35-1.846,4.5,4.5,0,0,1-.826-2.66H3.2A2.939,2.939,0,0,0,4.342,53.5a4.811,4.811,0,0,0,3.053.9,4.423,4.423,0,0,0,2.73-.727,2.36,2.36,0,0,0,.949-1.98,2.317,2.317,0,0,0-.879-1.939A10.133,10.133,0,0,0,7.008,48.395Zm13.02,4.43,2.953-9.5H25.3L20.2,57.957q-1.184,3.164-3.762,3.164l-.41-.035-.809-.152V59.176l.586.047a2.885,2.885,0,0,0,1.717-.445,3.223,3.223,0,0,0,1.014-1.629l.48-1.289L14.5,43.32h2.367Zm14.59-.187a1.6,1.6,0,0,0-.662-1.365,6.373,6.373,0,0,0-2.309-.838,10.915,10.915,0,0,1-2.613-.844,3.718,3.718,0,0,1-1.43-1.172,2.8,2.8,0,0,1-.463-1.617,3.289,3.289,0,0,1,1.318-2.637,5.149,5.149,0,0,1,3.369-1.078,5.3,5.3,0,0,1,3.5,1.113,3.536,3.536,0,0,1,1.342,2.848h-2.18a1.957,1.957,0,0,0-.756-1.535,2.832,2.832,0,0,0-1.9-.645,2.964,2.964,0,0,0-1.852.516,1.623,1.623,0,0,0-.668,1.348,1.315,1.315,0,0,0,.621,1.184,7.642,7.642,0,0,0,2.244.762,11.693,11.693,0,0,1,2.631.867A3.838,3.838,0,0,1,36.3,50.756a2.982,2.982,0,0,1,.486,1.729,3.245,3.245,0,0,1-1.359,2.725A5.7,5.7,0,0,1,31.9,56.234a6.385,6.385,0,0,1-2.7-.539,4.384,4.384,0,0,1-1.834-1.506,3.629,3.629,0,0,1-.662-2.092h2.168a2.245,2.245,0,0,0,.873,1.729,3.387,3.387,0,0,0,2.15.639,3.5,3.5,0,0,0,1.975-.5A1.53,1.53,0,0,0,34.617,52.637ZM42.551,40.25v3.07h2.367V45H42.551v7.873a1.76,1.76,0,0,0,.316,1.144,1.332,1.332,0,0,0,1.078.381,5.249,5.249,0,0,0,1.031-.141V56a6.322,6.322,0,0,1-1.664.233,2.7,2.7,0,0,1-2.191-.879,3.776,3.776,0,0,1-.738-2.5V45H38.074V43.32h2.309V40.25Zm10.16,15.984a5.54,5.54,0,0,1-4.2-1.693A6.285,6.285,0,0,1,46.9,50.012v-.4a7.609,7.609,0,0,1,.721-3.369,5.622,5.622,0,0,1,2.016-2.32,5.068,5.068,0,0,1,2.807-.838,4.749,4.749,0,0,1,3.844,1.629,7.053,7.053,0,0,1,1.371,4.664v.9h-8.59a4.507,4.507,0,0,0,1.1,3.029,3.444,3.444,0,0,0,2.666,1.154A3.776,3.776,0,0,0,54.773,54a4.888,4.888,0,0,0,1.395-1.242l1.324,1.031A5.325,5.325,0,0,1,52.711,56.234Zm-.27-11.367a2.892,2.892,0,0,0-2.2.955,4.642,4.642,0,0,0-1.1,2.678h6.352v-.164a4.129,4.129,0,0,0-.891-2.561A2.723,2.723,0,0,0,52.441,44.867ZM62.2,43.32l.059,1.406a4.683,4.683,0,0,1,3.762-1.641,3.625,3.625,0,0,1,3.621,2.039,4.8,4.8,0,0,1,1.646-1.477,4.863,4.863,0,0,1,2.4-.562q4.172,0,4.242,4.418V56H75.762V47.633a2.911,2.911,0,0,0-.621-2.033,2.735,2.735,0,0,0-2.086-.674,2.875,2.875,0,0,0-2,.721,2.924,2.924,0,0,0-.926,1.939V56h-2.18V47.691q0-2.766-2.707-2.766a2.9,2.9,0,0,0-2.918,1.816V56H60.152V43.32ZM81.246,54.863a1.358,1.358,0,0,1,.334-.937,1.273,1.273,0,0,1,1-.375,1.311,1.311,0,0,1,1.014.375,1.33,1.33,0,0,1,.346.938,1.258,1.258,0,0,1-.346.9,1.334,1.334,0,0,1-1.014.363,1.205,1.205,0,0,1-1.336-1.266Zm5.7-5.32a7.489,7.489,0,0,1,.732-3.352,5.464,5.464,0,0,1,2.039-2.3,5.551,5.551,0,0,1,2.982-.809,5.347,5.347,0,0,1,4.189,1.793,6.9,6.9,0,0,1,1.6,4.77V49.8a7.555,7.555,0,0,1-.709,3.322,5.383,5.383,0,0,1-2.027,2.291,5.614,5.614,0,0,1-3.029.82,5.334,5.334,0,0,1-4.178-1.793,6.863,6.863,0,0,1-1.6-4.746Zm2.18.258a5.424,5.424,0,0,0,.979,3.387,3.316,3.316,0,0,0,5.244-.018,5.932,5.932,0,0,0,.973-3.627,5.415,5.415,0,0,0-.99-3.381A3.148,3.148,0,0,0,92.7,44.867a3.113,3.113,0,0,0-2.59,1.277A5.888,5.888,0,0,0,89.121,49.8Zm19.91,4.945a4.6,4.6,0,0,1-3.715,1.488,3.942,3.942,0,0,1-3.088-1.178,5.1,5.1,0,0,1-1.072-3.486V43.32h2.168v8.191q0,2.883,2.344,2.883a3.245,3.245,0,0,0,3.3-1.852V43.32h2.168V56h-2.062Zm8.344-14.5v3.07h2.367V45h-2.367v7.873a1.76,1.76,0,0,0,.316,1.144,1.332,1.332,0,0,0,1.078.381,5.249,5.249,0,0,0,1.031-.141V56a6.322,6.322,0,0,1-1.664.233,2.7,2.7,0,0,1-2.191-.879,3.776,3.776,0,0,1-.738-2.5V45H112.9V43.32h2.309V40.25Zm4.945,14.613a1.358,1.358,0,0,1,.334-.937,1.273,1.273,0,0,1,1-.375,1.311,1.311,0,0,1,1.014.375,1.33,1.33,0,0,1,.346.938,1.258,1.258,0,0,1-.346.9,1.334,1.334,0,0,1-1.014.363,1.205,1.205,0,0,1-1.336-1.266ZM139.3,49.8a7.592,7.592,0,0,1-1.324,4.664,4.244,4.244,0,0,1-3.586,1.77,4.65,4.65,0,0,1-3.633-1.465v6.105H128.59V43.32h1.98l.105,1.406a4.466,4.466,0,0,1,3.68-1.641,4.324,4.324,0,0,1,3.615,1.723A7.675,7.675,0,0,1,139.3,49.6Zm-2.168-.246a5.6,5.6,0,0,0-.914-3.387,2.945,2.945,0,0,0-2.508-1.242,3.187,3.187,0,0,0-2.953,1.746V52.73a3.193,3.193,0,0,0,2.977,1.734,2.931,2.931,0,0,0,2.479-1.236A6.115,6.115,0,0,0,137.133,49.555Zm11.051-4.289a6.5,6.5,0,0,0-1.066-.082A2.857,2.857,0,0,0,144.223,47v9h-2.168V43.32h2.109l.035,1.465a3.376,3.376,0,0,1,3.023-1.7,2.215,2.215,0,0,1,.961.164ZM152.531,56h-2.168V43.32h2.168Zm-2.344-16.043a1.294,1.294,0,0,1,.322-.891,1.21,1.21,0,0,1,.955-.363,1.229,1.229,0,0,1,.961.363,1.28,1.28,0,0,1,.328.891,1.238,1.238,0,0,1-.328.879,1.251,1.251,0,0,1-.961.352,1.232,1.232,0,0,1-.955-.352A1.251,1.251,0,0,1,150.188,39.957Zm7.863,3.363.07,1.594a4.621,4.621,0,0,1,3.8-1.828q4.02,0,4.055,4.535V56H163.8V47.609a2.919,2.919,0,0,0-.627-2.027,2.512,2.512,0,0,0-1.916-.656,3.129,3.129,0,0,0-1.852.563,3.82,3.82,0,0,0-1.242,1.477V56H156V43.32Zm14.133-3.07v3.07h2.367V45h-2.367v7.873a1.76,1.76,0,0,0,.316,1.144,1.332,1.332,0,0,0,1.078.381,5.249,5.249,0,0,0,1.031-.141V56a6.322,6.322,0,0,1-1.664.233,2.7,2.7,0,0,1-2.191-.879,3.776,3.776,0,0,1-.738-2.5V45h-2.309V43.32h2.309V40.25ZM179.438,56H177.27V43.32h2.168Zm-2.344-16.043a1.294,1.294,0,0,1,.322-.891,1.21,1.21,0,0,1,.955-.363,1.229,1.229,0,0,1,.961.363,1.28,1.28,0,0,1,.328.891,1.238,1.238,0,0,1-.328.879,1.251,1.251,0,0,1-.961.352,1.232,1.232,0,0,1-.955-.352A1.251,1.251,0,0,1,177.094,39.957Zm7.863,3.363.07,1.594a4.621,4.621,0,0,1,3.8-1.828q4.02,0,4.055,4.535V56h-2.168V47.609a2.919,2.919,0,0,0-.627-2.027,2.512,2.512,0,0,0-1.916-.656,3.129,3.129,0,0,0-1.852.563,3.82,3.82,0,0,0-1.242,1.477V56h-2.168V43.32Zm17.051,5.754a18.118,18.118,0,0,1,.709-5.086,14.774,14.774,0,0,1,2.115-4.43,9,9,0,0,1,2.918-2.812l.445,1.43a9.333,9.333,0,0,0-2.807,4.008,17.374,17.374,0,0,0-1.2,6.035l-.012,1a17.465,17.465,0,0,0,1.652,7.852,9.377,9.377,0,0,0,2.367,3.117l-.445,1.324a9.288,9.288,0,0,1-2.977-2.906A16.289,16.289,0,0,1,202.008,49.074Zm9.891-9.48-.352,4.2h-1.3L210.258,38H211.9Zm3.164,0-.352,4.2h-1.3L213.422,38h1.641Zm8.168,16.641a5.54,5.54,0,0,1-4.2-1.693,6.285,6.285,0,0,1-1.617-4.529v-.4a7.609,7.609,0,0,1,.721-3.369,5.622,5.622,0,0,1,2.016-2.32,5.068,5.068,0,0,1,2.807-.838,4.749,4.749,0,0,1,3.844,1.629,7.053,7.053,0,0,1,1.371,4.664v.9h-8.59a4.507,4.507,0,0,0,1.1,3.029,3.444,3.444,0,0,0,2.666,1.154A3.776,3.776,0,0,0,225.293,54a4.888,4.888,0,0,0,1.395-1.242l1.324,1.031A5.325,5.325,0,0,1,223.23,56.234Zm-.27-11.367a2.892,2.892,0,0,0-2.2.955,4.642,4.642,0,0,0-1.1,2.678h6.352v-.164a4.129,4.129,0,0,0-.891-2.561A2.723,2.723,0,0,0,222.961,44.867ZM233.039,56h-2.168V38h2.168ZM6.727,85.465a3.123,3.123,0,0,0,2.027-.7A2.474,2.474,0,0,0,9.715,83h2.051a3.931,3.931,0,0,1-.75,2.074,4.94,4.94,0,0,1-1.846,1.57,5.326,5.326,0,0,1-2.443.586,5.223,5.223,0,0,1-4.119-1.729,6.884,6.884,0,0,1-1.529-4.729v-.363a7.634,7.634,0,0,1,.68-3.293,5.177,5.177,0,0,1,1.951-2.238,5.543,5.543,0,0,1,3.006-.8,5.085,5.085,0,0,1,3.545,1.277,4.565,4.565,0,0,1,1.506,3.316H9.715a2.988,2.988,0,0,0-.932-2.021,2.9,2.9,0,0,0-2.068-.791,3.034,3.034,0,0,0-2.561,1.189A5.586,5.586,0,0,0,3.246,80.5v.41a5.475,5.475,0,0,0,.9,3.375A3.049,3.049,0,0,0,6.727,85.465ZM22.031,87a4.554,4.554,0,0,1-.3-1.336,4.837,4.837,0,0,1-3.609,1.57,4.476,4.476,0,0,1-3.076-1.061,3.431,3.431,0,0,1-1.2-2.689,3.584,3.584,0,0,1,1.506-3.076,7.1,7.1,0,0,1,4.236-1.1h2.109v-1a2.435,2.435,0,0,0-.68-1.811,2.732,2.732,0,0,0-2-.674,3.161,3.161,0,0,0-1.945.586,1.727,1.727,0,0,0-.785,1.418H14.1A2.992,2.992,0,0,1,14.771,76,4.6,4.6,0,0,1,16.6,74.6a6.15,6.15,0,0,1,2.537-.516,5.013,5.013,0,0,1,3.434,1.1A3.953,3.953,0,0,1,23.859,78.2v5.836a7.135,7.135,0,0,0,.445,2.777V87Zm-3.6-1.652a3.81,3.81,0,0,0,1.934-.527,3.19,3.19,0,0,0,1.324-1.371v-2.6h-1.7q-3.984,0-3.984,2.332a1.974,1.974,0,0,0,.68,1.594A2.612,2.612,0,0,0,18.434,85.348Zm14.953-9.082a6.5,6.5,0,0,0-1.066-.082A2.857,2.857,0,0,0,29.426,78v9H27.258V74.32h2.109l.035,1.465a3.376,3.376,0,0,1,3.023-1.7,2.215,2.215,0,0,1,.961.164Zm8.121,0a6.5,6.5,0,0,0-1.066-.082A2.857,2.857,0,0,0,37.547,78v9H35.379V74.32h2.109l.035,1.465a3.376,3.376,0,0,1,3.023-1.7,2.215,2.215,0,0,1,.961.164Zm1.184,4.277a7.489,7.489,0,0,1,.732-3.352,5.464,5.464,0,0,1,2.039-2.3,5.551,5.551,0,0,1,2.982-.809,5.347,5.347,0,0,1,4.189,1.793,6.9,6.9,0,0,1,1.6,4.77V80.8a7.555,7.555,0,0,1-.709,3.322A5.383,5.383,0,0,1,51.5,86.414a5.614,5.614,0,0,1-3.029.82,5.334,5.334,0,0,1-4.178-1.793,6.863,6.863,0,0,1-1.6-4.746Zm2.18.258a5.424,5.424,0,0,0,.979,3.387,3.316,3.316,0,0,0,5.244-.018,5.932,5.932,0,0,0,.973-3.627,5.415,5.415,0,0,0-.99-3.381,3.148,3.148,0,0,0-2.631-1.295,3.113,3.113,0,0,0-2.59,1.277A5.888,5.888,0,0,0,44.871,80.8Zm23.285,6.434a5.54,5.54,0,0,1-4.2-1.693,6.285,6.285,0,0,1-1.617-4.529v-.4a7.609,7.609,0,0,1,.721-3.369,5.622,5.622,0,0,1,2.016-2.32,5.068,5.068,0,0,1,2.807-.838,4.749,4.749,0,0,1,3.844,1.629A7.053,7.053,0,0,1,73.1,80.379v.9h-8.59a4.507,4.507,0,0,0,1.1,3.029,3.444,3.444,0,0,0,2.666,1.154A3.776,3.776,0,0,0,70.219,85a4.888,4.888,0,0,0,1.395-1.242l1.324,1.031A5.325,5.325,0,0,1,68.156,87.234Zm-.27-11.367a2.892,2.892,0,0,0-2.2.955,4.642,4.642,0,0,0-1.1,2.678h6.352v-.164a4.129,4.129,0,0,0-.891-2.561A2.723,2.723,0,0,0,67.887,75.867Zm15.105,7.77a1.6,1.6,0,0,0-.662-1.365,6.373,6.373,0,0,0-2.309-.838,10.915,10.915,0,0,1-2.613-.844,3.718,3.718,0,0,1-1.43-1.172,2.8,2.8,0,0,1-.463-1.617,3.289,3.289,0,0,1,1.318-2.637A5.149,5.149,0,0,1,80.2,74.086,5.3,5.3,0,0,1,83.7,75.2a3.536,3.536,0,0,1,1.342,2.848h-2.18a1.957,1.957,0,0,0-.756-1.535,2.832,2.832,0,0,0-1.9-.645,2.964,2.964,0,0,0-1.852.516,1.623,1.623,0,0,0-.668,1.348,1.315,1.315,0,0,0,.621,1.184,7.642,7.642,0,0,0,2.244.762,11.693,11.693,0,0,1,2.631.867,3.838,3.838,0,0,1,1.494,1.213,2.982,2.982,0,0,1,.486,1.729A3.245,3.245,0,0,1,83.8,86.209a5.7,5.7,0,0,1-3.527,1.025,6.385,6.385,0,0,1-2.7-.539,4.384,4.384,0,0,1-1.834-1.506,3.629,3.629,0,0,1-.662-2.092H77.25a2.245,2.245,0,0,0,.873,1.729,3.387,3.387,0,0,0,2.15.639,3.5,3.5,0,0,0,1.975-.5A1.53,1.53,0,0,0,82.992,83.637ZM90.926,71.25v3.07h2.367V76H90.926v7.873a1.76,1.76,0,0,0,.316,1.144,1.332,1.332,0,0,0,1.078.381,5.249,5.249,0,0,0,1.031-.141V87a6.322,6.322,0,0,1-1.664.233,2.7,2.7,0,0,1-2.191-.879,3.776,3.776,0,0,1-.738-2.5V76H86.449V74.32h2.309V71.25ZM103.652,87a4.554,4.554,0,0,1-.3-1.336,4.837,4.837,0,0,1-3.609,1.57,4.476,4.476,0,0,1-3.076-1.061,3.431,3.431,0,0,1-1.2-2.689,3.584,3.584,0,0,1,1.506-3.076,7.1,7.1,0,0,1,4.236-1.1h2.109v-1a2.435,2.435,0,0,0-.68-1.811,2.732,2.732,0,0,0-2-.674,3.161,3.161,0,0,0-1.945.586,1.727,1.727,0,0,0-.785,1.418h-2.18A2.992,2.992,0,0,1,96.393,76a4.6,4.6,0,0,1,1.828-1.4,6.15,6.15,0,0,1,2.537-.516,5.013,5.013,0,0,1,3.434,1.1A3.953,3.953,0,0,1,105.48,78.2v5.836a7.135,7.135,0,0,0,.445,2.777V87Zm-3.6-1.652a3.81,3.81,0,0,0,1.934-.527,3.19,3.19,0,0,0,1.324-1.371v-2.6h-1.7q-3.984,0-3.984,2.332a1.974,1.974,0,0,0,.68,1.594A2.612,2.612,0,0,0,100.055,85.348Zm2-16.348h2.625l-3.141,3.445L99.8,72.439Zm18.023,18.234a5.54,5.54,0,0,1-4.2-1.693,6.285,6.285,0,0,1-1.617-4.529v-.4a7.609,7.609,0,0,1,.721-3.369,5.622,5.622,0,0,1,2.016-2.32,5.068,5.068,0,0,1,2.807-.838,4.749,4.749,0,0,1,3.844,1.629,7.053,7.053,0,0,1,1.371,4.664v.9h-8.59a4.507,4.507,0,0,0,1.1,3.029,3.444,3.444,0,0,0,2.666,1.154A3.776,3.776,0,0,0,122.145,85a4.888,4.888,0,0,0,1.395-1.242l1.324,1.031A5.325,5.325,0,0,1,120.082,87.234Zm-.27-11.367a2.892,2.892,0,0,0-2.2.955,4.642,4.642,0,0,0-1.1,2.678h6.352v-.164a4.129,4.129,0,0,0-.891-2.561A2.723,2.723,0,0,0,119.813,75.867Zm9.773-1.547.07,1.594a4.621,4.621,0,0,1,3.8-1.828q4.02,0,4.055,4.535V87H135.34V78.609a2.919,2.919,0,0,0-.627-2.027,2.512,2.512,0,0,0-1.916-.656,3.129,3.129,0,0,0-1.852.563,3.82,3.82,0,0,0-1.242,1.477V87h-2.168V74.32Zm16.277,11.145a3.123,3.123,0,0,0,2.027-.7A2.474,2.474,0,0,0,148.852,83H150.9a3.931,3.931,0,0,1-.75,2.074,4.94,4.94,0,0,1-1.846,1.57,5.326,5.326,0,0,1-2.443.586,5.223,5.223,0,0,1-4.119-1.729,6.884,6.884,0,0,1-1.529-4.729v-.363a7.634,7.634,0,0,1,.68-3.293,5.177,5.177,0,0,1,1.951-2.238,5.543,5.543,0,0,1,3.006-.8,5.085,5.085,0,0,1,3.545,1.277A4.565,4.565,0,0,1,150.9,78.68h-2.051a2.988,2.988,0,0,0-.932-2.021,2.9,2.9,0,0,0-2.068-.791,3.034,3.034,0,0,0-2.561,1.189,5.586,5.586,0,0,0-.908,3.439v.41a5.475,5.475,0,0,0,.9,3.375A3.049,3.049,0,0,0,145.863,85.465Zm12.738,1.77a5.54,5.54,0,0,1-4.2-1.693,6.285,6.285,0,0,1-1.617-4.529v-.4a7.609,7.609,0,0,1,.721-3.369,5.622,5.622,0,0,1,2.016-2.32,5.068,5.068,0,0,1,2.807-.838,4.749,4.749,0,0,1,3.844,1.629,7.053,7.053,0,0,1,1.371,4.664v.9h-8.59a4.507,4.507,0,0,0,1.1,3.029,3.444,3.444,0,0,0,2.666,1.154A3.776,3.776,0,0,0,160.664,85a4.888,4.888,0,0,0,1.395-1.242l1.324,1.031A5.325,5.325,0,0,1,158.6,87.234Zm-.27-11.367a2.892,2.892,0,0,0-2.2.955,4.642,4.642,0,0,0-1.1,2.678h6.352v-.164a4.129,4.129,0,0,0-.891-2.561A2.723,2.723,0,0,0,158.332,75.867Zm9.773-1.547.07,1.594a4.621,4.621,0,0,1,3.8-1.828q4.02,0,4.055,4.535V87h-2.168V78.609a2.919,2.919,0,0,0-.627-2.027,2.512,2.512,0,0,0-1.916-.656,3.129,3.129,0,0,0-1.852.563,3.82,3.82,0,0,0-1.242,1.477V87h-2.168V74.32Zm10.664,6.234a7.428,7.428,0,0,1,1.383-4.693,4.7,4.7,0,0,1,7.148-.252V69h2.168V87h-1.992l-.105-1.359a4.415,4.415,0,0,1-3.621,1.594,4.331,4.331,0,0,1-3.592-1.8,7.512,7.512,0,0,1-1.389-4.711Zm2.168.246a5.624,5.624,0,0,0,.891,3.375,2.879,2.879,0,0,0,2.461,1.219,3.163,3.163,0,0,0,3.012-1.852V77.719a3.187,3.187,0,0,0-2.988-1.793,2.893,2.893,0,0,0-2.484,1.23A6.192,6.192,0,0,0,180.938,80.8Zm14.25,6.2H193.02V74.32h2.168Zm-2.344-16.043a1.294,1.294,0,0,1,.322-.891,1.21,1.21,0,0,1,.955-.363,1.229,1.229,0,0,1,.961.363,1.28,1.28,0,0,1,.328.891,1.238,1.238,0,0,1-.328.879,1.251,1.251,0,0,1-.961.352,1.232,1.232,0,0,1-.955-.352A1.251,1.251,0,0,1,192.844,70.957Zm5.285,9.6a7.428,7.428,0,0,1,1.383-4.693,4.7,4.7,0,0,1,7.148-.252V69h2.168V87h-1.992l-.105-1.359a4.415,4.415,0,0,1-3.621,1.594,4.331,4.331,0,0,1-3.592-1.8,7.512,7.512,0,0,1-1.389-4.711Zm2.168.246a5.624,5.624,0,0,0,.891,3.375,2.879,2.879,0,0,0,2.461,1.219,3.163,3.163,0,0,0,3.012-1.852V77.719a3.187,3.187,0,0,0-2.988-1.793,2.893,2.893,0,0,0-2.484,1.23A6.192,6.192,0,0,0,200.3,80.8Zm11.32-.258a7.489,7.489,0,0,1,.732-3.352,5.464,5.464,0,0,1,2.039-2.3,5.551,5.551,0,0,1,2.982-.809,5.347,5.347,0,0,1,4.189,1.793,6.9,6.9,0,0,1,1.6,4.77V80.8a7.555,7.555,0,0,1-.709,3.322,5.383,5.383,0,0,1-2.027,2.291,5.614,5.614,0,0,1-3.029.82,5.334,5.334,0,0,1-4.178-1.793,6.863,6.863,0,0,1-1.6-4.746Zm2.18.258a5.424,5.424,0,0,0,.979,3.387,3.316,3.316,0,0,0,5.244-.018,5.932,5.932,0,0,0,.973-3.627,5.415,5.415,0,0,0-.99-3.381,3.148,3.148,0,0,0-2.631-1.295,3.113,3.113,0,0,0-2.59,1.277A5.888,5.888,0,0,0,213.8,80.8Zm12.094-10.207-.352,4.2h-1.3L224.25,69h1.641Zm3.164,0-.352,4.2h-1.3L227.414,69h1.641Zm7.91,9.6a18.127,18.127,0,0,1-.686,5.01,14.814,14.814,0,0,1-2.1,4.424,9.191,9.191,0,0,1-2.959,2.883l-.457-1.324a9.421,9.421,0,0,0,2.9-4.295,18.581,18.581,0,0,0,1.119-6.463v-.375a19.292,19.292,0,0,0-.516-4.576,15.444,15.444,0,0,0-1.436-3.791,8.756,8.756,0,0,0-2.068-2.613l.457-1.324a9.155,9.155,0,0,1,2.947,2.859,14.845,14.845,0,0,1,2.1,4.418A18.545,18.545,0,0,1,236.965,80.191Zm3-4.676a1.358,1.358,0,0,1,.334-.937,1.273,1.273,0,0,1,1-.375,1.311,1.311,0,0,1,1.014.375,1.33,1.33,0,0,1,.346.938,1.258,1.258,0,0,1-.346.9,1.334,1.334,0,0,1-1.014.363,1.205,1.205,0,0,1-1.336-1.266Zm.41,14.883-1.23-.844a5.655,5.655,0,0,0,1.148-3.164V84.434h2.121v1.7a5.338,5.338,0,0,1-.58,2.367A5.542,5.542,0,0,1,240.375,90.4ZM.223,120.941q2.379-.762,2.461-3.879v-2.578A3.69,3.69,0,0,1,4.8,110.793,3.663,3.663,0,0,1,2.684,107.1v-2.379q0-3.3-2.449-4.09L.68,99.285a5.858,5.858,0,0,1,3.117,1.9,5.508,5.508,0,0,1,1.055,3.486v2.461q0,2.8,2.484,2.8v1.7q-2.484,0-2.484,2.848v2.367a5.479,5.479,0,0,1-1.061,3.527,5.931,5.931,0,0,1-3.111,1.91ZM4.23,142.32V149H1.98V131.938H8.273a6.322,6.322,0,0,1,4.389,1.43,4.847,4.847,0,0,1,1.588,3.785,4.783,4.783,0,0,1-1.553,3.826A6.6,6.6,0,0,1,8.25,142.32Zm0-1.84H8.273a4.042,4.042,0,0,0,2.766-.851A3.112,3.112,0,0,0,12,137.17a3.215,3.215,0,0,0-.961-2.442,3.787,3.787,0,0,0-2.637-.951H4.23Zm20.379,7.266a4.6,4.6,0,0,1-3.715,1.488,3.942,3.942,0,0,1-3.088-1.178,5.1,5.1,0,0,1-1.072-3.486v-8.25H18.9v8.191q0,2.883,2.344,2.883a3.245,3.245,0,0,0,3.3-1.852V136.32h2.168V149H24.656ZM40.746,142.8a7.539,7.539,0,0,1-1.336,4.67,4.269,4.269,0,0,1-3.586,1.764,4.42,4.42,0,0,1-3.715-1.7L32,149H30.012V131H32.18v6.715a4.4,4.4,0,0,1,3.621-1.629,4.3,4.3,0,0,1,3.627,1.746,7.766,7.766,0,0,1,1.318,4.781Zm-2.168-.246a5.858,5.858,0,0,0-.855-3.422,2.832,2.832,0,0,0-2.461-1.207,3.183,3.183,0,0,0-3.082,1.992V145.4a3.272,3.272,0,0,0,3.105,1.992,2.816,2.816,0,0,0,2.426-1.207A6.23,6.23,0,0,0,38.578,142.555ZM45.832,149H43.664V131h2.168Zm5.824,0H49.488V136.32h2.168Zm-2.344-16.043a1.294,1.294,0,0,1,.322-.891,1.21,1.21,0,0,1,.955-.363,1.229,1.229,0,0,1,.961.363,1.28,1.28,0,0,1,.328.891,1.238,1.238,0,0,1-.328.879,1.251,1.251,0,0,1-.961.352,1.232,1.232,0,0,1-.955-.352A1.251,1.251,0,0,1,49.313,132.957Zm10.9,14.508a3.123,3.123,0,0,0,2.027-.7A2.474,2.474,0,0,0,63.2,145H65.25a3.931,3.931,0,0,1-.75,2.074,4.94,4.94,0,0,1-1.846,1.57,5.326,5.326,0,0,1-2.443.586,5.223,5.223,0,0,1-4.119-1.729,6.884,6.884,0,0,1-1.529-4.729v-.363a7.634,7.634,0,0,1,.68-3.293,5.177,5.177,0,0,1,1.951-2.238,5.543,5.543,0,0,1,3.006-.8,5.085,5.085,0,0,1,3.545,1.277,4.565,4.565,0,0,1,1.506,3.316H63.2a2.988,2.988,0,0,0-.932-2.021,2.9,2.9,0,0,0-2.068-.791,3.034,3.034,0,0,0-2.561,1.189,5.586,5.586,0,0,0-.908,3.439v.41a5.475,5.475,0,0,0,.9,3.375A3.049,3.049,0,0,0,60.211,147.465Zm17.6-1.406,3.141-9.738h2.215L78.621,149H76.969l-4.594-12.68H74.59Zm6.691-3.516a7.489,7.489,0,0,1,.732-3.352,5.464,5.464,0,0,1,2.039-2.3,5.551,5.551,0,0,1,2.982-.809,5.347,5.347,0,0,1,4.189,1.793,6.9,6.9,0,0,1,1.6,4.77v.152a7.555,7.555,0,0,1-.709,3.322,5.383,5.383,0,0,1-2.027,2.291,5.614,5.614,0,0,1-3.029.82,5.334,5.334,0,0,1-4.178-1.793,6.863,6.863,0,0,1-1.6-4.746Zm2.18.258a5.424,5.424,0,0,0,.979,3.387,3.316,3.316,0,0,0,5.244-.018,5.932,5.932,0,0,0,.973-3.627,5.415,5.415,0,0,0-.99-3.381,3.148,3.148,0,0,0-2.631-1.295,3.113,3.113,0,0,0-2.59,1.277A5.888,5.888,0,0,0,86.684,142.8Zm14.438,6.2H98.953V136.32h2.168Zm-2.344-16.043a1.294,1.294,0,0,1,.322-.891,1.21,1.21,0,0,1,.955-.363,1.229,1.229,0,0,1,.961.363,1.28,1.28,0,0,1,.328.891,1.238,1.238,0,0,1-.328.879,1.251,1.251,0,0,1-.961.352,1.232,1.232,0,0,1-.955-.352A1.251,1.251,0,0,1,98.777,132.957Zm5.285,9.6a7.428,7.428,0,0,1,1.383-4.693,4.7,4.7,0,0,1,7.148-.252V131h2.168v18H112.77l-.105-1.359a4.415,4.415,0,0,1-3.621,1.594,4.331,4.331,0,0,1-3.592-1.8,7.512,7.512,0,0,1-1.389-4.711Zm2.168.246a5.624,5.624,0,0,0,.891,3.375,2.879,2.879,0,0,0,2.461,1.219,3.163,3.163,0,0,0,3.012-1.852v-5.824a3.187,3.187,0,0,0-2.988-1.793,2.893,2.893,0,0,0-2.484,1.23A6.192,6.192,0,0,0,106.23,142.8Zm25.664,6.2a4.554,4.554,0,0,1-.3-1.336,4.837,4.837,0,0,1-3.609,1.57,4.476,4.476,0,0,1-3.076-1.061,3.431,3.431,0,0,1-1.2-2.689,3.584,3.584,0,0,1,1.506-3.076,7.1,7.1,0,0,1,4.236-1.1h2.109v-1a2.435,2.435,0,0,0-.68-1.811,2.732,2.732,0,0,0-2-.674,3.161,3.161,0,0,0-1.945.586,1.727,1.727,0,0,0-.785,1.418h-2.18a2.992,2.992,0,0,1,.674-1.834,4.6,4.6,0,0,1,1.828-1.4,6.15,6.15,0,0,1,2.537-.516,5.013,5.013,0,0,1,3.434,1.1,3.953,3.953,0,0,1,1.289,3.018v5.836a7.135,7.135,0,0,0,.445,2.777V149Zm-3.6-1.652a3.81,3.81,0,0,0,1.934-.527,3.19,3.19,0,0,0,1.324-1.371v-2.6h-1.7q-3.984,0-3.984,2.332a1.974,1.974,0,0,0,.68,1.594A2.612,2.612,0,0,0,128.3,147.348Zm19.535-4.547a7.592,7.592,0,0,1-1.324,4.664,4.244,4.244,0,0,1-3.586,1.77,4.65,4.65,0,0,1-3.633-1.465v6.105h-2.168V136.32h1.98l.105,1.406a4.466,4.466,0,0,1,3.68-1.641,4.324,4.324,0,0,1,3.615,1.723,7.675,7.675,0,0,1,1.33,4.793Zm-2.168-.246a5.6,5.6,0,0,0-.914-3.387,2.945,2.945,0,0,0-2.508-1.242,3.187,3.187,0,0,0-2.953,1.746v6.059a3.193,3.193,0,0,0,2.977,1.734,2.931,2.931,0,0,0,2.479-1.236A6.115,6.115,0,0,0,145.664,142.555ZM158.414,149a4.554,4.554,0,0,1-.3-1.336,4.837,4.837,0,0,1-3.609,1.57,4.476,4.476,0,0,1-3.076-1.061,3.431,3.431,0,0,1-1.2-2.689,3.584,3.584,0,0,1,1.506-3.076,7.1,7.1,0,0,1,4.236-1.1h2.109v-1a2.435,2.435,0,0,0-.68-1.811,2.732,2.732,0,0,0-2-.674,3.161,3.161,0,0,0-1.945.586,1.727,1.727,0,0,0-.785,1.418h-2.18a2.992,2.992,0,0,1,.674-1.834,4.6,4.6,0,0,1,1.828-1.4,6.15,6.15,0,0,1,2.537-.516,5.013,5.013,0,0,1,3.434,1.1,3.953,3.953,0,0,1,1.289,3.018v5.836a7.135,7.135,0,0,0,.445,2.777V149Zm-3.6-1.652a3.81,3.81,0,0,0,1.934-.527,3.19,3.19,0,0,0,1.324-1.371v-2.6h-1.7q-3.984,0-3.984,2.332a1.974,1.974,0,0,0,.68,1.594A2.612,2.612,0,0,0,154.816,147.348Zm8.309-4.793a7.452,7.452,0,0,1,1.371-4.717,4.727,4.727,0,0,1,7.254-.111l.105-1.406h1.98V148.7a5.158,5.158,0,0,1-1.459,3.879,5.384,5.384,0,0,1-3.92,1.418,6.521,6.521,0,0,1-2.684-.586,4.62,4.62,0,0,1-2-1.605l1.125-1.3a4.239,4.239,0,0,0,3.41,1.723,3.322,3.322,0,0,0,2.467-.891,3.4,3.4,0,0,0,.885-2.508v-1.09a4.456,4.456,0,0,1-3.551,1.5,4.331,4.331,0,0,1-3.6-1.793A7.835,7.835,0,0,1,163.125,142.555Zm2.18.246a5.685,5.685,0,0,0,.879,3.369,2.856,2.856,0,0,0,2.461,1.225,3.176,3.176,0,0,0,3.012-1.863v-5.789a3.213,3.213,0,0,0-2.988-1.816,2.882,2.882,0,0,0-2.473,1.23A6.192,6.192,0,0,0,165.3,142.8Zm19.629,6.2a4.554,4.554,0,0,1-.3-1.336,4.837,4.837,0,0,1-3.609,1.57,4.476,4.476,0,0,1-3.076-1.061,3.431,3.431,0,0,1-1.2-2.689,3.584,3.584,0,0,1,1.506-3.076,7.1,7.1,0,0,1,4.236-1.1h2.109v-1a2.435,2.435,0,0,0-.68-1.811,2.732,2.732,0,0,0-2-.674,3.161,3.161,0,0,0-1.945.586,1.727,1.727,0,0,0-.785,1.418H177a2.992,2.992,0,0,1,.674-1.834,4.6,4.6,0,0,1,1.828-1.4,6.15,6.15,0,0,1,2.537-.516,5.013,5.013,0,0,1,3.434,1.1,3.953,3.953,0,0,1,1.289,3.018v5.836a7.135,7.135,0,0,0,.445,2.777V149Zm-3.6-1.652a3.81,3.81,0,0,0,1.934-.527,3.19,3.19,0,0,0,1.324-1.371v-2.6h-1.7q-3.984,0-3.984,2.332a1.974,1.974,0,0,0,.68,1.594A2.612,2.612,0,0,0,181.336,147.348Zm14.953-9.082a6.5,6.5,0,0,0-1.066-.082A2.857,2.857,0,0,0,192.328,140v9H190.16V136.32h2.109l.035,1.465a3.376,3.376,0,0,1,3.023-1.7,2.215,2.215,0,0,1,.961.164Zm1.91,3.809a18.118,18.118,0,0,1,.709-5.086,14.774,14.774,0,0,1,2.115-4.43,9,9,0,0,1,2.918-2.812l.445,1.43a9.333,9.333,0,0,0-2.807,4.008,17.374,17.374,0,0,0-1.2,6.035l-.012,1a17.465,17.465,0,0,0,1.652,7.852,9.377,9.377,0,0,0,2.367,3.117l-.445,1.324a9.288,9.288,0,0,1-2.977-2.906A16.289,16.289,0,0,1,198.2,142.074Zm19.23.117a18.127,18.127,0,0,1-.686,5.01,14.814,14.814,0,0,1-2.1,4.424,9.191,9.191,0,0,1-2.959,2.883l-.457-1.324a9.421,9.421,0,0,0,2.9-4.295,18.581,18.581,0,0,0,1.119-6.463v-.375a19.292,19.292,0,0,0-.516-4.576,15.444,15.444,0,0,0-1.436-3.791,8.756,8.756,0,0,0-2.068-2.613l.457-1.324a9.155,9.155,0,0,1,2.947,2.859,14.845,14.845,0,0,1,2.1,4.418A18.545,18.545,0,0,1,217.43,142.191ZM7.406,184.289a5.824,5.824,0,0,1-3.123-1.928,5.6,5.6,0,0,1-1.049-3.545v-2.332q0-2.848-2.484-2.848v-1.7q2.484,0,2.484-2.836v-2.437A5.587,5.587,0,0,1,4.283,163.2a5.83,5.83,0,0,1,3.123-1.916l.445,1.348q-2.449.785-2.449,4.09v2.367a3.828,3.828,0,0,1-1.957,3.7A3.875,3.875,0,0,1,5.4,176.531v2.414q.035,3.223,2.449,4Z" transform="translate(9237 -10167)" fill="#2d679a"/>
  </g>
</svg>
