<svg xmlns="http://www.w3.org/2000/svg" width="566" height="265" viewBox="0 0 566 265">
  <g id="Grupo_128088" data-name="Grupo 128088" transform="translate(-207 -4428)">
    <path id="Trazado_172606" data-name="Trazado 172606" d="M27.5,0h91a27.5,27.5,0,0,1,0,55h-91a27.5,27.5,0,0,1,0-55Z" transform="translate(627 4638)" fill="#ff6148"/>
    <path id="Trazado_172607" data-name="Trazado 172607" d="M0,0H146V50H0Z" transform="translate(627 4428)" fill="#ff6148"/>
    <g id="Grupo_113959" data-name="Grupo 113959" transform="translate(316 4545.604)">
      <g id="Grupo_111294" data-name="Grupo 111294">
        <path id="Trazado_165636" data-name="Trazado 165636" d="M0,0V50.892" transform="translate(0 10) rotate(-90)" fill="none" stroke="#16263d" stroke-width="2"/>
        <path id="Trazado_165637" data-name="Trazado 165637" d="M0,0H20L10.281,13.659Z" transform="translate(44.062 20) rotate(-90)" fill="#16263d" stroke="#16263d" stroke-width="1"/>
      </g>
    </g>
    <g id="Grupo_113960" data-name="Grupo 113960" transform="translate(467.001 4442.673)">
      <g id="Grupo_111294-2" data-name="Grupo 111294" transform="translate(0)">
        <path id="Trazado_165636-2" data-name="Trazado 165636" d="M0,0V151.169" transform="translate(0 10) rotate(-90)" fill="none" stroke="#16263d" stroke-width="2"/>
        <path id="Trazado_165637-2" data-name="Trazado 165637" d="M0,0H20L10.281,13.659Z" transform="translate(144.34 20) rotate(-90)" fill="#16263d" stroke="#16263d" stroke-width="1"/>
      </g>
    </g>
    <g id="Grupo_113961" data-name="Grupo 113961" transform="translate(467.001 4655.827)">
      <g id="Grupo_111294-3" data-name="Grupo 111294" transform="translate(0)">
        <path id="Trazado_165636-3" data-name="Trazado 165636" d="M0,0V151.169" transform="translate(0 10) rotate(-90)" fill="none" stroke="#16263d" stroke-width="2"/>
        <path id="Trazado_165637-3" data-name="Trazado 165637" d="M0,0H20L10.281,13.659Z" transform="translate(144.34 20) rotate(-90)" fill="#16263d" stroke="#16263d" stroke-width="1"/>
      </g>
    </g>
    <path id="Trazado_172608" data-name="Trazado 172608" d="M28.5,0h71a28.5,28.5,0,0,1,0,57h-71a28.5,28.5,0,0,1,0-57Z" transform="translate(207 4527)" fill="#ff6148"/>
    <path id="Trazado_168762" data-name="Trazado 168762" d="M0,0V215.1" transform="translate(467.001 4451.714)" fill="none" stroke="#16263d" stroke-width="2"/>
    <path id="Trazado_172609" data-name="Trazado 172609" d="M0,0H41V28H0Z" transform="translate(445 4468)" fill="#fff"/>
    <path id="Trazado_172610" data-name="Trazado 172610" d="M0,0H41V28H0Z" transform="translate(445 4621)" fill="#fff"/>
    <path id="Trazado_172611" data-name="Trazado 172611" d="M-.051-2.242a1.064,1.064,0,0,0-.441-.91,4.249,4.249,0,0,0-1.539-.559,7.277,7.277,0,0,1-1.742-.562,2.479,2.479,0,0,1-.953-.781,1.869,1.869,0,0,1-.309-1.078,2.193,2.193,0,0,1,.879-1.758A3.432,3.432,0,0,1-1.91-8.609a3.532,3.532,0,0,1,2.332.742,2.357,2.357,0,0,1,.895,1.9H-.137a1.3,1.3,0,0,0-.5-1.023,1.888,1.888,0,0,0-1.27-.43,1.976,1.976,0,0,0-1.234.344,1.082,1.082,0,0,0-.445.9.877.877,0,0,0,.414.789,5.1,5.1,0,0,0,1.5.508A7.8,7.8,0,0,1,.074-4.3a2.558,2.558,0,0,1,1,.809,1.988,1.988,0,0,1,.324,1.152A2.163,2.163,0,0,1,.488-.527,3.8,3.8,0,0,1-1.863.156,4.257,4.257,0,0,1-3.66-.2a2.922,2.922,0,0,1-1.223-1A2.42,2.42,0,0,1-5.324-2.6h1.445A1.5,1.5,0,0,0-3.3-1.449a2.258,2.258,0,0,0,1.434.426A2.331,2.331,0,0,0-.547-1.355,1.02,1.02,0,0,0-.051-2.242ZM4.848,0H3.4V-8.453H4.848ZM3.285-10.7a.863.863,0,0,1,.215-.594.807.807,0,0,1,.637-.242.819.819,0,0,1,.641.242A.854.854,0,0,1,5-10.7a.826.826,0,0,1-.219.586.834.834,0,0,1-.641.234.821.821,0,0,1-.637-.234A.834.834,0,0,1,3.285-10.7Z" transform="translate(467 4485)" fill="#12263f"/>
    <path id="Trazado_172612" data-name="Trazado 172612" d="M-6.516-8.453l.047,1.063A3.08,3.08,0,0,1-3.937-8.609q2.68,0,2.7,3.023V0H-2.68V-5.594A1.946,1.946,0,0,0-3.1-6.945a1.675,1.675,0,0,0-1.277-.437,2.086,2.086,0,0,0-1.234.375,2.546,2.546,0,0,0-.828.984V0H-7.883V-8.453ZM.563-4.3a4.993,4.993,0,0,1,.488-2.234A3.643,3.643,0,0,1,2.41-8.07,3.7,3.7,0,0,1,4.4-8.609a3.565,3.565,0,0,1,2.793,1.2,4.6,4.6,0,0,1,1.066,3.18v.1a5.036,5.036,0,0,1-.473,2.215A3.589,3.589,0,0,1,6.434-.391a3.743,3.743,0,0,1-2.02.547,3.556,3.556,0,0,1-2.785-1.2A4.575,4.575,0,0,1,.563-4.2Zm1.453.172a3.616,3.616,0,0,0,.652,2.258,2.088,2.088,0,0,0,1.746.852,2.075,2.075,0,0,0,1.75-.863A3.955,3.955,0,0,0,6.813-4.3a3.61,3.61,0,0,0-.66-2.254A2.1,2.1,0,0,0,4.4-7.422a2.075,2.075,0,0,0-1.727.852A3.925,3.925,0,0,0,2.016-4.133Z" transform="translate(467 4640)" fill="#12263f"/>
    <path id="Trazado_172613" data-name="Trazado 172613" d="M-26.531-4.453V0h-1.5V-11.375h4.2a4.215,4.215,0,0,1,2.926.953A3.231,3.231,0,0,1-19.852-7.9a3.189,3.189,0,0,1-1.035,2.551,4.4,4.4,0,0,1-2.965.895Zm0-1.227h2.7a2.7,2.7,0,0,0,1.844-.567,2.075,2.075,0,0,0,.641-1.64,2.143,2.143,0,0,0-.641-1.628,2.525,2.525,0,0,0-1.758-.634h-2.781Zm12.453-1.477a4.331,4.331,0,0,0-.711-.055A1.9,1.9,0,0,0-16.719-6V0h-1.445V-8.453h1.406l.023.977a2.251,2.251,0,0,1,2.016-1.133,1.477,1.477,0,0,1,.641.109Zm.789,2.852A4.993,4.993,0,0,1-12.8-6.539,3.643,3.643,0,0,1-11.441-8.07a3.7,3.7,0,0,1,1.988-.539,3.565,3.565,0,0,1,2.793,1.2,4.6,4.6,0,0,1,1.066,3.18v.1a5.036,5.036,0,0,1-.473,2.215A3.589,3.589,0,0,1-7.418-.391a3.743,3.743,0,0,1-2.02.547,3.556,3.556,0,0,1-2.785-1.2A4.575,4.575,0,0,1-13.289-4.2Zm1.453.172a3.616,3.616,0,0,0,.652,2.258,2.088,2.088,0,0,0,1.746.852,2.075,2.075,0,0,0,1.75-.863A3.955,3.955,0,0,0-7.039-4.3,3.61,3.61,0,0,0-7.7-6.559a2.1,2.1,0,0,0-1.754-.863,2.075,2.075,0,0,0-1.727.852A3.925,3.925,0,0,0-11.836-4.133ZM-.391-1.023A2.082,2.082,0,0,0,.961-1.492,1.649,1.649,0,0,0,1.6-2.664H2.969a2.621,2.621,0,0,1-.5,1.383A3.293,3.293,0,0,1,1.238-.234,3.55,3.55,0,0,1-.391.156,3.482,3.482,0,0,1-3.137-1a4.59,4.59,0,0,1-1.02-3.152v-.242a5.089,5.089,0,0,1,.453-2.2A3.451,3.451,0,0,1-2.4-8.078a3.7,3.7,0,0,1,2-.531,3.39,3.39,0,0,1,2.363.852,3.043,3.043,0,0,1,1,2.211H1.6A1.992,1.992,0,0,0,.98-6.895,1.932,1.932,0,0,0-.4-7.422a2.023,2.023,0,0,0-1.707.793,3.724,3.724,0,0,0-.605,2.293v.273a3.65,3.65,0,0,0,.6,2.25A2.033,2.033,0,0,0-.391-1.023ZM8.1.156A3.693,3.693,0,0,1,5.3-.973a4.19,4.19,0,0,1-1.078-3.02v-.266A5.073,5.073,0,0,1,4.707-6.5,3.748,3.748,0,0,1,6.051-8.051a3.378,3.378,0,0,1,1.871-.559,3.166,3.166,0,0,1,2.563,1.086A4.7,4.7,0,0,1,11.4-4.414v.6H5.672a3,3,0,0,0,.73,2.02,2.3,2.3,0,0,0,1.777.77,2.517,2.517,0,0,0,1.3-.312,3.259,3.259,0,0,0,.93-.828l.883.688A3.55,3.55,0,0,1,8.1.156Zm-.18-7.578a1.928,1.928,0,0,0-1.469.637A3.1,3.1,0,0,0,5.719-5H9.953v-.109a2.753,2.753,0,0,0-.594-1.707A1.815,1.815,0,0,0,7.922-7.422Zm10.07,5.18a1.064,1.064,0,0,0-.441-.91,4.249,4.249,0,0,0-1.539-.559,7.277,7.277,0,0,1-1.742-.562,2.479,2.479,0,0,1-.953-.781,1.869,1.869,0,0,1-.309-1.078,2.193,2.193,0,0,1,.879-1.758,3.432,3.432,0,0,1,2.246-.719,3.532,3.532,0,0,1,2.332.742,2.357,2.357,0,0,1,.895,1.9H17.906a1.3,1.3,0,0,0-.5-1.023,1.888,1.888,0,0,0-1.27-.43,1.976,1.976,0,0,0-1.234.344,1.082,1.082,0,0,0-.445.9.877.877,0,0,0,.414.789,5.1,5.1,0,0,0,1.5.508,7.8,7.8,0,0,1,1.754.578,2.558,2.558,0,0,1,1,.809,1.988,1.988,0,0,1,.324,1.152,2.163,2.163,0,0,1-.906,1.816A3.8,3.8,0,0,1,16.18.156a4.257,4.257,0,0,1-1.8-.359,2.922,2.922,0,0,1-1.223-1A2.42,2.42,0,0,1,12.719-2.6h1.445a1.5,1.5,0,0,0,.582,1.152,2.258,2.258,0,0,0,1.434.426A2.331,2.331,0,0,0,17.5-1.355,1.02,1.02,0,0,0,17.992-2.242ZM20.938-4.3a4.993,4.993,0,0,1,.488-2.234A3.643,3.643,0,0,1,22.785-8.07a3.7,3.7,0,0,1,1.988-.539,3.565,3.565,0,0,1,2.793,1.2,4.6,4.6,0,0,1,1.066,3.18v.1a5.036,5.036,0,0,1-.473,2.215A3.589,3.589,0,0,1,26.809-.391a3.743,3.743,0,0,1-2.02.547A3.556,3.556,0,0,1,22-1.039,4.575,4.575,0,0,1,20.938-4.2Zm1.453.172a3.616,3.616,0,0,0,.652,2.258,2.088,2.088,0,0,0,1.746.852,2.075,2.075,0,0,0,1.75-.863A3.955,3.955,0,0,0,27.188-4.3a3.61,3.61,0,0,0-.66-2.254,2.1,2.1,0,0,0-1.754-.863,2.075,2.075,0,0,0-1.727.852A3.925,3.925,0,0,0,22.391-4.133Z" transform="translate(700 4460)" fill="#12263f"/>
    <path id="Trazado_172614" data-name="Trazado 172614" d="M-26.375,0V-11.375h3.211a5.169,5.169,0,0,1,2.625.656,4.438,4.438,0,0,1,1.762,1.867,6.078,6.078,0,0,1,.629,2.781v.727a6.1,6.1,0,0,1-.621,2.82A4.369,4.369,0,0,1-20.543-.664,5.5,5.5,0,0,1-23.227,0Zm1.5-10.148v8.922H-23.3a3.434,3.434,0,0,0,2.7-1.079,4.458,4.458,0,0,0,.965-3.073v-.665a4.529,4.529,0,0,0-.91-3.014,3.239,3.239,0,0,0-2.582-1.091ZM-12.6.156A3.693,3.693,0,0,1-15.4-.973a4.19,4.19,0,0,1-1.078-3.02v-.266A5.073,5.073,0,0,1-16-6.5a3.748,3.748,0,0,1,1.344-1.547,3.378,3.378,0,0,1,1.871-.559,3.166,3.166,0,0,1,2.563,1.086A4.7,4.7,0,0,1-9.3-4.414v.6h-5.727a3,3,0,0,0,.73,2.02,2.3,2.3,0,0,0,1.777.77,2.517,2.517,0,0,0,1.3-.312,3.259,3.259,0,0,0,.93-.828l.883.688A3.55,3.55,0,0,1-12.6.156Zm-.18-7.578a1.928,1.928,0,0,0-1.469.637A3.1,3.1,0,0,0-14.984-5h4.234v-.109a2.753,2.753,0,0,0-.594-1.707A1.815,1.815,0,0,0-12.781-7.422ZM-5.672-10.5v2.047h1.578v1.117H-5.672v5.249a1.173,1.173,0,0,0,.211.763.888.888,0,0,0,.719.254,3.5,3.5,0,0,0,.688-.094V0A4.215,4.215,0,0,1-5.164.156,1.8,1.8,0,0,1-6.625-.43a2.517,2.517,0,0,1-.492-1.664V-7.336H-8.656V-8.453h1.539V-10.5ZM1.1.156A3.693,3.693,0,0,1-1.7-.973a4.19,4.19,0,0,1-1.078-3.02v-.266A5.073,5.073,0,0,1-2.293-6.5,3.748,3.748,0,0,1-.949-8.051,3.378,3.378,0,0,1,.922-8.609,3.166,3.166,0,0,1,3.484-7.523,4.7,4.7,0,0,1,4.4-4.414v.6H-1.328A3,3,0,0,0-.6-1.793a2.3,2.3,0,0,0,1.777.77,2.517,2.517,0,0,0,1.3-.312,3.259,3.259,0,0,0,.93-.828l.883.688A3.55,3.55,0,0,1,1.1.156ZM.922-7.422a1.928,1.928,0,0,0-1.469.637A3.1,3.1,0,0,0-1.281-5H2.953v-.109a2.753,2.753,0,0,0-.594-1.707A1.815,1.815,0,0,0,.922-7.422ZM7.438-8.453l.047,1.063a3.08,3.08,0,0,1,2.531-1.219q2.68,0,2.7,3.023V0H11.273V-5.594a1.946,1.946,0,0,0-.418-1.352,1.675,1.675,0,0,0-1.277-.437,2.086,2.086,0,0,0-1.234.375,2.546,2.546,0,0,0-.828.984V0H6.07V-8.453ZM18.406.156a3.693,3.693,0,0,1-2.8-1.129,4.19,4.19,0,0,1-1.078-3.02v-.266a5.073,5.073,0,0,1,.48-2.246,3.748,3.748,0,0,1,1.344-1.547,3.378,3.378,0,0,1,1.871-.559,3.166,3.166,0,0,1,2.563,1.086A4.7,4.7,0,0,1,21.7-4.414v.6H15.977a3,3,0,0,0,.73,2.02,2.3,2.3,0,0,0,1.777.77,2.517,2.517,0,0,0,1.3-.312,3.259,3.259,0,0,0,.93-.828l.883.688A3.55,3.55,0,0,1,18.406.156Zm-.18-7.578a1.928,1.928,0,0,0-1.469.637A3.1,3.1,0,0,0,16.023-5h4.234v-.109a2.753,2.753,0,0,0-.594-1.707A1.815,1.815,0,0,0,18.227-7.422Zm9.234.266a4.331,4.331,0,0,0-.711-.055A1.9,1.9,0,0,0,24.82-6V0H23.375V-8.453h1.406l.023.977A2.251,2.251,0,0,1,26.82-8.609a1.477,1.477,0,0,1,.641.109Z" transform="translate(702 4672)" fill="#12263f"/>
    <path id="Trazado_172615" data-name="Trazado 172615" d="M-20.77,0h-1.5V-11.375h1.5Zm3.883-8.453.047,1.063a3.08,3.08,0,0,1,2.531-1.219q2.68,0,2.7,3.023V0h-1.445V-5.594a1.946,1.946,0,0,0-.418-1.352,1.675,1.675,0,0,0-1.277-.437,2.086,2.086,0,0,0-1.234.375,2.546,2.546,0,0,0-.828.984V0h-1.445V-8.453ZM-7.855,0H-9.3V-8.453h1.445ZM-9.418-10.7a.863.863,0,0,1,.215-.594.807.807,0,0,1,.637-.242.819.819,0,0,1,.641.242.854.854,0,0,1,.219.594.826.826,0,0,1-.219.586.834.834,0,0,1-.641.234.821.821,0,0,1-.637-.234A.834.834,0,0,1-9.418-10.7Zm7.266,9.672A2.082,2.082,0,0,0-.8-1.492,1.649,1.649,0,0,0-.16-2.664H1.207a2.621,2.621,0,0,1-.5,1.383A3.293,3.293,0,0,1-.523-.234,3.55,3.55,0,0,1-2.152.156,3.482,3.482,0,0,1-4.9-1a4.59,4.59,0,0,1-1.02-3.152v-.242a5.089,5.089,0,0,1,.453-2.2,3.451,3.451,0,0,1,1.3-1.492,3.7,3.7,0,0,1,2-.531A3.39,3.39,0,0,1,.2-7.758a3.043,3.043,0,0,1,1,2.211H-.16A1.992,1.992,0,0,0-.781-6.895,1.932,1.932,0,0,0-2.16-7.422a2.023,2.023,0,0,0-1.707.793,3.724,3.724,0,0,0-.605,2.293v.273a3.65,3.65,0,0,0,.6,2.25A2.033,2.033,0,0,0-2.152-1.023ZM4.4,0H2.957V-8.453H4.4ZM2.84-10.7a.863.863,0,0,1,.215-.594.807.807,0,0,1,.637-.242.819.819,0,0,1,.641.242.854.854,0,0,1,.219.594.826.826,0,0,1-.219.586.834.834,0,0,1-.641.234.821.821,0,0,1-.637-.234A.834.834,0,0,1,2.84-10.7ZM11.934,0a3.036,3.036,0,0,1-.2-.891A3.225,3.225,0,0,1,9.324.156,2.984,2.984,0,0,1,7.273-.551a2.287,2.287,0,0,1-.8-1.793,2.39,2.39,0,0,1,1-2.051,4.733,4.733,0,0,1,2.824-.73h1.406v-.664A1.623,1.623,0,0,0,11.254-7a1.821,1.821,0,0,0-1.336-.449,2.107,2.107,0,0,0-1.3.391,1.151,1.151,0,0,0-.523.945H6.645a2,2,0,0,1,.449-1.223,3.066,3.066,0,0,1,1.219-.934A4.1,4.1,0,0,1,10-8.609a3.342,3.342,0,0,1,2.289.73,2.635,2.635,0,0,1,.859,2.012v3.891a4.757,4.757,0,0,0,.3,1.852V0Zm-2.4-1.1a2.54,2.54,0,0,0,1.289-.352,2.127,2.127,0,0,0,.883-.914V-4.1H10.574q-2.656,0-2.656,1.555a1.316,1.316,0,0,0,.453,1.063A1.742,1.742,0,0,0,9.535-1.1ZM19.5-7.156a4.331,4.331,0,0,0-.711-.055A1.9,1.9,0,0,0,16.863-6V0H15.418V-8.453h1.406l.023.977a2.251,2.251,0,0,1,2.016-1.133A1.477,1.477,0,0,1,19.5-8.5Z" transform="translate(271 4563)" fill="#12263f"/>
    <path id="Trazado_168763" data-name="Trazado 168763" d="M9370.919-7470.1l89.428,55.911-89.428,55.911-88.65-55.911Z" transform="translate(-8904.307 11970.274)" fill="#ff6148"/>
    <path id="Trazado_172616" data-name="Trazado 172616" d="M-33.113,0V-11.375H-29.9a5.169,5.169,0,0,1,2.625.656,4.438,4.438,0,0,1,1.762,1.867,6.078,6.078,0,0,1,.629,2.781v.727a6.1,6.1,0,0,1-.621,2.82A4.369,4.369,0,0,1-27.281-.664,5.5,5.5,0,0,1-29.965,0Zm1.5-10.148v8.922h1.578a3.434,3.434,0,0,0,2.7-1.079,4.458,4.458,0,0,0,.965-3.073v-.665a4.529,4.529,0,0,0-.91-3.014,3.239,3.239,0,0,0-2.582-1.091ZM-19.34.156a3.693,3.693,0,0,1-2.8-1.129,4.19,4.19,0,0,1-1.078-3.02v-.266a5.073,5.073,0,0,1,.48-2.246,3.748,3.748,0,0,1,1.344-1.547,3.378,3.378,0,0,1,1.871-.559,3.166,3.166,0,0,1,2.563,1.086,4.7,4.7,0,0,1,.914,3.109v.6H-21.77a3,3,0,0,0,.73,2.02,2.3,2.3,0,0,0,1.777.77,2.517,2.517,0,0,0,1.3-.312,3.259,3.259,0,0,0,.93-.828l.883.688A3.55,3.55,0,0,1-19.34.156Zm-.18-7.578a1.928,1.928,0,0,0-1.469.637A3.1,3.1,0,0,0-21.723-5h4.234v-.109a2.753,2.753,0,0,0-.594-1.707A1.815,1.815,0,0,0-19.52-7.422Zm8.539,6.4a2.082,2.082,0,0,0,1.352-.469,1.649,1.649,0,0,0,.641-1.172h1.367a2.621,2.621,0,0,1-.5,1.383A3.293,3.293,0,0,1-9.352-.234,3.55,3.55,0,0,1-10.98.156,3.482,3.482,0,0,1-13.727-1a4.59,4.59,0,0,1-1.02-3.152v-.242a5.089,5.089,0,0,1,.453-2.2,3.451,3.451,0,0,1,1.3-1.492,3.7,3.7,0,0,1,2-.531,3.39,3.39,0,0,1,2.363.852,3.043,3.043,0,0,1,1,2.211H-8.988a1.992,1.992,0,0,0-.621-1.348,1.932,1.932,0,0,0-1.379-.527,2.023,2.023,0,0,0-1.707.793A3.724,3.724,0,0,0-13.3-4.336v.273a3.65,3.65,0,0,0,.6,2.25A2.033,2.033,0,0,0-10.98-1.023ZM-4.426,0H-5.871V-8.453h1.445ZM-5.988-10.7a.863.863,0,0,1,.215-.594.807.807,0,0,1,.637-.242.819.819,0,0,1,.641.242.854.854,0,0,1,.219.594.826.826,0,0,1-.219.586.834.834,0,0,1-.641.234.821.821,0,0,1-.637-.234A.834.834,0,0,1-5.988-10.7Zm8.8,8.453a1.064,1.064,0,0,0-.441-.91A4.249,4.249,0,0,0,.828-3.711,7.277,7.277,0,0,1-.914-4.273a2.479,2.479,0,0,1-.953-.781,1.869,1.869,0,0,1-.309-1.078A2.193,2.193,0,0,1-1.3-7.891,3.432,3.432,0,0,1,.949-8.609a3.532,3.532,0,0,1,2.332.742,2.357,2.357,0,0,1,.895,1.9H2.723a1.3,1.3,0,0,0-.5-1.023,1.888,1.888,0,0,0-1.27-.43,1.976,1.976,0,0,0-1.234.344,1.082,1.082,0,0,0-.445.9.877.877,0,0,0,.414.789,5.1,5.1,0,0,0,1.5.508A7.8,7.8,0,0,1,2.934-4.3a2.558,2.558,0,0,1,1,.809,1.988,1.988,0,0,1,.324,1.152A2.163,2.163,0,0,1,3.348-.527,3.8,3.8,0,0,1,1,.156,4.257,4.257,0,0,1-.8-.2a2.922,2.922,0,0,1-1.223-1A2.42,2.42,0,0,1-2.465-2.6H-1.02A1.5,1.5,0,0,0-.437-1.449,2.258,2.258,0,0,0,1-1.023a2.331,2.331,0,0,0,1.316-.332A1.02,1.02,0,0,0,2.809-2.242ZM7.707,0H6.262V-8.453H7.707ZM6.145-10.7a.863.863,0,0,1,.215-.594A.807.807,0,0,1,7-11.531a.819.819,0,0,1,.641.242.854.854,0,0,1,.219.594.826.826,0,0,1-.219.586A.834.834,0,0,1,7-9.875a.821.821,0,0,1-.637-.234A.834.834,0,0,1,6.145-10.7ZM9.637-4.3a4.993,4.993,0,0,1,.488-2.234A3.643,3.643,0,0,1,11.484-8.07a3.7,3.7,0,0,1,1.988-.539,3.565,3.565,0,0,1,2.793,1.2,4.6,4.6,0,0,1,1.066,3.18v.1a5.036,5.036,0,0,1-.473,2.215A3.589,3.589,0,0,1,15.508-.391a3.743,3.743,0,0,1-2.02.547,3.556,3.556,0,0,1-2.785-1.2A4.575,4.575,0,0,1,9.637-4.2Zm1.453.172a3.616,3.616,0,0,0,.652,2.258,2.088,2.088,0,0,0,1.746.852,2.075,2.075,0,0,0,1.75-.863A3.955,3.955,0,0,0,15.887-4.3a3.61,3.61,0,0,0-.66-2.254,2.1,2.1,0,0,0-1.754-.863,2.075,2.075,0,0,0-1.727.852A3.925,3.925,0,0,0,11.09-4.133ZM14.129-12h1.75L13.785-9.7l-1.164,0Zm6.383,3.547.047,1.063A3.08,3.08,0,0,1,23.09-8.609q2.68,0,2.7,3.023V0H24.348V-5.594a1.946,1.946,0,0,0-.418-1.352,1.675,1.675,0,0,0-1.277-.437,2.086,2.086,0,0,0-1.234.375,2.546,2.546,0,0,0-.828.984V0H19.145V-8.453Zm9.156,5.237a4.663,4.663,0,0,1,.211-1.466,3.761,3.761,0,0,1,.8-1.193L31.7-6.929a2.36,2.36,0,0,0,.656-1.59,1.815,1.815,0,0,0-.43-1.282,1.62,1.62,0,0,0-1.25-.464,1.881,1.881,0,0,0-1.281.422,1.426,1.426,0,0,0-.484,1.133H27.465a2.632,2.632,0,0,1,.9-2.043,3.374,3.374,0,0,1,2.309-.777,3.185,3.185,0,0,1,2.3.792A2.87,2.87,0,0,1,33.8-8.567a3.926,3.926,0,0,1-1.266,2.691l-.852.842a2.623,2.623,0,0,0-.57,1.818ZM29.605-.734a.861.861,0,0,1,.215-.6.81.81,0,0,1,.637-.241.822.822,0,0,1,.641.241.852.852,0,0,1,.219.6.824.824,0,0,1-.219.588.837.837,0,0,1-.641.233.824.824,0,0,1-.637-.233A.832.832,0,0,1,29.605-.734Z" transform="translate(466 4563)" fill="#12263f"/>
  </g>
</svg>
