<svg xmlns="http://www.w3.org/2000/svg" width="79.736" height="79.76" viewBox="0 0 79.736 79.76">
  <g id="Grupo_109078" data-name="Grupo 109078" transform="translate(-3913.875 -111.474)">
    <path id="Trazado_166003" data-name="Trazado 166003" d="M3947.315,168.575a23.991,23.991,0,0,1-4.884,2.279c-.411.13-.252.485-.253.748q-.012,7.111,0,14.222a5.349,5.349,0,0,1-.728,2.836,4.87,4.87,0,0,1-3.827,2.481,19.208,19.208,0,0,1-3.771,0,5.07,5.07,0,0,1-4.533-5.086q-.031-7.07.01-14.141a1.111,1.111,0,0,0-.877-1.294,21.729,21.729,0,0,1-14.519-21.921c.578-7.822,4.4-13.711,11.148-17.695.478-.282.666-.386.227-.935a5.049,5.049,0,0,1,2.1-7.908.863.863,0,0,0,.645-.9,6.4,6.4,0,0,1,9.7-4.979c.465.283.661.35,1.018-.187a10.211,10.211,0,0,1,17.068-.026,1.132,1.132,0,0,0,1.1.562q15.55-.019,31.1-.009c3.433,0,5.57,2.125,5.57,5.548q0,31.737,0,63.475a5.166,5.166,0,0,1-5.568,5.551q-17.6,0-35.2,0a5.162,5.162,0,0,1-5.528-5.509C3947.313,180.032,3947.315,174.381,3947.315,168.575Zm7.712-8.228c0,.046.006.092.007.138-.137-.016-.175.1-.224.183a21.349,21.349,0,0,1-4.615,5.72.973.973,0,0,0-.311.849c.007,1.714.038,3.429-.014,5.141-.021.667.151.83.824.829q19.768-.033,39.536,0c.671,0,.828-.161.825-.827-.028-6.454-.017-12.909-.017-19.363q0-11.409,0-22.818c0-.4.094-.743-.574-.741q-13.62.039-27.241.011a.982.982,0,0,0-.825.365,6.378,6.378,0,0,1-5.043,2.216q-4.1-.018-8.2,0c-.238,0-.528-.135-.766.192a23.389,23.389,0,0,1,6.574,7.271c.063-1.44.094-2.834.048-4.224-.02-.587.177-.689.718-.688q9.563.029,19.125,0c.563,0,.77.082.766.722q-.045,8.275,0,16.55c0,.685-.243.754-.815.752-5.277-.018-10.554-.011-15.83-.011-1.467,0-1.466,0-1.759,1.4-.076.365-.154.729-.246,1.166h27.182c1.739,0,1.7,0,1.758,1.728.025.723-.184.863-.876.861-9-.025-18,.012-27-.049-1.32-.009-2.252.151-2.554,1.6A5.041,5.041,0,0,1,3955.027,160.347Zm15.416,15.416c-6.59,0-13.18.008-19.769-.013-.606,0-.812.121-.8.776.039,3.053.015,6.106.018,9.16a2.614,2.614,0,0,0,2.914,2.933q17.68,0,35.359,0a2.6,2.6,0,0,0,2.875-2.892c0-3.054-.022-6.107.019-9.16.009-.687-.191-.822-.844-.82C3983.622,175.774,3977.033,175.764,3970.443,175.764Zm-19.9-46.288v0c2.41,0,4.82.034,7.229-.011a3.85,3.85,0,1,0-3.776-5.209c-.18.449,0,1.134-.464,1.322a4.511,4.511,0,0,1-1.59.045.886.886,0,0,0-.16,0c-.6.116-.648-.212-.581-.682a6.288,6.288,0,0,1,2.991-4.708.731.731,0,0,0,.37-1.072,7.691,7.691,0,0,0-14.91,1.9c-.056.621-.233.72-.791.713-2-.026-2.029-.011-1.608-2.024a.844.844,0,0,0-.359-.943,3.832,3.832,0,0,0-6.219,2.19c-.132.583-.144,1.033.6,1.192a2.936,2.936,0,0,1,.92.473c1.083.706,1.079.712.1,1.577a5.3,5.3,0,0,0-.593.54c-.3.364-.522.324-.911.047a2.53,2.53,0,0,0-3.958,1.439,2.46,2.46,0,0,0,.661,2.437,1.827,1.827,0,0,0,2.108.415,18.486,18.486,0,0,1,9.509-.609,30.782,30.782,0,0,0,8.864.977C3948.822,129.423,3949.682,129.476,3950.539,129.476Zm-14.8,39.859A19.287,19.287,0,1,0,3916.451,150,19.323,19.323,0,0,0,3935.735,169.335ZM3958.8,119.19c.1.09.134.137.175.148a6.368,6.368,0,0,1,4.992,7.114c-.042.489.165.453.475.453q13.018,0,26.035.009c.47,0,.582-.15.574-.593-.026-1.365-.009-2.731-.01-4.1,0-2.073-.968-3.033-3.056-3.033H3958.8Zm6.475,30.857c2.381,0,4.762-.013,7.143.011.481,0,.635-.1.632-.614q-.034-5.818,0-11.636c0-.483-.109-.632-.616-.63q-7.1.031-14.207,0c-.48,0-.635.1-.632.613q.034,5.818,0,11.636c0,.584.23.63.7.626C3960.616,150.037,3962.943,150.047,3965.271,150.047ZM3939.6,179.161c0-2.33-.006-4.66.005-6.99,0-.4-.008-.658-.546-.559a18.494,18.494,0,0,1-6.629,0c-.415-.074-.556.018-.555.469.015,4.66,0,9.32.017,13.979a2.543,2.543,0,0,0,2.561,2.552c.776.021,1.553.008,2.33,0a2.589,2.589,0,0,0,2.815-2.791C3939.6,183.606,3939.6,181.383,3939.6,179.161Z" transform="translate(0 0)" fill="#010101"/>
    <path id="Trazado_166004" data-name="Trazado 166004" d="M4027.686,198.2a5.044,5.044,0,0,0,.459-1.017c.3-1.448,1.234-1.608,2.553-1.6,9,.061,18,.023,27,.049.691,0,.9-.138.876-.861-.06-1.727-.018-1.728-1.757-1.728h-27.183c.093-.437.171-.8.247-1.166.292-1.4.292-1.4,1.758-1.4,5.277,0,10.554-.007,15.831.011.572,0,.82-.067.815-.752q-.05-8.275,0-16.55c0-.64-.2-.723-.766-.722q-9.562.029-19.125,0c-.542,0-.738.1-.718.688.047,1.391.015,2.784-.048,4.224a23.4,23.4,0,0,0-6.574-7.271c.238-.327.528-.191.766-.192q4.1-.016,8.2,0a6.377,6.377,0,0,0,5.043-2.216.983.983,0,0,1,.825-.365q13.62.012,27.241-.011c.667,0,.574.34.574.741q0,11.409,0,22.818c0,6.454-.011,12.908.017,19.363,0,.666-.154.828-.825.827q-19.767-.033-39.536,0c-.673,0-.844-.162-.824-.829.052-1.712.021-3.427.015-5.142a.971.971,0,0,1,.312-.849,21.358,21.358,0,0,0,4.614-5.72c.048-.087.087-.2.224-.183a14.475,14.475,0,0,1-.015,1.605c-.075.665.14.834.817.832q14.061-.038,28.123-.017c2,0,1.98,0,1.949-2.012-.007-.464-.147-.569-.589-.568Q4042.832,198.2,4027.686,198.2Zm10.208,7.7h8.511c1.871,0,1.843,0,1.877-1.844.011-.6-.147-.745-.745-.742-6,.024-11.991.015-17.987.015-1.887,0-1.866,0-1.874,1.924,0,.526.14.663.663.659C4031.525,205.892,4034.709,205.9,4037.895,205.9Zm16.8-30.858h1.925c1.992,0,1.976,0,1.945-2.008-.007-.456-.133-.58-.582-.574-1.737.024-3.475.01-5.213.01-2.048,0-2.035,0-1.944,2.088.017.385.12.5.5.491C4052.45,175.031,4053.573,175.046,4054.7,175.046Zm-.035,10.286h2c1.929,0,1.907,0,1.9-1.973,0-.509-.148-.619-.63-.61-1.71.029-3.421.011-5.132.011-2.05,0-2.034,0-1.981,2.053.011.432.137.537.548.527C4052.469,185.314,4053.565,185.331,4054.661,185.332Zm.1,2.571h-2c-1.986,0-1.969,0-1.935,2.018.008.472.16.568.594.562,1.737-.022,3.475-.009,5.213-.009,1.986,0,1.968,0,1.936-2.018-.008-.472-.159-.574-.594-.562C4056.9,187.922,4055.835,187.9,4054.765,187.9Zm-2.588-10.286c-1.339,0-1.339,0-1.339,1.312,0,1.259,0,1.259,1.233,1.259,1.339,0,1.339,0,1.339-1.313C4053.41,177.617,4053.41,177.617,4052.177,177.617Zm5.052,2.571c1.324,0,1.324,0,1.324-1.327,0-1.244,0-1.244-1.247-1.244-1.324,0-1.324,0-1.324,1.327C4055.982,180.189,4055.982,180.189,4057.229,180.189Zm-5.1,23.144c-1.292,0-1.292,0-1.292,1.279s0,1.292,1.279,1.292,1.293,0,1.293-1.279S4053.41,203.332,4052.13,203.332Zm6.424,1.312c0-1.312,0-1.312-1.339-1.312-1.233,0-1.233,0-1.233,1.259,0,1.313,0,1.313,1.339,1.313C4058.554,205.9,4058.554,205.9,4058.554,204.645Z" transform="translate(-72.659 -37.855)" fill="#83d3ef"/>
    <path id="Trazado_166005" data-name="Trazado 166005" d="M4046.211,311.055c6.59,0,13.179.01,19.769-.016.652,0,.853.132.844.82-.041,3.053-.015,6.106-.019,9.16a2.6,2.6,0,0,1-2.875,2.892q-17.68,0-35.36,0a2.614,2.614,0,0,1-2.914-2.933c0-3.054.021-6.107-.018-9.16-.008-.655.2-.778.8-.776C4033.031,311.062,4039.622,311.055,4046.211,311.055Zm.03,10.285a3.857,3.857,0,1,0-3.868-3.886A3.88,3.88,0,0,0,4046.241,321.34Z" transform="translate(-75.768 -135.291)" fill="#969ea8"/>
    <path id="Trazado_166006" data-name="Trazado 166006" d="M3977.607,134.848c-.857,0-1.718-.053-2.57.009a30.783,30.783,0,0,1-8.864-.977,18.485,18.485,0,0,0-9.509.609,1.827,1.827,0,0,1-2.108-.415,2.459,2.459,0,0,1-.661-2.437,2.53,2.53,0,0,1,3.958-1.439c.389.277.608.317.911-.047a5.336,5.336,0,0,1,.593-.54c.981-.864.985-.87-.1-1.577a2.939,2.939,0,0,0-.92-.473c-.743-.159-.731-.609-.6-1.192a3.832,3.832,0,0,1,6.218-2.19.843.843,0,0,1,.359.943c-.421,2.012-.394,2,1.608,2.024.557.007.734-.092.79-.713a7.691,7.691,0,0,1,14.91-1.9.732.732,0,0,1-.371,1.072,6.287,6.287,0,0,0-2.991,4.708c-.067.47-.018.8.581.682a.887.887,0,0,1,.16,0,4.509,4.509,0,0,0,1.59-.045c.462-.188.284-.873.464-1.322a3.86,3.86,0,1,1,3.777,5.209c-2.409.045-4.819.011-7.229.011Z" transform="translate(-27.068 -5.373)" fill="#e4e7ea"/>
    <path id="Trazado_166007" data-name="Trazado 166007" d="M3941.159,209.931a19.287,19.287,0,1,1,19.3-19.243A19.322,19.322,0,0,1,3941.159,209.931Zm16.723-19.285a16.717,16.717,0,1,0-16.7,16.713A16.745,16.745,0,0,0,3957.882,190.646Z" transform="translate(-5.423 -40.597)" fill="#f1d37d"/>
    <path id="Trazado_166008" data-name="Trazado 166008" d="M4053.353,135.431h29.186c2.088,0,3.054.959,3.056,3.033,0,1.366-.016,2.732.01,4.1.008.443-.1.594-.574.593q-13.017-.021-26.035-.009c-.31,0-.517.036-.475-.452a6.368,6.368,0,0,0-4.992-7.114C4053.487,135.567,4053.457,135.521,4053.353,135.431Z" transform="translate(-94.556 -16.241)" fill="#969ea8"/>
    <path id="Trazado_166009" data-name="Trazado 166009" d="M4057.285,204.153c-2.328,0-4.655-.01-6.983.008-.469,0-.7-.042-.7-.626q.044-5.818,0-11.636c0-.51.152-.615.632-.613q7.1.026,14.207,0c.507,0,.618.147.615.63q-.029,5.818,0,11.636c0,.51-.151.618-.632.614C4062.048,204.14,4059.667,204.153,4057.285,204.153Z" transform="translate(-92.014 -54.105)" fill="#ee8774"/>
    <path id="Trazado_166010" data-name="Trazado 166010" d="M3977.487,305.7c0,2.223.006,4.445,0,6.668a2.589,2.589,0,0,1-2.815,2.791c-.777,0-1.554.017-2.33,0a2.542,2.542,0,0,1-2.561-2.552c-.02-4.66,0-9.32-.017-13.979,0-.451.14-.543.555-.469a18.5,18.5,0,0,0,6.629,0c.539-.1.548.16.546.559C3977.481,301.041,3977.487,303.371,3977.487,305.7Z" transform="translate(-37.888 -126.54)" fill="#caa072"/>
    <path id="Trazado_166011" data-name="Trazado 166011" d="M4041.6,263.174q15.146-.007,30.291-.022c.442,0,.582.1.589.568.031,2.012.048,2.012-1.949,2.012q-14.061,0-28.123.017c-.676,0-.892-.167-.816-.832a14.534,14.534,0,0,0,.015-1.605C4041.609,263.266,4041.606,263.22,4041.6,263.174Z" transform="translate(-86.576 -102.827)"/>
    <path id="Trazado_166012" data-name="Trazado 166012" d="M4051.838,281.689c-3.185,0-6.37-.012-9.555.012-.523,0-.665-.133-.663-.659.008-1.924-.013-1.924,1.874-1.924,6,0,11.991.01,17.986-.015.6,0,.757.138.746.742-.034,1.844-.006,1.844-1.877,1.844Z" transform="translate(-86.602 -113.641)"/>
    <path id="Trazado_166013" data-name="Trazado 166013" d="M4117.306,185.886c-1.123,0-2.246-.014-3.368.008-.381.008-.485-.106-.5-.491-.091-2.089-.1-2.088,1.944-2.088,1.737,0,3.475.014,5.212-.01.449-.006.576.118.583.574.031,2.008.046,2.008-1.945,2.008Z" transform="translate(-135.269 -48.696)"/>
    <path id="Trazado_166014" data-name="Trazado 166014" d="M4117.3,217.82c-1.1,0-2.192-.017-3.288.009-.41.01-.536-.1-.547-.527-.054-2.053-.069-2.053,1.981-2.053,1.71,0,3.422.018,5.132-.011.482-.008.629.1.63.61,0,1.973.025,1.973-1.9,1.973Z" transform="translate(-135.298 -70.344)"/>
    <path id="Trazado_166015" data-name="Trazado 166015" d="M4117.418,231.221c1.069,0,2.139.019,3.207-.009.435-.011.586.091.594.562.033,2.018.05,2.018-1.936,2.018-1.737,0-3.475-.013-5.212.009-.434.005-.586-.09-.594-.562-.034-2.019-.051-2.018,1.935-2.018Z" transform="translate(-135.312 -81.174)"/>
    <path id="Trazado_166016" data-name="Trazado 166016" d="M4114.873,199.3c1.233,0,1.233,0,1.233,1.259,0,1.313,0,1.313-1.339,1.313-1.232,0-1.232,0-1.232-1.259C4113.534,199.3,4113.534,199.3,4114.873,199.3Z" transform="translate(-135.355 -59.543)"/>
    <path id="Trazado_166017" data-name="Trazado 166017" d="M4130.753,201.876c-1.247,0-1.247,0-1.247-1.244,0-1.327,0-1.327,1.324-1.327,1.248,0,1.248,0,1.248,1.244C4132.078,201.876,4132.078,201.876,4130.753,201.876Z" transform="translate(-146.183 -59.543)"/>
    <path id="Trazado_166018" data-name="Trazado 166018" d="M4114.827,279.149c1.279,0,1.279,0,1.279,1.292s0,1.279-1.292,1.279-1.279,0-1.279-1.292S4113.534,279.149,4114.827,279.149Z" transform="translate(-135.355 -113.672)"/>
    <path id="Trazado_166019" data-name="Trazado 166019" d="M4132.078,280.461c0,1.259,0,1.259-1.233,1.259-1.339,0-1.339,0-1.339-1.313,0-1.259,0-1.259,1.232-1.259C4132.078,279.149,4132.078,279.149,4132.078,280.461Z" transform="translate(-146.183 -113.672)"/>
    <path id="Trazado_166020" data-name="Trazado 166020" d="M4081.467,326.785a3.857,3.857,0,1,1,3.847-3.828A3.876,3.876,0,0,1,4081.467,326.785Zm-.016-2.573a1.285,1.285,0,1,0-1.278-1.27A1.3,1.3,0,0,0,4081.451,324.213Z" transform="translate(-110.994 -140.737)" fill="#020202"/>
    <path id="Trazado_166021" data-name="Trazado 166021" d="M3963.3,196.061a16.717,16.717,0,1,1-16.695-16.715A16.748,16.748,0,0,1,3963.3,196.061ZM3932.436,196a14.145,14.145,0,1,0,14.2-14.081A14.171,14.171,0,0,0,3932.436,196Z" transform="translate(-10.839 -46.012)" fill="#030302"/>
    <path id="Trazado_166022" data-name="Trazado 166022" d="M4086.868,329.626a1.285,1.285,0,1,1,1.29-1.259A1.292,1.292,0,0,1,4086.868,329.626Z" transform="translate(-116.411 -146.15)" fill="#dadde0"/>
    <path id="Trazado_166023" data-name="Trazado 166023" d="M3937.851,201.413a14.145,14.145,0,1,1,14.084,14.2A14.165,14.165,0,0,1,3937.851,201.413Zm14.125,9.061c1.124,0,2.248-.012,3.372.007.361.006.5-.07.518-.476.1-2.075.114-2.093-1.936-2.089-.523,0-.668-.135-.661-.661q.045-3.21,0-6.421c-.007-.528.142-.661.663-.66,1.988.006,1.969-.014,1.936-2.009-.008-.481-.173-.561-.6-.557q-3.292.028-6.583,0c-.4,0-.6.067-.552.518.064.659-.267,1.5.125,1.935.365.4,1.214.129,1.845.11.5-.014.628.125.622.623q-.043,3.25,0,6.5c.007.5-.128.635-.623.621-.631-.017-1.48-.293-1.844.111-.391.434-.061,1.276-.125,1.936-.044.453.16.525.553.517C3949.781,210.459,3950.879,210.474,3951.976,210.474Zm1.305-16.7c0-1.3,0-1.3-1.274-1.3-1.3,0-1.3,0-1.3,1.274,0,1.3,0,1.3,1.274,1.3C3953.281,195.045,3953.281,195.045,3953.281,193.771Z" transform="translate(-16.254 -51.426)" fill="#83d2ee"/>
    <path id="Trazado_166024" data-name="Trazado 166024" d="M3973.469,232.1c-1.1,0-2.195-.015-3.292.008-.394.008-.6-.064-.553-.517.064-.659-.266-1.5.125-1.936.364-.4,1.213-.129,1.844-.111.494.014.629-.121.623-.621q-.044-3.25,0-6.5c.006-.5-.124-.637-.622-.623-.631.018-1.479.293-1.845-.11-.391-.433-.061-1.276-.125-1.935-.043-.452.157-.521.552-.518q3.292.025,6.583,0c.427,0,.593.077.6.557.033,2,.052,2.016-1.936,2.009-.521,0-.67.131-.663.66q.047,3.21,0,6.421c-.007.526.138.663.661.661,2.049,0,2.035.014,1.935,2.089-.019.406-.156.482-.517.476C3975.717,232.093,3974.593,232.1,3973.469,232.1Z" transform="translate(-37.747 -73.057)"/>
    <path id="Trazado_166025" data-name="Trazado 166025" d="M3980.348,204.595c0,1.274,0,1.274-1.3,1.274-1.274,0-1.274,0-1.274-1.3,0-1.274,0-1.274,1.3-1.274C3980.348,203.3,3980.348,203.3,3980.348,204.595Z" transform="translate(-43.321 -62.25)"/>
  </g>
</svg>
