<svg xmlns="http://www.w3.org/2000/svg" width="100" height="100" viewBox="0 0 100 100">
  <g id="Grupo_111656" data-name="Grupo 111656" transform="translate(-285 -1828)">
    <g id="Grupo_111482" data-name="Grupo 111482" transform="translate(-49.862 -351.181)">
      <g id="Grupo_111302" data-name="Grupo 111302" transform="translate(334.862 2179.181)">
        <circle id="Elipse_4722" data-name="Elipse 4722" cx="50" cy="50" r="50" transform="translate(0 0)" fill="#083142"/>
        <circle id="Elipse_4723" data-name="Elipse 4723" cx="43.478" cy="43.478" r="43.478" transform="translate(6.522 6.522)" fill="#fff"/>
      </g>
    </g>
    <g id="mujer" transform="translate(309.065 1852.587)">
      <path id="Trazado_6424" data-name="Trazado 6424" d="M45.757,47.77l-2.184-.9L40.26,45.52s2.368,8.768-2.652,8.768c-4.183,0-5.856-1.673-5.856-1.673s-1.673,1.673-5.856,1.673a2.918,2.918,0,0,1-2.987-2.51H12.535A12.481,12.481,0,0,0,10,59.307H53.5A12.465,12.465,0,0,0,45.757,47.77Z" transform="translate(-2.47 -8.274)" fill="#b4dd7f"/>
      <path id="Trazado_6425" data-name="Trazado 6425" d="M44.508,45.326s2.368,8.768-2.652,8.768C37.673,54.093,36,52.42,36,52.42l4.392-5.856,1.673-2.234Z" transform="translate(-6.719 -8.08)" fill="#ff826e"/>
      <path id="Trazado_6426" data-name="Trazado 6426" d="M25.907,52.427a6.685,6.685,0,0,0,5.538-2.937l2.828,3.773s-1.673,1.673-5.856,1.673a2.918,2.918,0,0,1-2.987-2.51Z" transform="translate(-4.992 -8.923)" fill="#ff826e"/>
      <path id="Trazado_6427" data-name="Trazado 6427" d="M39.84,47l-4.392,5.856L32.62,49.083A6.821,6.821,0,0,0,33.565,47H39.84Z" transform="translate(-6.166 -8.516)" fill="#ccd1d9"/>
      <path id="Trazado_6428" data-name="Trazado 6428" d="M46.772,15.386V35.465a6.646,6.646,0,0,1-1.564,4.3l-3.313-1.355-2.443-1-.636-.259a3.35,3.35,0,0,1-2.083-3.1V33.013A14.671,14.671,0,0,0,43.425,20.7V17.059A31.581,31.581,0,0,1,30.617,14.34L29.2,13.713l-.745.218A7.033,7.033,0,0,0,23.346,20.7a14.665,14.665,0,0,0,4.518,10.583H20v-15.9a13.386,13.386,0,1,1,26.772,0Z" transform="translate(-4.104 -1.163)" fill="#fcd770"/>
      <path id="Trazado_6429" data-name="Trazado 6429" d="M27.617,47.449a6.685,6.685,0,0,1-5.538,2.937H8.693A6.693,6.693,0,1,1,8.693,37H28.772v6.693a6.893,6.893,0,0,1-.209,1.673A6.821,6.821,0,0,1,27.617,47.449Z" transform="translate(-1.163 -6.882)" fill="#e6e9ed"/>
      <g id="Grupo_23385" data-name="Grupo 23385" transform="translate(6.053 35.728)">
        <circle id="Elipse_1310" data-name="Elipse 1310" cx="1.5" cy="1.5" r="1.5" transform="translate(12.947 -0.315)" fill="#fcd770"/>
        <ellipse id="Elipse_1311" data-name="Elipse 1311" cx="1" cy="1.5" rx="1" ry="1.5" transform="translate(6.947 -0.315)" fill="#fcd770"/>
        <circle id="Elipse_1312" data-name="Elipse 1312" cx="1.5" cy="1.5" r="1.5" transform="translate(-0.053 -0.315)" fill="#fcd770"/>
      </g>
      <path id="Trazado_6430" data-name="Trazado 6430" d="M41.7,43.471,40.025,45.7H33.75a6.893,6.893,0,0,0,.209-1.673V40a14.622,14.622,0,0,0,1.673.686,14.722,14.722,0,0,0,3.346-1.615v1.037a3.35,3.35,0,0,0,2.083,3.1Z" transform="translate(-6.351 -7.22)" fill="#f0d0b4"/>
      <path id="Trazado_6431" data-name="Trazado 6431" d="M32.366,33.569H28.518A14.665,14.665,0,0,1,24,22.986a7.033,7.033,0,0,1,5.112-6.768L29.856,16l1.414.627a31.581,31.581,0,0,0,12.809,2.719v3.639a14.705,14.705,0,0,1-10.039,13.93,14.622,14.622,0,0,1-1.673-.686Z" transform="translate(-4.758 -3.451)" fill="#f0d0b4"/>
      <ellipse id="Elipse_1313" data-name="Elipse 1313" cx="1" cy="0.5" rx="1" ry="0.5" transform="translate(23 18.413)"/>
      <ellipse id="Elipse_1314" data-name="Elipse 1314" cx="1" cy="0.5" rx="1" ry="0.5" transform="translate(33 18.413)"/>
      <path id="Trazado_6432" data-name="Trazado 6432" d="M38.693,32H37.02a1.673,1.673,0,0,1-3.346,0H32a3.346,3.346,0,0,0,6.693,0Z" transform="translate(-6.065 -6.065)"/>
      <path id="Trazado_6433" data-name="Trazado 6433" d="M46.912,16.7l1.668-.138a11.064,11.064,0,0,0-.305-1.812l-1.621.416a9.157,9.157,0,0,1,.259,1.534Z" transform="translate(-8.459 -3.247)"/>
      <path id="Trazado_6434" data-name="Trazado 6434" d="M44.369,12.042l1.521-.7A10.912,10.912,0,0,0,36,5V6.673A9.234,9.234,0,0,1,44.369,12.042Z" transform="translate(-6.719 -1.654)"/>
      <path id="Trazado_6435" data-name="Trazado 6435" d="M17.51,42a2.51,2.51,0,1,0,2.51,2.51A2.513,2.513,0,0,0,17.51,42Zm0,3.346a.837.837,0,1,1,.837-.837A.837.837,0,0,1,17.51,45.346Z" transform="translate(-3.287 -7.699)"/>
      <path id="Trazado_6436" data-name="Trazado 6436" d="M9.51,42a2.51,2.51,0,1,0,2.51,2.51A2.513,2.513,0,0,0,9.51,42Zm0,3.346a.837.837,0,1,1,.837-.837A.837.837,0,0,1,9.51,45.346Z" transform="translate(-1.98 -7.699)"/>
      <path id="Trazado_6437" data-name="Trazado 6437" d="M28.02,44.51a2.51,2.51,0,1,0-2.51,2.51A2.513,2.513,0,0,0,28.02,44.51Zm-3.346,0a.837.837,0,1,1,.837.837A.837.837,0,0,1,24.673,44.51Z" transform="translate(-4.595 -7.699)"/>
      <path id="Trazado_6438" data-name="Trazado 6438" d="M44.607,39.726l-1.215-.5A7.547,7.547,0,0,0,44.5,35.3V15.222a14.222,14.222,0,1,0-28.445,0V30.281H8.53a7.53,7.53,0,0,0,0,15.059h.986a13.157,13.157,0,0,0-1.823,6.693v.837H52.87v-.837A13.249,13.249,0,0,0,44.607,39.726Zm-26.875-24.5a12.549,12.549,0,1,1,25.1,0V35.3A5.852,5.852,0,0,1,41.8,38.578l-5.778-2.364a2.5,2.5,0,0,1-1.56-2.323v-.6a15.489,15.489,0,0,0,6.693-12.754V16.059h-.837a30.507,30.507,0,0,1-12.469-2.646l-1.691-.752-1.039.3a7.915,7.915,0,0,0-5.717,7.578,15.585,15.585,0,0,0,3.474,9.746H17.732ZM37.793,45.451a1.917,1.917,0,0,1-1.656.726,9.447,9.447,0,0,1-4.669-1.025L36.63,38.27l1.448.592c.377,1.631.868,5.086-.284,6.588ZM25.12,30.281a13.907,13.907,0,0,1-4.042-9.746,6.234,6.234,0,0,1,4.5-5.968l.456-.13,1.135.505a32.165,32.165,0,0,0,12.312,2.779v2.814a13.828,13.828,0,0,1-9.2,13.044c-.267-.1-.548-.214-.837-.341V30.281Zm9.927,7.31-.792,1.056H29.4a7.475,7.475,0,0,0,.049-.837V35.045c.192.074.386.151.572.213l.264.088.264-.088a15.548,15.548,0,0,0,2.275-.965,4.152,4.152,0,0,0,2.227,3.3Zm-6.042,2.729H33l-2.719,3.625-1.82-2.427a7.485,7.485,0,0,0,.545-1.2Zm-1.581,2.605,1.669,2.225a9.438,9.438,0,0,1-4.668,1.026,1.908,1.908,0,0,1-1.757-.875A7.5,7.5,0,0,0,27.424,42.926ZM2.673,37.811A5.863,5.863,0,0,1,8.53,31.955H27.772v5.856a5.863,5.863,0,0,1-5.856,5.856H8.53A5.863,5.863,0,0,1,2.673,37.811ZM11.5,45.34H20.83a3.63,3.63,0,0,0,3.595,2.51,11.59,11.59,0,0,0,5.02-1V51.2H17.732V47.014H16.059V51.2H9.4A11.52,11.52,0,0,1,11.5,45.34Zm33,5.856V47.014H42.831V51.2H31.118V46.851a11.59,11.59,0,0,0,5.02,1,3.6,3.6,0,0,0,2.985-1.383c1.386-1.81,1.14-4.933.814-6.844l4.036,1.651A11.578,11.578,0,0,1,51.167,51.2Z" transform="translate(-1 -1)"/>
    </g>
  </g>
</svg>
