<svg xmlns="http://www.w3.org/2000/svg" width="70.472" height="73.914" viewBox="0 0 70.472 73.914">
  <g id="manual_1_" data-name="manual(1)" transform="translate(-11.919)">
    <g id="Grupo_111643" data-name="Grupo 111643" transform="translate(13.002 1.083)">
      <g id="Grupo_111642" data-name="Grupo 111642" transform="translate(0)">
        <path id="Trazado_167269" data-name="Trazado 167269" d="M78.569,71.065v.377a7.807,7.807,0,0,0,7.807,7.807h44.152a7.807,7.807,0,0,0,7.807-7.807V15.308A7.807,7.807,0,0,0,130.528,7.5H86.376a7.807,7.807,0,0,0-7.807,7.807v6.75" transform="translate(-70.029 -7.501)" fill="#f9f6f9"/>
        <path id="Trazado_167270" data-name="Trazado 167270" d="M82.5,71.442V15.308A7.807,7.807,0,0,1,90.3,7.5H86.377a7.807,7.807,0,0,0-7.807,7.807V71.442a7.807,7.807,0,0,0,7.807,7.807H90.3A7.807,7.807,0,0,1,82.5,71.442Z" transform="translate(-70.03 -7.501)" fill="#dddaec"/>
        <g id="Grupo_111640" data-name="Grupo 111640" transform="translate(0 7.552)">
          <path id="Trazado_167271" data-name="Trazado 167271" d="M27.959,64.134H25.087a1.337,1.337,0,1,0,0,2.675h5.24a1.339,1.339,0,0,0,1.337-1.337,2.165,2.165,0,1,1,4.331,0,5.675,5.675,0,0,1-5.668,5.668h-5.24a5.668,5.668,0,1,1,0-11.337h2.872" transform="translate(-19.419 -59.803)" fill="#ffe07d"/>
          <path id="Trazado_167272" data-name="Trazado 167272" d="M27.959,167.278H25.087a1.337,1.337,0,0,0,0,2.675h5.24a1.339,1.339,0,0,0,1.337-1.337,2.165,2.165,0,1,1,4.331,0,5.675,5.675,0,0,1-5.668,5.668h-5.24a5.668,5.668,0,0,1,0-11.337h2.872" transform="translate(-19.419 -148.055)" fill="#ffe07d"/>
          <path id="Trazado_167273" data-name="Trazado 167273" d="M27.959,270.422H25.087a1.337,1.337,0,0,0,0,2.675h5.24a1.339,1.339,0,0,0,1.337-1.337,2.165,2.165,0,1,1,4.331,0,5.675,5.675,0,0,1-5.668,5.668h-5.24a5.668,5.668,0,0,1,0-11.337h2.872" transform="translate(-19.419 -236.306)" fill="#ffe07d"/>
          <path id="Trazado_167274" data-name="Trazado 167274" d="M27.959,373.566H25.087a1.337,1.337,0,0,0,0,2.675h5.24a1.339,1.339,0,0,0,1.337-1.337,2.165,2.165,0,0,1,4.331,0,5.675,5.675,0,0,1-5.668,5.668h-5.24a5.668,5.668,0,1,1,0-11.337h2.872" transform="translate(-19.419 -324.558)" fill="#ffe07d"/>
        </g>
        <g id="Grupo_111641" data-name="Grupo 111641" transform="translate(0 7.552)">
          <path id="Trazado_167275" data-name="Trazado 167275" d="M21.8,374.908a5.675,5.675,0,0,0,5.669,5.668H25.088a5.668,5.668,0,0,1,0-11.335H27.47A5.675,5.675,0,0,0,21.8,374.908Z" transform="translate(-19.42 -324.563)" fill="#ffd064"/>
          <path id="Trazado_167276" data-name="Trazado 167276" d="M21.8,271.764a5.675,5.675,0,0,0,5.669,5.668H25.088a5.668,5.668,0,0,1,0-11.335H27.47A5.675,5.675,0,0,0,21.8,271.764Z" transform="translate(-19.42 -236.311)" fill="#ffd064"/>
          <path id="Trazado_167277" data-name="Trazado 167277" d="M21.8,168.62a5.675,5.675,0,0,0,5.669,5.668H25.088a5.668,5.668,0,0,1,0-11.335H27.47A5.675,5.675,0,0,0,21.8,168.62Z" transform="translate(-19.42 -148.06)" fill="#ffd064"/>
          <path id="Trazado_167278" data-name="Trazado 167278" d="M21.8,65.476a5.675,5.675,0,0,0,5.669,5.668H25.088a5.668,5.668,0,0,1,0-11.335H27.47A5.675,5.675,0,0,0,21.8,65.476Z" transform="translate(-19.42 -59.808)" fill="#ffd064"/>
        </g>
      </g>
    </g>
    <g id="Grupo_111644" data-name="Grupo 111644" transform="translate(11.919 0)">
      <path id="Trazado_167279" data-name="Trazado 167279" d="M73.5,0H29.349A8.9,8.9,0,0,0,20.56,7.552H18.67a6.73,6.73,0,0,0-6.257,4.217,1.083,1.083,0,1,0,2.007.815A4.573,4.573,0,0,1,18.67,9.718h1.789v2.164H18.67a2.421,2.421,0,0,0,0,4.841h5.24a2.423,2.423,0,0,0,2.421-2.42,1.082,1.082,0,1,1,2.164,0,4.591,4.591,0,0,1-4.586,4.586H18.67a4.573,4.573,0,0,1-4.251-2.867,1.083,1.083,0,0,0-2.007.815,6.731,6.731,0,0,0,6.257,4.217h1.789v1.389H18.67a6.751,6.751,0,1,0,0,13.5h1.789v1.39H18.67a6.751,6.751,0,1,0,0,13.5h1.789v1.39H18.67a6.751,6.751,0,0,0,0,13.5h1.82a8.9,8.9,0,0,0,8.859,8.183H73.5a8.9,8.9,0,0,0,8.89-8.89V8.89A8.9,8.9,0,0,0,73.5,0ZM18.416,14.3a.258.258,0,0,1,.254-.256h1.789v.51H18.67A.257.257,0,0,1,18.416,14.3ZM18.67,29.45a.255.255,0,0,1,0-.509h1.789v.509ZM14.085,29.2A4.591,4.591,0,0,1,18.67,24.61h1.789v2.165H18.67a2.42,2.42,0,0,0,0,4.841h5.24a2.423,2.423,0,0,0,2.42-2.42,1.083,1.083,0,1,1,2.165,0,4.591,4.591,0,0,1-4.585,4.585H18.67A4.591,4.591,0,0,1,14.085,29.2ZM18.67,44.342a.255.255,0,0,1,0-.509h1.789v.509Zm-4.585-.255A4.591,4.591,0,0,1,18.67,39.5h1.789v2.165H18.67a2.42,2.42,0,0,0,0,4.841h5.24a2.423,2.423,0,0,0,2.42-2.42,1.083,1.083,0,0,1,2.165,0,4.591,4.591,0,0,1-4.585,4.585H18.67A4.591,4.591,0,0,1,14.085,44.088ZM18.67,59.234a.255.255,0,0,1,0-.509h1.789v.509Zm-4.585-.255a4.591,4.591,0,0,1,4.585-4.585h1.789V56.56H18.67a2.42,2.42,0,0,0,0,4.841h5.24a2.423,2.423,0,0,0,2.42-2.42,1.083,1.083,0,0,1,2.165,0,4.591,4.591,0,0,1-4.585,4.585H18.67A4.591,4.591,0,0,1,14.085,58.98Zm66.141,6.044A6.732,6.732,0,0,1,73.5,71.749H29.349a6.734,6.734,0,0,1-6.687-6.018H23.91a6.759,6.759,0,0,0,6.751-6.751,3.248,3.248,0,0,0-6.5,0,.255.255,0,0,1-.255.255H22.625v-8.4H23.91a6.759,6.759,0,0,0,6.751-6.751,3.248,3.248,0,1,0-6.5,0,.255.255,0,0,1-.255.255H22.625v-8.4H23.91A6.759,6.759,0,0,0,30.661,29.2a3.248,3.248,0,1,0-6.5,0,.255.255,0,0,1-.255.255H22.625v-8.4h1.284A6.759,6.759,0,0,0,30.661,14.3a3.248,3.248,0,1,0-6.5,0,.258.258,0,0,1-.256.254H22.625V8.89a6.732,6.732,0,0,1,6.724-6.724H73.5A6.732,6.732,0,0,1,80.226,8.89V65.024Z" transform="translate(-11.919 0)"/>
      <path id="Trazado_167280" data-name="Trazado 167280" d="M214.684,132.4a1.082,1.082,0,0,0,1.4-.627l.4-1.045h2.787l.393,1.042a1.083,1.083,0,0,0,2.026-.765l-2.641-7-.012-.03a1.239,1.239,0,0,0-1.15-.771h0a1.24,1.24,0,0,0-1.15.773l-.01.025-2.665,7A1.083,1.083,0,0,0,214.684,132.4Zm3.766-3.838H217.3l.575-1.51Z" transform="translate(-184.811 -105.417)"/>
      <path id="Trazado_167281" data-name="Trazado 167281" d="M388.776,124.006l-.012-.03a1.239,1.239,0,0,0-1.15-.77h0a1.24,1.24,0,0,0-1.15.773l-.01.025-2.665,7a1.083,1.083,0,1,0,2.024.771l.4-1.045H389l.393,1.042a1.083,1.083,0,0,0,2.026-.765Zm-1.741,4.555.575-1.51.57,1.51Z" transform="translate(-330.035 -105.417)"/>
      <path id="Trazado_167282" data-name="Trazado 167282" d="M274.209,132.47a1.083,1.083,0,0,0,1.083-1.083v-3.611l2.816,4.078a1.173,1.173,0,0,0,1.327.483,1.21,1.21,0,0,0,.83-1.2l-.066-6.859a1.083,1.083,0,0,0-1.083-1.072h-.011a1.083,1.083,0,0,0-1.072,1.093l.036,3.687-2.969-4.3a1.083,1.083,0,0,0-1.974.615v7.084A1.083,1.083,0,0,0,274.209,132.47Z" transform="translate(-235.412 -105.418)"/>
      <path id="Trazado_167283" data-name="Trazado 167283" d="M145.974,131.623a1.241,1.241,0,0,0,1.178.847h.007a1.241,1.241,0,0,0,1.176-.86c0-.012.008-.025.011-.037l.894-3.136.592,3.1a1.083,1.083,0,1,0,2.127-.406l-1.324-6.927a1.243,1.243,0,0,0-2.4-.136c0,.012-.008.025-.011.037l-1.087,3.811-1.128-3.822-.012-.038a1.243,1.243,0,0,0-2.4.173l-1.247,6.912a1.083,1.083,0,1,0,2.131.385l.556-3.079.926,3.14Z" transform="translate(-123.502 -105.417)"/>
      <path id="Trazado_167284" data-name="Trazado 167284" d="M444.905,130.3l-1.4.005V124.29a1.083,1.083,0,1,0-2.166,0v7.092a1.083,1.083,0,0,0,.9,1.067,6.236,6.236,0,0,0,.927.022c.383,0,.937,0,1.747-.007a1.083,1.083,0,1,0-.012-2.166Z" transform="translate(-379.341 -105.418)"/>
      <path id="Trazado_167285" data-name="Trazado 167285" d="M333.221,131.925a3.461,3.461,0,0,0,1.89.544h.006a3.646,3.646,0,0,0,1.656-.384,3.205,3.205,0,0,0,1.933-2.918v-4.879a1.083,1.083,0,0,0-2.166,0v4.879c0,.3-.088.654-.742.983a1.482,1.482,0,0,1-.682.153h0a1.311,1.311,0,0,1-.727-.2c-.513-.328-.614-.588-.614-.927v-4.884a1.083,1.083,0,1,0-2.166,0v4.884A3.15,3.15,0,0,0,333.221,131.925Z" transform="translate(-285.45 -105.417)"/>
      <path id="Trazado_167286" data-name="Trazado 167286" d="M200.158,245.284h-36.12a1.083,1.083,0,1,0,0,2.166h36.12a1.083,1.083,0,0,0,0-2.166Z" transform="translate(-141.148 -209.869)"/>
      <path id="Trazado_167287" data-name="Trazado 167287" d="M200.158,282.838h-36.12a1.083,1.083,0,1,0,0,2.166h36.12a1.083,1.083,0,1,0,0-2.166Z" transform="translate(-141.148 -242.001)"/>
      <path id="Trazado_167288" data-name="Trazado 167288" d="M378.127,320.4h-6.089a1.083,1.083,0,1,0,0,2.166h6.089a1.083,1.083,0,1,0,0-2.166Z" transform="translate(-319.116 -274.136)"/>
      <path id="Trazado_167289" data-name="Trazado 167289" d="M164.039,322.562h25.7a1.083,1.083,0,1,0,0-2.166h-25.7a1.083,1.083,0,0,0,0,2.166Z" transform="translate(-141.149 -274.136)"/>
      <path id="Trazado_167290" data-name="Trazado 167290" d="M200.158,357.946h-36.12a1.083,1.083,0,1,0,0,2.166h36.12a1.083,1.083,0,0,0,0-2.166Z" transform="translate(-141.148 -306.264)"/>
      <path id="Trazado_167291" data-name="Trazado 167291" d="M200.158,395.5h-36.12a1.083,1.083,0,1,0,0,2.166h36.12a1.083,1.083,0,1,0,0-2.166Z" transform="translate(-141.148 -338.396)"/>
    </g>
  </g>
</svg>
