<svg xmlns="http://www.w3.org/2000/svg" width="73.777" height="73.777" viewBox="0 0 73.777 73.777">
  <g id="clasificacion_1_" data-name="clasificacion(1)" transform="translate(-1 -0.904)">
    <g id="Grupo_111638" data-name="Grupo 111638" transform="translate(2.19 2.094)">
      <g id="Grupo_111617" data-name="Grupo 111617" transform="translate(12.292 45.218)">
        <path id="Trazado_167243" data-name="Trazado 167243" d="M16.7,39.9l4.367,2.19a30.951,30.951,0,0,1-4.367,7.33,30.854,30.854,0,0,1-3.927-6.331c-.155-.333-.309-.666-.44-1.011Z" transform="translate(-12.33 -39.904)" fill="#ffeaa7"/>
      </g>
      <g id="Grupo_111618" data-name="Grupo 111618" transform="translate(16.659 39.268)">
        <path id="Trazado_167244" data-name="Trazado 167244" d="M19.57,34.9a15.31,15.31,0,0,1,2.975.583l-.286,1.464a31.723,31.723,0,0,1-1.892,6.093L16,40.854Z" transform="translate(-16 -34.904)" fill="#fcd770"/>
      </g>
      <g id="Grupo_111619" data-name="Grupo 111619" transform="translate(10.115 39.268)">
        <path id="Trazado_167245" data-name="Trazado 167245" d="M13.475,34.9l3.57,5.95-4.367,2.178a30.8,30.8,0,0,1-1.892-6.081L10.5,35.5A14.328,14.328,0,0,1,13.475,34.9Z" transform="translate(-10.5 -34.904)" fill="#fcd770"/>
      </g>
      <g id="Grupo_111620" data-name="Grupo 111620" transform="translate(0 39.852)">
        <path id="Trazado_167246" data-name="Trazado 167246" d="M14.292,42.938c.131.345.286.678.44,1.011a30.854,30.854,0,0,0,3.927,6.331,30.951,30.951,0,0,0,4.367-7.33,31.723,31.723,0,0,0,1.892-6.093l.286-1.464a14.434,14.434,0,0,1,4.4,2.261,5.929,5.929,0,0,0,5.319,4.272v.012l-.8,2.392a16.754,16.754,0,0,0-2.213.571A15.936,15.936,0,0,0,21.253,57.42H2V49.15A14.371,14.371,0,0,1,12.115,35.406l.286,1.452a30.8,30.8,0,0,0,1.892,6.081Z" transform="translate(-2 -35.394)" fill="#4fc1e9"/>
      </g>
      <g id="Grupo_111621" data-name="Grupo 111621" transform="translate(38.471 33.688)">
        <path id="Trazado_167247" data-name="Trazado 167247" d="M45.159,31.083A5.489,5.489,0,0,0,47,34.45,5.433,5.433,0,0,0,50.6,35.795a5.5,5.5,0,0,0,5.438-4.712l.119-.857v-.012a14.265,14.265,0,0,1,11.1,13.911v8.33H45.73a15.919,15.919,0,0,0-8.4-6.569,16.581,16.581,0,0,0-2.2-.571l-.8-2.392v-.012a5.93,5.93,0,0,0,5.557-5.926h1.19a3.57,3.57,0,0,0,2.439-6.176l.036-.155a10.19,10.19,0,0,1,1.487-.428Z" transform="translate(-34.33 -30.214)" fill="#5cd6b3"/>
      </g>
      <g id="Grupo_111622" data-name="Grupo 111622" transform="translate(19.039 49.359)">
        <path id="Trazado_167248" data-name="Trazado 167248" d="M25.14,65.422H18V58.5a15.575,15.575,0,0,1,.214-2.594A15.936,15.936,0,0,1,28.876,43.384l.012.024L29.9,53.522l4.76-5.95,4.76,5.95,1.011-10.138A15.94,15.94,0,0,1,51.319,58.5v6.926H25.14Z" transform="translate(-18 -43.384)" fill="#ff826e"/>
      </g>
      <g id="Grupo_111623" data-name="Grupo 111623" transform="translate(35.699 48.788)">
        <path id="Trazado_167249" data-name="Trazado 167249" d="M37.771,43.475,36.76,53.614,32,47.664l3.57-4.76A16.581,16.581,0,0,1,37.771,43.475Z" transform="translate(-32 -42.904)" fill="#fc6e51"/>
      </g>
      <g id="Grupo_111624" data-name="Grupo 111624" transform="translate(29.915 48.788)">
        <path id="Trazado_167250" data-name="Trazado 167250" d="M29.353,42.9l3.57,4.76-4.76,5.95L27.152,43.5l-.012-.024A16.754,16.754,0,0,1,29.353,42.9Z" transform="translate(-27.14 -42.904)" fill="#fc6e51"/>
      </g>
      <g id="Grupo_111625" data-name="Grupo 111625" transform="translate(47.693 27.179)">
        <path id="Trazado_167251" data-name="Trazado 167251" d="M46.745,27.314l-.75,2.237a2.373,2.373,0,0,1-1.833,1.583c-.2.036-.4.083-.595.131a10.19,10.19,0,0,0-1.487.428l.845-3.368a8.48,8.48,0,0,0,.25-2.059,7.112,7.112,0,0,0-.155-1.523h.012A5.949,5.949,0,0,0,46.768,27.2Z" transform="translate(-42.08 -24.744)" fill="#fcd770"/>
      </g>
      <g id="Grupo_111626" data-name="Grupo 111626" transform="translate(42.838)">
        <path id="Trazado_167252" data-name="Trazado 167252" d="M57.039,16.183h-4.76a4.758,4.758,0,0,1-4.76-4.76,4.758,4.758,0,0,1-4.76,4.76V25.7a5.447,5.447,0,0,0,.036.631l-.012.012L41.463,24.62A8.556,8.556,0,0,0,38,22.514v-7.52a13.089,13.089,0,1,1,26.179,0V41.613a14.262,14.262,0,0,0-8.722-6.021c-.2-.048-.393-.083-.595-.119a2.373,2.373,0,0,1-1.833-1.583l-.75-2.237h1.19a5.952,5.952,0,0,0,5.95-5.95v-9.52Z" transform="translate(-38 -1.904)" fill="#fcd770"/>
      </g>
      <g id="Grupo_111627" data-name="Grupo 111627" transform="translate(3.57 7.14)">
        <path id="Trazado_167253" data-name="Trazado 167253" d="M24.039,20.993h-4.76a4.758,4.758,0,0,1-4.76-4.76,4.758,4.758,0,0,1-4.76,4.76v2.38H8.57a3.519,3.519,0,0,0-2.606,1.142A7.477,7.477,0,0,1,5,20.863v-.94a7.387,7.387,0,0,1,5.95-7.259L11.283,12A7.4,7.4,0,0,1,17.9,7.9h2.178a11.091,11.091,0,0,1,11.1,11.1,11.439,11.439,0,0,1-.2,2.13v.012a8.315,8.315,0,0,0-4.558,2.439V20.993Z" transform="translate(-5 -7.904)" fill="#656d78"/>
      </g>
      <g id="Grupo_111628" data-name="Grupo 111628" transform="translate(22.609 20.229)">
        <path id="Trazado_167254" data-name="Trazado 167254" d="M42.419,29.614H32.9a5.041,5.041,0,0,1-4-2.38,3.138,3.138,0,0,0-3.141,3.141v1.618H24.57a3.54,3.54,0,0,0-2.439.964l-.167-.678-.714-2.844A8.485,8.485,0,0,1,23.38,21.5a8.315,8.315,0,0,1,4.558-2.439,7.3,7.3,0,0,1,1.535-.155h9.234a8.407,8.407,0,0,1,2.523.381,8.556,8.556,0,0,1,3.463,2.106l1.321,1.725a7.819,7.819,0,0,1,1.011,2.737,7.112,7.112,0,0,1,.155,1.523,8.48,8.48,0,0,1-.25,2.059L46.084,32.8a.589.589,0,0,0-.155.048,3.526,3.526,0,0,0-2.32-.857h-1.19Z" transform="translate(-21 -18.904)" fill="#656d78"/>
      </g>
      <g id="Grupo_111629" data-name="Grupo 111629" transform="translate(13.089 35.699)">
        <path id="Trazado_167255" data-name="Trazado 167255" d="M18.95,31.9l1.19,3.57-3.57,5.95L13,35.474l1.19-3.57Z" transform="translate(-13 -31.904)" fill="#f0d0b4"/>
      </g>
      <g id="Grupo_111630" data-name="Grupo 111630" transform="translate(8.33 15.469)">
        <path id="Trazado_167256" data-name="Trazado 167256" d="M25.659,19.664v2.594a8.485,8.485,0,0,0-2.13,7.937l.714,2.844a5.925,5.925,0,0,1-4.534,2.094H14.95A5.952,5.952,0,0,1,9,29.183v-9.52a4.758,4.758,0,0,0,4.76-4.76,4.758,4.758,0,0,0,4.76,4.76h7.14Z" transform="translate(-9 -14.904)" fill="#f0d0b4"/>
      </g>
      <g id="Grupo_111631" data-name="Grupo 111631" transform="translate(3.57 22.609)">
        <path id="Trazado_167257" data-name="Trazado 167257" d="M9.76,20.9v7.14H8.57a3.561,3.561,0,0,1-2.606-6A3.519,3.519,0,0,1,8.57,20.9Z" transform="translate(-5 -20.904)" fill="#f0d0b4"/>
      </g>
      <g id="Grupo_111632" data-name="Grupo 111632" transform="translate(49.181 29.63)">
        <path id="Trazado_167258" data-name="Trazado 167258" d="M54.325,31.73a5.5,5.5,0,0,1-5.438,4.712A5.433,5.433,0,0,1,45.293,35.1a5.489,5.489,0,0,1-1.844-3.368l-.119-.857c.19-.048.393-.1.595-.131a2.373,2.373,0,0,0,1.833-1.583l.75-2.237.024-.119a5.386,5.386,0,0,0,1.166.119h3.57l.75,2.237a2.373,2.373,0,0,0,1.833,1.583c.2.036.393.071.595.119v.012Z" transform="translate(-43.33 -26.804)" fill="#f0d0b4"/>
      </g>
      <g id="Grupo_111633" data-name="Grupo 111633" transform="translate(47.598 9.52)">
        <path id="Trazado_167259" data-name="Trazado 167259" d="M58.659,14.664v9.52a5.952,5.952,0,0,1-5.95,5.95H47.95a5.386,5.386,0,0,1-1.166-.119,5.949,5.949,0,0,1-3.736-2.451h-.012a7.819,7.819,0,0,0-1.011-2.737l.012-.012A5.447,5.447,0,0,1,42,24.183v-9.52A4.758,4.758,0,0,0,46.76,9.9a4.759,4.759,0,0,0,4.76,4.76h7.14Z" transform="translate(-42 -9.904)" fill="#f0d0b4"/>
      </g>
      <g id="Grupo_111634" data-name="Grupo 111634" transform="translate(44.028 33.319)">
        <path id="Trazado_167260" data-name="Trazado 167260" d="M43.76,33.474a3.575,3.575,0,0,1-3.57,3.57H39V29.9h1.19a3.526,3.526,0,0,1,2.32.857c.036.036.083.071.119.107A3.548,3.548,0,0,1,43.76,33.474Z" transform="translate(-39 -29.904)" fill="#f0d0b4"/>
      </g>
      <g id="Grupo_111635" data-name="Grupo 111635" transform="translate(32.129 46.384)">
        <path id="Trazado_167261" data-name="Trazado 167261" d="M34.95,40.908a2.176,2.176,0,0,0,.393-.024V40.9l.8,2.392-3.57,4.76L29,43.288l.8-2.392v-.012a2.176,2.176,0,0,0,.393.024Z" transform="translate(-29 -40.884)" fill="#f0d0b4"/>
      </g>
      <g id="Grupo_111636" data-name="Grupo 111636" transform="translate(27.369 28.559)">
        <path id="Trazado_167262" data-name="Trazado 167262" d="M36.9,28.284h4.76V37.8A5.93,5.93,0,0,1,36.1,43.729a2.176,2.176,0,0,1-.393.024H30.95a2.176,2.176,0,0,1-.393-.024,5.929,5.929,0,0,1-5.319-4.272A5.851,5.851,0,0,1,25,37.8V29.045A3.138,3.138,0,0,1,28.141,25.9a5.041,5.041,0,0,0,4,2.38Z" transform="translate(-25 -25.904)" fill="#f0d0b4"/>
      </g>
      <g id="Grupo_111637" data-name="Grupo 111637" transform="translate(22.609 33.319)">
        <path id="Trazado_167263" data-name="Trazado 167263" d="M25.76,29.9v7.14H24.57a3.57,3.57,0,0,1,0-7.14Z" transform="translate(-21 -29.904)" fill="#f0d0b4"/>
      </g>
    </g>
    <g id="Grupo_111639" data-name="Grupo 111639" transform="translate(1 0.904)">
      <ellipse id="Elipse_5037" data-name="Elipse 5037" cx="1.5" cy="1" rx="1.5" ry="1" transform="translate(31.777 35.778)"/>
      <ellipse id="Elipse_5038" data-name="Elipse 5038" cx="1.5" cy="1" rx="1.5" ry="1" transform="translate(38.777 35.778)"/>
      <path id="Trazado_167264" data-name="Trazado 167264" d="M33.76,36.094H29v2.38h4.76a3.574,3.574,0,0,0,3.57-3.57H34.95A1.191,1.191,0,0,1,33.76,36.094Z" transform="translate(4.319 5.554)"/>
      <ellipse id="Elipse_5039" data-name="Elipse 5039" cx="1" cy="1.5" rx="1" ry="1.5" transform="translate(52.777 18.778)"/>
      <ellipse id="Elipse_5040" data-name="Elipse 5040" cx="1" cy="1.5" rx="1" ry="1.5" transform="translate(59.777 18.778)"/>
      <path id="Trazado_167265" data-name="Trazado 167265" d="M46,24.474h4.76a3.574,3.574,0,0,0,3.57-3.57H51.95a1.192,1.192,0,0,1-1.19,1.19H46Z" transform="translate(7.548 2.895)"/>
      <circle id="Elipse_5041" data-name="Elipse 5041" cx="1.5" cy="1.5" r="1.5" transform="translate(12.777 24.778)"/>
      <circle id="Elipse_5042" data-name="Elipse 5042" cx="1.5" cy="1.5" r="1.5" transform="translate(19.777 24.778)"/>
      <path id="Trazado_167266" data-name="Trazado 167266" d="M15.57,28.284h4.76V25.9H15.57A3.574,3.574,0,0,0,12,29.474h2.38A1.192,1.192,0,0,1,15.57,28.284Z" transform="translate(1.089 3.845)"/>
      <path id="Trazado_167267" data-name="Trazado 167267" d="M74.777,49.687a15.381,15.381,0,0,0-2.38-8.215V15.183a14.279,14.279,0,0,0-28.559,0v6.053a9.7,9.7,0,0,0-1.336-.1H33.275c-.063,0-.123.008-.186.01.018-.268.039-.535.039-.8a12.31,12.31,0,0,0-12.3-12.3H18.665a8.545,8.545,0,0,0-7.685,4.749l-.087.173A8.618,8.618,0,0,0,4.57,21.251v.941a8.6,8.6,0,0,0,.765,3.51,4.746,4.746,0,0,0,3.995,7.33h.108A7.154,7.154,0,0,0,14.88,38.8l-.49,1.47A15.5,15.5,0,0,0,1,55.7v9.466H20.1c-.038.463-.061.931-.061,1.4v8.115h35.7V66.566a17.077,17.077,0,0,0-1.666-7.354H74.777Zm-28.559-34.5a11.9,11.9,0,0,1,23.8,0V38.549A15.388,15.388,0,0,0,62.1,34.5a1.188,1.188,0,0,1-.916-.795l-.23-.689a7.145,7.145,0,0,0,6.686-7.118V11.614h-2.38v3.57h-1.19a3.574,3.574,0,0,1-3.57-3.57h-2.38a5.888,5.888,0,0,0,1.221,3.57h-.031a3.574,3.574,0,0,1-3.57-3.57h-2.38a3.565,3.565,0,0,1-2.38,3.351V11.614H48.6V23.307a9.677,9.677,0,0,0-2.38-1.428ZM47.408,36.6a2.38,2.38,0,1,1,0,4.76Zm3.57-10.71v-8.45a5.943,5.943,0,0,0,3.57-2.3,5.928,5.928,0,0,0,4.76,2.417h5.95v8.33a4.765,4.765,0,0,1-4.76,4.76h-4.76a4.76,4.76,0,0,1-3.792-1.9,9.579,9.579,0,0,0-.953-2.573c0-.1-.014-.193-.014-.292Zm.782,8.6c-.077.014-.154.037-.231.051l.35-1.4a9.824,9.824,0,0,0,.211-1.129,7.16,7.16,0,0,0,.983.494l-.4,1.191a1.189,1.189,0,0,1-.915.795Zm3.172-.042.48-1.44c.109,0,.217.02.326.02H58.45l.474,1.42a3.547,3.547,0,0,0,2.217,2.211,4.283,4.283,0,0,1-8.425,0,3.544,3.544,0,0,0,2.217-2.211ZM42.5,23.513a7.285,7.285,0,0,1,7.068,9.053l-.494,1.974a4.715,4.715,0,0,0-1.668-.318v-2.38h-1.19a3.923,3.923,0,0,1-3.57-3.57h-2.38a6.333,6.333,0,0,0,4.76,5.806v8.474a4.765,4.765,0,0,1-4.76,4.76h-4.76a4.765,4.765,0,0,1-4.76-4.76V33.794a1.926,1.926,0,0,1,1.405-1.866A6.081,6.081,0,0,0,36.7,34.223v-2.38a3.923,3.923,0,0,1-3.57-3.57h-2.38A5.191,5.191,0,0,0,31,29.815a4.32,4.32,0,0,0-2.626,3.979v.428a4.715,4.715,0,0,0-1.668.318l-.494-1.975a7.284,7.284,0,0,1,7.068-9.052Zm-8.672,28.7,2.554,3.406L34.022,58.57,33.4,52.312C33.539,52.274,33.686,52.247,33.83,52.214Zm4.059,1.446-2.244-2.992.325-.975h3.838l.325.975Zm4.059-1.446c.144.033.29.061.433.1l-.626,6.258-2.361-2.951ZM20.371,38.982l.746,2.237L18.849,45l-2.268-3.78.746-2.237Zm8,2.38a2.38,2.38,0,1,1,0-4.76Zm-4.527-.983c-.18-.032-.353-.084-.533-.111L22.82,38.8a6.979,6.979,0,0,0,.833-.249,4.305,4.305,0,0,0-.044.43A4.689,4.689,0,0,0,23.842,40.379Zm-6.674,6.444L15.1,47.856a30.08,30.08,0,0,1-1.341-4.678l-.07-.353c.319-.07.644-.129.972-.176Zm1.681,1.819,2.812,1.405a30.233,30.233,0,0,1-2.812,4.815,30.286,30.286,0,0,1-2.812-4.815Zm3.746-.788-2.065-1.033,2.5-4.159c.328.048.659.087.982.158l-.071.355A29.8,29.8,0,0,1,22.6,47.855ZM6.95,21.251a6.23,6.23,0,0,1,4.993-6.091l.57-.114.595-1.19a6.177,6.177,0,0,1,5.556-3.433h2.168A9.851,9.851,0,0,1,30.671,21.5a9.57,9.57,0,0,0-2.3.986V17.562h-2.38v3.57H24.8a3.574,3.574,0,0,1-3.57-3.57h-2.38a5.888,5.888,0,0,0,1.221,3.57h-.03a3.574,3.574,0,0,1-3.57-3.57h-2.38a3.565,3.565,0,0,1-2.38,3.351V17.562H9.33v5.95a4.711,4.711,0,0,0-2.093.506,6.186,6.186,0,0,1-.287-1.825Zm0,7.022a2.382,2.382,0,0,1,2.38-2.38v4.76A2.382,2.382,0,0,1,6.95,28.273Zm4.76,3.57v-8.45a5.943,5.943,0,0,0,3.57-2.3,5.928,5.928,0,0,0,4.76,2.417h5.95v.953A9.624,9.624,0,0,0,23.9,33.143l.544,2.174A4.731,4.731,0,0,1,21.23,36.6h-4.76a4.765,4.765,0,0,1-4.761-4.759ZM10.52,62.782V52.072H8.14v10.71H3.38V55.7A13.123,13.123,0,0,1,11.41,43.55l.019.1a32.633,32.633,0,0,0,6.492,13.931l.928,1.161.929-1.161a32.647,32.647,0,0,0,6.492-13.931l.014-.074a13.071,13.071,0,0,1,2.52,1.416,7.162,7.162,0,0,0,4.749,4.428l-.146.44A17.113,17.113,0,0,0,20.477,62.784H10.52ZM53.358,72.3H48.6v-9.52h-2.38V72.3H29.559v-9.52h-2.38V72.3h-4.76V66.566a14.737,14.737,0,0,1,8.668-13.43l1.148,11.477L36.7,59.034v8.507h2.38V59.034l4.464,5.58L44.69,53.137a14.737,14.737,0,0,1,8.668,13.429ZM72.4,56.832h-4.76v-11.9h-2.38v11.9H52.7A17.1,17.1,0,0,0,42.37,49.853l-.146-.44A7.152,7.152,0,0,0,47.3,43.741h.107a4.75,4.75,0,0,0,4.553-3.448,6.625,6.625,0,0,0,11.465-3A13.051,13.051,0,0,1,72.4,49.687Z" transform="translate(-1 -0.904)"/>
      <path id="Trazado_167268" data-name="Trazado 167268" d="M35.95,29.854v-2.38a3.923,3.923,0,0,1-3.57-3.57H30A6.267,6.267,0,0,0,35.95,29.854Z" transform="translate(4.509 3.465)"/>
    </g>
  </g>
</svg>
