<svg xmlns="http://www.w3.org/2000/svg" width="172.582" height="140" viewBox="0 0 172.582 140">
  <g id="Grupo_128083" data-name="Grupo 128083" transform="translate(-2636 4396)">
    <g id="Grupo_111674" data-name="Grupo 111674" transform="translate(2701 -4363.582)">
      <rect id="Rectángulo_37181" data-name="Rectángulo 37181" width="48.357" height="103.786" rx="24.179" transform="translate(73.388 0) rotate(45)" fill="#ff6148"/>
      <rect id="Rectángulo_37182" data-name="Rectángulo 37182" width="30.763" height="64.458" rx="15.381" transform="translate(75.479 35.367) rotate(45)" fill="#ffb476"/>
    </g>
    <g id="Grupo_111675" data-name="Grupo 111675" transform="translate(927 30)">
      <rect id="Rectángulo_45126" data-name="Rectángulo 45126" width="157" height="135" transform="translate(1709 -4426)" fill="none"/>
      <g id="Filled_outline" data-name="Filled outline" transform="translate(1713.112 -4425.136)">
        <path id="Trazado_167328" data-name="Trazado 167328" d="M84.763,117.064A5.064,5.064,0,0,0,79.7,112H29.064A5.064,5.064,0,0,0,24,117.064v35.445H84.763Z" transform="translate(-6.312 -75.746)" fill="#4db7e5"/>
        <path id="Trazado_167329" data-name="Trazado 167329" d="M136.508,112,96,152.508h45.572V117.064A5.064,5.064,0,0,0,136.508,112Z" transform="translate(-63.121 -75.746)" fill="#48add9"/>
        <path id="Trazado_167330" data-name="Trazado 167330" d="M24,304v3.376a5.064,5.064,0,0,0,5.064,5.064H79.7a5.064,5.064,0,0,0,5.064-5.064V304Z" transform="translate(-6.312 -227.237)" fill="#e0e0de"/>
        <path id="Trazado_167331" data-name="Trazado 167331" d="M144.878,354.127H128L131.376,344H141.5Z" transform="translate(-88.37 -258.798)" fill="#c7c7c5"/>
        <rect id="Rectángulo_45129" data-name="Rectángulo 45129" width="30.723" height="5.586" rx="2.793" transform="translate(32.395 95.858)" fill="#e0e0de"/>
        <ellipse id="Elipse_5043" data-name="Elipse 5043" cx="5.586" cy="5.121" rx="5.586" ry="5.121" transform="translate(92.91 34.411)" fill="#7a432a"/>
        <circle id="Elipse_5044" data-name="Elipse 5044" cx="5.121" cy="5.121" r="5.121" transform="translate(63.118 34.411)" fill="#7a432a"/>
        <path id="Trazado_167332" data-name="Trazado 167332" d="M239.443,236.261l-14.935-2.133V224H207.63v10.127l-15.625,3.348a10.127,10.127,0,0,0-8.005,9.9v13.756h64.138V246.286a10.127,10.127,0,0,0-8.7-10.025Z" transform="translate(-132.555 -164.116)" fill="#fec9a3"/>
        <path id="Trazado_167333" data-name="Trazado 167333" d="M305.711,232.439a13.463,13.463,0,0,0,7.167-2.07V224H296v6.37a13.463,13.463,0,0,0,7.167,2.07Z" transform="translate(-220.925 -164.116)" fill="#feb784"/>
        <path id="Trazado_167334" data-name="Trazado 167334" d="M248.138,284.159v21.6H184V285.25a10.127,10.127,0,0,1,8-9.9L207.63,272a8.962,8.962,0,0,0,16.878,0l10.214,1.458,4.722.675A10.127,10.127,0,0,1,248.138,284.159Z" transform="translate(-132.555 -201.989)" fill="#f35244"/>
        <path id="Trazado_167335" data-name="Trazado 167335" d="M240,432h40.508v11.815H240Z" transform="translate(-176.74 -328.232)" fill="#ea4a3b"/>
        <path id="Trazado_167336" data-name="Trazado 167336" d="M309.358,289.611v21.6H261.59a86.517,86.517,0,0,0,34.352-32.3l4.722.675A10.127,10.127,0,0,1,309.358,289.611Z" transform="translate(-193.775 -207.441)" fill="#ea4a3b"/>
        <path id="Trazado_167337" data-name="Trazado 167337" d="M409.688,128H408v10.127h1.688a5.064,5.064,0,0,0,0-10.127Z" transform="translate(-309.295 -88.37)" fill="#feb784"/>
        <path id="Trazado_167338" data-name="Trazado 167338" d="M238.751,128h-1.688a5.064,5.064,0,1,0,0,10.127h1.688Z" transform="translate(-170.428 -88.37)" fill="#feb784"/>
        <path id="Trazado_167339" data-name="Trazado 167339" d="M294.381,63.193V75.008a15.191,15.191,0,0,1-14.627,15.18c-.186.006-.376.011-.563.011A15.192,15.192,0,0,1,264,75.009V63.193a15.192,15.192,0,0,1,13.109-15.047h0a15.191,15.191,0,0,1,17.269,15.047Z" transform="translate(-195.677 -25.251)" fill="#fec9a3"/>
        <path id="Trazado_167340" data-name="Trazado 167340" d="M343.419,63.193V75.008a15.191,15.191,0,0,1-14.627,15.18,18.543,18.543,0,0,0,7.876-15.18V64.881A18.6,18.6,0,0,0,326.15,48.146a15.191,15.191,0,0,1,17.269,15.047Z" transform="translate(-244.714 -25.251)" fill="#fec093"/>
        <path id="Trazado_167341" data-name="Trazado 167341" d="M270.821,34.127c-.03,0-.057.008-.086.009a5.874,5.874,0,0,0-10.194-4.794,6.747,6.747,0,0,0-13.2,0,5.837,5.837,0,0,0-10.194,4.794c-.029,0-.056-.009-.086-.009a5.064,5.064,0,1,0,0,10.127l1.688,5.064,2.492-7.475a5.034,5.034,0,0,0,7.635-4.339l.346.115a5.042,5.042,0,0,0,9.435,0l.346-.115a5.034,5.034,0,0,0,7.635,4.339l2.492,7.475,1.688-5.064a5.064,5.064,0,0,0,0-10.127Z" transform="translate(-170.428 -6.312)" fill="#7a432a"/>
        <path id="Trazado_167342" data-name="Trazado 167342" d="M190.751,405.942h5.064l32.069-6.751h6.751l5.064-3.376h8.439V384H239.7l-11.815,5.064L184,392.439v6.751A6.751,6.751,0,0,0,190.751,405.942Z" transform="translate(-132.555 -290.359)" fill="#feb784"/>
        <path id="Trazado_167343" data-name="Trazado 167343" d="M241.387,405.942h-5.064l-32.069-6.751H197.5l-5.064-3.376H184V384h8.439l11.815,5.064,43.884,3.376v6.751A6.751,6.751,0,0,1,241.387,405.942Z" transform="translate(-132.555 -290.359)" fill="#fec9a3"/>
        <ellipse id="Elipse_5045" data-name="Elipse 5045" cx="4.655" cy="5.586" rx="4.655" ry="5.586" transform="translate(70.566 39.066)" fill="#e0e0de"/>
        <ellipse id="Elipse_5046" data-name="Elipse 5046" cx="4.655" cy="5.586" rx="4.655" ry="5.586" transform="translate(87.324 39.066)" fill="#e0e0de"/>
        <path id="Trazado_167344" data-name="Trazado 167344" d="M0,0H18.179V3.376H0Z" transform="translate(41.409 66.006) rotate(-68.209)"/>
        <path id="Trazado_167345" data-name="Trazado 167345" d="M95.427,185.6l-6.751,5.064a1.688,1.688,0,0,0,0,2.7l6.751,5.064,2.025-2.7L92.5,192.014l4.951-3.713Z" transform="translate(-56.809 -133.818)"/>
        <path id="Trazado_167346" data-name="Trazado 167346" d="M189.225,198.428l6.751-5.064a1.688,1.688,0,0,0,0-2.7l-6.751-5.064-2.025,2.7,4.951,3.713-4.951,3.713Z" transform="translate(-135.08 -133.818)"/>
        <path id="Trazado_167347" data-name="Trazado 167347" d="M48,136h3.376v3.376H48Z" transform="translate(-25.249 -94.682)"/>
        <path id="Trazado_167348" data-name="Trazado 167348" d="M80,136h3.376v3.376H80Z" transform="translate(-50.497 -94.682)"/>
        <path id="Trazado_167349" data-name="Trazado 167349" d="M112,136h3.376v3.376H112Z" transform="translate(-75.746 -94.682)"/>
        <path id="Trazado_167350" data-name="Trazado 167350" d="M107.128,70.467l-13.487-1.92V63.253a16.831,16.831,0,0,0,6.667-11.808h.084a6.75,6.75,0,0,0,3.265-12.659,6.75,6.75,0,0,0-1.6-12.452,7.606,7.606,0,0,0-7.569-6.958,7.521,7.521,0,0,0-3.618.934,8.427,8.427,0,0,0-14.705,0,7.521,7.521,0,0,0-3.618-.934,7.606,7.606,0,0,0-7.569,6.958A6.755,6.755,0,0,0,60.1,34.566H22.751A6.759,6.759,0,0,0,16,41.318V80.138a6.759,6.759,0,0,0,6.751,6.751H40.664l-2.251,6.751H36.254a5.064,5.064,0,0,0,0,10.127h13.5v5.064a8.449,8.449,0,0,0,8.439,8.439s5.3-.012,5.412-.037l19.883-4.2,19.929,4.2c.114.024,5.411.036,5.411.036a8.449,8.449,0,0,0,8.439-8.439V82.164a11.9,11.9,0,0,0-10.143-11.7ZM76.763,65.225a16.868,16.868,0,0,0,13.5,0V69.7a7.273,7.273,0,0,1-13.5,0ZM97.017,49.757a13.5,13.5,0,0,1-27.006,0v-.605a6.747,6.747,0,0,0,11.6-2.771h3.8a6.747,6.747,0,0,0,11.6,2.771ZM63.26,44.693a3.38,3.38,0,0,1,3.376-3.376v6.751A3.38,3.38,0,0,1,63.26,44.693Zm28.693-6.751a6.763,6.763,0,0,0-6.538,5.064h-3.8a6.745,6.745,0,0,0-10.179-3.993l.418-1.255a6.524,6.524,0,0,0,1.535.185,6.755,6.755,0,0,0,5.783-3.27,6.758,6.758,0,0,0,8.689,0,6.755,6.755,0,0,0,5.783,3.27,6.524,6.524,0,0,0,1.535-.185l.418,1.255a6.709,6.709,0,0,0-3.641-1.071Zm3.376,6.751a3.376,3.376,0,1,1-3.376-3.376A3.376,3.376,0,0,1,95.329,44.693Zm-16.878,0a3.376,3.376,0,1,1-3.376-3.376,3.376,3.376,0,0,1,3.376,3.376Zm21.942,3.376V41.318a3.376,3.376,0,0,1,0,6.751ZM66.554,29.5c.042,0,.09.007.144.007a1.688,1.688,0,0,0,1.694-1.931l-.011-.072a4.092,4.092,0,0,1-.058-.537,4.224,4.224,0,0,1,4.22-4.22,4.162,4.162,0,0,1,3.118,1.409,1.688,1.688,0,0,0,2.9-.78,5.059,5.059,0,0,1,9.9,0,1.688,1.688,0,0,0,2.9.781,4.162,4.162,0,0,1,3.118-1.41,4.224,4.224,0,0,1,4.22,4.22,4.089,4.089,0,0,1-.058.537l-.011.072a1.688,1.688,0,0,0,.4,1.356,1.65,1.65,0,0,0,1.292.575c.053,0,.1,0,.143-.007a3.376,3.376,0,1,1-.081,6.751,13.569,13.569,0,0,0-2.145.042L97.814,35a1.688,1.688,0,0,0-2.464-.917,3.316,3.316,0,0,1-1.709.487,3.38,3.38,0,0,1-3.376-3.376,1.688,1.688,0,0,0-2.221-1.6L87.7,29.7a1.688,1.688,0,0,0-1.045,1,3.356,3.356,0,0,1-6.283,0,1.688,1.688,0,0,0-1.045-1l-.344-.114a1.688,1.688,0,0,0-2.221,1.6,3.38,3.38,0,0,1-3.376,3.376,3.316,3.316,0,0,1-1.709-.487A1.688,1.688,0,0,0,69.215,35l-.433,1.3a13.607,13.607,0,0,0-2.145-.042,3.376,3.376,0,0,1-.081-6.751ZM19.376,41.318a3.38,3.38,0,0,1,3.376-3.376H62.177a6.787,6.787,0,0,0,1.194.844,6.75,6.75,0,0,0,3.265,12.659h.084a16.829,16.829,0,0,0,6.667,11.809v5.393L59.087,71.7a11.807,11.807,0,0,0-6.006,3.37H19.376Zm0,38.821V78.45H50.8a11.684,11.684,0,0,0-1.04,4.81v.253H22.751A3.38,3.38,0,0,1,19.376,80.138ZM44.222,86.89h5.535v6.751H41.972ZM34.566,98.7a1.615,1.615,0,0,1,.485-1.17l.033-.033a1.615,1.615,0,0,1,1.17-.485h13.5v3.376h-13.5A1.69,1.69,0,0,1,34.566,98.7ZM63.084,113.9H58.2a5.069,5.069,0,0,1-5.064-5.064v-1.688h6.24l4.638,3.092a1.688,1.688,0,0,0,.936.284h6.576l3.783.8Zm50.812-5.064a5.069,5.069,0,0,1-5.064,5.064h-4.888l-31.9-6.715a1.689,1.689,0,0,0-.348-.036h-6.24l-4.638-3.092a1.688,1.688,0,0,0-.936-.284H53.133V95.329h6.4l11.5,4.927a1.7,1.7,0,0,0,.535.131l42.326,3.256Zm0-8.574L98.718,99.09l5.718-2.447,3.056-1.314h6.4Zm0-8.3h-6.751a1.693,1.693,0,0,0-.667.137l-1.021.438V86.89H102.08v7.085l-7.16,3.069-11.381.879-11.432-.879-7.159-3.068V86.89H61.572v5.638l-1.023-.439a1.69,1.69,0,0,0-.665-.136H53.133V83.261A8.505,8.505,0,0,1,59.8,75l14.285-3.055a10.655,10.655,0,0,0,18.907-.084l.412.059,13.245,1.885a8.5,8.5,0,0,1,7.248,8.355Z"/>
        <path id="Trazado_167351" data-name="Trazado 167351" d="M315.573,191.237H312v3.376h3.573c2.28,0,4.522-.071,6.664-.211l-.22-3.369C319.948,191.169,317.781,191.237,315.573,191.237Z" transform="translate(-233.55 -138.104)"/>
      </g>
    </g>
  </g>
</svg>
