<svg xmlns="http://www.w3.org/2000/svg" xmlns:xlink="http://www.w3.org/1999/xlink" width="414.836" height="355.557" viewBox="0 0 414.836 355.557">
  <defs>
    <linearGradient id="linear-gradient" x1="0.5" y1="0.356" x2="0.5" y2="0.889" gradientUnits="objectBoundingBox">
      <stop offset="0" stop-color="#ffe887"/>
      <stop offset="0.174" stop-color="#fdde7b"/>
      <stop offset="0.485" stop-color="#f7c55c"/>
      <stop offset="0.895" stop-color="#ef9e2a"/>
      <stop offset="1" stop-color="#ed931d"/>
    </linearGradient>
    <clipPath id="clip-path">
      <path id="Intersección_2" data-name="Intersección 2" d="M70.349,206.039a115.81,115.81,0,0,1-35.033-21.508l-.025-.023-.176-.158-.195-.176-.028-.025q-.656-.594-1.3-1.2c-.435-.406-.863-.813-1.289-1.224l-.019-.018-.192-.186-.173-.168-.019-.018A106.989,106.989,0,0,1,8.884,148.6a101.056,101.056,0,0,1,0-82.863A106.993,106.993,0,0,1,31.9,33l.02-.02.169-.164.2-.189.016-.016q.639-.617,1.29-1.225c.432-.4.869-.806,1.306-1.2l.025-.023.2-.177.18-.161.019-.017A115.823,115.823,0,0,1,70.348,8.3a122.537,122.537,0,0,1,88.763.041l.025.01.077.031A115.949,115.949,0,0,1,192.9,28.8q1.451,1.266,2.864,2.587t2.772,2.681A106.773,106.773,0,0,1,220.46,65.714a101.3,101.3,0,0,1,8.86,38.807q.034,1.32.034,2.648,0,1.361-.036,2.713v.045c0,.078,0,.153-.007.231,0,.06,0,.124-.006.184l0,.076a101.25,101.25,0,0,1-7.981,36.23,106.608,106.608,0,0,1-22.855,33.693l-.045.045-.135.134q-1.234,1.227-2.521,2.43-1.825,1.705-3.711,3.318l-.106.091-.033.028a115.873,115.873,0,0,1-31.023,18.9,122.482,122.482,0,0,1-90.543.757Z" transform="translate(0 0)" fill="none"/>
    </clipPath>
    <linearGradient id="linear-gradient-2" x1="0.5" y1="0.271" x2="0.5" y2="0.694" gradientUnits="objectBoundingBox">
      <stop offset="0" stop-color="#ed9864"/>
      <stop offset="0.417" stop-color="#f5bc8d"/>
      <stop offset="0.791" stop-color="#fcd6ac"/>
      <stop offset="1" stop-color="#ffe1b8"/>
    </linearGradient>
    <linearGradient id="linear-gradient-3" x1="0.623" y1="0.669" x2="0.161" y2="-0.377" gradientUnits="objectBoundingBox">
      <stop offset="0" stop-color="#ffe1b8"/>
      <stop offset="0.209" stop-color="#fcd6ac"/>
      <stop offset="0.583" stop-color="#f5bc8d"/>
      <stop offset="1" stop-color="#ed9864"/>
    </linearGradient>
  </defs>
  <g id="Grupo_23118" data-name="Grupo 23118" transform="translate(0 3.548)">
    <g id="Layer_3" data-name="Layer 3" transform="translate(0 43.793)">
      <g id="Grupo_23077" data-name="Grupo 23077">
        <g id="Grupo_23076" data-name="Grupo 23076" transform="translate(94.159)">
          <path id="Trazado_6163" data-name="Trazado 6163" d="M698.457,214.356c8.568-11.805,27.83-15.3,43.064-7.824,15.256,7.485,20.757,23.161,12.246,35.035-8.535,11.908-27.9,15.454-43.214,7.9C695.262,241.924,689.865,226.195,698.457,214.356Z" transform="translate(-694.372 -198.602)" fill="#ffe7e3"/>
          <path id="Trazado_6164" data-name="Trazado 6164" d="M1084.318,189.412c5.438-7.579,17.793-9.823,27.61-5.021s13.418,14.862,8,22.469-17.822,9.887-27.672,5.052S1078.87,197,1084.318,189.412Z" transform="translate(-1001.847 -181.865)" fill="#ffe7e3"/>
        </g>
        <path id="Trazado_6165" data-name="Trazado 6165" d="M311.771,476.336c9.745.669,19.265.048,29.045.189,5.229-.017,10.848,0,16.468.036s11.24.089,16.868.161c4.425.1,8.849.22,13.274.32,13.165.4,26.548,1.4,39.646.63,4.7-.172,9.444-.416,14.213-.6q9.246-.311,18.516-.517c37.06-.865,74.162-.955,111.187,1.6,15.8,1.069,35.894,1.452,48.636-7.634a28.119,28.119,0,0,0,7.869-8.312c5.23-7.41,3.914-18.433-5.082-22.842-17.333-8.618-44.1-19.641-35.325-41.688,3.291-8.217,9.435-14.631,16.456-20.643,27.426-23.65,50.9-52.911,49.136-88.157a126.788,126.788,0,0,0-.541-13.2c-2.067-21.848-10.184-42.837-27.751-60.988-14.7-15.432-34.447-23.449-56.168-26.856-17.553-2.806-34.008-1.6-51.342,2.2a141.983,141.983,0,0,0-20.624,6.013c-2.413,1-4.827,2-7.24,3.207a102.155,102.155,0,0,0-15.139,9.219A52.051,52.051,0,0,0,463.561,218.5c-6.582,9.219-11.19,18.038-17.429,26.784a91.2,91.2,0,0,1-8.39,10.274c-9.034,9.4-20.3,15.674-35.7,13.49a106.189,106.189,0,0,1-13.467-2.418q-2.173-.49-4.317-1.1a313.951,313.951,0,0,0-32.933-7.987c-10.667-2.273-21.269-2.482-31.924-1.8q-.546.038-1.089.083a76.442,76.442,0,0,0-32.1,10.189c-.76.442-1.518.883-2.288,1.334q-2.565,1.5-5.006,3.2c-5.1,3.549-10.1,6.993-14.533,11.839-6.659,7.285-13.407,19.3-18.611,34.141-1.041,2.973-2.02,6.061-2.924,9.3a110.4,110.4,0,0,0-3.765,17.939q-.379,3.007-.6,6.026c-.21,4.066-.39,8.194-.485,12.351-.047,2.078-.072,4.164-.05,6.252a99.483,99.483,0,0,0,6.7,31.181,81.483,81.483,0,0,0,3.34,7.438,141.528,141.528,0,0,0,17.961,27.414c3.493,4.248,7.2,8.353,11.061,12.346,8.472,8.7,18.672,15.528,28.529,23A64,64,0,0,1,311.771,476.336Z" transform="translate(-237.936 -185.441)" fill="#ffe7e3"/>
      </g>
      <ellipse id="Elipse_1288" data-name="Elipse 1288" cx="166.875" cy="6.354" rx="166.875" ry="6.354" transform="translate(48.72 285.366)" fill="#ffe7e3"/>
    </g>
    <g id="Layer_4" data-name="Layer 4" transform="translate(16.241 -3.548)">
      <g id="Grupo_23094" data-name="Grupo 23094" transform="translate(0 90.412)">
        <g id="Grupo_23093" data-name="Grupo 23093" transform="translate(0 0)">
          <g id="Grupo_23088" data-name="Grupo 23088" transform="translate(35.392 27.209)">
            <g id="Grupo_23079" data-name="Grupo 23079">
              <g id="Grupo_23078" data-name="Grupo 23078">
                <rect id="Rectángulo_5663" data-name="Rectángulo 5663" width="327.279" height="212.936" transform="translate(0.084 7.085)" fill="#f7f7f7"/>
                <rect id="Rectángulo_5664" data-name="Rectángulo 5664" width="327.279" height="25.499" fill="#7181bf"/>
              </g>
            </g>
            <g id="Grupo_23080" data-name="Grupo 23080" transform="translate(6.936 9.195)" opacity="0.33">
              <path id="Trazado_6166" data-name="Trazado 6166" d="M529.066,597.561a3.616,3.616,0,1,1-3.61-3.369A3.5,3.5,0,0,1,529.066,597.561Z" transform="translate(-521.85 -594.176)" fill="#fff"/>
              <path id="Trazado_6167" data-name="Trazado 6167" d="M583.043,597.52a3.616,3.616,0,1,1-3.611-3.369A3.5,3.5,0,0,1,583.043,597.52Z" transform="translate(-564.692 -594.143)" fill="#fff"/>
              <path id="Trazado_6168" data-name="Trazado 6168" d="M637.019,597.478a3.616,3.616,0,1,1-3.611-3.369A3.5,3.5,0,0,1,637.019,597.478Z" transform="translate(-607.533 -594.109)" fill="#fff"/>
            </g>
            <g id="Grupo_23081" data-name="Grupo 23081" transform="translate(106.974 10.469)" opacity="0.33">
              <line id="Línea_131" data-name="Línea 131" y1="0.084" x2="115.88" transform="translate(1.777 1.619)" fill="#fff"/>
              <rect id="Rectángulo_5665" data-name="Rectángulo 5665" width="119.433" height="3.321" fill="#fff"/>
            </g>
            <g id="Grupo_23086" data-name="Grupo 23086" transform="translate(17.974 44.233)">
              <g id="Grupo_23084" data-name="Grupo 23084" transform="translate(176.394)">
                <g id="Grupo_23082" data-name="Grupo 23082" opacity="0.33">
                  <line id="Línea_132" data-name="Línea 132" y1="0.077" x2="105.729" transform="translate(2.717 2.501)" fill="#fff"/>
                  <rect id="Rectángulo_5666" data-name="Rectángulo 5666" width="111.163" height="5.078" fill="#c1a8db"/>
                </g>
                <g id="Grupo_23083" data-name="Grupo 23083" transform="translate(55.691 12.345)" opacity="0.33">
                  <line id="Línea_133" data-name="Línea 133" y1="0.036" x2="50.041" transform="translate(2.717 2.521)" fill="#fff"/>
                  <rect id="Rectángulo_5667" data-name="Rectángulo 5667" width="55.475" height="5.078" fill="#c1a8db"/>
                </g>
              </g>
              <g id="Grupo_23085" data-name="Grupo 23085" transform="translate(0 0.15)" opacity="0.33">
                <line id="Línea_134" data-name="Línea 134" y1="0.033" x2="44.881" transform="translate(2.717 2.523)" fill="#fff"/>
                <rect id="Rectángulo_5668" data-name="Rectángulo 5668" width="50.315" height="5.078" fill="#c1a8db"/>
              </g>
            </g>
            <g id="Grupo_23087" data-name="Grupo 23087" transform="translate(18.13 77.456)">
              <path id="Trazado_6169" data-name="Trazado 6169" d="M654.718,1070.848l-72.4.053a5.918,5.918,0,0,1-6.111-5.7l-.092-110.493a5.916,5.916,0,0,1,6.1-5.711l72.4-.052a5.917,5.917,0,0,1,6.111,5.7l.092,110.493A5.916,5.916,0,0,1,654.718,1070.848Z" transform="translate(-576.111 -948.796)" fill="#e7e1ed"/>
              <path id="Trazado_6170" data-name="Trazado 6170" d="M1144.835,1070.469l-72.4.052a5.917,5.917,0,0,1-6.111-5.7l-.091-110.493a5.916,5.916,0,0,1,6.1-5.711l72.4-.053a5.917,5.917,0,0,1,6.111,5.7l.092,110.493A5.916,5.916,0,0,1,1144.835,1070.469Z" transform="translate(-965.121 -948.49)" fill="#e7e1ed"/>
              <path id="Trazado_6171" data-name="Trazado 6171" d="M1634.953,1070.089l-72.4.052a5.917,5.917,0,0,1-6.111-5.7l-.092-110.493a5.916,5.916,0,0,1,6.1-5.711l72.4-.052a5.917,5.917,0,0,1,6.111,5.7l.092,110.493A5.916,5.916,0,0,1,1634.953,1070.089Z" transform="translate(-1354.132 -948.183)" fill="#e7e1ed"/>
            </g>
          </g>
          <g id="Grupo_23092" data-name="Grupo 23092">
            <g id="Grupo_23089" data-name="Grupo 23089" transform="translate(2.474 29.151)">
              <path id="Trazado_6547" data-name="Trazado 6547" d="M0,0,16.652.185l.047,3.97L.047,3.97Z" transform="translate(0 2.878) rotate(-9.923)" fill="#ffedb7"/>
            </g>
            <g id="Grupo_23090" data-name="Grupo 23090" transform="translate(0 6.041)">
              <path id="Trazado_6541" data-name="Trazado 6541" d="M0,0,4.053.13,4.817,24.4l-4.053-.13Z" transform="translate(0 3.942) rotate(-54.924)" fill="#ffedb7"/>
            </g>
            <g id="Grupo_23091" data-name="Grupo 23091" transform="translate(26.492)">
              <path id="Trazado_6548" data-name="Trazado 6548" d="M0,0,4.232.044l.174,15.621L.174,15.621Z" transform="matrix(0.987, -0.162, 0.162, 0.987, 0, 0.712)" fill="#ffedb7"/>
            </g>
          </g>
        </g>
      </g>
      <g id="Grupo_23117" data-name="Grupo 23117" transform="translate(19.665 0)">
        <g id="Grupo_23108" data-name="Grupo 23108" transform="translate(0 0)">
          <g id="Grupo_23107" data-name="Grupo 23107" transform="translate(0)">
            <path id="Trazado_6542" data-name="Trazado 6542" d="M121.457.073C190.844,2.421,249,60.573,251.344,129.96s-52,123.732-121.384,121.384S2.421,190.844.073,121.457,52.071-2.275,121.457.073Z" transform="translate(0 177.779) rotate(-45)" fill="#fff"/>
            <g id="Grupo_23106" data-name="Grupo 23106" transform="translate(20.817 20.817)">
              <path id="Trazado_6543" data-name="Trazado 6543" d="M107.235.065C168.5,2.138,219.84,53.48,221.912,114.742S176,223.985,114.742,221.912,2.138,168.5.065,107.235,45.974-2.008,107.235.065Z" transform="translate(0 156.962) rotate(-45)" fill="url(#linear-gradient)"/>
              <g id="Grupo_23105" data-name="Grupo 23105" transform="translate(42.285 49.792)" clip-path="url(#clip-path)">
                <g id="Grupo_23104" data-name="Grupo 23104" transform="translate(-63.389 -13.513)">
                  <g id="Grupo_23097" data-name="Grupo 23097" transform="translate(107.883 170.118)">
                    <path id="Trazado_6172" data-name="Trazado 6172" d="M1060.218,1248.875c-26.391.591-53.075.458-79.5-.474-6.994-10.254-18.912-19.042-29.015-28.763-15.026-14.249-20.207-30.095-17.422-45.891a99.263,99.263,0,0,1,2-10.6c2.562-10.62,6.582-12.724,9.982-23.36,1.554-4.261,5.958-7.99,11.627-11.231,6.9-4.149,15.963-7.478,25.419-9.8,35.621-8.885,80.778-1.95,101.137,15.1a31.546,31.546,0,0,1,8.964,11.4c3.5,8.456,4.34,8.608,2.818,17.23a52.047,52.047,0,0,1-2.3,8.575c-8.808,23.95-19.948,47.52-29.952,71.345C1061.72,1246.4,1060.218,1248.875,1060.218,1248.875Z" transform="translate(-933.56 -1114.876)" fill="#8f7ff5"/>
                    <g id="Grupo_23095" data-name="Grupo 23095" transform="translate(70.12 32.989)" opacity="0.33">
                      <path id="Trazado_6173" data-name="Trazado 6173" d="M1286.932,1378.778a1.269,1.269,0,0,1-1.284-1.061c-2.8-21.035-6.145-31.255-8.587-38.718-4.116-12.582-5.82-17.79,1.1-52.023a1.3,1.3,0,0,1,1.514-.965,1.218,1.218,0,0,1,1.032,1.414c-6.8,33.647-5.148,38.687-1.164,50.866,2.469,7.547,5.851,17.884,8.68,39.127a1.23,1.23,0,0,1-1.125,1.351A1.424,1.424,0,0,1,1286.932,1378.778Z" transform="translate(-1273.47 -1285.99)" fill="#fff"/>
                    </g>
                    <g id="Grupo_23096" data-name="Grupo 23096" transform="translate(87.415 47.071)" opacity="0.33">
                      <path id="Trazado_6174" data-name="Trazado 6174" d="M1366.1,1361.908l-.084,0-7.493-.448a1.242,1.242,0,0,1-1.21-1.285,1.267,1.267,0,0,1,1.375-1.131l7.493.448a1.242,1.242,0,0,1,1.21,1.285A1.262,1.262,0,0,1,1366.1,1361.908Z" transform="translate(-1357.307 -1359.038)" fill="#fff"/>
                    </g>
                  </g>
                  <path id="Trazado_6175" data-name="Trazado 6175" d="M791,858.5c-5.291,35.251-42.118,64.9-81.282,63.031-5.261-.267-10.522-1.6-15.783-2.938a39.529,39.529,0,0,1-9.06-4.274,40.1,40.1,0,0,1-10.814-8.548,29.766,29.766,0,0,1-5.261-8.548c-11.983-29.116,9.937-57.965,33.9-76.664a85.268,85.268,0,0,1,8.184-5.61c10.814-6.678,21.628-10.952,34.2-12.021a54.388,54.388,0,0,1,11.4.534c6.43.8,11.691,3.473,16.952,6.945a43.522,43.522,0,0,1,14.614,18.164c.877,2.671,1.754,5.075,2.369,7.659A54.951,54.951,0,0,1,791,858.5Z" transform="translate(-612.852 -692.864)" fill="#404041"/>
                  <path id="Trazado_6176" data-name="Trazado 6176" d="M891.679,543.13c-7.359,50.438-29.767,99.9-54.789,84.744a19.943,19.943,0,0,1-5.229-5.146,49.049,49.049,0,0,1-4.979-9.148c-3.61-9.148-5.477-21.156-5.229-33.449a155.344,155.344,0,0,1,7.22-43.455c10.208-32.591,26.267-46.314,42.7-50.03a6.7,6.7,0,0,1,3.361,0c4.357,1.144,8.465,4,12.075,10.292.747,1.715,1.494,3.145,2.241,4.86a55,55,0,0,1,2.49,8.862A63.308,63.308,0,0,1,892.575,519,139.22,139.22,0,0,1,891.679,543.13Z" transform="translate(-736.68 -437.47)" fill="#404041"/>
                  <g id="Grupo_23102" data-name="Grupo 23102">
                    <path id="Trazado_6177" data-name="Trazado 6177" d="M1487.865,539.819c-.337,24.836-17.454,44.769-38.231,44.523-17.738,1.795-27.49-3.244-34.451-11.395s-11.036-19.438-2.557-34.021c.337-24.836,17.454-44.769,38.231-44.523S1488.2,514.983,1487.865,539.819Z" transform="translate(-1202.131 -443.903)" fill="#404041"/>
                    <path id="Trazado_6178" data-name="Trazado 6178" d="M1278.961,997.811h0a8.251,8.251,0,0,1-8.516-7.958V959.118a8.251,8.251,0,0,1,8.516-7.958h0a8.251,8.251,0,0,1,8.516,7.958v30.735A8.251,8.251,0,0,1,1278.961,997.811Z" transform="translate(-1093.067 -812.604)" fill="url(#linear-gradient-2)"/>
                    <path id="Trazado_6179" data-name="Trazado 6179" d="M1113.022,562.025h0c-18.963,0-36.209-13.966-40.231-34.055l-6.869-36.508c-4.469-22.432,9.541-43.892,30.625-43.892H1129.5c21.084,0,35.093,21.46,30.625,43.892l-6.869,36.508C1149.231,548.059,1131.986,562.025,1113.022,562.025Z" transform="translate(-930.074 -406.099)" fill="url(#linear-gradient-3)"/>
                    <g id="Grupo_23098" data-name="Grupo 23098" transform="translate(150.454 93.074)">
                      <path id="Trazado_6180" data-name="Trazado 6180" d="M1150.362,721.727c-3.372,0-6.856-.648-8.694-1.852a3.243,3.243,0,0,1-1.729-3.063l.151-1.566,3.351.281-.146,1.52c.421.671,3.872,1.753,8.269,1.508,3.223-.18,4.543-.991,4.635-1.251l.143-1.567,3.352.268-.142,1.567c-.083.91-.615,2.184-2.679,3.086A17.264,17.264,0,0,1,1150.362,721.727Z" transform="translate(-1139.927 -715.246)" fill="#d46ad4"/>
                    </g>
                    <g id="Grupo_23099" data-name="Grupo 23099" transform="translate(191.372 89.225)">
                      <path id="Trazado_6181" data-name="Trazado 6181" d="M1345.187,703a12.041,12.041,0,0,1-4.407-.677,3.346,3.346,0,0,1-2.328-2.694l-.175-1.564,3.347-.328.17,1.518c.551.583,4.162,1.023,8.425-.01,3.125-.758,4.253-1.791,4.29-2.062l-.184-1.563,3.345-.341.184,1.563c.106.908-.152,2.254-1.992,3.51C1353.463,701.99,1348.939,703,1345.187,703Z" transform="translate(-1338.276 -695.279)" fill="#d46ad4"/>
                    </g>
                    <g id="Grupo_23100" data-name="Grupo 23100" transform="translate(173.425 101.549)">
                      <path id="Trazado_6182" data-name="Trazado 6182" d="M1257.546,773.232l-2.361-1.164a6.938,6.938,0,0,1-3.709-4.465,6.487,6.487,0,0,1,1.147-5.55l2.157-2.847,2.746,1.817-2.157,2.847a3.511,3.511,0,0,0-.62,3,3.754,3.754,0,0,0,2.006,2.415l2.361,1.164Z" transform="translate(-1251.276 -759.207)" fill="#ebc596"/>
                    </g>
                    <g id="Grupo_23101" data-name="Grupo 23101">
                      <path id="Trazado_6183" data-name="Trazado 6183" d="M582.9,299.006c-15.861,54.822-89.28,81.124-142.814,57.4a72.993,72.993,0,0,1-10.095-6.29,71.972,71.972,0,0,1-13.766-14.58,25.255,25.255,0,0,1-3.977-7.433,27.5,27.5,0,0,1-.918-15.724c3.671-16.867,18.661-27.445,33.956-34.306,17.131-8,33.038-16.867,50.169-24.3,27.532-11.721,73.418-24.3,87.8,10.006a28.816,28.816,0,0,1,2.679,12.459A59.133,59.133,0,0,1,582.9,299.006Z" transform="translate(-410.598 -239.756)" fill="#404041"/>
                      <path id="Trazado_6184" data-name="Trazado 6184" d="M1167.473,303.608c-13.027-1.684-24-6.977-31.178-14.207s-10.461-16.483-7.981-26.181,10.307-18.043,20.877-23.619a63.748,63.748,0,0,1,36.917-6.68c13.162,1.6,23.738,7.245,30.243,15.037s9.128,17.58,6.529,27.351-9.936,17.687-19.851,22.714S1180.5,305.292,1167.473,303.608Z" transform="translate(-979.605 -232.465)" fill="#404041"/>
                    </g>
                    <path id="Trazado_6185" data-name="Trazado 6185" d="M1422.078,729.962c1.237-6.232,6.3-12.739,13.39-17.047a36.115,36.115,0,0,1,25.293-4.836c7.429,1.787,12.443,5.827,15.167,10.9s3.078,11.281,1.947,16.97a28.837,28.837,0,0,1-37.331,18.74c-4.4-1.579-8.674-3.7-11.582-6.9C1423.325,743.164,1420.4,736.925,1422.078,729.962Z" transform="translate(-1213.043 -615.938)" fill="#404041"/>
                  </g>
                  <g id="Grupo_23103" data-name="Grupo 23103" transform="translate(164.945 122.947)">
                    <path id="Trazado_6186" data-name="Trazado 6186" d="M1211.145,872.339a.806.806,0,0,0-.778,1.305c2.892,3.329,10.887,13.844,18.333,13.844,7.264,0,14-11.775,17.307-16a.816.816,0,0,0-.986-1.227c-3.6,1.346-16.58-.818-16.647,3.457C1224.257,869.362,1214.575,872.833,1211.145,872.339Z" transform="translate(-1210.171 -870.2)" fill="#8f7ff5"/>
                    <path id="Trazado_6187" data-name="Trazado 6187" d="M1219.335,881s7.745,9.09,15.89,9.09,16.742-11.206,16.742-11.206-8.423,3.383-16.315,3.383A127.247,127.247,0,0,1,1219.335,881Z" transform="translate(-1217.444 -877.206)" fill="#f1f1f2"/>
                  </g>
                </g>
              </g>
            </g>
          </g>
        </g>
        <g id="Grupo_23116" data-name="Grupo 23116" transform="translate(191.871 175.539)">
          <g id="Grupo_23112" data-name="Grupo 23112" transform="translate(3.34 15.609)" opacity="0.26" style="mix-blend-mode: multiply;isolation: isolate">
            <g id="Grupo_23109" data-name="Grupo 23109" transform="translate(6.648 6.213)" opacity="0.59">
              <path id="Trazado_6188" data-name="Trazado 6188" d="M1433.734,1040.474a44.242,44.242,0,0,0,30.282-11.722,38.633,38.633,0,0,0,12.543-28.3c0-22.1-19.174-40.022-42.825-40.022s-42.826,17.918-42.826,40.022S1410.081,1040.474,1433.734,1040.474Z" transform="translate(-1390.824 -960.352)" fill="#fff"/>
              <path id="Trazado_6189" data-name="Trazado 6189" d="M1433.412,1040.226c-23.66,0-42.909-17.989-42.909-40.1s19.249-40.1,42.909-40.1,42.909,17.989,42.909,40.1a38.566,38.566,0,0,1-12.568,28.355A44.19,44.19,0,0,1,1433.412,1040.226Zm0-80.045c-23.568,0-42.742,17.919-42.742,39.944s19.174,39.944,42.742,39.944a44.017,44.017,0,0,0,30.223-11.7,38.416,38.416,0,0,0,12.519-28.245C1476.154,978.1,1456.98,960.181,1433.412,960.181Z" transform="translate(-1390.503 -960.025)" fill="#545454"/>
            </g>
            <g id="Grupo_23110" data-name="Grupo 23110">
              <path id="Trazado_6190" data-name="Trazado 6190" d="M1407.834,1020.425a51.033,51.033,0,0,1-35.042-13.565,44.2,44.2,0,0,1,0-65.5,52.045,52.045,0,0,1,70.084,0,44.2,44.2,0,0,1,0,65.5A51.034,51.034,0,0,1,1407.834,1020.425Zm0-80.044c-19.9,0-36.094,15.132-36.094,33.732s16.192,33.732,36.094,33.732a37.171,37.171,0,0,0,25.523-9.88,32.441,32.441,0,0,0,10.572-23.852C1443.929,955.512,1427.737,940.38,1407.834,940.38Z" transform="translate(-1358.278 -927.799)" fill="#545454"/>
            </g>
            <g id="Grupo_23111" data-name="Grupo 23111" transform="translate(70.32 65.717)">
              <path id="Trazado_6191" data-name="Trazado 6191" d="M1746.772,1321.348l-47.617-43.722,9.461-8.951,48.724,42.421Z" transform="translate(-1699.154 -1268.675)" fill="#545454"/>
            </g>
          </g>
          <g id="Grupo_23115" data-name="Grupo 23115">
            <path id="Trazado_6192" data-name="Trazado 6192" d="M1417.54,959.508a44.241,44.241,0,0,0,30.282-11.722,38.631,38.631,0,0,0,12.543-28.3c0-22.1-19.174-40.022-42.826-40.022s-42.825,17.918-42.825,40.022S1393.888,959.508,1417.54,959.508Z" transform="translate(-1367.983 -873.172)" fill="#fff" opacity="0.74"/>
            <g id="Grupo_23113" data-name="Grupo 23113">
              <path id="Trazado_6193" data-name="Trazado 6193" d="M1391.642,939.458a51.034,51.034,0,0,1-35.042-13.565,44.2,44.2,0,0,1,0-65.5,52.045,52.045,0,0,1,70.084,0,44.2,44.2,0,0,1,0,65.5A51.034,51.034,0,0,1,1391.642,939.458Zm0-80.044c-19.9,0-36.094,15.132-36.094,33.732s16.192,33.732,36.094,33.732a37.17,37.17,0,0,0,25.523-9.88,32.438,32.438,0,0,0,10.572-23.852C1427.736,874.546,1411.544,859.414,1391.642,859.414Z" transform="translate(-1342.085 -846.832)" fill="#505bd4"/>
            </g>
            <g id="Grupo_23114" data-name="Grupo 23114" transform="translate(70.32 63.652)">
              <path id="Trazado_6546" data-name="Trazado 6546" d="M0,0,13.017.441l2.467,72.938L2.467,72.938Z" transform="matrix(0.703, -0.711, 0.711, 0.703, 0, 11.015)" fill="#505bd4"/>
            </g>
          </g>
        </g>
      </g>
    </g>
  </g>
</svg>
