<svg xmlns="http://www.w3.org/2000/svg" xmlns:xlink="http://www.w3.org/1999/xlink" width="172.582" height="140" viewBox="0 0 172.582 140">
  <defs>
    <clipPath id="clip-path">
      <path id="path6975" d="M0-682.665H101.94v101.94H0Z" transform="translate(0 682.665)"/>
    </clipPath>
  </defs>
  <g id="Grupo_128084" data-name="Grupo 128084" transform="translate(-2636 4091)">
    <g id="Grupo_111676" data-name="Grupo 111676" transform="translate(2701 -4058.582)">
      <rect id="Rectángulo_37181" data-name="Rectángulo 37181" width="48.357" height="103.786" rx="24.179" transform="translate(73.388 0) rotate(45)" fill="#ff6148"/>
      <rect id="Rectángulo_37182" data-name="Rectángulo 37182" width="30.763" height="64.458" rx="15.381" transform="translate(75.479 35.367) rotate(45)" fill="#ffb476"/>
    </g>
    <g id="Grupo_111677" data-name="Grupo 111677" transform="translate(927 335)">
      <rect id="Rectángulo_45126" data-name="Rectángulo 45126" width="157" height="135" transform="translate(1709 -4426)" fill="none"/>
      <g id="g6969" transform="translate(1737.561 -3726.899)">
        <g id="g6971" transform="translate(0 -682.665)">
          <g id="g6973" transform="translate(0 0)" clip-path="url(#clip-path)">
            <g id="g6979" transform="translate(6.335 1.493)">
              <path id="path6981" d="M-187.534-84.747l-11.117-12.781a6.088,6.088,0,0,0-4.593-2.1,6.088,6.088,0,0,0-4.593,2.1l-11.117,12.781a6.153,6.153,0,0,0,.583,8.637c4.136,3.677,9.03-1.075,9.03-1.075v47.779h12.2V-77.185s4.9,4.8,9.029,1.075a6.171,6.171,0,0,0,.583-8.637" transform="translate(220.454 99.624)" fill="#b0f0ef"/>
            </g>
            <g id="g6983" transform="translate(17.444 46.391)">
              <path id="path6985" d="M-69.474-3.51a50.309,50.309,0,0,0-12.2-.431V21.194h12.2Z" transform="translate(81.669 4.126)" fill="#76e7e7"/>
            </g>
            <g id="g6987" transform="translate(1.493 56.18)">
              <path id="path6989" d="M-251.209-126.088a22.091,22.091,0,0,1-22.048,22.133,22.091,22.091,0,0,1-22.048-22.133,22.091,22.091,0,0,1,22.048-22.133,22.091,22.091,0,0,1,22.048,22.133" transform="translate(295.306 148.221)" fill="#60daa8"/>
            </g>
            <g id="g6991" transform="translate(1.493 56.18)">
              <path id="path6993" d="M-64.871-126.088a22.131,22.131,0,0,1,16.358-21.387,22.02,22.02,0,0,0-5.7-.746,22.091,22.091,0,0,0-22.048,22.133A22.091,22.091,0,0,0-54.21-103.955a22.02,22.02,0,0,0,5.7-.746,22.13,22.13,0,0,1-16.358-21.387" transform="translate(76.258 148.221)" fill="#00ce8e"/>
            </g>
            <g id="g6995" transform="translate(11.019 65.742)">
              <path id="path6997" d="M-120.916-49.765H-125.8v-4.9a3.828,3.828,0,0,0-3.821-3.835,3.828,3.828,0,0,0-3.82,3.835v4.9h-4.882a3.828,3.828,0,0,0-3.821,3.835A3.828,3.828,0,0,0-138.32-42.1h4.882v4.9a3.828,3.828,0,0,0,3.82,3.835,3.828,3.828,0,0,0,3.821-3.835v-4.9h4.882a3.828,3.828,0,0,0,3.82-3.835,3.828,3.828,0,0,0-3.82-3.835" transform="translate(142.141 58.501)" fill="#fffcdc"/>
            </g>
            <g id="g6999" transform="translate(61.192 30.229)">
              <path id="path7001" d="M-187.534-315.262l-11.117,12.781a6.088,6.088,0,0,1-4.593,2.1,6.088,6.088,0,0,1-4.593-2.1l-11.117-12.781a6.153,6.153,0,0,1,.583-8.637c4.136-3.677,9.03,1.075,9.03,1.075V-370.6h12.2v47.779s4.9-4.8,9.029-1.075a6.171,6.171,0,0,1,.583,8.637" transform="translate(220.453 370.603)" fill="#b0f0ef"/>
            </g>
            <g id="g7003" transform="translate(72.3 30.229)">
              <path id="path7005" d="M-69.474-140.731a50.309,50.309,0,0,1-12.2.431v-25.134h12.2Z" transform="translate(81.669 165.434)" fill="#76e7e7"/>
            </g>
            <g id="g7007" transform="translate(56.35 1.493)">
              <path id="path7009" d="M-251.209-126.087a22.091,22.091,0,0,0-22.048-22.133,22.091,22.091,0,0,0-22.048,22.133,22.091,22.091,0,0,0,22.048,22.133,22.091,22.091,0,0,0,22.048-22.133" transform="translate(295.306 148.22)" fill="#ff8a98"/>
            </g>
            <g id="g7011" transform="translate(56.35 1.493)">
              <path id="path7013" d="M-64.871-126.087a22.131,22.131,0,0,1,16.359-21.387,22.029,22.029,0,0,0-5.7-.746,22.091,22.091,0,0,0-22.048,22.133A22.091,22.091,0,0,0-54.21-103.953a22.026,22.026,0,0,0,5.7-.746,22.131,22.131,0,0,1-16.358-21.387" transform="translate(76.258 148.22)" fill="#fd5c6f"/>
            </g>
            <g id="g7015" transform="translate(65.875 19.791)">
              <path id="path7017" d="M0-21.808v.015a3.828,3.828,0,0,0,3.828,3.828h17.39a3.828,3.828,0,0,0,3.828-3.828v-.015a3.828,3.828,0,0,0-3.828-3.828H3.828A3.828,3.828,0,0,0,0-21.808" transform="translate(0 25.636)" fill="#fffcdc"/>
            </g>
            <g id="g7019" transform="translate(4.853)">
              <path id="path7021" d="M-151.92-323.977h-2.987v-30.429c-2.4,1.259-5.672,1.847-8.528-.692a7.673,7.673,0,0,1-.717-10.733l11.117-12.781a7.58,7.58,0,0,1,5.72-2.608,7.58,7.58,0,0,1,5.72,2.608l11.117,12.781a7.62,7.62,0,0,1-.708,10.725c-2.854,2.578-6.127,1.987-8.537.714v30.1h-2.987v-32.995a1.493,1.493,0,0,1,.915-1.377,1.493,1.493,0,0,1,1.623.31c.157.152,3.961,3.765,6.984,1.034a4.655,4.655,0,0,0,.457-6.549l-11.117-12.781a4.6,4.6,0,0,0-3.467-1.582,4.594,4.594,0,0,0-3.467,1.582L-161.9-363.871a4.677,4.677,0,0,0,.448,6.541c3.064,2.723,6.838-.876,7-1.03a1.493,1.493,0,0,1,1.622-.3,1.493,1.493,0,0,1,.912,1.375Z" transform="translate(166.007 381.22)"/>
            </g>
            <g id="g7023" transform="translate(59.709 43.52)">
              <path id="path7025" d="M-147.316,48.419a7.58,7.58,0,0,1-5.72-2.608L-164.153,33.03a7.673,7.673,0,0,1,.717-10.733c2.857-2.539,6.123-1.951,8.528-.692V-2.173a1.493,1.493,0,0,1,1.493-1.493,1.493,1.493,0,0,1,1.493,1.493V24.488a1.493,1.493,0,0,1-.912,1.375,1.493,1.493,0,0,1-1.622-.3c-.157-.151-3.959-3.731-7-1.03a4.677,4.677,0,0,0-.448,6.541l11.117,12.781a4.594,4.594,0,0,0,3.466,1.582,4.594,4.594,0,0,0,3.467-1.582l11.117-12.781a4.654,4.654,0,0,0-.457-6.549c-3.048-2.753-6.825.878-6.984,1.034a1.493,1.493,0,0,1-1.623.31,1.493,1.493,0,0,1-.915-1.377V-8.507A1.493,1.493,0,0,1-141.218-10a1.493,1.493,0,0,1,1.493,1.493v30.1c2.41-1.273,5.683-1.864,8.537.714a7.62,7.62,0,0,1,.708,10.725L-141.6,45.811A7.58,7.58,0,0,1-147.316,48.419Z" transform="translate(166.008 10)"/>
            </g>
            <g id="g7027" transform="translate(0 54.687)">
              <path id="path7029" d="M-18-202.539a23.338,23.338,0,0,1-13.49-4.262,1.493,1.493,0,0,1-.363-2.08,1.493,1.493,0,0,1,2.08-.363A20.366,20.366,0,0,0-18-205.525a20.621,20.621,0,0,0,20.555-20.64A20.621,20.621,0,0,0-18-246.8a20.621,20.621,0,0,0-20.555,20.64,20.482,20.482,0,0,0,4.392,12.753,1.493,1.493,0,0,1-.254,2.1,1.493,1.493,0,0,1-2.1-.254,23.442,23.442,0,0,1-5.028-14.595A23.611,23.611,0,0,1-18-249.791,23.611,23.611,0,0,1,5.544-226.165,23.611,23.611,0,0,1-18-202.539Z" transform="translate(41.54 249.791)"/>
            </g>
            <g id="g7031" transform="translate(9.526 64.249)">
              <path id="path7033" d="M-138.125-68.5a5.327,5.327,0,0,1,5.314,5.328v3.407h3.389a5.327,5.327,0,0,1,5.314,5.329,5.327,5.327,0,0,1-5.314,5.328h-3.389V-45.7a5.327,5.327,0,0,1-5.314,5.328,5.327,5.327,0,0,1-5.314-5.328v-3.408h-3.389a5.327,5.327,0,0,1-5.314-5.328,5.327,5.327,0,0,1,5.314-5.329h3.389v-3.407A5.327,5.327,0,0,1-138.125-68.5Zm8.7,16.406a2.337,2.337,0,0,0,2.327-2.342,2.337,2.337,0,0,0-2.327-2.342H-134.3a1.493,1.493,0,0,1-1.493-1.493v-4.9a2.337,2.337,0,0,0-2.327-2.342,2.337,2.337,0,0,0-2.327,2.342v4.9a1.493,1.493,0,0,1-1.493,1.493h-4.882a2.337,2.337,0,0,0-2.327,2.342,2.337,2.337,0,0,0,2.327,2.342h4.882a1.493,1.493,0,0,1,1.493,1.493v4.9a2.337,2.337,0,0,0,2.327,2.342A2.337,2.337,0,0,0-135.8-45.7v-4.9A1.493,1.493,0,0,1-134.3-52.1Z" transform="translate(152.141 68.501)"/>
            </g>
            <g id="g7035" transform="translate(54.856 0)">
              <path id="path7037" d="M-281.764-158.22a23.611,23.611,0,0,1,23.542,23.626,23.611,23.611,0,0,1-23.542,23.627,23.611,23.611,0,0,1-23.542-23.627A23.611,23.611,0,0,1-281.764-158.22Zm0,44.266a20.621,20.621,0,0,0,20.555-20.64,20.621,20.621,0,0,0-20.555-20.64,20.621,20.621,0,0,0-20.555,20.64A20.621,20.621,0,0,0-281.764-113.953Z" transform="translate(305.306 158.22)"/>
            </g>
            <g id="g7039" transform="translate(64.382 18.298)">
              <path id="path7041" d="M-129.379-50.71a1.493,1.493,0,0,1-1.493-1.493,1.493,1.493,0,0,1,1.493-1.493,2.337,2.337,0,0,0,2.335-2.335,2.341,2.341,0,0,0-2.335-2.349h-17.39a2.337,2.337,0,0,0-2.334,2.335,2.34,2.34,0,0,0,2.334,2.349h11.177A1.493,1.493,0,0,1-134.1-52.2a1.493,1.493,0,0,1-1.493,1.493h-11.177a5.327,5.327,0,0,1-5.321-5.321,5.33,5.33,0,0,1,5.321-5.336h17.39a5.327,5.327,0,0,1,5.321,5.321A5.33,5.33,0,0,1-129.379-50.71Z" transform="translate(152.09 61.367)"/>
            </g>
          </g>
        </g>
      </g>
    </g>
  </g>
</svg>
