<svg id="Grupo_22648" data-name="Grupo 22648" xmlns="http://www.w3.org/2000/svg" xmlns:xlink="http://www.w3.org/1999/xlink" width="360.572" height="341.076" viewBox="0 0 360.572 341.076">
  <defs>
    <clipPath id="clip-path">
      <rect id="Rectángulo_5589" data-name="Rectángulo 5589" width="332.846" height="148.277" rx="10.067" fill="none"/>
    </clipPath>
  </defs>
  <g id="Grupo_22617" data-name="Grupo 22617" transform="translate(27.726)">
    <g id="Grupo_22615" data-name="Grupo 22615" transform="translate(0 8.23)" opacity="0.12" style="mix-blend-mode: multiply;isolation: isolate">
      <rect id="Rectángulo_5587" data-name="Rectángulo 5587" width="332.846" height="332.846" rx="10.067"/>
    </g>
    <g id="Grupo_22616" data-name="Grupo 22616">
      <rect id="Rectángulo_5588" data-name="Rectángulo 5588" width="332.846" height="332.846" rx="10.067" fill="#ff6148"/>
    </g>
  </g>
  <g id="Grupo_22647" data-name="Grupo 22647" transform="translate(0 18.458)">
    <g id="Grupo_22641" data-name="Grupo 22641" transform="translate(27.726 61.379)">
      <g id="Grupo_22618" data-name="Grupo 22618" transform="translate(91.106 113.543)">
        <path id="Trazado_5590" data-name="Trazado 5590" d="M282.126,288.058c2.56,21.95-12.4,41.727-33.41,44.18S208.6,318.88,206.038,296.93s12.4-41.731,33.41-44.18S279.567,266.108,282.126,288.058Z" transform="translate(-112.628 -248.73)" fill="#2f2f2f"/>
        <path id="Trazado_5591" data-name="Trazado 5591" d="M259.5,287.141c2.56,21.95-12.4,41.731-33.411,44.18s-40.122-13.358-42.678-35.308,12.4-41.727,33.411-44.18S256.936,265.191,259.5,287.141Z" transform="translate(-183.123 -251.583)" fill="#2f2f2f"/>
      </g>
      <g id="Grupo_22623" data-name="Grupo 22623" transform="translate(0 104.733)">
        <g id="Grupo_22622" data-name="Grupo 22622" clip-path="url(#clip-path)">
          <g id="Grupo_22621" data-name="Grupo 22621" transform="translate(52.372 69.715)">
            <g id="Grupo_22619" data-name="Grupo 22619">
              <path id="Trazado_5592" data-name="Trazado 5592" d="M414.74,347.034c-9.983-11.279-27.152-38.674-45.694-52.8-37.591-28.641-72.084-27.341-72.084-27.341-25.686,1.737-49.916,10.107-68.446,23.4-14.559,10.448-45.966,40.513-54.089,54.731l19.934,8.23H399.065Z" transform="translate(-171.48 -264.825)" fill="#fff"/>
              <path id="Trazado_5593" data-name="Trazado 5593" d="M401.691,356.872,195.8,356.716l-22.094-9.127,1.16-2.029c8.333-14.584,39.974-44.83,54.673-55.377,18.942-13.592,43.628-22.036,69.508-23.785,1.506-.053,35.731-1,73.471,27.756,13.152,10.016,25.374,26.271,35.2,39.324,4.2,5.58,7.819,10.395,10.79,13.753l1.942,2.193ZM197,352.757H400.9l12.637-5.016c-2.658-3.218-5.7-7.251-9.107-11.79-9.671-12.852-21.7-28.851-34.4-38.526-36.505-27.81-70.414-26.991-70.759-26.917-25.065,1.691-49,9.868-67.327,23.016-13.74,9.86-42.809,37.628-52.27,52.077Z" transform="translate(-173.71 -266.384)" fill="#2f2f2f"/>
            </g>
            <path id="Trazado_5594" data-name="Trazado 5594" d="M377.381,353.25c-25.937-53.6-60.546-86.364-98.565-86.364s-72.628,32.76-98.565,86.364Z" transform="translate(-153.334 -264.818)" fill="#fff"/>
            <g id="Grupo_22620" data-name="Grupo 22620" transform="translate(23.637 42.252)">
              <path id="Trazado_5595" data-name="Trazado 5595" d="M383.147,324.888H179.454l1.428-2.955c8.448-17.456,17.806-32.69,27.814-45.283l3.222,2.564a235.086,235.086,0,0,0-25.884,41.558H376.563a237.645,237.645,0,0,0-24.555-39.863l3.251-2.527a245.751,245.751,0,0,1,26.456,43.55Z" transform="translate(-179.454 -276.651)" fill="#2f2f2f"/>
            </g>
          </g>
        </g>
      </g>
      <g id="Grupo_22624" data-name="Grupo 22624" transform="translate(141.612 169.038)">
        <path id="Trazado_5596" data-name="Trazado 5596" d="M263.759,283c0,9.621-15.193,17.424-33.933,17.424S195.9,292.618,195.9,283s15.189-17.427,33.929-17.427S263.759,273.371,263.759,283Z" transform="translate(-193.835 -263.511)" fill="#fff"/>
        <path id="Trazado_5597" data-name="Trazado 5597" d="M231.391,304.035c-20.185,0-35.995-8.555-35.995-19.481s15.81-19.485,35.995-19.485,35.987,8.555,35.987,19.485S251.571,304.035,231.391,304.035Zm0-34.851c-17.279,0-31.88,7.037-31.88,15.37s14.6,15.366,31.88,15.366,31.871-7.037,31.871-15.366S248.666,269.184,231.391,269.184Z" transform="translate(-195.396 -265.069)" fill="#2f2f2f"/>
      </g>
      <g id="Grupo_22625" data-name="Grupo 22625" transform="translate(155.212 133.636)">
        <rect id="Rectángulo_5590" data-name="Rectángulo 5590" width="40.667" height="55.082" rx="4.239" transform="translate(2.058 2.055)" fill="#fff"/>
        <path id="Trazado_5598" data-name="Trazado 5598" d="M223.984,315.662H218.2a19.523,19.523,0,0,1-19.5-19.5v-20.2a19.522,19.522,0,0,1,19.5-19.5h5.786a19.52,19.52,0,0,1,19.5,19.5v20.2A19.521,19.521,0,0,1,223.984,315.662ZM218.2,260.581a15.4,15.4,0,0,0-15.382,15.382v20.2A15.4,15.4,0,0,0,218.2,311.547h5.786a15.4,15.4,0,0,0,15.382-15.387v-20.2a15.4,15.4,0,0,0-15.382-15.382Z" transform="translate(-198.701 -256.466)" fill="#2f2f2f"/>
      </g>
      <g id="Grupo_22640" data-name="Grupo 22640" transform="translate(95.362)">
        <g id="Grupo_22639" data-name="Grupo 22639" transform="translate(2.095 2.537)">
          <g id="Grupo_22634" data-name="Grupo 22634">
            <path id="Trazado_5599" data-name="Trazado 5599" d="M197.312,319.654s-12.535-21.143-9.168-51.488c5.543-49.92,62.294-43.34,69.154-43.2,25.353.518,66.22,5.313,65.94,32.661-.309,29.933-6.983,70.348-7.967,75.088S216.011,352.621,197.312,319.654Z" transform="translate(-175.621 -224.608)" fill="#2f2f2f"/>
            <g id="Grupo_22632" data-name="Grupo 22632" transform="translate(0 85.874)">
              <g id="Grupo_22628" data-name="Grupo 22628">
                <g id="Grupo_22626" data-name="Grupo 22626">
                  <path id="Trazado_5600" data-name="Trazado 5600" d="M185.173,261.365a16.007,16.007,0,1,0,16.485-15.382A15.945,15.945,0,0,0,185.173,261.365Z" transform="translate(-183.108 -243.921)" fill="#fff"/>
                  <path id="Trazado_5601" data-name="Trazado 5601" d="M202.74,281.339c-.185,0-.366,0-.556-.008a18.022,18.022,0,0,1-12.6-5.634,17.773,17.773,0,0,1-4.909-12.843,18.092,18.092,0,0,1,31.2-11.74,17.75,17.75,0,0,1,4.909,12.843A18.024,18.024,0,0,1,202.74,281.339Zm-.021-31.752a13.9,13.9,0,0,0-13.93,13.391,13.67,13.67,0,0,0,3.782,9.889,13.977,13.977,0,0,0,24.1-9.033,13.677,13.677,0,0,0-3.782-9.889,13.907,13.907,0,0,0-9.74-4.35C203.007,249.591,202.859,249.587,202.719,249.587Z" transform="translate(-184.666 -245.476)" fill="#2f2f2f"/>
                </g>
                <g id="Grupo_22627" data-name="Grupo 22627" transform="translate(15.345 9.114)">
                  <path id="Trazado_5602" data-name="Trazado 5602" d="M198.469,258.864a8.375,8.375,0,0,0,.021-1.016c-.008-.366-.033-.732-.074-1.095-.016-.152.025-.407,0-.016a1.766,1.766,0,0,0-.049-.329c-.041-.243-.091-.486-.148-.724a10.478,10.478,0,0,0-.453-1.457c-.123-.325.1.21-.045-.107-.053-.115-.1-.226-.156-.337-.14-.268-.288-.531-.453-.786-.074-.107-.148-.21-.222-.317-.2-.284.132.14-.095-.124a8.939,8.939,0,0,0-.667-.7c-.1-.095-.214-.177-.317-.272-.21-.185.165.119.016.012-.058-.041-.115-.086-.173-.128a7.278,7.278,0,0,0-.881-.523l-.21-.1-.173-.078c.148.062.156.066.029.012-.189-.066-.37-.14-.564-.2a9.922,9.922,0,0,0-1.243-.3c-.029,0-.4-.062-.128-.025-.115-.016-.235-.029-.35-.041q-.37-.031-.741-.049a15.728,15.728,0,0,0-1.761.041,1.237,1.237,0,1,1,0-2.473c3.49-.255,7.053.621,9.251,3.51a11.315,11.315,0,0,1,2.062,6.243,9.643,9.643,0,0,1,0,1.379A1.273,1.273,0,0,1,199.7,260.1a1.247,1.247,0,0,1-1.235-1.239Z" transform="translate(-188.395 -247.691)" fill="#2f2f2f"/>
                </g>
              </g>
              <g id="Grupo_22631" data-name="Grupo 22631" transform="translate(124.984 1.284)">
                <g id="Grupo_22629" data-name="Grupo 22629">
                  <path id="Trazado_5603" data-name="Trazado 5603" d="M247.541,262.651a16.005,16.005,0,1,1-15.514-16.358A15.936,15.936,0,0,1,247.541,262.651Z" transform="translate(-213.48 -244.236)" fill="#fff"/>
                  <path id="Trazado_5604" data-name="Trazado 5604" d="M233.116,281.647c-.189,0-.374,0-.564-.008a17.932,17.932,0,1,1,13.7-30.213,17.745,17.745,0,0,1,4.909,12.839A18.019,18.019,0,0,1,233.116,281.647Zm-.029-31.748a13.818,13.818,0,1,0,13.954,14.242h0a13.661,13.661,0,0,0-3.782-9.885,13.881,13.881,0,0,0-9.736-4.35C233.379,249.9,233.231,249.9,233.087,249.9Z" transform="translate(-215.038 -245.788)" fill="#2f2f2f"/>
                </g>
                <g id="Grupo_22630" data-name="Grupo 22630" transform="translate(8.105 9.123)">
                  <path id="Trazado_5605" data-name="Trazado 5605" d="M217.014,258.642c-.136-4.082,1.967-8.366,5.856-9.942a12.378,12.378,0,0,1,6.362-.514,1.24,1.24,0,0,1,.864,1.518,1.268,1.268,0,0,1-1.519.864,9.763,9.763,0,0,0-4.634.354c-.078.029-.531.214-.259.095-.144.062-.292.132-.432.206a7.608,7.608,0,0,0-.86.523c-.292.2.095-.1-.169.132-.111.095-.218.185-.325.284-.214.2-.407.42-.6.642-.045.054-.086.107-.128.16.189-.235.082-.111.045-.054-.074.111-.156.218-.23.329-.16.243-.309.494-.444.749-.058.115-.115.23-.169.346-.041.086-.206.486-.062.119-.095.243-.185.481-.268.724a11.728,11.728,0,0,0-.354,1.342c-.041.2-.074.4-.107.593-.021.14-.14.4,0,0a1.267,1.267,0,0,0-.033.28,9.063,9.063,0,0,0-.066,1.251c.054,1.588-2.416,1.588-2.469,0Z" transform="translate(-217.008 -248.005)" fill="#2f2f2f"/>
                </g>
              </g>
            </g>
            <g id="Grupo_22633" data-name="Grupo 22633" transform="translate(27.952 16.119)">
              <rect id="Rectángulo_5591" data-name="Rectángulo 5591" width="133.949" height="101.141" rx="10.572" transform="matrix(0.01, -1, 1, 0.01, 1.622, 135.562)" fill="#fff"/>
              <path id="Trazado_5606" data-name="Trazado 5606" d="M251.159,366.73c-.156,0-.309,0-.465,0l-14.131-.144a45.614,45.614,0,0,1-45.1-46.019l.477-46.933a45.686,45.686,0,0,1,46.019-45.1l14.127.144a45.679,45.679,0,0,1,45.1,46.019l-.469,46.933A45.622,45.622,0,0,1,251.159,366.73ZM237.492,232.64a41.575,41.575,0,0,0-41.439,41.032l-.477,46.933A41.492,41.492,0,0,0,236.6,362.467l14.131.144c.14,0,.284,0,.424,0A41.5,41.5,0,0,0,292.6,321.588l.469-46.937a41.562,41.562,0,0,0-41.023-41.863l-14.127-.144C237.776,232.64,237.632,232.64,237.492,232.64Z" transform="translate(-191.458 -228.525)" fill="#2f2f2f"/>
            </g>
          </g>
          <g id="Grupo_22638" data-name="Grupo 22638" transform="translate(31.977 74.881)">
            <path id="Trazado_5607" data-name="Trazado 5607" d="M208.581,242.8l-5.773,23.117,12.128-.12Z" transform="translate(-160.131 -242.805)" fill="#ea80a2"/>
            <g id="Grupo_22635" data-name="Grupo 22635" transform="translate(0 19.216)">
              <path id="Trazado_5608" data-name="Trazado 5608" d="M217.874,261.308a12.742,12.742,0,1,1-11.6-13.786A12.738,12.738,0,0,1,217.874,261.308Z" transform="translate(-192.437 -247.474)" fill="#ea80a2"/>
              <path id="Trazado_5609" data-name="Trazado 5609" d="M234.821,261.308a12.742,12.742,0,1,1-11.6-13.786A12.744,12.744,0,0,1,234.821,261.308Z" transform="translate(-139.648 -247.474)" fill="#ea80a2"/>
            </g>
            <g id="Grupo_22636" data-name="Grupo 22636" transform="translate(38.174 38.268)">
              <path id="Trazado_5610" data-name="Trazado 5610" d="M202.275,252.61a10,10,0,0,0,19.86.2Z" transform="translate(-199.962 -250.528)" fill="#fff"/>
              <path id="Trazado_5611" data-name="Trazado 5611" d="M213.968,265.141h-.119a12.1,12.1,0,0,1-11.864-10.716l-.272-2.321,24.526.247-.313,2.313A12.113,12.113,0,0,1,213.968,265.141Zm-7.263-8.868a7.927,7.927,0,0,0,14.465.14Z" transform="translate(-201.713 -252.104)" fill="#2f2f2f"/>
            </g>
            <g id="Grupo_22637" data-name="Grupo 22637" transform="translate(10.219 2.939)">
              <path id="Trazado_5612" data-name="Trazado 5612" d="M206.633,249.623a5.859,5.859,0,1,1-5.6-6.1A5.853,5.853,0,0,1,206.633,249.623Z" transform="translate(-194.92 -243.519)" fill="#2f2f2f"/>
              <path id="Trazado_5613" data-name="Trazado 5613" d="M221.7,249.623a5.859,5.859,0,1,1-5.6-6.1A5.854,5.854,0,0,1,221.7,249.623Z" transform="translate(-147.981 -243.519)" fill="#2f2f2f"/>
            </g>
          </g>
        </g>
        <path id="Trazado_5614" data-name="Trazado 5614" d="M184.215,275.453c1.486,27.781,58.529,34.67,106.24-.058,0,0,18.7,23.954,35.534,28.954,0,0,10.67-51.06-10.588-67.8s-68.949-13.568-86.952-8.547C194.984,237.339,183.215,256.709,184.215,275.453Z" transform="translate(-184.157 -223.992)" fill="#2f2f2f"/>
      </g>
    </g>
    <g id="Grupo_22646" data-name="Grupo 22646" transform="translate(0)">
      <g id="Grupo_22642" data-name="Grupo 22642" transform="translate(73.647)">
        <path id="Trazado_5615" data-name="Trazado 5615" d="M403.436,258.189a129.611,129.611,0,1,0-20.172,182.184A129.6,129.6,0,0,0,403.436,258.189Zm-141.7,180.2a107.151,107.151,0,1,1,139.712-58.673A107.154,107.154,0,0,1,261.741,438.389Z" transform="translate(-170.576 -207.511)" fill="#fff"/>
        <path id="Trazado_5616" data-name="Trazado 5616" d="M303.956,472.373a131.544,131.544,0,1,1,82.162-28.826A131.487,131.487,0,0,1,303.956,472.373ZM303.7,213.257a127.481,127.481,0,1,0,99.7,47.785A126.933,126.933,0,0,0,303.7,213.257Zm.132,236.771a109.063,109.063,0,0,1-41.307-8.168h0a108.492,108.492,0,1,1,41.307,8.168ZM264.08,438.048a105.094,105.094,0,1,0-57.546-137.033A105.215,105.215,0,0,0,264.08,438.048Z" transform="translate(-172.142 -209.076)" fill="#2f2f2f"/>
      </g>
      <g id="Grupo_22645" data-name="Grupo 22645" transform="translate(0 201.343)">
        <g id="Grupo_22643" data-name="Grupo 22643" transform="translate(68.684)">
          <path id="Trazado_5617" data-name="Trazado 5617" d="M171.436,279.3,197.408,258.5l14.878,18.583-25.714,20.587Z" transform="translate(-169.378 -256.449)" fill="#fff"/>
          <path id="Trazado_5618" data-name="Trazado 5618" d="M188.132,301.283a2.041,2.041,0,0,1-1.588-.749l-15.135-18.378a2.029,2.029,0,0,1-.461-1.518,2.075,2.075,0,0,1,.761-1.395l25.97-20.794a2.11,2.11,0,0,1,1.514-.436,2.067,2.067,0,0,1,1.379.757l14.876,18.584a2.056,2.056,0,0,1-.321,2.893l-25.711,20.588A2.076,2.076,0,0,1,188.132,301.283ZM175.91,281.152l12.518,15.2,22.522-18.037-12.3-15.366Z" transform="translate(-170.936 -258.004)" fill="#2f2f2f"/>
        </g>
        <g id="Grupo_22644" data-name="Grupo 22644" transform="translate(0 17.885)">
          <path id="Rectángulo_5592" data-name="Rectángulo 5592" d="M2.933,0h29.09a2.934,2.934,0,0,1,2.934,2.934V85.3a2.934,2.934,0,0,1-2.934,2.934H2.934A2.934,2.934,0,0,1,0,85.3V2.933A2.933,2.933,0,0,1,2.933,0Z" transform="matrix(0.625, 0.781, -0.781, 0.625, 68.878, 0)" fill="#fff"/>
          <path id="Trazado_5619" data-name="Trazado 5619" d="M175.832,339.778a14.107,14.107,0,0,1-11.045-5.292h0l-6.757-8.436a14.154,14.154,0,0,1,2.2-19.868l50.023-40.048a14.154,14.154,0,0,1,19.864,2.2l6.757,8.444a14.12,14.12,0,0,1-2.2,19.859l-50.027,40.052A14.05,14.05,0,0,1,175.832,339.778ZM168,331.914a10.033,10.033,0,0,0,14.078,1.56L232.1,293.422a10.011,10.011,0,0,0,1.56-14.074L226.9,270.9a10.02,10.02,0,0,0-14.078-1.556L162.8,309.4a10.024,10.024,0,0,0-1.56,14.078Z" transform="translate(-152.09 -260.196)" fill="#2f2f2f"/>
        </g>
      </g>
    </g>
  </g>
</svg>
