<svg xmlns="http://www.w3.org/2000/svg" width="172.582" height="140" viewBox="0 0 172.582 140">
  <g id="Grupo_128086" data-name="Grupo 128086" transform="translate(-2636 3786)">
    <g id="Grupo_111678" data-name="Grupo 111678" transform="translate(2701 -3753.582)">
      <rect id="Rectángulo_37181" data-name="Rectángulo 37181" width="48.357" height="103.786" rx="24.179" transform="translate(73.388 0) rotate(45)" fill="#ff6148"/>
      <rect id="Rectángulo_37182" data-name="Rectángulo 37182" width="30.763" height="64.458" rx="15.381" transform="translate(75.479 35.367) rotate(45)" fill="#ffb476"/>
    </g>
    <g id="Grupo_111679" data-name="Grupo 111679" transform="translate(927 640)">
      <rect id="Rectángulo_45126" data-name="Rectángulo 45126" width="157" height="135" transform="translate(1709 -4426)" fill="none"/>
      <g id="Layer_x0020_1" transform="translate(1736.785 -4417.68)">
        <g id="Grupo_111680" data-name="Grupo 111680" transform="translate(0 26.351)">
          <path id="Trazado_167352" data-name="Trazado 167352" d="M580.474,895.787H546.188A1.192,1.192,0,0,1,545,894.6v-9.923A8.685,8.685,0,0,1,553.675,876h5.051a1.192,1.192,0,0,1,1.188,1.188,3.417,3.417,0,0,0,6.833,0A1.192,1.192,0,0,1,567.936,876h4.991a8.665,8.665,0,0,1,8.675,8.141,1.646,1.646,0,0,1,.059.535V894.6A1.192,1.192,0,0,1,580.474,895.787Zm-33.1-2.377h31.908v-8.735a.755.755,0,0,0-.059-.357,6.271,6.271,0,0,0-6.3-5.942h-3.922a5.859,5.859,0,0,1-5.7,4.575,5.744,5.744,0,0,1-5.645-4.575h-3.981a6.3,6.3,0,0,0-6.3,6.3Z" transform="translate(-512.616 -841.834)" fill="#1a1a1a" fill-rule="evenodd"/>
          <path id="Trazado_167353" data-name="Trazado 167353" d="M756.951,832.883c-.119,0-.3-.059-.416-.059a1.236,1.236,0,0,1-.713-1.545l1.07-2.852a1.186,1.186,0,0,1,1.545-.713,1.212,1.212,0,0,1,.713,1.545l-1.07,2.852A1.218,1.218,0,0,1,756.951,832.883Z" transform="translate(-710.841 -796.34)" fill="#1a1a1a" fill-rule="evenodd"/>
          <path id="Trazado_167354" data-name="Trazado 167354" d="M656.188,1065.091A1.192,1.192,0,0,1,655,1063.9v-6.714a1.188,1.188,0,1,1,2.377,0v6.714A1.192,1.192,0,0,1,656.188,1065.091Z" transform="translate(-616.08 -1011.138)" fill="#1a1a1a" fill-rule="evenodd"/>
          <path id="Trazado_167355" data-name="Trazado 167355" d="M557.427,1115.377h-6.239a1.188,1.188,0,1,1,0-2.377h6.239a1.188,1.188,0,1,1,0,2.377Z" transform="translate(-517.319 -1064.751)" fill="#1a1a1a" fill-rule="evenodd"/>
          <path id="Trazado_167356" data-name="Trazado 167356" d="M754.84,1014.286a1.115,1.115,0,0,1-1.129-1.07,1.145,1.145,0,0,1,1.01-1.307,13.644,13.644,0,0,0,8.675-5.229,1.216,1.216,0,0,1,1.664-.238,1.162,1.162,0,0,1,.238,1.664,16.028,16.028,0,0,1-10.28,6.18Z" transform="translate(-708.908 -964.314)" fill="#1a1a1a" fill-rule="evenodd"/>
          <path id="Trazado_167357" data-name="Trazado 167357" d="M894.912,832.883a1.219,1.219,0,0,1-1.129-.772l-1.07-2.852a1.166,1.166,0,0,1,.713-1.545,1.1,1.1,0,0,1,1.486.713l1.129,2.852a1.294,1.294,0,0,1-.713,1.545C895.149,832.823,895.03,832.883,894.912,832.883Z" transform="translate(-839.592 -796.34)" fill="#1a1a1a" fill-rule="evenodd"/>
          <path id="Trazado_167358" data-name="Trazado 167358" d="M1018.188,1065.091A1.192,1.192,0,0,1,1017,1063.9v-6.714a1.188,1.188,0,1,1,2.377,0v6.714A1.192,1.192,0,0,1,1018.188,1065.091Z" transform="translate(-956.57 -1011.138)" fill="#1a1a1a" fill-rule="evenodd"/>
          <path id="Trazado_167359" data-name="Trazado 167359" d="M1024.428,1115.377h-6.239a1.188,1.188,0,1,1,0-2.377h6.239a1.188,1.188,0,0,1,0,2.377Z" transform="translate(-956.57 -1064.751)" fill="#1a1a1a" fill-rule="evenodd"/>
          <path id="Trazado_167360" data-name="Trazado 167360" d="M704.3,513.033a1.243,1.243,0,0,1-1.01-.535,7.888,7.888,0,0,1-1.07-4.4c0-2.614-.119-2.614-1.188-2.614h-.119c-.357,0-.416,0-.594.119a3.752,3.752,0,0,0-.535.238,12.083,12.083,0,0,1-7.665,0c-.238-.119-.416-.178-.535-.238a.89.89,0,0,0-.594-.119h-.178c-.951,0-1.188,0-1.188,2.614a6.5,6.5,0,0,1-1.188,4.278c-.06.119-.178.178-.238.238a1.2,1.2,0,0,1-.654.178c-1.307,0-1.545-.535-1.545-7.606,0-4.991,4.813-7.19,9.567-7.19,4.991,0,10.28,2.5,10.28,7.19C705.846,512.261,705.727,513.033,704.3,513.033Zm-13.488-9.923h.238a2.57,2.57,0,0,1,1.545.357,1.51,1.51,0,0,1,.416.119,8.7,8.7,0,0,0,5.883,0,1.51,1.51,0,0,1,.416-.119,2.485,2.485,0,0,1,1.486-.357h.238a4.141,4.141,0,0,1,2.08.475c-1.129-2.139-4.4-3.209-7.546-3.209-2.971,0-5.942,1.01-6.893,3.268A3.8,3.8,0,0,1,690.813,503.11Z" transform="translate(-645.238 -486.294)" fill="#1a1a1a" fill-rule="evenodd"/>
          <path id="Trazado_167361" data-name="Trazado 167361" d="M701.852,717.862c-4.754,0-8.616-4.635-9.507-9.151a1.083,1.083,0,0,1,.891-1.367,1.164,1.164,0,0,1,1.426.891c.713,3.506,3.684,7.249,7.19,7.249s6.417-3.565,7.19-7.071a1.261,1.261,0,0,1,1.426-.891,1.164,1.164,0,0,1,.891,1.426C710.408,713.287,706.724,717.862,701.852,717.862Z" transform="translate(-651.167 -683.161)" fill="#1a1a1a" fill-rule="evenodd"/>
          <path id="Trazado_167362" data-name="Trazado 167362" d="M222.188,711.193A1.192,1.192,0,0,1,221,710V693.188a1.188,1.188,0,0,1,2.377,0V710A1.192,1.192,0,0,1,222.188,711.193Z" transform="translate(-207.868 -668.767)" fill="#1a1a1a" fill-rule="evenodd"/>
          <path id="Trazado_167363" data-name="Trazado 167363" d="M710,303.377H693.188a1.188,1.188,0,0,1,0-2.377H710a1.188,1.188,0,0,1,0,2.377Z" transform="translate(-650.882 -301)" fill="#1a1a1a" fill-rule="evenodd"/>
          <path id="Trazado_167364" data-name="Trazado 167364" d="M710,1541.377H693.188a1.188,1.188,0,0,1,0-2.377H710a1.188,1.188,0,0,1,0,2.377Z" transform="translate(-650.882 -1465.438)" fill="#1a1a1a" fill-rule="evenodd"/>
          <path id="Trazado_167365" data-name="Trazado 167365" d="M1435.188,711.193A1.192,1.192,0,0,1,1434,710V693.188a1.188,1.188,0,0,1,2.377,0V710A1.192,1.192,0,0,1,1435.188,711.193Z" transform="translate(-1348.792 -668.767)" fill="#1a1a1a" fill-rule="evenodd"/>
          <path id="Trazado_167366" data-name="Trazado 167366" d="M28.878,372.459H1.188A1.192,1.192,0,0,1,0,371.271v-8.022A7.278,7.278,0,0,1,7.249,356H11.29a1.192,1.192,0,0,1,1.188,1.188,2.555,2.555,0,1,0,5.11,0A1.192,1.192,0,0,1,18.777,356h4.041a7.272,7.272,0,0,1,7.249,6.774v8.5A1.192,1.192,0,0,1,28.878,372.459Zm-13.845-2.377H27.69v-7.13a4.922,4.922,0,0,0-4.872-4.575h-3.03a4.89,4.89,0,0,1-9.507,0H7.249a4.894,4.894,0,0,0-4.872,4.872v6.833Z" transform="translate(0 -352.732)" fill="#1a1a1a" fill-rule="evenodd"/>
          <path id="Trazado_167367" data-name="Trazado 167367" d="M171.771,319.575a1.16,1.16,0,0,1-.416-.059,1.184,1.184,0,0,1-.654-1.545l.891-2.436a1.236,1.236,0,0,1,1.545-.713,1.294,1.294,0,0,1,.713,1.545L172.9,318.8A1.162,1.162,0,0,1,171.771,319.575Z" transform="translate(-160.481 -313.93)" fill="#1a1a1a" fill-rule="evenodd"/>
          <path id="Trazado_167368" data-name="Trazado 167368" d="M281.793,318.526a1.162,1.162,0,0,1-1.129-.772l-.951-2.5a1.186,1.186,0,0,1,.713-1.545,1.1,1.1,0,0,1,1.485.713l.951,2.5a1.184,1.184,0,0,1-.654,1.545A1.16,1.16,0,0,1,281.793,318.526Z" transform="translate(-263.016 -312.881)" fill="#1a1a1a" fill-rule="evenodd"/>
        </g>
        <path id="Trazado_167369" data-name="Trazado 167369" d="M213.5,366.328a2.53,2.53,0,0,0,2.5-2.377l-.357-.951a5.4,5.4,0,0,1-2.2.475,5.48,5.48,0,0,1-2.139-.416l-.3.951A2.523,2.523,0,0,0,213.5,366.328Z" transform="translate(-198.462 -332.965)" fill="#fed8b2" fill-rule="evenodd"/>
        <path id="Trazado_167370" data-name="Trazado 167370" d="M57.41,396a4.89,4.89,0,0,1-9.507,0h-3.03A4.894,4.894,0,0,0,40,400.872v6.833H65.313v-7.13A4.922,4.922,0,0,0,60.44,396Z" transform="translate(-37.623 -364.005)" fill="#2d4355" fill-rule="evenodd"/>
        <path id="Trazado_167371" data-name="Trazado 167371" d="M125.022,105.756c-3.922,0-7.012-4.456-7.962-8.616a.753.753,0,0,1-.059-.357c.059-5.883,2.2-6.655,2.912-6.714a1.094,1.094,0,0,1,1.07.475,1.065,1.065,0,0,1,.238.832A14.4,14.4,0,0,1,128.29,89a1.215,1.215,0,0,1,1.129.832,2.229,2.229,0,0,1,.059.594,3.3,3.3,0,0,1,3.625,3.03,15.933,15.933,0,0,1-.238,4.041.646.646,0,0,0-.059.3.357.357,0,0,1-.059.238C131.617,101.775,128.706,105.756,125.022,105.756Zm-5.645-9.032c.772,3.268,3.209,6.655,5.645,6.655,2.317,0,4.516-3.03,5.407-5.942a.754.754,0,0,0,.059-.357,11.18,11.18,0,0,0,.238-3.327c-.119-.713-.357-.951-1.129-.951h-.416a3.633,3.633,0,0,0-2.08.891,1.088,1.088,0,0,1-1.01.357,1.142,1.142,0,0,1-.891-.654,1.949,1.949,0,0,1-.059-1.367,6.424,6.424,0,0,0-4.041,3.03,1.122,1.122,0,0,1-1.07.654,1.758,1.758,0,0,1-.594-.119C119.436,95.893,119.377,96.309,119.377,96.725Z" transform="translate(-110.048 -75.246)" fill="#1a1a1a" fill-rule="evenodd"/>
        <path id="Trazado_167372" data-name="Trazado 167372" d="M157,144.694c.772,3.268,3.209,6.655,5.645,6.655a3.52,3.52,0,0,0,2.08-.713c0-.059.059-.059.119-.119a10.786,10.786,0,0,0,3.209-5.11l.059-.357a11.181,11.181,0,0,0,.238-3.328c-.119-.713-.357-.951-1.129-.951H166.8a3.633,3.633,0,0,0-2.08.891,1.088,1.088,0,0,1-1.01.357,1.142,1.142,0,0,1-.891-.654,1.949,1.949,0,0,1-.059-1.367,6.424,6.424,0,0,0-4.041,3.03,1.122,1.122,0,0,1-1.07.654,1.758,1.758,0,0,1-.594-.119C157.059,143.862,157,144.278,157,144.694Z" transform="translate(-147.671 -123.216)" fill="#fed8b2" fill-rule="evenodd"/>
        <path id="Trazado_167373" data-name="Trazado 167373" d="M114.836,23.617a.883.883,0,0,1-.535-.119,1.122,1.122,0,0,1-.654-1.07,3.048,3.048,0,0,1,.059-.594,11.181,11.181,0,0,0,.238-3.328c-.119-.713-.357-.951-1.129-.951H112.4a3.633,3.633,0,0,0-2.08.891,1.088,1.088,0,0,1-1.01.357,1.142,1.142,0,0,1-.891-.654,1.949,1.949,0,0,1-.059-1.367,6.424,6.424,0,0,0-4.041,3.03,1.122,1.122,0,0,1-1.07.654,2.111,2.111,0,0,1-.594-.119c0,.357-.059.772-.059,1.248a1.165,1.165,0,0,1-.891,1.188,1.276,1.276,0,0,1-1.367-.654c-1.961-4.159-1.129-7.071,0-8.854,1.6-2.614,4.991-4.278,8.556-4.278a9.291,9.291,0,0,1,6.655,2.555,8.882,8.882,0,0,1,2.377,6.536,6.287,6.287,0,0,1-2.377,5.348A1.582,1.582,0,0,1,114.836,23.617Zm-2.02-8.438a3.55,3.55,0,0,1,2.555.951,5.6,5.6,0,0,0-1.545-2.852,6.719,6.719,0,0,0-4.932-1.9,7.6,7.6,0,0,0-6.536,3.209,3.63,3.63,0,0,0-.416.832,1.7,1.7,0,0,1,1.188-.594,1.094,1.094,0,0,1,1.07.475,1.065,1.065,0,0,1,.238.832,14.4,14.4,0,0,1,7.071-2.377,1.215,1.215,0,0,1,1.129.832,2.229,2.229,0,0,1,.059.594Z" transform="translate(-93.267)" fill="#1a1a1a" fill-rule="evenodd"/>
        <path id="Trazado_167374" data-name="Trazado 167374" d="M152.952,49a7.6,7.6,0,0,0-6.536,3.209,3.63,3.63,0,0,0-.416.832,1.7,1.7,0,0,1,1.188-.594,1.094,1.094,0,0,1,1.07.475,1.065,1.065,0,0,1,.238.832,14.4,14.4,0,0,1,7.071-2.377,1.215,1.215,0,0,1,1.129.832,2.229,2.229,0,0,1,.059.594h.119a3.55,3.55,0,0,1,2.555.951,5.6,5.6,0,0,0-1.545-2.852A6.719,6.719,0,0,0,152.952,49Z" transform="translate(-137.325 -37.623)" fill="#1a1a1a" fill-rule="evenodd"/>
        <path id="Trazado_167375" data-name="Trazado 167375" d="M1229.878,372.459h-27.689a1.192,1.192,0,0,1-1.188-1.188v-8.022a7.24,7.24,0,0,1,7.249-7.249h4.041a1.192,1.192,0,0,1,1.188,1.188,2.525,2.525,0,1,0,5.051,0,1.192,1.192,0,0,1,1.188-1.188h4.1a7.217,7.217,0,0,1,7.19,6.774,1.476,1.476,0,0,1,.059.475v8.022A1.192,1.192,0,0,1,1229.878,372.459Zm-13.845-2.377h12.656v-7.13a4.922,4.922,0,0,0-4.872-4.575h-3.03a4.958,4.958,0,0,1-4.754,3.743,4.906,4.906,0,0,1-4.754-3.743h-3.03a4.856,4.856,0,0,0-4.873,4.872v6.833Z" transform="translate(-1129.637 -326.381)" fill="#1a1a1a" fill-rule="evenodd"/>
        <path id="Trazado_167376" data-name="Trazado 167376" d="M1371.951,319.575a1.012,1.012,0,0,1-.416-.059,1.212,1.212,0,0,1-.713-1.545l.951-2.436a1.176,1.176,0,1,1,2.2.832l-.891,2.436A1.218,1.218,0,0,1,1371.951,319.575Z" transform="translate(-1289.298 -287.58)" fill="#1a1a1a" fill-rule="evenodd"/>
        <path id="Trazado_167377" data-name="Trazado 167377" d="M1482.721,318.526a1.142,1.142,0,0,1-1.07-.772l-.951-2.5a1.206,1.206,0,0,1,.654-1.545,1.166,1.166,0,0,1,1.545.713l.951,2.5a1.165,1.165,0,0,1-.713,1.545A.882.882,0,0,1,1482.721,318.526Z" transform="translate(-1392.641 -286.531)" fill="#1a1a1a" fill-rule="evenodd"/>
        <path id="Trazado_167378" data-name="Trazado 167378" d="M1413.555,366.328a2.572,2.572,0,0,0,2.5-2.377l-.356-.951a5.623,5.623,0,0,1-2.2.475,5.094,5.094,0,0,1-2.139-.416l-.356.951A2.58,2.58,0,0,0,1413.555,366.328Z" transform="translate(-1327.159 -332.965)" fill="#fed8b2" fill-rule="evenodd"/>
        <path id="Trazado_167379" data-name="Trazado 167379" d="M1258.41,396a4.958,4.958,0,0,1-4.754,3.743A4.906,4.906,0,0,1,1248.9,396h-3.03a4.856,4.856,0,0,0-4.872,4.872v6.833h25.313v-7.13A4.922,4.922,0,0,0,1261.44,396Z" transform="translate(-1167.26 -364.005)" fill="#2d4355" fill-rule="evenodd"/>
        <path id="Trazado_167380" data-name="Trazado 167380" d="M1326.022,105.756c-3.922,0-7.071-4.456-8.022-8.616v-.357c0-5.883,2.2-6.655,2.852-6.714a1.14,1.14,0,0,1,1.129.475,1.364,1.364,0,0,1,.238.832c2.852-2.2,6.833-2.317,7.011-2.377a1.292,1.292,0,0,1,1.188.832,1.007,1.007,0,0,1,0,.594,3.235,3.235,0,0,1,3.625,3.03,11.964,11.964,0,0,1-.238,4.041v.3c0,.119-.059.119-.059.238C1332.617,101.775,1329.706,105.756,1326.022,105.756Zm-5.645-9.032c.772,3.268,3.209,6.655,5.645,6.655,2.317,0,4.516-3.03,5.407-5.942,0-.119.059-.238.059-.357a13.6,13.6,0,0,0,.238-3.327c-.119-.713-.416-.951-1.129-.951h-.416a3.5,3.5,0,0,0-2.08.891,1.2,1.2,0,0,1-1.069.357,1.052,1.052,0,0,1-.832-.654,1.663,1.663,0,0,1-.06-1.367,6.424,6.424,0,0,0-4.04,3.03,1.252,1.252,0,0,1-1.07.654,1.758,1.758,0,0,1-.594-.119A6.48,6.48,0,0,0,1320.377,96.725Z" transform="translate(-1239.685 -75.246)" fill="#1a1a1a" fill-rule="evenodd"/>
        <path id="Trazado_167381" data-name="Trazado 167381" d="M1358,144.694c.772,3.268,3.209,6.655,5.645,6.655a3.352,3.352,0,0,0,2.02-.713c.06-.059.119-.059.178-.119a10.787,10.787,0,0,0,3.209-5.11l.059-.357a13.6,13.6,0,0,0,.238-3.328c-.119-.713-.416-.951-1.129-.951h-.416a3.5,3.5,0,0,0-2.08.891,1.2,1.2,0,0,1-1.07.357,1.052,1.052,0,0,1-.832-.654,1.663,1.663,0,0,1-.059-1.367,6.425,6.425,0,0,0-4.041,3.03,1.252,1.252,0,0,1-1.069.654,1.757,1.757,0,0,1-.594-.119A6.467,6.467,0,0,0,1358,144.694Z" transform="translate(-1277.308 -123.216)" fill="#fed8b2" fill-rule="evenodd"/>
        <path id="Trazado_167382" data-name="Trazado 167382" d="M1315.444,23.617a.8.8,0,0,1-.535-.119,1.123,1.123,0,0,1-.654-1.07,3.047,3.047,0,0,1,.059-.594,13.6,13.6,0,0,0,.238-3.328c-.119-.713-.416-.951-1.129-.951h-.416a3.5,3.5,0,0,0-2.08.891,1.2,1.2,0,0,1-1.07.357,1.052,1.052,0,0,1-.832-.654,1.663,1.663,0,0,1-.059-1.367,6.424,6.424,0,0,0-4.041,3.03,1.252,1.252,0,0,1-1.07.654,1.759,1.759,0,0,1-.594-.119,8,8,0,0,0-.059,1.248,1.157,1.157,0,0,1-.951,1.188,1.2,1.2,0,0,1-1.307-.654c-2.02-4.159-1.129-7.071,0-8.854a10.04,10.04,0,0,1,8.5-4.278,9.1,9.1,0,0,1,6.655,2.555,8.922,8.922,0,0,1,2.436,6.536,6.174,6.174,0,0,1-2.436,5.348A1.2,1.2,0,0,1,1315.444,23.617Zm-2.02-8.438a3.55,3.55,0,0,1,2.555.951,5.6,5.6,0,0,0-1.545-2.852,6.764,6.764,0,0,0-4.991-1.9,7.756,7.756,0,0,0-6.536,3.209c-.119.238-.3.535-.416.832a1.806,1.806,0,0,1,1.188-.594,1.14,1.14,0,0,1,1.129.475,1.365,1.365,0,0,1,.238.832c2.852-2.2,6.833-2.317,7.011-2.377a1.292,1.292,0,0,1,1.188.832,1.007,1.007,0,0,1,0,.594Z" transform="translate(-1222.511)" fill="#1a1a1a" fill-rule="evenodd"/>
        <path id="Trazado_167383" data-name="Trazado 167383" d="M1352.952,49a7.756,7.756,0,0,0-6.536,3.209c-.119.238-.3.535-.416.832a1.806,1.806,0,0,1,1.188-.594,1.139,1.139,0,0,1,1.129.475,1.364,1.364,0,0,1,.238.832c2.852-2.2,6.833-2.317,7.012-2.377a1.292,1.292,0,0,1,1.188.832,1.007,1.007,0,0,1,0,.594h.179a3.549,3.549,0,0,1,2.555.951,5.6,5.6,0,0,0-1.545-2.852A6.765,6.765,0,0,0,1352.952,49Z" transform="translate(-1266.021 -37.623)" fill="#1a1a1a" fill-rule="evenodd"/>
        <path id="Trazado_167384" data-name="Trazado 167384" d="M1229.878,1437.459h-27.689a1.192,1.192,0,0,1-1.188-1.188v-8.022a7.24,7.24,0,0,1,7.249-7.249h4.041a1.192,1.192,0,0,1,1.188,1.188,2.525,2.525,0,0,0,5.051,0,1.192,1.192,0,0,1,1.188-1.188h4.1a7.217,7.217,0,0,1,7.19,6.774,1.308,1.308,0,0,1,.059.475v8.022A1.192,1.192,0,0,1,1229.878,1437.459Zm-13.845-2.377h12.656v-7.13a4.922,4.922,0,0,0-4.872-4.575h-3.03a4.9,4.9,0,0,1-4.754,3.684,4.854,4.854,0,0,1-4.754-3.684h-3.03a4.856,4.856,0,0,0-4.873,4.872v6.833Z" transform="translate(-1129.637 -1328.099)" fill="#1a1a1a" fill-rule="evenodd"/>
        <path id="Trazado_167385" data-name="Trazado 167385" d="M1371.951,1384.466c-.119,0-.3-.059-.416-.059a1.236,1.236,0,0,1-.713-1.545l.951-2.436a1.166,1.166,0,0,1,1.545-.713,1.184,1.184,0,0,1,.654,1.545l-.891,2.436A1.219,1.219,0,0,1,1371.951,1384.466Z" transform="translate(-1289.298 -1289.189)" fill="#1a1a1a" fill-rule="evenodd"/>
        <path id="Trazado_167386" data-name="Trazado 167386" d="M1482.721,1383.514a1.142,1.142,0,0,1-1.07-.772l-.951-2.555a1.14,1.14,0,0,1,.654-1.485,1.184,1.184,0,0,1,1.545.653l.951,2.555a1.186,1.186,0,0,1-.713,1.545C1483.018,1383.455,1482.9,1383.514,1482.721,1383.514Z" transform="translate(-1392.641 -1288.237)" fill="#1a1a1a" fill-rule="evenodd"/>
        <path id="Trazado_167387" data-name="Trazado 167387" d="M1413.555,1431.268a2.519,2.519,0,0,0,2.5-2.317l-.356-.951a5.623,5.623,0,0,1-2.2.475,6.229,6.229,0,0,1-2.139-.416l-.356.891A2.534,2.534,0,0,0,1413.555,1431.268Z" transform="translate(-1327.159 -1334.683)" fill="#fed8b2" fill-rule="evenodd"/>
        <path id="Trazado_167388" data-name="Trazado 167388" d="M1258.41,1461a4.9,4.9,0,0,1-4.754,3.684A4.854,4.854,0,0,1,1248.9,1461h-3.03a4.856,4.856,0,0,0-4.872,4.873v6.833h25.313v-7.13a4.922,4.922,0,0,0-4.872-4.575Z" transform="translate(-1167.26 -1365.723)" fill="#2d4355" fill-rule="evenodd"/>
        <path id="Trazado_167389" data-name="Trazado 167389" d="M1326.022,1170.654c-3.922,0-7.071-4.457-8.022-8.675v-.356c0-5.883,2.2-6.6,2.852-6.714a1.14,1.14,0,0,1,1.129.475,1.365,1.365,0,0,1,.238.832,13.9,13.9,0,0,1,7.011-2.317,1.144,1.144,0,0,1,1.188.832,1.012,1.012,0,0,1,0,.594,3.193,3.193,0,0,1,3.625,2.971,11.72,11.72,0,0,1-.238,4.041v.3c0,.119-.059.178-.059.3C1332.617,1166.614,1329.706,1170.654,1326.022,1170.654Zm-5.645-9.032c.772,3.209,3.209,6.655,5.645,6.655,2.317,0,4.516-3.031,5.407-5.942,0-.119.059-.238.059-.357a13.848,13.848,0,0,0,.238-3.328c-.119-.713-.416-.951-1.129-.951h-.416a3.5,3.5,0,0,0-2.08.891,1.2,1.2,0,0,1-1.069.357,1.123,1.123,0,0,1-.832-.713,1.594,1.594,0,0,1-.06-1.367,6.732,6.732,0,0,0-4.04,3.09,1.252,1.252,0,0,1-1.07.654,1,1,0,0,1-.594-.178A7.587,7.587,0,0,0,1320.377,1161.622Z" transform="translate(-1239.685 -1076.862)" fill="#1a1a1a" fill-rule="evenodd"/>
        <path id="Trazado_167390" data-name="Trazado 167390" d="M1358,1208.754c.772,3.209,3.209,6.655,5.645,6.655a3.433,3.433,0,0,0,2.02-.772c.06,0,.119-.059.178-.059a10.787,10.787,0,0,0,3.209-5.11l.059-.356a13.849,13.849,0,0,0,.238-3.328c-.119-.713-.416-.951-1.129-.951h-.416a3.5,3.5,0,0,0-2.08.891,1.2,1.2,0,0,1-1.07.357,1.124,1.124,0,0,1-.832-.713,1.594,1.594,0,0,1-.059-1.367,6.732,6.732,0,0,0-4.041,3.09,1.252,1.252,0,0,1-1.069.654,1,1,0,0,1-.594-.178A7.573,7.573,0,0,0,1358,1208.754Z" transform="translate(-1277.308 -1123.994)" fill="#fed8b2" fill-rule="evenodd"/>
        <path id="Trazado_167391" data-name="Trazado 167391" d="M1315.444,1088.617a1.415,1.415,0,0,1-.535-.119,1.252,1.252,0,0,1-.654-1.069,3.047,3.047,0,0,1,.059-.594,13.848,13.848,0,0,0,.238-3.327c-.119-.713-.416-.951-1.129-.951h-.416a3.5,3.5,0,0,0-2.08.891,1.2,1.2,0,0,1-1.07.356,1.256,1.256,0,0,1-.832-.713,1.594,1.594,0,0,1-.059-1.367,6.731,6.731,0,0,0-4.041,3.09,1.252,1.252,0,0,1-1.07.654,1,1,0,0,1-.594-.178,9.231,9.231,0,0,0-.059,1.307,1.14,1.14,0,0,1-.951,1.129,1.159,1.159,0,0,1-1.307-.594c-2.02-4.159-1.129-7.13,0-8.854a10.041,10.041,0,0,1,8.5-4.278,9.1,9.1,0,0,1,6.655,2.555,8.739,8.739,0,0,1,2.436,6.536,6.135,6.135,0,0,1-2.436,5.288A.894.894,0,0,1,1315.444,1088.617Zm-2.02-8.438a3.318,3.318,0,0,1,2.555.951,5.781,5.781,0,0,0-1.545-2.911,6.971,6.971,0,0,0-4.991-1.842,7.866,7.866,0,0,0-6.536,3.149c-.119.3-.3.535-.416.832a2.69,2.69,0,0,1,1.188-.594,1.14,1.14,0,0,1,1.129.475,1.365,1.365,0,0,1,.238.832,13.9,13.9,0,0,1,7.011-2.317,1.143,1.143,0,0,1,1.188.832,1.012,1.012,0,0,1,0,.594Z" transform="translate(-1222.511 -1001.718)" fill="#1a1a1a" fill-rule="evenodd"/>
        <path id="Trazado_167392" data-name="Trazado 167392" d="M1352.952,1114a7.865,7.865,0,0,0-6.536,3.149c-.119.3-.3.535-.416.832a2.69,2.69,0,0,1,1.188-.594,1.14,1.14,0,0,1,1.129.475,1.364,1.364,0,0,1,.238.832,13.905,13.905,0,0,1,7.012-2.318,1.144,1.144,0,0,1,1.188.832,1.012,1.012,0,0,1,0,.594h.179a3.318,3.318,0,0,1,2.555.951,5.782,5.782,0,0,0-1.545-2.912A6.972,6.972,0,0,0,1352.952,1114Z" transform="translate(-1266.021 -1039.341)" fill="#1a1a1a" fill-rule="evenodd"/>
        <path id="Trazado_167393" data-name="Trazado 167393" d="M28.878,1437.459H1.188A1.192,1.192,0,0,1,0,1436.271v-8.022A7.278,7.278,0,0,1,7.249,1421H11.29a1.192,1.192,0,0,1,1.188,1.188,2.556,2.556,0,0,0,5.11,0A1.192,1.192,0,0,1,18.777,1421h4.041a7.272,7.272,0,0,1,7.249,6.774v8.5A1.192,1.192,0,0,1,28.878,1437.459Zm-13.845-2.377H27.69v-7.13a4.922,4.922,0,0,0-4.872-4.575h-3.03a4.909,4.909,0,0,1-9.507,0H7.249a4.895,4.895,0,0,0-4.872,4.872v6.833Z" transform="translate(0 -1328.099)" fill="#1a1a1a" fill-rule="evenodd"/>
        <path id="Trazado_167394" data-name="Trazado 167394" d="M171.771,1384.466c-.119,0-.238-.059-.416-.059a1.206,1.206,0,0,1-.654-1.545l.891-2.436a1.186,1.186,0,0,1,1.545-.713,1.266,1.266,0,0,1,.713,1.545l-.951,2.436A1.162,1.162,0,0,1,171.771,1384.466Z" transform="translate(-160.481 -1289.189)" fill="#1a1a1a" fill-rule="evenodd"/>
        <path id="Trazado_167395" data-name="Trazado 167395" d="M281.793,1383.514a1.162,1.162,0,0,1-1.129-.772l-.951-2.555a1.176,1.176,0,0,1,2.2-.832l.951,2.555a1.206,1.206,0,0,1-.654,1.545C282.03,1383.455,281.912,1383.514,281.793,1383.514Z" transform="translate(-263.016 -1288.237)" fill="#1a1a1a" fill-rule="evenodd"/>
        <path id="Trazado_167396" data-name="Trazado 167396" d="M213.5,1431.268a2.478,2.478,0,0,0,2.5-2.317l-.357-.951a5.4,5.4,0,0,1-2.2.475,6.827,6.827,0,0,1-2.139-.416l-.3.891A2.478,2.478,0,0,0,213.5,1431.268Z" transform="translate(-198.462 -1334.683)" fill="#fed8b2" fill-rule="evenodd"/>
        <path id="Trazado_167397" data-name="Trazado 167397" d="M57.41,1461a4.909,4.909,0,0,1-9.507,0h-3.03A4.894,4.894,0,0,0,40,1465.873v6.833H65.313v-7.13A4.922,4.922,0,0,0,60.44,1461Z" transform="translate(-37.623 -1365.723)" fill="#2d4355" fill-rule="evenodd"/>
        <path id="Trazado_167398" data-name="Trazado 167398" d="M125.022,1170.654c-3.922,0-7.012-4.457-7.962-8.675a.753.753,0,0,1-.059-.356c.059-5.883,2.2-6.6,2.912-6.714a1.094,1.094,0,0,1,1.07.475,1.065,1.065,0,0,1,.238.832,14.049,14.049,0,0,1,7.071-2.317,1.079,1.079,0,0,1,1.129.832,2.021,2.021,0,0,1,.059.594,3.256,3.256,0,0,1,3.625,2.971,15.725,15.725,0,0,1-.238,4.041.8.8,0,0,0-.059.3.536.536,0,0,1-.059.3C131.617,1166.614,128.706,1170.654,125.022,1170.654Zm-5.645-9.032c.772,3.209,3.209,6.655,5.645,6.655,2.317,0,4.516-3.031,5.407-5.942a.754.754,0,0,0,.059-.357,11.352,11.352,0,0,0,.238-3.328c-.119-.713-.357-.951-1.129-.951h-.416a3.632,3.632,0,0,0-2.08.891,1.088,1.088,0,0,1-1.01.357,1.213,1.213,0,0,1-.891-.713,1.86,1.86,0,0,1-.059-1.367,6.732,6.732,0,0,0-4.041,3.09,1.122,1.122,0,0,1-1.07.654,1,1,0,0,1-.594-.178C119.436,1160.791,119.377,1161.207,119.377,1161.622Z" transform="translate(-110.048 -1076.862)" fill="#1a1a1a" fill-rule="evenodd"/>
        <path id="Trazado_167399" data-name="Trazado 167399" d="M157,1208.754c.772,3.209,3.209,6.655,5.645,6.655a3.6,3.6,0,0,0,2.08-.772.207.207,0,0,1,.119-.059,10.786,10.786,0,0,0,3.209-5.11l.059-.356a11.353,11.353,0,0,0,.238-3.328c-.119-.713-.357-.951-1.129-.951H166.8a3.634,3.634,0,0,0-2.08.891,1.089,1.089,0,0,1-1.01.357,1.213,1.213,0,0,1-.891-.713,1.86,1.86,0,0,1-.059-1.367,6.732,6.732,0,0,0-4.041,3.09,1.122,1.122,0,0,1-1.07.654,1,1,0,0,1-.594-.178C157.059,1207.922,157,1208.338,157,1208.754Z" transform="translate(-147.671 -1123.994)" fill="#fed8b2" fill-rule="evenodd"/>
        <path id="Trazado_167400" data-name="Trazado 167400" d="M114.836,1088.617a1.731,1.731,0,0,1-.535-.119,1.252,1.252,0,0,1-.654-1.069,3.048,3.048,0,0,1,.059-.594,11.352,11.352,0,0,0,.238-3.327c-.119-.713-.357-.951-1.129-.951H112.4a3.633,3.633,0,0,0-2.08.891,1.089,1.089,0,0,1-1.01.356,1.362,1.362,0,0,1-.891-.713,1.86,1.86,0,0,1-.059-1.367,6.732,6.732,0,0,0-4.041,3.09,1.122,1.122,0,0,1-1.07.654,1.147,1.147,0,0,1-.594-.178c0,.416-.059.832-.059,1.307a1.145,1.145,0,0,1-.891,1.129,1.24,1.24,0,0,1-1.367-.594c-1.961-4.159-1.129-7.13,0-8.854,1.6-2.614,4.991-4.278,8.556-4.278a9.291,9.291,0,0,1,6.655,2.555,8.7,8.7,0,0,1,2.377,6.536,6.247,6.247,0,0,1-2.377,5.288A1.142,1.142,0,0,1,114.836,1088.617Zm-2.02-8.438a3.318,3.318,0,0,1,2.555.951,5.782,5.782,0,0,0-1.545-2.911,6.925,6.925,0,0,0-4.932-1.842,7.708,7.708,0,0,0-6.536,3.149,5.433,5.433,0,0,0-.416.832,2.428,2.428,0,0,1,1.188-.594,1.094,1.094,0,0,1,1.07.475,1.065,1.065,0,0,1,.238.832,14.048,14.048,0,0,1,7.071-2.317,1.078,1.078,0,0,1,1.129.832,2.02,2.02,0,0,1,.059.594Z" transform="translate(-93.267 -1001.718)" fill="#1a1a1a" fill-rule="evenodd"/>
        <path id="Trazado_167401" data-name="Trazado 167401" d="M152.952,1114a7.708,7.708,0,0,0-6.536,3.149,5.431,5.431,0,0,0-.416.832,2.429,2.429,0,0,1,1.188-.594,1.094,1.094,0,0,1,1.07.475,1.065,1.065,0,0,1,.238.832,14.05,14.05,0,0,1,7.071-2.318,1.079,1.079,0,0,1,1.129.832,2.021,2.021,0,0,1,.059.594h.119a3.319,3.319,0,0,1,2.555.951,5.782,5.782,0,0,0-1.545-2.912A6.925,6.925,0,0,0,152.952,1114Z" transform="translate(-137.325 -1039.341)" fill="#1a1a1a" fill-rule="evenodd"/>
        <path id="Trazado_167402" data-name="Trazado 167402" d="M589.159,1153H585v.951h4.159Z" transform="translate(-550.239 -1076.024)" fill="#ff3131" fill-rule="evenodd"/>
        <path id="Trazado_167403" data-name="Trazado 167403" d="M1057,1153v.951h3.862V1153Z" transform="translate(-994.193 -1076.024)" fill="#ff3131" fill-rule="evenodd"/>
        <path id="Trazado_167404" data-name="Trazado 167404" d="M610.669,931.033v-5.526a1.188,1.188,0,0,1,2.377,0v2.2h3.862V922.3a.754.754,0,0,0-.059-.357,6.271,6.271,0,0,0-6.3-5.942h-3.922a5.859,5.859,0,0,1-5.7,4.575A5.744,5.744,0,0,1,595.28,916H591.3a6.3,6.3,0,0,0-6.3,6.3v5.407h4.159v-2.2a1.188,1.188,0,1,1,2.377,0v5.526Zm-4.041-7.784a16.028,16.028,0,0,1-10.28,6.18h-.178a1.114,1.114,0,0,1-1.129-1.07,1.145,1.145,0,0,1,1.01-1.307,13.645,13.645,0,0,0,8.675-5.229,1.216,1.216,0,0,1,1.664-.238A1.162,1.162,0,0,1,606.629,923.249Z" transform="translate(-550.239 -853.106)" fill="#ff3131" fill-rule="evenodd"/>
        <path id="Trazado_167405" data-name="Trazado 167405" d="M799.387,879.635a3.446,3.446,0,0,0,3.446-3.209l-.535-1.367a7.917,7.917,0,0,1-2.912.535,6.637,6.637,0,0,1-2.852-.594L796,876.426A3.433,3.433,0,0,0,799.387,879.635Z" transform="translate(-748.702 -814.543)" fill="#fed8b2" fill-rule="evenodd"/>
        <path id="Trazado_167406" data-name="Trazado 167406" d="M741.071,637.132a6.033,6.033,0,0,0,2.852-.772c.059-.059.119-.119.178-.119a10.04,10.04,0,0,0,4.041-5.764,9.283,9.283,0,0,1-.772-3.862c0-2.615-.119-2.615-1.188-2.615h-.119c-.357,0-.416,0-.594.119a3.751,3.751,0,0,0-.535.238,12.084,12.084,0,0,1-7.665,0c-.238-.119-.416-.178-.535-.238a.89.89,0,0,0-.594-.119h-.178c-.951,0-1.188,0-1.188,2.615a8.613,8.613,0,0,1-.772,3.743,10.044,10.044,0,0,0,4.159,5.883l.059.059A5.485,5.485,0,0,0,741.071,637.132Z" transform="translate(-690.386 -578.457)" fill="#fed8b2" fill-rule="evenodd"/>
        <path id="Trazado_167407" data-name="Trazado 167407" d="M735.338,541.209a8.7,8.7,0,0,0,5.883,0,1.508,1.508,0,0,1,.416-.119,2.485,2.485,0,0,1,1.485-.357h.238a4.141,4.141,0,0,1,2.08.475c-1.129-2.139-4.4-3.209-7.546-3.209-2.971,0-5.942,1.01-6.893,3.268a3.8,3.8,0,0,1,2.139-.535h.238a2.57,2.57,0,0,1,1.545.357A1.508,1.508,0,0,1,735.338,541.209Z" transform="translate(-687.564 -497.567)" fill="#1a1a1a" fill-rule="evenodd"/>
      </g>
    </g>
  </g>
</svg>
