<svg xmlns="http://www.w3.org/2000/svg" xmlns:xlink="http://www.w3.org/1999/xlink" width="309.903" height="290.259" viewBox="0 0 309.903 290.259">
  <defs>
    <clipPath id="clip-path">
      <rect id="Rectángulo_5596" data-name="Rectángulo 5596" width="283.254" height="146.807" rx="10.067" fill="none"/>
    </clipPath>
  </defs>
  <g id="Grupo_22690" data-name="Grupo 22690" transform="translate(0)">
    <g id="Grupo_22651" data-name="Grupo 22651" transform="translate(11.238)">
      <g id="Grupo_22649" data-name="Grupo 22649" transform="translate(0 7.004)" opacity="0.12" style="mix-blend-mode: multiply;isolation: isolate">
        <rect id="Rectángulo_5593" data-name="Rectángulo 5593" width="283.254" height="283.255" rx="10.067"/>
      </g>
      <g id="Grupo_22650" data-name="Grupo 22650">
        <rect id="Rectángulo_5594" data-name="Rectángulo 5594" width="283.254" height="283.255" rx="10.067" fill="#b6ffeb"/>
      </g>
    </g>
    <g id="Grupo_22689" data-name="Grupo 22689" transform="translate(0 16.744)">
      <g id="Grupo_22679" data-name="Grupo 22679" transform="translate(0 20.003)">
        <g id="Grupo_22661" data-name="Grupo 22661" transform="translate(11.238 99.701)">
          <g id="Grupo_22660" data-name="Grupo 22660" clip-path="url(#clip-path)">
            <g id="Grupo_22659" data-name="Grupo 22659" transform="translate(-60.978 21.92)">
              <g id="Grupo_22654" data-name="Grupo 22654" transform="translate(118.703 14.918)">
                <g id="Grupo_22652" data-name="Grupo 22652" transform="translate(62.496 70.113)">
                  <path id="Trazado_5620" data-name="Trazado 5620" d="M452.417,288.173s14.512,34.561,17.713,50.915-30.646,16.354-30.646,16.354L427.7,290.523Z" transform="translate(-425.63 -286.31)" fill="#fff"/>
                  <path id="Trazado_5621" data-name="Trazado 5621" d="M440.96,358.525H439.5l-12.4-68.236,27.9-2.648.5,1.184c.6,1.418,14.617,34.915,17.818,51.258a10.808,10.808,0,0,1-2.259,9.35C463.67,358.423,441.884,358.525,440.96,358.525Zm-9.729-65.109,11.189,61.572c4.868-.182,20.578-1.261,25.943-7.781a7.355,7.355,0,0,0,1.527-6.451c-2.805-14.3-14.558-43.183-17.118-49.389Z" transform="translate(-427.106 -287.641)" fill="#0f110e"/>
                </g>
                <g id="Grupo_22653" data-name="Grupo 22653">
                  <path id="Trazado_5622" data-name="Trazado 5622" d="M450.5,268.333s40.553,24.451,57.285,72.89l-52.8,22.136-45-10.026Z" transform="translate(-407.456 -265.836)" fill="#fff"/>
                  <path id="Trazado_5623" data-name="Trazado 5623" d="M456.953,366.971,409.26,356.35l42.3-88.73,1.653,1c.413.249,41.292,25.337,58.038,73.815l.536,1.555Zm-42.64-13.083,42.311,9.424,50.765-21.282c-14.708-40.861-46.779-64.272-54.361-69.357Z" transform="translate(-409.26 -267.62)" fill="#0f110e"/>
                </g>
              </g>
              <g id="Grupo_22655" data-name="Grupo 22655" transform="translate(42.349)">
                <path id="Trazado_5624" data-name="Trazado 5624" d="M560.285,438.841c-5.26-98.612-41.824-174.98-86.149-174.98s-80.889,76.368-86.152,174.98Z" transform="translate(-386.138 -262.106)" fill="#fff"/>
                <path id="Trazado_5625" data-name="Trazado 5625" d="M563.453,441.846h-176l.1-1.842c5.372-100.7,43.162-176.644,87.9-176.644S557.979,339.3,563.355,440Zm-172.3-3.5h168.6c-5.624-97.895-41.723-171.482-84.3-171.482S396.776,340.449,391.155,438.344Z" transform="translate(-387.457 -263.36)" fill="#0f110e"/>
              </g>
              <g id="Grupo_22658" data-name="Grupo 22658" transform="translate(0 3.05)">
                <path id="Trazado_5626" data-name="Trazado 5626" d="M375.364,354.2a141.043,141.043,0,0,1,26.79-35.979c17.724-17.111,34.333-31.847,55.177-42.311S487.82,264.72,487.82,264.72l3.435,6.773s-18.207,33.938-22.014,43.271-23.428,56.928-23.428,56.928-25.172,21.576-28.769,19.615S375.364,354.2,375.364,354.2Z" transform="translate(-375.364 -263.007)" fill="#fff"/>
                <g id="Grupo_22656" data-name="Grupo 22656" transform="translate(59.381 41.547)">
                  <rect id="Rectángulo_5595" data-name="Rectángulo 5595" width="90.954" height="3.5" transform="matrix(0.405, -0.915, 0.915, 0.405, 0, 83.181)" fill="#0f110e"/>
                </g>
                <g id="Grupo_22657" data-name="Grupo 22657" transform="translate(2.115)">
                  <path id="Trazado_5627" data-name="Trazado 5627" d="M378.917,350.513l-2.949-1.895C420.891,278.775,483.377,264.371,484,264.231l.753,3.422C484.141,267.789,423.014,281.944,378.917,350.513Z" transform="translate(-375.968 -264.231)" fill="#0f110e"/>
                </g>
              </g>
            </g>
          </g>
        </g>
        <g id="Grupo_22678" data-name="Grupo 22678">
          <path id="Trazado_5628" data-name="Trazado 5628" d="M528.3,297.1c-1.124-17.037-12.408-16.354-12.408-16.354s3.243-5.677-2.528-14.4c-6.482-9.792-17.853-10.762-23.127-10.632-4.038-10.166-8.891-17.338-13.826-17.52-15.626-.578-32.922,31.931-45.953,31.7s-57.58,41.712-22.084,52.568c38.7,11.837,90.047,1.31,90.047,1.31h0C511.145,321.713,529.344,312.933,528.3,297.1Z" transform="translate(-376.148 -204.714)" fill="#0f110e"/>
          <g id="Grupo_22677" data-name="Grupo 22677">
            <g id="Grupo_22663" data-name="Grupo 22663" transform="translate(56.605 115.608)">
              <g id="Grupo_22662" data-name="Grupo 22662">
                <path id="Trazado_5629" data-name="Trazado 5629" d="M406.106,274.492c0,6.888,10.159,12.474,22.689,12.474s22.686-5.586,22.686-12.474-10.156-12.474-22.686-12.474S406.106,267.6,406.106,274.492Z" transform="translate(-404.793 -260.705)" fill="#fff"/>
                <path id="Trazado_5630" data-name="Trazado 5630" d="M429.734,289.221c-13.458,0-24-6.058-24-13.791s10.545-13.787,24-13.787,24,6.055,24,13.787S443.192,289.221,429.734,289.221Zm0-24.952c-11.588,0-21.376,5.113-21.376,11.161s9.788,11.164,21.376,11.164,21.373-5.113,21.373-11.164S441.322,264.269,429.734,264.269Z" transform="translate(-405.731 -261.643)" fill="#0f110e"/>
              </g>
            </g>
            <g id="Grupo_22676" data-name="Grupo 22676">
              <g id="Grupo_22671" data-name="Grupo 22671">
                <g id="Grupo_22664" data-name="Grupo 22664" transform="translate(63.732 22.266)">
                  <path id="Trazado_5631" data-name="Trazado 5631" d="M449.764,235.364H431.018c-12.467,0-22.665,11.613-22.665,25.8V290.23c0,.819.042,1.628.109,2.427a11.542,11.542,0,0,0-.322,2.665V331.69a11.708,11.708,0,0,0,11.676,11.672h7.435a11.708,11.708,0,0,0,11.676-11.672V316.032h10.839c12.467,0,22.665-11.609,22.665-25.8V261.167C472.429,246.977,462.232,235.364,449.764,235.364Z" transform="translate(-406.83 -234.051)" fill="#fff"/>
                  <path id="Trazado_5632" data-name="Trazado 5632" d="M428.19,345.613h-7.438a13,13,0,0,1-12.985-12.985V296.256a12.622,12.622,0,0,1,.308-2.756c-.063-.767-.1-1.548-.1-2.332V262.1c0-14.953,10.755-27.116,23.978-27.116H450.7c13.224,0,23.978,12.162,23.978,27.116v29.063c0,14.953-10.755,27.116-23.978,27.116h-9.525v14.344A13,13,0,0,1,428.19,345.613Zm3.765-108c-11.77,0-21.352,10.986-21.352,24.489v29.063c0,.781.042,1.555.1,2.315l.018.214-.049.21a10.071,10.071,0,0,0-.284,2.35v36.372a10.371,10.371,0,0,0,10.359,10.359h7.438a10.371,10.371,0,0,0,10.359-10.359V315.657H450.7c11.774,0,21.352-10.982,21.352-24.489V262.1c0-13.5-9.578-24.489-21.352-24.489Z" transform="translate(-407.766 -234.989)" fill="#0f110e"/>
                </g>
                <path id="Trazado_5633" data-name="Trazado 5633" d="M419.126,307.517s-17.037-11.613-19.4-31.122c0,0-.714-29.781,24.241-40.788s49.546-6.594,59.411-2.882c18.5,6.969,26.345,17.944,19.2,33.1-5.312,11.276-31.826,5.358-41-1.674,0,0-1.625,11.907-24.475,15.241l-7.82,31.427-.48,10.289Z" transform="translate(-364.159 -228.631)" fill="#0f110e"/>
                <g id="Grupo_22670" data-name="Grupo 22670" transform="translate(77.746 54.653)">
                  <g id="Grupo_22669" data-name="Grupo 22669">
                    <g id="Grupo_22665" data-name="Grupo 22665" transform="translate(14.064)">
                      <path id="Trazado_5634" data-name="Trazado 5634" d="M415.784,248.46a4.227,4.227,0,1,0,4.227-4.223A4.227,4.227,0,0,0,415.784,248.46Z" transform="translate(-415.784 -244.237)" fill="#0f110e"/>
                      <path id="Trazado_5635" data-name="Trazado 5635" d="M423.685,247.844a3.607,3.607,0,1,0,3.607-3.607A3.606,3.606,0,0,0,423.685,247.844Z" transform="translate(-396.016 -244.237)" fill="#0f110e"/>
                    </g>
                    <g id="Grupo_22667" data-name="Grupo 22667" transform="translate(21.518 17.759)">
                      <path id="Trazado_5636" data-name="Trazado 5636" d="M433.154,251.5s-2.122,6.192-6.615,6.615-8.009-4.553-8.251-8.433Z" transform="translate(-416.972 -248.365)" fill="#fff"/>
                      <g id="Grupo_22666" data-name="Grupo 22666">
                        <path id="Trazado_5637" data-name="Trazado 5637" d="M432.826,252.1c-.052.154-.115.308-.179.459.158-.389-.073.168-.133.294-.112.242-.231.48-.357.718a10.375,10.375,0,0,1-2.185,2.935,4.442,4.442,0,0,1-3.656,1.233,6.262,6.262,0,0,1-3.754-2.357,8.672,8.672,0,0,1-2.021-4.752l-1.313,1.313q6.508.793,13.017,1.593c.616.073,1.233.151,1.849.224a1.318,1.318,0,0,0,1.313-1.313,1.347,1.347,0,0,0-1.313-1.313q-6.508-.793-13.017-1.593l-1.849-.224a1.314,1.314,0,0,0-1.313,1.313c.3,4.006,2.987,8.216,6.941,9.455,3.877,1.215,7.211-1.261,9.14-4.437a14.808,14.808,0,0,0,1.362-2.851C435.915,251.2,433.376,250.509,432.826,252.1Z" transform="translate(-417.912 -249.308)" fill="#0f110e"/>
                      </g>
                    </g>
                    <g id="Grupo_22668" data-name="Grupo 22668" transform="translate(0 9.241)">
                      <path id="Trazado_5638" data-name="Trazado 5638" d="M411.768,256.8a9.837,9.837,0,1,0,9.753-9.921A9.839,9.839,0,0,0,411.768,256.8Z" transform="translate(-411.768 -246.876)" fill="#e5809d"/>
                      <path id="Trazado_5639" data-name="Trazado 5639" d="M431.034,247.7a7.482,7.482,0,0,1,1.737.2l.088,10.2a21.073,21.073,0,0,1-.326,4.437,8.807,8.807,0,0,1-1.369.137,7.486,7.486,0,1,1-.13-14.971Z" transform="translate(-382.14 -244.827)" fill="#e5809d"/>
                    </g>
                    <path id="Trazado_5640" data-name="Trazado 5640" d="M421.436,244.242l-.865,14.391,6.872-4.187Z" transform="translate(-389.744 -244.224)" fill="#e5809d"/>
                  </g>
                </g>
                <path id="Trazado_5641" data-name="Trazado 5641" d="M390.249,271.071c-3.677,16.5,7.9,30.891,25.551,37.86,34.421,13.591,43.806-23.183,35.261-46.471s-34.764-25.89-39.618-7.634C411.443,254.825,394.662,251.271,390.249,271.071Z" transform="translate(-389.567 -193.112)" fill="#0f110e"/>
              </g>
              <g id="Grupo_22675" data-name="Grupo 22675" transform="translate(40.324 53.399)">
                <path id="Trazado_5642" data-name="Trazado 5642" d="M401.457,259.058a14.926,14.926,0,1,0,14.925-14.8A14.866,14.866,0,0,0,401.457,259.058Z" transform="translate(-400.144 -242.938)" fill="#fff"/>
                <g id="Grupo_22672" data-name="Grupo 22672" transform="translate(13.194 7.61)">
                  <path id="Trazado_5643" data-name="Trazado 5643" d="M417.412,256.519a11.628,11.628,0,0,0-.469-3.817,8.773,8.773,0,0,0-4.595-5.722,11.537,11.537,0,0,0-6.051-.847,1.484,1.484,0,0,0-1.446,1.446,1.463,1.463,0,0,0,1.446,1.446,13.467,13.467,0,0,1,2.682-.031l.273.031c-.4-.049-.031,0,.042.011.168.031.336.063.5.105a9.176,9.176,0,0,1,1.016.308,1.016,1.016,0,0,1,.172.067c-.357-.2-.1-.042-.014,0,.13.063.259.126.389.2a2.407,2.407,0,0,1,.774.5c-.133-.21-.2-.168-.07-.052l.151.126c.1.084.2.175.291.266.07.07.6.55.56.623.01-.021-.224-.312-.046-.056l.088.119c.07.1.136.2.2.308.14.224.266.452.385.69.056.116.1.238.161.35.091.161-.143-.368-.049-.123l.063.158c.091.242.175.483.245.728a11.089,11.089,0,0,1,.294,1.257c.014.091.028.186.046.277.053.34-.046-.4-.01-.067.018.175.039.35.053.529a8.8,8.8,0,0,1,.024,1.177,1.448,1.448,0,0,0,1.446,1.443,1.473,1.473,0,0,0,1.443-1.443Z" transform="translate(-404.85 -246.052)" fill="#0f110e"/>
                </g>
                <g id="Grupo_22673" data-name="Grupo 22673" transform="translate(25.75 4.581)">
                  <path id="Trazado_5644" data-name="Trazado 5644" d="M415.162,256.726h-2.627a13.321,13.321,0,0,0-4.1-9.651l1.824-1.888A15.921,15.921,0,0,1,415.162,256.726Z" transform="translate(-408.435 -245.187)" fill="#0f110e"/>
                </g>
                <g id="Grupo_22674" data-name="Grupo 22674">
                  <path id="Trazado_5645" data-name="Trazado 5645" d="M417.321,276.118a16.12,16.12,0,1,1,11.336-27.659l-1.824,1.888a13.552,13.552,0,1,0-9.511,23.145,13.773,13.773,0,0,0,6.423-1.59,21.58,21.58,0,0,0,3.082-2.129l1.839,1.877a23.706,23.706,0,0,1-3.691,2.57A16.415,16.415,0,0,1,417.321,276.118Z" transform="translate(-401.082 -243.879)" fill="#0f110e"/>
                </g>
              </g>
            </g>
          </g>
        </g>
      </g>
      <g id="Grupo_22688" data-name="Grupo 22688" transform="translate(159.388)">
        <g id="Grupo_22683" data-name="Grupo 22683">
          <g id="Grupo_22682" data-name="Grupo 22682">
            <g id="Grupo_22680" data-name="Grupo 22680">
              <path id="Trazado_5646" data-name="Trazado 5646" d="M523.719,223.419H452.138c-9.144,0-16.557,7.046-16.557,15.738v67.924l16.834-14.694h71.3c9.144,0,16.557-7.046,16.557-15.738V239.157C540.276,230.465,532.863,223.419,523.719,223.419Z" transform="translate(-433.83 -221.668)" fill="#fff"/>
              <path id="Trazado_5647" data-name="Trazado 5647" d="M435.081,312.185V240.411c0-9.644,8.216-17.492,18.312-17.492H524.97c10.1,0,18.312,7.848,18.312,17.492V277.9c0,9.644-8.216,17.489-18.312,17.489H454.324Zm18.312-85.764c-8.167,0-14.81,6.276-14.81,13.99v64.065l14.428-12.59H524.97c8.167,0,14.81-6.276,14.81-13.987V240.411c0-7.715-6.643-13.99-14.81-13.99Z" transform="translate(-435.081 -222.919)" fill="#0f110e"/>
            </g>
            <g id="Grupo_22681" data-name="Grupo 22681" transform="translate(23.32 30.642)">
              <path id="Trazado_5648" data-name="Trazado 5648" d="M456.14,238.512a7.209,7.209,0,1,1-7.2-6.843A7.03,7.03,0,0,1,456.14,238.512Z" transform="translate(-441.74 -231.669)" fill="#0f110e"/>
              <path id="Trazado_5649" data-name="Trazado 5649" d="M463.289,238.512a7.208,7.208,0,1,1-7.2-6.843A7.028,7.028,0,0,1,463.289,238.512Z" transform="translate(-423.846 -231.669)" fill="#0f110e"/>
              <path id="Trazado_5650" data-name="Trazado 5650" d="M470.443,238.512a7.209,7.209,0,1,1-7.2-6.843A7.03,7.03,0,0,1,470.443,238.512Z" transform="translate(-405.954 -231.669)" fill="#0f110e"/>
            </g>
          </g>
        </g>
        <g id="Grupo_22687" data-name="Grupo 22687" transform="translate(14.82 113.944)">
          <g id="Grupo_22686" data-name="Grupo 22686">
            <g id="Grupo_22684" data-name="Grupo 22684">
              <path id="Trazado_5651" data-name="Trazado 5651" d="M460.72,255.956H551.1c11.546,0,20.907,8.9,20.907,19.87v85.76l-21.257-18.55H460.72c-11.546,0-20.907-8.9-20.907-19.874V275.826C439.813,264.851,449.174,255.956,460.72,255.956Z" transform="translate(-438.062 -254.205)" fill="#fff"/>
              <path id="Trazado_5652" data-name="Trazado 5652" d="M575.008,366.686l-23.666-20.651H461.971c-12.491,0-22.658-9.7-22.658-21.621V277.081c0-11.924,10.166-21.625,22.658-21.625h90.376c12.5,0,22.661,9.7,22.661,21.625ZM461.971,258.958c-10.558,0-19.156,8.128-19.156,18.123v47.333c0,9.991,8.6,18.119,19.156,18.119h90.684l18.851,16.452v-81.9c0-9.995-8.6-18.123-19.159-18.123Z" transform="translate(-439.313 -255.456)" fill="#0f110e"/>
            </g>
            <g id="Grupo_22685" data-name="Grupo 22685" transform="translate(25.284 38.228)">
              <path id="Trazado_5653" data-name="Trazado 5653" d="M464.592,275.011a9.1,9.1,0,1,0,9.091-8.639A8.875,8.875,0,0,0,464.592,275.011Z" transform="translate(-401.35 -266.372)" fill="#0f110e"/>
              <path id="Trazado_5654" data-name="Trazado 5654" d="M455.562,275.011a9.1,9.1,0,1,0,9.091-8.639A8.877,8.877,0,0,0,455.562,275.011Z" transform="translate(-423.943 -266.372)" fill="#0f110e"/>
              <path id="Trazado_5655" data-name="Trazado 5655" d="M446.533,275.011a9.1,9.1,0,1,0,9.091-8.639A8.875,8.875,0,0,0,446.533,275.011Z" transform="translate(-446.533 -266.372)" fill="#0f110e"/>
            </g>
          </g>
        </g>
      </g>
    </g>
  </g>
</svg>
