<svg xmlns="http://www.w3.org/2000/svg" width="260.979" height="248.403" viewBox="0 0 260.979 248.403">
  <g id="Grupo_112484" data-name="Grupo 112484" transform="translate(-192.502 -2427.092)">
    <g id="Grupo_112019" data-name="Grupo 112019" transform="translate(196.924 2436.414)">
      <g id="Grupo_112004" data-name="Grupo 112004" transform="translate(0 0)">
        <rect id="Rectángulo_45146" data-name="Rectángulo 45146" width="124.398" height="76.993" fill="#fafafa"/>
      </g>
      <g id="Grupo_112006" data-name="Grupo 112006" transform="translate(13.221 22.662)">
        <g id="Grupo_112005" data-name="Grupo 112005">
          <path id="Trazado_167620" data-name="Trazado 167620" d="M304.472,2515.982c-8.626-3.271-18.548,5.774-27,2.086-4.92-2.147-7.152-7.712-9.563-12.508s-6.565-9.856-11.9-9.3c-5.386.561-9.74,6.8-14.942,5.294-3.279-.947-4.916-4.584-5.738-7.9s-1.392-6.973-3.892-9.3-7.709-1.7-8.1,1.689v40.816h97.28S307.458,2517.114,304.472,2515.982Z" transform="translate(-223.329 -2482.976)" fill="#ebebeb"/>
        </g>
      </g>
      <g id="Grupo_112009" data-name="Grupo 112009" transform="translate(7.776 66.394)">
        <g id="Grupo_112008" data-name="Grupo 112008">
          <g id="Grupo_112007" data-name="Grupo 112007">
            <path id="Trazado_167621" data-name="Trazado 167621" d="M319.138,2559.544c0,.087-23.579.158-52.659.158s-52.665-.071-52.665-.158,23.574-.158,52.665-.158S319.138,2559.457,319.138,2559.544Z" transform="translate(-213.815 -2559.386)" fill="#e0e0e0"/>
          </g>
        </g>
      </g>
      <g id="Grupo_112012" data-name="Grupo 112012" transform="translate(7.776 48.567)">
        <g id="Grupo_112011" data-name="Grupo 112011">
          <g id="Grupo_112010" data-name="Grupo 112010">
            <path id="Trazado_167622" data-name="Trazado 167622" d="M319.138,2528.4c0,.087-23.579.158-52.659.158s-52.665-.071-52.665-.158,23.574-.159,52.665-.159S319.138,2528.308,319.138,2528.4Z" transform="translate(-213.815 -2528.237)" fill="#e0e0e0"/>
          </g>
        </g>
      </g>
      <g id="Grupo_112015" data-name="Grupo 112015" transform="translate(7.776 30.739)">
        <g id="Grupo_112014" data-name="Grupo 112014">
          <g id="Grupo_112013" data-name="Grupo 112013">
            <path id="Trazado_167623" data-name="Trazado 167623" d="M319.138,2497.247c0,.087-23.579.158-52.659.158s-52.665-.071-52.665-.158,23.574-.159,52.665-.159S319.138,2497.159,319.138,2497.247Z" transform="translate(-213.815 -2497.088)" fill="#e0e0e0"/>
          </g>
        </g>
      </g>
      <g id="Grupo_112018" data-name="Grupo 112018" transform="translate(7.776 13.796)">
        <g id="Grupo_112017" data-name="Grupo 112017">
          <g id="Grupo_112016" data-name="Grupo 112016">
            <path id="Trazado_167624" data-name="Trazado 167624" d="M319.138,2467.643c0,.087-23.579.158-52.659.158s-52.665-.071-52.665-.158,23.574-.158,52.665-.158S319.138,2467.556,319.138,2467.643Z" transform="translate(-213.815 -2467.485)" fill="#e0e0e0"/>
          </g>
        </g>
      </g>
    </g>
    <g id="Grupo_112024" data-name="Grupo 112024" transform="translate(376.989 2427.092)">
      <g id="Grupo_112021" data-name="Grupo 112021" transform="translate(4.808 5.304)">
        <g id="Grupo_112020" data-name="Grupo 112020">
          <path id="Trazado_167625" data-name="Trazado 167625" d="M542.941,2456.062v-19.7a19.7,19.7,0,1,1-19.7,20.158Z" transform="translate(-523.243 -2436.359)" fill="#ebebeb"/>
        </g>
      </g>
      <g id="Grupo_112023" data-name="Grupo 112023">
        <g id="Grupo_112022" data-name="Grupo 112022">
          <path id="Trazado_167626" data-name="Trazado 167626" d="M534.545,2446.788l-19.7.445a20.781,20.781,0,0,1,5.582-14.186,20.258,20.258,0,0,1,13.815-5.955Z" transform="translate(-514.842 -2427.092)" fill="#f5f5f5"/>
        </g>
      </g>
    </g>
    <g id="Grupo_112029" data-name="Grupo 112029" transform="translate(224.786 2605.122)">
      <g id="Grupo_112026" data-name="Grupo 112026" transform="translate(0 4.798)">
        <g id="Grupo_112025" data-name="Grupo 112025">
          <path id="Trazado_167627" data-name="Trazado 167627" d="M266.738,2764.363v-17.828a17.828,17.828,0,1,0,17.823,18.241Z" transform="translate(-248.91 -2746.535)" fill="#ebebeb"/>
        </g>
      </g>
      <g id="Grupo_112028" data-name="Grupo 112028" transform="translate(22.173)">
        <g id="Grupo_112027" data-name="Grupo 112027">
          <path id="Trazado_167628" data-name="Trazado 167628" d="M287.652,2755.972l17.828.4a18.806,18.806,0,0,0-5.051-12.836,18.33,18.33,0,0,0-12.5-5.388Z" transform="translate(-287.652 -2738.151)" fill="#f5f5f5"/>
        </g>
      </g>
    </g>
    <g id="Grupo_112033" data-name="Grupo 112033" transform="translate(350.971 2496.126)">
      <g id="Grupo_112030" data-name="Grupo 112030" transform="translate(0 0)">
        <rect id="Rectángulo_45147" data-name="Rectángulo 45147" width="8.333" height="26.027" fill="#f5f5f5"/>
      </g>
      <g id="Grupo_112031" data-name="Grupo 112031" transform="translate(12.442 5.945)">
        <rect id="Rectángulo_45148" data-name="Rectángulo 45148" width="8.333" height="20.082" fill="#f5f5f5"/>
      </g>
      <g id="Grupo_112032" data-name="Grupo 112032" transform="translate(23.961 14.101)">
        <rect id="Rectángulo_45149" data-name="Rectángulo 45149" width="8.333" height="11.926" fill="#f5f5f5"/>
      </g>
    </g>
    <path id="Trazado_167629" data-name="Trazado 167629" d="M317.443,2471.186l.214-1.156c1.806-9.751,8.485-17.574,17.533-20.056a23.209,23.209,0,0,1,3.556-.684c8.676-.966,17.923,3.07,23.706,10.348,3.4,4.28,5.832,9.726,10.414,12.468,5.963,3.568,13.168,1.238,19.381-1.158s13.429-4.708,19.379-1.113c3.726,2.252,6.127,6.463,7.391,10.776,3.346,11.419-.508,24.012-8.115,32.252s-18.454,12.517-29.444,13.883c-15.4,1.912-31.959-1.787-44.686-11.976S315.789,2487.54,317.443,2471.186Z" transform="translate(-53.343 -9.433)" fill="#f5f5f5"/>
    <path id="Trazado_167630" data-name="Trazado 167630" d="M313.118,2585.632c-3.642-2.754-8.658-3.228-13.069-2.049-2.768.536-7.821,6-6.977,10.7s5.339,8.034,10,9.026c5.177,1.1,11.414-.7,13.615-5.509C318.586,2593.642,316.76,2588.385,313.118,2585.632Z" transform="translate(-42.97 -66.667)" fill="#f5f5f5"/>
    <path id="Trazado_167631" data-name="Trazado 167631" d="M470.815,2429.974c-3.642-2.753-8.658-3.229-13.069-2.049-2.768.537-7.82,6-6.977,10.7s5.339,8.034,10,9.026c5.177,1.1,11.414-.7,13.616-5.51C476.284,2437.984,474.457,2432.727,470.815,2429.974Z" transform="translate(-110.411 -0.097)" fill="#f5f5f5"/>
    <g id="Grupo_112134" data-name="Grupo 112134" transform="translate(201.69 2513.383)">
      <g id="Grupo_112036" data-name="Grupo 112036" transform="translate(0.164 128.739)">
        <g id="Grupo_112035" data-name="Grupo 112035">
          <g id="Grupo_112034" data-name="Grupo 112034">
            <rect id="Rectángulo_45150" data-name="Rectángulo 45150" width="16.945" height="33.065" fill="#ff4d2e"/>
          </g>
        </g>
      </g>
      <g id="Grupo_112038" data-name="Grupo 112038" transform="translate(36.954 142.264)">
        <g id="Grupo_112037" data-name="Grupo 112037">
          <rect id="Rectángulo_45151" data-name="Rectángulo 45151" width="16.945" height="19.54" fill="#ff4d2e"/>
        </g>
      </g>
      <g id="Grupo_112040" data-name="Grupo 112040" transform="translate(36.954 142.264)" opacity="0.79">
        <g id="Grupo_112039" data-name="Grupo 112039">
          <rect id="Rectángulo_45152" data-name="Rectángulo 45152" width="16.945" height="19.54" fill="#fff"/>
        </g>
      </g>
      <g id="Grupo_112042" data-name="Grupo 112042" transform="translate(71.141 117.59)">
        <g id="Grupo_112041" data-name="Grupo 112041">
          <path id="Trazado_167632" data-name="Trazado 167632" d="M349.8,2827.536l-16.945.11v-44.328H349.8Z" transform="translate(-332.856 -2783.319)" fill="#ff4d2e"/>
        </g>
      </g>
      <g id="Grupo_112044" data-name="Grupo 112044" transform="translate(106.932 138.46)">
        <g id="Grupo_112043" data-name="Grupo 112043">
          <rect id="Rectángulo_45153" data-name="Rectángulo 45153" width="16.945" height="23.343" fill="#ff4d2e"/>
        </g>
      </g>
      <g id="Grupo_112046" data-name="Grupo 112046" transform="translate(106.932 138.46)" opacity="0.79">
        <g id="Grupo_112045" data-name="Grupo 112045">
          <rect id="Rectángulo_45154" data-name="Rectángulo 45154" width="16.945" height="23.343" fill="#fff"/>
        </g>
      </g>
      <g id="Grupo_112048" data-name="Grupo 112048" transform="translate(142.118 117.59)">
        <g id="Grupo_112047" data-name="Grupo 112047">
          <rect id="Rectángulo_45155" data-name="Rectángulo 45155" width="16.945" height="44.213" fill="#ff4d2e"/>
        </g>
      </g>
      <g id="Grupo_112050" data-name="Grupo 112050" transform="translate(176.97 61.05)">
        <g id="Grupo_112049" data-name="Grupo 112049">
          <rect id="Rectángulo_45156" data-name="Rectángulo 45156" width="16.945" height="100.753" fill="#ff4d2e"/>
        </g>
      </g>
      <g id="Grupo_112052" data-name="Grupo 112052" transform="translate(176.97 61.05)" opacity="0.79">
        <g id="Grupo_112051" data-name="Grupo 112051">
          <rect id="Rectángulo_45157" data-name="Rectángulo 45157" width="16.945" height="100.753" fill="#fff"/>
        </g>
      </g>
      <g id="Grupo_112055" data-name="Grupo 112055" transform="translate(0.228 144.475)">
        <g id="Grupo_112054" data-name="Grupo 112054">
          <g id="Grupo_112053" data-name="Grupo 112053">
            <path id="Trazado_167633" data-name="Trazado 167633" d="M225.835,2830.3c.132.136-3.539,4.128-8.2,8.915s-8.546,8.56-8.678,8.424,3.538-4.127,8.2-8.916S225.7,2830.161,225.835,2830.3Z" transform="translate(-208.955 -2830.294)" fill="#fff"/>
          </g>
        </g>
      </g>
      <g id="Grupo_112058" data-name="Grupo 112058" transform="translate(36.908 144.766)">
        <g id="Grupo_112057" data-name="Grupo 112057">
          <g id="Grupo_112056" data-name="Grupo 112056">
            <path id="Trazado_167634" data-name="Trazado 167634" d="M289.922,2830.806c.132.136-3.539,4.127-8.2,8.915s-8.546,8.559-8.678,8.424,3.538-4.127,8.2-8.916S289.79,2830.67,289.922,2830.806Z" transform="translate(-273.042 -2830.802)" fill="#ff4d2e"/>
          </g>
        </g>
      </g>
      <g id="Grupo_112061" data-name="Grupo 112061" transform="translate(106.962 144.461)">
        <g id="Grupo_112060" data-name="Grupo 112060">
          <g id="Grupo_112059" data-name="Grupo 112059">
            <path id="Trazado_167635" data-name="Trazado 167635" d="M412.323,2830.272c.132.136-3.539,4.128-8.2,8.915s-8.546,8.56-8.678,8.424,3.538-4.127,8.2-8.916S412.191,2830.137,412.323,2830.272Z" transform="translate(-395.443 -2830.269)" fill="#ff4d2e"/>
          </g>
        </g>
      </g>
      <g id="Grupo_112064" data-name="Grupo 112064" transform="translate(0 129.074)">
        <g id="Grupo_112063" data-name="Grupo 112063">
          <g id="Grupo_112062" data-name="Grupo 112062">
            <path id="Trazado_167636" data-name="Trazado 167636" d="M225.436,2803.387c.133.135-3.539,4.128-8.2,8.915s-8.546,8.56-8.678,8.424,3.538-4.126,8.2-8.916S225.3,2803.251,225.436,2803.387Z" transform="translate(-208.556 -2803.384)" fill="#fff"/>
          </g>
        </g>
      </g>
      <g id="Grupo_112067" data-name="Grupo 112067" transform="translate(71.465 144.727)">
        <g id="Grupo_112066" data-name="Grupo 112066">
          <g id="Grupo_112065" data-name="Grupo 112065">
            <path id="Trazado_167637" data-name="Trazado 167637" d="M350.3,2830.736c.132.136-3.539,4.127-8.2,8.915s-8.546,8.56-8.678,8.424,3.538-4.127,8.2-8.915S350.17,2830.6,350.3,2830.736Z" transform="translate(-333.422 -2830.732)" fill="#fff"/>
          </g>
        </g>
      </g>
      <g id="Grupo_112070" data-name="Grupo 112070" transform="translate(71.237 129.325)">
        <g id="Grupo_112069" data-name="Grupo 112069">
          <g id="Grupo_112068" data-name="Grupo 112068">
            <path id="Trazado_167638" data-name="Trazado 167638" d="M349.9,2803.827c.133.136-3.539,4.128-8.2,8.915s-8.546,8.56-8.678,8.424,3.538-4.126,8.2-8.915S349.771,2803.691,349.9,2803.827Z" transform="translate(-333.023 -2803.823)" fill="#fff"/>
          </g>
        </g>
      </g>
      <g id="Grupo_112073" data-name="Grupo 112073" transform="translate(71.235 117.585)">
        <g id="Grupo_112072" data-name="Grupo 112072">
          <g id="Grupo_112071" data-name="Grupo 112071">
            <path id="Trazado_167639" data-name="Trazado 167639" d="M344.621,2783.315c.132.135-2.356,2.913-5.559,6.2s-5.905,5.847-6.038,5.711,2.356-2.913,5.559-6.2S344.489,2783.179,344.621,2783.315Z" transform="translate(-333.02 -2783.31)" fill="#fff"/>
          </g>
        </g>
      </g>
      <g id="Grupo_112076" data-name="Grupo 112076" transform="translate(176.946 144.461)">
        <g id="Grupo_112075" data-name="Grupo 112075">
          <g id="Grupo_112074" data-name="Grupo 112074">
            <path id="Trazado_167640" data-name="Trazado 167640" d="M534.6,2830.272c.132.136-3.539,4.128-8.2,8.915s-8.546,8.56-8.678,8.424,3.538-4.127,8.2-8.916S534.468,2830.137,534.6,2830.272Z" transform="translate(-517.72 -2830.269)" fill="#ff4d2e"/>
          </g>
        </g>
      </g>
      <g id="Grupo_112079" data-name="Grupo 112079" transform="translate(176.717 129.06)">
        <g id="Grupo_112078" data-name="Grupo 112078">
          <g id="Grupo_112077" data-name="Grupo 112077">
            <path id="Trazado_167641" data-name="Trazado 167641" d="M534.2,2803.362c.132.136-3.539,4.128-8.2,8.915s-8.546,8.56-8.678,8.424,3.538-4.127,8.2-8.916S534.068,2803.227,534.2,2803.362Z" transform="translate(-517.32 -2803.359)" fill="#ff4d2e"/>
          </g>
        </g>
      </g>
      <g id="Grupo_112082" data-name="Grupo 112082" transform="translate(176.717 111.896)">
        <g id="Grupo_112081" data-name="Grupo 112081">
          <g id="Grupo_112080" data-name="Grupo 112080">
            <path id="Trazado_167642" data-name="Trazado 167642" d="M534.2,2773.373c.132.136-3.539,4.128-8.2,8.915s-8.546,8.56-8.678,8.423,3.538-4.126,8.2-8.915S534.068,2773.238,534.2,2773.373Z" transform="translate(-517.32 -2773.37)" fill="#ff4d2e"/>
          </g>
        </g>
      </g>
      <g id="Grupo_112085" data-name="Grupo 112085" transform="translate(142.595 144.461)">
        <g id="Grupo_112084" data-name="Grupo 112084">
          <g id="Grupo_112083" data-name="Grupo 112083">
            <path id="Trazado_167643" data-name="Trazado 167643" d="M474.582,2830.272c.132.136-3.539,4.128-8.2,8.915s-8.546,8.56-8.678,8.424,3.538-4.127,8.2-8.916S474.45,2830.137,474.582,2830.272Z" transform="translate(-457.702 -2830.269)" fill="#fff"/>
          </g>
        </g>
      </g>
      <g id="Grupo_112088" data-name="Grupo 112088" transform="translate(142.367 129.06)">
        <g id="Grupo_112087" data-name="Grupo 112087">
          <g id="Grupo_112086" data-name="Grupo 112086">
            <path id="Trazado_167644" data-name="Trazado 167644" d="M474.183,2803.362c.132.136-3.539,4.128-8.2,8.915s-8.546,8.56-8.678,8.424,3.538-4.127,8.2-8.916S474.051,2803.227,474.183,2803.362Z" transform="translate(-457.303 -2803.359)" fill="#fff"/>
          </g>
        </g>
      </g>
      <g id="Grupo_112091" data-name="Grupo 112091" transform="translate(142.365 117.436)">
        <g id="Grupo_112090" data-name="Grupo 112090">
          <g id="Grupo_112089" data-name="Grupo 112089">
            <path id="Trazado_167645" data-name="Trazado 167645" d="M468.788,2783.055c.132.135-2.331,2.887-5.5,6.144s-5.849,5.788-5.981,5.652,2.331-2.886,5.5-6.144S468.656,2782.919,468.788,2783.055Z" transform="translate(-457.3 -2783.05)" fill="#fff"/>
          </g>
        </g>
      </g>
      <g id="Grupo_112094" data-name="Grupo 112094" transform="translate(176.946 95.297)">
        <g id="Grupo_112093" data-name="Grupo 112093">
          <g id="Grupo_112092" data-name="Grupo 112092">
            <path id="Trazado_167646" data-name="Trazado 167646" d="M534.6,2744.37c.132.136-3.539,4.128-8.2,8.915s-8.546,8.56-8.678,8.424,3.538-4.127,8.2-8.916S534.468,2744.235,534.6,2744.37Z" transform="translate(-517.72 -2744.367)" fill="#ff4d2e"/>
          </g>
        </g>
      </g>
      <g id="Grupo_112097" data-name="Grupo 112097" transform="translate(176.946 64.431)">
        <g id="Grupo_112096" data-name="Grupo 112096">
          <g id="Grupo_112095" data-name="Grupo 112095">
            <path id="Trazado_167647" data-name="Trazado 167647" d="M534.6,2690.441c.132.135-3.539,4.128-8.2,8.915s-8.546,8.56-8.678,8.424,3.538-4.126,8.2-8.916S534.468,2690.305,534.6,2690.441Z" transform="translate(-517.72 -2690.438)" fill="#ff4d2e"/>
          </g>
        </g>
      </g>
      <g id="Grupo_112100" data-name="Grupo 112100" transform="translate(176.717 79.895)">
        <g id="Grupo_112099" data-name="Grupo 112099">
          <g id="Grupo_112098" data-name="Grupo 112098">
            <path id="Trazado_167648" data-name="Trazado 167648" d="M534.2,2717.46c.132.136-3.539,4.128-8.2,8.916s-8.546,8.559-8.678,8.424,3.538-4.127,8.2-8.916S534.068,2717.324,534.2,2717.46Z" transform="translate(-517.32 -2717.457)" fill="#ff4d2e"/>
          </g>
        </g>
      </g>
      <g id="Grupo_112133" data-name="Grupo 112133" transform="translate(213.688 0)">
        <g id="Grupo_112102" data-name="Grupo 112102" transform="translate(0.08 0.296)">
          <g id="Grupo_112101" data-name="Grupo 112101">
            <rect id="Rectángulo_45158" data-name="Rectángulo 45158" width="16.012" height="161.508" fill="#ff4d2e"/>
          </g>
        </g>
        <g id="Grupo_112105" data-name="Grupo 112105" transform="translate(0.217 145.415)" opacity="0.6">
          <g id="Grupo_112104" data-name="Grupo 112104">
            <g id="Grupo_112103" data-name="Grupo 112103">
              <path id="Trazado_167649" data-name="Trazado 167649" d="M598.249,2831.939c.125.129-3.344,3.9-7.748,8.425s-8.076,8.088-8.2,7.96,3.343-3.9,7.748-8.426S598.123,2831.811,598.249,2831.939Z" transform="translate(-582.297 -2831.936)" fill="#fff"/>
            </g>
          </g>
        </g>
        <g id="Grupo_112108" data-name="Grupo 112108" transform="translate(0.001 130.862)" opacity="0.6">
          <g id="Grupo_112107" data-name="Grupo 112107">
            <g id="Grupo_112106" data-name="Grupo 112106">
              <path id="Trazado_167650" data-name="Trazado 167650" d="M597.871,2806.51c.125.129-3.344,3.9-7.747,8.425s-8.076,8.088-8.2,7.96,3.344-3.9,7.748-8.426S597.746,2806.382,597.871,2806.51Z" transform="translate(-581.919 -2806.507)" fill="#fff"/>
            </g>
          </g>
        </g>
        <g id="Grupo_112111" data-name="Grupo 112111" transform="translate(0.001 114.643)" opacity="0.6">
          <g id="Grupo_112110" data-name="Grupo 112110">
            <g id="Grupo_112109" data-name="Grupo 112109">
              <path id="Trazado_167651" data-name="Trazado 167651" d="M597.871,2778.173c.125.128-3.344,3.9-7.747,8.424s-8.076,8.089-8.2,7.96,3.344-3.9,7.748-8.426S597.746,2778.044,597.871,2778.173Z" transform="translate(-581.919 -2778.169)" fill="#fff"/>
            </g>
          </g>
        </g>
        <g id="Grupo_112114" data-name="Grupo 112114" transform="translate(0.217 98.957)" opacity="0.6">
          <g id="Grupo_112113" data-name="Grupo 112113">
            <g id="Grupo_112112" data-name="Grupo 112112">
              <path id="Trazado_167652" data-name="Trazado 167652" d="M598.249,2750.765c.125.128-3.344,3.9-7.748,8.424s-8.076,8.088-8.2,7.96,3.343-3.9,7.748-8.425S598.123,2750.637,598.249,2750.765Z" transform="translate(-582.297 -2750.762)" fill="#fff"/>
            </g>
          </g>
        </g>
        <g id="Grupo_112117" data-name="Grupo 112117" transform="translate(0.001 84.402)" opacity="0.6">
          <g id="Grupo_112116" data-name="Grupo 112116">
            <g id="Grupo_112115" data-name="Grupo 112115">
              <path id="Trazado_167653" data-name="Trazado 167653" d="M597.871,2725.335c.125.128-3.344,3.9-7.747,8.425s-8.076,8.088-8.2,7.96,3.344-3.9,7.748-8.425S597.746,2725.207,597.871,2725.335Z" transform="translate(-581.919 -2725.332)" fill="#fff"/>
            </g>
          </g>
        </g>
        <g id="Grupo_112120" data-name="Grupo 112120" transform="translate(0.001 68.183)" opacity="0.6">
          <g id="Grupo_112119" data-name="Grupo 112119">
            <g id="Grupo_112118" data-name="Grupo 112118">
              <path id="Trazado_167654" data-name="Trazado 167654" d="M597.871,2697c.125.128-3.344,3.9-7.747,8.424s-8.076,8.088-8.2,7.96,3.344-3.9,7.748-8.424S597.746,2696.869,597.871,2697Z" transform="translate(-581.919 -2696.994)" fill="#fff"/>
            </g>
          </g>
        </g>
        <g id="Grupo_112123" data-name="Grupo 112123" transform="translate(0.001 49.144)" opacity="0.6">
          <g id="Grupo_112122" data-name="Grupo 112122">
            <g id="Grupo_112121" data-name="Grupo 112121">
              <path id="Trazado_167655" data-name="Trazado 167655" d="M597.871,2663.731c.125.128-3.344,3.9-7.747,8.424s-8.076,8.088-8.2,7.96,3.344-3.9,7.748-8.426S597.746,2663.6,597.871,2663.731Z" transform="translate(-581.919 -2663.728)" fill="#fff"/>
            </g>
          </g>
        </g>
        <g id="Grupo_112126" data-name="Grupo 112126" transform="translate(0.217 29.212)" opacity="0.6">
          <g id="Grupo_112125" data-name="Grupo 112125">
            <g id="Grupo_112124" data-name="Grupo 112124">
              <path id="Trazado_167656" data-name="Trazado 167656" d="M598.249,2628.906c.125.129-3.344,3.9-7.748,8.425s-8.076,8.088-8.2,7.96,3.343-3.9,7.748-8.425S598.123,2628.777,598.249,2628.906Z" transform="translate(-582.297 -2628.902)" fill="#fff"/>
            </g>
          </g>
        </g>
        <g id="Grupo_112129" data-name="Grupo 112129" transform="translate(0.002 9.635)" opacity="0.6">
          <g id="Grupo_112128" data-name="Grupo 112128">
            <g id="Grupo_112127" data-name="Grupo 112127">
              <path id="Trazado_167657" data-name="Trazado 167657" d="M597.873,2594.7c.125.128-3.344,3.9-7.747,8.425s-8.076,8.088-8.2,7.96,3.344-3.9,7.748-8.426S597.748,2594.572,597.873,2594.7Z" transform="translate(-581.921 -2594.697)" fill="#fff"/>
            </g>
          </g>
        </g>
        <g id="Grupo_112132" data-name="Grupo 112132" opacity="0.6">
          <g id="Grupo_112131" data-name="Grupo 112131">
            <g id="Grupo_112130" data-name="Grupo 112130">
              <path id="Trazado_167658" data-name="Trazado 167658" d="M591.46,2577.868c.125.129-1.909,2.427-4.541,5.132s-4.87,4.8-5,4.666,1.908-2.425,4.543-5.132S591.335,2577.74,591.46,2577.868Z" transform="translate(-581.918 -2577.862)" fill="#fff"/>
            </g>
          </g>
        </g>
      </g>
    </g>
    <g id="Grupo_112143" data-name="Grupo 112143" transform="translate(201.69 2497.849)">
      <g id="Grupo_112136" data-name="Grupo 112136" transform="translate(0 6.047)">
        <g id="Grupo_112135" data-name="Grupo 112135">
          <path id="Trazado_167659" data-name="Trazado 167659" d="M453.622,2569.678s-.244-.163-.711-.492l-.87-.615-1.238-.8a42.973,42.973,0,0,0-8.764-4.239,38.665,38.665,0,0,0-6.825-1.709,31.734,31.734,0,0,0-8.346-.189,34.012,34.012,0,0,0-18.251,8.431,54.921,54.921,0,0,0-8.052,8.7c-2.433,3.341-4.857,6.9-7.365,10.587-5,7.383-10.133,15.407-15.467,23.9s-10.863,17.444-16.783,26.612c-2.969,4.577-6.02,9.217-9.207,13.866-1.6,2.317-3.108,4.717-4.659,7.117s-3.117,4.812-4.739,7.209a144.522,144.522,0,0,1-10.295,13.715,49.922,49.922,0,0,1-5.963,5.923,20.244,20.244,0,0,1-3.448,2.338,9.023,9.023,0,0,1-3.97,1.172,10.751,10.751,0,0,1-3.946-1.143,40.429,40.429,0,0,1-3.581-1.89c-2.319-1.354-4.527-2.832-6.683-4.332-4.3-3.013-8.382-6.149-12.3-9.274q-2.941-2.345-5.758-4.694t-5.581-4.588c-3.705-2.969-7.345-5.8-10.969-8.391a36.337,36.337,0,0,0-11.339-5.923,25.793,25.793,0,0,0-11.735-.417,32.4,32.4,0,0,0-9.966,3.978,48.459,48.459,0,0,0-7.684,5.776c-4.437,4.073-8.184,7.663-11.223,10.618s-5.367,5.285-6.943,6.867l-1.789,1.8c-.4.406-.614.61-.614.61s.2-.218.591-.631l1.768-1.823c1.561-1.6,3.879-3.935,6.9-6.908s6.763-6.572,11.191-10.658a48.5,48.5,0,0,1,7.7-5.816,32.548,32.548,0,0,1,10.021-4.022,26.009,26.009,0,0,1,11.839.4,36.56,36.56,0,0,1,11.42,5.944c3.634,2.591,7.28,5.421,10.99,8.389q2.782,2.227,5.59,4.585,2.817,2.34,5.757,4.685c3.921,3.12,8,6.25,12.3,9.255,2.153,1.5,4.357,2.97,6.665,4.316,1.156.668,2.331,1.322,3.556,1.875a10.52,10.52,0,0,0,3.825,1.115,8.744,8.744,0,0,0,3.833-1.139,19.981,19.981,0,0,0,3.4-2.306,49.6,49.6,0,0,0,5.925-5.89,144.371,144.371,0,0,0,10.271-13.687c1.62-2.4,3.188-4.8,4.736-7.2s3.063-4.8,4.665-7.123c3.185-4.645,6.236-9.282,9.206-13.857,5.921-9.161,11.458-18.111,16.8-26.6s10.487-16.508,15.5-23.888c2.515-3.684,4.94-7.239,7.386-10.586a55.084,55.084,0,0,1,8.1-8.723,34.151,34.151,0,0,1,18.369-8.436,31.836,31.836,0,0,1,8.387.215,38.547,38.547,0,0,1,6.841,1.74,42.253,42.253,0,0,1,8.758,4.3l1.231.813.862.627C453.39,2569.5,453.622,2569.678,453.622,2569.678Z" transform="translate(-208.556 -2561.286)" fill="#ff4d2e"/>
        </g>
      </g>
      <g id="Grupo_112139" data-name="Grupo 112139" transform="translate(37.125 89.871)">
        <g id="Grupo_112137" data-name="Grupo 112137" transform="translate(2.641 2.7)">
          <path id="Trazado_167660" data-name="Trazado 167660" d="M284.7,2715.875a3.331,3.331,0,1,1-3.33-3.413A3.372,3.372,0,0,1,284.7,2715.875Z" transform="translate(-278.036 -2712.462)" fill="#ff4d2e"/>
        </g>
        <g id="Grupo_112138" data-name="Grupo 112138">
          <path id="Trazado_167661" data-name="Trazado 167661" d="M279.393,2719.97a6.114,6.114,0,1,1,5.972-6.112A6.05,6.05,0,0,1,279.393,2719.97Zm0-11.653a5.542,5.542,0,1,0,5.4,5.54A5.477,5.477,0,0,0,279.393,2708.317Z" transform="translate(-273.422 -2707.745)" fill="#ff4d2e"/>
        </g>
      </g>
      <g id="Grupo_112142" data-name="Grupo 112142" transform="translate(216.148)">
        <g id="Grupo_112140" data-name="Grupo 112140" transform="translate(2.641 2.699)">
          <path id="Trazado_167662" data-name="Trazado 167662" d="M597.492,2558.848a3.331,3.331,0,1,1-3.33-3.412A3.373,3.373,0,0,1,597.492,2558.848Z" transform="translate(-590.831 -2555.436)" fill="#ff4d2e"/>
        </g>
        <g id="Grupo_112141" data-name="Grupo 112141" transform="translate(0)">
          <path id="Trazado_167663" data-name="Trazado 167663" d="M592.188,2562.944a6.114,6.114,0,1,1,5.972-6.113A6.05,6.05,0,0,1,592.188,2562.944Zm0-11.652a5.542,5.542,0,1,0,5.4,5.54A5.477,5.477,0,0,0,592.188,2551.292Z" transform="translate(-586.216 -2550.72)" fill="#ff4d2e"/>
        </g>
      </g>
    </g>
    <g id="Grupo_112152" data-name="Grupo 112152" transform="translate(203.948 2542.266)">
      <g id="Grupo_112147" data-name="Grupo 112147">
        <g id="Grupo_112144" data-name="Grupo 112144" transform="translate(0.112 0.135)">
          <path id="Trazado_167664" data-name="Trazado 167664" d="M212.7,2628.564V2658.3h36.7l6.744,9.451V2658.3h7.977v-29.738Z" transform="translate(-212.695 -2628.564)" fill="#fafafa"/>
        </g>
        <g id="Grupo_112146" data-name="Grupo 112146">
          <g id="Grupo_112145" data-name="Grupo 112145">
            <path id="Trazado_167665" data-name="Trazado 167665" d="M212.612,2628.464s.077-.006.235-.008l.711-.008,2.782-.016,10.533-.037,37.161-.067h.135v.136c0,9.109.009,19.157.014,29.737v.148h-8.126l.149-.149q0,4.795,0,9.451v.462l-.268-.376-6.74-9.453.117.061-36.7-.033H212.5v-.111c.025-9.177.045-16.62.06-21.779.012-2.559.021-4.551.027-5.912q.009-1,.013-1.532c0-.344.011-.514.011-.514s.008.185.011.537.007.876.013,1.553c.006,1.367.015,3.366.027,5.937.014,5.143.035,12.563.06,21.711l-.111-.111,36.7-.033h.074l.044.061,6.746,9.449-.268.086q0-4.649,0-9.451v-.149h8.127l-.148.149c0-10.58.009-20.629.013-29.737l.135.135-37.073-.067L216.4,2628.5l-2.809-.017-.726-.008C212.7,2628.469,212.612,2628.464,212.612,2628.464Z" transform="translate(-212.5 -2628.328)" fill="#263238"/>
          </g>
        </g>
      </g>
      <g id="Grupo_112149" data-name="Grupo 112149" transform="translate(9.636 11.86)">
        <g id="Grupo_112148" data-name="Grupo 112148">
          <path id="Trazado_167666" data-name="Trazado 167666" d="M261.71,2649.2c0,.082-7.248.149-16.186.149s-16.188-.066-16.188-.149,7.246-.149,16.188-.149S261.71,2649.117,261.71,2649.2Z" transform="translate(-229.336 -2649.05)" fill="#263238"/>
        </g>
      </g>
      <g id="Grupo_112151" data-name="Grupo 112151" transform="translate(9.636 18.415)">
        <g id="Grupo_112150" data-name="Grupo 112150">
          <path id="Trazado_167667" data-name="Trazado 167667" d="M261.71,2660.653c0,.082-7.248.149-16.186.149s-16.188-.066-16.188-.149,7.246-.149,16.188-.149S261.71,2660.571,261.71,2660.653Z" transform="translate(-229.336 -2660.504)" fill="#263238"/>
        </g>
      </g>
    </g>
    <g id="Grupo_112161" data-name="Grupo 112161" transform="translate(400.057 2458.445)">
      <g id="Grupo_112156" data-name="Grupo 112156">
        <g id="Grupo_112153" data-name="Grupo 112153" transform="translate(0.149 0.136)">
          <path id="Trazado_167668" data-name="Trazado 167668" d="M602.617,2482.109H555.408v26.79h7.805l-.585.106,6.688,8.522-.438-8.628h33.74Z" transform="translate(-555.408 -2482.109)" fill="#fafafa"/>
        </g>
        <g id="Grupo_112155" data-name="Grupo 112155">
          <g id="Grupo_112154" data-name="Grupo 112154">
            <path id="Trazado_167669" data-name="Trazado 167669" d="M602.506,2482.008s.007.153.011.463.007.781.012,1.381c.007,1.23.016,3.025.028,5.331.014,4.653.034,11.359.059,19.615v.11h-.111l-33.739.033.144-.151c.14,2.738.289,5.656.441,8.628l.023.464-.287-.365L562.4,2509l-.153-.195.244-.044.585-.107.026.3h-7.954v-.148c0-9.538.009-18.58.013-26.791v-.135h.136l34.12.067,9.668.036,2.553.016.652.008c.146,0,.216.008.216.008s-.081.005-.231.008l-.667.008-2.58.017-9.7.036-34.032.067.135-.135c0,8.211.009,17.253.013,26.791l-.148-.149h7.8l.027.3-.586.106.091-.238,6.686,8.524-.263.1c-.149-2.972-.3-5.891-.434-8.629l-.007-.151h.152l33.739.033-.11.111c.025-8.228.045-14.911.059-19.547.012-2.317.022-4.12.028-5.356q.008-.913.012-1.4C602.5,2482.176,602.506,2482.008,602.506,2482.008Z" transform="translate(-555.148 -2481.872)" fill="#263238"/>
          </g>
        </g>
      </g>
      <g id="Grupo_112158" data-name="Grupo 112158" transform="translate(9.035 10.83)">
        <g id="Grupo_112157" data-name="Grupo 112157">
          <path id="Trazado_167670" data-name="Trazado 167670" d="M570.934,2500.944c0-.082,6.59-.149,14.718-.149s14.719.066,14.719.149-6.589.149-14.719.149S570.934,2501.026,570.934,2500.944Z" transform="translate(-570.934 -2500.795)" fill="#263238"/>
        </g>
      </g>
      <g id="Grupo_112160" data-name="Grupo 112160" transform="translate(9.035 16.571)">
        <g id="Grupo_112159" data-name="Grupo 112159">
          <path id="Trazado_167671" data-name="Trazado 167671" d="M570.934,2510.974c0-.082,6.59-.149,14.718-.149s14.719.067,14.719.149-6.589.149-14.719.149S570.934,2511.057,570.934,2510.974Z" transform="translate(-570.934 -2510.825)" fill="#263238"/>
        </g>
      </g>
    </g>
    <g id="Grupo_112167" data-name="Grupo 112167" transform="translate(232.892 2459.888)">
      <g id="Grupo_112162" data-name="Grupo 112162" transform="translate(0.002 0.102)">
        <path id="Trazado_167672" data-name="Trazado 167672" d="M310.163,2523.235a25.55,25.55,0,1,0-6.081,6.772l11.452,2.7h0Z" transform="translate(-263.076 -2484.572)" fill="#fff"/>
      </g>
      <g id="Grupo_112166" data-name="Grupo 112166" transform="translate(0 0)">
        <g id="Grupo_112163" data-name="Grupo 112163">
          <path id="Trazado_167673" data-name="Trazado 167673" d="M304.253,2529.868l-.231-.03a25.23,25.23,0,0,1-12.081,5.015,22.551,22.551,0,0,1-3.971.185c-.683-.041-1.378-.06-2.079-.121l-2.116-.328a25.3,25.3,0,0,1-15.618-10.078,24.964,24.964,0,0,1-4.211-9.663,25.507,25.507,0,0,1,.3-11.116,24.656,24.656,0,0,1,5.357-10.271,25.11,25.11,0,0,1,9.623-6.875,25.533,25.533,0,0,1,11.2-1.731,24.7,24.7,0,0,1,10.29,3.024,25.444,25.444,0,0,1,11.918,14.593,27.207,27.207,0,0,1,1.121,8.151,25.174,25.174,0,0,1-3.68,12.483l-.03.051.029.05,5.459,9.421-5.259-9.468a25.234,25.234,0,0,0,3.766-12.529,27.4,27.4,0,0,0-1.1-8.254A25.745,25.745,0,0,0,300.9,2487.55a25.043,25.043,0,0,0-10.443-3.089,25.9,25.9,0,0,0-11.38,1.747,25.5,25.5,0,0,0-9.782,6.983,25.052,25.052,0,0,0-5.441,10.441,25.882,25.882,0,0,0-.3,11.293,25.306,25.306,0,0,0,4.292,9.806,25.6,25.6,0,0,0,15.863,10.176l2.145.323c.71.059,1.414.075,2.1.114a22.873,22.873,0,0,0,4.017-.205,25.314,25.314,0,0,0,12.116-5.1l11.44,2.589Z" transform="translate(-263.073 -2484.394)" fill="#1b2d38"/>
        </g>
        <g id="Grupo_112164" data-name="Grupo 112164" transform="translate(23.47 15.023)">
          <path id="Trazado_167674" data-name="Trazado 167674" d="M304.083,2512.229l.724,11.439a1.856,1.856,0,0,0,1.742,1.735h0a1.856,1.856,0,0,0,1.955-1.649l1.27-11.5a1.457,1.457,0,0,0-1.468-1.616l-2.79.039A1.456,1.456,0,0,0,304.083,2512.229Z" transform="translate(-304.08 -2510.642)" fill="#ff4d2e"/>
        </g>
        <g id="Grupo_112165" data-name="Grupo 112165" transform="translate(23.528 32.545)">
          <path id="Trazado_167675" data-name="Trazado 167675" d="M309.624,2544.93a2.792,2.792,0,1,1-1.77-3.529A2.791,2.791,0,0,1,309.624,2544.93Z" transform="translate(-304.182 -2541.258)" fill="#ff4d2e"/>
        </g>
      </g>
    </g>
    <g id="Grupo_112173" data-name="Grupo 112173" transform="translate(295.656 2593.001)">
      <g id="Grupo_112168" data-name="Grupo 112168">
        <path id="Trazado_167676" data-name="Trazado 167676" d="M431.643,2716.972l2.264,6.411s10.478,9.619,12.024,22.5,1.546,15.693,1.546,15.693l-3.245,37.579h-69.85s-2.313-30.376-1.455-38.966,5.845-18.308,5.845-18.308L384.1,2729l.158-6.486Z" transform="translate(-372.736 -2716.972)" fill="#263238"/>
      </g>
      <g id="Grupo_112170" data-name="Grupo 112170" transform="translate(12.268 7.065)">
        <g id="Grupo_112169" data-name="Grupo 112169">
          <path id="Trazado_167677" data-name="Trazado 167677" d="M442.952,2729.319a3.18,3.18,0,0,1-.489.107l-1.413.249-5.2.854c-4.4.7-10.479,1.638-17.21,2.58s-12.842,1.692-17.275,2.134c-2.216.227-4.013.377-5.255.466l-1.432.089a3.365,3.365,0,0,1-.5.011,3.067,3.067,0,0,1,.5-.071l1.427-.146c1.239-.124,3.031-.305,5.242-.56,4.425-.5,10.526-1.282,17.257-2.219s12.814-1.843,17.219-2.493l5.219-.76,1.421-.194A3.063,3.063,0,0,1,442.952,2729.319Z" transform="translate(-394.172 -2729.316)" fill="#455a64"/>
        </g>
      </g>
      <g id="Grupo_112172" data-name="Grupo 112172" transform="translate(11.427 29.805)">
        <g id="Grupo_112171" data-name="Grupo 112171">
          <path id="Trazado_167678" data-name="Trazado 167678" d="M402.686,2769.049a3,3,0,0,1-.256.628c-.18.4-.463.961-.831,1.648a47.645,47.645,0,0,1-7.088,9.875c-.533.568-.978,1.016-1.3,1.315a2.993,2.993,0,0,1-.513.444,2.887,2.887,0,0,1,.43-.524l1.223-1.375c1.024-1.167,2.392-2.82,3.775-4.743s2.507-3.75,3.285-5.094c.361-.632.665-1.167.911-1.6A2.986,2.986,0,0,1,402.686,2769.049Z" transform="translate(-392.702 -2769.049)" fill="#455a64"/>
        </g>
      </g>
    </g>
    <g id="Grupo_112196" data-name="Grupo 112196" transform="translate(380.903 2479.811)">
      <g id="Grupo_112174" data-name="Grupo 112174" transform="translate(7.311 41.93)">
        <path id="Trazado_167679" data-name="Trazado 167679" d="M545.634,2595.617s1.433,24.075,1.863,26.8-1.863,6.162-1.863,6.162-5.3.573-8.885-6.019l-2.293-5.159a32.852,32.852,0,0,0,1.29-13.613c-.86-7.739-1.29-11.322-1.29-11.322Z" transform="translate(-534.456 -2592.464)" fill="#ffbf9d"/>
      </g>
      <g id="Grupo_112195" data-name="Grupo 112195" transform="translate(0 0)">
        <g id="Grupo_112175" data-name="Grupo 112175" transform="translate(0 0.531)">
          <path id="Trazado_167680" data-name="Trazado 167680" d="M533.741,2531.128c.628,5.811.548,10.835-2.315,11.86-.24.086-2.162.162-2.417.189-3.294.356-6.518-4.46-7.2-10.758s1.437-11.693,4.732-12.05a21.839,21.839,0,0,1,2.371-.231C531.866,2520.665,533.123,2525.42,533.741,2531.128Z" transform="translate(-521.681 -2520.131)" fill="#455a64"/>
        </g>
        <g id="Grupo_112176" data-name="Grupo 112176" transform="translate(6.564 23.247)">
          <path id="Trazado_167681" data-name="Trazado 167681" d="M547.8,2568.9s2.416.8,1.979,3.135a53.821,53.821,0,0,1-1.979,6.466l-3,3.328-10.9-3.328a6.722,6.722,0,0,1-.743-3.258c.073-1.823,0-6.343,0-6.343a10.8,10.8,0,0,0,1.973-4.156c.365-1.885.628-4.075.706-4.749a.2.2,0,0,1,.239-.172,2.809,2.809,0,0,1,2.117,1.932,5.158,5.158,0,0,1,.437,2.333Z" transform="translate(-533.15 -2559.821)" fill="#ffbf9d"/>
        </g>
        <g id="Grupo_112177" data-name="Grupo 112177" transform="translate(9.356 22.075)">
          <path id="Trazado_167682" data-name="Trazado 167682" d="M541.222,2560.263l-1.559-2.489-1.634,1.262,3.031,5.992.827-2.512Z" transform="translate(-538.029 -2557.773)" fill="#455a64"/>
        </g>
        <g id="Grupo_112178" data-name="Grupo 112178" transform="translate(9.571 22.884)">
          <path id="Trazado_167683" data-name="Trazado 167683" d="M541.382,2560.868s1.7-2.576,3.287-1.349,1.218,1.958,0,4.211c0,0,3.1-.427,2.375,2.861,0,0,3.079-.6,3,2.041,0,0,2.54,2.1,1.444,3.681s-5.3,4.627-6.454,4.262-1.3-1.948-1.3-1.948a4.373,4.373,0,0,1-1.806-1.156c-.426-.67.122-1.7.122-1.7s-1.217-1.052-1.522-1.347,0-1.819,0-1.819l1.644-1.887s-2.375,1.278-2.922.913-1.157-.669-.67-1.461a25.132,25.132,0,0,1,2.3-2.623Z" transform="translate(-538.404 -2559.187)" fill="#ffbf9d"/>
        </g>
        <g id="Grupo_112180" data-name="Grupo 112180" transform="translate(15.166 32.328)">
          <g id="Grupo_112179" data-name="Grupo 112179">
            <path id="Trazado_167684" data-name="Trazado 167684" d="M548.182,2581.845a8.544,8.544,0,0,1,.724-1.049,9.469,9.469,0,0,1,2.1-2.277,22.082,22.082,0,0,0,2.42-1.861,12.17,12.17,0,0,0,.8-.97,2.29,2.29,0,0,1-.643,1.115,15.2,15.2,0,0,1-2.394,1.953,11.509,11.509,0,0,0-2.115,2.168A4.014,4.014,0,0,1,548.182,2581.845Z" transform="translate(-548.18 -2575.688)" fill="#ff9a6c"/>
          </g>
        </g>
        <g id="Grupo_112182" data-name="Grupo 112182" transform="translate(13.212 30.284)">
          <g id="Grupo_112181" data-name="Grupo 112181">
            <path id="Trazado_167685" data-name="Trazado 167685" d="M544.768,2577.76a23.944,23.944,0,0,1,2.325-2.978c.678-.785,1.251-1.54,1.76-2.016a2.31,2.31,0,0,1,.912-.647c.025.038-.315.285-.76.793s-1,1.269-1.684,2.062A24.045,24.045,0,0,1,544.768,2577.76Z" transform="translate(-544.765 -2572.116)" fill="#ff9a6c"/>
          </g>
        </g>
        <g id="Grupo_112184" data-name="Grupo 112184" transform="translate(13.337 27.29)">
          <g id="Grupo_112183" data-name="Grupo 112183">
            <path id="Trazado_167686" data-name="Trazado 167686" d="M544.988,2570a11.068,11.068,0,0,1,1.318-1.5,18.7,18.7,0,0,0,1.137-1.614,3,3,0,0,1-.911,1.809A5.02,5.02,0,0,1,544.988,2570Z" transform="translate(-544.983 -2566.885)" fill="#ff9a6c"/>
          </g>
        </g>
        <g id="Grupo_112186" data-name="Grupo 112186" transform="translate(8.963 33.524)">
          <g id="Grupo_112185" data-name="Grupo 112185">
            <path id="Trazado_167687" data-name="Trazado 167687" d="M537.343,2577.783a2.141,2.141,0,0,1,1.015.416,5.8,5.8,0,0,1,1.812,1.93,11.04,11.04,0,0,1,1.034,2.425,3.734,3.734,0,0,1,.244,1.061,4.256,4.256,0,0,1-.443-.991,15.868,15.868,0,0,0-1.09-2.341,6.631,6.631,0,0,0-1.676-1.909C537.713,2577.98,537.324,2577.829,537.343,2577.783Z" transform="translate(-537.342 -2577.777)" fill="#ff9a6c"/>
          </g>
        </g>
        <g id="Grupo_112187" data-name="Grupo 112187" transform="translate(1.941)">
          <ellipse id="Elipse_5060" data-name="Elipse 5060" cx="5.12" cy="11.471" rx="5.12" ry="11.471" transform="translate(0 1.102) rotate(-6.177)" fill="#263238"/>
        </g>
        <g id="Grupo_112188" data-name="Grupo 112188" transform="translate(3.038 0.839)">
          <path id="Trazado_167688" data-name="Trazado 167688" d="M532.417,2543.042c2.634-1.322,4.206-6.165,3.606-11.712-.6-5.517-3.145-9.9-5.983-10.659-2.233,1.275-3.5,6.088-2.9,11.637C527.735,2537.822,529.98,2542.233,532.417,2543.042Z" transform="translate(-526.989 -2520.67)" fill="#e0e0e0"/>
        </g>
        <g id="Grupo_112190" data-name="Grupo 112190" transform="translate(7.911 7.864)">
          <g id="Grupo_112189" data-name="Grupo 112189">
            <path id="Trazado_167689" data-name="Trazado 167689" d="M536.18,2543.755a98.4,98.4,0,0,1-.643-10.811,98.412,98.412,0,0,1,.643,10.811Z" transform="translate(-535.504 -2532.944)" fill="#fff"/>
          </g>
        </g>
        <g id="Grupo_112192" data-name="Grupo 112192" transform="translate(6.893 4.653)">
          <g id="Grupo_112191" data-name="Grupo 112191">
            <path id="Trazado_167690" data-name="Trazado 167690" d="M534.435,2537.716a7.039,7.039,0,0,1-.292-1.5c-.133-.934-.271-2.231-.35-3.67s-.082-2.744-.052-3.687a7.046,7.046,0,0,1,.127-1.524,8.688,8.688,0,0,1,.084,1.524c.023.94.061,2.238.138,3.67s.183,2.726.262,3.662A8.724,8.724,0,0,1,534.435,2537.716Z" transform="translate(-533.724 -2527.334)" fill="#fff"/>
          </g>
        </g>
        <g id="Grupo_112194" data-name="Grupo 112194" transform="translate(9.474 22.812)">
          <g id="Grupo_112193" data-name="Grupo 112193">
            <path id="Trazado_167691" data-name="Trazado 167691" d="M541.31,2560.805a.808.808,0,0,1-.017.181l-.08.519c-.081.478-.195,1.141-.338,1.985l0,.019-.014.015c-.334.347-.707.745-1.11,1.193a10.7,10.7,0,0,0-1.211,1.533.749.749,0,0,0-.1.463.718.718,0,0,0,.276.4,4.821,4.821,0,0,0,.469.326.668.668,0,0,0,.505.057,9.594,9.594,0,0,0,2.355-.953l.557-.287-.409.473-1.637,1.893.024-.041a2.285,2.285,0,0,0,.061,1.821,5.081,5.081,0,0,0,1.533,1.319l.129.081-.088.124c-.351.493-.565,1.243-.019,1.649a6.663,6.663,0,0,0,1.787,1.014l-.2.133v-.042c.041.04-.092-.1.1.12.386-.224.11-.088.2-.126h0v0l0,.068.014.146a2.835,2.835,0,0,0,.052.292,2.311,2.311,0,0,0,.2.552,1.5,1.5,0,0,0,.357.448.892.892,0,0,0,.485.227,2.831,2.831,0,0,0,1.159-.332,10.505,10.505,0,0,0,1.126-.625,19.235,19.235,0,0,0,1.977-1.436,12.125,12.125,0,0,0,1.7-1.649,1.481,1.481,0,0,0,.394-.978,2.282,2.282,0,0,0-.28-1.034,6,6,0,0,0-1.376-1.679l-.048-.042,0-.069a2.25,2.25,0,0,0-.191-1.015,1.525,1.525,0,0,0-.691-.69,3.365,3.365,0,0,0-1.954-.206l-.178.026.028-.18c.03-.2.07-.4.094-.591a3.23,3.23,0,0,0,0-.577,1.6,1.6,0,0,0-.407-.987,2.347,2.347,0,0,0-1.918-.57l-.208.018.1-.179a17.661,17.661,0,0,0,.867-1.723,2.441,2.441,0,0,0,.187-.833,1.335,1.335,0,0,0-.224-.742,3.38,3.38,0,0,0-1.07-.983,1.447,1.447,0,0,0-1.176-.021,3.922,3.922,0,0,0-1.374,1.03c-.136.147-.231.266-.3.345a.715.715,0,0,1-.1.117.5.5,0,0,1,.077-.136,4.357,4.357,0,0,1,.276-.367,4.714,4.714,0,0,1,.517-.541,2.97,2.97,0,0,1,.86-.562,1.572,1.572,0,0,1,1.285,0l.317.193.292.236a3.08,3.08,0,0,1,.543.593,1.509,1.509,0,0,1,.264.836,2.576,2.576,0,0,1-.188.9,17.149,17.149,0,0,1-.858,1.757l-.112-.161a3.258,3.258,0,0,1,1.1.063,2.014,2.014,0,0,1,1.023.561,1.84,1.84,0,0,1,.478,1.123,3.5,3.5,0,0,1,.008.626c-.023.208-.063.415-.095.625l-.15-.154a3.61,3.61,0,0,1,2.124.218,1.8,1.8,0,0,1,.816.809,2.522,2.522,0,0,1,.224,1.145l-.05-.111a6.239,6.239,0,0,1,1.454,1.763,2.567,2.567,0,0,1,.315,1.168,1.852,1.852,0,0,1-.122.624,2.678,2.678,0,0,1-.333.532,12.417,12.417,0,0,1-1.738,1.7,19.455,19.455,0,0,1-2.008,1.459,10.8,10.8,0,0,1-1.159.642,3.043,3.043,0,0,1-1.3.358,1.476,1.476,0,0,1-1.083-.832,2.6,2.6,0,0,1-.228-.624,3.1,3.1,0,0,1-.057-.322l-.015-.164,0-.086v-.022c.085-.039-.192.1.2-.129.188.215.056.079.1.12v.3l-.2-.085a6.848,6.848,0,0,1-1.875-1.075,1.386,1.386,0,0,1-.345-.46,1.153,1.153,0,0,1-.073-.574,2.21,2.21,0,0,1,.406-.994l.041.2a5.285,5.285,0,0,1-1.62-1.418,1.9,1.9,0,0,1-.254-1.044,3.354,3.354,0,0,1,.179-1.009l.007-.021.017-.019,1.651-1.881.148.185a9.647,9.647,0,0,1-2.435.956.882.882,0,0,1-.656-.1,4.867,4.867,0,0,1-.486-.346.911.911,0,0,1-.338-.522.931.931,0,0,1,.122-.586,10.45,10.45,0,0,1,1.261-1.555c.413-.443.794-.833,1.137-1.175l-.018.034q.257-1.266.4-1.983l.112-.51A.684.684,0,0,1,541.31,2560.805Z" transform="translate(-538.235 -2559.062)" fill="#ff9a6c"/>
          </g>
        </g>
      </g>
    </g>
    <g id="Grupo_112204" data-name="Grupo 112204" transform="translate(265.078 2583.85)">
      <g id="Grupo_112197" data-name="Grupo 112197" transform="translate(0 0)">
        <path id="Trazado_167692" data-name="Trazado 167692" d="M352.726,2727.821l-21.615-26.837s-11.495,9.678-11.8,9.982,17.98,18.09,29.722,24.977l3.692-2.445Z" transform="translate(-319.308 -2700.984)" fill="#ffbf9d"/>
      </g>
      <g id="Grupo_112203" data-name="Grupo 112203" transform="translate(29.124 17.486)">
        <g id="Grupo_112198" data-name="Grupo 112198">
          <path id="Trazado_167693" data-name="Trazado 167693" d="M392.644,2732.273s-6.825-1.077-7.453-.628-5.3,3.592-5.3,3.592a25.506,25.506,0,0,1-2.065,2.784s-1.527,1.8-2.694,1.976a5.227,5.227,0,0,1-1.886,0l-3.053,8.441s2.335,2.425,3.771,2.245,9.07-4.4,9.07-4.4l1.885-.628s7.364.27,7.723-1.976v-.628l-7.273-.628-2.694.449,4.67-1.756s6.825-.4,7.453-.579,1.347-1.167,1.078-1.706l-1.437-.18s1.55-1.072,1.495-2.06l-6.459-1.025S393.362,2733.621,392.644,2732.273Z" transform="translate(-370.195 -2731.536)" fill="#ffbf9d"/>
        </g>
        <g id="Grupo_112200" data-name="Grupo 112200" transform="translate(10.76 5.641)">
          <g id="Grupo_112199" data-name="Grupo 112199">
            <path id="Trazado_167694" data-name="Trazado 167694" d="M403.223,2742.761a2.617,2.617,0,0,1-.592-.082c-.377-.068-.924-.157-1.6-.257-1.354-.2-3.232-.437-5.31-.669a6.7,6.7,0,0,0-.752-.064,2.29,2.29,0,0,0-.693.124c-.438.173-.881.38-1.288.567-.819.382-1.543.753-2.137,1.089a15.858,15.858,0,0,0-1.366.858,3.276,3.276,0,0,1-.49.339,1.768,1.768,0,0,1,.418-.431,10.741,10.741,0,0,1,1.33-.948c.587-.363,1.307-.757,2.126-1.155.414-.2.832-.4,1.31-.595a2.551,2.551,0,0,1,.782-.145,6.555,6.555,0,0,1,.792.064c2.082.232,3.961.5,5.311.758.676.127,1.22.249,1.591.352A2.1,2.1,0,0,1,403.223,2742.761Z" transform="translate(-388.995 -2741.392)" fill="#ff9a6c"/>
          </g>
        </g>
        <g id="Grupo_112202" data-name="Grupo 112202" transform="translate(10.641 3.557)">
          <g id="Grupo_112201" data-name="Grupo 112201">
            <path id="Trazado_167695" data-name="Trazado 167695" d="M397.615,2738.512c-.019.047-.527-.177-1.39-.344a7.571,7.571,0,0,0-6.39,1.656c-.673.565-1.008,1.006-1.047.975a3.609,3.609,0,0,1,.908-1.133,7.084,7.084,0,0,1,6.575-1.7A3.617,3.617,0,0,1,397.615,2738.512Z" transform="translate(-388.787 -2737.751)" fill="#ff9a6c"/>
          </g>
        </g>
      </g>
    </g>
    <g id="Grupo_112257" data-name="Grupo 112257" transform="translate(256.181 2516.954)">
      <g id="Grupo_112226" data-name="Grupo 112226" transform="translate(0 0)">
        <g id="Grupo_112205" data-name="Grupo 112205" transform="translate(96.503 9.224)">
          <path id="Trazado_167696" data-name="Trazado 167696" d="M521,2626.663a11.186,11.186,0,0,1,1.315,4.607,26.514,26.514,0,0,1-1.309,6.154l-1.628,1.539s1.069,4.9-5.13,6.294-40.9-18.548-40.9-18.548l-.967-26.489a30.691,30.691,0,0,1,8.672,5.735c3.637,3.636,24.337,18.882,24.337,18.882s.841-5.4,1.774-5.044S521,2626.663,521,2626.663Z" transform="translate(-472.377 -2600.219)" fill="#e0e0e0"/>
        </g>
        <g id="Grupo_112206" data-name="Grupo 112206" transform="translate(32.459)">
          <path id="Trazado_167697" data-name="Trazado 167697" d="M424.521,2593.326l-18.779-3.994-4.888-5.024-21.6-.206-2.6,4.727-16.181,9.84s4.075,26.953,5.562,30.092,13.269,37.8,13.269,37.8l47.077-5.616.4-21.753,1.361-10.525a31.206,31.206,0,0,0,.134-6.789C427.4,2612.032,424.521,2593.326,424.521,2593.326Z" transform="translate(-360.477 -2584.102)" fill="#e0e0e0"/>
        </g>
        <g id="Grupo_112207" data-name="Grupo 112207" transform="translate(0 14.558)">
          <path id="Trazado_167698" data-name="Trazado 167698" d="M330.649,2668.343l-15.43,10.582-5.392-7.685,1.441-1.281s-7.962-6.582-7.482-11.224,8.876-16.585,8.876-16.585,17.987-29.445,23.562-32.6c.78-.442,7.547,15.9,7.547,22.305s-1.281,6.4-1.281,6.4-5.444,5.283-8.006,10.087-6.912,10.034-9.794,11.955Z" transform="translate(-303.765 -2609.539)" fill="#e0e0e0"/>
        </g>
        <g id="Grupo_112209" data-name="Grupo 112209" transform="translate(12.296 61.503)">
          <g id="Grupo_112208" data-name="Grupo 112208">
            <path id="Trazado_167699" data-name="Trazado 167699" d="M325.248,2691.607a1.134,1.134,0,0,1,.416-.042,7.578,7.578,0,0,1,1.134.063,11.16,11.16,0,0,1,3.584,1.086,11.88,11.88,0,0,1,3.043,2.184,5.21,5.21,0,0,1,.984,1.2,17.833,17.833,0,0,0-4.16-3.113,12.924,12.924,0,0,0-3.482-1.145C325.837,2691.676,325.247,2691.658,325.248,2691.607Z" transform="translate(-325.248 -2691.562)" fill="#263238"/>
          </g>
        </g>
        <g id="Grupo_112211" data-name="Grupo 112211" transform="translate(17 56.335)">
          <g id="Grupo_112210" data-name="Grupo 112210">
            <path id="Trazado_167700" data-name="Trazado 167700" d="M333.469,2682.533a4.65,4.65,0,0,1,1.148.976,10.647,10.647,0,0,1,1.989,3.048,10.87,10.87,0,0,1,.864,3.536,4.716,4.716,0,0,1-.062,1.505c-.051,0-.038-.575-.148-1.485a12.685,12.685,0,0,0-.927-3.437,12.384,12.384,0,0,0-1.873-3.026C333.867,2682.949,333.435,2682.572,333.469,2682.533Z" transform="translate(-333.467 -2682.531)" fill="#263238"/>
          </g>
        </g>
        <g id="Grupo_112213" data-name="Grupo 112213" transform="translate(69.133 39.58)">
          <g id="Grupo_112212" data-name="Grupo 112212">
            <path id="Trazado_167701" data-name="Trazado 167701" d="M431.632,2653.258a3.964,3.964,0,0,1,.14.78,7.612,7.612,0,0,1,.09.925c.017.363.058.775.038,1.231a14.355,14.355,0,0,1-.07,1.493c-.031.538-.13,1.1-.221,1.7a19.676,19.676,0,0,1-2.876,7.276c-.342.5-.658.98-1,1.394a14.289,14.289,0,0,1-.97,1.137c-.3.347-.61.62-.869.874a7.9,7.9,0,0,1-.7.613,4.024,4.024,0,0,1-.635.473c-.041-.048.85-.743,2.046-2.1.3-.34.62-.716.931-1.147.333-.414.636-.895.968-1.39a20.619,20.619,0,0,0,2.837-7.178c.1-.589.2-1.146.245-1.677.068-.527.089-1.021.105-1.473C431.744,2654.383,431.569,2653.265,431.632,2653.258Z" transform="translate(-424.556 -2653.258)" fill="#263238"/>
          </g>
        </g>
        <g id="Grupo_112215" data-name="Grupo 112215" transform="translate(48.637 4.727)">
          <g id="Grupo_112214" data-name="Grupo 112214">
            <path id="Trazado_167702" data-name="Trazado 167702" d="M415.151,2616.958a2.713,2.713,0,0,1-.366-.275c-.236-.185-.568-.476-1.023-.819-.891-.709-2.222-1.687-3.907-2.85s-3.728-2.506-5.99-4.031a72.738,72.738,0,0,1-7.15-5.33l.22-.026c-.24.343-.485.719-.716,1.107a16.38,16.38,0,0,0-1.971,5.221l-.086.453-.188-.42a72.779,72.779,0,0,1-4.227-12.481c-.385-1.6-.644-2.882-.8-3.77-.082-.442-.129-.787-.164-1.02a1.871,1.871,0,0,1-.038-.356,1.81,1.81,0,0,1,.089.347c.054.254.124.589.212,1.01.183.879.47,2.157.879,3.744a77.693,77.693,0,0,0,4.311,12.406l-.274.033a16.5,16.5,0,0,1,2-5.318c.235-.4.485-.779.73-1.128l.094-.135.126.11a75.489,75.489,0,0,0,7.1,5.329c2.25,1.537,4.285,2.9,5.956,4.087s2.989,2.193,3.86,2.931c.445.358.766.663.991.863A2.74,2.74,0,0,1,415.151,2616.958Z" transform="translate(-388.745 -2592.361)" fill="#263238"/>
          </g>
        </g>
        <g id="Grupo_112217" data-name="Grupo 112217" transform="translate(75.043 5.23)">
          <g id="Grupo_112216" data-name="Grupo 112216">
            <path id="Trazado_167703" data-name="Trazado 167703" d="M437.563,2593.24a1.146,1.146,0,0,1,.157.237c.094.16.236.4.406.709.346.621.827,1.537,1.387,2.7a46.034,46.034,0,0,1,3.489,9.722l.088.395-.321-.249a21.105,21.105,0,0,1-4.176-4.323l.267-.078c-.185,3.306-.355,6.326-.495,8.8l0,.027-.013.023-2.5,4.483-.7,1.223a2.684,2.684,0,0,1-.267.418,2.728,2.728,0,0,1,.206-.45l.647-1.254,2.41-4.531-.014.05c.122-2.479.271-5.5.434-8.808l.021-.418.247.34a21.256,21.256,0,0,0,4.116,4.266l-.232.146a49.225,49.225,0,0,0-3.374-9.7c-.536-1.173-.99-2.1-1.307-2.736-.147-.3-.266-.539-.361-.731A1.15,1.15,0,0,1,437.563,2593.24Z" transform="translate(-434.881 -2593.24)" fill="#263238"/>
          </g>
        </g>
        <g id="Grupo_112219" data-name="Grupo 112219" transform="translate(98.586 18.572)">
          <g id="Grupo_112218" data-name="Grupo 112218">
            <path id="Trazado_167704" data-name="Trazado 167704" d="M477.953,2636.852c-.082.007-.579-4.531-1.111-10.136s-.9-10.157-.815-10.165.58,4.53,1.111,10.136S478.036,2636.844,477.953,2636.852Z" transform="translate(-476.016 -2616.551)" fill="#263238"/>
          </g>
        </g>
        <g id="Grupo_112221" data-name="Grupo 112221" transform="translate(129.457 33.505)">
          <g id="Grupo_112220" data-name="Grupo 112220">
            <path id="Trazado_167705" data-name="Trazado 167705" d="M534.415,2650.8a4.812,4.812,0,0,1-1-.957,15.214,15.214,0,0,1-3.187-5.84,4.816,4.816,0,0,1-.262-1.361,22.2,22.2,0,0,0,4.452,8.157Z" transform="translate(-529.955 -2642.643)" fill="#263238"/>
          </g>
        </g>
        <g id="Grupo_112223" data-name="Grupo 112223" transform="translate(129.052 32)">
          <g id="Grupo_112222" data-name="Grupo 112222">
            <path id="Trazado_167706" data-name="Trazado 167706" d="M531.3,2650.331c-.017.012-.116-.1-.282-.324a7.143,7.143,0,0,1-.615-.994,10.347,10.347,0,0,1-.781-7.525,7.149,7.149,0,0,1,.4-1.1c.117-.25.19-.383.209-.375.049.02-.185.582-.4,1.526a11.474,11.474,0,0,0,.766,7.38C531,2649.8,531.344,2650.3,531.3,2650.331Z" transform="translate(-529.247 -2640.013)" fill="#263238"/>
          </g>
        </g>
        <g id="Grupo_112225" data-name="Grupo 112225" transform="translate(31.757 31.091)">
          <g id="Grupo_112224" data-name="Grupo 112224">
            <path id="Trazado_167707" data-name="Trazado 167707" d="M359.254,2638.425a2.719,2.719,0,0,1,.31.575l.757,1.6,2.515,5.281c.984,2.063,1.851,3.943,2.439,5.323.295.689.524,1.25.672,1.644a2.77,2.77,0,0,1,.2.62,2.736,2.736,0,0,1-.309-.574q-.31-.654-.757-1.6c-.674-1.414-1.549-3.25-2.516-5.281-.984-2.062-1.851-3.943-2.439-5.322-.295-.689-.524-1.251-.672-1.644A2.762,2.762,0,0,1,359.254,2638.425Z" transform="translate(-359.251 -2638.425)" fill="#263238"/>
          </g>
        </g>
      </g>
      <g id="Grupo_112228" data-name="Grupo 112228" transform="translate(80.023 62.491)">
        <g id="Grupo_112227" data-name="Grupo 112227">
          <path id="Trazado_167708" data-name="Trazado 167708" d="M450.776,2693.288a3.309,3.309,0,0,1-.168.7c-.125.443-.325,1.078-.586,1.857-.521,1.559-1.311,3.693-2.306,6s-2.009,4.342-2.788,5.791c-.389.724-.714,1.3-.951,1.7a3.362,3.362,0,0,1-.391.6,3.248,3.248,0,0,1,.29-.655l.865-1.741c.729-1.47,1.707-3.515,2.7-5.813s1.81-4.411,2.381-5.95c.268-.725.494-1.336.675-1.823A3.293,3.293,0,0,1,450.776,2693.288Z" transform="translate(-443.583 -2693.288)" fill="#263238"/>
        </g>
      </g>
      <g id="Grupo_112230" data-name="Grupo 112230" transform="translate(82.387 72.083)">
        <g id="Grupo_112229" data-name="Grupo 112229">
          <path id="Trazado_167709" data-name="Trazado 167709" d="M452.208,2710.049a3.95,3.95,0,0,1-.457,1.059,21.83,21.83,0,0,1-3.194,4.539,3.942,3.942,0,0,1-.842.788c-.065-.061,1.106-1.364,2.341-3.127S452.129,2710.008,452.208,2710.049Z" transform="translate(-447.712 -2710.048)" fill="#263238"/>
        </g>
      </g>
      <g id="Grupo_112232" data-name="Grupo 112232" transform="translate(74.95 29.237)">
        <g id="Grupo_112231" data-name="Grupo 112231">
          <path id="Trazado_167710" data-name="Trazado 167710" d="M443.3,2678.033a2.531,2.531,0,0,1-.065-.442q-.048-.478-.127-1.271c-.1-1.105-.259-2.7-.466-4.674-.433-3.941-1.1-9.382-2.252-15.32a143.261,143.261,0,0,0-3.706-15.03c-.282-.95-.559-1.8-.8-2.551s-.452-1.394-.635-1.917l-.4-1.212a2.463,2.463,0,0,1-.122-.429,2.5,2.5,0,0,1,.179.409l.458,1.193c.2.518.43,1.157.684,1.9s.552,1.594.848,2.541a128.194,128.194,0,0,1,3.8,15.037c1.151,5.95,1.789,11.405,2.169,15.355.18,1.976.309,3.577.372,4.686q.045.8.072,1.276A2.473,2.473,0,0,1,443.3,2678.033Z" transform="translate(-434.72 -2635.186)" fill="#263238"/>
        </g>
      </g>
      <g id="Grupo_112234" data-name="Grupo 112234" transform="translate(84.123 70.544)">
        <g id="Grupo_112233" data-name="Grupo 112233">
          <path id="Trazado_167711" data-name="Trazado 167711" d="M451.128,2712.681a6.706,6.706,0,0,0-.375-5.322c.028-.021.251.212.5.667a4.989,4.989,0,0,1,.276,3.925C451.347,2712.436,451.159,2712.7,451.128,2712.681Z" transform="translate(-450.747 -2707.358)" fill="#263238"/>
        </g>
      </g>
      <g id="Grupo_112236" data-name="Grupo 112236" transform="translate(83.508 77.004)">
        <g id="Grupo_112235" data-name="Grupo 112235">
          <path id="Trazado_167712" data-name="Trazado 167712" d="M449.78,2720.271c-.082-.005-.127-.373-.1-.822s.114-.809.2-.8.127.373.1.821S449.863,2720.275,449.78,2720.271Z" transform="translate(-449.672 -2718.645)" fill="#263238"/>
        </g>
      </g>
      <g id="Grupo_112238" data-name="Grupo 112238" transform="translate(6.061 67.553)">
        <g id="Grupo_112237" data-name="Grupo 112237">
          <path id="Trazado_167713" data-name="Trazado 167713" d="M330.3,2702.136a3.345,3.345,0,0,1-.684.234c-.445.127-1.085.33-1.865.6s-1.7.64-2.7,1.073c-1,.452-2.073.986-3.175,1.6a47.268,47.268,0,0,0-5.4,3.555c-.659.5-1.187.916-1.547,1.208a3.405,3.405,0,0,1-.583.427,3.309,3.309,0,0,1,.508-.515c.338-.32.846-.761,1.493-1.286a38.847,38.847,0,0,1,5.38-3.65c1.111-.618,2.2-1.148,3.211-1.591,1.017-.423,1.944-.781,2.742-1.022a19.553,19.553,0,0,1,1.9-.517A3.38,3.38,0,0,1,330.3,2702.136Z" transform="translate(-314.355 -2702.131)" fill="#263238"/>
        </g>
      </g>
      <g id="Grupo_112240" data-name="Grupo 112240" transform="translate(8.366 67.482)">
        <g id="Grupo_112239" data-name="Grupo 112239">
          <path id="Trazado_167714" data-name="Trazado 167714" d="M331.425,2702.1c0,.053-.783.028-2.034.138a21.207,21.207,0,0,0-4.78,1.007,25.884,25.884,0,0,0-4.461,2.013c-1.093.62-1.742,1.056-1.769,1.016a1.942,1.942,0,0,1,.421-.356c.28-.216.7-.506,1.241-.841a21.6,21.6,0,0,1,4.474-2.115,18.321,18.321,0,0,1,4.859-.934,12.519,12.519,0,0,1,1.5,0A2.012,2.012,0,0,1,331.425,2702.1Z" transform="translate(-318.382 -2702.008)" fill="#263238"/>
        </g>
      </g>
      <g id="Grupo_112242" data-name="Grupo 112242" transform="translate(32.703 33.138)" opacity="0.3">
        <g id="Grupo_112241" data-name="Grupo 112241">
          <path id="Trazado_167715" data-name="Trazado 167715" d="M361.036,2642a12.242,12.242,0,0,0,5.369,11.9C365.056,2650.471,362.718,2645.535,361.036,2642Z" transform="translate(-360.904 -2642.001)"/>
        </g>
      </g>
      <g id="Grupo_112244" data-name="Grupo 112244" transform="translate(54.711 15.885)" opacity="0.3">
        <g id="Grupo_112243" data-name="Grupo 112243">
          <path id="Trazado_167716" data-name="Trazado 167716" d="M399.357,2615.739a13.019,13.019,0,0,0,2.936,3.9l-.057-3.129,14.336,6.371-15.389-11.029c-.84,1.414-.986,2.469-1.826,3.883" transform="translate(-399.357 -2611.856)"/>
        </g>
      </g>
      <g id="Grupo_112246" data-name="Grupo 112246" transform="translate(78.417 14.337)" opacity="0.3">
        <g id="Grupo_112245" data-name="Grupo 112245">
          <path id="Trazado_167717" data-name="Trazado 167717" d="M443.541,2612.145c-.614-.963-2.308-2.993-2.308-2.993-.054,1.5-.185,3.558-.24,5.061l-.216,3.6c.221-1.254.388-3.676.61-4.93l2.667,2.527A3.753,3.753,0,0,0,443.541,2612.145Z" transform="translate(-440.777 -2609.152)"/>
        </g>
      </g>
      <g id="Grupo_112248" data-name="Grupo 112248" transform="translate(98.676 21.016)" opacity="0.3">
        <g id="Grupo_112247" data-name="Grupo 112247">
          <path id="Trazado_167718" data-name="Trazado 167718" d="M476.174,2620.822,478,2637.333C478.8,2631.962,480.259,2629.043,476.174,2620.822Z" transform="translate(-476.174 -2620.822)"/>
        </g>
      </g>
      <g id="Grupo_112250" data-name="Grupo 112250" transform="translate(129.517 33.774)" opacity="0.3">
        <g id="Grupo_112249" data-name="Grupo 112249">
          <path id="Trazado_167719" data-name="Trazado 167719" d="M540,2654.158a20.984,20.984,0,0,0-2.989-1.35c-3.555-1.931-5.44-5.468-6.826-9.269l-.122-.426c.142,5.1,3.373,10.545,8.024,12.635a2.724,2.724,0,0,0,1.525.323,1.078,1.078,0,0,0,.952-1.071A1.383,1.383,0,0,0,540,2654.158Z" transform="translate(-530.06 -2643.113)"/>
        </g>
      </g>
      <g id="Grupo_112252" data-name="Grupo 112252" transform="translate(65.729 46.639)" opacity="0.3">
        <g id="Grupo_112251" data-name="Grupo 112251">
          <path id="Trazado_167720" data-name="Trazado 167720" d="M418.608,2677.928c5.884-1.952,8.722-7.494,10.23-12.338a19.527,19.527,0,0,1-.749,6.225,9.9,9.9,0,0,1-3.507,5.1,6.676,6.676,0,0,1-5.974,1.011" transform="translate(-418.608 -2665.59)"/>
        </g>
      </g>
      <g id="Grupo_112254" data-name="Grupo 112254" transform="translate(8.531 67.837)" opacity="0.3">
        <g id="Grupo_112253" data-name="Grupo 112253">
          <path id="Trazado_167721" data-name="Trazado 167721" d="M331.005,2702.728a17.092,17.092,0,0,0-11.912,3.845c-.243.2-.5.491-.4.788a.548.548,0,0,0,.581.308,1.639,1.639,0,0,0,.65-.272,51.178,51.178,0,0,1,11.082-4.769" transform="translate(-318.67 -2702.628)"/>
        </g>
      </g>
      <g id="Grupo_112256" data-name="Grupo 112256" transform="translate(80.854 56.12)" opacity="0.3">
        <g id="Grupo_112255" data-name="Grupo 112255">
          <path id="Trazado_167722" data-name="Trazado 167722" d="M455.65,2682.484a1.2,1.2,0,0,0-1.619-.029,3.487,3.487,0,0,0-.936,1.508l-6.989,17.348-1.071,2.572,7.327-12.282c1.462-2.451,2.95-4.97,3.458-7.777A1.644,1.644,0,0,0,455.65,2682.484Z" transform="translate(-445.035 -2682.156)"/>
        </g>
      </g>
    </g>
    <g id="Grupo_112481" data-name="Grupo 112481" transform="translate(292.093 2464.715)">
      <g id="Grupo_112470" data-name="Grupo 112470">
        <g id="Grupo_112258" data-name="Grupo 112258" transform="translate(3.754)">
          <path id="Trazado_167723" data-name="Trazado 167723" d="M376.8,2504.026c4.336-6.048,11.517-9.589,18.837-10.931,3.08-.564,5.1-.156,8.168.466a13.251,13.251,0,0,1,7.858,4.505,22.224,22.224,0,0,1,4.984,9.845,62.28,62.28,0,0,1,1.273,11.374,20.876,20.876,0,0,1-2.873,10.944l-9.567,2.3c-5.331.524-10.736,1.045-16.02.158s-10.519-3.364-13.6-7.747C371.591,2518.849,372.468,2510.075,376.8,2504.026Z" transform="translate(-373.07 -2492.827)" fill="#263238"/>
        </g>
        <g id="Grupo_112261" data-name="Grupo 112261" transform="translate(43.155 33.978)">
          <g id="Grupo_112260" data-name="Grupo 112260">
            <g id="Grupo_112259" data-name="Grupo 112259">
              <path id="Trazado_167724" data-name="Trazado 167724" d="M441.914,2561.252c-.017.024.173.229.61.471a4.763,4.763,0,0,0,2.036.545,5.177,5.177,0,0,0,3.036-.82,5.17,5.17,0,0,0,1.422-7,5.179,5.179,0,0,0-2.476-1.938,4.748,4.748,0,0,0-2.087-.292,1.484,1.484,0,0,0-.745.2,7.233,7.233,0,0,1,2.679.475,4.989,4.989,0,0,1,2.182,1.851,4.761,4.761,0,0,1-1.273,6.271,4.99,4.99,0,0,1-2.731.853A7.224,7.224,0,0,1,441.914,2561.252Z" transform="translate(-441.913 -2552.195)" fill="#e0e0e0"/>
            </g>
          </g>
        </g>
        <g id="Grupo_112262" data-name="Grupo 112262" transform="translate(0 32.147)">
          <path id="Trazado_167725" data-name="Trazado 167725" d="M366.519,2555.58a7.234,7.234,0,0,1,2.927-5.653,5.209,5.209,0,0,1,6.141.139l1.636,1.715a6.258,6.258,0,0,1,3.994,6.067,6.855,6.855,0,0,1-4.387,5.9,7.59,7.59,0,0,1-7.323-1.281A8.509,8.509,0,0,1,366.519,2555.58Z" transform="translate(-366.511 -2548.995)" fill="#263238"/>
        </g>
        <g id="Grupo_112264" data-name="Grupo 112264" transform="translate(1.355 34.357)">
          <g id="Grupo_112263" data-name="Grupo 112263">
            <path id="Trazado_167726" data-name="Trazado 167726" d="M369.866,2563.632a3.281,3.281,0,0,1-.644-1.892,8.766,8.766,0,0,1,1.937-4.49,13.108,13.108,0,0,1,3.678-3.356c1.095-.681,1.859-.953,1.83-1.031a5.279,5.279,0,0,0-2,.739,11.673,11.673,0,0,0-3.892,3.364,11.436,11.436,0,0,0-1.412,2.479,5.226,5.226,0,0,0-.479,2.306,2.732,2.732,0,0,0,.532,1.506C369.656,2563.557,369.849,2563.654,369.866,2563.632Z" transform="translate(-368.878 -2552.857)" fill="#455a64"/>
          </g>
        </g>
        <g id="Grupo_112266" data-name="Grupo 112266" transform="translate(6.512 35.315)">
          <g id="Grupo_112265" data-name="Grupo 112265">
            <path id="Trazado_167727" data-name="Trazado 167727" d="M378.582,2566.906a17.121,17.121,0,0,1,2.408-12.375,5.217,5.217,0,0,0-1.187,1.518,13.5,13.5,0,0,0-1.752,9A5.235,5.235,0,0,0,378.582,2566.906Z" transform="translate(-377.889 -2554.53)" fill="#455a64"/>
          </g>
        </g>
        <g id="Grupo_112458" data-name="Grupo 112458" transform="translate(9.379 3.485)">
          <g id="Grupo_112457" data-name="Grupo 112457">
            <g id="Grupo_112271" data-name="Grupo 112271" transform="translate(3.627)">
              <g id="Grupo_112270" data-name="Grupo 112270">
                <g id="Grupo_112269" data-name="Grupo 112269">
                  <g id="Grupo_112268" data-name="Grupo 112268">
                    <g id="Grupo_112267" data-name="Grupo 112267">
                      <path id="Trazado_167728" data-name="Trazado 167728" d="M413.4,2550.828c-.282-3.391-.539-6.165-.537-6.15,0,0,7.832-1.373,9.366-11.622.762-5.1.432-13.441-.058-20.258-.442-6.137-6.2-14.163-13.787-13.706l-3.395-.176-12.569,5.95a3.6,3.6,0,0,0-3.188,3.68l2.754,43.842,23.371,24.606,1.341-6.942Z" transform="translate(-389.234 -2498.916)" fill="#ffbf9d"/>
                    </g>
                  </g>
                </g>
              </g>
            </g>
            <g id="Grupo_112272" data-name="Grupo 112272" transform="translate(21.305 30.739)">
              <path id="Trazado_167729" data-name="Trazado 167729" d="M420.126,2554.628a2.158,2.158,0,0,1,.659-1.375,2.2,2.2,0,0,1,2.659-.322,2.952,2.952,0,0,1,1.3,2.694h0a2.683,2.683,0,0,1-1.845,1.234,3.335,3.335,0,0,1-.359.035,2.413,2.413,0,0,1-1.662-.539A2.151,2.151,0,0,1,420.126,2554.628Z" transform="translate(-420.122 -2552.625)" fill="#ff9a6c"/>
            </g>
            <g id="Grupo_112424" data-name="Grupo 112424" transform="translate(13.519 10.558)">
              <g id="Grupo_112423" data-name="Grupo 112423">
                <g id="Grupo_112422" data-name="Grupo 112422">
                  <g id="Grupo_112288" data-name="Grupo 112288" transform="translate(17.726 9.107)">
                    <g id="Grupo_112287" data-name="Grupo 112287">
                      <g id="Grupo_112286" data-name="Grupo 112286">
                        <g id="Grupo_112285" data-name="Grupo 112285">
                          <g id="Grupo_112284" data-name="Grupo 112284">
                            <g id="Grupo_112283" data-name="Grupo 112283">
                              <g id="Grupo_112282" data-name="Grupo 112282">
                                <g id="Grupo_112281" data-name="Grupo 112281">
                                  <g id="Grupo_112280" data-name="Grupo 112280">
                                    <g id="Grupo_112279" data-name="Grupo 112279">
                                      <g id="Grupo_112278" data-name="Grupo 112278">
                                        <g id="Grupo_112277" data-name="Grupo 112277">
                                          <g id="Grupo_112276" data-name="Grupo 112276">
                                            <g id="Grupo_112275" data-name="Grupo 112275">
                                              <g id="Grupo_112274" data-name="Grupo 112274">
                                                <g id="Grupo_112273" data-name="Grupo 112273">
                                                  <path id="Trazado_167730" data-name="Trazado 167730" d="M440.108,2534.45a1.313,1.313,0,0,1-1.254,1.336,1.256,1.256,0,0,1-1.364-1.172,1.315,1.315,0,0,1,1.252-1.336A1.257,1.257,0,0,1,440.108,2534.45Z" transform="translate(-437.489 -2533.275)" fill="#263238"/>
                                                </g>
                                              </g>
                                            </g>
                                          </g>
                                        </g>
                                      </g>
                                    </g>
                                  </g>
                                </g>
                              </g>
                            </g>
                          </g>
                        </g>
                      </g>
                    </g>
                  </g>
                  <g id="Grupo_112305" data-name="Grupo 112305" transform="translate(15.59 5.914)">
                    <g id="Grupo_112304" data-name="Grupo 112304">
                      <g id="Grupo_112303" data-name="Grupo 112303">
                        <g id="Grupo_112302" data-name="Grupo 112302">
                          <g id="Grupo_112301" data-name="Grupo 112301">
                            <g id="Grupo_112300" data-name="Grupo 112300">
                              <g id="Grupo_112299" data-name="Grupo 112299">
                                <g id="Grupo_112298" data-name="Grupo 112298">
                                  <g id="Grupo_112297" data-name="Grupo 112297">
                                    <g id="Grupo_112296" data-name="Grupo 112296">
                                      <g id="Grupo_112295" data-name="Grupo 112295">
                                        <g id="Grupo_112294" data-name="Grupo 112294">
                                          <g id="Grupo_112293" data-name="Grupo 112293">
                                            <g id="Grupo_112292" data-name="Grupo 112292">
                                              <g id="Grupo_112291" data-name="Grupo 112291">
                                                <g id="Grupo_112290" data-name="Grupo 112290">
                                                  <g id="Grupo_112289" data-name="Grupo 112289">
                                                    <path id="Trazado_167731" data-name="Trazado 167731" d="M438.947,2529.053c-.161.172-1.162-.554-2.575-.538-1.411,0-2.442.732-2.6.561-.076-.076.088-.386.535-.719a3.6,3.6,0,0,1,2.076-.66,3.46,3.46,0,0,1,2.051.641C438.876,2528.667,439.026,2528.976,438.947,2529.053Z" transform="translate(-433.758 -2527.696)" fill="#263238"/>
                                                  </g>
                                                </g>
                                              </g>
                                            </g>
                                          </g>
                                        </g>
                                      </g>
                                    </g>
                                  </g>
                                </g>
                              </g>
                            </g>
                          </g>
                        </g>
                      </g>
                    </g>
                  </g>
                  <g id="Grupo_112321" data-name="Grupo 112321" transform="translate(11.848 6.736)">
                    <g id="Grupo_112320" data-name="Grupo 112320">
                      <g id="Grupo_112319" data-name="Grupo 112319">
                        <g id="Grupo_112318" data-name="Grupo 112318">
                          <g id="Grupo_112317" data-name="Grupo 112317">
                            <g id="Grupo_112316" data-name="Grupo 112316">
                              <g id="Grupo_112315" data-name="Grupo 112315">
                                <g id="Grupo_112314" data-name="Grupo 112314">
                                  <g id="Grupo_112313" data-name="Grupo 112313">
                                    <g id="Grupo_112312" data-name="Grupo 112312">
                                      <g id="Grupo_112311" data-name="Grupo 112311">
                                        <g id="Grupo_112310" data-name="Grupo 112310">
                                          <g id="Grupo_112309" data-name="Grupo 112309">
                                            <g id="Grupo_112308" data-name="Grupo 112308">
                                              <g id="Grupo_112307" data-name="Grupo 112307">
                                                <g id="Grupo_112306" data-name="Grupo 112306">
                                                  <path id="Trazado_167732" data-name="Trazado 167732" d="M427.986,2540.895a9.383,9.383,0,0,1,2.29-.435c.361-.041.7-.115.76-.362a1.834,1.834,0,0,0-.251-1.067q-.52-1.3-1.091-2.737c-1.516-3.9-2.617-7.1-2.459-7.162s1.514,3.05,3.03,6.947q.548,1.442,1.046,2.754a2.089,2.089,0,0,1,.2,1.414.9.9,0,0,1-.588.532,2.453,2.453,0,0,1-.612.092A9.152,9.152,0,0,1,427.986,2540.895Z" transform="translate(-427.22 -2529.132)" fill="#263238"/>
                                                </g>
                                              </g>
                                            </g>
                                          </g>
                                        </g>
                                      </g>
                                    </g>
                                  </g>
                                </g>
                              </g>
                            </g>
                          </g>
                        </g>
                      </g>
                    </g>
                  </g>
                  <g id="Grupo_112336" data-name="Grupo 112336" transform="translate(0 31.671)">
                    <g id="Grupo_112335" data-name="Grupo 112335">
                      <g id="Grupo_112334" data-name="Grupo 112334">
                        <g id="Grupo_112333" data-name="Grupo 112333">
                          <g id="Grupo_112332" data-name="Grupo 112332">
                            <g id="Grupo_112331" data-name="Grupo 112331">
                              <g id="Grupo_112330" data-name="Grupo 112330">
                                <g id="Grupo_112329" data-name="Grupo 112329">
                                  <g id="Grupo_112328" data-name="Grupo 112328">
                                    <g id="Grupo_112327" data-name="Grupo 112327">
                                      <g id="Grupo_112326" data-name="Grupo 112326">
                                        <g id="Grupo_112325" data-name="Grupo 112325">
                                          <g id="Grupo_112324" data-name="Grupo 112324">
                                            <g id="Grupo_112323" data-name="Grupo 112323">
                                              <g id="Grupo_112322" data-name="Grupo 112322">
                                                <path id="Trazado_167733" data-name="Trazado 167733" d="M420.257,2576.233a26.034,26.034,0,0,1-13.739-3.534s3.715,7.062,13.95,6.013Z" transform="translate(-406.518 -2572.699)" fill="#ff9a6c"/>
                                              </g>
                                            </g>
                                          </g>
                                        </g>
                                      </g>
                                    </g>
                                  </g>
                                </g>
                              </g>
                            </g>
                          </g>
                        </g>
                      </g>
                    </g>
                  </g>
                  <g id="Grupo_112352" data-name="Grupo 112352" transform="translate(8.244 19.513)">
                    <g id="Grupo_112351" data-name="Grupo 112351">
                      <g id="Grupo_112350" data-name="Grupo 112350">
                        <g id="Grupo_112349" data-name="Grupo 112349">
                          <g id="Grupo_112348" data-name="Grupo 112348">
                            <g id="Grupo_112347" data-name="Grupo 112347">
                              <g id="Grupo_112346" data-name="Grupo 112346">
                                <g id="Grupo_112345" data-name="Grupo 112345">
                                  <g id="Grupo_112344" data-name="Grupo 112344">
                                    <g id="Grupo_112343" data-name="Grupo 112343">
                                      <g id="Grupo_112342" data-name="Grupo 112342">
                                        <g id="Grupo_112341" data-name="Grupo 112341">
                                          <g id="Grupo_112340" data-name="Grupo 112340">
                                            <g id="Grupo_112339" data-name="Grupo 112339">
                                              <g id="Grupo_112338" data-name="Grupo 112338">
                                                <g id="Grupo_112337" data-name="Grupo 112337">
                                                  <path id="Trazado_167734" data-name="Trazado 167734" d="M421.145,2551.457c.23-.015.246,1.517,1.568,2.594s2.953.894,2.966,1.108c.022.1-.361.3-1.051.326a3.821,3.821,0,0,1-2.475-.838,3.323,3.323,0,0,1-1.217-2.176C420.872,2551.83,421.04,2551.449,421.145,2551.457Z" transform="translate(-420.922 -2551.457)" fill="#263238"/>
                                                </g>
                                              </g>
                                            </g>
                                          </g>
                                        </g>
                                      </g>
                                    </g>
                                  </g>
                                </g>
                              </g>
                            </g>
                          </g>
                        </g>
                      </g>
                    </g>
                  </g>
                  <g id="Grupo_112370" data-name="Grupo 112370" transform="translate(15.303)">
                    <g id="Grupo_112369" data-name="Grupo 112369">
                      <g id="Grupo_112368" data-name="Grupo 112368">
                        <g id="Grupo_112367" data-name="Grupo 112367">
                          <g id="Grupo_112366" data-name="Grupo 112366">
                            <g id="Grupo_112365" data-name="Grupo 112365">
                              <g id="Grupo_112364" data-name="Grupo 112364">
                                <g id="Grupo_112363" data-name="Grupo 112363">
                                  <g id="Grupo_112362" data-name="Grupo 112362">
                                    <g id="Grupo_112361" data-name="Grupo 112361">
                                      <g id="Grupo_112360" data-name="Grupo 112360">
                                        <g id="Grupo_112359" data-name="Grupo 112359">
                                          <g id="Grupo_112358" data-name="Grupo 112358">
                                            <g id="Grupo_112357" data-name="Grupo 112357">
                                              <g id="Grupo_112356" data-name="Grupo 112356">
                                                <g id="Grupo_112355" data-name="Grupo 112355">
                                                  <g id="Grupo_112354" data-name="Grupo 112354">
                                                    <g id="Grupo_112353" data-name="Grupo 112353">
                                                      <path id="Trazado_167735" data-name="Trazado 167735" d="M438.067,2518.8c-.246.323-1.221,0-2.392-.006-1.17-.047-2.159.235-2.39-.1-.1-.161.052-.485.482-.792a3.462,3.462,0,0,1,3.852.084C438.036,2518.318,438.175,2518.646,438.067,2518.8Z" transform="translate(-433.255 -2517.363)" fill="#263238"/>
                                                    </g>
                                                  </g>
                                                </g>
                                              </g>
                                            </g>
                                          </g>
                                        </g>
                                      </g>
                                    </g>
                                  </g>
                                </g>
                              </g>
                            </g>
                          </g>
                        </g>
                      </g>
                    </g>
                  </g>
                  <g id="Grupo_112386" data-name="Grupo 112386" transform="translate(4.46 9.347)">
                    <g id="Grupo_112385" data-name="Grupo 112385">
                      <g id="Grupo_112384" data-name="Grupo 112384">
                        <g id="Grupo_112383" data-name="Grupo 112383">
                          <g id="Grupo_112382" data-name="Grupo 112382">
                            <g id="Grupo_112381" data-name="Grupo 112381">
                              <g id="Grupo_112380" data-name="Grupo 112380">
                                <g id="Grupo_112379" data-name="Grupo 112379">
                                  <g id="Grupo_112378" data-name="Grupo 112378">
                                    <g id="Grupo_112377" data-name="Grupo 112377">
                                      <g id="Grupo_112376" data-name="Grupo 112376">
                                        <g id="Grupo_112375" data-name="Grupo 112375">
                                          <g id="Grupo_112374" data-name="Grupo 112374">
                                            <g id="Grupo_112373" data-name="Grupo 112373">
                                              <g id="Grupo_112372" data-name="Grupo 112372">
                                                <g id="Grupo_112371" data-name="Grupo 112371">
                                                  <path id="Trazado_167736" data-name="Trazado 167736" d="M414.31,2534.939a1.313,1.313,0,0,0,1.326,1.264,1.255,1.255,0,0,0,1.3-1.245,1.313,1.313,0,0,0-1.324-1.265A1.257,1.257,0,0,0,414.31,2534.939Z" transform="translate(-414.31 -2533.694)" fill="#263238"/>
                                                </g>
                                              </g>
                                            </g>
                                          </g>
                                        </g>
                                      </g>
                                    </g>
                                  </g>
                                </g>
                              </g>
                            </g>
                          </g>
                        </g>
                      </g>
                    </g>
                  </g>
                  <g id="Grupo_112403" data-name="Grupo 112403" transform="translate(2.247 6.822)">
                    <g id="Grupo_112402" data-name="Grupo 112402">
                      <g id="Grupo_112401" data-name="Grupo 112401">
                        <g id="Grupo_112400" data-name="Grupo 112400">
                          <g id="Grupo_112399" data-name="Grupo 112399">
                            <g id="Grupo_112398" data-name="Grupo 112398">
                              <g id="Grupo_112397" data-name="Grupo 112397">
                                <g id="Grupo_112396" data-name="Grupo 112396">
                                  <g id="Grupo_112395" data-name="Grupo 112395">
                                    <g id="Grupo_112394" data-name="Grupo 112394">
                                      <g id="Grupo_112393" data-name="Grupo 112393">
                                        <g id="Grupo_112392" data-name="Grupo 112392">
                                          <g id="Grupo_112391" data-name="Grupo 112391">
                                            <g id="Grupo_112390" data-name="Grupo 112390">
                                              <g id="Grupo_112389" data-name="Grupo 112389">
                                                <g id="Grupo_112388" data-name="Grupo 112388">
                                                  <g id="Grupo_112387" data-name="Grupo 112387">
                                                    <path id="Trazado_167737" data-name="Trazado 167737" d="M410.467,2530.783c.171.164,1.13-.618,2.541-.679,1.409-.082,2.478.6,2.623.416.072-.08-.109-.381-.574-.689a3.6,3.6,0,0,0-2.11-.544,3.462,3.462,0,0,0-2.013.755C410.517,2530.395,410.384,2530.711,410.467,2530.783Z" transform="translate(-410.444 -2529.282)" fill="#263238"/>
                                                  </g>
                                                </g>
                                              </g>
                                            </g>
                                          </g>
                                        </g>
                                      </g>
                                    </g>
                                  </g>
                                </g>
                              </g>
                            </g>
                          </g>
                        </g>
                      </g>
                    </g>
                  </g>
                  <g id="Grupo_112421" data-name="Grupo 112421" transform="translate(2.247 4.771)">
                    <g id="Grupo_112420" data-name="Grupo 112420">
                      <g id="Grupo_112419" data-name="Grupo 112419">
                        <g id="Grupo_112418" data-name="Grupo 112418">
                          <g id="Grupo_112417" data-name="Grupo 112417">
                            <g id="Grupo_112416" data-name="Grupo 112416">
                              <g id="Grupo_112415" data-name="Grupo 112415">
                                <g id="Grupo_112414" data-name="Grupo 112414">
                                  <g id="Grupo_112413" data-name="Grupo 112413">
                                    <g id="Grupo_112412" data-name="Grupo 112412">
                                      <g id="Grupo_112411" data-name="Grupo 112411">
                                        <g id="Grupo_112410" data-name="Grupo 112410">
                                          <g id="Grupo_112409" data-name="Grupo 112409">
                                            <g id="Grupo_112408" data-name="Grupo 112408">
                                              <g id="Grupo_112407" data-name="Grupo 112407">
                                                <g id="Grupo_112406" data-name="Grupo 112406">
                                                  <g id="Grupo_112405" data-name="Grupo 112405">
                                                    <g id="Grupo_112404" data-name="Grupo 112404">
                                                      <path id="Trazado_167738" data-name="Trazado 167738" d="M410.486,2527.278c.263.309,1.22-.069,2.388-.139,1.166-.11,2.169.115,2.381-.23.093-.167-.078-.481-.525-.765a3.465,3.465,0,0,0-3.842.3C410.49,2526.79,410.37,2527.126,410.486,2527.278Z" transform="translate(-410.444 -2525.698)" fill="#263238"/>
                                                    </g>
                                                  </g>
                                                </g>
                                              </g>
                                            </g>
                                          </g>
                                        </g>
                                      </g>
                                    </g>
                                  </g>
                                </g>
                              </g>
                            </g>
                          </g>
                        </g>
                      </g>
                    </g>
                  </g>
                </g>
              </g>
            </g>
            <g id="Grupo_112456" data-name="Grupo 112456" transform="translate(0 24.065)">
              <g id="Grupo_112439" data-name="Grupo 112439">
                <g id="Grupo_112438" data-name="Grupo 112438">
                  <g id="Grupo_112437" data-name="Grupo 112437">
                    <g id="Grupo_112436" data-name="Grupo 112436">
                      <g id="Grupo_112435" data-name="Grupo 112435">
                        <g id="Grupo_112434" data-name="Grupo 112434">
                          <g id="Grupo_112433" data-name="Grupo 112433">
                            <g id="Grupo_112432" data-name="Grupo 112432">
                              <g id="Grupo_112431" data-name="Grupo 112431">
                                <g id="Grupo_112430" data-name="Grupo 112430">
                                  <g id="Grupo_112429" data-name="Grupo 112429">
                                    <g id="Grupo_112428" data-name="Grupo 112428">
                                      <g id="Grupo_112427" data-name="Grupo 112427">
                                        <g id="Grupo_112426" data-name="Grupo 112426">
                                          <g id="Grupo_112425" data-name="Grupo 112425">
                                            <path id="Trazado_167739" data-name="Trazado 167739" d="M390.18,2543.711c-.009-.762-.905-2.551-1.66-2.662-2.013-.3-5.634-.1-5.622,5,.017,6.979,7.019,5.522,7.031,5.322C389.938,2551.219,390.21,2546.343,390.18,2543.711Z" transform="translate(-382.898 -2540.963)" fill="#ffbf9d"/>
                                          </g>
                                        </g>
                                      </g>
                                    </g>
                                  </g>
                                </g>
                              </g>
                            </g>
                          </g>
                        </g>
                      </g>
                    </g>
                  </g>
                </g>
              </g>
              <g id="Grupo_112455" data-name="Grupo 112455" transform="translate(1.171 2.193)">
                <g id="Grupo_112454" data-name="Grupo 112454">
                  <g id="Grupo_112453" data-name="Grupo 112453">
                    <g id="Grupo_112452" data-name="Grupo 112452">
                      <g id="Grupo_112451" data-name="Grupo 112451">
                        <g id="Grupo_112450" data-name="Grupo 112450">
                          <g id="Grupo_112449" data-name="Grupo 112449">
                            <g id="Grupo_112448" data-name="Grupo 112448">
                              <g id="Grupo_112447" data-name="Grupo 112447">
                                <g id="Grupo_112446" data-name="Grupo 112446">
                                  <g id="Grupo_112445" data-name="Grupo 112445">
                                    <g id="Grupo_112444" data-name="Grupo 112444">
                                      <g id="Grupo_112443" data-name="Grupo 112443">
                                        <g id="Grupo_112442" data-name="Grupo 112442">
                                          <g id="Grupo_112441" data-name="Grupo 112441">
                                            <g id="Grupo_112440" data-name="Grupo 112440">
                                              <path id="Trazado_167740" data-name="Trazado 167740" d="M388.065,2550.313c-.031-.022-.121.085-.326.18a1.214,1.214,0,0,1-.909.021,3.007,3.007,0,0,1-1.4-2.7,4.013,4.013,0,0,1,.336-1.742,1.4,1.4,0,0,1,.912-.935.62.62,0,0,1,.718.331c.094.2.05.335.087.346.019.018.149-.117.093-.405a.775.775,0,0,0-.276-.437.921.921,0,0,0-.673-.176,1.709,1.709,0,0,0-1.267,1.085,4.13,4.13,0,0,0-.417,1.947c.048,1.406.771,2.719,1.781,3.009a1.3,1.3,0,0,0,1.111-.188C388.053,2550.482,388.089,2550.326,388.065,2550.313Z" transform="translate(-384.944 -2544.795)" fill="#ff9a6c"/>
                                            </g>
                                          </g>
                                        </g>
                                      </g>
                                    </g>
                                  </g>
                                </g>
                              </g>
                            </g>
                          </g>
                        </g>
                      </g>
                    </g>
                  </g>
                </g>
              </g>
            </g>
          </g>
        </g>
        <g id="Grupo_112460" data-name="Grupo 112460" transform="translate(9.343 2.389)">
          <g id="Grupo_112459" data-name="Grupo 112459">
            <path id="Trazado_167741" data-name="Trazado 167741" d="M387.4,2522.13l1.884,1.719c7.16-7.787,20.9-27.017,20.135-25.875a22.245,22.245,0,0,0-10.971-.487c-5.609,1.328-16.185,4.854-15.593,11.532S387.4,2522.13,387.4,2522.13Z" transform="translate(-382.834 -2497.001)" fill="#263238"/>
          </g>
        </g>
        <g id="Grupo_112463" data-name="Grupo 112463" transform="translate(6.779 36.181)">
          <g id="Grupo_112462" data-name="Grupo 112462">
            <g id="Grupo_112461" data-name="Grupo 112461">
              <path id="Trazado_167742" data-name="Trazado 167742" d="M386.756,2564.686c.021.021-.142.249-.545.544a4.756,4.756,0,0,1-1.95.8,5.183,5.183,0,0,1-3.115-.427,5.171,5.171,0,0,1-2.3-6.766,5.182,5.182,0,0,1,2.209-2.238,4.76,4.76,0,0,1,2.033-.555,1.476,1.476,0,0,1,.764.1,7.24,7.24,0,0,0-2.6.812,4.992,4.992,0,0,0-1.929,2.113,4.761,4.761,0,0,0,2.061,6.059,4.986,4.986,0,0,0,2.817.5A7.221,7.221,0,0,0,386.756,2564.686Z" transform="translate(-378.355 -2556.044)" fill="#e0e0e0"/>
            </g>
          </g>
        </g>
        <g id="Grupo_112465" data-name="Grupo 112465" transform="translate(8.907 1.3)">
          <g id="Grupo_112464" data-name="Grupo 112464">
            <path id="Trazado_167743" data-name="Trazado 167743" d="M382.346,2527.425a14.787,14.787,0,0,0-.034-1.619,24.38,24.38,0,0,1,.3-4.377,29.772,29.772,0,0,1,5.763-13.117,47.392,47.392,0,0,1,10.562-9.864c1.522-1.069,2.79-1.886,3.67-2.446a11.461,11.461,0,0,0,1.347-.9,1.411,1.411,0,0,0-.386.17c-.243.128-.6.313-1.057.573-.911.512-2.21,1.288-3.765,2.328a44.664,44.664,0,0,0-10.75,9.854,28.91,28.91,0,0,0-5.717,13.355,21.206,21.206,0,0,0-.156,4.434c.022.523.1.925.134,1.2A1.416,1.416,0,0,0,382.346,2527.425Z" transform="translate(-382.073 -2495.098)" fill="#455a64"/>
          </g>
        </g>
        <g id="Grupo_112467" data-name="Grupo 112467" transform="translate(6.748 1.171)">
          <g id="Grupo_112466" data-name="Grupo 112466">
            <path id="Trazado_167744" data-name="Trazado 167744" d="M397.941,2494.875a1.483,1.483,0,0,0-.4.159c-.255.117-.623.3-1.093.549-.939.5-2.281,1.247-3.878,2.277a58.936,58.936,0,0,0-5.4,3.927,34.256,34.256,0,0,0-5.8,5.776,15.853,15.853,0,0,0-2.094,3.723,14.74,14.74,0,0,0-.9,3.879,23.123,23.123,0,0,0,.444,6.675c.378,1.867.812,3.343,1.121,4.358.156.507.286.9.379,1.161a1.446,1.446,0,0,0,.165.4,11.935,11.935,0,0,0-.366-1.607c-.255-1.027-.636-2.512-.969-4.369a23.782,23.782,0,0,1-.339-6.569,14.558,14.558,0,0,1,.895-3.755,15.674,15.674,0,0,1,2.042-3.608,35.25,35.25,0,0,1,5.7-5.721,66.2,66.2,0,0,1,5.3-3.985c1.565-1.06,2.875-1.853,3.784-2.4A12.9,12.9,0,0,0,397.941,2494.875Z" transform="translate(-378.301 -2494.873)" fill="#455a64"/>
          </g>
        </g>
        <g id="Grupo_112469" data-name="Grupo 112469" transform="translate(13.784 2.418)">
          <g id="Grupo_112468" data-name="Grupo 112468">
            <path id="Trazado_167745" data-name="Trazado 167745" d="M390.6,2522.334a6.533,6.533,0,0,0,.853-.937l2.185-2.663c1.828-2.261,4.327-5.4,7.064-8.893s5.2-6.667,6.956-8.981l2.066-2.755a6.564,6.564,0,0,0,.707-1.052,6.419,6.419,0,0,0-.851.936c-.575.7-1.307,1.592-2.185,2.661-1.828,2.262-4.329,5.406-7.068,8.9s-5.2,6.668-6.957,8.982l-2.065,2.755A6.387,6.387,0,0,0,390.6,2522.334Z" transform="translate(-390.595 -2497.052)" fill="#e0e0e0"/>
          </g>
        </g>
      </g>
      <g id="Grupo_112472" data-name="Grupo 112472" transform="translate(29.361 32.807)">
        <g id="Grupo_112471" data-name="Grupo 112471">
          <path id="Trazado_167746" data-name="Trazado 167746" d="M420.31,2550.451a3.53,3.53,0,0,0-2.491.541c-.073-.037.328-.624,1.132-.794A1.422,1.422,0,0,1,420.31,2550.451Z" transform="translate(-417.811 -2550.149)" fill="#ff9a6c"/>
        </g>
      </g>
      <g id="Grupo_112474" data-name="Grupo 112474" transform="translate(21.996 24.136)">
        <g id="Grupo_112473" data-name="Grupo 112473">
          <path id="Trazado_167747" data-name="Trazado 167747" d="M407.542,2535.2a3.693,3.693,0,0,1-2.6-.159,13.851,13.851,0,0,1,2.6.159Z" transform="translate(-404.943 -2534.998)" fill="#ff9a6c"/>
        </g>
      </g>
      <g id="Grupo_112476" data-name="Grupo 112476" transform="translate(22.465 24.76)">
        <g id="Grupo_112475" data-name="Grupo 112475">
          <path id="Trazado_167748" data-name="Trazado 167748" d="M407.574,2536.145c.011.083-.393.2-.881.358s-.889.284-.928.209.322-.333.839-.494S407.565,2536.065,407.574,2536.145Z" transform="translate(-405.762 -2536.089)" fill="#ff9a6c"/>
        </g>
      </g>
      <g id="Grupo_112478" data-name="Grupo 112478" transform="translate(44.049 23.509)">
        <g id="Grupo_112477" data-name="Grupo 112477">
          <path id="Trazado_167749" data-name="Trazado 167749" d="M445.066,2533.934c.029.077-.3.271-.743.431s-.818.229-.846.152.3-.271.743-.432S445.038,2533.857,445.066,2533.934Z" transform="translate(-443.474 -2533.902)" fill="#ff9a6c"/>
        </g>
      </g>
      <g id="Grupo_112480" data-name="Grupo 112480" transform="translate(43.997 24.349)">
        <g id="Grupo_112479" data-name="Grupo 112479">
          <path id="Trazado_167750" data-name="Trazado 167750" d="M444.924,2535.934c-.027.078-.393.023-.817-.124s-.747-.327-.721-.405.393-.022.817.123S444.951,2535.856,444.924,2535.934Z" transform="translate(-443.384 -2535.37)" fill="#ff9a6c"/>
        </g>
      </g>
    </g>
    <g id="Grupo_112483" data-name="Grupo 112483" transform="translate(192.502 2675.038)">
      <g id="Grupo_112482" data-name="Grupo 112482">
        <path id="Trazado_167751" data-name="Trazado 167751" d="M453.481,2860.458c0,.082-58.427.149-130.483.149-72.082,0-130.5-.067-130.5-.149s58.414-.149,130.5-.149C395.054,2860.309,453.481,2860.376,453.481,2860.458Z" transform="translate(-192.502 -2860.309)" fill="#263238"/>
      </g>
    </g>
  </g>
</svg>
