<svg xmlns="http://www.w3.org/2000/svg" width="400" height="466.112" viewBox="0 0 400 466.112">
  <g id="Grupo_128090" data-name="Grupo 128090" transform="translate(-5079.5 11181.837)">
    <path id="Trazado_172625" data-name="Trazado 172625" d="M15,0H385a15,15,0,0,1,15,15V451.112a15,15,0,0,1-15,15H15a15,15,0,0,1-15-15V15A15,15,0,0,1,15,0Z" transform="translate(5079.5 -11181.837)" fill="#ffe5cf"/>
    <path id="Trazado_172626" data-name="Trazado 172626" d="M90.5,0C140.482,0,181,40.742,181,91s-40.518,91-90.5,91S0,141.258,0,91,40.518,0,90.5,0Z" transform="translate(5190 -11123.837)" fill="#ffb476"/>
    <path id="Trazado_172630" data-name="Trazado 172630" d="M18.5,0h253a18.5,18.5,0,0,1,0,37H18.5a18.5,18.5,0,0,1,0-37Z" transform="translate(5136 -10913.837)" fill="#fff"/>
    <path id="Feature_One" data-name="Feature One" d="M29.847,6.2l2.856,8.9,2.848-8.9h4.061V19H36.518V16.012l.3-6.117L33.723,19H31.684l-3.1-9.114.3,6.126V19H25.8V6.2ZM46.037,19.176a4.889,4.889,0,0,1-3.542-1.305,4.507,4.507,0,0,1-1.354-3.4v-.246a5.84,5.84,0,0,1,.541-2.575,3.955,3.955,0,0,1,1.578-1.727,4.763,4.763,0,0,1,2.461-.611,4.117,4.117,0,0,1,3.164,1.244,4.887,4.887,0,0,1,1.16,3.467v1.151H44.156a2.135,2.135,0,0,0,.694,1.257,2.066,2.066,0,0,0,1.389.457,2.662,2.662,0,0,0,2.2-.984l1.354,1.6a3.784,3.784,0,0,1-1.569,1.217A5.3,5.3,0,0,1,46.037,19.176ZM45.7,11.6q-1.3,0-1.547,1.723h2.988v-.229a1.467,1.467,0,0,0-.36-1.1A1.434,1.434,0,0,0,45.7,11.6Zm8.982-4.474V9.49H56.25v2.057H54.685V15.9a1.111,1.111,0,0,0,.193.747,1.037,1.037,0,0,0,.765.211,4.345,4.345,0,0,0,.738-.053v2.118a5.466,5.466,0,0,1-1.67.255,3.1,3.1,0,0,1-2.259-.721,2.954,2.954,0,0,1-.729-2.188v-4.72H50.51V9.49h1.213V7.126Zm2.092,7.031a5.613,5.613,0,0,1,.554-2.536,3.96,3.96,0,0,1,1.591-1.709,4.791,4.791,0,0,1,2.435-.6,4.373,4.373,0,0,1,3.366,1.323,5.076,5.076,0,0,1,1.23,3.6v.105a4.925,4.925,0,0,1-1.235,3.529,4.384,4.384,0,0,1-3.344,1.305,4.434,4.434,0,0,1-3.261-1.217,4.761,4.761,0,0,1-1.327-3.3Zm2.962.185a3.538,3.538,0,0,0,.413,1.934,1.376,1.376,0,0,0,1.222.615q1.582,0,1.617-2.435v-.3q0-2.558-1.635-2.558-1.485,0-1.608,2.206Zm7.146-.167a5.809,5.809,0,0,1,.976-3.56,3.211,3.211,0,0,1,2.725-1.3,2.731,2.731,0,0,1,2.145,1V5.5H75.7V19H73.037l-.149-1.02a2.8,2.8,0,0,1-2.32,1.2,3.205,3.205,0,0,1-2.689-1.3A5.993,5.993,0,0,1,66.884,14.175Zm2.962.185q0,2.531,1.477,2.531a1.458,1.458,0,0,0,1.406-.826V12.443A1.419,1.419,0,0,0,71.34,11.6q-1.371,0-1.485,2.215Zm7.163-.2a5.613,5.613,0,0,1,.554-2.536,3.96,3.96,0,0,1,1.591-1.709,4.791,4.791,0,0,1,2.435-.6,4.373,4.373,0,0,1,3.366,1.323,5.076,5.076,0,0,1,1.23,3.6v.105a4.925,4.925,0,0,1-1.235,3.529,4.384,4.384,0,0,1-3.344,1.305,4.434,4.434,0,0,1-3.261-1.217,4.761,4.761,0,0,1-1.327-3.3Zm2.962.185a3.538,3.538,0,0,0,.413,1.934,1.376,1.376,0,0,0,1.222.615q1.582,0,1.617-2.435v-.3q0-2.558-1.635-2.558-1.485,0-1.608,2.206ZM90.615,19H87.644V5.5h2.971Zm1.45-4.843a5.613,5.613,0,0,1,.554-2.536,3.96,3.96,0,0,1,1.591-1.709,4.791,4.791,0,0,1,2.435-.6,4.373,4.373,0,0,1,3.366,1.323,5.076,5.076,0,0,1,1.23,3.6v.105a4.925,4.925,0,0,1-1.235,3.529,4.384,4.384,0,0,1-3.344,1.305A4.434,4.434,0,0,1,93.4,17.958a4.761,4.761,0,0,1-1.327-3.3Zm2.962.185a3.538,3.538,0,0,0,.413,1.934,1.376,1.376,0,0,0,1.222.615q1.582,0,1.617-2.435v-.3q0-2.558-1.635-2.558-1.485,0-1.608,2.206Zm7.172-.167a6.421,6.421,0,0,1,.475-2.549,3.821,3.821,0,0,1,1.362-1.709,3.591,3.591,0,0,1,2.065-.6,2.855,2.855,0,0,1,2.32,1l.105-.826h2.689V18.64a4.009,4.009,0,0,1-.584,2.184,3.75,3.75,0,0,1-1.692,1.424,6.219,6.219,0,0,1-2.566.5,5.365,5.365,0,0,1-2.026-.4,3.657,3.657,0,0,1-1.5-1.028l1.239-1.74a2.716,2.716,0,0,0,2.18.976,1.764,1.764,0,0,0,1.969-2.021v-.3a2.781,2.781,0,0,1-2.153.94,3.437,3.437,0,0,1-2.812-1.332A5.517,5.517,0,0,1,102.2,14.28Zm2.971.185a3.383,3.383,0,0,0,.439,1.85,1.387,1.387,0,0,0,1.23.681,1.573,1.573,0,0,0,1.4-.642v-4a1.534,1.534,0,0,0-1.38-.65,1.4,1.4,0,0,0-1.239.708A3.858,3.858,0,0,0,105.169,14.359ZM116.129,19H113.15V9.49h2.979ZM115.022,5.676h3.129l-2.443,2.76-2.417,0ZM123.389,19a3.344,3.344,0,0,1-.281-.853,2.754,2.754,0,0,1-2.285,1.028,3.374,3.374,0,0,1-2.285-.813,2.588,2.588,0,0,1-.94-2.043,2.66,2.66,0,0,1,1.143-2.338,5.821,5.821,0,0,1,3.322-.791h.914v-.5q0-1.316-1.134-1.316a.927.927,0,0,0-1.055,1.042h-2.962A2.655,2.655,0,0,1,119,10.175a4.931,4.931,0,0,1,2.993-.86,4.323,4.323,0,0,1,2.874.888,3.086,3.086,0,0,1,1.081,2.435v4.21a4.311,4.311,0,0,0,.4,2V19Zm-1.854-1.934a1.652,1.652,0,0,0,.918-.237,1.487,1.487,0,0,0,.523-.536V14.772h-.861q-1.547,0-1.547,1.389a.848.848,0,0,0,.272.655A.986.986,0,0,0,121.535,17.066Zm16.286-4.9-.976-.07a1.752,1.752,0,0,0-1.793.879V19H132.09V9.49h2.777l.1,1.222a2.294,2.294,0,0,1,2.083-1.4,2.888,2.888,0,0,1,.826.105Zm4.3,6.829h-2.979V9.49h2.979ZM141.011,5.676h3.129L141.7,8.436l-2.417,0Zm2.663,8.5a6.421,6.421,0,0,1,.475-2.549,3.821,3.821,0,0,1,1.362-1.709,3.591,3.591,0,0,1,2.065-.6,2.855,2.855,0,0,1,2.32,1L150,9.49h2.689V18.64a4.009,4.009,0,0,1-.584,2.184,3.75,3.75,0,0,1-1.692,1.424,6.219,6.219,0,0,1-2.566.5,5.365,5.365,0,0,1-2.026-.4,3.657,3.657,0,0,1-1.5-1.028l1.239-1.74a2.716,2.716,0,0,0,2.18.976,1.764,1.764,0,0,0,1.969-2.021v-.3a2.781,2.781,0,0,1-2.153.94,3.437,3.437,0,0,1-2.812-1.332,5.517,5.517,0,0,1-1.072-3.564Zm2.971.185a3.383,3.383,0,0,0,.439,1.85,1.387,1.387,0,0,0,1.23.681,1.573,1.573,0,0,0,1.4-.642v-4a1.534,1.534,0,0,0-1.38-.65,1.4,1.4,0,0,0-1.239.708A3.858,3.858,0,0,0,146.645,14.359ZM157.5,19h-2.971V9.49H157.5ZM154.353,7.038A1.322,1.322,0,0,1,154.81,6a1.943,1.943,0,0,1,2.373,0,1.322,1.322,0,0,1,.457,1.037,1.322,1.322,0,0,1-.457,1.037,1.943,1.943,0,0,1-2.373,0A1.322,1.322,0,0,1,154.353,7.038Zm4.6,7.137a5.809,5.809,0,0,1,.976-3.56,3.211,3.211,0,0,1,2.725-1.3,2.731,2.731,0,0,1,2.145,1V5.5h2.971V19H165.1l-.149-1.02a2.8,2.8,0,0,1-2.32,1.2,3.205,3.205,0,0,1-2.689-1.3A5.993,5.993,0,0,1,158.95,14.175Zm2.962.185q0,2.531,1.477,2.531a1.458,1.458,0,0,0,1.406-.826V12.443a1.419,1.419,0,0,0-1.389-.844q-1.371,0-1.485,2.215ZM174.805,19a3.344,3.344,0,0,1-.281-.853,2.754,2.754,0,0,1-2.285,1.028,3.374,3.374,0,0,1-2.285-.813,2.588,2.588,0,0,1-.94-2.043,2.66,2.66,0,0,1,1.143-2.338,5.821,5.821,0,0,1,3.322-.791h.914v-.5q0-1.316-1.134-1.316a.927.927,0,0,0-1.055,1.042h-2.962a2.655,2.655,0,0,1,1.173-2.239,4.931,4.931,0,0,1,2.993-.86,4.323,4.323,0,0,1,2.874.888,3.086,3.086,0,0,1,1.081,2.435v4.21a4.311,4.311,0,0,0,.4,2V19Zm-1.854-1.934a1.652,1.652,0,0,0,.918-.237,1.487,1.487,0,0,0,.523-.536V14.772h-.861q-1.547,0-1.547,1.389a.848.848,0,0,0,.272.655A.986.986,0,0,0,172.951,17.066Z" transform="translate(5180 -10907.837)" fill="#12263f"/>
    <path id="Trazado_167786" data-name="Trazado 167786" d="M269.941,37.6H200V27.886A3.886,3.886,0,0,1,203.886,24h62.17a3.886,3.886,0,0,1,3.886,3.886Z" transform="translate(5067.401 -11115.669)" fill="#2efec7"/>
    <path id="Trazado_167787" data-name="Trazado 167787" d="M269.941,80v66.056a3.886,3.886,0,0,1-3.886,3.886h-62.17A3.886,3.886,0,0,1,200,146.056V80Z" transform="translate(5067.401 -11158.068)" fill="#e0edff"/>
    <path id="Trazado_167788" data-name="Trazado 167788" d="M89.714,233.485V229.6a3.886,3.886,0,0,0,3.886-3.886V216H80v17.485Z" transform="translate(5158.258 -11261.041)" fill="#ffceb6"/>
    <path id="Trazado_167789" data-name="Trazado 167789" d="M67.886,201.485,64,195.657v-3.886A7.771,7.771,0,0,1,71.771,184h9.714a3.886,3.886,0,0,1,0,7.771H77.6l-3.886,9.714Z" transform="translate(5170.373 -11236.813)" fill="#c47220"/>
    <path id="Trazado_167790" data-name="Trazado 167790" d="M95.522,212.876l-1.581,4.743v7.771L81.5,241.972A16.827,16.827,0,0,1,61.79,247.5l-1.018-.408-5.688-2.273V262.3l-1.943,5.828h-27.2L24,262.3V238.99a9.714,9.714,0,0,1,9.714-9.714H55.194a7.787,7.787,0,0,1,3.475.821l7.73,3.866,2.285,1.141,13.6-11.657v-3.886a3.881,3.881,0,0,1,3.886-3.886l6.489-4.867a1.85,1.85,0,0,1,2.863,2.067Z" transform="translate(5200.659 -11256.832)" fill="#ffceb6"/>
    <path id="Trazado_167791" data-name="Trazado 167791" d="M32,448H59.2v11.657H32Z" transform="translate(5194.602 -11436.699)" fill="#718799"/>
    <path id="Trazado_167792" data-name="Trazado 167792" d="M66.4,292.687l-5.627,13.129-5.688-2.273v17.485l-1.943,5.828h-27.2L24,321.028V297.714A9.714,9.714,0,0,1,33.714,288H55.194a7.787,7.787,0,0,1,3.475.821Z" transform="translate(5200.659 -11315.556)" fill="#2efec7"/>
    <path id="Trazado_167793" data-name="Trazado 167793" d="M89.438,200.48a1.943,1.943,0,0,0,.388-1.166v-7.456l1.482-4.445a3.772,3.772,0,0,0-.916-3.881,3.811,3.811,0,0,0-4.958-.353l-6.026,4.52a5.837,5.837,0,0,0-5.125,5.786v2.992L62.342,206.713l-8.862-4.431a9.764,9.764,0,0,0-4.344-1.026H43.2v-.333a5.838,5.838,0,0,0,3.886-5.5v-8.105A5.828,5.828,0,0,0,45.142,176H35.428a9.725,9.725,0,0,0-9.714,9.714V189.6a1.943,1.943,0,0,0,.326,1.078l3.559,5.339v5.24H27.657A11.67,11.67,0,0,0,16,212.914v23.314a1.945,1.945,0,0,0,.1.614l1.843,5.53v11.341h3.886V244H45.142v9.714h3.886V242.371l1.843-5.53a1.945,1.945,0,0,0,.1-.614V221.612l4.04,1.616A18.774,18.774,0,0,0,77,217.061ZM29.6,185.714a5.835,5.835,0,0,1,5.828-5.828h9.714a1.943,1.943,0,0,1,0,3.886H41.256a1.943,1.943,0,0,0-1.8,1.221l-3.4,8.493H32.582L29.6,189.012Zm3.886,11.657h3.886a1.943,1.943,0,0,0,1.8-1.221l3.4-8.493H43.2v7.771a1.945,1.945,0,0,1-1.943,1.943,1.943,1.943,0,0,0-1.943,1.943v1.943H33.485Zm16.264,19.567a1.943,1.943,0,0,0-2.664,1.8v17.17l-1.4,4.2h-24.4l-1.4-4.2v-23a7.78,7.78,0,0,1,7.771-7.771H49.136a5.857,5.857,0,0,1,2.606.615l6.092,3.046-4.159,9.7Zm24.144-2.209a14.874,14.874,0,0,1-16.6,5.2l4.02-9.38.443.221a1.942,1.942,0,0,0,2.133-.263l13.6-11.657a1.943,1.943,0,0,0,.679-1.475v-3.886a1.945,1.945,0,0,1,1.943-1.943,1.942,1.942,0,0,0,1.166-.389l6.25-4.687-1.487,4.461a1.946,1.946,0,0,0-.1.614v7.124Z" transform="translate(5206.716 -11230.755)"/>
    <path id="Trazado_167794" data-name="Trazado 167794" d="M260,16h-62.17A5.835,5.835,0,0,0,192,21.828V80.113h3.886V33.485h66.056V97.6A1.945,1.945,0,0,1,260,99.541H209.485v3.886H260a5.835,5.835,0,0,0,5.828-5.828V21.828A5.835,5.835,0,0,0,260,16ZM195.886,29.6V21.828a1.945,1.945,0,0,1,1.943-1.943H260a1.945,1.945,0,0,1,1.943,1.943V29.6Z" transform="translate(5073.458 -11109.611)"/>
    <path id="Trazado_172631" data-name="Trazado 172631" d="M1.8,0A1.8,1.8,0,1,1,0,1.8,1.8,1.8,0,0,1,1.8,0Z" transform="translate(5271.479 -11087.841)"/>
    <path id="Trazado_172632" data-name="Trazado 172632" d="M1.8,0A1.8,1.8,0,1,1,0,1.8,1.8,1.8,0,0,1,1.8,0Z" transform="translate(5277.25 -11087.841)"/>
    <path id="Trazado_172633" data-name="Trazado 172633" d="M1.8,0A1.8,1.8,0,1,1,0,1.8,1.8,1.8,0,0,1,1.8,0Z" transform="translate(5283.021 -11087.841)"/>
    <path id="Trazado_167795" data-name="Trazado 167795" d="M237.828,113.545V109.66h-3.886A1.943,1.943,0,0,0,232,111.6V123.26a1.943,1.943,0,0,0,1.943,1.943H245.6a1.943,1.943,0,0,0,1.943-1.943V112.407l3.317-3.317-2.748-2.748L236.455,118l2.748,2.748,4.455-4.455v5.024h-7.771v-7.771Z" transform="translate(5043.172 -11178.015)"/>
    <path id="Trazado_167796" data-name="Trazado 167796" d="M320,128h7.771v3.886H320Z" transform="translate(4976.543 -11194.412)"/>
    <path id="Trazado_167797" data-name="Trazado 167797" d="M368,128h21.371v3.886H368Z" transform="translate(4940.2 -11194.412)"/>
    <path id="Trazado_167798" data-name="Trazado 167798" d="M320,160h15.542v3.886H320Z" transform="translate(4976.543 -11218.641)"/>
    <path id="Trazado_167799" data-name="Trazado 167799" d="M400,160h3.886v3.886H400Z" transform="translate(4915.971 -11218.641)"/>
    <path id="Trazado_167800" data-name="Trazado 167800" d="M408,208h11.657v3.886H408Z" transform="translate(4909.914 -11254.984)"/>
    <path id="Trazado_167801" data-name="Trazado 167801" d="M344,208h11.657v3.886H344Z" transform="translate(4958.371 -11254.984)"/>
    <path id="Trazado_167802" data-name="Trazado 167802" d="M336,240h19.428v3.886H336Z" transform="translate(4964.429 -11279.213)"/>
    <path id="Trazado_167803" data-name="Trazado 167803" d="M432,240h3.886v3.886H432Z" transform="translate(4891.742 -11279.213)"/>
    <path id="Trazado_167804" data-name="Trazado 167804" d="M408,288h11.657v3.886H408Z" transform="translate(4909.914 -11315.556)"/>
    <path id="Trazado_167805" data-name="Trazado 167805" d="M344,288h11.657v3.886H344Z" transform="translate(4958.371 -11315.556)"/>
    <path id="Trazado_167806" data-name="Trazado 167806" d="M336,320h19.428v3.886H336Z" transform="translate(4964.429 -11339.784)"/>
    <path id="Trazado_167807" data-name="Trazado 167807" d="M432,320h3.886v3.886H432Z" transform="translate(4891.742 -11339.784)"/>
  </g>
</svg>
