<svg xmlns="http://www.w3.org/2000/svg" width="83.507" height="73.783" viewBox="0 0 83.507 73.783">
  <g id="desarrollador-de-software_1_" data-name="desarrollador-de-software(1)" transform="translate(0 -29.809)">
    <g id="Grupo_111645" data-name="Grupo 111645" transform="translate(1.631 39.936)">
      <path id="Trazado_167292" data-name="Trazado 167292" d="M12.995,91.9A3.035,3.035,0,0,0,10,95.063v43.231a2.964,2.964,0,0,0,2.995,2.828H71.7a2.964,2.964,0,0,0,2.995-2.828V116.008H71.97a2.235,2.235,0,0,1-2.234-2.236V112.18a2.424,2.424,0,0,0-3.593-2.074l-1.38.8a2.234,2.234,0,0,1-3.053-.819l-2.572-4.453a2.236,2.236,0,0,1,.817-3.053l1.38-.8a2.451,2.451,0,0,0,0-4.149l-1.378-.8a2.236,2.236,0,0,1-.819-3.053L60.225,91.9H12.995Z" transform="translate(-10 -91.901)" fill="#fff"/>
    </g>
    <g id="Grupo_111646" data-name="Grupo 111646" transform="translate(1.631 80.857)">
      <path id="Trazado_167293" data-name="Trazado 167293" d="M74.691,342.795v5.472a2.965,2.965,0,0,1-3,2.828h-58.7A2.965,2.965,0,0,1,10,348.267v-5.472Z" transform="translate(-10 -342.795)" fill="#ced3dd"/>
    </g>
    <g id="Grupo_111650" data-name="Grupo 111650" transform="translate(20.671 89.157)">
      <g id="Grupo_111647" data-name="Grupo 111647" transform="translate(1.907)">
        <path id="Trazado_167294" data-name="Trazado 167294" d="M158.2,402.322l-1.007-8.639H144.126l-1.007,8.639a4.691,4.691,0,0,1-4.666,4.16c-.08,0,.08,0,0,0h24.415c-.08,0,.08,0,0,0A4.691,4.691,0,0,1,158.2,402.322Z" transform="translate(-138.43 -393.683)" fill="#868eaf"/>
      </g>
      <g id="Grupo_111648" data-name="Grupo 111648" transform="translate(0 12.803)">
        <path id="Trazado_167295" data-name="Trazado 167295" d="M128.669,472.183h-1.93" transform="translate(-126.739 -472.183)" fill="#7ba8bd"/>
      </g>
      <g id="Grupo_111649" data-name="Grupo 111649" transform="translate(26.345 12.803)">
        <path id="Trazado_167296" data-name="Trazado 167296" d="M290.193,472.183h-1.93" transform="translate(-288.263 -472.183)" fill="#7ba8bd"/>
      </g>
    </g>
    <g id="Grupo_111651" data-name="Grupo 111651" transform="translate(50.469 31.44)">
      <path id="Trazado_167297" data-name="Trazado 167297" d="M310.555,53.241l1.379.8a2.451,2.451,0,0,1,0,4.148l-1.38.8a2.235,2.235,0,0,0-.818,3.053l2.572,4.454a2.235,2.235,0,0,0,3.053.819l1.38-.8a2.423,2.423,0,0,1,3.592,2.073v1.594a2.235,2.235,0,0,0,2.235,2.235h5.144a2.235,2.235,0,0,0,2.235-2.235V68.584a2.423,2.423,0,0,1,3.592-2.073l1.38.8a2.235,2.235,0,0,0,3.053-.819l2.572-4.454a2.235,2.235,0,0,0-.819-3.053l-1.379-.8a2.451,2.451,0,0,1,0-4.148l1.379-.8a2.235,2.235,0,0,0,.819-3.053l-2.572-4.455a2.234,2.234,0,0,0-3.053-.818l-1.38.8a2.423,2.423,0,0,1-3.592-2.073V42.044a2.235,2.235,0,0,0-2.235-2.235h-5.144a2.235,2.235,0,0,0-2.235,2.235v1.594a2.423,2.423,0,0,1-3.592,2.073l-1.38-.8a2.234,2.234,0,0,0-3.053.818l-2.572,4.455a2.235,2.235,0,0,0,.819,3.053Zm14.585-2.292a5.162,5.162,0,1,1-5.162,5.162A5.163,5.163,0,0,1,325.139,50.949Z" transform="translate(-309.436 -39.809)" fill="#ced3dd"/>
    </g>
    <g id="Grupo_111652" data-name="Grupo 111652" transform="translate(0 29.809)">
      <path id="Trazado_167298" data-name="Trazado 167298" d="M61.634,126.628a1.631,1.631,0,0,0-2.306.057l-4.636,4.872a1.631,1.631,0,0,0,0,2.249l4.636,4.872a1.631,1.631,0,0,0,2.363-2.249l-3.566-3.748,3.566-3.748a1.631,1.631,0,0,0-.057-2.306Z" transform="translate(-45.395 -110.461)"/>
      <path id="Trazado_167299" data-name="Trazado 167299" d="M195.509,138.735a1.647,1.647,0,0,0,2.306-.057l4.636-4.872a1.631,1.631,0,0,0,0-2.249l-4.636-4.872a1.631,1.631,0,1,0-2.363,2.249l3.566,3.748-3.566,3.748A1.631,1.631,0,0,0,195.509,138.735Z" transform="translate(-163.197 -110.461)"/>
      <path id="Trazado_167300" data-name="Trazado 167300" d="M121.8,138.941a1.647,1.647,0,0,0,2.244-.533l6-9.744a1.631,1.631,0,1,0-2.777-1.711l-6,9.744A1.631,1.631,0,0,0,121.8,138.941Z" transform="translate(-101.283 -110.459)"/>
      <path id="Trazado_167301" data-name="Trazado 167301" d="M83.773,231.017h-27.9a1.631,1.631,0,0,0,0,3.262h27.9a1.631,1.631,0,1,0,0-3.262Z" transform="translate(-45.395 -198.2)"/>
      <path id="Trazado_167302" data-name="Trazado 167302" d="M55.873,281.762a1.631,1.631,0,0,0,0,3.262H75.828a1.631,1.631,0,1,0,0-3.262Z" transform="translate(-45.395 -240.668)"/>
      <path id="Trazado_167303" data-name="Trazado 167303" d="M230.243,283.393a1.631,1.631,0,0,0,1.631,1.631h13.933a1.631,1.631,0,0,0,0-3.262H231.874A1.631,1.631,0,0,0,230.243,283.393Z" transform="translate(-192.69 -240.668)"/>
      <path id="Trazado_167304" data-name="Trazado 167304" d="M166.2,84.179a1.63,1.63,0,1,0,.722-2.054A1.642,1.642,0,0,0,166.2,84.179Z" transform="translate(-138.987 -73.428)"/>
      <path id="Trazado_167305" data-name="Trazado 167305" d="M270.4,233.591a1.631,1.631,0,1,0,.45-2.26A1.65,1.65,0,0,0,270.4,233.591Z" transform="translate(-226.073 -198.238)"/>
      <path id="Trazado_167306" data-name="Trazado 167306" d="M81.574,49.2,80.2,48.4a.823.823,0,0,1,0-1.323l1.379-.8A3.871,3.871,0,0,0,82.99,41l-2.572-4.455a3.907,3.907,0,0,0-5.28-1.415l-1.38.8a.8.8,0,0,1-1.145-.661V33.675a3.871,3.871,0,0,0-3.866-3.866H63.6a3.871,3.871,0,0,0-3.866,3.866v1.594a.8.8,0,0,1-1.145.661l-1.38-.8a3.907,3.907,0,0,0-5.281,1.414l-1.014,1.757h-14.9a1.631,1.631,0,0,0,0,3.262H49.088a3.906,3.906,0,0,0,1.685,4.718l1.379.8a.824.824,0,0,1,0,1.323l-1.382.8a3.871,3.871,0,0,0-1.413,5.281l2.572,4.453a3.907,3.907,0,0,0,5.282,1.417l1.38-.8a.8.8,0,0,1,1.145.661v1.594a3.9,3.9,0,0,0,3.809,3.866l1.145.07V79.226H3.262V43.1a1.406,1.406,0,0,1,1.364-1.531H21.371a1.631,1.631,0,1,0,0-3.262H4.626A4.661,4.661,0,0,0,0,43.1V86.329H0a4.606,4.606,0,0,0,4.626,4.459H26.442l-.795,6.823a3.058,3.058,0,0,1-3.041,2.714h0a.583.583,0,0,0-.067,0l-1.865,0a1.631,1.631,0,0,0,0,3.262H48.946a1.631,1.631,0,1,0,0-3.262l-1.865,0h-.07a3.058,3.058,0,0,1-3.041-2.714v0l-.794-6.819H63.326a4.607,4.607,0,0,0,4.627-4.459V65.675h.793a3.871,3.871,0,0,0,3.866-3.866V60.214a.8.8,0,0,1,1.145-.661l1.381.8a3.907,3.907,0,0,0,5.281-1.416l2.573-4.454A3.871,3.871,0,0,0,81.574,49.2ZM64.69,82.488v3.841a1.338,1.338,0,0,1-1.364,1.2H4.626a1.338,1.338,0,0,1-1.364-1.2V82.488ZM40.729,97.982a6.315,6.315,0,0,0,.75,2.347H28.139a6.3,6.3,0,0,0,.749-2.345l.839-7.2H39.891ZM80.165,52.85,77.592,57.3a.607.607,0,0,1-.824.222l-1.381-.8a4.086,4.086,0,0,0-6.038,3.486v1.594a.6.6,0,0,1-.6.6H63.6a.609.609,0,0,1-.6-.6V60.215a4.087,4.087,0,0,0-6.039-3.486l-1.38.8a.61.61,0,0,1-.824-.222L52.182,52.85a.6.6,0,0,1,.22-.825l1.381-.8a4.106,4.106,0,0,0,0-6.972l-1.379-.8a.616.616,0,0,1-.222-.825l2.572-4.455a.607.607,0,0,1,.825-.221l1.38.8A4.086,4.086,0,0,0,63,35.269V33.675a.6.6,0,0,1,.6-.6h5.144a.6.6,0,0,1,.6.6v1.594a4.086,4.086,0,0,0,6.038,3.486l1.381-.8a.607.607,0,0,1,.825.221l2.572,4.455a.605.605,0,0,1-.222.825l-1.377.8a4.108,4.108,0,0,0,0,6.973l1.379.8a.606.606,0,0,1,.222.825Z" transform="translate(0 -29.809)"/>
      <path id="Trazado_167307" data-name="Trazado 167307" d="M370.857,98.108a6.793,6.793,0,1,0,6.794,6.793A6.8,6.8,0,0,0,370.857,98.108Zm0,10.324a3.531,3.531,0,1,1,0-7.062,3.576,3.576,0,0,1,3.532,3.531A3.536,3.536,0,0,1,370.857,108.432Z" transform="translate(-304.685 -86.968)"/>
    </g>
  </g>
</svg>
