<svg xmlns="http://www.w3.org/2000/svg" width="101" height="101" viewBox="0 0 101 101">
  <g id="Grupo_128095" data-name="Grupo 128095" transform="translate(-750 -3186)">
    <circle id="Elipse_1146" data-name="Elipse 1146" cx="50.5" cy="50.5" r="50.5" transform="translate(750 3186)" fill="#24cb9f"/>
    <g id="cambiar" transform="translate(765.816 3204)">
      <path id="Trazado_168027" data-name="Trazado 168027" d="M89.386,263.958,69.617,248.391a.9.9,0,0,0-1.46.709v10.351h-22.5c-5.426,0-10.989-1.5-15.1-5.073a.9.9,0,0,0-1.478.848,22.641,22.641,0,0,0,1.974,5.936c2.888,5.693,7.8,8.58,14.6,8.58H67.982v9.882a.9.9,0,0,0,1.443.721l19.944-14.958a.9.9,0,0,0,.017-1.43Z" transform="translate(-24.133 -216.202)" fill="#ffb476"/>
      <path id="Trazado_168028" data-name="Trazado 168028" d="M352.388,356.747l-2.578-2.03c-18.785,14.088-17.494,13.218-17.924,13.218a.9.9,0,0,1-.9-.9v5.381a.9.9,0,0,0,1.443.721l19.944-14.958a.9.9,0,0,0,.017-1.43Z" transform="translate(-287.134 -308.992)" fill="#cc905e"/>
      <path id="Trazado_168029" data-name="Trazado 168029" d="M72.729,38.989C71.075,30.2,65.554,24.473,56.152,24.473H33.826V14.59a.9.9,0,0,0-1.443-.722L12.439,28.827a.9.9,0,0,0-.017,1.43c21.3,16.768,19.88,15.76,20.328,15.76a.9.9,0,0,0,.9-.9V34.764h22.5c5.439,0,11,1.512,15.1,5.073A.9.9,0,0,0,72.729,38.989Z" transform="translate(-9.338 -11.923)" fill="#e22437"/>
      <g id="Grupo_113007" data-name="Grupo 113007" transform="translate(2.741 15.173)">
        <path id="Trazado_168030" data-name="Trazado 168030" d="M32.75,131.632c-.447,0,.869.93-18-13.929l-2.309,1.731a.9.9,0,0,0-.017,1.43l19.77,15.567a.9.9,0,0,0,1.46-.709V130.73A.9.9,0,0,1,32.75,131.632Z" transform="translate(-12.078 -117.703)" fill="#c61a33"/>
        <path id="Trazado_168031" data-name="Trazado 168031" d="M218.512,147.677a23.8,23.8,0,0,0-1.1-3.951c-.6-.149-5.135-5.267-15.474-5.267H184.954a5.213,5.213,0,0,1-1.073.082c-3.278,0-4.216,1.8-4.446,3.223v1.689h22.5c5.439,0,11,1.512,15.1,5.073A.9.9,0,0,0,218.512,147.677Z" transform="translate(-157.862 -135.783)" fill="#c61a33"/>
      </g>
      <path id="Trazado_168032" data-name="Trazado 168032" d="M63.077,304.639H45.66c-7.539,0-12.654-3.578-15.3-10.111a.9.9,0,0,0-1.281.976c1.655,8.79,7.175,14.516,16.576,14.516H67.987V308.74C67.822,307.149,66.95,304.639,63.077,304.639Z" transform="translate(-24.137 -256.48)" fill="#cc905e"/>
      <path id="Trazado_168033" data-name="Trazado 168033" d="M83.064,250.611,61.012,233.247a.963.963,0,0,0-1.557.756V245.2H43.923a.962.962,0,1,0,0,1.924H60.417a.962.962,0,0,0,.962-.962V235.985l19.512,15.364L61.205,266.112V256.4a.962.962,0,0,0-.962-.962H38.017c-8.651,0-13.88-5.126-15.522-13.487a19.211,19.211,0,0,0,2.089,1.541c5.91,3.783,12.059,3.625,15.555,3.625a.962.962,0,0,0,0-1.924c-2.728,0-8.782.3-14.431-3.266a14.224,14.224,0,0,1-3.746-3.269.963.963,0,0,0-1.75.578,23.5,23.5,0,0,0,2.381,9c2.1,4.163,6.472,9.125,15.423,9.125H59.281v10.672a.963.963,0,0,0,1.539.77l22.226-16.669a.963.963,0,0,0,.018-1.526Z" transform="translate(-16.423 -202.999)"/>
      <path id="Trazado_168034" data-name="Trazado 168034" d="M25.335,35V23.8H46.772A22.739,22.739,0,0,1,59.081,27.07a14.224,14.224,0,0,1,3.746,3.269.963.963,0,0,0,1.75-.578,23.494,23.494,0,0,0-2.382-9c-2.1-4.163-6.472-9.125-15.423-9.125H44.3a.962.962,0,0,0,0,1.924h2.468c8.652,0,13.88,5.127,15.522,13.487-4.234-3.6-9.9-5.166-15.522-5.166h-22.4a.962.962,0,0,0-.962.962V33.015L3.9,17.652,23.585,2.888V12.6a.962.962,0,0,0,.962.962h16.1a.962.962,0,0,0,0-1.924H25.509V.963a.963.963,0,0,0-1.539-.77L1.744,16.863a.963.963,0,0,0-.018,1.526L23.778,35.753A.963.963,0,0,0,25.335,35Z"/>
    </g>
  </g>
</svg>
