<svg id="software" xmlns="http://www.w3.org/2000/svg" width="57.83" height="52.047" viewBox="0 0 57.83 52.047">
  <rect id="Rectángulo_44994" data-name="Rectángulo 44994" width="50" height="29" transform="translate(6.415 0.771)" fill="#fff"/>
  <path id="Trazado_166817" data-name="Trazado 166817" d="M32.1,32.1A15.421,15.421,0,0,1,16.674,16.674V8H11.855A3.856,3.856,0,0,0,8,11.855V42.7a3.856,3.856,0,0,0,3.855,3.855H60.047A3.856,3.856,0,0,0,63.9,42.7V32.1Zm0,0" transform="translate(-7.036 -7.036)" fill="#f6f6f6"/>
  <path id="Trazado_166818" data-name="Trazado 166818" d="M167.132,335.711H144L148.819,328h13.494Zm0,0" transform="translate(-126.651 -288.483)" fill="#dae0e3"/>
  <path id="Trazado_166819" data-name="Trazado 166819" d="M83.855,392H114.7a3.856,3.856,0,0,1,3.855,3.855H80A3.856,3.856,0,0,1,83.855,392Zm0,0" transform="translate(-70.362 -344.772)" fill="#a8b7bd"/>
  <path id="Trazado_166820" data-name="Trazado 166820" d="M8,264H63.9v3.855a3.856,3.856,0,0,1-3.855,3.855H11.855A3.856,3.856,0,0,1,8,267.855Zm0,0" transform="translate(-7.036 -232.193)" fill="#a8b7bd"/>
  <path id="Trazado_166821" data-name="Trazado 166821" d="M274.313,66.6a6.565,6.565,0,0,0-.087-1.07l2.978-1.725-2.891-5.012-3,1.735a7.525,7.525,0,0,0-1.822-1.07V56h-5.783v3.46a7.534,7.534,0,0,0-1.85,1.07l-2.969-1.735L256,63.807l3.007,1.725a6.632,6.632,0,0,0,0,2.139L256,69.4l2.891,5.012,3-1.735a7.527,7.527,0,0,0,1.822,1.07V77.2h5.783v-3.46a7.533,7.533,0,0,0,1.851-1.07l2.969,1.735L277.2,69.4,274.2,67.672a6.6,6.6,0,0,0,.116-1.07ZM266.6,69.494a2.891,2.891,0,1,1,2.891-2.892A2.892,2.892,0,0,1,266.6,69.494Zm0,0" transform="translate(-225.157 -49.253)" fill="#2efec7"/>
  <path id="Trazado_166822" data-name="Trazado 166822" d="M86.829,87.711a6.286,6.286,0,0,0-.1-1.05l1.928-1.137-1.928-3.335-1.928,1.128a5.97,5.97,0,0,0-1.832-1.05V80H79.118v2.265a5.787,5.787,0,0,0-1.821,1.05L75.37,82.188l-1.928,3.335L75.37,86.66a5.263,5.263,0,0,0,0,2.1L73.442,89.9l1.928,3.335L77.3,92.106a5.787,5.787,0,0,0,1.821,1.05v2.265h3.855V93.156a5.966,5.966,0,0,0,1.86-1.05l1.928,1.128L88.69,89.9l-1.928-1.137a6.273,6.273,0,0,0,.067-1.05Zm-5.783,1.928a1.928,1.928,0,1,1,1.928-1.928A1.928,1.928,0,0,1,81.046,89.638Zm0,0" transform="translate(-64.594 -70.362)" fill="#2efec7"/>
  <g id="Grupo_111545" data-name="Grupo 111545">
    <path id="Trazado_166823" data-name="Trazado 166823" d="M53.011,0H4.819A4.819,4.819,0,0,0,0,4.819V35.662a4.819,4.819,0,0,0,4.819,4.819H20.434l-3.614,5.783H13.494a4.819,4.819,0,0,0-4.819,4.819.964.964,0,0,0,.964.964H48.192a.964.964,0,0,0,.964-.964,4.819,4.819,0,0,0-4.819-4.819H41.011L37.4,40.481H53.011a4.819,4.819,0,0,0,4.819-4.819V4.819A4.819,4.819,0,0,0,53.011,0ZM47.064,50.119h-36.3a2.892,2.892,0,0,1,2.728-1.928H44.336a2.892,2.892,0,0,1,2.728,1.928Zm-8.318-3.855H19.084L22.7,40.481H35.132ZM55.9,35.662a2.892,2.892,0,0,1-2.892,2.891H4.819a2.892,2.892,0,0,1-2.891-2.891V32.77H55.9Zm0-4.819H1.928V4.819A2.892,2.892,0,0,1,4.819,1.928H53.011A2.892,2.892,0,0,1,55.9,4.819Zm0,0" fill="#121313"/>
    <path id="Trazado_166824" data-name="Trazado 166824" d="M401.928,288.964a.964.964,0,1,1-.964-.964A.964.964,0,0,1,401.928,288.964Zm0,0" transform="translate(-351.808 -253.302)" fill="#121313"/>
    <path id="Trazado_166825" data-name="Trazado 166825" d="M369.928,288.964a.964.964,0,1,1-.964-.964A.964.964,0,0,1,369.928,288.964Zm0,0" transform="translate(-323.664 -253.302)" fill="#121313"/>
    <path id="Trazado_166826" data-name="Trazado 166826" d="M79.52,86.679l1.928-3.335a.964.964,0,0,0-.347-1.321l-1.378-.809v-1.08l1.4-.809A.964.964,0,0,0,81.467,78L79.54,74.67a.964.964,0,0,0-1.311-.357l-1.4.81a6.341,6.341,0,0,0-.964-.54V72.964A.964.964,0,0,0,74.9,72H71.048a.964.964,0,0,0-.964.964v1.619a6.34,6.34,0,0,0-.964.54l-1.407-.81a.964.964,0,0,0-1.311.357L64.475,78a.964.964,0,0,0,.347,1.321l1.4.809v1.08l-1.4.809a.964.964,0,0,0-.347,1.321L66.4,86.679a.964.964,0,0,0,1.311.357l1.407-.81a6.34,6.34,0,0,0,.964.54v1.619a.964.964,0,0,0,.964.964H74.9a.964.964,0,0,0,.964-.964V86.766a6.34,6.34,0,0,0,.964-.54l1.407.81a.964.964,0,0,0,1.282-.357Zm-3.412-2.342a4.9,4.9,0,0,1-1.523.877.964.964,0,0,0-.646.906v1.3H72.012v-1.3a.963.963,0,0,0-.646-.906,4.9,4.9,0,0,1-1.523-.877.964.964,0,0,0-1.108-.106l-1.118.656-.964-1.677,1.118-.607a.964.964,0,0,0,.472-1.012,4.493,4.493,0,0,1,0-1.754.963.963,0,0,0-.472-1.089L66.653,78.1l.964-1.677,1.118.656a.963.963,0,0,0,1.108-.106,4.9,4.9,0,0,1,1.523-.877.963.963,0,0,0,.646-.906V73.928H73.94v1.3a.964.964,0,0,0,.646.906,4.9,4.9,0,0,1,1.523.877.964.964,0,0,0,1.108.106l1.118-.656L79.3,78.14l-1.118.607a.964.964,0,0,0-.472,1.012,4.492,4.492,0,0,1,0,1.754A.963.963,0,0,0,78.18,82.6l1.118.646-.964,1.677-1.118-.656A.964.964,0,0,0,76.108,84.337Zm0,0" transform="translate(-56.591 -63.326)" fill="#121313"/>
    <path id="Trazado_166827" data-name="Trazado 166827" d="M114.892,120a2.892,2.892,0,1,0,2.891,2.891A2.892,2.892,0,0,0,114.892,120Zm0,3.855a.964.964,0,1,1,.964-.964A.964.964,0,0,1,114.892,123.855Zm0,0" transform="translate(-98.506 -105.543)" fill="#121313"/>
    <path id="Trazado_166828" data-name="Trazado 166828" d="M315.855,112a3.855,3.855,0,1,0,3.855,3.855A3.856,3.856,0,0,0,315.855,112Zm0,5.783a1.928,1.928,0,1,1,1.928-1.928A1.928,1.928,0,0,1,315.855,117.783Zm0,0" transform="translate(-274.411 -98.506)" fill="#121313"/>
    <path id="Trazado_166829" data-name="Trazado 166829" d="M270.605,56.289l-2.891-5.012a.965.965,0,0,0-1.311-.385l-2.438,1.455A9.358,9.358,0,0,0,263,51.8V48.964a.964.964,0,0,0-.964-.964h-5.783a.964.964,0,0,0-.964.964V51.8a9.367,9.367,0,0,0-.964.549l-2.438-1.455a.965.965,0,0,0-1.311.347l-2.892,5.012a.964.964,0,0,0,.347,1.388l2.438,1.388v1.08l-2.438,1.388a.964.964,0,0,0-.347,1.311l2.891,5.012a.964.964,0,0,0,1.311.347l2.438-1.378a9.366,9.366,0,0,0,.964.549v2.834a.964.964,0,0,0,.964.964h5.783a.964.964,0,0,0,.964-.964V67.335a9.356,9.356,0,0,0,.964-.549l2.438,1.455a.965.965,0,0,0,1.311-.347l2.891-5.012a.964.964,0,0,0-.347-1.388l-2.438-1.388v-1.08l2.438-1.388a.964.964,0,0,0,.347-1.349ZM266.3,57.639a.963.963,0,0,0-.482.964,5.693,5.693,0,0,1,0,1.87.963.963,0,0,0,.482.964l2.159,1.253-1.928,3.335-2.159-1.243a.964.964,0,0,0-1.08.067,6.515,6.515,0,0,1-1.619.964.963.963,0,0,0-.6.887V69.2h-3.855v-2.5a.963.963,0,0,0-.6-.887A6.53,6.53,0,0,1,255,64.858a.964.964,0,0,0-1.08-.068l-2.159,1.243L249.834,62.7l2.159-1.2a.963.963,0,0,0,.482-.964,5.693,5.693,0,0,1,0-1.87.963.963,0,0,0-.482-.964l-2.159-1.253,1.928-3.335,2.159,1.243a.964.964,0,0,0,1.08-.067,6.516,6.516,0,0,1,1.619-.964.963.963,0,0,0,.6-.887V49.928h3.855v2.5a.963.963,0,0,0,.6.887,6.529,6.529,0,0,1,1.619.964.964.964,0,0,0,1.08.068l2.159-1.243,1.928,3.335Zm0,0" transform="translate(-217.7 -42.217)" fill="#121313"/>
    <path id="Trazado_166830" data-name="Trazado 166830" d="M176.966,35.7a.963.963,0,0,0,.5-.144,10.8,10.8,0,0,1,8.867-1.156.97.97,0,1,0,.578-1.851,12.762,12.762,0,0,0-10.448,1.378.954.954,0,0,0,.5,1.773Zm0,0" transform="translate(-154.798 -28.145)" fill="#121313"/>
    <path id="Trazado_166831" data-name="Trazado 166831" d="M185.4,210.846a10.393,10.393,0,0,1-2.207.241,11.027,11.027,0,0,1-5.783-1.629.951.951,0,1,0-.983,1.629,13.034,13.034,0,0,0,6.747,1.928,12.313,12.313,0,0,0,2.612-.289.985.985,0,1,0-.4-1.928Zm0,0" transform="translate(-154.755 -184.1)" fill="#121313"/>
  </g>
</svg>
