<svg xmlns="http://www.w3.org/2000/svg" width="100" height="100" viewBox="0 0 100 100">
  <g id="Grupo_111658" data-name="Grupo 111658" transform="translate(-285 -1992.931)">
    <g id="Grupo_111481" data-name="Grupo 111481" transform="translate(-49.862 -186.25)">
      <g id="Grupo_111302" data-name="Grupo 111302" transform="translate(334.862 2179.181)">
        <circle id="Elipse_4722" data-name="Elipse 4722" cx="50" cy="50" r="50" transform="translate(0 0)" fill="#083142"/>
        <circle id="Elipse_4723" data-name="Elipse 4723" cx="43.478" cy="43.478" r="43.478" transform="translate(6.522 6.522)" fill="#fff"/>
      </g>
    </g>
    <g id="periodico" transform="translate(307.816 2017.931)">
      <g id="Grupo_23378" data-name="Grupo 23378" transform="translate(0.738 6.899)">
        <path id="Trazado_6380" data-name="Trazado 6380" d="M52.517,112.861a3.8,3.8,0,0,1-3.876-3.728V72.117a1.987,1.987,0,0,0-1.987-1.987H9.487A1.987,1.987,0,0,0,7.5,72.117v37.015a3.8,3.8,0,0,0,3.876,3.728Z" transform="translate(-7.5 -70.13)" fill="#e7ecf6"/>
      </g>
      <g id="Grupo_23379" data-name="Grupo 23379" transform="translate(3.918 27.271)">
        <path id="Trazado_6381" data-name="Trazado 6381" d="M39.825,277.213H53.738v15.9H39.825Z" transform="translate(-39.825 -277.213)" fill="#df75a5"/>
      </g>
      <g id="Grupo_23380" data-name="Grupo 23380" transform="translate(3.918 9.98)">
        <path id="Trazado_6382" data-name="Trazado 6382" d="M39.825,101.445H74.606v13.316H39.825Z" transform="translate(-39.825 -101.445)" fill="#ffe07d"/>
      </g>
      <g id="Grupo_23381" data-name="Grupo 23381" transform="translate(4.812 0.738)">
        <path id="Trazado_6383" data-name="Trazado 6383" d="M91.8,7.5A1.938,1.938,0,0,0,89.86,9.438v34.93a1.987,1.987,0,0,1-1.987,1.987H85.984V15.649A1.987,1.987,0,0,0,84,13.661H48.917V9.438A1.938,1.938,0,0,1,50.855,7.5Z" transform="translate(-48.917 -7.5)" fill="#d8e2f1"/>
      </g>
      <g id="Grupo_23382" data-name="Grupo 23382" transform="translate(41.879 0.738)">
        <path id="Trazado_6384" data-name="Trazado 6384" d="M425.707,52.664a3.879,3.879,0,0,0,7.751,0V9.484A1.968,1.968,0,0,0,431.591,7.5a1.938,1.938,0,0,0-2.008,1.937v34.93a1.987,1.987,0,0,1-1.987,1.987h-1.888Z" transform="translate(-425.707 -7.5)" fill="#a2b9e2"/>
      </g>
      <g id="Grupo_23383" data-name="Grupo 23383" transform="translate(0)">
        <path id="Trazado_6385" data-name="Trazado 6385" d="M231.786,269.713H214.892a.738.738,0,1,0,0,1.476h16.894a.738.738,0,1,0,0-1.476Z" transform="translate(-193.086 -243.18)"/>
        <path id="Trazado_6386" data-name="Trazado 6386" d="M231.786,302.039H214.892a.738.738,0,1,0,0,1.476h16.894a.738.738,0,1,0,0-1.476Z" transform="translate(-193.086 -272.326)"/>
        <path id="Trazado_6387" data-name="Trazado 6387" d="M231.786,334.364H214.892a.738.738,0,0,0,0,1.476h16.894a.738.738,0,0,0,0-1.476Z" transform="translate(-193.086 -301.471)"/>
        <path id="Trazado_6388" data-name="Trazado 6388" d="M231.786,366.689H214.892a.738.738,0,0,0,0,1.476h16.894a.738.738,0,1,0,0-1.476Z" transform="translate(-193.086 -330.616)"/>
        <path id="Trazado_6389" data-name="Trazado 6389" d="M231.786,399.014H214.892a.738.738,0,1,0,0,1.476h16.894a.738.738,0,0,0,0-1.476Z" transform="translate(-193.086 -359.761)"/>
        <path id="Trazado_6390" data-name="Trazado 6390" d="M231.786,431.339H214.892a.738.738,0,1,0,0,1.476h16.894a.738.738,0,1,0,0-1.476Z" transform="translate(-193.086 -388.906)"/>
        <path id="Trazado_6391" data-name="Trazado 6391" d="M33.063,465.141H67.844a.738.738,0,0,0,0-1.476H33.063a.738.738,0,0,0,0,1.476Z" transform="translate(-29.145 -418.052)"/>
        <path id="Trazado_6392" data-name="Trazado 6392" d="M32.325,286.351a.738.738,0,0,0,.738.738H46.975a.738.738,0,0,0,.738-.738v-15.9a.738.738,0,0,0-.738-.738H33.063a.738.738,0,0,0-.738.738ZM33.8,271.189H46.238v14.424H33.8Z" transform="translate(-29.145 -243.18)"/>
        <path id="Trazado_6393" data-name="Trazado 6393" d="M68.582,94.683a.738.738,0,0,0-.738-.738H33.063a.738.738,0,0,0-.738.738V108a.738.738,0,0,0,.738.738H67.844a.738.738,0,0,0,.738-.738Zm-1.476,12.578H33.8V95.421H67.106Z" transform="translate(-29.145 -84.703)"/>
        <path id="Trazado_6394" data-name="Trazado 6394" d="M62.662,134.7a.738.738,0,0,0,.738-.738v-4.577l3.35,4.851a.832.832,0,0,0,.938.349.867.867,0,0,0,.586-.865L68.209,127a.738.738,0,0,0-.738-.731h-.007a.738.738,0,0,0-.731.745l.045,4.669-3.51-5.082a.738.738,0,0,0-1.345.419v6.943A.738.738,0,0,0,62.662,134.7Z" transform="translate(-55.832 -113.848)"/>
        <path id="Trazado_6395" data-name="Trazado 6395" d="M143.925,134.7h2.931a.738.738,0,1,0,0-1.476h-2.193v-2h1.977a.738.738,0,1,0,0-1.476h-1.977v-2h2.193a.738.738,0,1,0,0-1.476h-2.931a.738.738,0,0,0-.738.738v6.956A.738.738,0,0,0,143.925,134.7Z" transform="translate(-129.101 -113.849)"/>
        <path id="Trazado_6396" data-name="Trazado 6396" d="M313.525,134.7a2.738,2.738,0,0,0,2.8-2.116c.164-.917-.259-2.118-1.938-2.738-.876-.323-1.689-.675-1.916-.775a.611.611,0,0,1-.233-.586.825.825,0,0,1,.646-.665,2.45,2.45,0,0,1,2.036.467.738.738,0,0,0,.946-1.132,3.915,3.915,0,0,0-3.408-.747,2.316,2.316,0,0,0-1.681,1.868,2.08,2.08,0,0,0,.928,2.06.721.721,0,0,0,.1.056c.04.018.994.443,2.069.839.71.262,1.073.661,1,1.094a1.305,1.305,0,0,1-1.345.9,2.556,2.556,0,0,1-1.877-.789.738.738,0,1,0-1.093.991A4.053,4.053,0,0,0,313.525,134.7Z" transform="translate(-279.831 -113.848)"/>
        <path id="Trazado_6397" data-name="Trazado 6397" d="M206.676,134a.731.731,0,0,0,.029.1.9.9,0,0,0,.843.6h.006a.9.9,0,0,0,.841-.607l.006-.019,1.412-4.561,1.405,4.562.01.03a.9.9,0,0,0,.843.6h.006a.9.9,0,0,0,.841-.607.731.731,0,0,0,.025-.094l1.361-6.837a.738.738,0,0,0-1.447-.288l-.908,4.561-1.432-4.647h0a.737.737,0,0,0-1.406.011l-1.435,4.636-.9-4.573a.738.738,0,0,0-1.448.286Z" transform="translate(-185.109 -113.847)"/>
        <path id="Trazado_6398" data-name="Trazado 6398" d="M47.789,0l-.1,0H34.1a.738.738,0,0,0,0,1.476H45.3a2.66,2.66,0,0,0-.285,1.2V19.429a.738.738,0,1,0,1.476,0V2.676a1.219,1.219,0,0,1,1.223-1.2,1.252,1.252,0,0,1,1.178,1.248V45.9a3.07,3.07,0,0,1-3.138,2.991h0A3.07,3.07,0,0,1,42.617,45.9V40.331h1.15a2.728,2.728,0,0,0,2.725-2.725V22.872a.738.738,0,0,0-1.476,0V37.606a1.251,1.251,0,0,1-1.249,1.249h-1.15V8.886a2.729,2.729,0,0,0-2.726-2.725H5.55V2.676a1.2,1.2,0,0,1,1.2-1.2h23.9a.738.738,0,0,0,0-1.476H6.749A2.678,2.678,0,0,0,4.075,2.676V6.161H2.725A2.728,2.728,0,0,0,0,8.886V30.641a.738.738,0,0,0,1.476,0V8.886A1.251,1.251,0,0,1,2.725,7.637H39.891a1.251,1.251,0,0,1,1.25,1.249V45.9a4.371,4.371,0,0,0,1.19,2.991H4.614A3.07,3.07,0,0,1,1.476,45.9V34.084a.738.738,0,0,0-1.476,0V45.9a4.547,4.547,0,0,0,4.614,4.466H45.755A4.547,4.547,0,0,0,50.368,45.9V2.722A2.689,2.689,0,0,0,47.789,0Z" transform="translate(0 0)"/>
      </g>
    </g>
  </g>
</svg>
