<svg xmlns="http://www.w3.org/2000/svg" width="101" height="101" viewBox="0 0 101 101">
  <g id="Grupo_128097" data-name="Grupo 128097" transform="translate(-750 -3509)">
    <circle id="Elipse_5070" data-name="Elipse 5070" cx="50.5" cy="50.5" r="50.5" transform="translate(750 3509)" fill="#24cb9f"/>
    <g id="unido" transform="translate(768 3526.708)">
      <path id="Trazado_168066" data-name="Trazado 168066" d="M199.182,189.654l-14.738-14.738a2.36,2.36,0,1,1,3.337-3.337l-3.8-3.795a2.354,2.354,0,0,1-.693-1.67,2.424,2.424,0,0,1,.03-.378,2.357,2.357,0,0,1,3.776-1.485l-1.444-1.444a2.361,2.361,0,0,1-.693-1.672,2.254,2.254,0,0,1,.032-.384,2.361,2.361,0,0,1,4-1.283l1.654,1.654a2.36,2.36,0,1,1,3.337-3.337l9.578,9.578.027-.038a4.315,4.315,0,0,1,6.109,0l4.466,4.466a4.583,4.583,0,0,1,1.342,3.234l0,2.794a4.932,4.932,0,0,0,1.445,3.483l1,1-11.391,11.391-1.273-1.273a4.933,4.933,0,0,0-3.166-1.434,4.577,4.577,0,0,1-2.939-1.333Zm0,0" transform="translate(-159.37 -136.589)" fill="#fecbaa"/>
      <path id="Trazado_168067" data-name="Trazado 168067" d="M353.75,354.932,366.678,342a1.091,1.091,0,0,1,1.543,0l4.6,4.6a1.091,1.091,0,0,1,0,1.543L359.9,361.079a1.091,1.091,0,0,1-1.543,0l-4.6-4.6a1.091,1.091,0,0,1,0-1.543Zm0,0" transform="translate(-307.302 -297.088)" fill="#fdd559"/>
      <path id="Trazado_168068" data-name="Trazado 168068" d="M81.924,189.664l14.738-14.738a2.36,2.36,0,1,0-3.338-3.337l3.8-3.8a2.358,2.358,0,0,0-3.113-3.532l1.444-1.444a2.36,2.36,0,0,0,.693-1.671,2.25,2.25,0,0,0-.032-.384,2.351,2.351,0,0,0-1.953-1.946,2.36,2.36,0,0,0-2.047.662l-1.654,1.654a2.36,2.36,0,1,0-3.337-3.337l-9.578,9.578-.027-.038a4.315,4.315,0,0,0-6.109,0l-4.466,4.466A4.581,4.581,0,0,0,65.6,175.04l0,2.794a4.928,4.928,0,0,1-1.445,3.483l-1,1L74.547,193.7l1.273-1.273A4.933,4.933,0,0,1,78.986,191a4.582,4.582,0,0,0,2.939-1.333Zm0,0" transform="translate(-54.914 -136.597)" fill="#fecbaa"/>
      <path id="Trazado_168069" data-name="Trazado 168069" d="M26.891,354.94,13.961,342.011a1.09,1.09,0,0,0-1.543,0l-4.6,4.6a1.091,1.091,0,0,0,0,1.543l12.929,12.929a1.091,1.091,0,0,0,1.543,0l4.6-4.6a1.091,1.091,0,0,0,0-1.543Zm0,0" transform="translate(-6.517 -297.095)" fill="#ff84a7"/>
      <path id="Trazado_168070" data-name="Trazado 168070" d="M173.518,82.178v20.843a2.36,2.36,0,1,1-4.72,0v5.367a2.358,2.358,0,0,1-4.7.3v2.043a2.359,2.359,0,0,1-.692,1.672,2.214,2.214,0,0,1-.294.249,2.361,2.361,0,0,1-3.736-1.921v-2.339a2.36,2.36,0,1,1-4.719,0V94.842l-.046.008a4.316,4.316,0,0,1-4.316-4.323V84.212a4.584,4.584,0,0,1,1.338-3.236L153.609,79a4.932,4.932,0,0,0,1.441-3.485V74.105h16.109v1.8a4.936,4.936,0,0,0,1.224,3.253,4.578,4.578,0,0,1,1.136,3.02Zm0,0" transform="translate(-130.681 -64.433)" fill="#fedfc5"/>
      <path id="Trazado_168071" data-name="Trazado 168071" d="M166.3,171.586a2.362,2.362,0,0,0-3.34,0l3.8-3.8a2.358,2.358,0,0,0-3.113-3.532l1.444-1.444a2.359,2.359,0,0,0,.693-1.671,2.2,2.2,0,0,0-.032-.384,2.361,2.361,0,0,0-4-1.283l-1.654,1.654a2.36,2.36,0,1,0-3.337-3.337l-9.578,9.578-.027-.038a4.3,4.3,0,0,0-3.908-1.175,6.333,6.333,0,0,0,3.325,2.515v11.877a4.323,4.323,0,0,0,5.161,4.239,4.326,4.326,0,0,0,2.5,2.2l12.064-12.064a2.359,2.359,0,0,0,0-3.339Zm0,0" transform="translate(-124.544 -136.597)" fill="#ffae85"/>
      <path id="Trazado_168072" data-name="Trazado 168072" d="M204.154,175.178v-8.335a4.321,4.321,0,0,0-.577.484l-.027.038-9.578-9.578a2.362,2.362,0,0,0-3.34,0,2.362,2.362,0,0,0,0,3.34l-1.654-1.654a2.359,2.359,0,0,0-4,1.283,2.25,2.25,0,0,0-.031.384,2.357,2.357,0,0,0,.693,1.671l1.444,1.444a2.359,2.359,0,0,0-3.114,3.532l3.8,3.8a2.36,2.36,0,1,0-3.337,3.337l9.873,9.873a4.335,4.335,0,0,0,.811.076,4.279,4.279,0,0,0,2.526-.817,4.316,4.316,0,0,0,1.792-3.5v-1.064q.2.018.4.018a4.325,4.325,0,0,0,4.317-4.322Zm0,0" transform="translate(-159.36 -136.59)" fill="#ffae85"/>
      <path id="Trazado_168073" data-name="Trazado 168073" d="M173.518,82.178v20.843a2.36,2.36,0,0,1-2.36,2.364c-.035,0-.073,0-.111,0a2.335,2.335,0,0,1-1.267-.444l0,0a2.359,2.359,0,0,1-.979-1.916v5.367a2.358,2.358,0,0,1-4.7.3v2.043a2.359,2.359,0,0,1-.692,1.672,2.213,2.213,0,0,1-.294.249,2.361,2.361,0,0,1-3.736-1.921v-2.339a2.36,2.36,0,1,1-4.719,0V94.842l-.046.008a4.316,4.316,0,0,1-4.316-4.323V84.212a4.584,4.584,0,0,1,1.338-3.236L153.608,79a4.941,4.941,0,0,0,1.441-3.485V74.105h16.109v1.8a4.446,4.446,0,0,0,.156,1.218,4.9,4.9,0,0,0,1.069,2.035,4.616,4.616,0,0,1,1.136,3.02Zm0,0" transform="translate(-130.681 -64.433)" fill="#fedfc5"/>
      <path id="Trazado_168074" data-name="Trazado 168074" d="M203.709,82.178V103.02a2.36,2.36,0,0,1-2.36,2.364c-.035,0-.073,0-.111,0a2.335,2.335,0,0,1-1.267-.444l.04-20.085a3.079,3.079,0,0,0-.079-.557,9.079,9.079,0,0,0-9.082-7.326H185.02a4.915,4.915,0,0,0,.22-1.457V74.1h16.109v1.8a4.446,4.446,0,0,0,.155,1.218,4.9,4.9,0,0,0,1.069,2.035,4.616,4.616,0,0,1,1.136,3.02Zm0,0" transform="translate(-160.872 -64.433)" fill="#fecbaa"/>
      <path id="Trazado_168075" data-name="Trazado 168075" d="M189.074,16.194H170.789A1.091,1.091,0,0,1,169.7,15.1V8.591A1.091,1.091,0,0,1,170.789,7.5h18.285a1.091,1.091,0,0,1,1.091,1.091V15.1A1.091,1.091,0,0,1,189.074,16.194Zm0,0" transform="translate(-147.55 -6.521)" fill="#83d9ff"/>
      <path id="Trazado_168076" data-name="Trazado 168076" d="M202.528,447.756l-.2.959.189-.96a.979.979,0,1,0-.378,1.921l.018,0a1,1,0,0,0,.185.018.979.979,0,0,0,.183-1.941Zm0,0" transform="translate(-175.073 -389.299)"/>
      <path id="Trazado_168077" data-name="Trazado 168077" d="M261.83,450.261l.1.974-.1-.973a.979.979,0,0,0,.1,1.953c.034,0,.068,0,.1-.005l.027,0a.979.979,0,0,0-.224-1.945Zm0,0" transform="translate(-226.89 -391.489)"/>
      <path id="Trazado_168078" data-name="Trazado 168078" d="M232.132,451.232h-.014a.973.973,0,0,0-1.015.935.984.984,0,0,0,.94,1.022h.045a.979.979,0,0,0,.043-1.957Zm0,0" transform="translate(-200.939 -392.337)"/>
      <path id="Trazado_168079" data-name="Trazado 168079" d="M173.892,439.852l-.012,0a.973.973,0,0,0-1.246.592.982.982,0,1,0,1.258-.588Zm0,0" transform="translate(-150.052 -382.39)"/>
      <path id="Trazado_168080" data-name="Trazado 168080" d="M291.09,444.835l.241.949-.244-.948a.979.979,0,1,0,.488,1.9l.026-.007a.979.979,0,0,0-.511-1.89Zm0,0" transform="translate(-252.456 -386.748)"/>
      <path id="Trazado_168081" data-name="Trazado 168081" d="M319.181,435.036l.388.9-.391-.9a.979.979,0,1,0,.782,1.8l.024-.011a.979.979,0,0,0-.8-1.785Zm0,0" transform="translate(-277.009 -378.184)"/>
      <path id="Trazado_168082" data-name="Trazado 168082" d="M147.461,80.648A.979.979,0,1,0,147,78.8l-.012.006a.977.977,0,0,0,.469,1.837Zm0,0" transform="translate(-127.36 -68.418)"/>
      <path id="Trazado_168083" data-name="Trazado 168083" d="M63.761,165.092a.979.979,0,0,0,1.322-.412l.017-.034a.979.979,0,1,0-1.339.447Zm0,0" transform="translate(-54.983 -141.929)"/>
      <path id="Trazado_168084" data-name="Trazado 168084" d="M52.262,192.9a.978.978,0,0,0,1.241-.613l.013-.039a.979.979,0,1,0-1.254.652Zm0,0" transform="translate(-44.862 -166.056)"/>
      <path id="Trazado_168085" data-name="Trazado 168085" d="M79.366,139.376a.978.978,0,0,0,1.367-.216l.013-.017A.979.979,0,0,0,79.153,138l.789.58-.792-.576a.979.979,0,0,0,.216,1.367Zm0,0" transform="translate(-68.657 -119.638)"/>
      <path id="Trazado_168086" data-name="Trazado 168086" d="M122.024,96.788a.983.983,0,1,0-.567-1.779l-.024.018a.98.98,0,0,0,.591,1.761Zm0,0" transform="translate(-105.246 -82.444)"/>
      <path id="Trazado_168087" data-name="Trazado 168087" d="M49.684,310.9a.979.979,0,1,0-.013-.043Zm0,0" transform="translate(-43.158 -269.21)"/>
      <path id="Trazado_168088" data-name="Trazado 168088" d="M99.369,116.572a.982.982,0,1,0-.684-1.678l-.016.016a.978.978,0,0,0,.7,1.662Zm0,0" transform="translate(-85.549 -99.649)"/>
      <path id="Trazado_168089" data-name="Trazado 168089" d="M45.3,281.046a.979.979,0,0,0-1.943.242l.006.039a.979.979,0,0,0,1.937-.281Zm0,0" transform="translate(-37.692 -243.623)"/>
      <path id="Trazado_168090" data-name="Trazado 168090" d="M42.541,252.119h.03a.979.979,0,0,0,.978-.95v-.042a.979.979,0,1,0-1.008.992Zm0,0" transform="translate(-36.163 -217.499)"/>
      <path id="Trazado_168091" data-name="Trazado 168091" d="M45.139,222.14a1.011,1.011,0,0,0,.174.015.98.98,0,0,0,.963-.807c0-.014,0-.029.007-.043a.979.979,0,1,0-1.143.834Zm0,0" transform="translate(-38.546 -191.446)"/>
      <path id="Trazado_168092" data-name="Trazado 168092" d="M403.1,143.3a.979.979,0,0,0,1.612-1.111l-.814.545.811-.549a.979.979,0,0,0-1.621,1.1Zm0,0" transform="translate(-350.328 -123.253)"/>
      <path id="Trazado_168093" data-name="Trazado 168093" d="M436.81,229.029a.978.978,0,0,0-.863,1.082l.005.042a.98.98,0,0,0,.968.84,1,1,0,0,0,.14-.01.986.986,0,0,0-.25-1.955Zm0,0" transform="translate(-379.043 -199.131)"/>
      <path id="Trazado_168094" data-name="Trazado 168094" d="M429.679,199.541l0,.013a.979.979,0,0,0,.939.7.964.964,0,0,0,.276-.04.979.979,0,0,0,.663-1.215l0-.013a.979.979,0,1,0-1.878.553Zm0,0" transform="translate(-373.564 -172.405)"/>
      <path id="Trazado_168095" data-name="Trazado 168095" d="M418.639,170.38a.984.984,0,0,0,.883.55.978.978,0,0,0,.876-1.408l-.887.413.886-.416a.979.979,0,0,0-1.773.831Zm0,0" transform="translate(-363.907 -146.905)"/>
      <path id="Trazado_168096" data-name="Trazado 168096" d="M383.483,119.024a.986.986,0,1,0-.03-.031Zm0,0" transform="translate(-333.181 -102.034)"/>
      <path id="Trazado_168097" data-name="Trazado 168097" d="M438.324,260.385a.985.985,0,0,0-.084,1.968l.056,0a.979.979,0,0,0,.976-.925l0-.04A.977.977,0,0,0,438.324,260.385Zm0,0" transform="translate(-380.239 -226.4)"/>
      <path id="Trazado_168098" data-name="Trazado 168098" d="M334.062,81.108l.023.013a.975.975,0,0,0,1.318-.4.982.982,0,0,0-.4-1.325l-.474.857.471-.859a.979.979,0,1,0-.941,1.717Zm0,0" transform="translate(-290.019 -68.924)"/>
      <path id="Trazado_168099" data-name="Trazado 168099" d="M360.265,98.1l.015.012a.979.979,0,0,0,1.183-1.56l-.007,0a.979.979,0,1,0-1.192,1.553Zm0,0" transform="translate(-312.912 -83.771)"/>
      <path id="Trazado_168100" data-name="Trazado 168100" d="M66.22,48.8l-4.6-4.6a2.067,2.067,0,0,0-2.927,0l-.107.107-.3-.3a3.951,3.951,0,0,1-.857-1.282.954.954,0,0,0-.07-.181,3.958,3.958,0,0,1-.228-1.33v-1.3a.986.986,0,1,0-.006-1.74,5.519,5.519,0,0,0-1.618-3.681l-4.458-4.466a5.289,5.289,0,0,0-6.763-.607l-.473-.476v-11.2a5.558,5.558,0,0,0-1.379-3.666,3.95,3.95,0,0,1-.981-2.607v-.82h.067a2.072,2.072,0,0,0,2.069-2.07V2.07A2.072,2.072,0,0,0,41.524,0H23.239a2.072,2.072,0,0,0-2.069,2.07V8.582a2.072,2.072,0,0,0,2.069,2.07h.151v.429a3.927,3.927,0,0,1-1.155,2.793l-1.974,1.977a5.523,5.523,0,0,0-1.624,3.927v6.315a5.278,5.278,0,0,0,.568,2.386,5.256,5.256,0,0,0-3.435,1.544l-4.458,4.466a5.523,5.523,0,0,0-1.624,3.927v2.8a3.927,3.927,0,0,1-1.155,2.793l-.3.3,0,0L8.126,44.2a2.067,2.067,0,0,0-2.927,0L.6,48.8a2.075,2.075,0,0,0,0,2.927l1.574,1.576a.979.979,0,1,0,1.385-1.383L1.99,50.348a.114.114,0,0,1,0-.161l4.6-4.6a.11.11,0,0,1,.155,0l.8.8h0L18.449,57.313l1.222,1.225a.114.114,0,0,1,0,.161l-4.6,4.6a.11.11,0,0,1-.156,0L6.334,54.7a.979.979,0,0,0-1.386,1.383l8.586,8.6a2.067,2.067,0,0,0,2.927,0l4.6-4.6a2.075,2.075,0,0,0,0-2.927l-.05-.05.58-.581a3.933,3.933,0,0,1,2.532-1.148,5.539,5.539,0,0,0,3.564-1.616L31.9,49.528a3.352,3.352,0,0,0,2.423-2.553,3.338,3.338,0,0,0,4.769-3.02V41.631a3.336,3.336,0,0,0,4.72-3.043V31.716l3.011,3.026a.979.979,0,0,0,1.388-1.381L45.7,30.839a3.334,3.334,0,0,1,3.963.569l4.458,4.465a3.579,3.579,0,0,1,1.052,2.544v2.8A5.873,5.873,0,0,0,56.9,45.389l.3.3-1.42,1.422-8.588,8.6-.479-.48-.015-.014-.084-.085a5.894,5.894,0,0,0-3.791-1.718,3.59,3.59,0,0,1-2.309-1.048l-3.217-3.2a.979.979,0,1,0-1.381,1.388l3.214,3.2a5.539,5.539,0,0,0,3.565,1.616,3.935,3.935,0,0,1,2.532,1.148l.047.047a.943.943,0,0,0,.081.082l.451.452-.05.05a2.075,2.075,0,0,0,0,2.927l4.6,4.6a2.068,2.068,0,0,0,2.927,0L66.22,51.731a2.075,2.075,0,0,0,0-2.927Zm-8.429-9.734-.018,0-.178-.036ZM26.3,52.376a3.583,3.583,0,0,1-2.3,1.046A5.894,5.894,0,0,0,20.2,55.14l-.578.579L19.1,55.2l-.02-.02L9.616,45.693l.3-.3a5.873,5.873,0,0,0,1.727-4.177v-2.8A3.576,3.576,0,0,1,12.7,35.873l4.458-4.465a3.333,3.333,0,0,1,3.968-.566L18.61,33.36A.979.979,0,0,0,20,34.743l3-3.009V43.955a3.338,3.338,0,0,0,4.788,3.012,3.355,3.355,0,0,0,1.659,2.254ZM41.859,38.588a1.381,1.381,0,1,1-2.762,0V27.669a.979.979,0,0,0-1.958,0V43.955a1.38,1.38,0,0,1-2.742.229V27.658a.989.989,0,0,0-1.978.011V43.955a3.356,3.356,0,0,0,.02.367v1.973a1.381,1.381,0,1,1-2.762,0V27.646a.979.979,0,0,0-1.958,0V43.955a1.381,1.381,0,1,1-2.762,0V25.746a.979.979,0,1,0-1.958,0v3.368a.961.961,0,0,0-.236.113,3.35,3.35,0,0,1-2.169-3.133V19.779a3.579,3.579,0,0,1,1.052-2.544l1.974-1.977a5.871,5.871,0,0,0,1.727-4.177v-.429h1.968a.979.979,0,1,0,0-1.958H23.239a.112.112,0,0,1-.112-.112V2.07a.112.112,0,0,1,.112-.112H41.523a.112.112,0,0,1,.112.112V8.582a.112.112,0,0,1-.112.112H31.911a.979.979,0,0,0,0,1.958H39.5v.82a5.911,5.911,0,0,0,1.466,3.9,3.6,3.6,0,0,1,.894,2.374Zm22.976,11.76L51.9,63.3a.1.1,0,0,1-.078.033.106.106,0,0,1-.078-.033l-4.6-4.6a.114.114,0,0,1,0-.161l.74-.741h0L55.4,50.276l4.684-4.692a.109.109,0,0,1,.155,0l4.6,4.6A.114.114,0,0,1,64.834,50.348Zm0,0"/>
      <path id="Trazado_168101" data-name="Trazado 168101" d="M194.859,32.8a1.044,1.044,0,1,0,1.043,1.044A1.044,1.044,0,0,0,194.859,32.8Zm0,0" transform="translate(-168.521 -28.523)"/>
      <path id="Trazado_168102" data-name="Trazado 168102" d="M456.456,374.688a1.044,1.044,0,1,0,1.042,1.044A1.045,1.045,0,0,0,456.456,374.688Zm0,0" transform="translate(-395.975 -325.785)"/>
      <path id="Trazado_168103" data-name="Trazado 168103" d="M111.1,444.247a1.042,1.042,0,1,0-1.042,1.044A1.044,1.044,0,0,0,111.1,444.247Zm0,0" transform="translate(-94.784 -385.357)"/>
    </g>
  </g>
</svg>
