<svg xmlns="http://www.w3.org/2000/svg" width="75.837" height="75.519" viewBox="0 0 75.837 75.519">
  <g id="buscar_1_" data-name="buscar(1)" transform="translate(-16.661 -17.936)">
    <g id="Grupo_114008" data-name="Grupo 114008" transform="translate(17.626 18.901)">
      <g id="Grupo_113982" data-name="Grupo 113982" transform="translate(50.221 9.601)">
        <g id="Grupo_113977" data-name="Grupo 113977">
          <g id="Grupo_113976" data-name="Grupo 113976">
            <path id="Trazado_168764" data-name="Trazado 168764" d="M165.924,48.746h19.045V71.568H165.924Z" transform="translate(-165.924 -48.746)" fill="#4e7db9"/>
          </g>
        </g>
        <g id="Grupo_113979" data-name="Grupo 113979" transform="translate(2.66 13.565)">
          <g id="Grupo_113978" data-name="Grupo 113978">
            <path id="Trazado_168765" data-name="Trazado 168765" d="M187.406,97.56H173.681V93.889a5.586,5.586,0,0,1,5.586-5.586h2.553a5.586,5.586,0,0,1,5.586,5.586V97.56Z" transform="translate(-173.681 -88.304)" fill="#48bbad"/>
          </g>
        </g>
        <g id="Grupo_113981" data-name="Grupo 113981" transform="translate(6.604 5.403)">
          <g id="Grupo_113980" data-name="Grupo 113980">
            <path id="Trazado_168766" data-name="Trazado 168766" d="M188.215,72.231a3.032,3.032,0,0,1-3.032-3.032V67.534a3.032,3.032,0,1,1,6.064,0V69.2A3.032,3.032,0,0,1,188.215,72.231Z" transform="translate(-185.183 -64.502)" fill="#f6a337"/>
          </g>
        </g>
      </g>
      <g id="Grupo_113995" data-name="Grupo 113995" transform="translate(10.432)">
        <g id="Grupo_113992" data-name="Grupo 113992">
          <g id="Grupo_113984" data-name="Grupo 113984">
            <g id="Grupo_113983" data-name="Grupo 113983">
              <path id="Trazado_168767" data-name="Trazado 168767" d="M49.9,20.75H83.645V44.931H49.9Z" transform="translate(-49.896 -20.75)" fill="#4e7db9"/>
            </g>
          </g>
          <g id="Grupo_113991" data-name="Grupo 113991" transform="translate(0.21 10.602)">
            <g id="Grupo_113986" data-name="Grupo 113986" transform="translate(0 2.6)">
              <g id="Grupo_113985" data-name="Grupo 113985">
                <path id="Trazado_168768" data-name="Trazado 168768" d="M50.508,70.228,56.3,59.907a1.479,1.479,0,0,1,2.46,0l6.435,10.321Z" transform="translate(-50.508 -59.249)" fill="#f6a337"/>
              </g>
            </g>
            <g id="Grupo_113988" data-name="Grupo 113988" transform="translate(17.357 1.726)">
              <g id="Grupo_113987" data-name="Grupo 113987">
                <path id="Trazado_168769" data-name="Trazado 168769" d="M101.123,68.553l6.948-11.143a1.6,1.6,0,0,1,2.656,0l6.3,11.143Z" transform="translate(-101.123 -56.701)" fill="#f6a337"/>
              </g>
            </g>
            <g id="Grupo_113990" data-name="Grupo 113990" transform="translate(6.441)">
              <g id="Grupo_113989" data-name="Grupo 113989">
                <path id="Trazado_168770" data-name="Trazado 168770" d="M69.291,65.246,77.25,52.481a1.829,1.829,0,0,1,3.042,0l7.959,12.765Z" transform="translate(-69.291 -51.668)" fill="#ffd160"/>
              </g>
            </g>
          </g>
        </g>
        <g id="Grupo_113994" data-name="Grupo 113994" transform="translate(19.518 3.691)">
          <g id="Grupo_113993" data-name="Grupo 113993">
            <path id="Trazado_168771" data-name="Trazado 168771" d="M111.762,35.958a2.762,2.762,0,1,1,0-3.365A2.763,2.763,0,0,1,111.762,35.958Z" transform="translate(-106.812 -31.515)" fill="#ffd160"/>
          </g>
        </g>
      </g>
      <g id="Grupo_114000" data-name="Grupo 114000" transform="translate(0 29.567)">
        <g id="Grupo_113997" data-name="Grupo 113997">
          <g id="Grupo_113996" data-name="Grupo 113996">
            <path id="Trazado_168772" data-name="Trazado 168772" d="M19.476,106.97H52.151v44.022H19.476Z" transform="translate(-19.476 -106.97)" fill="#aab5bd"/>
          </g>
        </g>
        <g id="Grupo_113999" data-name="Grupo 113999" transform="translate(3.687 16.928)">
          <g id="Grupo_113998" data-name="Grupo 113998">
            <path id="Trazado_168773" data-name="Trazado 168773" d="M30.227,156.333h8.952v11.431H30.227Z" transform="translate(-30.227 -156.333)" fill="#4e7db9"/>
          </g>
        </g>
      </g>
      <g id="Grupo_114007" data-name="Grupo 114007" transform="translate(7.274 6.966)">
        <g id="Grupo_114002" data-name="Grupo 114002" transform="translate(39.517 39.507)">
          <g id="Grupo_114001" data-name="Grupo 114001">
            <path id="Trazado_168774" data-name="Trazado 168774" d="M181.57,181.918a5.012,5.012,0,0,1-7.089,0l-18.559-18.559,7.089-7.089L181.57,174.83A5.012,5.012,0,0,1,181.57,181.918Z" transform="translate(-155.922 -156.27)" fill="#34495e"/>
          </g>
        </g>
        <g id="Grupo_114004" data-name="Grupo 114004" transform="translate(0 0)">
          <g id="Grupo_114003" data-name="Grupo 114003">
            <circle id="Elipse_5090" data-name="Elipse 5090" cx="23.119" cy="23.119" r="23.119" transform="translate(0 32.69) rotate(-45)" fill="#34495e"/>
          </g>
        </g>
        <g id="Grupo_114006" data-name="Grupo 114006" transform="translate(8.001 8.001)">
          <g id="Grupo_114005" data-name="Grupo 114005" transform="translate(0 0)">
            <circle id="Elipse_5091" data-name="Elipse 5091" cx="17.461" cy="17.461" r="17.461" transform="translate(0 24.689) rotate(-45)" fill="#48bbad"/>
          </g>
        </g>
      </g>
    </g>
    <g id="Grupo_114009" data-name="Grupo 114009" transform="translate(16.661 17.936)">
      <path id="Trazado_168775" data-name="Trazado 168775" d="M107.889,35.985a3.617,3.617,0,0,0,2.874-1.413h0a3.655,3.655,0,0,0,0-4.426,3.628,3.628,0,0,0-5.748,0,3.655,3.655,0,0,0,0,4.426A3.617,3.617,0,0,0,107.889,35.985ZM106.369,31.2a1.912,1.912,0,1,1,0,2.324A1.915,1.915,0,0,1,106.369,31.2Z" transform="translate(-74.226 -25.03)"/>
      <path id="Trazado_168776" data-name="Trazado 168776" d="M53.7,207.188H28.758a.857.857,0,1,0,0,1.715H53.7a.857.857,0,1,0,0-1.715Z" transform="translate(-24.046 -142.289)"/>
      <path id="Trazado_168777" data-name="Trazado 168777" d="M53.7,217.467H28.758a.857.857,0,1,0,0,1.715H53.7a.857.857,0,1,0,0-1.715Z" transform="translate(-24.046 -149.043)"/>
      <path id="Trazado_168778" data-name="Trazado 168778" d="M29.095,167.253h8.674a.857.857,0,0,0,.857-.857V155.118a.857.857,0,0,0-.857-.857H29.095a.857.857,0,0,0-.857.857V166.4A.857.857,0,0,0,29.095,167.253Zm.857-11.278h6.96v9.564h-6.96Z" transform="translate(-24.268 -107.512)"/>
      <path id="Trazado_168779" data-name="Trazado 168779" d="M90.774,83.41,78.261,70.9a23.893,23.893,0,0,0,3.392-12.33,24.156,24.156,0,0,0-.863-6.4h6.2a.857.857,0,0,0,.857-.857V28.422a.857.857,0,0,0-.857-.857h-19.1a.857.857,0,0,0-.857.857v8.013a23.774,23.774,0,0,0-4.343-1.373V18.794a.857.857,0,0,0-.857-.857H27.98a.857.857,0,0,0-.857.857V43.045a.857.857,0,0,0,.857.857H38.558a23.912,23.912,0,0,0-2.348,3.687H17.518a.857.857,0,0,0-.857.857V92.6a.857.857,0,0,0,.857.857H50.289a.857.857,0,0,0,.857-.857V81.728a24.151,24.151,0,0,0,6.463.881,23.894,23.894,0,0,0,12.33-3.392L82.453,91.732a5.884,5.884,0,1,0,8.321-8.322ZM83.461,50.453H80.256A23.868,23.868,0,0,0,75.841,42.9c.1-.007.208-.016.314-.016h2.561a4.75,4.75,0,0,1,4.745,4.745ZM75.252,38.506v-1.67a2.184,2.184,0,1,1,4.368,0v1.67a2.184,2.184,0,1,1-4.368,0ZM68.743,29.28H86.128V50.453h-.953V47.629a6.468,6.468,0,0,0-5.057-6.3,3.884,3.884,0,0,0,1.216-2.821v-1.67a3.9,3.9,0,1,0-7.8,0v1.67a3.884,3.884,0,0,0,1.216,2.822c-.1.023-.206.051-.308.079a24.1,24.1,0,0,0-5.7-4.16V29.28ZM28.838,19.651H60.97V34.758a24.385,24.385,0,0,0-3.254-.233L55.989,31.47l-.012-.021c-.006-.011-.013-.022-.02-.033A2.4,2.4,0,0,0,53.9,30.3h0a2.4,2.4,0,0,0-2.059,1.115l-2.206,3.538-.174-.28,0,0-3.044-4.882a2.625,2.625,0,0,0-2.253-1.22,2.829,2.829,0,0,0-.346.021,2.6,2.6,0,0,0-1.907,1.2L38.785,34.8,37.191,32.24a2.34,2.34,0,0,0-3.922,0l-.021.036-.011.02-4.4,7.843ZM55.559,34.2l-.743-.523a.857.857,0,0,0-1.037.039l-.483.4-.053-.086a.846.846,0,0,0-.756-.411l.806-1.293a.748.748,0,0,1,1.2-.013Zm-8.791-.6-.109-.035a.859.859,0,0,0-.83.176l-.882.784-1.269-.781a.856.856,0,0,0-.876-.013l-1.818,1.045-.119-.074,2.5-4a.979.979,0,0,1,1.6,0Zm-8.993,2.816-.055.088-.252-.157a.858.858,0,0,0-.974.049l-1.127.866-1-.562a.857.857,0,0,0-.885.028l-1.121.725-.027-.011,2.4-4.307a.63.63,0,0,1,1,.013Zm-3.6,5.772H29.655l1.819-3.243.656.265a.858.858,0,0,0,.786-.075l1.061-.686,1.044.585a.857.857,0,0,0,.941-.068l.427-.328Zm2.02,0,3.761-6.032.553.346a.858.858,0,0,0,.881.016l1.822-1.047,1.377.848a.856.856,0,0,0,1.019-.089l.993-.883,1.566.5.294.472a24,24,0,0,0-7.855,5.247c-.2.2-.4.414-.594.623H36.2ZM49.432,91.741H18.376V49.3H35.408a23.784,23.784,0,0,0-1.342,4.359H26.5a.857.857,0,0,0,0,1.715H33.78c-.1.729-.161,1.465-.191,2.207H21.373a.857.857,0,0,0,0,1.715H33.583c.018.6.054,1.2.116,1.8H21.373a.857.857,0,0,0,0,1.715H33.944q.2,1.133.508,2.235h-.431a.857.857,0,0,0,0,1.715h.973c.221.61.469,1.209.739,1.8H34.021a.857.857,0,0,0,0,1.715h2.584q.518.927,1.119,1.81h-3.7a.857.857,0,0,0,0,1.715h4.984q.753.916,1.6,1.766l.034.033H34.021a.857.857,0,0,0,0,1.715h8.538a24.009,24.009,0,0,0,2.9,2.007H21.373a.857.857,0,1,0,0,1.715H46.317a.855.855,0,0,0,.852-.8,23.709,23.709,0,0,0,2.263.954V91.741ZM57.609,80.9A22.329,22.329,0,1,1,73.4,74.355,22.182,22.182,0,0,1,57.609,80.9Zm31.953,9.624a4.175,4.175,0,0,1-5.9,0L71.4,78.258a23.984,23.984,0,0,0,5.9-5.9L89.562,84.622a4.17,4.17,0,0,1,0,5.9Z" transform="translate(-16.661 -17.936)"/>
      <path id="Trazado_168780" data-name="Trazado 168780" d="M113.861,88.248a18.368,18.368,0,1,0,5.38,12.989A18.389,18.389,0,0,0,113.861,88.248Zm-1.212,24.765a16.654,16.654,0,1,1,4.878-11.776A16.673,16.673,0,0,1,112.649,113.013Z" transform="translate(-59.924 -60.607)"/>
      <path id="Trazado_168781" data-name="Trazado 168781" d="M103.264,109.195a.857.857,0,0,0-1.212,0,12.968,12.968,0,0,0,0,18.34.857.857,0,0,0,1.212-1.212,11.254,11.254,0,0,1,0-15.916A.857.857,0,0,0,103.264,109.195Z" transform="translate(-70.273 -77.735)"/>
    </g>
  </g>
</svg>
