<svg xmlns="http://www.w3.org/2000/svg" width="100" height="100" viewBox="0 0 100 100">
  <g id="Grupo_111486" data-name="Grupo 111486" transform="translate(-285 -1992.931)">
    <g id="Grupo_111481" data-name="Grupo 111481" transform="translate(-49.862 -186.25)">
      <g id="Grupo_111302" data-name="Grupo 111302" transform="translate(334.862 2179.181)">
        <circle id="Elipse_4722" data-name="Elipse 4722" cx="50" cy="50" r="50" transform="translate(0 0)" fill="#ff6148"/>
        <circle id="Elipse_4723" data-name="Elipse 4723" cx="43.478" cy="43.478" r="43.478" transform="translate(6.522 6.522)" fill="#fff"/>
      </g>
    </g>
    <g id="_001-value_chain" data-name="001-value chain" transform="translate(305.41 2016.913)">
      <g id="Grupo_26700" data-name="Grupo 26700" transform="translate(17.6 16.333)">
        <path id="Trazado_26057" data-name="Trazado 26057" d="M157.894,192.531l.731-.731a9.609,9.609,0,0,0,2.529,1.049v1.032a.9.9,0,0,0,.9.9h2.991a.9.9,0,0,0,.9-.9v-1.032a9.613,9.613,0,0,0,2.53-1.049l.731.731a.9.9,0,0,0,1.268,0l2.117-2.117a.9.9,0,0,0,0-1.268l-.731-.731a9.613,9.613,0,0,0,1.049-2.529h1.032a.9.9,0,0,0,.9-.895V182a.9.9,0,0,0-.9-.9H172.9a9.659,9.659,0,0,0-1.049-2.529l.731-.731a.9.9,0,0,0,0-1.265l-2.117-2.12a.9.9,0,0,0-1.268,0l-.731.734a9.51,9.51,0,0,0-2.53-1.052V173.1a.9.9,0,0,0-.9-.895h-2.991a.9.9,0,0,0-.9.895v1.032a9.624,9.624,0,0,0-2.529,1.052l-.731-.734a.9.9,0,0,0-1.268,0l-2.117,2.12a.9.9,0,0,0,0,1.265l.731.731a9.658,9.658,0,0,0-1.048,2.529H153.16a.9.9,0,0,0-.895.9v2.995a.9.9,0,0,0,.895.895h1.032a9.611,9.611,0,0,0,1.048,2.529l-.731.731a.9.9,0,0,0,0,1.268l2.117,2.117A.9.9,0,0,0,157.894,192.531Z" transform="translate(-152.265 -172.21)" fill="#ffca28" fill-rule="evenodd"/>
      </g>
      <g id="Grupo_26701" data-name="Grupo 26701" transform="translate(41.194 0.866)">
        <path id="Trazado_26058" data-name="Trazado 26058" d="M364.47,53.788h8.506a.538.538,0,0,0,.534-.534V46.347a.574.574,0,0,0-.534-.534l-1.14-.177-.315-.049-2.762-.429-2.916-.455v-3.47c0-.383-.331-.6-.7-.7l-7.687-2.084c-.5-.138-1.065-.023-1.065.718V53.084a.708.708,0,0,0,.7.7h2.89V49.421a1.869,1.869,0,0,1,.318-1.052,1.9,1.9,0,0,1,3.489,1.052v4.368h.678Z" transform="translate(-356.39 -38.397)" fill="#69c8bf" fill-rule="evenodd"/>
      </g>
      <g id="Grupo_26702" data-name="Grupo 26702" transform="translate(1.965 2.319)">
        <path id="Trazado_26059" data-name="Trazado 26059" d="M31.033,64.066V51.9a.935.935,0,0,0-.934-.934H17.933A.938.938,0,0,0,17,51.9V64.066a.938.938,0,0,0,.937.934H30.1A.936.936,0,0,0,31.033,64.066Z" transform="translate(-16.996 -50.966)" fill="#ffd772" fill-rule="evenodd"/>
      </g>
      <g id="Grupo_26703" data-name="Grupo 26703" transform="translate(9.075 2.319)">
        <path id="Trazado_26060" data-name="Trazado 26060" d="M82.611,50.966a13.831,13.831,0,0,1,.895,4.8,12.438,12.438,0,0,1-.6,3.961c-.659,2.1-2.89,3.925-4.4,5.269H84.5a.936.936,0,0,0,.934-.934V51.9a.935.935,0,0,0-.934-.934Z" transform="translate(-78.509 -50.966)" fill="#fbba58" fill-rule="evenodd"/>
      </g>
      <g id="Grupo_26704" data-name="Grupo 26704" transform="translate(53.543 7.837)">
        <path id="Trazado_26061" data-name="Trazado 26061" d="M466.01,98.922l-1.4-.22c0,.157.007.315.007.472a24.472,24.472,0,0,1-.223,3.293,21.669,21.669,0,0,1-1.163,4.656h4.236a.538.538,0,0,0,.534-.534V99.683a.574.574,0,0,0-.534-.534l-1.14-.177Z" transform="translate(-463.228 -98.703)" fill="#26a69a" fill-rule="evenodd"/>
      </g>
      <g id="Grupo_26705" data-name="Grupo 26705" transform="translate(42.521 43.011)">
        <path id="Trazado_26062" data-name="Trazado 26062" d="M372.751,403.011a5.963,5.963,0,0,0-1.065.1,4.492,4.492,0,0,0-3.771,3.414,3.646,3.646,0,0,0-.046.567v3.535a.606.606,0,0,0,.649.544h12.827a.636.636,0,0,0,.642-.442.5.5,0,0,0,.01-.1V407.09q0-.138-.01-.275c-.174-2.117-2.3-3.8-4.872-3.8h-4.364Z" transform="translate(-367.869 -403.011)" fill="#75cef8" fill-rule="evenodd"/>
      </g>
      <g id="Grupo_26706" data-name="Grupo 26706" transform="translate(45.358 32.364)">
        <path id="Trazado_26063" data-name="Trazado 26063" d="M392.418,315.561a32.937,32.937,0,0,0,4.889,0,7.921,7.921,0,0,0,3.5-1.193,4.253,4.253,0,0,0-2.12-2.939,4.221,4.221,0,0,0-6.265,3.7Z" transform="translate(-392.418 -310.905)" fill="#375e7d" fill-rule="evenodd"/>
      </g>
      <g id="Grupo_26707" data-name="Grupo 26707" transform="translate(45.358 35.832)">
        <path id="Trazado_26064" data-name="Trazado 26064" d="M397.307,342.1a32.953,32.953,0,0,1-4.889,0V344.1a4.222,4.222,0,0,0,1.622,3.322,4.155,4.155,0,0,0,1.193.659,4.227,4.227,0,0,0,5.639-3.981v-2.438a4.151,4.151,0,0,0-.069-.76A7.922,7.922,0,0,1,397.307,342.1Z" transform="translate(-392.418 -340.903)" fill="#f2ccbc" fill-rule="evenodd"/>
      </g>
      <g id="Grupo_26708" data-name="Grupo 26708" transform="translate(50.358 43.011)">
        <path id="Trazado_26065" data-name="Trazado 26065" d="M435.675,403.186a4.338,4.338,0,0,1,3.47,3.63q.01.138.01.275v3.535a.506.506,0,0,1-.01.1.629.629,0,0,1-.639.442h2.808a.636.636,0,0,0,.642-.442.5.5,0,0,0,.01-.1v-3.535q0-.138-.01-.275c-.174-2.117-2.3-3.8-4.872-3.8h-.77A4.19,4.19,0,0,1,435.675,403.186Z" transform="translate(-435.675 -403.012)" fill="#60b7ff" fill-rule="evenodd"/>
      </g>
      <g id="Grupo_26709" data-name="Grupo 26709" transform="translate(47.403 35.832)">
        <path id="Trazado_26066" data-name="Trazado 26066" d="M410.748,348.035c.043.016.085.033.128.046C410.833,348.068,410.791,348.051,410.748,348.035Zm-.632.046h-.01Zm4.227-6.248v2.022a4.247,4.247,0,0,1-2.815,3.984,4.393,4.393,0,0,1-.78.2,4.486,4.486,0,0,1-.632.046h.76a4.207,4.207,0,0,0,1.412.246,4.267,4.267,0,0,0,.773-.072,4.178,4.178,0,0,0,.639-.174,4.243,4.243,0,0,0,2.815-3.981v-2.438a4.153,4.153,0,0,0-.069-.76A6.907,6.907,0,0,1,414.342,341.833Z" transform="translate(-410.106 -340.902)" fill="#ecad9a" fill-rule="evenodd"/>
      </g>
      <g id="Grupo_26710" data-name="Grupo 26710" transform="translate(48.949 32.364)">
        <path id="Trazado_26067" data-name="Trazado 26067" d="M426.176,314.89v.413a6.9,6.9,0,0,0,2.1-.931,4.253,4.253,0,0,0-2.12-2.939,4.2,4.2,0,0,0-2.113-.527,3.941,3.941,0,0,0-.56.049,3.494,3.494,0,0,1,.5.236,4.26,4.26,0,0,1,1.746,1.822,4.166,4.166,0,0,1,.442,1.878Z" transform="translate(-423.486 -310.905)" fill="#2b4d66" fill-rule="evenodd"/>
      </g>
      <g id="Grupo_26711" data-name="Grupo 26711" transform="translate(0.867 34.77)">
        <path id="Trazado_26068" data-name="Trazado 26068" d="M22.535,343.965v-8.329c0-.331-.357-.439-.685-.6l-6.832-3.319-1.481.718-4.941,2.4-.413.2c-.328.161-.685.269-.685.6V347.52a.647.647,0,0,0,.685.6H21.85a.647.647,0,0,0,.685-.6v-3.555Z" transform="translate(-7.499 -331.717)" fill="#beb9dd" fill-rule="evenodd"/>
      </g>
      <g id="Grupo_26712" data-name="Grupo 26712" transform="translate(4.7 44.695)">
        <path id="Trazado_26069" data-name="Trazado 26069" d="M48.034,418.011a.431.431,0,0,0-.433-.429H41.1a.431.431,0,0,0-.433.429v2.808h7.369v-2.808Z" transform="translate(-40.665 -417.582)" fill="#f9f7f8" fill-rule="evenodd"/>
      </g>
      <g id="Grupo_26713" data-name="Grupo 26713" transform="translate(4.7 47.932)">
        <path id="Trazado_26070" data-name="Trazado 26070" d="M40.665,445.589h7.369v3.237H40.665Z" transform="translate(-40.665 -445.589)" fill="#f9f7f8" fill-rule="evenodd"/>
      </g>
      <g id="Grupo_26714" data-name="Grupo 26714" transform="translate(13.15 37.421)">
        <path id="Trazado_26071" data-name="Trazado 26071" d="M114.459,354.651V367.8a.648.648,0,0,1-.688.6h2.067a.647.647,0,0,0,.685-.6V355.919c0-.331-.357-.439-.685-.6Z" transform="translate(-113.771 -354.651)" fill="#a7a2d3" fill-rule="evenodd"/>
      </g>
      <g id="Grupo_26715" data-name="Grupo 26715" transform="translate(9.831 44.695)">
        <path id="Trazado_26072" data-name="Trazado 26072" d="M85.489,418.011v2.808h1.805v-2.808a.431.431,0,0,0-.433-.429H85.056A.434.434,0,0,1,85.489,418.011Z" transform="translate(-85.056 -417.582)" fill="#dddaec" fill-rule="evenodd"/>
      </g>
      <g id="Grupo_26716" data-name="Grupo 26716" transform="translate(10.264 47.932)">
        <path id="Trazado_26073" data-name="Trazado 26073" d="M88.8,445.589H90.6v3.237H88.8Z" transform="translate(-88.798 -445.589)" fill="#dddaec" fill-rule="evenodd"/>
      </g>
      <g id="Grupo_26717" data-name="Grupo 26717" transform="translate(6.683 2.319)">
        <path id="Trazado_26074" data-name="Trazado 26074" d="M62.418,57.211V50.966h-4.6v6.245l2.3-2.549Z" transform="translate(-57.815 -50.966)" fill="#f9f7f8" fill-rule="evenodd"/>
      </g>
      <g id="Grupo_26718" data-name="Grupo 26718" transform="translate(44.788 9.986)">
        <path id="Trazado_26075" data-name="Trazado 26075" d="M391.292,122.426V119.2a1.9,1.9,0,0,0-3.489-1.052,1.87,1.87,0,0,0-.318,1.052v4.368h3.807Z" transform="translate(-387.485 -117.298)" fill="#a7a2d3" fill-rule="evenodd"/>
      </g>
      <g id="Grupo_26719" data-name="Grupo 26719" transform="translate(27.967 16.333)">
        <path id="Trazado_26076" data-name="Trazado 26076" d="M244.365,172.207h-1.127a59.276,59.276,0,0,1,.55,8.119,55.168,55.168,0,0,1-1.835,14.45h2.411a.9.9,0,0,0,.9-.9v-1.032a9.613,9.613,0,0,0,2.53-1.048l.731.731a.9.9,0,0,0,1.268,0l2.117-2.117a.9.9,0,0,0,0-1.268l-.731-.731a9.612,9.612,0,0,0,1.049-2.529h1.032a.9.9,0,0,0,.9-.895v-2.995a.9.9,0,0,0-.9-.9h-1.032a9.658,9.658,0,0,0-1.049-2.53l.731-.731a.9.9,0,0,0,0-1.265l-2.117-2.12a.9.9,0,0,0-1.268,0l-.731.734a9.509,9.509,0,0,0-2.53-1.052V173.1A.9.9,0,0,0,244.365,172.207Z" transform="translate(-241.954 -172.207)" fill="#ffa726" fill-rule="evenodd"/>
      </g>
      <g id="Grupo_26720" data-name="Grupo 26720" transform="translate(0 0)">
        <path id="Trazado_26077" data-name="Trazado 26077" d="M59.512,378.248H57.589a.867.867,0,1,0,0,1.734h1.923a.867.867,0,1,0,0-1.734Z" transform="translate(-50.166 -338.1)" fill="#083142"/>
        <path id="Trazado_26078" data-name="Trazado 26078" d="M447.268,123.774a.867.867,0,0,0,0,1.734h2.448a.867.867,0,0,0,0-1.734Z" transform="translate(-394.803 -113.04)" fill="#083142"/>
        <path id="Trazado_26079" data-name="Trazado 26079" d="M57.913,38.331l-.721-.112V34.954a.867.867,0,1,0-1.734,0v2.995l-1.028-.16V33.653a.867.867,0,0,0-1.734,0v3.865l-1.182-.184V34.606a1.626,1.626,0,0,0-1.341-1.538l-7.684-2.083a1.779,1.779,0,0,0-1.563.232,1.589,1.589,0,0,0-.6,1.321V37.19a24.229,24.229,0,0,0-23.459.314V34.157a1.8,1.8,0,0,0-1.8-1.8H2.9a1.8,1.8,0,0,0-1.8,1.8V38.24a.867.867,0,1,0,1.734,0V34.157a.071.071,0,0,1,.07-.067H5.816v5.378a.867.867,0,0,0,1.511.581l1.657-1.836,1.66,1.837a.867.867,0,0,0,1.51-.581V34.09h2.914a.069.069,0,0,1,.067.067V46.323a.069.069,0,0,1-.067.067H2.9a.071.071,0,0,1-.07-.067V42.047a.867.867,0,1,0-1.734,0v4.276a1.8,1.8,0,0,0,1.8,1.8h4.12A24.277,24.277,0,0,0,5.84,65.947L1.173,68.214h0l-.125.059A1.477,1.477,0,0,0,0,69.594V81.478a1.511,1.511,0,0,0,1.552,1.463H15.218a1.511,1.511,0,0,0,1.552-1.463v-2a24.215,24.215,0,0,0,24.884-.395V81.53a1.468,1.468,0,0,0,1.516,1.411h4.269a.867.867,0,1,0,0-1.734H43.388V77.995c0-1.771,1.8-3.212,4.015-3.212h.621a5.082,5.082,0,0,0,3.122,0h.621c2.214,0,4.015,1.441,4.015,3.212v3.212H51.246a.867.867,0,0,0,0,1.734H56a1.47,1.47,0,0,0,1.519-1.411V77.995a5.112,5.112,0,0,0-4.079-4.733,5.071,5.071,0,0,0,1.242-3.328V67.5a5.052,5.052,0,0,0-1.525-3.627,5.2,5.2,0,0,0-.557-.475,24.252,24.252,0,0,0-1.9-15.365h7.081a1.4,1.4,0,0,0,1.4-1.4V39.721a1.426,1.426,0,0,0-1.268-1.391ZM10.419,37.216l-.793-.878a.867.867,0,0,0-.643-.286h0a.867.867,0,0,0-.643.286l-.79.875V34.091h2.87ZM11.2,77.97H5.567v-1.5H11.2ZM5.567,79.7H11.2v1.5H5.567Zm9.469,1.5h-2.1V76.029a1.3,1.3,0,0,0-1.3-1.3h-6.5a1.3,1.3,0,0,0-1.3,1.3v5.178h-2.1V69.866l.037-.017.161-.076,6.455-3.135,6.45,3.134c.054.026.108.052.162.077l.037.017V81.207ZM52.945,69.934a3.36,3.36,0,1,1-6.72,0V68.826l.191.009c.581.029,1.242.062,1.945.062a12.069,12.069,0,0,0,4.583-.759Zm-.21-3.606c-1.9.991-4.381.868-6.231.775l-.252-.012a3.381,3.381,0,0,1,3.273-2.954h.057a3.386,3.386,0,0,1,3.153,2.192Zm-1.379-7.807a22.677,22.677,0,0,1-.372,4.076,5.094,5.094,0,0,0-6.492,4.9v2.438a5.071,5.071,0,0,0,1.242,3.328,5.346,5.346,0,0,0-3.94,3.652,22.472,22.472,0,0,1-25.024.537V69.594a1.476,1.476,0,0,0-1.045-1.319l-.128-.06L8.765,64.9a.867.867,0,0,0-.758,0l-.592.288A22.546,22.546,0,0,1,8.96,48.124h6.107a1.8,1.8,0,0,0,1.8-1.8v-6.8a22.489,22.489,0,0,1,23.459-.347v7.277A1.573,1.573,0,0,0,41.9,48.029h6.857a22.489,22.489,0,0,1,2.6,10.493ZM45.655,46.3v-3.5a1.037,1.037,0,1,1,2.074,0v3.5Zm11.792,0H49.462v-3.5a2.771,2.771,0,1,0-5.541,0v3.5h-1.86V32.666l7.662,2.077.057.017v3.316a.867.867,0,0,0,.734.857l2.87.447a.851.851,0,0,0,.093.015l3.97.618Z" transform="translate(0 -30.905)" fill="#083142"/>
        <path id="Trazado_26080" data-name="Trazado 26080" d="M167.3,173.6h-.382a10.506,10.506,0,0,0-.626-1.51l.271-.271a1.763,1.763,0,0,0,0-2.49l-2.12-2.123a1.77,1.77,0,0,0-2.493,0l-.269.271a10.368,10.368,0,0,0-1.509-.628v-.381a1.765,1.765,0,0,0-1.765-1.761h-2.991a1.765,1.765,0,0,0-1.765,1.761v.383a10.484,10.484,0,0,0-1.509.627l-.271-.272a1.77,1.77,0,0,0-2.494,0l-2.116,2.12a1.765,1.765,0,0,0,0,2.491l.271.271a10.508,10.508,0,0,0-.626,1.51h-.382a1.765,1.765,0,0,0-1.761,1.765v2.995a1.763,1.763,0,0,0,1.761,1.761h.381a10.5,10.5,0,0,0,.626,1.51l-.273.273a1.769,1.769,0,0,0,0,2.491l2.12,2.12a1.769,1.769,0,0,0,2.491,0l.271-.271a10.484,10.484,0,0,0,1.51.626v.381a1.767,1.767,0,0,0,1.765,1.765h2.991a1.767,1.767,0,0,0,1.765-1.765v-.381a10.489,10.489,0,0,0,1.51-.626l.271.271a1.77,1.77,0,0,0,2.494,0l2.117-2.117a1.77,1.77,0,0,0,0-2.494l-.271-.271a10.478,10.478,0,0,0,.626-1.51h.381a1.765,1.765,0,0,0,1.765-1.761V175.36A1.767,1.767,0,0,0,167.3,173.6Zm.031,4.76a.036.036,0,0,1-.031.028H166.27a.867.867,0,0,0-.84.653,8.753,8.753,0,0,1-.954,2.3.867.867,0,0,0,.133,1.055l.728.728a.036.036,0,0,1,0,.045l-2.114,2.114a.036.036,0,0,1-.045,0l-.731-.731a.867.867,0,0,0-1.055-.133,8.752,8.752,0,0,1-2.3.954.867.867,0,0,0-.653.84v1.032a.033.033,0,0,1-.031.031h-2.991a.033.033,0,0,1-.031-.031v-1.032a.867.867,0,0,0-.653-.84,8.747,8.747,0,0,1-2.3-.954.867.867,0,0,0-1.055.133l-.731.731a.036.036,0,0,1-.042,0l-2.117-2.117a.035.035,0,0,1,0-.042l.731-.731a.867.867,0,0,0,.133-1.055,8.749,8.749,0,0,1-.954-2.3.867.867,0,0,0-.84-.653h-1.032a.032.032,0,0,1-.028-.028V175.36a.032.032,0,0,1,.028-.031h1.032a.867.867,0,0,0,.84-.652,8.781,8.781,0,0,1,.954-2.3.867.867,0,0,0-.133-1.055l-.731-.731a.025.025,0,0,1-.006-.019.025.025,0,0,1,.007-.02l2.113-2.117a.036.036,0,0,1,.043,0l.731.734a.867.867,0,0,0,1.059.133,8.763,8.763,0,0,1,2.3-.957.867.867,0,0,0,.65-.839v-1.032a.032.032,0,0,1,.031-.028h2.991a.032.032,0,0,1,.031.028V167.5a.867.867,0,0,0,.653.84,8.655,8.655,0,0,1,2.3.956.867.867,0,0,0,1.059-.133l.729-.733a.035.035,0,0,1,.042,0l2.117,2.12a.032.032,0,0,1,0,.039l-.731.731a.867.867,0,0,0-.133,1.055,8.781,8.781,0,0,1,.954,2.3.867.867,0,0,0,.84.652H167.3a.033.033,0,0,1,.031.031Z" transform="translate(-128.031 -149.24)" fill="#083142"/>
        <path id="Trazado_26081" data-name="Trazado 26081" d="M223.654,211.558c-.183-.065-.37-.133-.557-.2v-3.184a2.105,2.105,0,0,1,.661.343.867.867,0,0,0,1.089-1.349,3.953,3.953,0,0,0-1.75-.78V205.8a.867.867,0,1,0-1.734,0v.653c-.076.019-.153.039-.232.063A3.114,3.114,0,0,0,219,208.958a2.755,2.755,0,0,0,.908,2.714,7.3,7.3,0,0,0,1.459.845v4.146a2.9,2.9,0,0,1-1.385-.564.867.867,0,1,0-.949,1.451,4.508,4.508,0,0,0,2.334.854v.665a.867.867,0,1,0,1.734,0v-.746a3.768,3.768,0,0,0,2.809-3.019A3.274,3.274,0,0,0,223.654,211.558Zm-2.682-1.251a1.059,1.059,0,0,1-.273-1.028,1.459,1.459,0,0,1,.663-.986v2.277A3.721,3.721,0,0,1,220.972,210.307Zm3.224,4.71a2.026,2.026,0,0,1-1.1,1.478V213.2A1.573,1.573,0,0,1,224.2,215.017Z" transform="translate(-193.365 -184.817)" fill="#083142"/>
      </g>
    </g>
  </g>
</svg>
