<svg xmlns="http://www.w3.org/2000/svg" width="100" height="100" viewBox="0 0 100 100">
  <g id="Grupo_111657" data-name="Grupo 111657" transform="translate(-285 -1992.931)">
    <g id="Grupo_111481" data-name="Grupo 111481" transform="translate(-49.862 -186.25)">
      <g id="Grupo_111302" data-name="Grupo 111302" transform="translate(334.862 2179.181)">
        <circle id="Elipse_4722" data-name="Elipse 4722" cx="50" cy="50" r="50" transform="translate(0 0)" fill="#083142"/>
        <circle id="Elipse_4723" data-name="Elipse 4723" cx="43.478" cy="43.478" r="43.478" transform="translate(6.522 6.522)" fill="#fff"/>
      </g>
    </g>
    <g id="conversacion" transform="translate(309.468 2017.962)">
      <g id="Grupo_23384" data-name="Grupo 23384" transform="translate(0.757 0.757)">
        <path id="Trazado_6399" data-name="Trazado 6399" d="M188.278,324.372h6.514c2.125.637,3.967,1.882,3.967,3.316V336.2H184.311v-8.508C184.311,326.254,186.15,325.009,188.278,324.372Z" transform="translate(-166.499 -293.272)" fill="#ebd2ff" fill-rule="evenodd"/>
        <path id="Trazado_6400" data-name="Trazado 6400" d="M268.046,327.688V336.2h2.445v-8.508c0-1.434-1.842-2.679-3.967-3.316h-2.445C266.2,325.009,268.046,326.254,268.046,327.688Z" transform="translate(-238.23 -293.272)" fill="#d7bef0" fill-rule="evenodd"/>
        <path id="Trazado_6401" data-name="Trazado 6401" d="M94.281,432.464h3.85l3.147-.44,3.121.44h12.352l3.07-.6,3.2.6h3.853v5.894H94.281Z" transform="translate(-85.539 -389.932)" fill="#d09080" fill-rule="evenodd"/>
        <path id="Trazado_6402" data-name="Trazado 6402" d="M7.512,348.745V336.208a2.813,2.813,0,0,1,2.8-2.8h4.632c.08,0,.16,0,.237.009a2.156,2.156,0,0,1,1.925.842l3.77,4.992a.856.856,0,0,0,.771.383h4.721a2.148,2.148,0,1,1,0,4.3H20.1a2.142,2.142,0,0,1-1.711-.854l-.64-.845v7.594H8.583a1.324,1.324,0,0,1-1.071-1.074Z" transform="translate(-7.512 -301.392)" fill="#ff6978" fill-rule="evenodd"/>
        <path id="Trazado_6403" data-name="Trazado 6403" d="M316.982,348.745V336.208a2.814,2.814,0,0,0-2.807-2.8h-4.629q-.12,0-.24.009a2.155,2.155,0,0,0-1.925.842l-3.767,4.992a.868.868,0,0,1-.771.383h-4.721a2.148,2.148,0,1,0,0,4.3h6.266a2.147,2.147,0,0,0,1.714-.854l.637-.845v7.594h9.17a1.331,1.331,0,0,0,1.074-1.074Z" transform="translate(-266.909 -301.392)" fill="#ccf49f" fill-rule="evenodd"/>
        <path id="Trazado_6404" data-name="Trazado 6404" d="M203.069,88.077h12.3l3.113,3.113c.249.246.531.1.531-.223v-2.89a2.892,2.892,0,0,0,2.882-2.884V77.916a2.89,2.89,0,0,0-2.882-2.882H203.069a2.892,2.892,0,0,0-2.884,2.882v7.277A2.9,2.9,0,0,0,203.069,88.077Z" transform="translate(-180.773 -69.054)" fill="#ecf4ff" fill-rule="evenodd"/>
        <path id="Trazado_6405" data-name="Trazado 6405" d="M19.093,31.794H32.036a3.838,3.838,0,0,0,3.827-3.827V19.5a3.837,3.837,0,0,0-3.827-3.824H15.449A3.837,3.837,0,0,0,11.622,19.5v8.465a3.838,3.838,0,0,0,3.827,3.827v2.893a.3.3,0,0,0,.531.22Z" transform="translate(-11.208 -15.679)" fill="#ecf4ff" fill-rule="evenodd"/>
        <path id="Trazado_6406" data-name="Trazado 6406" d="M223.677,243.405a4.078,4.078,0,0,1-8.156,0v-4.369a2.289,2.289,0,0,1,2.285-2.282h5.263a.546.546,0,0,1,.608.605Z" transform="translate(-194.565 -214.481)" fill="#ffcbbe" fill-rule="evenodd"/>
        <path id="Trazado_6407" data-name="Trazado 6407" d="M215.521,239.034v1.317h8.156v-2.993a.546.546,0,0,0-.608-.605h-5.263A2.289,2.289,0,0,0,215.521,239.034Z" transform="translate(-194.565 -214.479)" fill="#ffe5a0" fill-rule="evenodd"/>
        <path id="Trazado_6408" data-name="Trazado 6408" d="M17.858,243.405a4.078,4.078,0,0,0,8.156,0v-4.369a2.289,2.289,0,0,0-2.285-2.282H20.14a2.288,2.288,0,0,0-2.282,2.282v4.369Z" transform="translate(-16.816 -214.481)" fill="#ffcbbe" fill-rule="evenodd"/>
        <path id="Trazado_6409" data-name="Trazado 6409" d="M421.366,243.405a4.077,4.077,0,1,1-8.153,0v-4.369a2.286,2.286,0,0,1,2.282-2.282h3.59a2.286,2.286,0,0,1,2.282,2.282Z" transform="translate(-372.34 -214.481)" fill="#c68b87" fill-rule="evenodd"/>
        <path id="Trazado_6410" data-name="Trazado 6410" d="M446.831,263.771a4.089,4.089,0,0,1-4.075,4.078,4.149,4.149,0,0,1-1.225-.188,4.1,4.1,0,0,0,2.836-3.493,5.457,5.457,0,0,0,2.462-.254l0-4.512Z" transform="translate(-397.804 -234.847)" fill="#bd7d79" fill-rule="evenodd"/>
        <path id="Trazado_6411" data-name="Trazado 6411" d="M26.014,239.035v1.588a3.061,3.061,0,0,1-2.645-.237c-.428-.243-.5-.246-.554.148-.149,1.145-.665,4.307-4.952,3.013l-.006-4.512a2.288,2.288,0,0,1,2.282-2.282h3.59A2.289,2.289,0,0,1,26.014,239.035Z" transform="translate(-16.816 -214.48)" fill="#c68b87" fill-rule="evenodd"/>
        <path id="Trazado_6412" data-name="Trazado 6412" d="M413.212,239.035v1.588a3.056,3.056,0,0,0,2.642-.237c.431-.243.5-.246.554.148.149,1.145.665,4.307,4.955,3.013l0-4.512a2.285,2.285,0,0,0-2.282-2.282h-3.59A2.286,2.286,0,0,0,413.212,239.035Z" transform="translate(-372.339 -214.48)" fill="#477b9e" fill-rule="evenodd"/>
        <path id="Trazado_6413" data-name="Trazado 6413" d="M449.51,239.034V243.4a3.7,3.7,0,0,1-.02.4,5.457,5.457,0,0,0,2.462-.254l0-4.512a2.288,2.288,0,0,0-2.122-2.276,1.491,1.491,0,0,0-.16-.006h-2.445A2.287,2.287,0,0,1,449.51,239.034Z" transform="translate(-402.928 -214.479)" fill="#365e7d" fill-rule="evenodd"/>
        <path id="Trazado_6414" data-name="Trazado 6414" d="M49.062,276.772a4.1,4.1,0,0,1-2.856,3.89,4.076,4.076,0,0,0,5.3-3.89V273.99a3.019,3.019,0,0,1-2.445-.131v2.913Z" transform="translate(-42.308 -247.848)" fill="#f7beaf" fill-rule="evenodd"/>
        <path id="Trazado_6415" data-name="Trazado 6415" d="M51.875,236.753a2.289,2.289,0,0,1,2.285,2.282v1.457a3.019,3.019,0,0,0,2.445.131v-1.588a2.289,2.289,0,0,0-2.285-2.282Z" transform="translate(-47.406 -214.48)" fill="#bd7d79" fill-rule="evenodd"/>
        <path id="Trazado_6416" data-name="Trazado 6416" d="M246.724,275.523a4.1,4.1,0,0,1-2.856,3.89,4.076,4.076,0,0,0,5.3-3.89V272.47h-2.445v3.053Z" transform="translate(-220.056 -246.599)" fill="#f7beaf" fill-rule="evenodd"/>
        <path id="Trazado_6417" data-name="Trazado 6417" d="M266.785,237.358v2.993h2.445v-2.993a.546.546,0,0,0-.608-.605h-2.445A.546.546,0,0,1,266.785,237.358Z" transform="translate(-240.117 -214.48)" fill="#f2ce7e" fill-rule="evenodd"/>
        <path id="Trazado_6418" data-name="Trazado 6418" d="M85.2,392.12a.163.163,0,0,0-.3.1v10.338h2.445v-7.594Z" transform="translate(-77.103 -354.132)" fill="#cf4351" fill-rule="evenodd"/>
        <path id="Trazado_6419" data-name="Trazado 6419" d="M470.667,336.371v12.537a1.331,1.331,0,0,1-1.074,1.074h2.445a1.331,1.331,0,0,0,1.074-1.074V336.371a2.818,2.818,0,0,0-2.487-2.787,4.048,4.048,0,0,1-.985.623A2.8,2.8,0,0,1,470.667,336.371Z" transform="translate(-423.039 -301.556)" fill="#b3e59f" fill-rule="evenodd"/>
        <path id="Trazado_6420" data-name="Trazado 6420" d="M200.5,85.856a2.894,2.894,0,0,0,2.853,2.476h12.3l3.113,3.113c.249.246.531.1.531-.223v-2.89a2.892,2.892,0,0,0,2.882-2.884V78.171a2.891,2.891,0,0,0-2.473-2.853,2.758,2.758,0,0,1,.029.408V83a2.89,2.89,0,0,1-2.882,2.882H200.905A2.742,2.742,0,0,1,200.5,85.856Z" transform="translate(-181.054 -69.31)" fill="#ddeafb" fill-rule="evenodd"/>
        <path id="Trazado_6421" data-name="Trazado 6421" d="M35.127,27.206A3.836,3.836,0,0,1,31.3,31.032H14.713a3.81,3.81,0,0,1-1.191-.191,3.841,3.841,0,0,0,3.636,2.636V36.37a.3.3,0,0,0,.531.22L20.8,33.477H33.744a3.838,3.838,0,0,0,3.827-3.827V21.185a3.846,3.846,0,0,0-2.636-3.635,3.837,3.837,0,0,1,.191,1.191v8.465Z" transform="translate(-12.917 -17.361)" fill="#ddeafb" fill-rule="evenodd"/>
        <path id="Trazado_6422" data-name="Trazado 6422" d="M378.571,437.843h2.445v5.894h-2.445Z" transform="translate(-341.188 -395.311)" fill="#be694f" fill-rule="evenodd"/>
      </g>
      <path id="Trazado_6423" data-name="Trazado 6423" d="M2.759,38.987A3.322,3.322,0,0,0,9.2,37.848V36a3.805,3.805,0,0,1-1.794-.291,6.182,6.182,0,0,1-.154.611A3.975,3.975,0,0,1,5.989,38.3a3.685,3.685,0,0,1-2.6.754,5.69,5.69,0,0,1-.628-.066Zm19.574-4.949h6.643V31.95H23.861a1.536,1.536,0,0,0-1.528,1.528Zm6.643,1.511H22.333v2.3a3.321,3.321,0,0,0,6.643,0v-2.3Zm20.705,5.043a3.6,3.6,0,0,1,1.057.851,3.539,3.539,0,0,1,.845,2.3v5.095a.755.755,0,0,1-1.511,0V43.739a2.04,2.04,0,0,0-.485-1.322,2.075,2.075,0,0,0-1.045-.663,4.808,4.808,0,0,1-5.752-.06,1.446,1.446,0,0,0-.446.126,1.384,1.384,0,0,0-.514.42l-4.058,5.375a.759.759,0,0,1-.6.3h-5.2a1.392,1.392,0,1,0,0,2.784H38.18a1.358,1.358,0,0,0,.677-.146,4.476,4.476,0,0,0,1.151-1.288L42.7,45.713a.753.753,0,1,1,1.2.908l-2.556,3.387v6.586h8.73V52.255a.755.755,0,0,1,1.511,0V57.35a.753.753,0,0,1-.754.754H.757A.756.756,0,0,1,0,57.35V52.255a.755.755,0,0,1,1.511,0v4.338h8.733V50.008L7.685,46.621a.755.755,0,0,1,1.205-.908l2.627,3.478c.24.317.48.637.72.957a1.39,1.39,0,0,0,.491.408,1.322,1.322,0,0,0,.631.146h6.257a1.392,1.392,0,1,0,0-2.784h-5.2a.754.754,0,0,1-.6-.3L9.753,42.24a1.4,1.4,0,0,0-.96-.545,4.814,4.814,0,0,1-5.752.063,2.071,2.071,0,0,0-1.034.645,2.046,2.046,0,0,0-.5,1.337v5.095a.755.755,0,0,1-1.511,0V43.739a3.55,3.55,0,0,1,.868-2.322A3.637,3.637,0,0,1,1.9,40.592a4.792,4.792,0,0,1-.86-2.744V33.478A3.042,3.042,0,0,1,4.081,30.44h3.59a3.042,3.042,0,0,1,3.039,3.039v4.369a4.8,4.8,0,0,1-.783,2.63,2.925,2.925,0,0,1,1.031.854l3.83,5.072h3.024V43.34a3.151,3.151,0,0,1,1.205-2.319A7.939,7.939,0,0,1,21.193,39.7a4.8,4.8,0,0,1-.371-1.856V33.478a3.042,3.042,0,0,1,3.039-3.039h5.872a.758.758,0,0,1,.757.757v6.651a4.831,4.831,0,0,1-.334,1.762,8.222,8.222,0,0,1,2.336,1.342,3.2,3.2,0,0,1,1.279,2.388V46.4h3.024l3.83-5.072a2.893,2.893,0,0,1,1.034-.851,4.8,4.8,0,0,1-.785-2.633V33.478a3.042,3.042,0,0,1,3.039-3.039H47.5a3.042,3.042,0,0,1,3.039,3.039v4.369a4.813,4.813,0,0,1-.86,2.744Zm-.857-1.605a5.62,5.62,0,0,1-.628.066,3.683,3.683,0,0,1-2.6-.754,3.96,3.96,0,0,1-1.265-1.979,6.17,6.17,0,0,1-.151-.611,3.82,3.82,0,0,1-1.8.291v1.848a3.322,3.322,0,0,0,6.44,1.139Zm-6.44-4.5a2.463,2.463,0,0,0,1.876-.557.763.763,0,0,1,.491-.211.751.751,0,0,1,.788.717,6.015,6.015,0,0,0,.234,1.442,2.5,2.5,0,0,0,.765,1.248,2.266,2.266,0,0,0,1.585.423,5.438,5.438,0,0,0,.905-.131V33.478A1.541,1.541,0,0,0,47.5,31.95h-3.59a1.541,1.541,0,0,0-1.528,1.528Zm-33.185,0V33.478A1.536,1.536,0,0,0,7.671,31.95H4.081a1.536,1.536,0,0,0-1.525,1.528v3.938a5.378,5.378,0,0,0,.9.131,2.266,2.266,0,0,0,1.585-.423,2.527,2.527,0,0,0,.768-1.248,5.877,5.877,0,0,0,.231-1.442.756.756,0,0,1,1.274-.511A2.464,2.464,0,0,0,9.2,34.486ZM22,41a6.565,6.565,0,0,0-1.982,1.139,1.724,1.724,0,0,0-.7,1.2V46.4h.294a2.9,2.9,0,0,1,2.548,4.3h7.254a2.907,2.907,0,0,1,2.55-4.3h.291V43.34a1.78,1.78,0,0,0-.748-1.242,7.027,7.027,0,0,0-2.136-1.174c-.1.117-.2.231-.306.337a4.816,4.816,0,0,1-6.828,0Q22.117,41.136,22,41ZM6.3,13.761a.755.755,0,0,1,0-1.511H20.285a.755.755,0,0,1,0,1.511Zm0,7.951a.757.757,0,0,1,0-1.514h6.994a.757.757,0,1,1,0,1.514Zm0-3.975a.755.755,0,0,1,0-1.511H20.285a.755.755,0,0,1,0,1.511Zm14.762,8.056a2.089,2.089,0,0,0,.488.771,2.112,2.112,0,0,0,1.5.625h4.441a.755.755,0,0,1,0,1.511H23.053a3.609,3.609,0,0,1-2.573-1.074,3.672,3.672,0,0,1-.988-1.833H8.956L5.535,29.214a.757.757,0,0,1-1.294-.531V25.73A4.6,4.6,0,0,1,.417,21.212V12.748A4.593,4.593,0,0,1,5,8.167H21.585a4.593,4.593,0,0,1,4.581,4.581v1.4H39a3.647,3.647,0,0,1,3.638,3.638v7.277a3.649,3.649,0,0,1-2.884,3.559v2.97a.754.754,0,0,1-1.288.534L35.042,28.7H30.915a.755.755,0,1,1,0-1.511h4.441a.746.746,0,0,1,.537.226l2.35,2.35V27.947A.756.756,0,0,1,39,27.19a2.135,2.135,0,0,0,2.128-2.128V17.785A2.135,2.135,0,0,0,39,15.658H26.166v5.555a4.593,4.593,0,0,1-4.581,4.581h-.526ZM8.642,24.282H21.585a3.081,3.081,0,0,0,3.07-3.07V12.748a3.081,3.081,0,0,0-3.07-3.07H5a3.081,3.081,0,0,0-3.07,3.07v8.465A3.081,3.081,0,0,0,5,24.283a.756.756,0,0,1,.754.757v1.819l2.356-2.353a.75.75,0,0,1,.534-.223Zm31.189,27.93H11.755v4.381H39.831V52.212Z" transform="translate(0 -8.167)"/>
    </g>
  </g>
</svg>
