<svg id="software" xmlns="http://www.w3.org/2000/svg" width="87.757" height="78.981" viewBox="0 0 87.757 78.981">
  <rect id="Rectángulo_44994" data-name="Rectángulo 44994" width="75.875" height="44.007" transform="translate(9.735 1.171)" fill="#fff"/>
  <path id="Trazado_166817" data-name="Trazado 166817" d="M44.565,44.565a23.4,23.4,0,0,1-23.4-23.4V8H13.85A5.851,5.851,0,0,0,8,13.85v46.8a5.851,5.851,0,0,0,5.85,5.85h73.13a5.851,5.851,0,0,0,5.85-5.85V44.565Zm0,0" transform="translate(-6.537 -6.537)" fill="#f6f6f6"/>
  <path id="Trazado_166818" data-name="Trazado 166818" d="M179.1,339.7H144l7.313-11.7H171.79Zm0,0" transform="translate(-117.673 -268.033)" fill="#dae0e3"/>
  <path id="Trazado_166819" data-name="Trazado 166819" d="M85.85,392h46.8a5.851,5.851,0,0,1,5.85,5.85H80A5.851,5.851,0,0,1,85.85,392Zm0,0" transform="translate(-65.374 -320.332)" fill="#a8b7bd"/>
  <path id="Trazado_166820" data-name="Trazado 166820" d="M8,264H92.831v5.85a5.851,5.851,0,0,1-5.85,5.85H13.85A5.851,5.851,0,0,1,8,269.85Zm0,0" transform="translate(-6.537 -215.734)" fill="#a8b7bd"/>
  <path id="Trazado_166821" data-name="Trazado 166821" d="M283.79,72.089a9.971,9.971,0,0,0-.131-1.623l4.519-2.618-4.388-7.606-4.549,2.633a11.418,11.418,0,0,0-2.765-1.624V56H267.7V61.25a11.431,11.431,0,0,0-2.808,1.624l-4.505-2.633L256,67.847l4.564,2.618a10.063,10.063,0,0,0,0,3.247L256,76.33l4.388,7.606,4.549-2.633a11.421,11.421,0,0,0,2.764,1.624v5.251h8.776V82.927a11.43,11.43,0,0,0,2.808-1.624l4.5,2.633,4.388-7.606-4.563-2.618a10.013,10.013,0,0,0,.176-1.623Zm-11.7,4.388a4.388,4.388,0,1,1,4.388-4.388A4.388,4.388,0,0,1,272.089,76.476Zm0,0" transform="translate(-209.197 -45.762)" fill="#2efec7"/>
  <path id="Trazado_166822" data-name="Trazado 166822" d="M93.757,91.7a9.541,9.541,0,0,0-.146-1.594l2.925-1.726L93.611,83.32l-2.925,1.711a9.06,9.06,0,0,0-2.78-1.594V80h-5.85v3.437a8.781,8.781,0,0,0-2.764,1.594L76.367,83.32l-2.925,5.061,2.925,1.726a7.986,7.986,0,0,0,0,3.188l-2.925,1.726,2.925,5.061,2.925-1.711a8.782,8.782,0,0,0,2.764,1.594V103.4h5.85V99.964A9.054,9.054,0,0,0,90.73,98.37l2.925,1.711,2.925-5.061-2.925-1.726A9.518,9.518,0,0,0,93.757,91.7Zm-8.776,2.925A2.925,2.925,0,1,1,87.907,91.7,2.925,2.925,0,0,1,84.981,94.626Zm0,0" transform="translate(-60.015 -65.374)" fill="#2efec7"/>
  <g id="Grupo_111545" data-name="Grupo 111545">
    <path id="Trazado_166823" data-name="Trazado 166823" d="M80.444,0H7.313A7.313,7.313,0,0,0,0,7.313v46.8A7.313,7.313,0,0,0,7.313,61.43H31.008l-5.485,8.776H20.477a7.313,7.313,0,0,0-7.313,7.313,1.463,1.463,0,0,0,1.463,1.463h58.5a1.463,1.463,0,0,0,1.463-1.463,7.313,7.313,0,0,0-7.313-7.313H62.234L56.749,61.43H80.444a7.313,7.313,0,0,0,7.313-7.313V7.313A7.313,7.313,0,0,0,80.444,0ZM71.419,76.056H16.337a4.388,4.388,0,0,1,4.139-2.925h46.8a4.388,4.388,0,0,1,4.139,2.925ZM58.8,70.205H28.959l5.485-8.776H53.312ZM84.831,54.117A4.388,4.388,0,0,1,80.443,58.5H7.313a4.388,4.388,0,0,1-4.388-4.388V49.729H84.831Zm0-7.313H2.925V7.313A4.388,4.388,0,0,1,7.313,2.925h73.13a4.388,4.388,0,0,1,4.388,4.388Zm0,0" fill="#121313"/>
    <path id="Trazado_166824" data-name="Trazado 166824" d="M402.925,289.463A1.463,1.463,0,1,1,401.463,288,1.463,1.463,0,0,1,402.925,289.463Zm0,0" transform="translate(-326.87 -235.346)" fill="#121313"/>
    <path id="Trazado_166825" data-name="Trazado 166825" d="M370.925,289.463A1.463,1.463,0,1,1,369.463,288,1.463,1.463,0,0,1,370.925,289.463Zm0,0" transform="translate(-300.72 -235.346)" fill="#121313"/>
    <path id="Trazado_166826" data-name="Trazado 166826" d="M87.375,94.276,90.3,89.215a1.463,1.463,0,0,0-.526-2l-2.092-1.228V84.344L89.8,83.116a1.463,1.463,0,0,0,.526-2L87.4,76.052a1.462,1.462,0,0,0-1.989-.541l-2.121,1.229a9.622,9.622,0,0,0-1.463-.819V73.463A1.463,1.463,0,0,0,80.369,72h-5.85a1.463,1.463,0,0,0-1.463,1.463V75.92a9.623,9.623,0,0,0-1.463.819L69.458,75.51a1.462,1.462,0,0,0-1.989.541l-2.925,5.061a1.463,1.463,0,0,0,.526,2l2.121,1.228v1.638L65.07,87.211a1.463,1.463,0,0,0-.526,2l2.925,5.061a1.462,1.462,0,0,0,1.989.541l2.135-1.229a9.621,9.621,0,0,0,1.463.819v2.457a1.463,1.463,0,0,0,1.463,1.463h5.85a1.463,1.463,0,0,0,1.463-1.463V94.407a9.62,9.62,0,0,0,1.463-.819l2.135,1.229a1.463,1.463,0,0,0,1.945-.541ZM82.2,90.721a7.442,7.442,0,0,1-2.311,1.331,1.462,1.462,0,0,0-.98,1.375V95.4H75.981V93.427A1.462,1.462,0,0,0,75,92.052a7.442,7.442,0,0,1-2.311-1.331,1.463,1.463,0,0,0-1.682-.161l-1.7.995L67.849,89.01l1.7-.921a1.462,1.462,0,0,0,.716-1.535,6.818,6.818,0,0,1,0-2.662,1.462,1.462,0,0,0-.716-1.653l-1.7-.98,1.463-2.545,1.7.995a1.462,1.462,0,0,0,1.682-.161A7.442,7.442,0,0,1,75,78.216a1.462,1.462,0,0,0,.98-1.375V74.925h2.925V76.9a1.462,1.462,0,0,0,.98,1.375A7.441,7.441,0,0,1,82.2,79.606a1.463,1.463,0,0,0,1.682.161l1.7-.995,1.463,2.545-1.7.921a1.462,1.462,0,0,0-.716,1.535,6.818,6.818,0,0,1,0,2.662,1.462,1.462,0,0,0,.716,1.653l1.7.98-1.463,2.545-1.7-.995A1.463,1.463,0,0,0,82.2,90.721Zm0,0" transform="translate(-52.579 -58.837)" fill="#121313"/>
    <path id="Trazado_166827" data-name="Trazado 166827" d="M116.388,120a4.388,4.388,0,1,0,4.388,4.388A4.388,4.388,0,0,0,116.388,120Zm0,5.85a1.463,1.463,0,1,1,1.463-1.463A1.463,1.463,0,0,1,116.388,125.85Zm0,0" transform="translate(-91.523 -98.061)" fill="#121313"/>
    <path id="Trazado_166828" data-name="Trazado 166828" d="M317.85,112a5.85,5.85,0,1,0,5.85,5.85A5.851,5.851,0,0,0,317.85,112Zm0,8.776a2.925,2.925,0,1,1,2.925-2.925A2.925,2.925,0,0,1,317.85,120.776Zm0,0" transform="translate(-254.958 -91.523)" fill="#121313"/>
    <path id="Trazado_166829" data-name="Trazado 166829" d="M282.551,60.579l-4.388-7.606a1.464,1.464,0,0,0-1.99-.585l-3.7,2.208a14.2,14.2,0,0,0-1.463-.833v-4.3A1.463,1.463,0,0,0,269.548,48h-8.776a1.463,1.463,0,0,0-1.463,1.463v4.3a14.217,14.217,0,0,0-1.463.833l-3.7-2.208a1.464,1.464,0,0,0-1.99.526l-4.388,7.606a1.463,1.463,0,0,0,.527,2.106l3.7,2.106v1.638l-3.7,2.106a1.463,1.463,0,0,0-.527,1.989l4.388,7.606a1.463,1.463,0,0,0,1.99.526l3.7-2.091a14.214,14.214,0,0,0,1.463.833v4.3a1.463,1.463,0,0,0,1.463,1.463h8.776a1.463,1.463,0,0,0,1.463-1.463v-4.3a14.2,14.2,0,0,0,1.463-.833l3.7,2.208a1.464,1.464,0,0,0,1.99-.526l4.388-7.606a1.463,1.463,0,0,0-.527-2.106l-3.7-2.106V64.732l3.7-2.106a1.462,1.462,0,0,0,.527-2.048Zm-6.538,2.047a1.462,1.462,0,0,0-.731,1.463,8.638,8.638,0,0,1,0,2.837,1.462,1.462,0,0,0,.731,1.463l3.277,1.9-2.925,5.061-3.277-1.887a1.463,1.463,0,0,0-1.638.1,9.886,9.886,0,0,1-2.457,1.463,1.462,1.462,0,0,0-.907,1.345v3.8h-5.85V76.39a1.462,1.462,0,0,0-.907-1.345,9.91,9.91,0,0,1-2.457-1.463,1.463,1.463,0,0,0-1.638-.1l-3.277,1.887L251.031,70.3l3.277-1.828a1.462,1.462,0,0,0,.731-1.463,8.638,8.638,0,0,1,0-2.837,1.462,1.462,0,0,0-.731-1.463l-3.277-1.9,2.925-5.061,3.277,1.887a1.463,1.463,0,0,0,1.638-.1,9.888,9.888,0,0,1,2.457-1.463,1.462,1.462,0,0,0,.907-1.345v-3.8h5.85v3.788a1.462,1.462,0,0,0,.907,1.346,9.908,9.908,0,0,1,2.457,1.463,1.463,1.463,0,0,0,1.638.1l3.277-1.887,2.925,5.061Zm0,0" transform="translate(-202.268 -39.224)" fill="#121313"/>
    <path id="Trazado_166830" data-name="Trazado 166830" d="M177.465,37.616a1.462,1.462,0,0,0,.761-.219,16.382,16.382,0,0,1,13.456-1.755,1.471,1.471,0,1,0,.877-2.809A19.367,19.367,0,0,0,176.7,34.925a1.447,1.447,0,0,0,.761,2.691Zm0,0" transform="translate(-143.825 -26.15)" fill="#121313"/>
    <path id="Trazado_166831" data-name="Trazado 166831" d="M190.281,211.637a15.774,15.774,0,0,1-3.349.366,16.733,16.733,0,0,1-8.776-2.472A1.444,1.444,0,1,0,176.665,212a19.778,19.778,0,0,0,10.238,2.925,18.684,18.684,0,0,0,3.964-.439,1.495,1.495,0,1,0-.614-2.925Zm0,0" transform="translate(-143.785 -171.049)" fill="#121313"/>
  </g>
</svg>
