<svg xmlns="http://www.w3.org/2000/svg" width="100" height="100" viewBox="0 0 100 100">
  <g id="Grupo_111484" data-name="Grupo 111484" transform="translate(-285 -1828)">
    <g id="Grupo_111482" data-name="Grupo 111482" transform="translate(-49.862 -351.181)">
      <g id="Grupo_111302" data-name="Grupo 111302" transform="translate(334.862 2179.181)">
        <circle id="Elipse_4722" data-name="Elipse 4722" cx="50" cy="50" r="50" transform="translate(0 0)" fill="#ff6148"/>
        <circle id="Elipse_4723" data-name="Elipse 4723" cx="43.478" cy="43.478" r="43.478" transform="translate(6.522 6.522)" fill="#fff"/>
      </g>
    </g>
    <g id="_026-diagram" data-name="026-diagram" transform="translate(308.616 1852.592)">
      <g id="Grupo_26963" data-name="Grupo 26963" transform="translate(1.22 26.21)">
        <path id="Trazado_26448" data-name="Trazado 26448" d="M33.686,282.867v-19.2a1.269,1.269,0,0,0-1.265-1.265H26.887L23.9,259.841a1.471,1.471,0,0,0-2.031-.112l-3.111,2.677H13.226a1.269,1.269,0,0,0-1.265,1.265v19.2a1.269,1.269,0,0,0,1.265,1.265h19.2A1.269,1.269,0,0,0,33.686,282.867Z" transform="translate(-11.961 -259.375)" fill="#69c8bf" fill-rule="evenodd"/>
      </g>
      <g id="Grupo_26964" data-name="Grupo 26964" transform="translate(6.179 34.153)">
        <path id="Trazado_26449" data-name="Trazado 26449" d="M71.72,341.438a.685.685,0,0,0,.681-.681v-2.806a.685.685,0,0,0-.681-.681H61.276a.683.683,0,0,0-.681.681v2.806a.683.683,0,0,0,.681.681Z" transform="translate(-60.595 -337.271)" fill="#375e7d" fill-rule="evenodd"/>
      </g>
      <g id="Grupo_26965" data-name="Grupo 26965" transform="translate(26.689 29.241)">
        <path id="Trazado_26450" data-name="Trazado 26450" d="M286.479,309.557v-19.2a1.269,1.269,0,0,0-1.265-1.265h-19.2a1.269,1.269,0,0,0-1.265,1.265V295.9l-2.568,2.985a1.468,1.468,0,0,0-.109,2.028l2.676,3.114v5.535a1.269,1.269,0,0,0,1.265,1.265h19.2A1.269,1.269,0,0,0,286.479,309.557Z" transform="translate(-261.721 -289.096)" fill="#eb5468" fill-rule="evenodd"/>
      </g>
      <g id="Grupo_26966" data-name="Grupo 26966" transform="translate(34.816 34.371)">
        <path id="Trazado_26451" data-name="Trazado 26451" d="M341.414,340.082v2.806a.683.683,0,0,0,.681.681h10.442a.683.683,0,0,0,.681-.681v-2.806a.683.683,0,0,0-.681-.681H342.095A.683.683,0,0,0,341.414,340.082Z" transform="translate(-341.414 -339.401)" fill="#375e7d" fill-rule="evenodd"/>
      </g>
      <g id="Grupo_26967" data-name="Grupo 26967" transform="translate(29.721 0.765)">
        <path id="Trazado_26452" data-name="Trazado 26452" d="M292.72,31.579h5.535l3.111,2.676a1.471,1.471,0,0,0,2.031-.112l2.985-2.565h5.535a1.269,1.269,0,0,0,1.265-1.265v-19.2a1.269,1.269,0,0,0-1.265-1.265h-19.2a1.269,1.269,0,0,0-1.265,1.265v19.2A1.269,1.269,0,0,0,292.72,31.579Z" transform="translate(-291.455 -9.853)" fill="#a5e5ee" fill-rule="evenodd"/>
      </g>
      <g id="Grupo_26968" data-name="Grupo 26968" transform="translate(0.765 0.765)">
        <path id="Trazado_26453" data-name="Trazado 26453" d="M31.9,21.665a1.468,1.468,0,0,0-.112-2.028l-2.565-2.985V11.118a1.269,1.269,0,0,0-1.265-1.265H8.765A1.269,1.269,0,0,0,7.5,11.118v19.2a1.269,1.269,0,0,0,1.265,1.265h19.2a1.269,1.269,0,0,0,1.265-1.265V24.779Z" transform="translate(-7.5 -9.853)" fill="#ffca28" fill-rule="evenodd"/>
      </g>
      <g id="Grupo_26969" data-name="Grupo 26969" transform="translate(5.704 6.109)">
        <path id="Trazado_26454" data-name="Trazado 26454" d="M67.739,65.746V62.94a.686.686,0,0,0-.684-.681H56.614a.683.683,0,0,0-.681.681v2.806a.683.683,0,0,0,.681.681H67.055A.686.686,0,0,0,67.739,65.746Z" transform="translate(-55.933 -62.259)" fill="#375e7d" fill-rule="evenodd"/>
      </g>
      <g id="Grupo_26970" data-name="Grupo 26970" transform="translate(34.731 5.965)">
        <path id="Trazado_26455" data-name="Trazado 26455" d="M341.26,65.013H351.7a.681.681,0,0,0,.681-.681v-2.8a.681.681,0,0,0-.681-.681H341.26a.681.681,0,0,0-.681.681v2.8A.681.681,0,0,0,341.26,65.013Z" transform="translate(-340.579 -60.849)" fill="#375e7d" fill-rule="evenodd"/>
      </g>
      <g id="Grupo_26971" data-name="Grupo 26971" transform="translate(13.46 6.109)">
        <path id="Trazado_26456" data-name="Trazado 26456" d="M135.36,62.26h-3.366a29.362,29.362,0,0,1,.552,4.167h2.814a.686.686,0,0,0,.684-.681V62.941A.685.685,0,0,0,135.36,62.26Z" transform="translate(-131.994 -62.26)" fill="#2b4d66" fill-rule="evenodd"/>
      </g>
      <g id="Grupo_26972" data-name="Grupo 26972" transform="translate(11.714 0.765)">
        <path id="Trazado_26457" data-name="Trazado 26457" d="M119.985,19.365h-2.814q.057.929.059,1.881c0,.5-.012,1-.035,1.5a29.44,29.44,0,0,1-.355,3.363,25.852,25.852,0,0,1-1.508,5.47h9.053a1.269,1.269,0,0,0,1.265-1.265V24.779l2.676-3.114a1.468,1.468,0,0,0-.112-2.028l-2.565-2.985V11.118a1.269,1.269,0,0,0-1.265-1.265h-9.511a24.6,24.6,0,0,1,1.746,5.344h3.366a.686.686,0,0,1,.684.681v2.806a.686.686,0,0,1-.684.681Z" transform="translate(-114.873 -9.853)" fill="#ffa726" fill-rule="evenodd"/>
      </g>
      <g id="Grupo_26973" data-name="Grupo 26973" transform="translate(41.037 5.965)">
        <path id="Trazado_26458" data-name="Trazado 26458" d="M402.424,60.849a27.564,27.564,0,0,1,.886,4.164h3.93a.681.681,0,0,0,.681-.681v-2.8a.681.681,0,0,0-.681-.681h-4.816Z" transform="translate(-402.424 -60.849)" fill="#2b4d66" fill-rule="evenodd"/>
      </g>
      <g id="Grupo_26974" data-name="Grupo 26974" transform="translate(38.763 0.765)">
        <path id="Trazado_26459" data-name="Trazado 26459" d="M382.394,15.053h4.816a.681.681,0,0,1,.681.681v2.8a.681.681,0,0,1-.681.681h-3.93a30.173,30.173,0,0,1,.258,3.384c.006.214.009.431.009.646,0,.924-.041,1.828-.12,2.718a26.328,26.328,0,0,1-2.148,8.484,1.474,1.474,0,0,0,1.74-.305L386,31.579h5.535a1.269,1.269,0,0,0,1.265-1.265v-19.2a1.269,1.269,0,0,0-1.265-1.265H380.12A21.9,21.9,0,0,1,382.394,15.053Z" transform="translate(-380.12 -9.853)" fill="#4dd0e1" fill-rule="evenodd"/>
      </g>
      <g id="Grupo_26975" data-name="Grupo 26975" transform="translate(42.61 34.371)">
        <path id="Trazado_26460" data-name="Trazado 26460" d="M421.176,339.4h-3.328a30.489,30.489,0,0,1,.176,3.307c0,.288,0,.575-.012.86h3.164a.683.683,0,0,0,.681-.681v-2.806A.683.683,0,0,0,421.176,339.4Z" transform="translate(-417.848 -339.402)" fill="#2b4d66" fill-rule="evenodd"/>
      </g>
      <g id="Grupo_26976" data-name="Grupo 26976" transform="translate(39.426 29.241)">
        <path id="Trazado_26461" data-name="Trazado 26461" d="M389.808,294.226h3.328a.683.683,0,0,1,.681.681v2.806a.683.683,0,0,1-.681.681h-3.164a29.325,29.325,0,0,1-.282,3.381,27.168,27.168,0,0,1-.69,3.363,22.281,22.281,0,0,1-2.377,5.685H397.38a1.269,1.269,0,0,0,1.265-1.265v-19.2a1.269,1.269,0,0,0-1.265-1.265H388.76A27.943,27.943,0,0,1,389.808,294.226Z" transform="translate(-386.624 -289.096)" fill="#e5384f" fill-rule="evenodd"/>
      </g>
      <g id="Grupo_26977" data-name="Grupo 26977" transform="translate(13.754 34.153)">
        <path id="Trazado_26462" data-name="Trazado 26462" d="M139.1,340.758v-2.806a.685.685,0,0,0-.681-.681h-3.551a30.47,30.47,0,0,1,.317,4.167h3.234A.685.685,0,0,0,139.1,340.758Z" transform="translate(-134.872 -337.271)" fill="#2b4d66" fill-rule="evenodd"/>
      </g>
      <g id="Grupo_26978" data-name="Grupo 26978" transform="translate(11.198 26.211)">
        <path id="Trazado_26463" data-name="Trazado 26463" d="M116.594,268.008v2.806a.685.685,0,0,1-.681.681h-3.234v.217a30.185,30.185,0,0,1-.164,3.164,28.222,28.222,0,0,1-.552,3.363,23.73,23.73,0,0,1-2.157,5.9h10.483a1.269,1.269,0,0,0,1.265-1.265v-19.2a1.269,1.269,0,0,0-1.265-1.265h-5.535l-2.985-2.565a1.48,1.48,0,0,0-1.808-.27,24.937,24.937,0,0,1,2.4,7.748h3.551a.685.685,0,0,1,.681.681Z" transform="translate(-109.806 -259.384)" fill="#26a69a" fill-rule="evenodd"/>
      </g>
      <g id="Grupo_26979" data-name="Grupo 26979" transform="translate(0 0)">
        <path id="Trazado_26464" data-name="Trazado 26464" d="M25.617,12.383,23.255,9.635V4.384a2.032,2.032,0,0,0-2.03-2.03H2.03A2.032,2.032,0,0,0,0,4.384v19.2a2.032,2.032,0,0,0,2.03,2.03H9.924a.765.765,0,1,0,0-1.53H2.03a.507.507,0,0,1-.5-.5V4.384a.507.507,0,0,1,.5-.5h19.2a.507.507,0,0,1,.5.5V9.919a.765.765,0,0,0,.185.5L24.475,13.4c.013.016.027.031.042.045a.709.709,0,0,1,.07.986L21.91,17.546a.765.765,0,0,0-.185.5V23.58a.507.507,0,0,1-.5.5H13.334a.765.765,0,0,0,0,1.53h7.891a2.032,2.032,0,0,0,2.03-2.03V18.328l2.49-2.9a2.23,2.23,0,0,0-.128-3.048Z" transform="translate(0 -2.354)" fill="#083142"/>
        <path id="Trazado_26465" data-name="Trazado 26465" d="M347.246,336.152v-2.806A1.447,1.447,0,0,0,345.8,331.9H335.359a1.447,1.447,0,0,0-1.446,1.446v2.806a1.447,1.447,0,0,0,1.446,1.446H345.8A1.447,1.447,0,0,0,347.246,336.152Zm-1.53-.084H335.443v-2.638h10.274Z" transform="translate(-299.862 -298.295)" fill="#083142"/>
        <path id="Trazado_26466" data-name="Trazado 26466" d="M357.673,405.921a.765.765,0,0,0,0,1.53h7.114a.765.765,0,0,0,0-1.53Z" transform="translate(-320.512 -364.767)" fill="#083142"/>
        <path id="Trazado_26467" data-name="Trazado 26467" d="M337.47,440.432H348.7a.765.765,0,1,0,0-1.53H337.47a.765.765,0,0,0,0,1.53Z" transform="translate(-302.369 -394.385)" fill="#083142"/>
        <path id="Trazado_26468" data-name="Trazado 26468" d="M64.985,329.771H54.541a1.447,1.447,0,0,0-1.446,1.446v2.806a1.447,1.447,0,0,0,1.446,1.446H64.985a1.447,1.447,0,0,0,1.446-1.446v-2.806A1.447,1.447,0,0,0,64.985,329.771Zm-.084,4.167H54.625V331.3H64.9Z" transform="translate(-47.681 -296.382)" fill="#083142"/>
        <path id="Trazado_26469" data-name="Trazado 26469" d="M83.971,405.321a.765.765,0,1,0,0-1.53H76.855a.765.765,0,1,0,0,1.53Z" transform="translate(-68.331 -362.854)" fill="#083142"/>
        <path id="Trazado_26470" data-name="Trazado 26470" d="M67.886,436.772H56.652a.765.765,0,1,0,0,1.53H67.886a.765.765,0,1,0,0-1.53Z" transform="translate(-50.188 -392.472)" fill="#083142"/>
        <path id="Trazado_26471" data-name="Trazado 26471" d="M305.179,2.354h-19.2a2.032,2.032,0,0,0-2.03,2.03v19.2a2.032,2.032,0,0,0,2.03,2.03h5.251l2.9,2.492a2.205,2.205,0,0,0,1.444.539,2.288,2.288,0,0,0,1.605-.669l2.748-2.362h5.251a2.032,2.032,0,0,0,2.03-2.03V4.384a2.032,2.032,0,0,0-2.03-2.03Zm.5,21.226a.507.507,0,0,1-.5.5h-5.535a.765.765,0,0,0-.5.185l-2.985,2.565c-.016.013-.031.028-.045.042a.7.7,0,0,1-.988.07l-3.111-2.676a.765.765,0,0,0-.5-.185h-5.535a.507.507,0,0,1-.5-.5V4.384a.507.507,0,0,1,.5-.5h19.2a.507.507,0,0,1,.5.5Z" transform="translate(-254.998 -2.354)" fill="#083142"/>
        <path id="Trazado_26472" data-name="Trazado 26472" d="M278.474,281.6h-19.2a2.032,2.032,0,0,0-2.03,2.03v5.251l-2.365,2.749a2.23,2.23,0,0,0-.127,3.046l2.492,2.9v5.251a2.032,2.032,0,0,0,2.03,2.03h7.883a.765.765,0,0,0,0-1.53h-7.883a.507.507,0,0,1-.5-.5v-5.535a.765.765,0,0,0-.185-.5l-2.678-3.115a.708.708,0,0,1,.068-.984c.015-.014.028-.029.042-.045l2.568-2.985a.765.765,0,0,0,.185-.5v-5.535a.507.507,0,0,1,.5-.5h19.2a.507.507,0,0,1,.5.5v19.2a.507.507,0,0,1-.5.5h-7.9a.765.765,0,1,0,0,1.53h7.9a2.032,2.032,0,0,0,2.03-2.03v-19.2A2.032,2.032,0,0,0,278.474,281.6Z" transform="translate(-228.292 -253.12)" fill="#083142"/>
        <path id="Trazado_26473" data-name="Trazado 26473" d="M25.685,254.908H20.434l-2.748-2.362a2.235,2.235,0,0,0-3.049-.13l-2.9,2.491H6.49a2.032,2.032,0,0,0-2.03,2.03v19.2a2.032,2.032,0,0,0,2.03,2.03h19.2a2.032,2.032,0,0,0,2.03-2.03v-19.2A2.032,2.032,0,0,0,25.685,254.908Zm.5,21.226a.507.507,0,0,1-.5.5H6.49a.507.507,0,0,1-.5-.5v-19.2a.507.507,0,0,1,.5-.5h5.535a.765.765,0,0,0,.5-.185l3.111-2.676a.7.7,0,0,1,.989.07c.014.015.03.029.045.042l2.985,2.565a.765.765,0,0,0,.5.185h5.535a.507.507,0,0,1,.5.5Z" transform="translate(-4.005 -226.432)" fill="#083142"/>
        <path id="Trazado_26474" data-name="Trazado 26474" d="M344.966,53.35H334.525a1.447,1.447,0,0,0-1.446,1.446v2.8a1.447,1.447,0,0,0,1.446,1.446h10.442a1.447,1.447,0,0,0,1.446-1.446V54.8A1.447,1.447,0,0,0,344.966,53.35Zm-.084,4.164H334.609V54.88h10.274Z" transform="translate(-299.113 -48.15)" fill="#083142"/>
        <path id="Trazado_26475" data-name="Trazado 26475" d="M363.952,128.9a.765.765,0,1,0,0-1.53h-7.114a.765.765,0,1,0,0,1.53Z" transform="translate(-319.763 -114.621)" fill="#083142"/>
        <path id="Trazado_26476" data-name="Trazado 26476" d="M347.87,160.35H336.636a.765.765,0,0,0,0,1.53H347.87a.765.765,0,0,0,0-1.53Z" transform="translate(-301.62 -144.238)" fill="#083142"/>
        <path id="Trazado_26477" data-name="Trazado 26477" d="M61.769,59.011V56.206A1.449,1.449,0,0,0,60.32,54.76H49.879a1.447,1.447,0,0,0-1.446,1.446v2.806a1.447,1.447,0,0,0,1.446,1.446H60.32A1.449,1.449,0,0,0,61.769,59.011Zm-1.53-.084H49.963V56.29H60.239v2.638Z" transform="translate(-43.494 -49.416)" fill="#083142"/>
        <path id="Trazado_26478" data-name="Trazado 26478" d="M72.193,128.779a.765.765,0,0,0,0,1.53h7.114a.765.765,0,0,0,0-1.53Z" transform="translate(-64.144 -115.887)" fill="#083142"/>
        <path id="Trazado_26479" data-name="Trazado 26479" d="M51.99,163.29H63.224a.765.765,0,1,0,0-1.53H51.99a.765.765,0,0,0,0,1.53Z" transform="translate(-46.001 -145.504)" fill="#083142"/>
      </g>
    </g>
  </g>
</svg>
