<svg xmlns="http://www.w3.org/2000/svg" width="400" height="469.934" viewBox="0 0 400 469.934">
  <g id="Grupo_128091" data-name="Grupo 128091" transform="translate(-601 -512.863)">
    <path id="Trazado_172634" data-name="Trazado 172634" d="M15,0H385a15,15,0,0,1,15,15V454.934a15,15,0,0,1-15,15H15a15,15,0,0,1-15-15V15A15,15,0,0,1,15,0Z" transform="translate(601 512.863)" fill="#ffe5cf"/>
    <path id="Trazado_172627" data-name="Trazado 172627" d="M90.5,0C140.482,0,181,40.742,181,91s-40.518,91-90.5,91S0,141.258,0,91,40.518,0,90.5,0Z" transform="translate(710 570.863)" fill="#ffb476"/>
    <path id="Trazado_172635" data-name="Trazado 172635" d="M18.5,0h253a18.5,18.5,0,0,1,0,37H18.5a18.5,18.5,0,0,1,0-37Z" transform="translate(656 780.863)" fill="#fff"/>
    <path id="Feature_One" data-name="Feature One" d="M62.729,14.474h-1.67V19H57.974V6.2H63.01a5.621,5.621,0,0,1,3.56,1.01,3.421,3.421,0,0,1,1.283,2.853,4.155,4.155,0,0,1-.541,2.213A3.837,3.837,0,0,1,65.621,13.7l2.672,5.167V19h-3.3ZM61.059,12.1H63.01a1.751,1.751,0,0,0,1.323-.463,1.788,1.788,0,0,0,.444-1.291,1.809,1.809,0,0,0-.448-1.3,1.735,1.735,0,0,0-1.318-.471H61.059Zm13.122,7.075a4.889,4.889,0,0,1-3.542-1.305,4.507,4.507,0,0,1-1.354-3.4v-.246a5.84,5.84,0,0,1,.541-2.575A3.955,3.955,0,0,1,71.4,9.925a4.763,4.763,0,0,1,2.461-.611,4.117,4.117,0,0,1,3.164,1.244,4.887,4.887,0,0,1,1.16,3.467v1.151H72.3a2.135,2.135,0,0,0,.694,1.257,2.066,2.066,0,0,0,1.389.457,2.662,2.662,0,0,0,2.2-.984l1.354,1.6a3.784,3.784,0,0,1-1.569,1.217A5.3,5.3,0,0,1,74.181,19.176ZM73.847,11.6q-1.3,0-1.547,1.723h2.988v-.229a1.467,1.467,0,0,0-.36-1.1A1.434,1.434,0,0,0,73.847,11.6Zm14.361,2.716a5.735,5.735,0,0,1-1,3.538,3.2,3.2,0,0,1-2.694,1.323,2.742,2.742,0,0,1-2.153-.958v4.438H79.4V9.49H82.17l.088.879A2.742,2.742,0,0,1,84.5,9.314a3.224,3.224,0,0,1,2.733,1.3,5.805,5.805,0,0,1,.976,3.564Zm-2.962-.185q0-2.531-1.477-2.531a1.394,1.394,0,0,0-1.406.756V16.1a1.439,1.439,0,0,0,1.424.791q1.415,0,1.459-2.443Zm10.02-1.96-.976-.07a1.752,1.752,0,0,0-1.793.879V19H89.536V9.49h2.777l.1,1.222a2.294,2.294,0,0,1,2.083-1.4,2.888,2.888,0,0,1,.826.105Zm.378,1.986a5.613,5.613,0,0,1,.554-2.536,3.96,3.96,0,0,1,1.591-1.709,4.791,4.791,0,0,1,2.435-.6,4.373,4.373,0,0,1,3.366,1.323,5.076,5.076,0,0,1,1.23,3.6v.105a4.925,4.925,0,0,1-1.235,3.529,4.384,4.384,0,0,1-3.344,1.305,4.434,4.434,0,0,1-3.261-1.217,4.761,4.761,0,0,1-1.327-3.3Zm2.962.185a3.538,3.538,0,0,0,.413,1.934,1.376,1.376,0,0,0,1.222.615q1.582,0,1.617-2.435v-.3q0-2.558-1.635-2.558-1.485,0-1.608,2.206Zm11.54,2.549a1.317,1.317,0,0,0,.967-.338,1.241,1.241,0,0,0,.334-.945h2.777a3.288,3.288,0,0,1-1.121,2.566,4.168,4.168,0,0,1-2.887,1,4.22,4.22,0,0,1-3.27-1.3,5.125,5.125,0,0,1-1.2-3.6v-.123a5.792,5.792,0,0,1,.532-2.544,3.872,3.872,0,0,1,1.534-1.7,4.573,4.573,0,0,1,2.373-.593,4.116,4.116,0,0,1,2.944,1.028,3.647,3.647,0,0,1,1.09,2.786h-2.777a1.626,1.626,0,0,0-.36-1.134,1.244,1.244,0,0,0-.967-.4q-1.151,0-1.345,1.468a10.357,10.357,0,0,0-.062,1.283,4.068,4.068,0,0,0,.343,1.986A1.187,1.187,0,0,0,110.146,16.891Zm9.932,2.285a4.889,4.889,0,0,1-3.542-1.305,4.507,4.507,0,0,1-1.354-3.4v-.246a5.84,5.84,0,0,1,.541-2.575A3.955,3.955,0,0,1,117.3,9.925a4.763,4.763,0,0,1,2.461-.611,4.117,4.117,0,0,1,3.164,1.244,4.887,4.887,0,0,1,1.16,3.467v1.151H118.2a2.135,2.135,0,0,0,.694,1.257,2.066,2.066,0,0,0,1.389.457,2.662,2.662,0,0,0,2.2-.984l1.354,1.6a3.784,3.784,0,0,1-1.569,1.217A5.3,5.3,0,0,1,120.078,19.176Zm-.334-7.576q-1.3,0-1.547,1.723h2.988v-.229a1.467,1.467,0,0,0-.36-1.1A1.434,1.434,0,0,0,119.744,11.6Zm10.512,4.729a.684.684,0,0,0-.4-.606,6.016,6.016,0,0,0-1.5-.475,6.853,6.853,0,0,1-1.828-.646,3.062,3.062,0,0,1-1.1-.971,2.319,2.319,0,0,1-.378-1.31,2.628,2.628,0,0,1,1.081-2.158,4.453,4.453,0,0,1,2.83-.848,4.934,4.934,0,0,1,3.023.853,2.666,2.666,0,0,1,1.143,2.241h-2.971q0-1.143-1.2-1.143a1.194,1.194,0,0,0-.782.259.8.8,0,0,0-.316.646.737.737,0,0,0,.387.642,3.654,3.654,0,0,0,1.235.4,10.671,10.671,0,0,1,1.49.378,2.706,2.706,0,0,1,2.145,2.646,2.491,2.491,0,0,1-1.156,2.118,5.068,5.068,0,0,1-2.993.817,5.172,5.172,0,0,1-2.18-.439,3.645,3.645,0,0,1-1.494-1.2,2.707,2.707,0,0,1-.536-1.591h2.769a1.145,1.145,0,0,0,.439.962,1.808,1.808,0,0,0,1.081.3,1.422,1.422,0,0,0,.91-.246A.787.787,0,0,0,130.255,16.328Zm3.867-2.171a5.613,5.613,0,0,1,.554-2.536,3.96,3.96,0,0,1,1.591-1.709,4.791,4.791,0,0,1,2.435-.6,4.373,4.373,0,0,1,3.366,1.323,5.076,5.076,0,0,1,1.23,3.6v.105a4.925,4.925,0,0,1-1.235,3.529,4.384,4.384,0,0,1-3.344,1.305,4.434,4.434,0,0,1-3.261-1.217,4.761,4.761,0,0,1-1.327-3.3Zm2.962.185a3.538,3.538,0,0,0,.413,1.934,1.376,1.376,0,0,0,1.222.615q1.582,0,1.617-2.435v-.3q0-2.558-1.635-2.558-1.485,0-1.608,2.206Zm12.5,1.986a.684.684,0,0,0-.4-.606,6.016,6.016,0,0,0-1.5-.475,6.853,6.853,0,0,1-1.828-.646,3.062,3.062,0,0,1-1.1-.971,2.319,2.319,0,0,1-.378-1.31,2.628,2.628,0,0,1,1.081-2.158,4.453,4.453,0,0,1,2.83-.848,4.934,4.934,0,0,1,3.023.853,2.666,2.666,0,0,1,1.143,2.241h-2.971q0-1.143-1.2-1.143a1.194,1.194,0,0,0-.782.259.8.8,0,0,0-.316.646.737.737,0,0,0,.387.642,3.654,3.654,0,0,0,1.235.4,10.671,10.671,0,0,1,1.49.378,2.706,2.706,0,0,1,2.145,2.646,2.491,2.491,0,0,1-1.156,2.118,5.068,5.068,0,0,1-2.993.817,5.172,5.172,0,0,1-2.18-.439,3.645,3.645,0,0,1-1.494-1.2,2.707,2.707,0,0,1-.536-1.591h2.769a1.145,1.145,0,0,0,.439.962,1.808,1.808,0,0,0,1.081.3,1.422,1.422,0,0,0,.91-.246A.787.787,0,0,0,149.583,16.328Z" transform="translate(696 786.863)" fill="#12263f"/>
    <g id="Grupo_112536" data-name="Grupo 112536" transform="translate(732.385 593.762)">
      <path id="Trazado_167808" data-name="Trazado 167808" d="M92.3,13.629h0A62.478,62.478,0,0,0,30.148,69.8l16.492-.772A46.292,46.292,0,0,1,92.3,29.9l-.074.026v6.315l15.945-12.883L92.23,8v5.655" transform="translate(-24.066 -8)" fill="#dae0e3"/>
      <path id="Trazado_167809" data-name="Trazado 167809" d="M134.313,81.031l12.01-9.7a46.229,46.229,0,0,0-58.162,42.516l.562-.026a46.291,46.291,0,0,1,45.663-39.127l-.074.026Z" transform="translate(-66.149 -52.792)" fill="#a8b7bd"/>
      <path id="Trazado_167810" data-name="Trazado 167810" d="M203.908,170.6l-5.224-.785a24.377,24.377,0,0,0-3.842-9.272l3.14-4.251a1.87,1.87,0,0,0-.182-2.432l-2.7-2.7a1.869,1.869,0,0,0-2.432-.182l-4.251,3.14a24.375,24.375,0,0,0-9.271-3.842l-.785-5.224a1.869,1.869,0,0,0-1.848-1.591h-3.824a1.869,1.869,0,0,0-1.848,1.591l-.785,5.224a24.373,24.373,0,0,0-9.271,3.842l-4.251-3.14a1.869,1.869,0,0,0-2.432.182l-2.7,2.7a1.869,1.869,0,0,0-.182,2.432l3.14,4.251a24.374,24.374,0,0,0-3.842,9.272l-5.224.785a1.869,1.869,0,0,0-1.591,1.848v3.824a1.869,1.869,0,0,0,1.591,1.849l5.224.785a24.376,24.376,0,0,0,3.842,9.272l-3.14,4.251a1.869,1.869,0,0,0,.182,2.432l2.7,2.7a1.869,1.869,0,0,0,2.432.182l4.251-3.14a24.375,24.375,0,0,0,9.271,3.842l.785,5.224a1.869,1.869,0,0,0,1.848,1.591h3.824a1.869,1.869,0,0,0,1.848-1.591l.785-5.224a24.373,24.373,0,0,0,9.271-3.842l4.251,3.14a1.869,1.869,0,0,0,2.432-.182l2.7-2.7a1.869,1.869,0,0,0,.182-2.432l-3.14-4.251a24.376,24.376,0,0,0,3.842-9.272l5.224-.785a1.869,1.869,0,0,0,1.591-1.849v-3.824a1.869,1.869,0,0,0-1.591-1.848ZM174.6,186.73a12.37,12.37,0,1,1,12.37-12.37A12.37,12.37,0,0,1,174.6,186.73Z" transform="translate(-106.431 -106.26)" fill="#ff4755"/>
      <path id="Trazado_167811" data-name="Trazado 167811" d="M13.694,213.645c0,.021,0,.042,0,.064a62.478,62.478,0,0,0,56.171,62.156L68.9,259.34a46.212,46.212,0,0,1-38.934-45.631c0-.021,0-.042,0-.064h6.276L23.356,197.7,8,213.645h5.655" transform="translate(-8 -145.609)" fill="#8bcaff"/>
      <path id="Trazado_167812" data-name="Trazado 167812" d="M213.645,318.464l.127,0A46.212,46.212,0,0,0,259.4,279.545l16.54-1.124a62.477,62.477,0,0,1-62.169,56.314l-.127,0v5.631L197.7,325.009l15.945-12.883v6.315Z" transform="translate(-145.609 -204.164)" fill="#24cb9f"/>
      <path id="Trazado_167813" data-name="Trazado 167813" d="M235.925,267.471a12.42,12.42,0,0,0-.247-2.471,12.372,12.372,0,0,1-24.245,0,12.371,12.371,0,1,0,24.492,2.471Z" transform="translate(-155.391 -194.428)" fill="#fc2b3a"/>
      <path id="Trazado_167814" data-name="Trazado 167814" d="M223.522,329.793a62.759,62.759,0,0,1-12.382-1.229l12.255,11.8v-5.631l.127,0a62.477,62.477,0,0,0,62.169-56.314l-.851.883a62.489,62.489,0,0,1-61.318,50.488Z" transform="translate(-155.358 -204.164)" fill="#1b9877"/>
      <path id="Trazado_167815" data-name="Trazado 167815" d="M78.822,312.131a62.5,62.5,0,0,1-49.9-56.363h-.191c0,.021,0,.042,0,.064A62.478,62.478,0,0,0,84.9,317.988Z" transform="translate(-23.04 -187.731)" fill="#6cc4ff"/>
      <path id="Trazado_167816" data-name="Trazado 167816" d="M334.974,91.834c0-.021,0-.042,0-.064A62.477,62.477,0,0,0,278.664,29.6l9.786,9.424-8.783,7.1a46.212,46.212,0,0,1,39.039,45.648c0,.021,0,.042,0,.064h-6.4l12.883,15.945,15.356-15.945Z" transform="translate(-204.34 -23.67)" fill="#ffba57"/>
      <g id="Grupo_112535" data-name="Grupo 112535" transform="translate(75.327 18.536)">
        <path id="Trazado_167817" data-name="Trazado 167817" d="M287.163,75.5l-4.847,3.916a46.216,46.216,0,0,1,38.972,43.189q.066-1.234.067-2.483A46.219,46.219,0,0,0,287.163,75.5Z" transform="translate(-282.316 -75.501)" fill="#ffac3e"/>
      </g>
    </g>
    <g id="Grupo_112537" data-name="Grupo 112537" transform="translate(730.188 591.565)">
      <path id="Trazado_167818" data-name="Trazado 167818" d="M218.029,203.347a14.467,14.467,0,0,0-13.582,19.425,2.064,2.064,0,1,0,3.876-1.418,10.331,10.331,0,1,1,4.383,5.307,2.064,2.064,0,0,0-2.13,3.535,14.459,14.459,0,1,0,7.453-26.85Z" transform="translate(-147.671 -147.508)"/>
      <path id="Trazado_167819" data-name="Trazado 167819" d="M198.65,162.935l-3.827-.575a26.289,26.289,0,0,0-3.059-7.381l2.3-3.114a3.914,3.914,0,0,0-.383-5.123l-2.709-2.71a3.914,3.914,0,0,0-5.122-.383l-3.114,2.3a26.276,26.276,0,0,0-7.38-3.059l-.575-3.827a3.913,3.913,0,0,0-3.893-3.351h-3.832a3.913,3.913,0,0,0-3.893,3.351l-.575,3.827a26.278,26.278,0,0,0-7.38,3.059l-3.114-2.3a3.913,3.913,0,0,0-5.122.383l-2.709,2.709a3.912,3.912,0,0,0-.383,5.123l2.3,3.114a26.261,26.261,0,0,0-3.058,7.381l-3.826.575a3.912,3.912,0,0,0-3.352,3.893v3.832a3.912,3.912,0,0,0,3.351,3.893l3.827.575a26.28,26.28,0,0,0,3.058,7.381l-2.3,3.114a3.913,3.913,0,0,0,.383,5.123l2.709,2.71a3.913,3.913,0,0,0,5.122.383l3.114-2.3a26.275,26.275,0,0,0,7.38,3.059l.575,3.827a3.913,3.913,0,0,0,3.893,3.351h3.831a3.913,3.913,0,0,0,3.893-3.351l.575-3.826a26.275,26.275,0,0,0,7.38-3.059l3.114,2.3a3.913,3.913,0,0,0,5.122-.383l2.709-2.71a3.914,3.914,0,0,0,.383-5.123l-2.3-3.114a26.27,26.27,0,0,0,3.059-7.381l3.826-.575A3.913,3.913,0,0,0,202,170.66v-3.832a3.912,3.912,0,0,0-3.351-3.893Zm-.776,7.561-5.072.763a2.063,2.063,0,0,0-1.721,1.66,22.249,22.249,0,0,1-3.525,8.506,2.063,2.063,0,0,0,.044,2.391l3.049,4.127-2.478,2.477-4.127-3.049a2.065,2.065,0,0,0-2.391-.044,22.248,22.248,0,0,1-8.506,3.525,2.064,2.064,0,0,0-1.66,1.722l-.762,5.072h-3.5l-.763-5.073a2.063,2.063,0,0,0-1.66-1.721,22.249,22.249,0,0,1-8.506-3.525,2.062,2.062,0,0,0-2.391.044l-4.127,3.049-2.478-2.477,3.049-4.127a2.063,2.063,0,0,0,.044-2.391,22.245,22.245,0,0,1-3.525-8.506,2.063,2.063,0,0,0-1.721-1.66l-5.072-.763v-3.5l5.072-.763a2.063,2.063,0,0,0,1.721-1.66,22.247,22.247,0,0,1,3.525-8.506,2.063,2.063,0,0,0-.044-2.391l-3.049-4.127,2.478-2.477,4.127,3.049a2.064,2.064,0,0,0,2.391.044,22.254,22.254,0,0,1,8.506-3.525,2.063,2.063,0,0,0,1.66-1.721l.763-5.073h3.5l.762,5.072a2.064,2.064,0,0,0,1.66,1.722,22.244,22.244,0,0,1,8.506,3.525,2.063,2.063,0,0,0,2.391-.044l4.127-3.049,2.478,2.477-3.049,4.127a2.064,2.064,0,0,0-.044,2.391,22.248,22.248,0,0,1,3.525,8.506,2.063,2.063,0,0,0,1.721,1.66l5.072.763Z" transform="translate(-98.613 -98.446)"/>
      <path id="Trazado_167820" data-name="Trazado 167820" d="M140.43,69.553a2.063,2.063,0,0,0-1.9-1.256h-3.544A64.659,64.659,0,0,0,77.455,6.028L71.79.572a2.077,2.077,0,0,0-3.495,1.486v3.61A64.2,64.2,0,0,0,33.141,17.416a2.064,2.064,0,0,0,2.379,3.373A60.139,60.139,0,0,1,70.359,9.763,2.063,2.063,0,0,0,72.422,7.7V6.911l10.8,10.4-10.8,8.725V24a2.063,2.063,0,0,0-2.064-2.064A48.373,48.373,0,0,0,23.472,58.432L19.05,52.959a2.077,2.077,0,0,0-3.092-.134l-4.846,5.033a60.457,60.457,0,0,1,18.2-32.049,2.064,2.064,0,0,0-2.8-3.033A64.529,64.529,0,0,0,6.106,63.056L.572,68.8a2.077,2.077,0,0,0,1.486,3.5H5.73a64.662,64.662,0,0,0,57.39,62.255l5.68,5.47a2.077,2.077,0,0,0,3.495-1.486V134.93a64.161,64.161,0,0,0,35.72-12.064,2.064,2.064,0,0,0-2.407-3.353A60.113,60.113,0,0,1,70.333,130.83h-.1a2.063,2.063,0,0,0-2.064,2.064v.79l-10.8-10.4,10.8-8.725v2.031a2.064,2.064,0,0,0,2.05,2.064l.141,0a48.373,48.373,0,0,0,46.855-36.375l4.326,5.355a2.076,2.076,0,0,0,3.092.134l5.007-5.2a60.492,60.492,0,0,1-17.856,31.865,2.064,2.064,0,0,0,2.825,3.009,64.569,64.569,0,0,0,20.02-40.054l5.391-5.6a2.062,2.062,0,0,0,.413-2.239Zm-87.473,51.99a2.076,2.076,0,0,0-.134,3.092l5.1,4.912A60.55,60.55,0,0,1,9.826,70.3v-.071A2.063,2.063,0,0,0,7.764,68.17H6.91l10.4-10.8,8.724,10.8H24.065A2.057,2.057,0,0,0,22,70.226V70.3a48.373,48.373,0,0,0,36.386,46.859Zm46.259-17.726a44.208,44.208,0,0,1-26.921,10.669v-4.247a2.078,2.078,0,0,0-3.361-1.605l-6.431,5.2A44.244,44.244,0,0,1,26.173,72.3h4.181a2.078,2.078,0,0,0,1.605-3.361L26.8,62.557a44.242,44.242,0,0,1,41.49-36.443v4.241a2.078,2.078,0,0,0,3.361,1.605l6.455-5.216A44.244,44.244,0,0,1,114.544,68.3h-4.308a2.078,2.078,0,0,0-1.605,3.361l5.258,6.507a44.254,44.254,0,0,1-14.672,25.652ZM123.28,83.223l-8.724-10.8h2.1a2.057,2.057,0,0,0,2.064-2.056V70.3A48.374,48.374,0,0,0,82.235,23.413l5.4-4.362a2.076,2.076,0,0,0,.134-3.092l-5.133-4.943A60.548,60.548,0,0,1,130.89,70.29v.071a2.063,2.063,0,0,0,2.064,2.064h.726Z" transform="translate(0 0)"/>
    </g>
  </g>
</svg>
