<svg xmlns="http://www.w3.org/2000/svg" width="225.845" height="114.309" viewBox="0 0 225.845 114.309">
  <g id="Grupo_128086" data-name="Grupo 128086" transform="translate(9549.506 7771.81)">
    <path id="Trazado_165796" data-name="Trazado 165796" d="M748.329,867.531H610.565V763.776H748.329a29.582,29.582,0,0,1,29.582,29.582v44.591A29.582,29.582,0,0,1,748.329,867.531Z" transform="translate(-10101.572 -8530.309)" fill="#ffb476"/>
    <g id="Grupo_111422" data-name="Grupo 111422" transform="translate(-10101.572 -8530.309)">
      <path id="Trazado_165797" data-name="Trazado 165797" d="M562.574,870.17v-24.8l37.509-34.693a27.967,27.967,0,0,0,5.808-6.924,11.33,11.33,0,0,0,1.315-5.05,4.6,4.6,0,0,0-1.582-3.837c-1.2-.991-3.093-1.494-5.633-1.494a13.758,13.758,0,0,0-7.325,2.08,13.461,13.461,0,0,0-5.226,5.85l-1.164,2.406-30.607-15.3,1.274-2.39a45.111,45.111,0,0,1,17.985-18.228c7.8-4.409,17.31-6.645,28.251-6.645a57.28,57.28,0,0,1,22.326,4.12A36.061,36.061,0,0,1,641.113,777.3a30.507,30.507,0,0,1,5.714,18.206,38.337,38.337,0,0,1-3.815,16.874c-2.544,5.239-7.269,10.931-14.446,17.4l-9.437,8.587h30.016v31.8Z" fill="#ffb476"/>
      <path id="Trazado_165798" data-name="Trazado 165798" d="M603.179,763.776a54.414,54.414,0,0,1,21.3,3.912,33.325,33.325,0,0,1,14.492,11.158,27.8,27.8,0,0,1,5.216,16.666,35.55,35.55,0,0,1-3.55,15.722q-3.554,7.318-13.839,16.592l-14.491,13.186h34.2v26.519H565.213V846.519l36.662-33.909q4.782-4.488,6.375-7.679a13.877,13.877,0,0,0,1.595-6.232,7.205,7.205,0,0,0-2.536-5.868q-2.537-2.1-7.318-2.1a16.465,16.465,0,0,0-8.7,2.464,16.175,16.175,0,0,0-6.231,6.955l-25.793-12.9a42.31,42.31,0,0,1,16.954-17.171q11.157-6.3,26.953-6.3m0-5.277c-11.4,0-21.343,2.35-29.549,6.986a47.7,47.7,0,0,0-19.015,19.284l-2.549,4.78,4.846,2.422,25.793,12.9,4.781,2.391,2.329-4.812a10.92,10.92,0,0,1,4.222-4.745,11.181,11.181,0,0,1,5.954-1.7,6.636,6.636,0,0,1,3.952.89c.232.192.625.517.625,1.8a8.748,8.748,0,0,1-1.038,3.872c-.439.877-1.709,2.852-5.267,6.192L561.63,842.645l-1.694,1.567v28.6h91.848V835.735H625.948l4.4-4.006c7.415-6.684,12.339-12.639,15.034-18.19a40.948,40.948,0,0,0,4.081-18.027,33.1,33.1,0,0,0-6.211-19.748,38.658,38.658,0,0,0-16.723-12.938,59.9,59.9,0,0,0-23.353-4.327Z" fill="#fff"/>
    </g>
    <path id="Trazado_172613" data-name="Trazado 172613" d="M7.914,12.172H3.6v2.719H8.7V17H.859V5.625H8.711V7.742H3.6v2.4H7.914Zm4.844-5.727v2.1h1.391v1.828H12.758v3.867a.987.987,0,0,0,.172.664.922.922,0,0,0,.68.188,3.862,3.862,0,0,0,.656-.047V16.93a4.859,4.859,0,0,1-1.484.227,2.758,2.758,0,0,1-2.008-.641,2.626,2.626,0,0,1-.648-1.945v-4.2H9.047V8.547h1.078v-2.1ZM17.961,17H15.32V8.547h2.641Zm-2.8-10.633a1.175,1.175,0,0,1,.406-.922,1.727,1.727,0,0,1,2.109,0,1.175,1.175,0,0,1,.406.922,1.175,1.175,0,0,1-.406.922,1.727,1.727,0,0,1-2.109,0A1.175,1.175,0,0,1,15.164,6.367Zm4.086,6.32a5.074,5.074,0,0,1,.875-3.156,2.874,2.874,0,0,1,2.414-1.141,2.454,2.454,0,0,1,2.078,1.063l.188-.906h2.281v11.7H24.445V16.3a2.451,2.451,0,0,1-1.922.859A2.849,2.849,0,0,1,20.137,16,5.357,5.357,0,0,1,19.25,12.688Zm2.633.164q0,2.273,1.313,2.273a1.271,1.271,0,0,0,1.25-.687V11.094a1.244,1.244,0,0,0-1.234-.672q-1.227,0-1.32,1.961Zm11.727,3.234a2.714,2.714,0,0,1-2.258,1.07,2.662,2.662,0,0,1-2.105-.809,3.4,3.4,0,0,1-.715-2.324V8.547h2.633v5.492a.946.946,0,0,0,1.055,1.086,1.376,1.376,0,0,0,1.289-.648V8.547h2.648V17H33.688Zm8.078,1.07A4.345,4.345,0,0,1,38.539,16a4.006,4.006,0,0,1-1.2-3.02v-.219a5.191,5.191,0,0,1,.48-2.289,3.516,3.516,0,0,1,1.4-1.535,4.233,4.233,0,0,1,2.188-.543A3.659,3.659,0,0,1,44.219,9.5a4.344,4.344,0,0,1,1.031,3.082V13.6H40.016a1.9,1.9,0,0,0,.617,1.117,1.836,1.836,0,0,0,1.234.406,2.366,2.366,0,0,0,1.953-.875l1.2,1.422a3.363,3.363,0,0,1-1.395,1.082A4.713,4.713,0,0,1,41.688,17.156Zm-.3-6.734q-1.156,0-1.375,1.531h2.656v-.2a1.3,1.3,0,0,0-.32-.98A1.275,1.275,0,0,0,41.391,10.422Zm7.984-3.977v2.1h1.391v1.828H49.375v3.867a.987.987,0,0,0,.172.664.922.922,0,0,0,.68.188,3.862,3.862,0,0,0,.656-.047V16.93a4.859,4.859,0,0,1-1.484.227,2.758,2.758,0,0,1-2.008-.641,2.626,2.626,0,0,1-.648-1.945v-4.2H45.664V8.547h1.078v-2.1ZM56.563,17a2.973,2.973,0,0,1-.25-.758,2.448,2.448,0,0,1-2.031.914,3,3,0,0,1-2.031-.723,2.3,2.3,0,0,1-.836-1.816,2.364,2.364,0,0,1,1.016-2.078,5.174,5.174,0,0,1,2.953-.7H56.2v-.448q0-1.17-1.008-1.17a.824.824,0,0,0-.937.926H51.617a2.36,2.36,0,0,1,1.043-1.99,4.383,4.383,0,0,1,2.66-.765,3.843,3.843,0,0,1,2.555.789,2.743,2.743,0,0,1,.961,2.164v3.742a3.832,3.832,0,0,0,.359,1.781V17Zm-1.648-1.719a1.469,1.469,0,0,0,.816-.211,1.322,1.322,0,0,0,.465-.477V13.242H55.43q-1.375,0-1.375,1.234a.754.754,0,0,0,.242.582A.876.876,0,0,0,54.914,15.281Zm5.047-2.57a5.164,5.164,0,0,1,.867-3.164A2.854,2.854,0,0,1,63.25,8.391a2.428,2.428,0,0,1,1.906.891V5H67.8V17H65.43l-.133-.906a2.493,2.493,0,0,1-2.062,1.063A2.849,2.849,0,0,1,60.844,16,5.327,5.327,0,0,1,59.961,12.711Zm2.633.164q0,2.25,1.313,2.25a1.3,1.3,0,0,0,1.25-.734V11.172a1.261,1.261,0,0,0-1.234-.75q-1.219,0-1.32,1.969Zm6.367-.18a4.989,4.989,0,0,1,.492-2.254,3.52,3.52,0,0,1,1.414-1.52,4.259,4.259,0,0,1,2.164-.531,3.887,3.887,0,0,1,2.992,1.176,4.512,4.512,0,0,1,1.094,3.2v.094A4.378,4.378,0,0,1,76.02,16a3.9,3.9,0,0,1-2.973,1.16,3.942,3.942,0,0,1-2.9-1.082,4.232,4.232,0,0,1-1.18-2.934Zm2.633.164a3.145,3.145,0,0,0,.367,1.719,1.223,1.223,0,0,0,1.086.547q1.406,0,1.438-2.164V12.7q0-2.273-1.453-2.273-1.32,0-1.43,1.961Z" transform="translate(-9440.901 -7728.931)" fill="#083142"/>
  </g>
</svg>
