<svg xmlns="http://www.w3.org/2000/svg" width="80" height="80" viewBox="0 0 80 80">
  <g id="Grupo_128096" data-name="Grupo 128096" transform="translate(-1233 -5512.469)">
    <path id="Op_component_1" data-name="Op component 1" d="M40,0A40,40,0,1,1,0,40,40,40,0,0,1,40,0Z" transform="translate(1233 5512.469)" fill="#fff"/>
    <path id="Trazado_172620" data-name="Trazado 172620" d="M7.137-11.136l3.425-18.724H17.7L11.361,0H3.9l-4-17.021L-4.02,0h-7.444l-6.357-29.859h7.157l3.425,18.724,4.1-18.724H2.974Z" transform="translate(1273.431 5566.901)" fill="#12263f"/>
    <path id="Op_component_1-2" data-name="Op component 1" d="M35.237,0A35.237,35.237,0,1,1,0,35.237,35.237,35.237,0,0,1,35.237,0Z" transform="translate(1237.931 5517.233)" fill="none" stroke="#ff6148" stroke-width="1"/>
  </g>
</svg>
