<svg xmlns="http://www.w3.org/2000/svg" width="132" height="89.328" viewBox="0 0 132 89.328">
  <g id="Trazado_168759" data-name="Trazado 168759" fill="#ff6148">
    <path d="M 27.05596733093262 88.82829284667969 C 22.28190040588379 88.82829284667969 17.90598297119141 88.53754425048828 14.04978370666504 87.964111328125 C 10.96638298034668 87.50559234619141 8.206916809082031 86.86640930175781 5.848016738891602 86.06432342529297 C 2.553464889526367 84.94409942626953 0.9686400890350342 83.81302642822266 0.5 83.43746948242188 L 0.5 0.5000103116035461 L 131.5 0.5000103116035461 L 131.5 70.52513122558594 C 130.0982360839844 70.60137176513672 125.6984481811523 70.8670654296875 119.474365234375 71.4935302734375 C 112.4803695678711 72.19747924804688 101.6819534301758 73.51428985595703 89.95649719238281 75.78992462158203 C 78.89830017089844 77.93605804443359 70.33170318603516 80.58902740478516 62.7735481262207 82.92971038818359 C 54.97751617431641 85.34406280517578 48.2446174621582 87.42916107177734 41.30086517333984 88.09554290771484 C 36.23450088500977 88.58175659179688 31.44183349609375 88.82829284667969 27.05596733093262 88.82829284667969 Z" stroke="none"/>
    <path d="M 1 1 L 1 83.1927490234375 C 1.588912963867188 83.62739562988281 3.082061767578125 84.5838623046875 5.896797180175781 85.55256652832031 C 9.576202392578125 86.81883239746094 16.23387145996094 88.32829284667969 27.05598449707031 88.32829284667969 C 31.42597961425781 88.32829284667969 36.20258331298828 88.08252716064453 41.25311279296875 87.59783935546875 C 48.14574432373047 86.93634796142578 54.85591125488281 84.85829162597656 62.62561798095703 82.45208740234375 C 70.19594573974609 80.10763549804688 78.77634429931641 77.45040130615234 89.86123657226562 75.299072265625 C 101.6052398681641 73.01985168457031 112.4199295043945 71.70103454589844 119.4243087768555 70.99603271484375 C 125.0726470947266 70.42752838134766 129.2238159179688 70.15549468994141 131 70.05250549316406 L 131 1 L 1 1 M 0 0 L 132 0 L 132 71 C 132 71 112.714599609375 71.88245391845703 90.05176544189453 76.28076171875 C 67.38890838623047 80.67906951904297 54.97763824462891 87.28529357910156 41.3486328125 88.59325408935547 C 8.348602294921875 91.76025390625 0 83.66796112060547 0 83.66796112060547 L 0 0 Z" stroke="none" fill="#707070"/>
  </g>
</svg>
