<svg xmlns="http://www.w3.org/2000/svg" width="240.153" height="114.31" viewBox="0 0 240.153 114.31">
  <g id="Grupo_128088" data-name="Grupo 128088" transform="translate(9549.506 7142.81)">
    <path id="Trazado_165799" data-name="Trazado 165799" d="M1041.886,871.072H893.87V767.317h148.016c17.554,0,31.785,13.245,31.785,29.583v44.59C1073.671,857.828,1059.44,871.072,1041.886,871.072Z" transform="translate(-10383.023 -7904.85)" fill="#ffb476"/>
    <g id="Grupo_111423" data-name="Grupo 111423" transform="translate(-10383.023 -7904.85)">
      <path id="Trazado_165800" data-name="Trazado 165800" d="M880.337,873.711a103.43,103.43,0,0,1-21.935-2.379,69.407,69.407,0,0,1-19.356-7.091l-2.116-1.193,13.821-30.06,2.511,1.46a51.123,51.123,0,0,0,12.746,5.235,52.044,52.044,0,0,0,13.17,1.8,17.084,17.084,0,0,0,8.273-1.692,3.722,3.722,0,0,0,2.274-3.5c0-1.067,0-4.316-9.388-4.316H864.222V807.249l11.281-11.5H842.92v-31.07h80.92V789.41l-16.515,16.77a33.548,33.548,0,0,1,15.111,10.1,30.492,30.492,0,0,1,6.911,20.013,34,34,0,0,1-5.409,18.44c-3.59,5.671-9.154,10.314-16.536,13.8C900.12,871.968,891.015,873.711,880.337,873.711Z" fill="#ffb476"/>
      <path id="Trazado_165801" data-name="Trazado 165801" d="M921.2,767.317v21.012l-18.838,19.128q11.739,2.9,18.041,10.506a27.8,27.8,0,0,1,6.3,18.33,31.26,31.26,0,0,1-5,17.028q-5,7.9-15.434,12.825t-25.938,4.927a100.307,100.307,0,0,1-21.374-2.319,66.516,66.516,0,0,1-18.621-6.811l11.593-25.214a53.563,53.563,0,0,0,13.4,5.506,54.423,54.423,0,0,0,13.839,1.884,19.51,19.51,0,0,0,9.564-2.029,6.342,6.342,0,0,0,3.623-5.8q0-6.956-12.027-6.955H866.86V808.327l14.926-15.217H845.558V767.317H921.2m5.277-5.277h-86.2v36.348h28.936l-6.124,6.243-1.51,1.539v28.446h18.754c5.548,0,6.69,1.253,6.706,1.273h0a1.3,1.3,0,0,1,.044.4c0,.392,0,.675-.924,1.193a14.6,14.6,0,0,1-6.986,1.356,49.4,49.4,0,0,1-12.5-1.711,48.45,48.45,0,0,1-12.091-4.964l-5.022-2.921-2.427,5.278-11.592,25.215-2.03,4.414,4.232,2.387a72.064,72.064,0,0,0,20.091,7.37,106.019,106.019,0,0,0,22.5,2.44c11.07,0,20.554-1.828,28.191-5.432,7.842-3.7,13.777-8.673,17.639-14.774a36.591,36.591,0,0,0,5.818-19.851,33.057,33.057,0,0,0-7.518-21.7,34.73,34.73,0,0,0-12.485-9.385l12.979-13.179,1.517-1.54V762.04Z" fill="#fff"/>
    </g>
    <path id="Trazado_172614" data-name="Trazado 172614" d="M7.918,17V5.625h3.664a5.39,5.39,0,0,1,2.711.684,4.805,4.805,0,0,1,1.879,1.93,5.826,5.826,0,0,1,.684,2.793v.523a5.86,5.86,0,0,1-.66,2.8,4.826,4.826,0,0,1-1.859,1.938A5.271,5.271,0,0,1,11.66,17ZM10.66,7.742v7.148h.953a2.133,2.133,0,0,0,1.813-.84,4.116,4.116,0,0,0,.633-2.5v-.492a4.082,4.082,0,0,0-.633-2.484,2.17,2.17,0,0,0-1.844-.836ZM17.809,12.7a4.989,4.989,0,0,1,.492-2.254,3.52,3.52,0,0,1,1.414-1.52,4.259,4.259,0,0,1,2.164-.531,3.887,3.887,0,0,1,2.992,1.176,4.512,4.512,0,0,1,1.094,3.2v.094A4.378,4.378,0,0,1,24.867,16a3.9,3.9,0,0,1-2.973,1.16A3.942,3.942,0,0,1,19,16.074a4.232,4.232,0,0,1-1.18-2.934Zm2.633.164a3.145,3.145,0,0,0,.367,1.719,1.223,1.223,0,0,0,1.086.547q1.406,0,1.438-2.164V12.7q0-2.273-1.453-2.273-1.32,0-1.43,1.961ZM30.7,15.125a1.171,1.171,0,0,0,.859-.3,1.1,1.1,0,0,0,.3-.84h2.469a2.922,2.922,0,0,1-1,2.281,3.705,3.705,0,0,1-2.566.891A3.751,3.751,0,0,1,27.855,16a4.556,4.556,0,0,1-1.062-3.2v-.109a5.149,5.149,0,0,1,.473-2.262,3.441,3.441,0,0,1,1.363-1.508,4.065,4.065,0,0,1,2.109-.527,3.658,3.658,0,0,1,2.617.914,3.242,3.242,0,0,1,.969,2.477H31.855a1.445,1.445,0,0,0-.32-1.008,1.106,1.106,0,0,0-.859-.352q-1.023,0-1.2,1.3a9.206,9.206,0,0,0-.055,1.141,3.616,3.616,0,0,0,.3,1.766A1.055,1.055,0,0,0,30.7,15.125Zm9.773.961a2.714,2.714,0,0,1-2.258,1.07,2.662,2.662,0,0,1-2.105-.809,3.4,3.4,0,0,1-.715-2.324V8.547h2.633v5.492a.946.946,0,0,0,1.055,1.086,1.376,1.376,0,0,0,1.289-.648V8.547H43.02V17H40.551Zm6.477-7.539.086.992a2.906,2.906,0,0,1,2.414-1.148,2.14,2.14,0,0,1,2.164,1.273A2.813,2.813,0,0,1,54.1,8.391q2.57,0,2.641,3.109V17H54.1V11.664a1.611,1.611,0,0,0-.219-.945.931.931,0,0,0-.8-.3,1.247,1.247,0,0,0-1.164.7l.008.109V17H49.285V11.68a1.694,1.694,0,0,0-.211-.961.929.929,0,0,0-.8-.3,1.263,1.263,0,0,0-1.156.7V17H44.48V8.547Zm15.383,8.609A4.345,4.345,0,0,1,59.184,16a4.006,4.006,0,0,1-1.2-3.02v-.219a5.191,5.191,0,0,1,.48-2.289,3.516,3.516,0,0,1,1.4-1.535,4.233,4.233,0,0,1,2.188-.543A3.659,3.659,0,0,1,64.863,9.5a4.344,4.344,0,0,1,1.031,3.082V13.6H60.66a1.9,1.9,0,0,0,.617,1.117,1.836,1.836,0,0,0,1.234.406,2.366,2.366,0,0,0,1.953-.875l1.2,1.422a3.363,3.363,0,0,1-1.395,1.082A4.713,4.713,0,0,1,62.332,17.156Zm-.3-6.734q-1.156,0-1.375,1.531h2.656v-.2a1.3,1.3,0,0,0-.32-.98A1.275,1.275,0,0,0,62.035,10.422Zm7.336-1.875.086.992a2.867,2.867,0,0,1,2.414-1.148,2.412,2.412,0,0,1,1.973.789,3.757,3.757,0,0,1,.676,2.375V17H71.879V11.664a1.426,1.426,0,0,0-.258-.941,1.193,1.193,0,0,0-.937-.3,1.256,1.256,0,0,0-1.148.609V17H66.9V8.547Zm9.672-2.1v2.1h1.391v1.828H79.043v3.867a.987.987,0,0,0,.172.664.922.922,0,0,0,.68.188,3.862,3.862,0,0,0,.656-.047V16.93a4.859,4.859,0,0,1-1.484.227,2.758,2.758,0,0,1-2.008-.641,2.626,2.626,0,0,1-.648-1.945v-4.2H75.332V8.547H76.41v-2.1ZM86.23,17a2.973,2.973,0,0,1-.25-.758,2.448,2.448,0,0,1-2.031.914,3,3,0,0,1-2.031-.723,2.3,2.3,0,0,1-.836-1.816A2.364,2.364,0,0,1,82.1,12.539a5.174,5.174,0,0,1,2.953-.7h.813v-.448q0-1.17-1.008-1.17a.824.824,0,0,0-.937.926H81.285a2.36,2.36,0,0,1,1.043-1.99,4.383,4.383,0,0,1,2.66-.765,3.843,3.843,0,0,1,2.555.789,2.743,2.743,0,0,1,.961,2.164v3.742a3.832,3.832,0,0,0,.359,1.781V17Zm-1.648-1.719a1.469,1.469,0,0,0,.816-.211,1.322,1.322,0,0,0,.465-.477V13.242H85.1q-1.375,0-1.375,1.234a.754.754,0,0,0,.242.582A.876.876,0,0,0,84.582,15.281Zm8.953-.156a1.171,1.171,0,0,0,.859-.3,1.1,1.1,0,0,0,.3-.84H97.16a2.922,2.922,0,0,1-1,2.281,3.705,3.705,0,0,1-2.566.891A3.751,3.751,0,0,1,90.691,16a4.556,4.556,0,0,1-1.062-3.2v-.109a5.149,5.149,0,0,1,.473-2.262,3.441,3.441,0,0,1,1.363-1.508,4.065,4.065,0,0,1,2.109-.527,3.658,3.658,0,0,1,2.617.914,3.242,3.242,0,0,1,.969,2.477H94.691a1.445,1.445,0,0,0-.32-1.008,1.106,1.106,0,0,0-.859-.352q-1.023,0-1.2,1.3a9.206,9.206,0,0,0-.055,1.141,3.616,3.616,0,0,0,.3,1.766A1.055,1.055,0,0,0,93.535,15.125ZM101.051,17H98.41V8.547h2.641Zm-2.8-10.633a1.175,1.175,0,0,1,.406-.922,1.727,1.727,0,0,1,2.109,0,1.175,1.175,0,0,1,.406.922,1.175,1.175,0,0,1-.406.922,1.727,1.727,0,0,1-2.109,0A1.175,1.175,0,0,1,98.254,6.367ZM102.34,12.7a4.989,4.989,0,0,1,.492-2.254,3.52,3.52,0,0,1,1.414-1.52,4.259,4.259,0,0,1,2.164-.531A3.887,3.887,0,0,1,109.4,9.566a4.512,4.512,0,0,1,1.094,3.2v.094A4.378,4.378,0,0,1,109.4,16a3.9,3.9,0,0,1-2.973,1.16,3.942,3.942,0,0,1-2.9-1.082,4.232,4.232,0,0,1-1.18-2.934Zm2.633.164a3.145,3.145,0,0,0,.367,1.719,1.223,1.223,0,0,0,1.086.547q1.406,0,1.438-2.164V12.7q0-2.273-1.453-2.273-1.32,0-1.43,1.961ZM106.77,5h2.781l-2.172,2.453-2.148,0Zm7.3,3.547.086.992a2.867,2.867,0,0,1,2.414-1.148,2.412,2.412,0,0,1,1.973.789,3.757,3.757,0,0,1,.676,2.375V17h-2.641V11.664a1.426,1.426,0,0,0-.258-.941,1.193,1.193,0,0,0-.937-.3,1.256,1.256,0,0,0-1.148.609V17h-2.633V8.547ZM30.023,37.7a4.989,4.989,0,0,1,.492-2.254,3.52,3.52,0,0,1,1.414-1.52,4.259,4.259,0,0,1,2.164-.531,3.887,3.887,0,0,1,2.992,1.176,4.512,4.512,0,0,1,1.094,3.2v.094A4.378,4.378,0,0,1,37.082,41a3.9,3.9,0,0,1-2.973,1.16,3.942,3.942,0,0,1-2.9-1.082,4.232,4.232,0,0,1-1.18-2.934Zm2.633.164a3.145,3.145,0,0,0,.367,1.719,1.223,1.223,0,0,0,1.086.547q1.406,0,1.438-2.164V37.7q0-2.273-1.453-2.273-1.32,0-1.43,1.961Zm11.8-1.93-.867-.062a1.558,1.558,0,0,0-1.594.781V42H39.359V33.547h2.469l.086,1.086a2.039,2.039,0,0,1,1.852-1.242,2.567,2.567,0,0,1,.734.094Zm.617,1.781a5.164,5.164,0,0,1,.867-3.164,2.854,2.854,0,0,1,2.422-1.156,2.428,2.428,0,0,1,1.906.891V30h2.641V42H50.539l-.133-.906a2.493,2.493,0,0,1-2.062,1.063A2.849,2.849,0,0,1,45.953,41,5.327,5.327,0,0,1,45.07,37.711Zm2.633.164q0,2.25,1.313,2.25a1.3,1.3,0,0,0,1.25-.734V36.172a1.261,1.261,0,0,0-1.234-.75q-1.219,0-1.32,1.969Zm10.789,4.281A4.345,4.345,0,0,1,55.344,41a4.006,4.006,0,0,1-1.2-3.02v-.219a5.191,5.191,0,0,1,.48-2.289,3.516,3.516,0,0,1,1.4-1.535,4.233,4.233,0,0,1,2.188-.543A3.659,3.659,0,0,1,61.023,34.5a4.344,4.344,0,0,1,1.031,3.082V38.6H56.82a1.9,1.9,0,0,0,.617,1.117,1.836,1.836,0,0,0,1.234.406,2.366,2.366,0,0,0,1.953-.875l1.2,1.422a3.363,3.363,0,0,1-1.395,1.082A4.713,4.713,0,0,1,58.492,42.156Zm-.3-6.734q-1.156,0-1.375,1.531h2.656v-.2a1.3,1.3,0,0,0-.32-.98A1.275,1.275,0,0,0,58.2,35.422Zm7.336-1.875.086.992a2.867,2.867,0,0,1,2.414-1.148A2.412,2.412,0,0,1,70,34.18a3.757,3.757,0,0,1,.676,2.375V42H68.039V36.664a1.426,1.426,0,0,0-.258-.941,1.193,1.193,0,0,0-.937-.3,1.256,1.256,0,0,0-1.148.609V42H63.063V33.547ZM76.9,42a2.973,2.973,0,0,1-.25-.758,2.448,2.448,0,0,1-2.031.914,3,3,0,0,1-2.031-.723,2.3,2.3,0,0,1-.836-1.816,2.364,2.364,0,0,1,1.016-2.078,5.174,5.174,0,0,1,2.953-.7h.813v-.448q0-1.17-1.008-1.17a.824.824,0,0,0-.937.926H71.953A2.36,2.36,0,0,1,73,34.155a4.383,4.383,0,0,1,2.66-.765,3.843,3.843,0,0,1,2.555.789,2.743,2.743,0,0,1,.961,2.164v3.742a3.832,3.832,0,0,0,.359,1.781V42ZM75.25,40.281a1.469,1.469,0,0,0,.816-.211,1.322,1.322,0,0,0,.465-.477V38.242h-.766q-1.375,0-1.375,1.234a.754.754,0,0,0,.242.582A.876.876,0,0,0,75.25,40.281Zm5.047-2.57a5.164,5.164,0,0,1,.867-3.164,2.854,2.854,0,0,1,2.422-1.156,2.428,2.428,0,0,1,1.906.891V30h2.641V42H85.766l-.133-.906a2.493,2.493,0,0,1-2.062,1.063A2.849,2.849,0,0,1,81.18,41,5.327,5.327,0,0,1,80.3,37.711Zm2.633.164q0,2.25,1.313,2.25a1.3,1.3,0,0,0,1.25-.734V36.172a1.261,1.261,0,0,0-1.234-.75q-1.219,0-1.32,1.969ZM94.391,42a2.973,2.973,0,0,1-.25-.758,2.448,2.448,0,0,1-2.031.914,3,3,0,0,1-2.031-.723,2.3,2.3,0,0,1-.836-1.816,2.364,2.364,0,0,1,1.016-2.078,5.174,5.174,0,0,1,2.953-.7h.813v-.448q0-1.17-1.008-1.17a.824.824,0,0,0-.937.926H89.445a2.36,2.36,0,0,1,1.043-1.99,4.383,4.383,0,0,1,2.66-.765,3.843,3.843,0,0,1,2.555.789,2.743,2.743,0,0,1,.961,2.164v3.742a3.832,3.832,0,0,0,.359,1.781V42Zm-1.648-1.719a1.469,1.469,0,0,0,.816-.211,1.322,1.322,0,0,0,.465-.477V38.242h-.766q-1.375,0-1.375,1.234a.754.754,0,0,0,.242.582A.876.876,0,0,0,92.742,40.281Z" transform="translate(-9454.353 -7111.472)" fill="#083142"/>
  </g>
</svg>
