<svg id="Grupo_23377" data-name="Grupo 23377" xmlns="http://www.w3.org/2000/svg" xmlns:xlink="http://www.w3.org/1999/xlink" width="423.38" height="258.575" viewBox="0 0 423.38 258.575">
  <defs>
    <linearGradient id="linear-gradient" x1="0.443" y1="-0.629" x2="0.466" y2="-0.183" gradientUnits="objectBoundingBox">
      <stop offset="0" stop-color="#ff928e"/>
      <stop offset="1" stop-color="#feb3b1"/>
    </linearGradient>
    <linearGradient id="linear-gradient-2" x1="0" y1="0.5" x2="1" y2="0.5" xlink:href="#linear-gradient"/>
    <linearGradient id="linear-gradient-4" x1="-0.318" y1="-0.311" x2="0.176" y2="0.203" gradientUnits="objectBoundingBox">
      <stop offset="0" stop-color="#e1473d"/>
      <stop offset="1" stop-color="#e9605a"/>
    </linearGradient>
    <linearGradient id="linear-gradient-5" x1="3.012" y1="-1.596" x2="2.352" y2="-1.052" xlink:href="#linear-gradient"/>
    <linearGradient id="linear-gradient-6" x1="0.565" y1="2.467" x2="0.687" y2="6.132" xlink:href="#linear-gradient-4"/>
    <linearGradient id="linear-gradient-7" x1="-0.266" y1="-16.102" x2="0.915" y2="-16.911" xlink:href="#linear-gradient"/>
    <linearGradient id="linear-gradient-8" x1="2.749" y1="-1.609" x2="1.96" y2="-0.848" xlink:href="#linear-gradient"/>
    <linearGradient id="linear-gradient-9" x1="2.968" y1="-2.793" x2="2.114" y2="-1.645" xlink:href="#linear-gradient"/>
    <linearGradient id="linear-gradient-10" x1="0.532" y1="1.699" x2="1.028" y2="19.318" xlink:href="#linear-gradient"/>
    <linearGradient id="linear-gradient-11" x1="2.658" y1="-1.263" x2="1.901" y2="-0.658" xlink:href="#linear-gradient-4"/>
    <linearGradient id="linear-gradient-12" x1="2.809" y1="-1.34" x2="2.052" y2="-0.734" xlink:href="#linear-gradient-4"/>
    <linearGradient id="linear-gradient-13" x1="1.11" y1="-0.248" x2="-0.153" y2="1.072" xlink:href="#linear-gradient"/>
    <linearGradient id="linear-gradient-14" x1="0.671" y1="0.423" x2="-2.57" y2="2.229" xlink:href="#linear-gradient"/>
    <linearGradient id="linear-gradient-15" x1="-0.624" y1="3.857" x2="-2.964" y2="10.449" xlink:href="#linear-gradient"/>
    <linearGradient id="linear-gradient-16" x1="0.503" y1="0.4" x2="0.64" y2="-5.534" gradientUnits="objectBoundingBox">
      <stop offset="0" stop-color="#4042e2"/>
      <stop offset="1" stop-color="#4f52ff"/>
    </linearGradient>
    <linearGradient id="linear-gradient-17" x1="0.5" y1="-2.893" x2="0.5" y2="-1.782" gradientUnits="objectBoundingBox">
      <stop offset="0" stop-color="#09005d"/>
      <stop offset="1" stop-color="#1a0f91"/>
    </linearGradient>
    <linearGradient id="linear-gradient-19" x1="-1.678" y1="-6.998" x2="-1.606" y2="-15.779" xlink:href="#linear-gradient-16"/>
    <linearGradient id="linear-gradient-20" x1="-1.541" y1="-12.513" x2="-1.541" y2="-10.763" xlink:href="#linear-gradient-17"/>
    <linearGradient id="linear-gradient-22" x1="1.428" y1="-0.826" x2="1.107" y2="-0.341" xlink:href="#linear-gradient"/>
    <linearGradient id="linear-gradient-23" x1="0.618" y1="-4.62" x2="1.379" y2="-37.671" gradientUnits="objectBoundingBox">
      <stop offset="0" stop-color="#fe7062"/>
      <stop offset="1" stop-color="#ff928e"/>
    </linearGradient>
    <linearGradient id="linear-gradient-24" x1="0.901" y1="-0.019" x2="-0.01" y2="1.622" xlink:href="#linear-gradient"/>
    <linearGradient id="linear-gradient-25" x1="1.456" y1="-0.245" x2="1.015" y2="0.122" xlink:href="#linear-gradient"/>
    <linearGradient id="linear-gradient-26" x1="-56.961" y1="-27.359" x2="-54.504" y2="-30.007" xlink:href="#linear-gradient"/>
    <linearGradient id="linear-gradient-27" x1="3.159" y1="-1.465" x2="1.597" y2="-0.277" xlink:href="#linear-gradient"/>
  </defs>
  <path id="Trazado_6269" data-name="Trazado 6269" d="M352.374,348.09s-143.756,1.579-183.8-33.931-24.97-70.911,5.69-80.939,35.89-20.458,19.392-34.526-37.45-42.945-2.661-71.965,74.486,12.663,105.58,7.128,18.779-24.177,59.67-11.3S388.122,97.944,421,94.546s29.5,38.987,63.317,22.988,61.47-13.791,76.007,11.617,8.222,59.63-23.67,80.025-28.469,19-16.55,39.045,22.607,85.945-31.653,95.358S352.374,348.09,352.374,348.09Z" transform="translate(-144.35 -93.83)" fill="#e0fff7"/>
  <g id="Grupo_23344" data-name="Grupo 23344" transform="translate(5.344 212.322)">
    <path id="Trazado_6270" data-name="Trazado 6270" d="M247.636,1275.476H174.894a2.727,2.727,0,0,1-2.815-2.631h0a2.727,2.727,0,0,1,2.815-2.63h72.742a2.727,2.727,0,0,1,2.815,2.63h0A2.728,2.728,0,0,1,247.636,1275.476Z" transform="translate(-172.079 -1270.215)" fill="#fff" opacity="0.2"/>
    <path id="Trazado_6271" data-name="Trazado 6271" d="M292.984,1332.682H220.242a2.727,2.727,0,0,1-2.815-2.631h0a2.727,2.727,0,0,1,2.815-2.63h72.743a2.727,2.727,0,0,1,2.815,2.63h0A2.727,2.727,0,0,1,292.984,1332.682Z" transform="translate(-208.687 -1317.117)" fill="#fff" opacity="0.53"/>
    <path id="Trazado_6272" data-name="Trazado 6272" d="M272.3,1447.1H220.242a2.727,2.727,0,0,1-2.815-2.63h0a2.728,2.728,0,0,1,2.815-2.631H272.3a2.728,2.728,0,0,1,2.815,2.631h0A2.727,2.727,0,0,1,272.3,1447.1Z" transform="translate(-208.687 -1410.922)" fill="#fff" opacity="0.53"/>
    <path id="Trazado_6273" data-name="Trazado 6273" d="M335.309,1389.889H262.567a2.727,2.727,0,0,1-2.815-2.631h0a2.727,2.727,0,0,1,2.815-2.63h72.743a2.727,2.727,0,0,1,2.815,2.63h0A2.727,2.727,0,0,1,335.309,1389.889Z" transform="translate(-242.854 -1364.02)" fill="#fff" opacity="0.2"/>
  </g>
  <g id="Grupo_23345" data-name="Grupo 23345" transform="translate(319.454 137.744)">
    <path id="Trazado_6274" data-name="Trazado 6274" d="M1877.35,861.437h-72.743a2.727,2.727,0,0,1-2.814-2.631h0a2.727,2.727,0,0,1,2.814-2.63h72.743a2.727,2.727,0,0,1,2.815,2.63h0A2.728,2.728,0,0,1,1877.35,861.437Z" transform="translate(-1801.793 -856.176)" fill="#bdd0fb"/>
    <path id="Trazado_6275" data-name="Trazado 6275" d="M1922.7,918.644h-72.742a2.727,2.727,0,0,1-2.815-2.63h0a2.727,2.727,0,0,1,2.815-2.631H1922.7a2.727,2.727,0,0,1,2.815,2.631h0A2.727,2.727,0,0,1,1922.7,918.644Z" transform="translate(-1838.401 -903.079)" fill="#bdd0fb"/>
    <path id="Trazado_6276" data-name="Trazado 6276" d="M1902.013,1033.057h-52.057a2.727,2.727,0,0,1-2.815-2.631h0a2.727,2.727,0,0,1,2.815-2.63h52.057a2.727,2.727,0,0,1,2.814,2.63h0A2.727,2.727,0,0,1,1902.013,1033.057Z" transform="translate(-1838.401 -996.883)" fill="#bdd0fb"/>
    <path id="Trazado_6277" data-name="Trazado 6277" d="M1965.023,975.851h-72.743a2.727,2.727,0,0,1-2.815-2.631h0a2.727,2.727,0,0,1,2.815-2.63h72.743a2.728,2.728,0,0,1,2.815,2.63h0A2.728,2.728,0,0,1,1965.023,975.851Z" transform="translate(-1872.568 -949.982)" fill="#bdd0fb"/>
  </g>
  <g id="Grupo_23353" data-name="Grupo 23353" transform="translate(63.877 43.873)">
    <g id="Grupo_23351" data-name="Grupo 23351">
      <g id="Grupo_23350" data-name="Grupo 23350" transform="translate(84.244 138.138)">
        <g id="Grupo_23346" data-name="Grupo 23346" transform="translate(39.492 35.968)">
          <path id="Trazado_6278" data-name="Trazado 6278" d="M1137.061,1315.145l-14.535-13.522-4.775,4.7,19.31,12.094Z" transform="translate(-1117.751 -1301.623)" fill="#083142"/>
          <path id="Trazado_6279" data-name="Trazado 6279" d="M1262.916,1315.145l15.1-13.522,4.495,4.7-19.59,12.094Z" transform="translate(-1234.937 -1301.623)" fill="#083142"/>
        </g>
        <g id="Grupo_23349" data-name="Grupo 23349" transform="translate(0 19.334)">
          <g id="Grupo_23347" data-name="Grupo 23347">
            <path id="Trazado_6280" data-name="Trazado 6280" d="M986.818,1217.486l-48.613,44.968h-9.253l57.866-53.178Z" transform="translate(-925.849 -1209.276)" fill="#083142"/>
            <path id="Trazado_6281" data-name="Trazado 6281" d="M927.546,1503.732l-.052-.285a1.777,1.777,0,0,0-1.6-1.41l-9.138-.947a3.554,3.554,0,0,0-3.855,2.525,1.639,1.639,0,0,0,.339,1.465,1.882,1.882,0,0,0,1.434.66h11.071a1.887,1.887,0,0,0,1.394-.614A1.646,1.646,0,0,0,927.546,1503.732Z" transform="translate(-912.852 -1448.511)" fill="#083142"/>
          </g>
          <g id="Grupo_23348" data-name="Grupo 23348" transform="translate(66.171)">
            <path id="Trazado_6282" data-name="Trazado 6282" d="M1256.169,1217.486l49.094,44.968h9.252l-58.346-53.178Z" transform="translate(-1256.169 -1209.276)" fill="#083142"/>
            <path id="Trazado_6283" data-name="Trazado 6283" d="M1498.647,1503.732l.052-.285a1.777,1.777,0,0,1,1.6-1.41l9.138-.947a3.553,3.553,0,0,1,3.855,2.525,1.639,1.639,0,0,1-.339,1.465,1.882,1.882,0,0,1-1.434.66h-11.071a1.887,1.887,0,0,1-1.393-.614A1.646,1.646,0,0,1,1498.647,1503.732Z" transform="translate(-1451.891 -1448.511)" fill="#083142"/>
          </g>
        </g>
        <path id="Trazado_6284" data-name="Trazado 6284" d="M1217.936,1101.938V1154.8c0,.942,1.584,1.422,2.592,1.422h4.448c1.008,0,1.63-.48,1.63-1.422v-52.862Z" transform="translate(-1159.134 -1101.938)" fill="#083142"/>
      </g>
      <rect id="Rectángulo_5784" data-name="Rectángulo 5784" width="280.022" height="135.707" transform="translate(7.802 7.697)" fill="#083142"/>
      <rect id="Rectángulo_5785" data-name="Rectángulo 5785" width="275.254" height="132.062" transform="translate(9.97 7.697)" fill="#dae0e3"/>
      <path id="Trazado_6285" data-name="Trazado 6285" d="M767.913,335.028H479.725c-1.969,0-3.96,1.438-3.96,3.278v4a3.452,3.452,0,0,0,1.254,2.366,3.948,3.948,0,0,0,2.641.964l287.978-2.538a3.268,3.268,0,0,0,3.321-3.331v-1.457A2.982,2.982,0,0,0,767.913,335.028Z" transform="translate(-482.261 -332.633)" fill="#083142"/>
      <path id="Trazado_6286" data-name="Trazado 6286" d="M767.913,1101.938H479.725c-1.969,0-3.96,1.653-3.96,3.493v3.995a3.453,3.453,0,0,0,1.254,2.367,3.949,3.949,0,0,0,2.641.964l287.978-2.539a3.268,3.268,0,0,0,3.321-3.331v-1.457C770.959,1103.591,769.881,1101.938,767.913,1101.938Z" transform="translate(-475.765 -963.8)" fill="#083142"/>
    </g>
    <g id="Grupo_23352" data-name="Grupo 23352" transform="translate(13.871 14.021)" opacity="0.18">
      <path id="Trazado_6287" data-name="Trazado 6287" d="M808.583,414.264l-256.392-1.4a4.7,4.7,0,0,0-3.069,1.1,3.878,3.878,0,0,0-1.389,2.676V530.85c0,2.084,2.211,3.7,4.442,3.7h256.4a3.832,3.832,0,0,0,4.011-3.7V418.037A3.9,3.9,0,0,0,808.583,414.264Z" transform="translate(-547.733 -412.867)" fill="#a8b7bd"/>
    </g>
  </g>
  <g id="Grupo_23354" data-name="Grupo 23354" transform="translate(104.396 81.182)">
    <path id="Trazado_6288" data-name="Trazado 6288" d="M955.043,609.482l-4,7a19.083,19.083,0,0,1,6.931,14.592c0,.353-.011.7-.031,1.052l8.956,1.538A6.108,6.108,0,0,1,971.42,637l1.288,2.714a32.462,32.462,0,0,0,1.165-8.637,33.127,33.127,0,0,0-9-22.594Z" transform="translate(-899.955 -596.535)" fill="#24cb9f"/>
    <path id="Trazado_6289" data-name="Trazado 6289" d="M797.894,552.831l7.357,5.678a22.438,22.438,0,0,1,15.868-.074l4.073-7.125a6.187,6.187,0,0,1,4.772-3.014l3.75-.382a38.642,38.642,0,0,0-20.429-5.754,39.06,39.06,0,0,0-14.624,2.812Z" transform="translate(-776.326 -542.16)" fill="#24cb9f"/>
    <path id="Trazado_6290" data-name="Trazado 6290" d="M934.386,778.681l-8.668-1.488a20.623,20.623,0,0,1-12.5,10.817l3.361,5.347a5.431,5.431,0,0,1,.261,5.377l-2.186,4.335a36.927,36.927,0,0,0,23.617-16.2Z" transform="translate(-869.423 -734.858)" fill="#24cb9f"/>
    <path id="Trazado_6291" data-name="Trazado 6291" d="M695,614.06l6.9-5.137a19.04,19.04,0,0,1,6.521-14.036l-6.076-4.689a5.589,5.589,0,0,1-2.215-4.969l.344-3.525a33.759,33.759,0,0,0-14.482,27.417c0,.8.031,1.587.088,2.371Z" transform="translate(-685.993 -574.581)" fill="#24cb9f"/>
    <path id="Trazado_6292" data-name="Trazado 6292" d="M733.09,794.88l-4.58-7.286a21.033,21.033,0,0,1-18.385-12.177l-4.372,3.254a6.507,6.507,0,0,1-5.66,1l-5.859-1.688c4.57,14.08,18.5,24.353,35.025,24.5Z" transform="translate(-692.646 -733.402)" fill="#24cb9f"/>
  </g>
  <g id="Grupo_23356" data-name="Grupo 23356" transform="translate(166.501 100.255)">
    <g id="Grupo_23355" data-name="Grupo 23355" transform="translate(26.359)">
      <path id="Trazado_6293" data-name="Trazado 6293" d="M1335.008,695.594l-2.827,4.945a13.478,13.478,0,0,1,4.9,10.306q0,.374-.021.743l6.326,1.086a4.314,4.314,0,0,1,3.195,2.353l.91,1.917a22.949,22.949,0,0,0,.823-6.1,23.4,23.4,0,0,0-6.359-15.958Z" transform="translate(-1296.1 -686.45)" fill="#e0fff7"/>
      <path id="Trazado_6294" data-name="Trazado 6294" d="M1224.013,655.582l5.2,4.01a15.85,15.85,0,0,1,11.208-.052l2.877-5.032a4.37,4.37,0,0,1,3.371-2.129l2.649-.27a27.291,27.291,0,0,0-14.429-4.064,27.589,27.589,0,0,0-10.329,1.986Z" transform="translate(-1208.78 -648.045)" fill="#e0fff7"/>
      <path id="Trazado_6295" data-name="Trazado 6295" d="M1320.418,815.1l-6.122-1.051a14.566,14.566,0,0,1-8.829,7.64l2.374,3.776a3.836,3.836,0,0,1,.185,3.8l-1.544,3.062a26.08,26.08,0,0,0,16.681-11.445Z" transform="translate(-1274.535 -784.147)" fill="#e0fff7"/>
      <path id="Trazado_6296" data-name="Trazado 6296" d="M1151.339,698.828l4.875-3.629a13.449,13.449,0,0,1,4.606-9.914l-4.292-3.312a3.947,3.947,0,0,1-1.565-3.51l.243-2.49a23.844,23.844,0,0,0-10.229,19.365c0,.563.022,1.121.062,1.674Z" transform="translate(-1144.978 -670.944)" fill="#e0fff7"/>
      <path id="Trazado_6297" data-name="Trazado 6297" d="M1169.824,820.249c-7.976,1.794-12.874,1.685-15.319,1.389a23.64,23.64,0,0,1-3.7-7.036l4.135,1.195a4.6,4.6,0,0,0,4-.7l3.086-2.3A14.444,14.444,0,0,0,1169.824,820.249Z" transform="translate(-1149.68 -783.117)" fill="#e0fff7"/>
    </g>
    <path id="Trazado_6298" data-name="Trazado 6298" d="M1008.217,868.467s48.821,1.488,59-1.524a23.976,23.976,0,0,0,4.108-7.477l-5.912-3s-9.4,4.315-47.116,3.527Z" transform="translate(-1008.217 -818.923)" fill="#e0fff7"/>
  </g>
  <path id="Trazado_6299" data-name="Trazado 6299" d="M1368.786,844.407s8.031-3.744,10.068-9.241c6.661.04,35.848-.034,35.848-.034v-4.686l13,9.992-11.848,8.1-.578-6.077Z" transform="translate(-1132.789 -697.337)" fill="#e0fff7"/>
  <g id="Grupo_23357" data-name="Grupo 23357" transform="translate(301.852 121.424)">
    <path id="Trazado_6300" data-name="Trazado 6300" d="M1728.768,800.951l-18.3-10.765v-13.23l16.889-11.383,16.922,10.659v14.622Zm-16.566-11.66,16.518,9.717,13.825-9V777.094l-15.155-9.545L1712.2,777.785Z" transform="translate(-1710.468 -765.573)" fill="#e0fff7"/>
    <path id="Trazado_6301" data-name="Trazado 6301" d="M1731.863,832.072l-17.54-6.75.66-1.5,16.8,6.464,14.792-7.142.8,1.439Z" transform="translate(-1713.58 -812.775)" fill="#e0fff7"/>
    <path id="Trazado_6553" data-name="Trazado 6553" d="M0,0,1.734,0l.024,16.006-1.734,0Z" transform="matrix(1, -0.021, 0.021, 1, 17.375, 18.421)" fill="#e0fff7"/>
  </g>
  <g id="Grupo_23361" data-name="Grupo 23361" transform="translate(251.243 39.356)">
    <g id="Grupo_23358" data-name="Grupo 23358" transform="translate(0 111.216)">
      <path id="Trazado_6302" data-name="Trazado 6302" d="M1449.517,936.833a5.338,5.338,0,0,1,1.073-2.921c-1.066.325-1.468,1.066-1.716,3.047-.3,2.356-.825,8.735-.964,10.147a2.821,2.821,0,0,0,.964,2.563c.158.151.407.081.7-.133a4.442,4.442,0,0,1-.958-2.047C1448.426,946.54,1449.269,939.951,1449.517,936.833Z" transform="translate(-1447.89 -932.739)" fill="#062734"/>
      <path id="Trazado_6303" data-name="Trazado 6303" d="M1459.414,929.642l-1.853-2.245a15.354,15.354,0,0,1-3.37,1.026,4.626,4.626,0,0,0-.679.148,5.341,5.341,0,0,0-1.073,2.921c-.248,3.118-1.091,9.707-.9,10.655a4.442,4.442,0,0,0,.958,2.047,8.9,8.9,0,0,0,1.978-2.56c.887-1.6,3.892-6.383,4.6-8.17A8.016,8.016,0,0,0,1459.414,929.642Z" transform="translate(-1450.813 -927.397)" fill="#083142"/>
    </g>
    <g id="Grupo_23359" data-name="Grupo 23359" transform="translate(30.268 89.82)">
      <path id="Trazado_6304" data-name="Trazado 6304" d="M1608.477,814.275a5.48,5.48,0,0,1,1.575-2.715c-1.109.156-1.636.824-2.232,2.74-.708,2.278-2.36,8.487-2.747,9.858a2.772,2.772,0,0,0,.5,2.676c.129.173.387.143.714-.023a4.349,4.349,0,0,1-.582-2.167C1605.682,823.68,1607.68,817.311,1608.477,814.275Z" transform="translate(-1604.932 -811.029)" fill="#062734"/>
      <path id="Trazado_6305" data-name="Trazado 6305" d="M1618.9,811.11l-1.43-2.5a15.585,15.585,0,0,1-3.505.491,4.675,4.675,0,0,0-.7.041,5.481,5.481,0,0,0-1.575,2.715c-.8,3.036-2.794,9.4-2.776,10.369a4.35,4.35,0,0,0,.582,2.167,9.2,9.2,0,0,0,2.4-2.219c1.158-1.44,4.969-5.694,5.98-7.346A8.1,8.1,0,0,0,1618.9,811.11Z" transform="translate(-1608.153 -808.61)" fill="#083142"/>
    </g>
    <path id="Trazado_6306" data-name="Trazado 6306" d="M1892.2,326.557l14.68-10.707a.523.523,0,0,0,.191-.259l1.552-4.736a.532.532,0,0,1,.259-.3l1.008-.535a.594.594,0,0,1,.331-.066l3.133.285a.546.546,0,0,1,.5.437l.237,1.37a.5.5,0,0,1-.092.381l-.421.568a.494.494,0,0,0-.03.55h0a.494.494,0,0,1-.071.6,11.352,11.352,0,0,1-3.916,2.572.56.56,0,0,0-.19.125l-13.2,13.4a.587.587,0,0,1-.8.021l-3.215-2.919A.5.5,0,0,1,1892.2,326.557Z" transform="translate(-1806.387 -309.95)" fill="url(#linear-gradient)"/>
    <path id="Trazado_6307" data-name="Trazado 6307" d="M1781.26,417.488l20.889-16.359a1.139,1.139,0,0,1,1.412.017,14.57,14.57,0,0,1,3.032,3.228,1.058,1.058,0,0,1-.226,1.331l-21.611,19.339Z" transform="translate(-1717.007 -384.511)" fill="#ff6148"/>
    <path id="Trazado_6308" data-name="Trazado 6308" d="M1478.335,909.535c-.325.4-2.692,4.423-3.2,5.3a1.246,1.246,0,0,0-.165.471,1.926,1.926,0,0,0,1.01,1.951,1.488,1.488,0,0,0,1.916-.3l4.3-5.294Z" transform="translate(-1469.734 -801.536)" fill="url(#linear-gradient-2)"/>
    <path id="Trazado_6309" data-name="Trazado 6309" d="M1647.15,792.585c-.391.342-3.438,3.945-4.1,4.727a1.276,1.276,0,0,0-.246.439,1.89,1.89,0,0,0,.651,2.081,1.5,1.5,0,0,0,1.943,0l4.627-4.989Z" transform="translate(-1605.165 -705.652)" fill="url(#linear-gradient-2)"/>
    <path id="Trazado_6310" data-name="Trazado 6310" d="M1527.54,680.881c0-1.117,6.859-.72,12.871-1.37,3.158-.341,5.029,3.207,2.817,5.341l-18.209,17.56a1.507,1.507,0,0,1-1.474.347,9.035,9.035,0,0,1-2.672-1.3,1.16,1.16,0,0,1-.24-1.648l8.37-11.137-7.636,2.058-28.978,33.5a1.575,1.575,0,0,1-1.968.307,12.1,12.1,0,0,1-2.739-2.087,1.241,1.241,0,0,1-.084-1.555c3.2-4.565,20.57-29.434,21.393-32.017.907-2.846,4.241-8.056,7.358-8.242S1527.54,680.881,1527.54,680.881Z" transform="translate(-1479.755 -612.927)" fill="#083142"/>
    <path id="Trazado_6311" data-name="Trazado 6311" d="M1704.967,720.291a.192.192,0,0,1-.187-.135.18.18,0,0,1,.138-.222l6.87-1.7a.2.2,0,0,1,.237.129.181.181,0,0,1-.138.222l-6.87,1.7A.208.208,0,0,1,1704.967,720.291Z" transform="translate(-1655.262 -644.687)" fill="#062734"/>
    <path id="Trazado_6312" data-name="Trazado 6312" d="M1666.516,729.778a.2.2,0,0,1-.132-.048.173.173,0,0,1-.011-.256l1.716-1.738a.2.2,0,0,1,.274-.01.173.173,0,0,1,.011.256l-1.716,1.738A.2.2,0,0,1,1666.516,729.778Z" transform="translate(-1624.222 -652.435)" fill="#062734"/>
    <path id="Trazado_6313" data-name="Trazado 6313" d="M1654.834,477.9a11.859,11.859,0,0,1,3.006,9.439,9.055,9.055,0,0,1-2.078,4.824l-18.324,22.1a2.633,2.633,0,0,1-1.729.92c-2.695.309-9.862.913-14.934-.658a.619.619,0,0,1-.369-.914l16.657-27.392,10.089-10.971S1651.962,473.7,1654.834,477.9Z" transform="translate(-1587.083 -445.245)" fill="#ff6148"/>
    <path id="Trazado_6314" data-name="Trazado 6314" d="M1678.838,525.666a.452.452,0,0,1-.258-.08.388.388,0,0,1-.09-.567c.159-.2,15.943-20.066,17.008-22.479.96-2.176-1.372-3.895-1.4-3.912a.388.388,0,0,1-.078-.568.454.454,0,0,1,.608-.073c1,.722,2.635,2.669,1.667,4.862-1.105,2.5-16.46,21.831-17.113,22.653A.444.444,0,0,1,1678.838,525.666Z" transform="translate(-1633.975 -464.049)" fill="url(#linear-gradient-4)"/>
    <path id="Trazado_6315" data-name="Trazado 6315" d="M1607.981,641.38a17.045,17.045,0,0,0,5.646,2.052l-7.714,8.943s-1.129,5.786-2.114,6.569-3.784,1.307-4.514,0a9.651,9.651,0,0,1-.973-2.7s.453-.67,1.276.551V655.4s1.2.492,1.184,1.39c0,0-1.062-3.736.624-4.963a17.352,17.352,0,0,1,2.12-1.424Z" transform="translate(-1569.32 -581.682)" fill="url(#linear-gradient-5)"/>
    <path id="Trazado_6316" data-name="Trazado 6316" d="M1497.441,503.28a.609.609,0,0,0-.463.879,7.764,7.764,0,0,0,8.9,4.2c6.9-1.491,27.969-16.37,32.738-20.435s11.084-9.131,14.173-8.424,1.227-.966-.914-2.309-2.935-3.314-1.342-2.945c0,0-3.843-1.166-9.713,1.857-5.736,2.954-33.743,13.053-43.121,10.129a.6.6,0,0,0-.777.437c-.374,2-.939,8.245,4.542,15.276A19.214,19.214,0,0,1,1497.441,503.28Z" transform="translate(-1487.292 -444.473)" fill="#cc4d39"/>
    <path id="Trazado_6317" data-name="Trazado 6317" d="M1524.355,603.962a.439.439,0,0,1-.381-.212.392.392,0,0,1,.174-.549c.071-.036,7.086-3.606,8.564-4.749a.454.454,0,0,1,.61.054.387.387,0,0,1-.058.57c-1.543,1.193-8.411,4.689-8.7,4.837A.455.455,0,0,1,1524.355,603.962Z" transform="translate(-1509.267 -546.409)" fill="url(#linear-gradient-6)"/>
    <g id="Grupo_23360" data-name="Grupo 23360" transform="translate(61.091 12.531)">
      <path id="Trazado_6318" data-name="Trazado 6318" d="M1780.045,433.976l-5.475,7.226a1.149,1.149,0,0,0,.114,1.527,6.922,6.922,0,0,0,3.323,2.01,1.077,1.077,0,0,0,1.071-.422l2.912-4.177S1782.547,433.577,1780.045,433.976Z" transform="translate(-1772.504 -424.153)" fill="url(#linear-gradient-7)"/>
      <path id="Trazado_6319" data-name="Trazado 6319" d="M1786.519,399.067c.111.1,4.672,8.468,4.672,8.468l-5.17,2.332-5.585-7.334S1784.666,397.437,1786.519,399.067Z" transform="translate(-1777.433 -395.282)" fill="url(#linear-gradient-8)"/>
      <path id="Trazado_6320" data-name="Trazado 6320" d="M1770.2,387.65l2.578,4.017a.756.756,0,0,0,.141.165,1.411,1.411,0,0,0,2.169-.014,7.015,7.015,0,0,1,2.037-2.058.852.852,0,0,1,1.112.342,27.811,27.811,0,0,1,1.765,3.912.754.754,0,0,1-.478.941,24.093,24.093,0,0,1-4.952,1.35.851.851,0,0,1-.78-.31c-.79-1.011-3.016-3.837-3.776-4.545-.706-.657-2.009-.409-2.6-.252a.879.879,0,0,1-.659-.081,1.65,1.65,0,0,1-.684-2.584.742.742,0,0,0-.255-1.048,1.653,1.653,0,0,1-.7-2.419,2.637,2.637,0,0,1,2.785-1.274.869.869,0,0,0,.9-.467.538.538,0,0,1,.425-.313.753.753,0,0,0,.648-.878,1.933,1.933,0,0,1,1.179-2.261c2.23-1.146,4.185.721,4.681,2.3s-2,2.691-3.566,2.877c-1.152.137-1.784,1.312-2.038,1.926A.728.728,0,0,0,1770.2,387.65Z" transform="translate(-1764.85 -379.519)" fill="#083142"/>
      <path id="Trazado_6321" data-name="Trazado 6321" d="M1780.943,442.043s-.992-2.712-2.262-2.613-2.269,1.282-.7,2.61C1779.943,443.693,1780.943,442.043,1780.943,442.043Z" transform="translate(-1774.803 -428.636)" fill="url(#linear-gradient-9)"/>
    </g>
    <path id="Trazado_6322" data-name="Trazado 6322" d="M1987.795,327.264a.137.137,0,0,1-.062-.015.117.117,0,0,1-.051-.164c.031-.053.773-1.29,1.7-1.024.728.209.932.131.935.13a.129.129,0,0,1,.174.036.12.12,0,0,1-.041.17c-.057.036-.31.134-1.144-.106-.732-.211-1.394.9-1.4.909A.131.131,0,0,1,1987.795,327.264Z" transform="translate(-1883.63 -323.128)" fill="url(#linear-gradient-10)"/>
  </g>
  <g id="Grupo_23365" data-name="Grupo 23365" transform="translate(251.365 200.41)">
    <path id="Trazado_6323" data-name="Trazado 6323" d="M1451.432,1204.632l133.695-.547a2.221,2.221,0,0,1,2.312,2.154l-.285,43.734a2.224,2.224,0,0,1-2.357,2.128c-11.789-.328-132.621-1.778-134.932-1.687-2.283.089-1.043-34.448-.7-43.716A2.224,2.224,0,0,1,1451.432,1204.632Z" transform="translate(-1448.52 -1204.086)" fill="#dae0e3"/>
    <path id="Trazado_6324" data-name="Trazado 6324" d="M1592.436,1258.115h-.016c-7.534-.21-79.739-1.052-114.438-1.457-10.147-.118-17.349-.2-19.269-.228l-.179,0-.031-.165c-.82-4.323-.806-18.778.041-41.8a.465.465,0,0,1,.476-.432l133.7-.546a.5.5,0,0,1,.344.132.425.425,0,0,1,.139.319l-.285,43.734A.465.465,0,0,1,1592.436,1258.115Zm-133.537-2.088c2.16.028,9.236.11,19.088.225,34.7.4,106.908,1.247,114.446,1.457h.012a.045.045,0,0,0,.033-.044l.285-43.734-.049-.246v.2l-133.695.546a.045.045,0,0,0-.045.041C1458.141,1237.185,1458.115,1251.537,1458.9,1256.028Z" transform="translate(-1456.09 -1211.791)" fill="#a8b7bd"/>
    <path id="Trazado_6325" data-name="Trazado 6325" d="M1493.309,1260.076h0c0,1.183.422,2.141.943,2.141h51.212c.521,0,.943-.959.943-2.141h0c0-1.183-.422-2.141-.943-2.141h-51.212C1493.731,1257.934,1493.309,1258.893,1493.309,1260.076Z" transform="translate(-1484.676 -1248.235)" fill="#e0fff7"/>
    <path id="Trazado_6326" data-name="Trazado 6326" d="M1493.309,1300.6h0c0,1.183.422,2.141.943,2.141h51.212c.521,0,.943-.959.943-2.141h0c0-1.183-.422-2.141-.943-2.141h-51.212C1493.731,1298.463,1493.309,1299.422,1493.309,1300.6Z" transform="translate(-1484.676 -1281.464)" fill="#e0fff7"/>
    <path id="Trazado_6327" data-name="Trazado 6327" d="M1493.309,1341.132h0c0,1.183.422,2.141.943,2.141h51.212c.521,0,.943-.959.943-2.141h0c0-1.183-.422-2.141-.943-2.141h-51.212C1493.731,1338.991,1493.309,1339.95,1493.309,1341.132Z" transform="translate(-1484.676 -1314.691)" fill="#e0fff7"/>
    <path id="Trazado_6328" data-name="Trazado 6328" d="M1493.309,1381.661h0c0,1.183.422,2.141.943,2.141h51.212c.521,0,.943-.959.943-2.141h0c0-1.183-.422-2.141-.943-2.141h-51.212C1493.731,1379.52,1493.309,1380.479,1493.309,1381.661Z" transform="translate(-1484.676 -1347.92)" fill="#e0fff7"/>
    <g id="Grupo_23364" data-name="Grupo 23364" transform="translate(62.107 1.576)">
      <path id="Trazado_6549" data-name="Trazado 6549" d="M8.617.292A9.356,9.356,0,0,1,17.525,9.2,7.945,7.945,0,0,1,9.2,17.525,9.356,9.356,0,0,1,.292,8.617,7.945,7.945,0,0,1,8.617.292Z" transform="translate(0 11.774) rotate(-45)" fill="#e0fff7"/>
      <path id="Trazado_6550" data-name="Trazado 6550" d="M8.828.2a9.128,9.128,0,0,1,9.029,8.607,8.154,8.154,0,0,1-8.626,8.2A9.128,9.128,0,0,1,.2,8.406,8.154,8.154,0,0,1,8.828.2Z" transform="matrix(0.928, -0.372, 0.372, 0.928, 23.155, 7.144)" fill="#e0fff7"/>
      <path id="Trazado_6551" data-name="Trazado 6551" d="M8.357.133a8.957,8.957,0,0,1,8.49,9.009,8.314,8.314,0,0,1-8.224,8.743A8.957,8.957,0,0,1,.133,8.876,8.314,8.314,0,0,1,8.357.133Z" transform="translate(46.13 18.188) rotate(-76.445)" fill="#e0fff7"/>
      <g id="Grupo_23362" data-name="Grupo 23362" transform="translate(5.427 5.344)">
        <path id="Trazado_6329" data-name="Trazado 6329" d="M1811.376,1247.173a5.03,5.03,0,0,1,.429,2.032,5.735,5.735,0,1,1-5.722-5.348q.145,0,.289.007v-1.355c-.1,0-.192-.006-.289-.006a6.717,6.717,0,1,0,7.172,6.7,6.3,6.3,0,0,0-.548-2.572Z" transform="translate(-1798.911 -1242.503)" fill="#ff6148"/>
        <path id="Trazado_6330" data-name="Trazado 6330" d="M1923.5,1253.73a5.989,5.989,0,0,1-3.049.823,5.36,5.36,0,1,1,0-10.7c.1,0,.193,0,.289.007v-1.355c-.1,0-.192-.006-.289-.006a6.717,6.717,0,1,0,0,13.4,7.514,7.514,0,0,0,3.768-1Z" transform="translate(-1891.233 -1242.503)" fill="#ff6148"/>
        <path id="Trazado_6331" data-name="Trazado 6331" d="M2040.776,1252.212a5.834,5.834,0,0,1-4.732,2.341,5.36,5.36,0,1,1,0-10.7q.145,0,.289.007v-1.355c-.1,0-.192-.006-.289-.006a6.717,6.717,0,1,0,0,13.4,7.316,7.316,0,0,0,5.907-2.9Z" transform="translate(-1984.55 -1242.503)" fill="#ff6148"/>
      </g>
      <g id="Grupo_23363" data-name="Grupo 23363" transform="translate(3.69 23.625)" opacity="0.64">
        <path id="Trazado_6332" data-name="Trazado 6332" d="M1806.066,1344h-14.517a1.545,1.545,0,1,0,0,3.083h14.517a1.545,1.545,0,1,0,0-3.083Z" transform="translate(-1789.899 -1343.997)" fill="#e0fff7"/>
        <path id="Trazado_6333" data-name="Trazado 6333" d="M1920.936,1344h-14.517a1.545,1.545,0,1,0,0,3.083h14.517a1.545,1.545,0,1,0,0-3.083Z" transform="translate(-1882.629 -1343.997)" fill="#e0fff7"/>
        <path id="Trazado_6334" data-name="Trazado 6334" d="M2021.289,1347.081h14.517a1.545,1.545,0,1,0,0-3.083h-14.517a1.545,1.545,0,1,0,0,3.083Z" transform="translate(-1975.359 -1343.997)" fill="#e0fff7"/>
        <rect id="Rectángulo_5787" data-name="Rectángulo 5787" width="17.817" height="12.164" rx="6.082" transform="translate(0 4.797)" fill="#e0fff7"/>
        <rect id="Rectángulo_5788" data-name="Rectángulo 5788" width="17.817" height="12.164" rx="6.082" transform="translate(22.14 4.797)" fill="#e0fff7"/>
        <rect id="Rectángulo_5789" data-name="Rectángulo 5789" width="17.817" height="12.164" rx="6.082" transform="translate(44.28 4.797)" fill="#e0fff7"/>
      </g>
    </g>
  </g>
  <g id="Grupo_23367" data-name="Grupo 23367" transform="translate(124.164 101.157)">
    <path id="Trazado_6335" data-name="Trazado 6335" d="M859.043,875.083c-.024-.274-.324-.512-.831-.7.552-.284.857-.589.831-.888-.078-.9-3.143-1.412-6.847-1.133s-6.642,1.239-6.564,2.143c.024.274.324.512.831.7-.552.284-.857.589-.831.888.024.274.324.512.831.7-.552.284-.857.589-.831.888.024.274.324.512.831.7-.552.285-.857.589-.831.888.035.4.654.722,1.654.933a7.485,7.485,0,0,0,.025.977c.145,1.667,2.151,2.974,4.8,2.974s4.95-1.782,4.976-3.454a7.9,7.9,0,0,0-.052-1.091c1.269-.4,2.043-.88,2-1.35-.024-.274-.324-.512-.831-.7.552-.284.857-.589.831-.888-.024-.275-.324-.512-.831-.7C858.764,875.687,859.069,875.382,859.043,875.083Z" transform="translate(-834.631 -832.795)" fill="#083142"/>
    <g id="Grupo_23366" data-name="Grupo 23366" transform="translate(11.99 41.669)">
      <path id="Trazado_6336" data-name="Trazado 6336" d="M858.2,914.141a17.116,17.116,0,0,1-2.938-.224.084.084,0,0,1-.071-.1.088.088,0,0,1,.1-.066,20.486,20.486,0,0,0,4.893.144,22.376,22.376,0,0,0,4.1-.662.09.09,0,0,1,.11.057.082.082,0,0,1-.06.1,22.554,22.554,0,0,1-4.139.668C859.513,914.115,858.84,914.141,858.2,914.141Z" transform="translate(-854.336 -908.037)" fill="#a8b7bd"/>
      <path id="Trazado_6337" data-name="Trazado 6337" d="M855.524,903.326a14.918,14.918,0,0,1-3.607-.365.083.083,0,0,1-.061-.1.09.09,0,0,1,.11-.057,21.943,21.943,0,0,0,10.9-.81.092.092,0,0,1,.118.041.081.081,0,0,1-.044.11,18.606,18.606,0,0,1-5.436,1.108C856.83,903.3,856.162,903.326,855.524,903.326Z" transform="translate(-851.643 -898.814)" fill="#a8b7bd"/>
      <path id="Trazado_6338" data-name="Trazado 6338" d="M854.627,894.5a13.848,13.848,0,0,1-3.8-.428.082.082,0,0,1-.057-.1.09.09,0,0,1,.112-.053,17.355,17.355,0,0,0,5.735.342,18.42,18.42,0,0,0,5.376-1.093.092.092,0,0,1,.118.041.081.081,0,0,1-.044.11,18.592,18.592,0,0,1-5.436,1.108C855.941,894.472,855.267,894.5,854.627,894.5Z" transform="translate(-850.764 -891.575)" fill="#a8b7bd"/>
      <path id="Trazado_6339" data-name="Trazado 6339" d="M857.163,885.721a16.375,16.375,0,0,1-3.2-.272.083.083,0,0,1-.068-.1.089.089,0,0,1,.106-.063,19.83,19.83,0,0,0,5.141.192,18.545,18.545,0,0,0,5.348-1.081.091.091,0,0,1,.118.041.081.081,0,0,1-.044.11,18.732,18.732,0,0,1-5.408,1.1C858.474,885.7,857.8,885.721,857.163,885.721Z" transform="translate(-853.288 -884.39)" fill="#a8b7bd"/>
    </g>
    <path id="Trazado_6340" data-name="Trazado 6340" d="M797.074,687.312a11.445,11.445,0,0,0-2.243-4.092,26.158,26.158,0,0,1-6.244-15.085c-.644-10.483,9.3-15.732,18.383-15.019s18.037,7.03,17.056,16.782c-.6,6-4.2,10.553-6.873,13.167a13.679,13.679,0,0,0-3.567,5.907c-.8,2.71-2.714,6.087-7.257,6.292C800.451,695.53,798.01,690.41,797.074,687.312Z" transform="translate(-788.558 -653.051)" fill="#ffc8bf"/>
    <path id="Trazado_6341" data-name="Trazado 6341" d="M888.523,785.14l3.177-19.308c.065-.4.276-.667.469-.6s.3.447.232.846l-.006.034-3.618,19.129c-.027.144-.105.235-.175.2S888.5,785.279,888.523,785.14Z" transform="translate(-869.25 -745.018)" fill="url(#linear-gradient-11)"/>
    <path id="Trazado_6342" data-name="Trazado 6342" d="M855.122,785.991l-3.177-19.308c-.066-.4-.276-.667-.469-.6s-.3.447-.232.846l.006.034,3.618,19.129c.027.144.105.235.175.2S855.145,786.13,855.122,785.991Z" transform="translate(-839.147 -745.716)" fill="url(#linear-gradient-12)"/>
    <path id="Trazado_6343" data-name="Trazado 6343" d="M865.876,748.77a.348.348,0,0,0-.417-.1l-1.769.772-.614-1.635a.364.364,0,0,0-.215-.2.454.454,0,0,0-.544.156l0,.005-1.455,2.479-1.35-3.528,0-.006a.413.413,0,0,0-.2-.215.555.555,0,0,0-.668.123l-2.033,2.616a.22.22,0,0,0,.072.33.359.359,0,0,0,.432-.044l1.791-1.867,1.612,3.357v0a.278.278,0,0,0,.142.13.351.351,0,0,0,.422-.1l1.556-2.333.585,1.18.005.01a.225.225,0,0,0,.015.025.347.347,0,0,0,.417.1l2.1-.917A.228.228,0,0,0,865.876,748.77Z" transform="translate(-843.45 -729.614)" fill="#993a2b" opacity="0.49"/>
    <path id="Trazado_6344" data-name="Trazado 6344" d="M934.557,791.921a.678.678,0,0,1-.387-.12.581.581,0,0,1-.134-.85,21.709,21.709,0,0,0,1.458-2.07.675.675,0,0,1,.888-.222.586.586,0,0,1,.238.83,22.833,22.833,0,0,1-1.54,2.186A.665.665,0,0,1,934.557,791.921Z" transform="translate(-905.892 -764.166)" fill="#fff" opacity="0.49"/>
    <path id="Trazado_6345" data-name="Trazado 6345" d="M948.115,716.184a.688.688,0,0,1-.259-.05.593.593,0,0,1-.337-.8,16.366,16.366,0,0,0,.434-13.161.592.592,0,0,1,.321-.8.669.669,0,0,1,.861.3,17.216,17.216,0,0,1-.423,14.151A.654.654,0,0,1,948.115,716.184Z" transform="translate(-916.837 -692.62)" fill="#fff" opacity="0.49"/>
  </g>
  <g id="Grupo_23368" data-name="Grupo 23368" transform="translate(57.482 193.758)">
    <path id="Trazado_6346" data-name="Trazado 6346" d="M505.773,1227.657H446.036a3.342,3.342,0,0,1-3.449-3.223v-53.9a3.341,3.341,0,0,1,3.44-3.223l60.215-.151a3.341,3.341,0,0,1,3.458,3.24l-.478,54.054A3.343,3.343,0,0,1,505.773,1227.657Z" transform="translate(-442.587 -1167.156)" fill="#a8b7bd"/>
    <path id="Trazado_6347" data-name="Trazado 6347" d="M516.944,1190.061l-53.414.307a3.388,3.388,0,0,0-3.478,3.286l.373,45.336a3.387,3.387,0,0,0,3.436,3.255l51.9.885a3.4,3.4,0,0,0,3.563-3.224l1.143-46.528A3.389,3.389,0,0,0,516.944,1190.061Z" transform="translate(-456.686 -1185.935)" fill="#dae0e3"/>
    <rect id="Rectángulo_5790" data-name="Rectángulo 5790" width="43.249" height="2.301" rx="1.151" transform="translate(14.837 7.352)" fill="#e0fff7"/>
    <path id="Trazado_6348" data-name="Trazado 6348" d="M560.625,1232.74h0a1.018,1.018,0,0,1-1.026.926l-35.992.613a1.016,1.016,0,0,1-1.066-.978v-.08a1.013,1.013,0,0,1,1.03-.978l35.992-.533A1.011,1.011,0,0,1,560.625,1232.74Z" transform="translate(-507.13 -1220.082)" fill="#e0fff7"/>
    <path id="Trazado_6349" data-name="Trazado 6349" d="M521.255,1295.673h-.04l-48.682-.546a3.446,3.446,0,0,1-2.368-.952,3.006,3.006,0,0,1-.945-2.241l1.253-32.02a3.015,3.015,0,0,1,1.027-2.185,3.438,3.438,0,0,1,2.391-.875l48.6.884a3.244,3.244,0,0,1,3.288,3.19s0,.009,0,.013l-1.168,31.668A3.261,3.261,0,0,1,521.255,1295.673Zm-47.43-37.2a1.67,1.67,0,0,0-1.122.423,1.46,1.46,0,0,0-.5,1.062l-1.253,32.02a1.445,1.445,0,0,0,.457,1.068,1.664,1.664,0,0,0,1.143.46l48.682.546h.019a1.576,1.576,0,0,0,1.62-1.487l1.168-31.673a1.567,1.567,0,0,0-1.588-1.535l-48.6-.884Zm51.084,2.439h0Z" transform="translate(-464.087 -1240.696)" fill="#e0fff7"/>
    <path id="Trazado_6350" data-name="Trazado 6350" d="M529.2,1292.76H476.178a.812.812,0,1,1,0-1.62H529.2a.812.812,0,1,1,0,1.62Z" transform="translate(-469.004 -1268.808)" fill="#e0fff7"/>
  </g>
  <g id="Grupo_23371" data-name="Grupo 23371" transform="translate(86.506 159.986)">
    <g id="Grupo_23370" data-name="Grupo 23370">
      <path id="Trazado_6351" data-name="Trazado 6351" d="M892.764,1095.543l-5.571,8.009c2.591,4.718,5.47,7.323,8.349,8.561a14.1,14.1,0,0,1,3.7-6.828C894.105,1102.553,892.764,1095.543,892.764,1095.543Z" transform="translate(-830.524 -1074.669)" fill="#cc4d39"/>
      <path id="Trazado_6352" data-name="Trazado 6352" d="M946.872,1141.641c-5.7,3.155-9.779,2.969-12.66,1.438a14.093,14.093,0,0,0-3.7,6.828c9.154,3.936,18.321-5.971,18.321-5.971Z" transform="translate(-865.494 -1112.464)" fill="url(#linear-gradient-13)"/>
      <path id="Trazado_6353" data-name="Trazado 6353" d="M1014.823,1124.325a3.5,3.5,0,0,1,.674-4.434s.714-.761,1.5.357c0,0,2.382-2.021,3.033-1.207s2.378,2.83.692,5.129C1019.015,1126.494,1015.575,1125.458,1014.823,1124.325Z" transform="translate(-933.135 -1093.776)" fill="url(#linear-gradient-14)"/>
      <path id="Trazado_6354" data-name="Trazado 6354" d="M1023.344,1129.618a1.575,1.575,0,0,1-.765-.178,1.227,1.227,0,0,1-.617-.962.412.412,0,0,1,.375-.453.433.433,0,0,1,.485.351c.038.277.158.344.2.366a.839.839,0,0,0,.478.056l-.486-1.44a.4.4,0,0,1,.283-.508.441.441,0,0,1,.544.265l.625,1.852a.4.4,0,0,1-.255.5A2.711,2.711,0,0,1,1023.344,1129.618Z" transform="translate(-939.316 -1100.322)" fill="url(#linear-gradient-15)"/>
      <path id="Trazado_6355" data-name="Trazado 6355" d="M593.836,1440.248a1.339,1.339,0,0,0-.631,1.441c.465,2.265,1.993,8.246,5.706,11.787a.584.584,0,0,0,.818,0,19.779,19.779,0,0,1-3.468-5.137C594.166,1444.259,593.778,1441.74,593.836,1440.248Z" transform="translate(-593.176 -1357.285)" fill="url(#linear-gradient-16)"/>
      <path id="Trazado_6356" data-name="Trazado 6356" d="M601.37,1437.413a5.515,5.515,0,0,0-4.777.074l-.017.011c-.058,1.492.33,4.01,2.424,8.094a19.781,19.781,0,0,0,3.468,5.137.6.6,0,0,0,.155-.255C603.321,1448.21,604.794,1441.919,601.37,1437.413Z" transform="translate(-595.917 -1354.534)" fill="url(#linear-gradient-17)"/>
      <path id="Trazado_6357" data-name="Trazado 6357" d="M619.406,1427.327l-2.169,1.945a1.2,1.2,0,0,1-1.415.125,2.84,2.84,0,0,1-1.1-1.27,1.016,1.016,0,0,1,.209-1.131l2.166-2.226a1.188,1.188,0,0,1,1.828.174l.677,1.071A1.016,1.016,0,0,1,619.406,1427.327Z" transform="translate(-610.495 -1344.308)" fill="url(#linear-gradient-2)"/>
      <path id="Trazado_6358" data-name="Trazado 6358" d="M997.814,1344.838a1.554,1.554,0,0,0,1.653.2c2.224-1,8.021-3.908,10.736-8.167a.5.5,0,0,0-.207-.739,20.447,20.447,0,0,1-4.428,4.446C1001.879,1343.515,999.372,1344.509,997.814,1344.838Z" transform="translate(-919.824 -1271.924)" fill="url(#linear-gradient-19)"/>
      <path id="Trazado_6359" data-name="Trazado 6359" d="M990.572,1340.164a4.618,4.618,0,0,0,1.3,4.3l.015.012c1.558-.329,4.065-1.323,7.754-4.258a20.446,20.446,0,0,0,4.428-4.446.688.688,0,0,0-.3-.075C1001.243,1335.643,994.359,1335.92,990.572,1340.164Z" transform="translate(-913.895 -1271.56)" fill="url(#linear-gradient-20)"/>
      <path id="Trazado_6360" data-name="Trazado 6360" d="M977.151,1340.4l2.266,1.845a1.016,1.016,0,0,1,.26,1.306,2.892,2.892,0,0,1-1.255,1.14,1.211,1.211,0,0,1-1.225-.093l-2.566-1.817a1.027,1.027,0,0,1,.023-1.717l1.08-.726A1.2,1.2,0,0,1,977.151,1340.4Z" transform="translate(-900.745 -1275.21)" fill="url(#linear-gradient-2)"/>
      <path id="Trazado_6361" data-name="Trazado 6361" d="M648.38,1237.907s-4.423,14.081-7.282,20.27a29.287,29.287,0,0,0-8.093,2.4c-3.094,1.689-9.758,11.053-9.758,11.053s1.74,3.087,3.84,3.561l18.971-12.284,15.14-16.455-.719-7.632Z" transform="translate(-617.451 -1191.39)" fill="#083142"/>
      <path id="Trazado_6362" data-name="Trazado 6362" d="M749.637,1231.53l-1.294,3.856s1.184,10.109,14.822,8.4,15.352-3.785,15.352-3.785-1.184,6.457,13.728,14.22c0,0,2.267-1.6,2.766-3.415l-10.45-16.1c-1.453-2.111-2.8-2.667-5.456-2.28-5.869.858-16.858,1.976-18.521,1.71Z" transform="translate(-718.436 -1186.162)" fill="#041d27"/>
      <path id="Trazado_6363" data-name="Trazado 6363" d="M750.367,1072.22c-3.974.189-10.257,1.954-14.315,5.446a46.456,46.456,0,0,1,4.6,5.446,12.864,12.864,0,0,1,5.7-2.654,150.841,150.841,0,0,1-8.092,22.148.792.792,0,0,0,.5,1.088c2.49.811,9.833,2.742,15.722-.368l13.057-17.473a14.415,14.415,0,0,0,2.7-6.3l.516-3.152S759.026,1071.809,750.367,1072.22Z" transform="translate(-708.514 -1055.526)" fill="#ff6148"/>
      <path id="Trazado_6364" data-name="Trazado 6364" d="M726.795,1123.568c-.567-1.171-2.51-2.265-3.437-2.735-.807-1.554-4.027-8.543.841-12.814a46.437,46.437,0,0,0-4.6-5.446c-4.682,4.028-6.4,10.356,1.814,19.217-.448,2.182,1.014,4.723,1.8,5.08C723.585,1127.033,727.549,1125.124,726.795,1123.568Z" transform="translate(-692.064 -1080.433)" fill="url(#linear-gradient-22)"/>
      <path id="Trazado_6552" data-name="Trazado 6552" d="M0,0,3.7.05l.012.813L.012.813Z" transform="translate(38.497 24.262) rotate(-12.177)" fill="url(#linear-gradient-23)"/>
      <path id="Trazado_6365" data-name="Trazado 6365" d="M841.283,1046.573l-3.411,6.24a.978.978,0,0,0,.159,1.159c.826.86,2.777,2.256,6.171,1.256a.981.981,0,0,0,.7-.781l.888-5.667Z" transform="translate(-790.611 -1034.52)" fill="url(#linear-gradient-24)"/>
      <g id="Grupo_23369" data-name="Grupo 23369" transform="translate(45.63)">
        <path id="Trazado_6366" data-name="Trazado 6366" d="M852.251,999.8c.114.1,4.814,8.726,4.814,8.726l-5.327,2.4-5.755-7.557S850.341,998.12,852.251,999.8Z" transform="translate(-842.887 -995.9)" fill="url(#linear-gradient-25)"/>
        <path id="Trazado_6367" data-name="Trazado 6367" d="M835.438,988.036l2.657,4.139a.786.786,0,0,0,.146.169,1.454,1.454,0,0,0,2.235-.014,7.224,7.224,0,0,1,2.1-2.121.878.878,0,0,1,1.146.353,28.612,28.612,0,0,1,1.818,4.031.777.777,0,0,1-.492.969,24.827,24.827,0,0,1-5.1,1.391.877.877,0,0,1-.8-.319c-.814-1.042-3.108-3.954-3.891-4.683-.727-.677-2.07-.422-2.675-.259a.907.907,0,0,1-.679-.083,1.7,1.7,0,0,1-.705-2.663.764.764,0,0,0-.263-1.08,1.7,1.7,0,0,1-.721-2.493,2.718,2.718,0,0,1,2.87-1.313.9.9,0,0,0,.926-.481.556.556,0,0,1,.439-.323.776.776,0,0,0,.668-.905,1.992,1.992,0,0,1,1.215-2.33c2.3-1.181,4.312.743,4.824,2.368s-2.058,2.773-3.675,2.964c-1.187.141-1.839,1.352-2.1,1.985A.75.75,0,0,0,835.438,988.036Z" transform="translate(-829.921 -979.657)" fill="#083142"/>
        <path id="Trazado_6368" data-name="Trazado 6368" d="M846.5,1044.087s-1.022-2.795-2.331-2.692-2.338,1.321-.716,2.69C845.474,1045.788,846.5,1044.087,846.5,1044.087Z" transform="translate(-840.177 -1030.272)" fill="url(#linear-gradient-26)"/>
      </g>
    </g>
    <path id="Trazado_6369" data-name="Trazado 6369" d="M1032.5,1119.823s-1.245-3.313-3.345-1.482-1.091,4.3,1.143,5.189S1033.612,1122.474,1032.5,1119.823Z" transform="translate(-944.197 -1092.908)" fill="url(#linear-gradient-27)"/>
  </g>
  <g id="Grupo_23372" data-name="Grupo 23372" transform="translate(164.483 63.702)">
    <path id="Trazado_6370" data-name="Trazado 6370" d="M998.392,496.586a.665.665,0,0,0,.442-.165l8.723-7.722a4.208,4.208,0,0,1,2.8-1.041h29.69a.6.6,0,1,0,0-1.2h-29.69a5.538,5.538,0,0,0-3.681,1.37l-8.723,7.722a.573.573,0,0,0-.025.849A.663.663,0,0,0,998.392,496.586Z" transform="translate(-997.75 -479.01)" fill="#e0fff7"/>
    <path id="Trazado_6371" data-name="Trazado 6371" d="M1084.106,466.985h25.132a.6.6,0,1,0,0-1.2h-25.132a.6.6,0,1,0,0,1.2Z" transform="translate(-1066.943 -462.061)" fill="#e0fff7"/>
    <path id="Trazado_6372" data-name="Trazado 6372" d="M1105.323,446.313h21.042a.6.6,0,1,0,0-1.2h-21.042a.6.6,0,1,0,0,1.2Z" transform="translate(-1084.07 -445.112)" fill="#e0fff7"/>
  </g>
  <g id="Grupo_23373" data-name="Grupo 23373" transform="translate(199.026 154.394)">
    <path id="Trazado_6373" data-name="Trazado 6373" d="M1177.5,948.616a.55.55,0,0,1,.365.136l7.21,6.382a3.477,3.477,0,0,0,2.312.861h24.54a.5.5,0,1,1,0,.993h-24.54a4.577,4.577,0,0,1-3.042-1.133l-7.21-6.382a.474.474,0,0,1-.02-.7A.549.549,0,0,1,1177.5,948.616Z" transform="translate(-1176.971 -948.616)" fill="#e0fff7"/>
    <path id="Trazado_6374" data-name="Trazado 6374" d="M1248.347,1006.669h20.772a.5.5,0,1,1,0,.993h-20.772a.5.5,0,1,1,0-.993Z" transform="translate(-1234.161 -996.212)" fill="#e0fff7"/>
    <path id="Trazado_6375" data-name="Trazado 6375" d="M1265.882,1023.755h17.392a.5.5,0,1,1,0,.992h-17.392a.5.5,0,1,1,0-.992Z" transform="translate(-1248.317 -1010.221)" fill="#e0fff7"/>
  </g>
  <g id="Grupo_23376" data-name="Grupo 23376" transform="translate(244.75 0)">
    <g id="Grupo_23374" data-name="Grupo 23374" transform="translate(24.283)">
      <path id="Trazado_6376" data-name="Trazado 6376" d="M1575.924,117.148l-1.022-1.237a1.225,1.225,0,0,1-.22-1.177,13,13,0,0,0,.631-3.092,1.286,1.286,0,0,1,.669-1.02l1.439-.8a1.509,1.509,0,0,0,.775-1.642l-.427-1.928a1.614,1.614,0,0,0-1.408-1.22l-1.661-.2a1.385,1.385,0,0,1-1.047-.689,13.79,13.79,0,0,0-1.892-2.6,1.231,1.231,0,0,1-.3-1.162l.413-1.515a1.5,1.5,0,0,0-.694-1.673l-1.76-1.081a1.749,1.749,0,0,0-1.919.068l-1.324.955a1.462,1.462,0,0,1-1.26.206,15.691,15.691,0,0,0-3.309-.59,1.4,1.4,0,0,1-1.092-.625l-.855-1.345a1.7,1.7,0,0,0-1.757-.724l-2.063.4a1.593,1.593,0,0,0-1.306,1.316l-.214,1.552a1.3,1.3,0,0,1-.737.979,14.863,14.863,0,0,0-2.787,1.768,1.455,1.455,0,0,1-1.244.278l-1.621-.386a1.71,1.71,0,0,0-1.79.649l-1.157,1.645a1.465,1.465,0,0,0,.073,1.793l1.022,1.237a1.224,1.224,0,0,1,.22,1.177,13,13,0,0,0-.631,3.092,1.285,1.285,0,0,1-.669,1.02l-1.439.8a1.509,1.509,0,0,0-.775,1.642l.426,1.928a1.614,1.614,0,0,0,1.409,1.22l1.66.2a1.385,1.385,0,0,1,1.047.689,13.783,13.783,0,0,0,1.891,2.6,1.231,1.231,0,0,1,.3,1.162l-.413,1.515A1.5,1.5,0,0,0,1549.8,124l1.76,1.081a1.749,1.749,0,0,0,1.919-.068l1.324-.955a1.462,1.462,0,0,1,1.26-.206,15.7,15.7,0,0,0,3.309.59,1.4,1.4,0,0,1,1.092.625l.855,1.345a1.7,1.7,0,0,0,1.757.724l2.063-.4a1.592,1.592,0,0,0,1.306-1.316l.214-1.552a1.3,1.3,0,0,1,.737-.979,14.859,14.859,0,0,0,2.787-1.768,1.455,1.455,0,0,1,1.244-.278l1.621.386a1.71,1.71,0,0,0,1.79-.649l1.157-1.645A1.465,1.465,0,0,0,1575.924,117.148Zm-21.1,3.608c-6-2.925-8.334-9.844-5.2-15.455s10.534-7.789,16.538-4.864,8.334,9.844,5.2,15.455S1560.83,123.681,1554.826,120.756Zm11.794-5.616a8.334,8.334,0,0,1-11.188,1.006,7.1,7.1,0,0,1-1.076-10.456,8.334,8.334,0,0,1,11.188-1.006A7.1,7.1,0,0,1,1566.62,115.14Z" transform="translate(-1542.26 -93.557)" fill="#bdd0fb"/>
      <path id="Trazado_6377" data-name="Trazado 6377" d="M1547.273,122.158a1.934,1.934,0,0,1-.715-2.045l.413-1.514a.792.792,0,0,0-.193-.746,14.276,14.276,0,0,1-1.955-2.692.892.892,0,0,0-.673-.445l-1.66-.2a2.1,2.1,0,0,1-1.829-1.585l-.427-1.928a1.96,1.96,0,0,1,1.007-2.133l1.44-.8a.829.829,0,0,0,.429-.657,13.448,13.448,0,0,1,.652-3.2.788.788,0,0,0-.14-.757l-1.022-1.237a1.9,1.9,0,0,1-.095-2.33l1.157-1.645a2.222,2.222,0,0,1,2.326-.843l1.621.386a.938.938,0,0,0,.8-.181,15.393,15.393,0,0,1,2.88-1.827.837.837,0,0,0,.475-.628l.214-1.552a2.071,2.071,0,0,1,1.7-1.71l2.063-.4a2.211,2.211,0,0,1,2.282.941l.855,1.345a.9.9,0,0,0,.7.4,16.254,16.254,0,0,1,3.42.61.942.942,0,0,0,.81-.13l1.324-.955a2.272,2.272,0,0,1,2.492-.088l1.761,1.081a1.952,1.952,0,0,1,.9,2.173l-.413,1.515a.794.794,0,0,0,.194.747,14.31,14.31,0,0,1,1.955,2.692.893.893,0,0,0,.672.445l1.66.2a2.1,2.1,0,0,1,1.83,1.584l.427,1.928a1.961,1.961,0,0,1-1.007,2.133l-1.44.8a.829.829,0,0,0-.429.657,13.456,13.456,0,0,1-.652,3.2.788.788,0,0,0,.14.757l1.022,1.237a1.9,1.9,0,0,1,.094,2.33l-1.157,1.645a2.223,2.223,0,0,1-2.326.843l-1.621-.386a.937.937,0,0,0-.8.181,15.39,15.39,0,0,1-2.88,1.827.837.837,0,0,0-.475.628l-.214,1.552a2.07,2.07,0,0,1-1.7,1.71l-2.063.4a2.211,2.211,0,0,1-2.282-.941l-.855-1.345a.9.9,0,0,0-.7-.4,16.24,16.24,0,0,1-3.42-.609.942.942,0,0,0-.81.13l-1.324.955a2.272,2.272,0,0,1-2.493.088l-1.761-1.081A2.094,2.094,0,0,1,1547.273,122.158Zm-2.05-7.974a1.808,1.808,0,0,1,.475.548,13.376,13.376,0,0,0,1.828,2.518,1.674,1.674,0,0,1,.4,1.578l-.413,1.515a1.052,1.052,0,0,0,.487,1.173l1.761,1.081a1.226,1.226,0,0,0,1.345-.048l1.324-.955a1.988,1.988,0,0,1,1.709-.281,15.183,15.183,0,0,0,3.2.57,1.9,1.9,0,0,1,1.48.85l.855,1.345a1.193,1.193,0,0,0,1.232.508l2.063-.4a1.117,1.117,0,0,0,.915-.923l.214-1.552a1.766,1.766,0,0,1,1-1.329,14.4,14.4,0,0,0,2.694-1.708,1.98,1.98,0,0,1,1.688-.376l1.621.386a1.2,1.2,0,0,0,1.255-.455l1.157-1.645a1.027,1.027,0,0,0-.051-1.257l-1.022-1.237a1.665,1.665,0,0,1-.3-1.6,12.571,12.571,0,0,0,.61-2.989,1.748,1.748,0,0,1,.91-1.383l1.439-.8a1.059,1.059,0,0,0,.543-1.151l-.427-1.928a1.132,1.132,0,0,0-.987-.855l-1.661-.2a1.88,1.88,0,0,1-1.422-.932,13.355,13.355,0,0,0-1.828-2.517,1.675,1.675,0,0,1-.4-1.578l.413-1.515a1.055,1.055,0,0,0-.487-1.173l-1.761-1.081a1.226,1.226,0,0,0-1.345.048l-1.324.955a1.988,1.988,0,0,1-1.709.281,15.185,15.185,0,0,0-3.2-.57,1.9,1.9,0,0,1-1.48-.85l-.855-1.345a1.194,1.194,0,0,0-1.232-.508l-2.063.4a1.117,1.117,0,0,0-.916.923l-.214,1.552a1.767,1.767,0,0,1-1,1.329,14.4,14.4,0,0,0-2.694,1.708,1.98,1.98,0,0,1-1.689.376l-1.621-.386a1.2,1.2,0,0,0-1.255.455l-1.157,1.645a1.027,1.027,0,0,0,.051,1.257l1.022,1.237a1.665,1.665,0,0,1,.3,1.6,12.6,12.6,0,0,0-.61,2.989,1.748,1.748,0,0,1-.91,1.383l-1.439.8a1.058,1.058,0,0,0-.543,1.151l.427,1.928a1.133,1.133,0,0,0,.987.855l1.661.2A1.928,1.928,0,0,1,1545.223,114.184Zm5.082,3.505a11.42,11.42,0,0,1-3.193-14.705,12.5,12.5,0,0,1,7.481-5.86,13.473,13.473,0,0,1,9.724.8,12.083,12.083,0,0,1,6.27,6.991,11.146,11.146,0,0,1-.856,9.087,12.5,12.5,0,0,1-7.482,5.86,13.473,13.473,0,0,1-9.724-.8A12.857,12.857,0,0,1,1550.305,117.689Zm15.622-17.668a11.957,11.957,0,0,0-2.067-1.278,12.426,12.426,0,0,0-8.97-.738,11.526,11.526,0,0,0-6.9,5.406,10.664,10.664,0,0,0,4.995,14.832h0a12.428,12.428,0,0,0,8.97.738,11.526,11.526,0,0,0,6.9-5.406,10.281,10.281,0,0,0,.79-8.383A10.914,10.914,0,0,0,1565.927,100.021ZM1553.046,114.4a7.55,7.55,0,0,1-1.143-11.106,8.864,8.864,0,0,1,11.884-1.068,7.549,7.549,0,0,1,1.143,11.106A8.863,8.863,0,0,1,1553.046,114.4Zm10.112-11.461a7.825,7.825,0,0,0-10.492.943,6.665,6.665,0,0,0,1.009,9.805,7.825,7.825,0,0,0,10.492-.943A6.665,6.665,0,0,0,1563.158,102.938Z" transform="translate(-1540.189 -91.454)" fill="#bdd0fb"/>
    </g>
    <g id="Grupo_23375" data-name="Grupo 23375" transform="translate(0 19.908)">
      <path id="Trazado_6378" data-name="Trazado 6378" d="M1433.766,224.874l-.009-1.091a.886.886,0,0,1,.41-.741,10.11,10.11,0,0,0,1.748-1.469,1,1,0,0,1,.833-.3l1.161.124a1.172,1.172,0,0,0,1.173-.607l.634-1.24a1.028,1.028,0,0,0-.231-1.234l-.833-.766a.867.867,0,0,1-.271-.8,9,9,0,0,0,.126-2.194.877.877,0,0,1,.36-.763l.914-.679a1.036,1.036,0,0,0,.37-1.2l-.49-1.3a1.152,1.152,0,0,0-1.1-.719l-1.167.008a.988.988,0,0,1-.793-.383,9.891,9.891,0,0,0-1.572-1.633.873.873,0,0,1-.324-.778l.133-1.085a1.067,1.067,0,0,0-.649-1.1l-1.326-.593a1.215,1.215,0,0,0-1.32.216l-.82.778a1.009,1.009,0,0,1-.851.253,11.028,11.028,0,0,0-2.348-.118,1,1,0,0,1-.817-.336l-.726-.854a1.205,1.205,0,0,0-1.288-.346l-1.386.458a1.085,1.085,0,0,0-.77,1.025l.009,1.091a.886.886,0,0,1-.41.741,10.1,10.1,0,0,0-1.748,1.469,1,1,0,0,1-.833.3l-1.161-.124a1.172,1.172,0,0,0-1.172.607l-.634,1.24a1.027,1.027,0,0,0,.231,1.234l.833.766a.866.866,0,0,1,.271.8,9,9,0,0,0-.126,2.194.878.878,0,0,1-.36.763l-.914.679a1.037,1.037,0,0,0-.37,1.2l.49,1.3a1.153,1.153,0,0,0,1.1.72l1.167-.008a.987.987,0,0,1,.793.383,9.894,9.894,0,0,0,1.572,1.633.872.872,0,0,1,.324.778l-.133,1.085a1.067,1.067,0,0,0,.649,1.1l1.326.593a1.214,1.214,0,0,0,1.32-.216l.82-.778a1.009,1.009,0,0,1,.852-.253,11.016,11.016,0,0,0,2.348.117,1,1,0,0,1,.816.336l.726.854a1.2,1.2,0,0,0,1.288.346L1433,225.9A1.085,1.085,0,0,0,1433.766,224.874Zm-13.353-6.321a7.778,7.778,0,0,1,4.091-10.642,8.823,8.823,0,0,1,11.387,3.823,7.778,7.778,0,0,1-4.091,10.642A8.823,8.823,0,0,1,1420.413,218.553Z" transform="translate(-1415.724 -203.529)" fill="#bdd0fb"/>
      <path id="Trazado_6379" data-name="Trazado 6379" d="M1420.121,223.931a1.375,1.375,0,0,1-.542-1.256l.133-1.085a.545.545,0,0,0-.2-.485,10.255,10.255,0,0,1-1.628-1.691.617.617,0,0,0-.493-.24l-1.167.008a1.517,1.517,0,0,1-1.443-.946l-.49-1.3a1.364,1.364,0,0,1,.487-1.583l.914-.679a.548.548,0,0,0,.223-.476,9.354,9.354,0,0,1,.13-2.271.541.541,0,0,0-.167-.5l-.832-.766a1.352,1.352,0,0,1-.3-1.623l.634-1.24a1.543,1.543,0,0,1,1.542-.8l1.161.124a.626.626,0,0,0,.519-.19,10.464,10.464,0,0,1,1.809-1.521.554.554,0,0,0,.257-.461l-.009-1.091a1.428,1.428,0,0,1,1.013-1.349l1.387-.458a1.584,1.584,0,0,1,1.694.455l.726.854a.62.62,0,0,0,.51.208,11.416,11.416,0,0,1,2.431.122.631.631,0,0,0,.531-.157l.82-.778a1.6,1.6,0,0,1,1.736-.284l1.327.592a1.4,1.4,0,0,1,.854,1.442l-.132,1.085a.546.546,0,0,0,.2.485,10.263,10.263,0,0,1,1.628,1.691.615.615,0,0,0,.494.24l1.167-.008a1.518,1.518,0,0,1,1.443.946l.49,1.3a1.363,1.363,0,0,1-.487,1.583l-.914.679a.547.547,0,0,0-.223.476,9.332,9.332,0,0,1-.13,2.271.541.541,0,0,0,.167.5l.832.766a1.353,1.353,0,0,1,.3,1.623l-.634,1.24a1.542,1.542,0,0,1-1.542.8l-1.161-.124a.627.627,0,0,0-.519.19,10.469,10.469,0,0,1-1.809,1.521.554.554,0,0,0-.257.461l.009,1.091a1.428,1.428,0,0,1-1.013,1.348l-1.386.458a1.585,1.585,0,0,1-1.694-.455l-.726-.854a.623.623,0,0,0-.51-.208,11.426,11.426,0,0,1-2.43-.122.632.632,0,0,0-.532.157l-.82.778a1.6,1.6,0,0,1-1.736.284l-1.327-.592A1.535,1.535,0,0,1,1420.121,223.931Zm-1.889-5.153a1.285,1.285,0,0,1,.241.242,9.555,9.555,0,0,0,1.517,1.576,1.2,1.2,0,0,1,.444,1.072l-.133,1.085a.729.729,0,0,0,.444.75l1.327.592a.831.831,0,0,0,.9-.148l.82-.778a1.393,1.393,0,0,1,1.172-.35,10.643,10.643,0,0,0,2.265.113,1.374,1.374,0,0,1,1.124.464l.726.854a.827.827,0,0,0,.882.237l1.386-.458a.743.743,0,0,0,.527-.7l-.009-1.091a1.221,1.221,0,0,1,.563-1.021,9.744,9.744,0,0,0,1.686-1.417,1.383,1.383,0,0,1,1.147-.415l1.161.124a.8.8,0,0,0,.8-.415l.634-1.24a.7.7,0,0,0-.158-.845l-.832-.766a1.194,1.194,0,0,1-.374-1.1,8.714,8.714,0,0,0,.121-2.116,1.21,1.21,0,0,1,.5-1.05l.914-.679a.709.709,0,0,0,.254-.824l-.49-1.3a.79.79,0,0,0-.751-.493l-1.167.008a1.362,1.362,0,0,1-1.092-.526,9.557,9.557,0,0,0-1.517-1.575,1.2,1.2,0,0,1-.444-1.072l.133-1.085a.73.73,0,0,0-.445-.75l-1.326-.592a.831.831,0,0,0-.9.148l-.82.778a1.393,1.393,0,0,1-1.172.35,10.626,10.626,0,0,0-2.265-.113,1.373,1.373,0,0,1-1.124-.464l-.726-.854a.825.825,0,0,0-.882-.237l-1.386.458a.743.743,0,0,0-.527.7l.009,1.091a1.222,1.222,0,0,1-.563,1.021,9.763,9.763,0,0,0-1.686,1.417,1.382,1.382,0,0,1-1.147.416l-1.161-.124a.8.8,0,0,0-.8.415l-.634,1.24a.7.7,0,0,0,.158.845l.832.766a1.2,1.2,0,0,1,.374,1.1,8.7,8.7,0,0,0-.121,2.116,1.212,1.212,0,0,1-.5,1.05l-.914.679a.709.709,0,0,0-.253.824l.489,1.3a.79.79,0,0,0,.751.492l1.167-.008A1.382,1.382,0,0,1,1418.233,218.778Zm2.711,1.24a8.389,8.389,0,0,1-2.384-2.869h0a8.118,8.118,0,0,1,4.265-11.094,9.209,9.209,0,0,1,11.872,3.986,8.119,8.119,0,0,1-4.265,11.094A9.437,9.437,0,0,1,1420.943,220.018Zm-1.725-3.159a8.458,8.458,0,0,0,10.9,3.661,7.456,7.456,0,0,0,3.917-10.189,8.458,8.458,0,0,0-10.9-3.661,7.456,7.456,0,0,0-3.917,10.189Z" transform="translate(-1414.2 -201.981)" fill="#bdd0fb"/>
    </g>
  </g>
</svg>
