<svg xmlns="http://www.w3.org/2000/svg" width="80" height="80" viewBox="0 0 80 80">
  <g id="Grupo_128083" data-name="Grupo 128083" transform="translate(-5123.343 6534.314)">
    <path id="Trazado_172597" data-name="Trazado 172597" d="M10,0H70A10,10,0,0,1,80,10V70A10,10,0,0,1,70,80H10A10,10,0,0,1,0,70V10A10,10,0,0,1,10,0Z" transform="translate(5123.343 -6534.314)" fill="#083142"/>
    <g id="lapiz_1_" data-name="lapiz(1)" transform="translate(5125.742 -6521.429)">
      <path id="Trazado_168311" data-name="Trazado 168311" d="M128.133,283.041l3.64-3.64a6.3,6.3,0,0,1-1.371-1.038l-9.974-9.974-3.474,3.474Z" transform="translate(-94.074 -239.963)" fill="#ffb09e"/>
      <path id="Trazado_168312" data-name="Trazado 168312" d="M122.663,274.026l7.243,7.243,1.867-1.867a6.3,6.3,0,0,1-1.371-1.038l-9.974-9.974-3.474,3.474,2.768,2.768.605-.605A1.651,1.651,0,0,1,122.663,274.026Z" transform="translate(-94.074 -239.964)" fill="#f89580"/>
      <path id="Trazado_168313" data-name="Trazado 168313" d="M121.427,277.129a.792.792,0,0,1-.561-.233l-11.178-11.178a.794.794,0,0,1,0-1.123l3.474-3.474a.794.794,0,0,1,1.123,0l9.974,9.973a5.515,5.515,0,0,0,1.2.908.794.794,0,0,1,.172,1.254l-3.64,3.64A.792.792,0,0,1,121.427,277.129Zm-10.055-11.972,10.055,10.055,2.393-2.393a7.082,7.082,0,0,1-.685-.6l-9.412-9.412Z" transform="translate(-87.368 -233.257)"/>
      <path id="Trazado_168314" data-name="Trazado 168314" d="M19.553,300.505l12.73,12.73a1.062,1.062,0,0,0,1.5,0l7.756-7.756a1.062,1.062,0,0,0,0-1.5l-12.73-12.73a1.062,1.062,0,0,0-1.5,0L19.553,299A1.062,1.062,0,0,0,19.553,300.505Z" transform="translate(-6.706 -260.123)" fill="#01d0fb"/>
      <path id="Trazado_168315" data-name="Trazado 168315" d="M21.476,302.427l4.2-4.2a3.375,3.375,0,0,1,4.773,0l9.172,9.172,1.922-1.922a1.062,1.062,0,0,0,0-1.5l-12.73-12.73a1.062,1.062,0,0,0-1.5,0L19.553,299a1.062,1.062,0,0,0,0,1.5Z" transform="translate(-6.706 -260.123)" fill="#01c0fa"/>
      <path id="Trazado_168316" data-name="Trazado 168316" d="M26.328,307.641a1.85,1.85,0,0,1-1.312-.543l-1.6-1.6a.794.794,0,0,1,1.123-1.123l1.6,1.6a.268.268,0,0,0,.379,0l7.756-7.756a.268.268,0,0,0,0-.379l-12.73-12.73a.268.268,0,0,0-.379,0l-7.756,7.756a.268.268,0,0,0,0,.379l8.509,8.509a.794.794,0,0,1-1.123,1.123l-8.509-8.509a1.856,1.856,0,0,1,0-2.625l7.756-7.756a1.858,1.858,0,0,1,2.625,0l12.73,12.73a1.856,1.856,0,0,1,0,2.625L27.64,307.1A1.85,1.85,0,0,1,26.328,307.641Z" transform="translate(0 -253.424)"/>
      <g id="Grupo_113076" data-name="Grupo 113076" transform="translate(24.489 17.708)">
        <path id="Trazado_168317" data-name="Trazado 168317" d="M138.229,167.148l-5.107,5.107a3.34,3.34,0,0,0,0,4.724l10.861,10.861a6.3,6.3,0,0,0,8.908,0l3.015-3.015Z" transform="translate(-132.144 -167.148)" fill="#ffb09e"/>
      </g>
      <g id="Grupo_113077" data-name="Grupo 113077" transform="translate(23.695 16.914)">
        <path id="Trazado_168318" data-name="Trazado 168318" d="M131.523,159.648a.792.792,0,0,1,.561.233l17.677,17.677a.794.794,0,0,1,0,1.123l-3.015,3.015a7.093,7.093,0,0,1-10.031,0l-10.861-10.861a4.134,4.134,0,0,1,0-5.847l5.107-5.107A.792.792,0,0,1,131.523,159.648Zm16.554,18.471-16.554-16.554-4.545,4.545a2.546,2.546,0,0,0,0,3.6l10.861,10.861a5.505,5.505,0,0,0,7.785,0Z" transform="translate(-124.644 -159.648)"/>
      </g>
      <g id="Grupo_113081" data-name="Grupo 113081" transform="translate(18.63 0.013)">
        <g id="Grupo_113080" data-name="Grupo 113080">
          <g id="Grupo_113078" data-name="Grupo 113078" transform="translate(7.839 7.839)">
            <path id="Trazado_168319" data-name="Trazado 168319" d="M156.6,74.06l-5.75,5.75,26.769,26.769,4.34,1.693,3.1-3.1-1.693-4.34Z" transform="translate(-150.846 -74.06)" fill="#ffcebf"/>
          </g>
          <g id="Grupo_113079" data-name="Grupo 113079" transform="translate(7.045 7.045)">
            <path id="Trazado_168320" data-name="Trazado 168320" d="M149.89,66.56a.792.792,0,0,1,.561.233l26.769,26.769a.794.794,0,0,1,.178.273l1.693,4.34a.794.794,0,0,1-.178.85l-3.1,3.1a.794.794,0,0,1-.85.178l-4.34-1.693a.794.794,0,0,1-.273-.178L143.579,73.665a.794.794,0,0,1,0-1.123l5.75-5.75A.792.792,0,0,1,149.89,66.56Zm26.09,28.007-26.09-26.09L145.263,73.1l26.09,26.09,3.7,1.444,2.37-2.37Z" transform="translate(-143.346 -66.56)"/>
          </g>
          <rect id="Rectángulo_45192" data-name="Rectángulo 45192" width="8.131" height="37.857" transform="translate(7.839 13.589) rotate(-45)" fill="#ffd15b"/>
          <path id="Trazado_168321" data-name="Trazado 168321" d="M154.445,79.81l3.951-3.95-1.8-1.8-5.75,5.75,26.769,26.769,1.8-1.8Z" transform="translate(-143.007 -66.221)" fill="#ffc344"/>
          <path id="Rectángulo_45193" data-name="Rectángulo 45193" d="M.794,0H8.925a.794.794,0,0,1,.794.794V38.651a.794.794,0,0,1-.794.794H.794A.794.794,0,0,1,0,38.651V.794A.794.794,0,0,1,.794,0ZM8.131,1.588H1.588V37.857H8.131Z" transform="translate(6.716 13.589) rotate(-45)"/>
          <path id="Trazado_168322" data-name="Trazado 168322" d="M94.675,12.138l-5.75,5.75-4-4a2.178,2.178,0,0,1,0-3.08l2.67-2.67a2.178,2.178,0,0,1,3.08,0Z" transform="translate(-83.494 -6.707)" fill="#fd6930"/>
          <path id="Trazado_168323" data-name="Trazado 168323" d="M88.494,13.887a2.178,2.178,0,0,1,0-3.08l2.425-2.425-.245-.245a2.178,2.178,0,0,0-3.08,0l-2.669,2.67a2.178,2.178,0,0,0,0,3.08l4,4L90.71,16.1Z" transform="translate(-83.494 -6.707)" fill="#ef4424"/>
          <path id="Trazado_168324" data-name="Trazado 168324" d="M82.231,11.989a.794.794,0,0,1-.561-.233l-4-4a2.976,2.976,0,0,1,0-4.2L80.338.882a2.975,2.975,0,0,1,4.2,0l.23.23a.794.794,0,1,1-1.123,1.123l-.23-.23a1.386,1.386,0,0,0-1.957,0L78.792,4.675a1.386,1.386,0,0,0,0,1.957l3.439,3.439,4.627-4.627-.589-.589a.794.794,0,0,1,1.123-1.123l1.15,1.15a.794.794,0,0,1,0,1.123l-5.75,5.75A.794.794,0,0,1,82.231,11.989Z" transform="translate(-76.8 -0.013)"/>
          <path id="Trazado_168325" data-name="Trazado 168325" d="M444.689,371.006l5.089,1.986-1.986-5.089Z" transform="translate(-405.741 -328.955)" fill="#5b5555"/>
          <path id="Trazado_168326" data-name="Trazado 168326" d="M443.072,367.08a.792.792,0,0,1-.288-.054l-5.089-1.986a.794.794,0,0,1-.273-1.3l3.1-3.1a.794.794,0,0,1,1.3.273L443.812,366a.794.794,0,0,1-.74,1.083ZM439.4,364l2.271.886-.886-2.27Z" transform="translate(-399.035 -322.249)"/>
        </g>
        <path id="Línea_233" data-name="Línea 233" d="M20.063,20.857a.792.792,0,0,1-.561-.233L-7.267-6.145a.794.794,0,0,1,0-1.123.794.794,0,0,1,1.123,0L20.625,19.5a.794.794,0,0,1-.561,1.355Z" transform="translate(17.42 17.42)"/>
        <rect id="Rectángulo_45194" data-name="Rectángulo 45194" width="8.131" height="3.405" transform="translate(5.431 11.181) rotate(-45)" fill="#e1d3ce"/>
        <rect id="Rectángulo_45195" data-name="Rectángulo 45195" width="2.545" height="3.405" transform="translate(5.431 11.181) rotate(-45)" fill="#cdbfba"/>
        <path id="Rectángulo_45196" data-name="Rectángulo 45196" d="M.794,0H8.925a.794.794,0,0,1,.794.794V4.2a.794.794,0,0,1-.794.794H.794A.794.794,0,0,1,0,4.2V.794A.794.794,0,0,1,.794,0ZM8.131,1.588H1.588V3.405H8.131Z" transform="translate(4.308 11.181) rotate(-45)"/>
      </g>
      <path id="Trazado_168327" data-name="Trazado 168327" d="M221.84,92.743h0a3.125,3.125,0,0,1,0-4.419l3.688-3.688a3.125,3.125,0,0,1,4.419,0h0a3.125,3.125,0,0,1,0,4.419l-3.688,3.688A3.125,3.125,0,0,1,221.84,92.743Z" transform="translate(-187.036 -74.845)" fill="#ffb09e"/>
      <path id="Trazado_168328" data-name="Trazado 168328" d="M226.294,88.324l3.67-3.67-.017-.018h0a3.125,3.125,0,0,0-4.419,0l-3.688,3.688a3.125,3.125,0,0,0,0,4.419h0a3.125,3.125,0,0,0,4.419,0l.018-.018A3.125,3.125,0,0,1,226.294,88.324Z" transform="translate(-187.036 -74.845)" fill="#f89580"/>
      <path id="Trazado_168329" data-name="Trazado 168329" d="M217.359,87.747a3.919,3.919,0,0,1-2.771-6.69l3.688-3.688a3.919,3.919,0,0,1,5.542,5.542L220.13,86.6A3.893,3.893,0,0,1,217.359,87.747Zm3.688-9.938a2.316,2.316,0,0,0-1.648.683l-3.688,3.688a2.331,2.331,0,0,0,3.3,3.3l3.688-3.688a2.331,2.331,0,0,0-1.648-3.979Z" transform="translate(-180.346 -68.139)"/>
      <path id="Trazado_168330" data-name="Trazado 168330" d="M272.537,125.531h0a3.125,3.125,0,0,1,0-4.419l3.688-3.688a3.125,3.125,0,0,1,4.419,0h0a3.125,3.125,0,0,1,0,4.419l-3.688,3.688A3.125,3.125,0,0,1,272.537,125.531Z" transform="translate(-232.366 -104.162)" fill="#ffb09e"/>
      <path id="Trazado_168331" data-name="Trazado 168331" d="M276.085,125.536a3.125,3.125,0,0,1,0-4.419l3.688-3.688a3.136,3.136,0,0,1,.436-.363,3.125,3.125,0,0,0-3.983.363l-3.688,3.688a3.125,3.125,0,0,0,0,4.419h0a3.125,3.125,0,0,0,3.983.363A3.139,3.139,0,0,1,276.085,125.536Z" transform="translate(-232.366 -104.166)" fill="#f89580"/>
      <path id="Trazado_168332" data-name="Trazado 168332" d="M268.056,120.535a3.919,3.919,0,0,1-2.771-6.69l3.688-3.688a3.919,3.919,0,0,1,5.542,5.542l-3.688,3.688A3.893,3.893,0,0,1,268.056,120.535Zm3.688-9.938a2.316,2.316,0,0,0-1.648.683l-3.688,3.688a2.331,2.331,0,1,0,3.3,3.3l3.688-3.688a2.331,2.331,0,0,0-1.648-3.979Z" transform="translate(-225.676 -97.456)"/>
      <path id="Trazado_168333" data-name="Trazado 168333" d="M314.28,167.274h0a3.125,3.125,0,0,1,0-4.419l3.688-3.688a3.125,3.125,0,0,1,4.419,0h0a3.125,3.125,0,0,1,0,4.419l-3.688,3.688A3.125,3.125,0,0,1,314.28,167.274Z" transform="translate(-269.69 -141.486)" fill="#ffb09e"/>
      <path id="Trazado_168334" data-name="Trazado 168334" d="M317.855,167.278h0a3.125,3.125,0,0,1,0-4.419l3.688-3.688a3.142,3.142,0,0,1,.422-.353,3.125,3.125,0,0,0-4,.353l-3.688,3.688a3.125,3.125,0,0,0,0,4.419h0a3.125,3.125,0,0,0,4,.353A3.132,3.132,0,0,1,317.855,167.278Z" transform="translate(-269.69 -141.49)" fill="#f89580"/>
      <path id="Trazado_168335" data-name="Trazado 168335" d="M309.8,162.278a3.919,3.919,0,0,1-2.771-6.69l3.688-3.688a3.919,3.919,0,0,1,5.542,5.542l-3.688,3.688A3.893,3.893,0,0,1,309.8,162.278Zm3.688-9.938a2.316,2.316,0,0,0-1.648.683l-3.688,3.688a2.331,2.331,0,1,0,3.3,3.3l3.688-3.688a2.331,2.331,0,0,0-1.648-3.979Z" transform="translate(-262.999 -134.78)"/>
      <path id="Trazado_168336" data-name="Trazado 168336" d="M347.069,217.971h0a3.125,3.125,0,0,1,0-4.419l3.688-3.688a3.125,3.125,0,0,1,4.419,0h0a3.125,3.125,0,0,1,0,4.419l-3.688,3.688A3.125,3.125,0,0,1,347.069,217.971Z" transform="translate(-299.008 -186.816)" fill="#ffb09e"/>
      <path id="Trazado_168337" data-name="Trazado 168337" d="M350.455,218.087h0a3.125,3.125,0,0,1,0-4.419l3.688-3.688a3.131,3.131,0,0,1,.6-.471,3.125,3.125,0,0,0-3.988.359l-3.688,3.688a3.125,3.125,0,0,0,0,4.419h0a3.126,3.126,0,0,0,3.817.471A3.134,3.134,0,0,1,350.455,218.087Z" transform="translate(-299.008 -186.82)" fill="#f89580"/>
      <path id="Trazado_168338" data-name="Trazado 168338" d="M342.588,212.975a3.919,3.919,0,0,1-2.771-6.69l3.688-3.688a3.919,3.919,0,0,1,5.542,5.542l-3.688,3.688A3.893,3.893,0,0,1,342.588,212.975Zm3.688-9.938a2.316,2.316,0,0,0-1.648.683l-3.688,3.688a2.331,2.331,0,1,0,3.3,3.3l3.688-3.688a2.331,2.331,0,0,0-1.648-3.979Z" transform="translate(-292.317 -180.11)"/>
      <path id="Trazado_168339" data-name="Trazado 168339" d="M144.514,135.512l-7.921-7.921a5.423,5.423,0,0,0-7.669,0l-4.549,4.549a5.423,5.423,0,0,0,0,7.669l1.944,1.944a5.126,5.126,0,0,0,8.757-3.286q.006-.14.006-.282a6.143,6.143,0,0,0-1.7-4.247l.927-.927,4.576,4.576a3.822,3.822,0,0,0,5.733-.374A1.289,1.289,0,0,0,144.514,135.512Z" transform="translate(-99.289 -112.651)" fill="#ffcebf"/>
      <g id="Grupo_113082" data-name="Grupo 113082" transform="translate(23.499 13.352)">
        <path id="Trazado_168340" data-name="Trazado 168340" d="M124.957,136.05l5.485-5.485a4.1,4.1,0,0,1,5.8,0l7.49,7.49a3.883,3.883,0,0,0,.9-.842,1.289,1.289,0,0,0-.106-1.7l-7.921-7.921a5.423,5.423,0,0,0-7.669,0l-4.549,4.549a5.424,5.424,0,0,0-.874,6.524A5.4,5.4,0,0,1,124.957,136.05Z" transform="translate(-122.795 -126.003)" fill="#ffb09e"/>
      </g>
      <path id="Trazado_168341" data-name="Trazado 168341" d="M123.243,137.356a5.9,5.9,0,0,1-4.19-1.747l-1.944-1.944a6.217,6.217,0,0,1,0-8.792l4.549-4.549a6.217,6.217,0,0,1,8.792,0l7.921,7.921a2.087,2.087,0,0,1,.172,2.749,4.616,4.616,0,0,1-6.922.449l-3.3-3.3a6.928,6.928,0,0,1,.851,3.336q0,.16-.007.318a5.767,5.767,0,0,1-.617,2.375.794.794,0,0,1-1.415-.721,4.19,4.19,0,0,0,.446-1.726q.006-.123.006-.246a5.348,5.348,0,0,0-1.48-3.7.794.794,0,0,1,.014-1.109l.927-.927a.794.794,0,0,1,1.123,0l4.576,4.576a3.028,3.028,0,0,0,4.545-.3.5.5,0,0,0-.04-.653l-7.921-7.921a4.629,4.629,0,0,0-6.546,0L118.232,126a4.629,4.629,0,0,0,0,6.546l1.944,1.944a4.347,4.347,0,0,0,4.589,1.013.794.794,0,1,1,.538,1.494A6.078,6.078,0,0,1,123.243,137.356Z" transform="translate(-92.583 -105.945)"/>
    </g>
  </g>
</svg>
