<svg xmlns="http://www.w3.org/2000/svg" width="80" height="80" viewBox="0 0 80 80">
  <g id="Grupo_128093" data-name="Grupo 128093" transform="translate(-288 -5512.469)">
    <path id="Op_component_1" data-name="Op component 1" d="M40,0A40,40,0,1,1,0,40,40,40,0,0,1,40,0Z" transform="translate(288 5512.469)" fill="#fff"/>
    <path id="Trazado_172618" data-name="Trazado 172618" d="M-6.7-29.859-.031-9.085,6.614-29.859h9.475V0H8.87V-6.973l.7-14.273L2.348,0H-2.41L-9.649-21.267l.7,14.294V0h-7.2V-29.859Z" transform="translate(328.431 5565.901)" fill="#12263f"/>
    <path id="Op_component_1-2" data-name="Op component 1" d="M35.237,0A35.237,35.237,0,1,1,0,35.237,35.237,35.237,0,0,1,35.237,0Z" transform="translate(292.763 5517.233)" fill="none" stroke="#ff6148" stroke-width="1"/>
  </g>
</svg>
