<svg xmlns="http://www.w3.org/2000/svg" xmlns:xlink="http://www.w3.org/1999/xlink" width="101" height="101" viewBox="0 0 101 101">
  <defs>
    <clipPath id="clip-path">
      <path id="path3069" d="M0-682.665H65v65H0Z" transform="translate(0 682.665)"/>
    </clipPath>
  </defs>
  <g id="Grupo_128099" data-name="Grupo 128099" transform="translate(-750 -3831)">
    <circle id="Elipse_1149" data-name="Elipse 1149" cx="50.5" cy="50.5" r="50.5" transform="translate(750 3831)" fill="#24cb9f"/>
    <g id="g3063" transform="translate(768 4532.665)">
      <g id="g3065" transform="translate(0 -682.665)">
        <g id="g3067" clip-path="url(#clip-path)">
          <g id="g3073" transform="translate(7.518 23.664)">
            <path id="path3075" d="M-210.213-155.011l-2.2-3.358a2.449,2.449,0,0,1-.4-1.344v-1.852a9.759,9.759,0,0,0-9.844-9.758,9.787,9.787,0,0,0-9.668,9.417,9.846,9.846,0,0,0,.11,1.846h0v0c.018.118.039.235.062.351l.9,5.142a10.517,10.517,0,0,0,9.381,8.656l4.783.447a3.911,3.911,0,0,0,4.275-3.894V-152.8a.7.7,0,0,1,.565-.687l1.523-.3a.8.8,0,0,0,.516-1.226" transform="translate(232.335 171.323)" fill="#ffdecf"/>
          </g>
          <g id="g3077" transform="translate(11.889 23.803)">
            <path id="path3079" d="M-168.682-153.688l-2.2-3.358a2.45,2.45,0,0,1-.4-1.344v-1.852a9.759,9.759,0,0,0-8.125-9.62,9.728,9.728,0,0,1,3.047,7.081v1.852a2.45,2.45,0,0,0,.4,1.344l2.2,3.358a.8.8,0,0,1-.516,1.226l-1.523.3a.7.7,0,0,0-.565.687v3.442a3.911,3.911,0,0,1-4.275,3.894l-4.783-.447c-.342-.032-.679-.082-1.011-.146a10.5,10.5,0,0,0,6.089,2.685l4.783.447a3.911,3.911,0,0,0,4.275-3.894v-3.442a.7.7,0,0,1,.565-.687l1.523-.3a.8.8,0,0,0,.516-1.227" transform="translate(186.433 169.861)" fill="#fcb19f"/>
          </g>
          <g id="g3081" transform="translate(7.518 20.717)">
            <path id="path3083" d="M-12.5-197.127a10.546,10.546,0,0,1-.236-1.038l-.9-5.142c-.022-.116-.043-.233-.062-.351v0h0a9.835,9.835,0,0,1-.11-1.846,9.787,9.787,0,0,1,9.668-9.417H.211a3.343,3.343,0,0,0,3.026-1.921,1.751,1.751,0,0,1,1.577-1.026h.038a4.184,4.184,0,0,1,4.184,4.184h0a4.08,4.08,0,0,1-4.08,4.08H-1.493a2.988,2.988,0,0,0-2.988,2.988v3.685a1.776,1.776,0,0,1-1.776,1.776H-6.8a.4.4,0,0,1-.4-.4v-2.026h-.839a2.225,2.225,0,0,0-2.225,2.225,3.05,3.05,0,0,0,.291,1.3,3.715,3.715,0,0,1-2.533,2.924Z" transform="translate(13.814 217.871)" fill="#ffd508"/>
          </g>
          <g id="g3085" transform="translate(13.043 20.718)">
            <path id="path3087" d="M-125.253,0a4.17,4.17,0,0,1,.336,1.644A4.08,4.08,0,0,1-129,5.723h-2.748a6.689,6.689,0,0,0-6.689,6.689v1.894a2.244,2.244,0,0,1,.258-.016h.839v2.026a.4.4,0,0,0,.4.4h.541a1.776,1.776,0,0,0,1.776-1.776V11.251a2.988,2.988,0,0,1,2.988-2.988h6.449a4.08,4.08,0,0,0,4.08-4.08A4.183,4.183,0,0,0-125.253,0" transform="translate(138.434)" fill="#ddb907"/>
          </g>
          <g id="g3089" transform="translate(12.186 0.952)">
            <path id="path3091" d="M-189.721,0h-17.571a2.4,2.4,0,0,0-2.395,2.395V12.541a2.4,2.4,0,0,0,2.395,2.395h1.471a.893.893,0,0,1,.893.893v1.626a.521.521,0,0,0,.89.369l2.626-2.626a.893.893,0,0,1,.632-.262h11.059a2.4,2.4,0,0,0,2.394-2.395V2.395A2.4,2.4,0,0,0-189.721,0" transform="translate(209.686)" fill="#dce6eb"/>
          </g>
          <g id="g3093" transform="translate(12.186 0.952)">
            <path id="path3095" d="M-189.72,0H-192.4V10A2.4,2.4,0,0,1-194.8,12.4h-14.887v.144a2.4,2.4,0,0,0,2.395,2.395h1.471a.893.893,0,0,1,.893.893v1.626a.521.521,0,0,0,.89.369l2.626-2.626a.893.893,0,0,1,.632-.262h11.059a2.4,2.4,0,0,0,2.395-2.395V2.395A2.4,2.4,0,0,0-189.72,0" transform="translate(209.685)" fill="#b9c3cd"/>
          </g>
          <g id="g3097" transform="translate(30.368 11.699)">
            <path id="path3099" d="M-190.452,0h-15.864V1.794a2.4,2.4,0,0,1-2.394,2.395h-1.783v8.4a2.4,2.4,0,0,0,2.4,2.4h11.136a.893.893,0,0,1,.632.262l2.626,2.626a.521.521,0,0,0,.89-.369V15.887a.893.893,0,0,1,.893-.893h1.462a2.4,2.4,0,0,0,2.4-2.4V2.4a2.4,2.4,0,0,0-2.4-2.4" transform="translate(210.494 0)" fill="#dce6eb"/>
          </g>
          <g id="g3101" transform="translate(30.368 11.699)">
            <path id="path3103" d="M-190.452,0h-2.674V10.051a2.4,2.4,0,0,1-2.4,2.4h-14.964v.135a2.4,2.4,0,0,0,2.4,2.4h11.136a.893.893,0,0,1,.632.262l2.626,2.626a.521.521,0,0,0,.89-.369V15.887a.893.893,0,0,1,.893-.893h1.462a2.4,2.4,0,0,0,2.4-2.4V2.4a2.4,2.4,0,0,0-2.4-2.4" transform="translate(210.494 0)" fill="#b9c3cd"/>
          </g>
          <g id="g3105" transform="translate(8.508 44.1)">
            <path id="path3107" d="M-89.981-47.312a10.517,10.517,0,0,1-7.99-4.979l-1.479,5.928,8.255,5.6,1.742-6.5Z" transform="translate(99.45 52.291)" fill="#fcb19f"/>
          </g>
          <g id="g3109" transform="translate(0.952 50.027)">
            <path id="path3111" d="M-161.141-12.584-162.287-8.3l-8.255-5.6A7.556,7.556,0,0,0-178.1-6.352V.112h25.025a14.021,14.021,0,0,0-8.067-12.7" transform="translate(178.098 13.908)" fill="#40c1fa"/>
          </g>
          <g id="g3113" transform="translate(0.952 51.352)">
            <path id="path3115" d="M-161.141,0l-.3,1.134a14.022,14.022,0,0,1,2.325,3.9,3.763,3.763,0,0,1-3.514,5.125H-178.1V12.7h25.025A14.021,14.021,0,0,0-161.141,0" transform="translate(178.098)" fill="#0691ce"/>
          </g>
          <g id="g3117" transform="translate(46.494 44.1)">
            <path id="path3119" d="M-5.017-47.312a10.517,10.517,0,0,0,7.99-4.979l1.479,5.928-8.255,5.6-1.742-6.5Z" transform="translate(5.545 52.291)" fill="#fcb19f"/>
          </g>
          <g id="g3121" transform="translate(39.023 50.027)">
            <path id="path3123" d="M-76.657-12.584-75.51-8.3l8.255-5.6A7.556,7.556,0,0,1-59.7-6.352V.112H-84.724a14.021,14.021,0,0,1,8.067-12.7" transform="translate(84.724 13.908)" fill="#72e4a0"/>
          </g>
          <g id="g3125" transform="translate(39.023 50.053)">
            <path id="path3127" d="M-171.619,0a7.525,7.525,0,0,1,1.886,4.992V7.481a3.975,3.975,0,0,1-3.975,3.975H-189.45a14.1,14.1,0,0,0-.23,2.539h25.025V7.531A7.555,7.555,0,0,0-171.619,0" transform="translate(189.68)" fill="#62c389"/>
          </g>
          <g id="g3129" transform="translate(35.228 25.035)">
            <path id="path3131" d="M-211.412-76.46a9.773,9.773,0,0,0-4.781-8.046,2.4,2.4,0,0,1-2.284,1.658h-1.462a.893.893,0,0,0-.893.893v1.626a.521.521,0,0,1-.89.368l-2.626-2.626a.894.894,0,0,0-.632-.262h-3.248a9.724,9.724,0,0,0-2.7,6.73v1.852a2.451,2.451,0,0,1-.4,1.344l-2.2,3.358a.8.8,0,0,0,.516,1.227l1.523.3a.7.7,0,0,1,.565.688v3.442a3.911,3.911,0,0,0,4.275,3.894l4.783-.447a10.517,10.517,0,0,0,9.381-8.656l.9-5.142c.022-.116.043-.233.062-.351v0a9.859,9.859,0,0,0,.109-1.846" transform="translate(233.66 84.506)" fill="#ffdecf"/>
          </g>
          <g id="g3133" transform="translate(38.172 25.035)">
            <path id="path3135" d="M-183.439-76.46a9.773,9.773,0,0,0-4.781-8.046,2.411,2.411,0,0,1-1.338,1.464A9.654,9.654,0,0,1-188.517-79a9.858,9.858,0,0,1-.109,1.846v0c-.018.118-.039.235-.062.351l-.9,5.142A10.517,10.517,0,0,1-198.971-63l-3.773.353a3.913,3.913,0,0,0,4.067,2.634l4.783-.447a10.517,10.517,0,0,0,9.381-8.656l.9-5.142c.022-.116.043-.233.062-.351v0a9.859,9.859,0,0,0,.109-1.846" transform="translate(202.743 84.506)" fill="#fcb19f"/>
          </g>
          <g id="g3137" transform="translate(38.161 25.035)">
            <path id="path3139" d="M-183.537-76.46a9.773,9.773,0,0,0-4.781-8.046,2.4,2.4,0,0,1-2.284,1.658h-1.462a.893.893,0,0,0-.893.893v1.626a.521.521,0,0,1-.89.368l-2.626-2.626a.893.893,0,0,0-.632-.262h-3.248a9.74,9.74,0,0,0-2.5,4.775,4.418,4.418,0,0,0,2.53-.126l2.191-.777a3.1,3.1,0,0,1,4.091,2.4l.61,3.578a.638.638,0,0,0,1.044.378l2.233-1.912h.839a2.225,2.225,0,0,1,2.225,2.225,3.051,3.051,0,0,1-.76,2.019,7.408,7.408,0,0,0,2.118,4.381,10.5,10.5,0,0,0,1.12-3.209l.9-5.142c.022-.116.043-.233.062-.351v0a9.858,9.858,0,0,0,.109-1.846" transform="translate(202.851 84.506)" fill="#909ba6"/>
          </g>
          <g id="g3141" transform="translate(51.357 25.035)">
            <path id="path3143" d="M-12.713,0a2.427,2.427,0,0,1-1.338,1.464,9.708,9.708,0,0,1,.932,5.889c-.051.306.139-.791-.46,2.626a2.223,2.223,0,0,1,2.1,2.218,3.051,3.051,0,0,1-.76,2.019A7.408,7.408,0,0,0-10.125,18.6a10.5,10.5,0,0,0,.934-2.358c.146-.557.107-.4,1.087-5.993A9.757,9.757,0,0,0-12.713,0" transform="translate(14.051)" fill="#5f6c75"/>
          </g>
          <g id="g3145" transform="translate(11.234 0)">
            <path id="path3147" d="M-3.766-107.928a1.475,1.475,0,0,1-.565-.113,1.469,1.469,0,0,1-.91-1.361v-1.626l-1.412.059A3.351,3.351,0,0,1-10-114.316v-1.324a.952.952,0,0,1,.952-.952.952.952,0,0,1,.952.952v1.324a1.444,1.444,0,0,0,1.442,1.442h1.471a1.848,1.848,0,0,1,1.846,1.846v.585l1.89-1.89a1.833,1.833,0,0,1,1.3-.541H10.917a1.444,1.444,0,0,0,1.442-1.442v-10.147a1.444,1.444,0,0,0-1.442-1.442H-6.653A1.444,1.444,0,0,0-8.1-124.462v4.379a.952.952,0,0,1-.952.952.952.952,0,0,1-.952-.952v-4.379a3.351,3.351,0,0,1,3.347-3.347H10.917a3.35,3.35,0,0,1,3.347,3.347v10.147a3.35,3.35,0,0,1-3.347,3.347H-.142l-2.584,2.609A1.469,1.469,0,0,1-3.766-107.928Z" transform="translate(10 127.809)"/>
          </g>
          <g id="g3149" transform="translate(33.594 10.747)">
            <path id="path3151" d="M-36.312-8.1h-2.869a.952.952,0,0,1-.952-.952A.952.952,0,0,1-39.181-10h2.869a.952.952,0,0,1,.952.952A.952.952,0,0,1-36.312-8.1Z" transform="translate(40.133 10)"/>
          </g>
          <g id="g3153" transform="translate(29.416 10.747)">
            <path id="path3155" d="M8.117-34.054a1.469,1.469,0,0,1-1.04-.432L4.45-37.113-6.644-37.1A3.36,3.36,0,0,1-10-40.451v-8.4a.952.952,0,0,1,.952-.952.952.952,0,0,1,.952.952v8.4A1.453,1.453,0,0,0-6.644-39H4.492a1.833,1.833,0,0,1,1.305.541l1.89,1.89v-.585A1.848,1.848,0,0,1,9.533-39h1.462a1.453,1.453,0,0,0,1.452-1.452V-50.637a1.453,1.453,0,0,0-1.452-1.452H2.442a.952.952,0,0,1-.952-.952.952.952,0,0,1,.952-.952h8.552a3.36,3.36,0,0,1,3.356,3.356v10.186A3.36,3.36,0,0,1,10.994-37.1H9.533l.059,1.567a1.469,1.469,0,0,1-.909,1.361A1.476,1.476,0,0,1,8.117-34.054Z" transform="translate(10 53.993)"/>
          </g>
          <g id="g3157" transform="translate(7.556 43.147)">
            <path id="path3159" d="M-16.328,3.434a.952.952,0,0,1-.535-.164l-8.255-5.6a.952.952,0,0,1-.389-1.018l1.479-5.928a.952.952,0,0,1,1.154-.693.952.952,0,0,1,.693,1.154L-23.5-3.537-16.9.942l1.4-5.21a.952.952,0,0,1,1.166-.673.952.952,0,0,1,.673,1.166l-1.743,6.5A.952.952,0,0,1-16,3.374.952.952,0,0,1-16.328,3.434Z" transform="translate(25.535 10.002)"/>
          </g>
          <g id="g3161" transform="translate(0 49.075)">
            <path id="path3163" d="M15.977-129.932H-9.048a.952.952,0,0,1-.952-.952v-1.085a.952.952,0,0,1,.952-.952.952.952,0,0,1,.952.952v.133H14.989a13.146,13.146,0,0,0-6.468-10.348l-.839,3.13a.952.952,0,0,1-.588.646.952.952,0,0,1-.867-.1l-8-5.433a6.613,6.613,0,0,0-6.32,6.6v.936a.952.952,0,0,1-.952.952.952.952,0,0,1-.952-.952v-.936a8.518,8.518,0,0,1,8.509-8.509.952.952,0,0,1,.535.164l7.147,4.852.8-2.986a.952.952,0,0,1,.519-.617.952.952,0,0,1,.806,0,15.04,15.04,0,0,1,8.614,13.558A.952.952,0,0,1,15.977-129.932Z" transform="translate(10 145.857)"/>
          </g>
          <g id="g3165" transform="translate(10.123 34.056)">
            <path id="path3167" d="M-38.16-58.35a4.02,4.02,0,0,1-4.016-4.016A3.181,3.181,0,0,1-39-65.542h.839a.952.952,0,0,1,.952.952.952.952,0,0,1-.952.952H-39a1.274,1.274,0,0,0-1.273,1.273,2.114,2.114,0,0,0,2.111,2.111.952.952,0,0,1,.952.952A.952.952,0,0,1-38.16-58.35Z" transform="translate(42.176 65.542)"/>
          </g>
          <g id="g3169" transform="translate(45.542 43.147)">
            <path id="path3171" d="M-96.769,3.434a.951.951,0,0,1-.332-.06.952.952,0,0,1-.588-.646l-1.743-6.5a.952.952,0,0,1,.673-1.166.952.952,0,0,1,1.166.673l1.4,5.21,6.6-4.478-1.318-5.283a.952.952,0,0,1,.693-1.154.952.952,0,0,1,1.154.693l1.479,5.928a.952.952,0,0,1-.389,1.018l-8.255,5.6A.952.952,0,0,1-96.769,3.434Z" transform="translate(99.464 10.002)"/>
          </g>
          <g id="g3173" transform="translate(38.071 49.075)">
            <path id="path3175" d="M-76.3-23.908A8.518,8.518,0,0,1-67.795-15.4v6.464a.952.952,0,0,1-.952.952H-93.772a.952.952,0,0,1-.952-.952,15.04,15.04,0,0,1,8.614-13.558.952.952,0,0,1,.806,0,.952.952,0,0,1,.519.617l.8,2.986,7.147-4.851A.952.952,0,0,1-76.3-23.908Zm6.6,14.02V-15.4a6.612,6.612,0,0,0-6.32-6.6l-8,5.433a.952.952,0,0,1-.867.1.952.952,0,0,1-.588-.646l-.839-3.13A13.146,13.146,0,0,0-92.784-9.888Z" transform="translate(94.724 23.908)"/>
          </g>
          <g id="g3177" transform="translate(49.909 34.056)">
            <path id="path3179" d="M-9.048-58.35A.952.952,0,0,1-10-59.3a.952.952,0,0,1,.952-.952,2.114,2.114,0,0,0,2.111-2.111,1.274,1.274,0,0,0-1.273-1.273h-.839A.952.952,0,0,1-10-64.59a.952.952,0,0,1,.952-.952h.839a3.181,3.181,0,0,1,3.177,3.177A4.02,4.02,0,0,1-9.048-58.35Z" transform="translate(10 65.542)"/>
          </g>
          <g id="g3181" transform="translate(34.276 24.083)">
            <path id="path3183" d="M-225.238-94.506a.952.952,0,0,1,.488.134,10.681,10.681,0,0,1,5.245,8.831,10.845,10.845,0,0,1-.12,2.024c-.021.133-.044.261-.068.388l-.9,5.127a11.5,11.5,0,0,1-10.23,9.439l-4.783.447a4.866,4.866,0,0,1-5.316-4.842v-3.235l-1.32-.259a1.751,1.751,0,0,1-1.279-1.041,1.751,1.751,0,0,1,.15-1.642l2.2-3.358a1.5,1.5,0,0,0,.245-.822v-1.852a10.663,10.663,0,0,1,2.958-7.387.952.952,0,0,1,.689-.3h3.248a1.834,1.834,0,0,1,1.3.54l1.891,1.891V-91a1.848,1.848,0,0,1,1.846-1.846h1.462a1.448,1.448,0,0,0,1.379-1,.952.952,0,0,1,.571-.6A.952.952,0,0,1-225.238-94.506ZM-236.064-70q.14,0,.281-.013l4.783-.447a9.587,9.587,0,0,0,8.531-7.872l.9-5.142c.023-.121.042-.227.059-.334a8.93,8.93,0,0,0,.1-1.669,8.764,8.764,0,0,0-3.5-6.715,3.347,3.347,0,0,1-2.61,1.246h-1.462l.059,1.567A1.477,1.477,0,0,1-230.4-87.9a1.46,1.46,0,0,1-1.038-.433l-2.626-2.626-2.784.015a8.762,8.762,0,0,0-2.166,5.78v1.852a3.394,3.394,0,0,1-.557,1.866l-2.08,3.171,1.3.256a1.656,1.656,0,0,1,1.334,1.622v3.442A2.959,2.959,0,0,0-236.064-70Z" transform="translate(243.656 94.506)"/>
          </g>
          <g id="g3185" transform="translate(19.36 8.544)">
            <path id="path3187"/>
          </g>
          <g id="g3189" transform="translate(23.366 8.544)">
            <path id="path3191"/>
          </g>
          <g id="g3193" transform="translate(27.371 8.544)">
            <path id="path3195"/>
          </g>
          <g id="g3197" transform="translate(37.585 19.289)">
            <path id="path3199"/>
          </g>
          <g id="g3201" transform="translate(41.591 19.289)">
            <path id="path3203"/>
          </g>
          <g id="g3205" transform="translate(45.596 19.289)">
            <path id="path3207"/>
          </g>
          <g id="g3209" transform="translate(6.566 19.765)">
            <path id="path3211" d="M-21.546-205.222a.952.952,0,0,1-.451-.114.952.952,0,0,1-.465-.58,11.5,11.5,0,0,1-.258-1.133l-.9-5.142c-.022-.112-.045-.241-.065-.371a10.827,10.827,0,0,1-.12-2.026A10.684,10.684,0,0,1-13.2-224.924h4.36A2.4,2.4,0,0,0-6.672-226.3a2.719,2.719,0,0,1,2.439-1.573,5.15,5.15,0,0,1,5.173,5.136A5.038,5.038,0,0,1-4.091-217.7H-10.54a2.038,2.038,0,0,0-2.036,2.036v3.685a2.731,2.731,0,0,1-2.728,2.728h-.541a1.349,1.349,0,0,1-1.347-1.347v-1.069a1.274,1.274,0,0,0-1.159,1.268,2.091,2.091,0,0,0,.2.9.952.952,0,0,1,.078.563,4.643,4.643,0,0,1-3.184,3.675A.952.952,0,0,1-21.546-205.222Zm8.358-17.8a8.782,8.782,0,0,0-8.716,8.5,8.913,8.913,0,0,0,.1,1.667c.017.109.036.214.056.319l.864,4.929a2.743,2.743,0,0,0,.879-1.4,3.982,3.982,0,0,1-.251-1.4,3.181,3.181,0,0,1,3.177-3.177h.839a.952.952,0,0,1,.952.952v1.469a.825.825,0,0,0,.808-.824v-3.685a3.945,3.945,0,0,1,3.94-3.94h6.449a3.131,3.131,0,0,0,3.128-3.128A3.235,3.235,0,0,0-4.2-225.967a.811.811,0,0,0-.754.479,4.314,4.314,0,0,1-3.887,2.468Z" transform="translate(23.813 227.871)"/>
          </g>
          <g id="g3213" transform="translate(52.212 38.299)">
            <path id="path3215" d="M-6.93-3.716A.949.949,0,0,1-7.6-3.995,8.4,8.4,0,0,1-9.994-8.938a.952.952,0,0,1,.835-1.056A.952.952,0,0,1-8.1-9.159,6.483,6.483,0,0,0-6.257-5.341a.952.952,0,0,1,0,1.347A.949.949,0,0,1-6.93-3.716Z" transform="translate(10.001 10.001)"/>
          </g>
          <g id="g3217" transform="translate(37.209 29.432)">
            <path id="path3219" d="M1-12.781a1.586,1.586,0,0,1-.54-.095A1.593,1.593,0,0,1-.567-14.1l-.609-3.578a2.143,2.143,0,0,0-1.03-1.491,2.142,2.142,0,0,0-1.8-.172l-2.191.777a5.362,5.362,0,0,1-3.074.154.952.952,0,0,1-.7-1.151.952.952,0,0,1,1.151-.7,3.462,3.462,0,0,0,1.985-.1l2.191-.777a4.042,4.042,0,0,1,3.4.324A4.043,4.043,0,0,1,.7-18l.517,3.032L3.03-16.521a.952.952,0,0,1,1.343.1.952.952,0,0,1-.1,1.343L2.035-13.163A1.592,1.592,0,0,1,1-12.781Z" transform="translate(10.002 21.374)"/>
          </g>
          <g id="g3221" transform="translate(7.883 28.028)">
            <path id="path3223" d="M5.237-118.616q-.225,0-.45-.021L0-119.084a11.534,11.534,0,0,1-9.97-8.307.952.952,0,0,1,.659-1.175.952.952,0,0,1,1.175.659A9.618,9.618,0,0,0,.18-120.98l4.783.447a2.926,2.926,0,0,0,2.268-.759,2.926,2.926,0,0,0,.966-2.188v-3.442a1.656,1.656,0,0,1,1.334-1.622l1.3-.256-2.08-3.171a3.394,3.394,0,0,1-.557-1.866v-1.852a8.707,8.707,0,0,0-.966-4.008.952.952,0,0,1,.413-1.282.952.952,0,0,1,1.282.413,10.594,10.594,0,0,1,1.176,4.877v1.852a1.5,1.5,0,0,0,.246.822l2.2,3.357a1.751,1.751,0,0,1,.15,1.642,1.751,1.751,0,0,1-1.279,1.041l-1.32.259v3.235a4.874,4.874,0,0,1-1.588,3.6A4.875,4.875,0,0,1,5.237-118.616Z" transform="translate(10.003 141.083)"/>
          </g>
        </g>
      </g>
    </g>
  </g>
</svg>
