<svg xmlns="http://www.w3.org/2000/svg" width="226.364" height="211.458" viewBox="0 0 226.364 211.458">
  <g id="Grupo_115848" data-name="Grupo 115848" transform="translate(-908.628 -4295.729)">
    <g id="Grupo_115516" data-name="Grupo 115516">
      <g id="Grupo_115515" data-name="Grupo 115515">
        <path id="Trazado_169167" data-name="Trazado 169167" d="M911.118,4493.032v13h3a18.209,18.209,0,0,1,0-4.123c.288-1.534,3.548-5.487,3.452-8.881Z" fill="#ebebeb"/>
        <path id="Trazado_169168" data-name="Trazado 169168" d="M935.144,4493.032v13h3a18.209,18.209,0,0,1,0-4.123c.288-1.534,3.548-5.487,3.452-8.881Z" fill="#e0e0e0"/>
        <path id="Trazado_169169" data-name="Trazado 169169" d="M958.658,4493.032v13h-3a18.209,18.209,0,0,0,0-4.123c-.288-1.534-3.548-5.487-3.452-8.881Z" fill="#ebebeb"/>
        <path id="Trazado_169170" data-name="Trazado 169170" d="M979.456,4493.032v13h-3a18.209,18.209,0,0,0,0-4.123c-.287-1.534-3.548-5.487-3.452-8.881Z" fill="#e0e0e0"/>
        <rect id="Rectángulo_45461" data-name="Rectángulo 45461" width="71.956" height="64.618" transform="translate(909.075 4428.834)" fill="#f5f5f5"/>
        <path id="Trazado_169171" data-name="Trazado 169171" d="M961.645,4428.834l.536,64.618H981.03v-64.621Z" fill="#e0e0e0"/>
        <rect id="Rectángulo_45462" data-name="Rectángulo 45462" width="46.198" height="16.442" transform="translate(912.313 4433.588)" fill="#ebebeb"/>
        <rect id="Rectángulo_45463" data-name="Rectángulo 45463" width="46.198" height="16.442" transform="translate(912.313 4453.308)" fill="#ebebeb"/>
        <rect id="Rectángulo_45464" data-name="Rectángulo 45464" width="46.198" height="16.442" transform="translate(912.313 4473.028)" fill="#ebebeb"/>
        <g id="Grupo_115514" data-name="Grupo 115514">
          <g id="Grupo_115509" data-name="Grupo 115509">
            <g id="Grupo_115508" data-name="Grupo 115508">
              <path id="Trazado_169172" data-name="Trazado 169172" d="M930.022,4410.266l-1.993,18.492H953.56l2.117-18.492Z" fill="#e0e0e0"/>
            </g>
          </g>
          <g id="Grupo_115511" data-name="Grupo 115511">
            <g id="Grupo_115510" data-name="Grupo 115510">
              <path id="Trazado_169173" data-name="Trazado 169173" d="M931.072,4411.594l-1.938,16.181h23.041l1.864-16.181Z" fill="#fff"/>
            </g>
          </g>
          <g id="Grupo_115513" data-name="Grupo 115513">
            <g id="Grupo_115512" data-name="Grupo 115512">
              <path id="Trazado_169174" data-name="Trazado 169174" d="M934.949,4414.316l-1.193,10.738H948.3l.746-10.738Z" fill="#ebebeb"/>
            </g>
          </g>
        </g>
        <path id="Trazado_169175" data-name="Trazado 169175" d="M954.766,4418.23l5.274,10.6-6.479-.074,1.206-10.528" fill="#ebebeb"/>
      </g>
      <path id="Trazado_169176" data-name="Trazado 169176" d="M937.1,4442.668a1.69,1.69,0,1,1-1.689-1.689A1.689,1.689,0,0,1,937.1,4442.668Z" fill="#e0e0e0"/>
      <path id="Trazado_169177" data-name="Trazado 169177" d="M937.1,4462.584a1.69,1.69,0,1,1-1.689-1.69A1.69,1.69,0,0,1,937.1,4462.584Z" fill="#e0e0e0"/>
      <path id="Trazado_169178" data-name="Trazado 169178" d="M937.1,4482.5a1.69,1.69,0,1,1-1.689-1.69A1.689,1.689,0,0,1,937.1,4482.5Z" fill="#e0e0e0"/>
    </g>
    <g id="Grupo_115525" data-name="Grupo 115525">
      <g id="Grupo_115518" data-name="Grupo 115518">
        <g id="Grupo_115517" data-name="Grupo 115517">
          <path id="Trazado_169179" data-name="Trazado 169179" d="M958.438,4323.791l-40.8-.4,1.139,53.171,40.795.15Z" fill="#e0e0e0"/>
        </g>
      </g>
      <g id="Grupo_115520" data-name="Grupo 115520">
        <g id="Grupo_115519" data-name="Grupo 115519">
          <path id="Trazado_169180" data-name="Trazado 169180" d="M955.806,4326.163l-35.715-.928,1.033,48.224,35.7.439Z" fill="#fafafa"/>
        </g>
      </g>
      <g id="Grupo_115522" data-name="Grupo 115522">
        <g id="Grupo_115521" data-name="Grupo 115521">
          <path id="Trazado_169181" data-name="Trazado 169181" d="M949.71,4333.366l-23.7-.394.722,33.706,23.677-.507Z" fill="#ebebeb"/>
        </g>
      </g>
      <g id="Grupo_115524" data-name="Grupo 115524">
        <g id="Grupo_115523" data-name="Grupo 115523">
          <path id="Trazado_169182" data-name="Trazado 169182" d="M926.736,4366.678l23.306-17.823-24.028-15.883Z" fill="#f5f5f5"/>
        </g>
      </g>
    </g>
    <g id="Grupo_115534" data-name="Grupo 115534">
      <g id="Grupo_115527" data-name="Grupo 115527">
        <g id="Grupo_115526" data-name="Grupo 115526">
          <path id="Trazado_169183" data-name="Trazado 169183" d="M1134,4296.077l-35.793-.348,1,46.645,35.788.131Z" fill="#e0e0e0"/>
        </g>
      </g>
      <g id="Grupo_115529" data-name="Grupo 115529">
        <g id="Grupo_115528" data-name="Grupo 115528">
          <path id="Trazado_169184" data-name="Trazado 169184" d="M1131.688,4298.158l-31.332-.814.906,42.305,31.323.385Z" fill="#fafafa"/>
        </g>
      </g>
      <g id="Grupo_115531" data-name="Grupo 115531">
        <g id="Grupo_115530" data-name="Grupo 115530">
          <path id="Trazado_169185" data-name="Trazado 169185" d="M1126.34,4304.477l-20.788-.346.634,29.569,20.771-.445Z" fill="#ebebeb"/>
        </g>
      </g>
      <g id="Grupo_115533" data-name="Grupo 115533">
        <g id="Grupo_115532" data-name="Grupo 115532">
          <path id="Trazado_169186" data-name="Trazado 169186" d="M1106.186,4333.7l20.445-15.636-21.079-13.933Z" fill="#f5f5f5"/>
        </g>
      </g>
    </g>
    <g id="Grupo_115541" data-name="Grupo 115541">
      <g id="Grupo_115535" data-name="Grupo 115535">
        <path id="Trazado_169187" data-name="Trazado 169187" d="M1093.9,4471.456c-.152.458,5.188,20.75,5.188,20.75l3.662-.763-5.035-19.987Z" fill="#ebebeb"/>
      </g>
      <g id="Grupo_115536" data-name="Grupo 115536">
        <path id="Trazado_169188" data-name="Trazado 169188" d="M1122.281,4468.557l-7.323,23.649h4.272l7.018-21.971Z" fill="#f5f5f5"/>
      </g>
      <g id="Grupo_115537" data-name="Grupo 115537">
        <path id="Trazado_169189" data-name="Trazado 169189" d="M1128.994,4464.9l-8.392,27.311h4.272l8.086-25.632Z" fill="#ebebeb"/>
      </g>
      <g id="Grupo_115538" data-name="Grupo 115538">
        <path id="Trazado_169190" data-name="Trazado 169190" d="M1096.5,4490.527l4.272,14.8h21.513l3.967-14.8Z" fill="#e0e0e0"/>
      </g>
      <g id="Grupo_115540" data-name="Grupo 115540">
        <g id="Grupo_115539" data-name="Grupo 115539">
          <path id="Trazado_169191" data-name="Trazado 169191" d="M1107.593,4490.528a.775.775,0,0,1-.047-.153l-.114-.452c-.1-.416-.236-1-.413-1.748-.352-1.539-.856-3.741-1.478-6.463l-4.828-21.552.131.1h-3.767l.132-.164c1.909,8.479,3.62,16.075,4.858,21.571.6,2.73,1.089,4.937,1.429,6.481.16.751.285,1.34.374,1.759l.091.458a.67.67,0,0,1,.022.158.81.81,0,0,1-.048-.152l-.116-.453-.422-1.747-1.512-6.463c-1.258-5.491-3-13.08-4.939-21.553l-.038-.164h4.045l.023.1c1.866,8.48,3.537,16.075,4.746,21.571.588,2.73,1.064,4.937,1.4,6.481.156.751.279,1.34.366,1.759l.088.458A.627.627,0,0,1,1107.593,4490.528Z" fill="#e0e0e0"/>
        </g>
      </g>
    </g>
    <g id="Grupo_115543" data-name="Grupo 115543">
      <g id="Grupo_115542" data-name="Grupo 115542">
        <path id="Trazado_169192" data-name="Trazado 169192" d="M1128.615,4505.946c0,.074-49.25.135-109.988.135-60.76,0-110-.061-110-.135s49.239-.135,110-.135C1079.365,4505.811,1128.615,4505.871,1128.615,4505.946Z" fill="#263238"/>
      </g>
    </g>
    <g id="Grupo_115560" data-name="Grupo 115560">
      <g id="Grupo_115545" data-name="Grupo 115545">
        <g id="Grupo_115544" data-name="Grupo 115544">
          <path id="Trazado_169193" data-name="Trazado 169193" d="M1114.454,4364.364a2.035,2.035,0,0,0-.368-.113,2.559,2.559,0,0,0-1.125.016,4.068,4.068,0,0,0-1.635.84,8.679,8.679,0,0,0-1.66,1.934,34.75,34.75,0,0,0-2.874,6.5,95.035,95.035,0,0,0-2.926,9.145l0,.012,0,.007a2.653,2.653,0,0,1-.6.749,1.192,1.192,0,0,1-.943.3,1.742,1.742,0,0,1-.869-.5c-.242-.225-.469-.464-.7-.7a15.886,15.886,0,0,0-1.438-1.4,2.645,2.645,0,0,0-1.817-.743,2.457,2.457,0,0,0-1.667,1.111,4.182,4.182,0,0,0-.574,2.06,20.757,20.757,0,0,0,.6,4.535q.433,2.325.887,4.765.228,1.219.459,2.465c.078.416.155.833.234,1.253a1.625,1.625,0,0,1-.149,1.328.655.655,0,0,1-.692.236,1.756,1.756,0,0,1-.614-.32l-1.052-.788a23.44,23.44,0,0,0-2.2-1.48,8.361,8.361,0,0,0-2.459-1.023,2.885,2.885,0,0,0-1.308.008,1.933,1.933,0,0,0-1.066.716,4.4,4.4,0,0,0-.7,2.592,14.518,14.518,0,0,0,.272,2.812,35.835,35.835,0,0,0,1.581,5.591,7.4,7.4,0,0,1,.453,1.442,1.047,1.047,0,0,1-.192.8.9.9,0,0,1-.15.151.486.486,0,0,1-.2.119.62.62,0,0,1-.451-.1,7.806,7.806,0,0,1-1.2-.955l-1.111-1.03a16.527,16.527,0,0,0-2.36-1.9,4.931,4.931,0,0,0-1.36-.619,1.683,1.683,0,0,0-1.387.172,2.006,2.006,0,0,0-.785,1.2,6.092,6.092,0,0,0-.185,1.518,12.77,12.77,0,0,0,.391,3.1,26.963,26.963,0,0,0,2.252,5.962,45.092,45.092,0,0,0,3.357,5.578,31.92,31.92,0,0,0,2.022,2.609l2.106,2.58.024.03-.124-.048,3.3-.48a30.176,30.176,0,0,0,3.253-.561,44.971,44.971,0,0,0,6.239-1.871,27,27,0,0,0,5.678-2.9,12.79,12.79,0,0,0,2.374-2.031,6.114,6.114,0,0,0,.885-1.248,2.014,2.014,0,0,0,.229-1.418,1.688,1.688,0,0,0-.91-1.06,4.9,4.9,0,0,0-1.424-.457,16.445,16.445,0,0,0-3.025-.181l-1.516.016a7.758,7.758,0,0,1-1.53-.1.62.62,0,0,1-.4-.231.5.5,0,0,1-.069-.223.942.942,0,0,1-.009-.213,1.047,1.047,0,0,1,.4-.721,7.452,7.452,0,0,1,1.306-.763,35.921,35.921,0,0,0,4.931-3.076,14.561,14.561,0,0,0,2.091-1.9,4.386,4.386,0,0,0,1.224-2.39,1.934,1.934,0,0,0-.31-1.246,2.894,2.894,0,0,0-.964-.885,8.357,8.357,0,0,0-2.509-.894,23.317,23.317,0,0,0-2.622-.382l-1.309-.125a1.721,1.721,0,0,1-.669-.178.652.652,0,0,1-.349-.643,1.635,1.635,0,0,1,.786-1.08l1.015-.77,2-1.517,3.861-2.93a20.7,20.7,0,0,0,3.493-2.953,4.178,4.178,0,0,0,.959-1.911,2.458,2.458,0,0,0-.489-1.941,1.788,1.788,0,0,0-.849-.507,4.112,4.112,0,0,0-1-.164,16.1,16.1,0,0,0-2.006.072c-.331.024-.66.048-.991.052a1.752,1.752,0,0,1-.979-.214,1.193,1.193,0,0,1-.495-.857,2.665,2.665,0,0,1,.056-.96l0-.008.005-.011a95.145,95.145,0,0,0,3.977-8.721,35.767,35.767,0,0,0,2.255-6.731,8.751,8.751,0,0,0,.1-2.543,4.117,4.117,0,0,0-.6-1.734,2.486,2.486,0,0,0-.8-.783,1.879,1.879,0,0,0-.346-.168,1.345,1.345,0,0,1,.357.148,2.435,2.435,0,0,1,.829.778,4.126,4.126,0,0,1,.633,1.75,8.77,8.77,0,0,1-.083,2.566,35.483,35.483,0,0,1-2.222,6.765,94.338,94.338,0,0,1-3.953,8.752l.008-.019a2.516,2.516,0,0,0-.049.9,1.024,1.024,0,0,0,.424.74,1.58,1.58,0,0,0,.884.182c.322,0,.648-.029.978-.054a16.164,16.164,0,0,1,2.03-.078,4.283,4.283,0,0,1,1.041.169,1.98,1.98,0,0,1,.933.557,2.636,2.636,0,0,1,.54,2.1,4.361,4.361,0,0,1-.995,2.005,20.909,20.909,0,0,1-3.523,3l-3.852,2.935-1.993,1.519-1.013.771a2.355,2.355,0,0,0-.461.406,1.042,1.042,0,0,0-.239.518.425.425,0,0,0,.236.426,1.527,1.527,0,0,0,.584.149l1.305.122a23.629,23.629,0,0,1,2.649.382,8.577,8.577,0,0,1,2.582.92,3.125,3.125,0,0,1,1.043.958,2.187,2.187,0,0,1,.35,1.394,4.616,4.616,0,0,1-1.281,2.533,14.767,14.767,0,0,1-2.125,1.935,36.086,36.086,0,0,1-4.963,3.1,7.352,7.352,0,0,0-1.255.73.8.8,0,0,0-.311.546.715.715,0,0,0,.008.16c.006.041.021.14.036.131a.443.443,0,0,0,.242.112,7.7,7.7,0,0,0,1.469.091l1.514-.016a16.677,16.677,0,0,1,3.073.182,5.193,5.193,0,0,1,1.5.483,1.953,1.953,0,0,1,1.041,1.229,2.274,2.274,0,0,1-.248,1.6,6.367,6.367,0,0,1-.923,1.306,13.076,13.076,0,0,1-2.42,2.074,27.185,27.185,0,0,1-5.734,2.93,45.239,45.239,0,0,1-6.279,1.885,30.585,30.585,0,0,1-3.265.564l-3.3.48-.076.011-.048-.059-.025-.03-2.108-2.584a32.061,32.061,0,0,1-2.029-2.619,45.249,45.249,0,0,1-3.377-5.614,27.18,27.18,0,0,1-2.272-6.023,13.043,13.043,0,0,1-.4-3.161,6.329,6.329,0,0,1,.2-1.587,2.267,2.267,0,0,1,.892-1.348,1.949,1.949,0,0,1,1.6-.207,5.162,5.162,0,0,1,1.436.652,16.618,16.618,0,0,1,2.4,1.931l1.109,1.03a7.636,7.636,0,0,0,1.149.92.446.446,0,0,0,.254.08c.005.016.082-.045.115-.072a.7.7,0,0,0,.113-.113.8.8,0,0,0,.138-.613,7.4,7.4,0,0,0-.438-1.384,36.091,36.091,0,0,1-1.587-5.633,14.76,14.76,0,0,1-.272-2.86,4.612,4.612,0,0,1,.753-2.736,2.176,2.176,0,0,1,1.194-.8,3.125,3.125,0,0,1,1.416-.01,8.584,8.584,0,0,1,2.53,1.054,23.577,23.577,0,0,1,2.218,1.5l1.048.787a1.517,1.517,0,0,0,.532.284.421.421,0,0,0,.462-.152,1.028,1.028,0,0,0,.175-.543,2.345,2.345,0,0,0-.068-.61q-.116-.63-.231-1.252-.23-1.247-.454-2.464-.448-2.437-.878-4.764a20.918,20.918,0,0,1-.594-4.587,4.371,4.371,0,0,1,.61-2.154,2.638,2.638,0,0,1,1.81-1.192,1.968,1.968,0,0,1,1.065.214,4.341,4.341,0,0,1,.885.574,16.349,16.349,0,0,1,1.451,1.423c.227.241.452.479.687.7a1.583,1.583,0,0,0,.778.461,1.023,1.023,0,0,0,.811-.263,2.514,2.514,0,0,0,.566-.7l-.007.019a94.326,94.326,0,0,1,2.965-9.152,34.458,34.458,0,0,1,2.92-6.508,8.646,8.646,0,0,1,1.692-1.938,4.075,4.075,0,0,1,1.668-.832,2.5,2.5,0,0,1,1.139.006A1.4,1.4,0,0,1,1114.454,4364.364Z" fill="#263238"/>
        </g>
      </g>
      <g id="Grupo_115547" data-name="Grupo 115547">
        <g id="Grupo_115546" data-name="Grupo 115546">
          <path id="Trazado_169194" data-name="Trazado 169194" d="M1111.733,4371.42a.867.867,0,0,1-.052.17l-.179.487-.712,1.865c-.629,1.634-1.53,3.97-2.639,6.851-2.21,5.807-5.254,13.8-8.616,22.635s-6.419,16.845-8.691,22.613c-1.135,2.884-2.064,5.215-2.72,6.819l-.758,1.847-.2.477a.814.814,0,0,1-.078.159.885.885,0,0,1,.052-.169l.179-.488c.169-.442.407-1.067.712-1.864.629-1.634,1.529-3.97,2.639-6.85l8.617-22.64c3.352-8.844,6.417-16.84,8.69-22.609,1.135-2.884,2.064-5.214,2.719-6.819l.759-1.847.2-.477A.938.938,0,0,1,1111.733,4371.42Z" fill="#263238"/>
        </g>
      </g>
      <g id="Grupo_115549" data-name="Grupo 115549">
        <g id="Grupo_115548" data-name="Grupo 115548">
          <path id="Trazado_169195" data-name="Trazado 169195" d="M1112.012,4389.321a8.994,8.994,0,0,1-1.3.77l-3.177,1.768c-1.242.69-2.373,1.305-3.207,1.723a6.862,6.862,0,0,1-1.386.6,10.563,10.563,0,0,1,1.3-.772l3.166-1.791c1.242-.691,2.382-1.291,3.22-1.7A7.8,7.8,0,0,1,1112.012,4389.321Z" fill="#263238"/>
        </g>
      </g>
      <g id="Grupo_115551" data-name="Grupo 115551">
        <g id="Grupo_115550" data-name="Grupo 115550">
          <path id="Trazado_169196" data-name="Trazado 169196" d="M1102.523,4393.873c-.066.033-1.3-2.321-2.754-5.257s-2.58-5.345-2.513-5.378,1.3,2.321,2.755,5.258S1102.59,4393.84,1102.523,4393.873Z" fill="#263238"/>
        </g>
      </g>
      <g id="Grupo_115553" data-name="Grupo 115553">
        <g id="Grupo_115552" data-name="Grupo 115552">
          <path id="Trazado_169197" data-name="Trazado 169197" d="M1097.988,4407.689a7.96,7.96,0,0,1-1.141-1.039c-.672-.674-1.576-1.632-2.514-2.743s-1.738-2.158-2.29-2.934a7.894,7.894,0,0,1-.835-1.3,9.688,9.688,0,0,1,.988,1.182c.59.744,1.406,1.77,2.343,2.875s1.811,2.08,2.447,2.786A9.671,9.671,0,0,1,1097.988,4407.689Z" fill="#263238"/>
        </g>
      </g>
      <g id="Grupo_115555" data-name="Grupo 115555">
        <g id="Grupo_115554" data-name="Grupo 115554">
          <path id="Trazado_169198" data-name="Trazado 169198" d="M1107.477,4405.461a7.437,7.437,0,0,1-1.368.4c-.852.214-2.034.491-3.343.781s-2.5.537-3.36.7a.714.714,0,1,1-.041-.186c.852-.214,2.034-.491,3.343-.781s2.5-.537,3.36-.7A7.374,7.374,0,0,1,1107.477,4405.461Z" fill="#263238"/>
        </g>
      </g>
      <g id="Grupo_115557" data-name="Grupo 115557">
        <g id="Grupo_115556" data-name="Grupo 115556">
          <path id="Trazado_169199" data-name="Trazado 169199" d="M1105.022,4418.167a12.3,12.3,0,0,1-1.763.47c-1.1.257-2.615.593-4.3.949s-3.206.662-4.313.871a12.41,12.41,0,0,1-1.8.284,12.067,12.067,0,0,1,1.763-.471c1.1-.257,2.616-.593,4.3-.949s3.206-.662,4.312-.871A12.078,12.078,0,0,1,1105.022,4418.167Z" fill="#263238"/>
        </g>
      </g>
      <g id="Grupo_115559" data-name="Grupo 115559">
        <g id="Grupo_115558" data-name="Grupo 115558">
          <path id="Trazado_169200" data-name="Trazado 169200" d="M1093.121,4420.6a1.977,1.977,0,0,1-.39-.354c-.238-.239-.573-.6-.981-1.04-.814-.892-1.911-2.15-3.061-3.59s-2.142-2.783-2.833-3.773c-.346-.495-.618-.9-.8-1.185a1.976,1.976,0,0,1-.26-.458,1.948,1.948,0,0,1,.346.4l.868,1.133c.729.96,1.74,2.283,2.89,3.718s2.218,2.71,2.993,3.632A15.591,15.591,0,0,1,1093.121,4420.6Z" fill="#263238"/>
        </g>
      </g>
    </g>
    <g id="Grupo_115580" data-name="Grupo 115580">
      <g id="Grupo_115562" data-name="Grupo 115562">
        <g id="Grupo_115561" data-name="Grupo 115561">
          <path id="Trazado_169201" data-name="Trazado 169201" d="M1087.932,4455.345c-9.007-7.259-10.312-19.675-9.181-30.678.189-1.837.119-3.791,1.106-5.346s3.106-2.519,4.7-1.63c1.323.737,1.809,2.368,2.484,3.736a10.791,10.791,0,0,0,4.034,4.42,4.116,4.116,0,0,0,3.757.6c1.648-.767,1.985-2.948,2.1-4.78q.318-5.121.638-10.242a17.1,17.1,0,0,1,.926-5.4,5.692,5.692,0,0,1,3.832-3.595,3.453,3.453,0,0,1,4.106,2.6,16.842,16.842,0,0,1-.105,2.284,1.931,1.931,0,0,0,1,1.89,2.218,2.218,0,0,0,2.068-.7,24.393,24.393,0,0,0,4.823-6.3,33.889,33.889,0,0,1,4.544-6.53,9.922,9.922,0,0,1,6.967-3.3c2.632.031,5.315,1.841,5.8,4.461s-1.2,5.142-2.98,7.119a40.943,40.943,0,0,1-9.066,7.528,3.378,3.378,0,0,0-1.529,1.433c-.481,1.193.592,2.485,1.77,2.968a21.168,21.168,0,0,0,4.24.775c1.416.266,2.92,1,3.367,2.388.622,1.922-1.078,3.777-2.706,4.956a35.1,35.1,0,0,1-10.772,5.27,11.862,11.862,0,0,0-3.979,1.607,3.4,3.4,0,0,0-1.351,3.807,3.458,3.458,0,0,0,3.652,1.7,24.421,24.421,0,0,0,4.123-1.259c2.582-.777,5.819-.381,7.282,1.9a5.808,5.808,0,0,1,.265,5.166,13.4,13.4,0,0,1-3.086,4.335,35.3,35.3,0,0,1-15.757,9.533c-5.976,1.623-11.422,1.8-17.077-.719" fill="#ff3f25"/>
        </g>
      </g>
      <g id="Grupo_115564" data-name="Grupo 115564" opacity="0.1">
        <g id="Grupo_115563" data-name="Grupo 115563">
          <path id="Trazado_169202" data-name="Trazado 169202" d="M1087.932,4455.345c-9.007-7.259-10.312-19.675-9.181-30.678.189-1.837.119-3.791,1.106-5.346s3.106-2.519,4.7-1.63c1.323.737,1.809,2.368,2.484,3.736a10.791,10.791,0,0,0,4.034,4.42,4.116,4.116,0,0,0,3.757.6c1.648-.767,1.985-2.948,2.1-4.78q.318-5.121.638-10.242a17.1,17.1,0,0,1,.926-5.4,5.692,5.692,0,0,1,3.832-3.595,3.453,3.453,0,0,1,4.106,2.6,16.842,16.842,0,0,1-.105,2.284,1.931,1.931,0,0,0,1,1.89,2.218,2.218,0,0,0,2.068-.7,24.393,24.393,0,0,0,4.823-6.3,33.889,33.889,0,0,1,4.544-6.53,9.922,9.922,0,0,1,6.967-3.3c2.632.031,5.315,1.841,5.8,4.461s-1.2,5.142-2.98,7.119a40.943,40.943,0,0,1-9.066,7.528,3.378,3.378,0,0,0-1.529,1.433c-.481,1.193.592,2.485,1.77,2.968a21.168,21.168,0,0,0,4.24.775c1.416.266,2.92,1,3.367,2.388.622,1.922-1.078,3.777-2.706,4.956a35.1,35.1,0,0,1-10.772,5.27,11.862,11.862,0,0,0-3.979,1.607,3.4,3.4,0,0,0-1.351,3.807,3.458,3.458,0,0,0,3.652,1.7,24.421,24.421,0,0,0,4.123-1.259c2.582-.777,5.819-.381,7.282,1.9a5.808,5.808,0,0,1,.265,5.166,13.4,13.4,0,0,1-3.086,4.335,35.3,35.3,0,0,1-15.757,9.533c-5.976,1.623-11.422,1.8-17.077-.719"/>
        </g>
      </g>
      <g id="Grupo_115567" data-name="Grupo 115567">
        <g id="Grupo_115566" data-name="Grupo 115566">
          <g id="Grupo_115565" data-name="Grupo 115565">
            <path id="Trazado_169203" data-name="Trazado 169203" d="M1087.227,4463.511a80.588,80.588,0,0,1,4.026-14.885,164.5,164.5,0,0,1,7.724-17.216l2.257-4.409c.744-1.445,1.482-2.879,2.29-4.236a82.114,82.114,0,0,1,5.09-7.534c1.736-2.318,3.467-4.454,5.1-6.44s3.2-3.8,4.693-5.4a65.255,65.255,0,0,1,7.6-7.007c.959-.754,1.722-1.315,2.244-1.688l.6-.42a1.438,1.438,0,0,1,.21-.134,1.274,1.274,0,0,1-.19.162l-.577.447c-.508.391-1.258.968-2.2,1.737a68.888,68.888,0,0,0-7.511,7.069c-1.479,1.6-3.026,3.427-4.652,5.416s-3.343,4.131-5.067,6.449a82.661,82.661,0,0,0-5.054,7.515c-.8,1.351-1.532,2.772-2.277,4.222s-1.492,2.919-2.254,4.407a168.6,168.6,0,0,0-7.733,17.171,82,82,0,0,0-4.082,14.814" fill="#263238"/>
          </g>
        </g>
      </g>
      <g id="Grupo_115570" data-name="Grupo 115570">
        <g id="Grupo_115569" data-name="Grupo 115569">
          <g id="Grupo_115568" data-name="Grupo 115568">
            <path id="Trazado_169204" data-name="Trazado 169204" d="M1103.621,4422.758a3.723,3.723,0,0,1-.125-.793c-.062-.513-.126-1.257-.192-2.178-.134-1.84-.232-4.389-.33-7.2s-.231-5.351-.392-7.184c-.079-.917-.149-1.659-.205-2.171a3.745,3.745,0,0,1-.048-.8,3.685,3.685,0,0,1,.178.784c.1.507.2,1.247.311,2.164.223,1.834.4,4.382.493,7.2.089,2.773.17,5.282.231,7.2.033.865.062,1.6.085,2.181A3.694,3.694,0,0,1,1103.621,4422.758Z" fill="#263238"/>
          </g>
        </g>
      </g>
      <g id="Grupo_115573" data-name="Grupo 115573">
        <g id="Grupo_115572" data-name="Grupo 115572">
          <g id="Grupo_115571" data-name="Grupo 115571">
            <path id="Trazado_169205" data-name="Trazado 169205" d="M1127.463,4419.974a5.171,5.171,0,0,1-.947.048c-.608.012-1.487.025-2.573.076-2.172.085-5.168.307-8.463.7s-6.262.881-8.4,1.294c-1.07.2-1.931.383-2.527.507a5.009,5.009,0,0,1-.934.162,5.1,5.1,0,0,1,.9-.292c.588-.163,1.444-.384,2.51-.614,2.13-.475,5.1-1,8.406-1.4a83.344,83.344,0,0,1,8.5-.6c1.09-.02,1.972,0,2.581.032A4.955,4.955,0,0,1,1127.463,4419.974Z" fill="#263238"/>
          </g>
        </g>
      </g>
      <g id="Grupo_115576" data-name="Grupo 115576">
        <g id="Grupo_115575" data-name="Grupo 115575">
          <g id="Grupo_115574" data-name="Grupo 115574">
            <path id="Trazado_169206" data-name="Trazado 169206" d="M1091.572,4448.213a1.193,1.193,0,0,1-.141-.3c-.093-.238-.207-.528-.344-.879-.3-.765-.694-1.883-1.169-3.271-.951-2.774-2.143-6.648-3.4-10.941s-2.415-8.174-3.306-10.964c-.437-1.357-.8-2.473-1.065-3.3l-.285-.9a1.208,1.208,0,0,1-.078-.322,1.277,1.277,0,0,1,.142.3l.344.879c.295.764.694,1.882,1.168,3.27.951,2.774,2.144,6.648,3.4,10.943s2.414,8.172,3.306,10.963c.438,1.356.8,2.473,1.065,3.3l.285.9A1.183,1.183,0,0,1,1091.572,4448.213Z" fill="#263238"/>
          </g>
        </g>
      </g>
      <g id="Grupo_115579" data-name="Grupo 115579">
        <g id="Grupo_115578" data-name="Grupo 115578">
          <g id="Grupo_115577" data-name="Grupo 115577">
            <path id="Trazado_169207" data-name="Trazado 169207" d="M1123.545,4440.277a1.228,1.228,0,0,1-.319.107l-.93.242-3.424.856c-2.891.723-6.873,1.768-11.271,2.928s-8.395,2.17-11.3,2.834c-1.453.332-2.632.589-3.45.75l-.943.179a1.181,1.181,0,0,1-.334.04,1.326,1.326,0,0,1,.32-.107l.929-.242,3.424-.855c2.891-.723,6.873-1.768,11.272-2.929s8.393-2.17,11.3-2.833c1.454-.333,2.632-.589,3.451-.75l.943-.18A1.309,1.309,0,0,1,1123.545,4440.277Z" fill="#263238"/>
          </g>
        </g>
      </g>
    </g>
    <g id="Grupo_115639" data-name="Grupo 115639">
      <g id="Grupo_115581" data-name="Grupo 115581">
        <rect id="Rectángulo_45465" data-name="Rectángulo 45465" width="125.795" height="172.374" transform="translate(964.232 4312.15)" fill="#455a64"/>
      </g>
      <g id="Grupo_115582" data-name="Grupo 115582">
        <path id="Trazado_169208" data-name="Trazado 169208" d="M1085.055,4474.272H974.707V4319.117h110.348v155.155Z" fill="#e0e0e0"/>
      </g>
      <g id="Grupo_115583" data-name="Grupo 115583">
        <path id="Trazado_169209" data-name="Trazado 169209" d="M1083.312,4471.394H973.958V4317.065h109.354v154.329Z" fill="#ebebeb"/>
      </g>
      <g id="Grupo_115587" data-name="Grupo 115587">
        <g id="Grupo_115584" data-name="Grupo 115584">
          <path id="Trazado_169210" data-name="Trazado 169210" d="M1071.561,4459.384l-12.6,10.255H971.917V4317.457h110.348v133.25Z" fill="#fafafa"/>
        </g>
        <g id="Grupo_115586" data-name="Grupo 115586">
          <g id="Grupo_115585" data-name="Grupo 115585">
            <path id="Trazado_169211" data-name="Trazado 169211" d="M1071.561,4459.384s.223-.19.673-.56l2.017-1.649,7.986-6.5-.016.033c-.013-21.888-.042-70.524-.079-133.25l.122.122-109.384.013h-.963l.135-.135c-.011,57.213-.02,109.993-.027,152.183l-.108-.108,87.049.062-.029.01,9.458-7.673q1.578-1.275,2.37-1.915c.528-.424.8-.632.8-.632s-.258.22-.78.651l-2.356,1.933-9.43,7.708-.013.01h-.016l-87.049.062h-.109v-.108c-.007-42.19-.016-94.97-.027-152.183v-.135h1.1l109.384.013h.123v.122c-.037,62.726-.066,111.362-.079,133.25v.021l-.016.013-8.012,6.468-2.031,1.633C1071.793,4459.205,1071.561,4459.384,1071.561,4459.384Z" fill="#263238"/>
          </g>
        </g>
      </g>
      <g id="Grupo_115588" data-name="Grupo 115588">
        <path id="Rectángulo_45466" data-name="Rectángulo 45466" d="M14.757,0H31.008A14.154,14.154,0,0,1,45.162,14.154v1.328a0,0,0,0,1,0,0H0a0,0,0,0,1,0,0v-.725A14.757,14.757,0,0,1,14.757,0Z" transform="translate(1004.549 4306.821)" fill="#ff3f25"/>
      </g>
      <g id="Grupo_115589" data-name="Grupo 115589">
        <path id="Trazado_169212" data-name="Trazado 169212" d="M1015.61,4306.821l-1.651-8.351h26l-1.445,8.351Z" fill="#ff3f25"/>
      </g>
      <g id="Grupo_115599" data-name="Grupo 115599">
        <g id="Grupo_115590" data-name="Grupo 115590">
          <path id="Trazado_169213" data-name="Trazado 169213" d="M1002.049,4360.293H983.458V4341.7h18.591Zm-18.072-.519h17.553v-17.553H983.977Z" fill="#ff3f25"/>
        </g>
        <g id="Grupo_115592" data-name="Grupo 115592">
          <g id="Grupo_115591" data-name="Grupo 115591">
            <path id="Trazado_169214" data-name="Trazado 169214" d="M1067.741,4346.192c0,.074-12.94.135-28.9.135s-28.9-.061-28.9-.135,12.937-.135,28.9-.135S1067.741,4346.117,1067.741,4346.192Z" fill="#263238"/>
          </g>
        </g>
        <g id="Grupo_115594" data-name="Grupo 115594">
          <g id="Grupo_115593" data-name="Grupo 115593">
            <path id="Trazado_169215" data-name="Trazado 169215" d="M1067.741,4350.055c0,.074-12.94.135-28.9.135s-28.9-.061-28.9-.135,12.937-.135,28.9-.135S1067.741,4349.98,1067.741,4350.055Z" fill="#263238"/>
          </g>
        </g>
        <g id="Grupo_115596" data-name="Grupo 115596">
          <g id="Grupo_115595" data-name="Grupo 115595">
            <path id="Trazado_169216" data-name="Trazado 169216" d="M1067.741,4353.918c0,.074-12.94.135-28.9.135s-28.9-.061-28.9-.135,12.937-.135,28.9-.135S1067.741,4353.843,1067.741,4353.918Z" fill="#263238"/>
          </g>
        </g>
        <g id="Grupo_115598" data-name="Grupo 115598">
          <g id="Grupo_115597" data-name="Grupo 115597">
            <path id="Trazado_169217" data-name="Trazado 169217" d="M1067.741,4357.781c0,.074-12.94.135-28.9.135s-28.9-.061-28.9-.135,12.937-.135,28.9-.135S1067.741,4357.706,1067.741,4357.781Z" fill="#263238"/>
          </g>
        </g>
      </g>
      <g id="Grupo_115610" data-name="Grupo 115610">
        <g id="Grupo_115600" data-name="Grupo 115600">
          <path id="Trazado_169218" data-name="Trazado 169218" d="M1002.049,4388.943H983.458v-18.59h18.591Zm-18.072-.518h17.553v-17.553H983.977Z" fill="#ff3f25"/>
        </g>
        <g id="Grupo_115601" data-name="Grupo 115601">
          <path id="Trazado_169219" data-name="Trazado 169219" d="M987.155,4380.031l2.468-2.651,4.113,3.291,9.415-9.141,2.256,2.658-11.853,11.692Z" fill="#ff3f25"/>
        </g>
        <g id="Grupo_115603" data-name="Grupo 115603">
          <g id="Grupo_115602" data-name="Grupo 115602">
            <path id="Trazado_169220" data-name="Trazado 169220" d="M1067.741,4374.843c0,.074-12.94.135-28.9.135s-28.9-.061-28.9-.135,12.937-.136,28.9-.136S1067.741,4374.768,1067.741,4374.843Z" fill="#263238"/>
          </g>
        </g>
        <g id="Grupo_115605" data-name="Grupo 115605">
          <g id="Grupo_115604" data-name="Grupo 115604">
            <path id="Trazado_169221" data-name="Trazado 169221" d="M1067.741,4378.706c0,.074-12.94.135-28.9.135s-28.9-.061-28.9-.135,12.937-.135,28.9-.135S1067.741,4378.631,1067.741,4378.706Z" fill="#263238"/>
          </g>
        </g>
        <g id="Grupo_115607" data-name="Grupo 115607">
          <g id="Grupo_115606" data-name="Grupo 115606">
            <path id="Trazado_169222" data-name="Trazado 169222" d="M1067.741,4382.569c0,.074-12.94.135-28.9.135s-28.9-.061-28.9-.135,12.937-.135,28.9-.135S1067.741,4382.494,1067.741,4382.569Z" fill="#263238"/>
          </g>
        </g>
        <g id="Grupo_115609" data-name="Grupo 115609">
          <g id="Grupo_115608" data-name="Grupo 115608">
            <path id="Trazado_169223" data-name="Trazado 169223" d="M1067.741,4386.432c0,.074-12.94.135-28.9.135s-28.9-.061-28.9-.135,12.937-.135,28.9-.135S1067.741,4386.357,1067.741,4386.432Z" fill="#263238"/>
          </g>
        </g>
      </g>
      <g id="Grupo_115621" data-name="Grupo 115621">
        <g id="Grupo_115611" data-name="Grupo 115611">
          <path id="Trazado_169224" data-name="Trazado 169224" d="M1002.049,4416.669H983.458v-18.591h18.591Zm-18.072-.519h17.553V4398.6H983.977Z" fill="#ff3f25"/>
        </g>
        <g id="Grupo_115612" data-name="Grupo 115612">
          <path id="Trazado_169225" data-name="Trazado 169225" d="M987.155,4407.756l2.468-2.651,4.113,3.291,9.415-9.141,2.256,2.658-11.853,11.692Z" fill="#ff3f25"/>
        </g>
        <g id="Grupo_115614" data-name="Grupo 115614">
          <g id="Grupo_115613" data-name="Grupo 115613">
            <path id="Trazado_169226" data-name="Trazado 169226" d="M1067.741,4402.567c0,.075-12.94.136-28.9.136s-28.9-.061-28.9-.136,12.937-.135,28.9-.135S1067.741,4402.493,1067.741,4402.567Z" fill="#263238"/>
          </g>
        </g>
        <g id="Grupo_115616" data-name="Grupo 115616">
          <g id="Grupo_115615" data-name="Grupo 115615">
            <path id="Trazado_169227" data-name="Trazado 169227" d="M1067.741,4406.431c0,.074-12.94.135-28.9.135s-28.9-.061-28.9-.135,12.937-.135,28.9-.135S1067.741,4406.356,1067.741,4406.431Z" fill="#263238"/>
          </g>
        </g>
        <g id="Grupo_115618" data-name="Grupo 115618">
          <g id="Grupo_115617" data-name="Grupo 115617">
            <path id="Trazado_169228" data-name="Trazado 169228" d="M1067.741,4410.294c0,.074-12.94.135-28.9.135s-28.9-.061-28.9-.135,12.937-.135,28.9-.135S1067.741,4410.219,1067.741,4410.294Z" fill="#263238"/>
          </g>
        </g>
        <g id="Grupo_115620" data-name="Grupo 115620">
          <g id="Grupo_115619" data-name="Grupo 115619">
            <path id="Trazado_169229" data-name="Trazado 169229" d="M1067.741,4414.157c0,.074-12.94.135-28.9.135s-28.9-.061-28.9-.135,12.937-.135,28.9-.135S1067.741,4414.082,1067.741,4414.157Z" fill="#263238"/>
          </g>
        </g>
      </g>
      <g id="Grupo_115632" data-name="Grupo 115632">
        <g id="Grupo_115622" data-name="Grupo 115622">
          <path id="Trazado_169230" data-name="Trazado 169230" d="M1002.049,4443.438H983.458v-18.591h18.591Zm-18.072-.519h17.553v-17.553H983.977Z" fill="#ff3f25"/>
        </g>
        <g id="Grupo_115623" data-name="Grupo 115623">
          <path id="Trazado_169231" data-name="Trazado 169231" d="M987.155,4434.525l2.468-2.65,4.113,3.291,9.415-9.141,2.256,2.658-11.853,11.692Z" fill="#ff3f25"/>
        </g>
        <g id="Grupo_115625" data-name="Grupo 115625">
          <g id="Grupo_115624" data-name="Grupo 115624">
            <path id="Trazado_169232" data-name="Trazado 169232" d="M1067.741,4429.337c0,.074-12.94.135-28.9.135s-28.9-.061-28.9-.135,12.937-.135,28.9-.135S1067.741,4429.262,1067.741,4429.337Z" fill="#263238"/>
          </g>
        </g>
        <g id="Grupo_115627" data-name="Grupo 115627">
          <g id="Grupo_115626" data-name="Grupo 115626">
            <path id="Trazado_169233" data-name="Trazado 169233" d="M1067.741,4433.2c0,.074-12.94.135-28.9.135s-28.9-.061-28.9-.135,12.937-.135,28.9-.135S1067.741,4433.125,1067.741,4433.2Z" fill="#263238"/>
          </g>
        </g>
        <g id="Grupo_115629" data-name="Grupo 115629">
          <g id="Grupo_115628" data-name="Grupo 115628">
            <path id="Trazado_169234" data-name="Trazado 169234" d="M1067.741,4437.063c0,.074-12.94.135-28.9.135s-28.9-.061-28.9-.135,12.937-.135,28.9-.135S1067.741,4436.988,1067.741,4437.063Z" fill="#263238"/>
          </g>
        </g>
        <g id="Grupo_115631" data-name="Grupo 115631">
          <g id="Grupo_115630" data-name="Grupo 115630">
            <path id="Trazado_169235" data-name="Trazado 169235" d="M1067.741,4440.926c0,.074-12.94.135-28.9.135s-28.9-.061-28.9-.135,12.937-.135,28.9-.135S1067.741,4440.851,1067.741,4440.926Z" fill="#263238"/>
          </g>
        </g>
      </g>
      <g id="Grupo_115633" data-name="Grupo 115633">
        <path id="Trazado_169236" data-name="Trazado 169236" d="M1062.426,4444.444l-12.1,25.055h8.638Z" fill="#e0e0e0"/>
      </g>
      <g id="Grupo_115637" data-name="Grupo 115637">
        <g id="Grupo_115634" data-name="Grupo 115634">
          <path id="Trazado_169237" data-name="Trazado 169237" d="M1058.966,4469.64l3.46-25.055,19.838,6.123Z" fill="#fafafa"/>
        </g>
        <g id="Grupo_115636" data-name="Grupo 115636">
          <g id="Grupo_115635" data-name="Grupo 115635">
            <path id="Trazado_169238" data-name="Trazado 169238" d="M1058.966,4469.64l6.671-5.491,16.544-13.544.044.229-7.659-2.361-12.177-3.766.163-.1c-1.037,7.278-1.925,13.512-2.556,17.944-.626,4.308-.949,6.532-1.03,7.094a.99.99,0,0,1,.011-.111l.044-.347q.063-.488.178-1.364c.161-1.217.392-2.967.682-5.165.6-4.467,1.438-10.75,2.419-18.085l.02-.149.144.044,12.182,3.752,7.657,2.366.237.073-.192.156-16.745,13.506-4.889,3.93-1.3,1.045-.334.266C1059,4469.615,1058.964,4469.643,1058.966,4469.64Z" fill="#263238"/>
          </g>
        </g>
      </g>
      <g id="Grupo_115638" data-name="Grupo 115638" opacity="0.3">
        <path id="Trazado_169239" data-name="Trazado 169239" d="M1038.166,4298.47l-1.434,8.351h1.786l1.445-8.351h-2.274"/>
      </g>
    </g>
    <g id="Grupo_115847" data-name="Grupo 115847">
      <g id="Grupo_115654" data-name="Grupo 115654">
        <g id="Grupo_115645" data-name="Grupo 115645">
          <g id="Grupo_115644" data-name="Grupo 115644">
            <g id="Grupo_115643" data-name="Grupo 115643">
              <g id="Grupo_115642" data-name="Grupo 115642">
                <g id="Grupo_115641" data-name="Grupo 115641">
                  <g id="Grupo_115640" data-name="Grupo 115640">
                    <path id="Trazado_169240" data-name="Trazado 169240" d="M962,4386.552h0a4.665,4.665,0,0,0,5.02-4.474c.1-2.54.183-5.108.183-5.108s3.849-.36,4.128-4.17.152-12.6.152-12.6h0a13.275,13.275,0,0,0-13.415.863l.237,13.406v7.213C958.33,4384.1,959.587,4386.367,962,4386.552Z" fill="#ffbf9d"/>
                  </g>
                </g>
              </g>
            </g>
          </g>
        </g>
        <g id="Grupo_115646" data-name="Grupo 115646">
          <path id="Trazado_169241" data-name="Trazado 169241" d="M967.533,4368.15a1.953,1.953,0,0,0-2.6-.568,2.213,2.213,0,0,0-.737,2.768,2.915,2.915,0,0,0,1.868,1.413,1.462,1.462,0,0,1,1.146,1.575,4.885,4.885,0,0,1-1.337,2.653,7.034,7.034,0,0,1-4.41,2.089c-1.622.192-3.481-.146-4.425-1.48a6.06,6.06,0,0,1-.761-3.427q-.087-4.211-.174-8.426a12.035,12.035,0,0,1,.192-3.023,4.055,4.055,0,0,1,1.6-2.5,12.4,12.4,0,0,1,3.155-1,26.181,26.181,0,0,0,3.674-1.933,4.515,4.515,0,0,1,3.987-.387c.89.446,1.486,1.334,2.351,1.826,1.232.7,2.908.541,3.506,2.352a3.071,3.071,0,0,1-.02,1.937,4.477,4.477,0,0,1-6.086,2.393,6.02,6.02,0,0,1-.072,2.665c-.14.421-.19,1.064-.849,1.076" fill="#263238"/>
        </g>
        <g id="Grupo_115647" data-name="Grupo 115647">
          <path id="Trazado_169242" data-name="Trazado 169242" d="M957.021,4360.308a12.936,12.936,0,0,0,1.224-3.826,4.383,4.383,0,0,0-1.2-3.7,3.612,3.612,0,0,0-2.511-.889,4.245,4.245,0,0,0-3.828,3.033,4.572,4.572,0,0,0,1.539,4.686,4.957,4.957,0,0,0,4.935.644" fill="#263238"/>
        </g>
        <g id="Grupo_115649" data-name="Grupo 115649">
          <g id="Grupo_115648" data-name="Grupo 115648">
            <path id="Trazado_169243" data-name="Trazado 169243" d="M957.77,4358.919a1.875,1.875,0,0,1-1.806,1.763c-.018-.077.558-.229,1.055-.725S957.693,4358.9,957.77,4358.919Z" fill="#ff3f25"/>
          </g>
        </g>
        <g id="Grupo_115651" data-name="Grupo 115651">
          <g id="Grupo_115650" data-name="Grupo 115650">
            <path id="Trazado_169244" data-name="Trazado 169244" d="M956.517,4359.85a3.588,3.588,0,0,1-1.035.756,2.98,2.98,0,0,1-1.363.387,1.9,1.9,0,0,1-1.59-.714,2.118,2.118,0,0,1-.282-1.722,3.346,3.346,0,0,1,.641-1.261,3.975,3.975,0,0,1,.9-.909,12.008,12.008,0,0,1-.747,1.021,3.442,3.442,0,0,0-.552,1.2,1.926,1.926,0,0,0,.257,1.509,1.688,1.688,0,0,0,1.371.624,2.99,2.99,0,0,0,1.279-.309C956.091,4360.1,956.491,4359.81,956.517,4359.85Z" fill="#263238"/>
          </g>
        </g>
        <g id="Grupo_115653" data-name="Grupo 115653">
          <g id="Grupo_115652" data-name="Grupo 115652">
            <path id="Trazado_169245" data-name="Trazado 169245" d="M950.042,4364.153a1.663,1.663,0,0,1,.185.422,4.37,4.37,0,0,0,.561,1.085,1.573,1.573,0,0,0,1.492.686,2.048,2.048,0,0,0,1.436-1.445,14.83,14.83,0,0,0,.389-2.213,3.423,3.423,0,0,1,.728-1.745,1.874,1.874,0,0,1,1.109-.633.731.731,0,0,1,.466.04c0,.026-.168-.007-.446.064a1.878,1.878,0,0,0-.984.653,3.366,3.366,0,0,0-.627,1.661,13.277,13.277,0,0,1-.38,2.26,2.266,2.266,0,0,1-1.647,1.6,1.515,1.515,0,0,1-1.033-.2,2.145,2.145,0,0,1-.656-.617,3.746,3.746,0,0,1-.508-1.166A1.409,1.409,0,0,1,950.042,4364.153Z" fill="#263238"/>
          </g>
        </g>
      </g>
      <g id="Grupo_115655" data-name="Grupo 115655">
        <path id="Trazado_169246" data-name="Trazado 169246" d="M948.17,4396.154s-1.942,14.224,0,16.027a4.059,4.059,0,0,0,3.811,1.2l3.7-3.091.727-14.14Z" fill="#ffbf9d"/>
      </g>
      <g id="Grupo_115658" data-name="Grupo 115658">
        <g id="Grupo_115656" data-name="Grupo 115656">
          <path id="Trazado_169247" data-name="Trazado 169247" d="M988.348,4356.226l2.468-2.651,4.113,3.291,9.415-9.141,2.255,2.658-11.853,11.692Z" fill="#ff3f25"/>
        </g>
        <g id="Grupo_115657" data-name="Grupo 115657">
          <path id="Trazado_169248" data-name="Trazado 169248" d="M999.945,4356.947l-3.579,2.3c-.162-1.414-1.242-2.816-1.186-2.106s.007,4.4.007,4.4l-6.384,13.431a6.359,6.359,0,0,1-3.938,3.781l-5.958,1.771,2.329,7.877,8.281-2.746a7.142,7.142,0,0,0,4.539-4.551l5.708-17.39a26.956,26.956,0,0,0,.922-3.426A6.531,6.531,0,0,0,999.945,4356.947Z" fill="#ffbf9d"/>
        </g>
      </g>
      <g id="Grupo_115730" data-name="Grupo 115730">
        <g id="Grupo_115729" data-name="Grupo 115729">
          <g id="Grupo_115665" data-name="Grupo 115665">
            <g id="Grupo_115661" data-name="Grupo 115661">
              <g id="Grupo_115660" data-name="Grupo 115660">
                <g id="Grupo_115659" data-name="Grupo 115659">
                  <path id="Trazado_169249" data-name="Trazado 169249" d="M970.62,4503.837l-.09-3.982-7.461.119.069,5.828.463.022c2.061.081,10.483.269,11.853-.17C976.982,4505.163,970.62,4503.837,970.62,4503.837Z" fill="#ff3f25"/>
                </g>
              </g>
            </g>
            <g id="Grupo_115664" data-name="Grupo 115664" opacity="0.5">
              <g id="Grupo_115663" data-name="Grupo 115663">
                <g id="Grupo_115662" data-name="Grupo 115662">
                  <path id="Trazado_169250" data-name="Trazado 169250" d="M965.842,4505.7a2.59,2.59,0,0,0-.977-1.576,2.515,2.515,0,0,0-1.753-.514l.032,2.085Z" fill="#fff"/>
                </g>
              </g>
            </g>
          </g>
          <g id="Grupo_115668" data-name="Grupo 115668" opacity="0.4">
            <g id="Grupo_115667" data-name="Grupo 115667">
              <g id="Grupo_115666" data-name="Grupo 115666">
                <path id="Trazado_169251" data-name="Trazado 169251" d="M973.73,4504.6s2.232.6,1.961.975-8.79.5-12.553.231l.009-.167,9.938-.068S973.3,4504.621,973.73,4504.6Z" fill="#fff"/>
              </g>
            </g>
          </g>
          <g id="Grupo_115672" data-name="Grupo 115672">
            <g id="Grupo_115671" data-name="Grupo 115671">
              <g id="Grupo_115670" data-name="Grupo 115670">
                <g id="Grupo_115669" data-name="Grupo 115669">
                  <path id="Trazado_169252" data-name="Trazado 169252" d="M963.03,4505.632a.7.7,0,0,0,.129.012l.368.016,1.357.038c1.146.024,2.73.035,4.479.01s3.332-.084,4.477-.141l1.355-.077.368-.027a.692.692,0,0,0,.128-.016.721.721,0,0,0-.129,0l-.369.011-1.356.048c-1.145.041-2.727.089-4.475.114s-3.331.024-4.477.017l-1.357-.009h-.369A.737.737,0,0,0,963.03,4505.632Z" fill="#263238"/>
                </g>
              </g>
            </g>
          </g>
          <g id="Grupo_115676" data-name="Grupo 115676">
            <g id="Grupo_115675" data-name="Grupo 115675">
              <g id="Grupo_115674" data-name="Grupo 115674">
                <g id="Grupo_115673" data-name="Grupo 115673">
                  <path id="Trazado_169253" data-name="Trazado 169253" d="M973.085,4505.683a1.961,1.961,0,0,1,.7-1.178,1.2,1.2,0,0,0-.7,1.178Z" fill="#263238"/>
                </g>
              </g>
            </g>
          </g>
          <g id="Grupo_115680" data-name="Grupo 115680">
            <g id="Grupo_115679" data-name="Grupo 115679">
              <g id="Grupo_115678" data-name="Grupo 115678">
                <g id="Grupo_115677" data-name="Grupo 115677">
                  <path id="Trazado_169254" data-name="Trazado 169254" d="M970.866,4504.6c.022.013.125-.117.231-.29s.175-.324.154-.337-.125.116-.231.289S970.845,4504.587,970.866,4504.6Z" fill="#263238"/>
                </g>
              </g>
            </g>
          </g>
          <g id="Grupo_115684" data-name="Grupo 115684">
            <g id="Grupo_115683" data-name="Grupo 115683">
              <g id="Grupo_115682" data-name="Grupo 115682">
                <g id="Grupo_115681" data-name="Grupo 115681">
                  <path id="Trazado_169255" data-name="Trazado 169255" d="M970.257,4504.289c.017.019.134-.062.26-.179s.216-.228.2-.246-.133.062-.26.18S970.24,4504.271,970.257,4504.289Z" fill="#263238"/>
                </g>
              </g>
            </g>
          </g>
          <g id="Grupo_115688" data-name="Grupo 115688">
            <g id="Grupo_115687" data-name="Grupo 115687">
              <g id="Grupo_115686" data-name="Grupo 115686">
                <g id="Grupo_115685" data-name="Grupo 115685">
                  <path id="Trazado_169256" data-name="Trazado 169256" d="M969.864,4503.591a.867.867,0,0,0,.391.044.2.2,0,1,0-.391-.044Z" fill="#263238"/>
                </g>
              </g>
            </g>
          </g>
          <g id="Grupo_115692" data-name="Grupo 115692">
            <g id="Grupo_115691" data-name="Grupo 115691">
              <g id="Grupo_115690" data-name="Grupo 115690">
                <g id="Grupo_115689" data-name="Grupo 115689">
                  <path id="Trazado_169257" data-name="Trazado 169257" d="M969.726,4503.1a1.1,1.1,0,0,0,.884.052,2.513,2.513,0,0,0-.442-.023A2.273,2.273,0,0,0,969.726,4503.1Z" fill="#263238"/>
                </g>
              </g>
            </g>
          </g>
          <g id="Grupo_115696" data-name="Grupo 115696">
            <g id="Grupo_115695" data-name="Grupo 115695">
              <g id="Grupo_115694" data-name="Grupo 115694">
                <g id="Grupo_115693" data-name="Grupo 115693">
                  <path id="Trazado_169258" data-name="Trazado 169258" d="M971.109,4503.945a1.364,1.364,0,0,0,.48-.011,2.777,2.777,0,0,0,.508-.12,1.411,1.411,0,0,0,.291-.125.256.256,0,0,0,.116-.151.188.188,0,0,0-.075-.19.88.88,0,0,0-1.084.274.842.842,0,0,0-.151.322.28.28,0,0,0-.011.13,1.375,1.375,0,0,1,.212-.413.864.864,0,0,1,.406-.272.742.742,0,0,1,.572.03c.077.055.049.145-.035.2a1.4,1.4,0,0,1-.268.119,3.149,3.149,0,0,1-.492.136C971.292,4503.927,971.109,4503.93,971.109,4503.945Z" fill="#263238"/>
                </g>
              </g>
            </g>
          </g>
          <g id="Grupo_115700" data-name="Grupo 115700">
            <g id="Grupo_115699" data-name="Grupo 115699">
              <g id="Grupo_115698" data-name="Grupo 115698">
                <g id="Grupo_115697" data-name="Grupo 115697">
                  <path id="Trazado_169259" data-name="Trazado 169259" d="M971.234,4503.967a.47.47,0,0,0,.05-.334.778.778,0,0,0-.136-.348.486.486,0,0,0-.4-.239.193.193,0,0,0-.145.224.539.539,0,0,0,.085.213,1.454,1.454,0,0,0,.231.287.692.692,0,0,0,.278.19c.008-.012-.1-.085-.232-.235a1.672,1.672,0,0,1-.2-.284c-.067-.1-.115-.282.005-.306s.244.1.319.2a.791.791,0,0,1,.14.31A1.717,1.717,0,0,1,971.234,4503.967Z" fill="#263238"/>
                </g>
              </g>
            </g>
          </g>
          <g id="Grupo_115704" data-name="Grupo 115704">
            <g id="Grupo_115703" data-name="Grupo 115703">
              <g id="Grupo_115702" data-name="Grupo 115702">
                <g id="Grupo_115701" data-name="Grupo 115701">
                  <path id="Trazado_169260" data-name="Trazado 169260" d="M963.151,4503.588c0,.017.213-.023.551.011a2.334,2.334,0,0,1,1.978,1.528c.119.318.134.533.15.53a.4.4,0,0,0,0-.15,1.939,1.939,0,0,0-.087-.4,2.269,2.269,0,0,0-2.034-1.571,2.042,2.042,0,0,0-.41.017A.449.449,0,0,0,963.151,4503.588Z" fill="#263238"/>
                </g>
              </g>
            </g>
          </g>
          <g id="Grupo_115708" data-name="Grupo 115708">
            <g id="Grupo_115707" data-name="Grupo 115707">
              <g id="Grupo_115706" data-name="Grupo 115706">
                <g id="Grupo_115705" data-name="Grupo 115705">
                  <path id="Trazado_169261" data-name="Trazado 169261" d="M963.877,4500.471a12.86,12.86,0,0,0-.041,1.534,13,13,0,0,0,.049,1.533,26.143,26.143,0,0,0-.008-3.067Z" fill="#263238"/>
                </g>
              </g>
            </g>
          </g>
          <g id="Grupo_115712" data-name="Grupo 115712">
            <g id="Grupo_115711" data-name="Grupo 115711">
              <g id="Grupo_115710" data-name="Grupo 115710">
                <g id="Grupo_115709" data-name="Grupo 115709">
                  <path id="Trazado_169262" data-name="Trazado 169262" d="M966.77,4504.958a4.224,4.224,0,0,0,1.091.091,4.151,4.151,0,0,0,1.09-.1c0-.026-.49.011-1.091.014S966.773,4504.932,966.77,4504.958Z" fill="#263238"/>
                </g>
              </g>
            </g>
          </g>
          <g id="Grupo_115716" data-name="Grupo 115716">
            <g id="Grupo_115715" data-name="Grupo 115715">
              <g id="Grupo_115714" data-name="Grupo 115714">
                <g id="Grupo_115713" data-name="Grupo 115713">
                  <path id="Trazado_169263" data-name="Trazado 169263" d="M965.308,4504.978c-.018.019.041.1.093.214s.08.21.106.208.036-.119-.025-.247S965.323,4504.96,965.308,4504.978Z" fill="#263238"/>
                </g>
              </g>
            </g>
          </g>
          <g id="Grupo_115720" data-name="Grupo 115720">
            <g id="Grupo_115719" data-name="Grupo 115719">
              <g id="Grupo_115718" data-name="Grupo 115718">
                <g id="Grupo_115717" data-name="Grupo 115717">
                  <path id="Trazado_169264" data-name="Trazado 169264" d="M964.746,4504.3c-.017.018.032.1.11.172s.156.125.174.107-.032-.1-.11-.172S964.764,4504.283,964.746,4504.3Z" fill="#263238"/>
                </g>
              </g>
            </g>
          </g>
          <g id="Grupo_115724" data-name="Grupo 115724">
            <g id="Grupo_115723" data-name="Grupo 115723">
              <g id="Grupo_115722" data-name="Grupo 115722">
                <g id="Grupo_115721" data-name="Grupo 115721">
                  <path id="Trazado_169265" data-name="Trazado 169265" d="M963.953,4504c.005.025.1.023.215.059s.19.095.209.077-.045-.119-.182-.163S963.945,4503.977,963.953,4504Z" fill="#263238"/>
                </g>
              </g>
            </g>
          </g>
          <g id="Grupo_115728" data-name="Grupo 115728">
            <g id="Grupo_115727" data-name="Grupo 115727">
              <g id="Grupo_115726" data-name="Grupo 115726">
                <g id="Grupo_115725" data-name="Grupo 115725">
                  <path id="Trazado_169266" data-name="Trazado 169266" d="M963.389,4503.86c-.009.024.035.062.1.085s.12.022.129,0-.035-.061-.1-.084S963.4,4503.837,963.389,4503.86Z" fill="#263238"/>
                </g>
              </g>
            </g>
          </g>
        </g>
      </g>
      <g id="Grupo_115802" data-name="Grupo 115802">
        <g id="Grupo_115801" data-name="Grupo 115801">
          <g id="Grupo_115737" data-name="Grupo 115737">
            <g id="Grupo_115733" data-name="Grupo 115733">
              <g id="Grupo_115732" data-name="Grupo 115732">
                <g id="Grupo_115731" data-name="Grupo 115731">
                  <path id="Trazado_169267" data-name="Trazado 169267" d="M944.291,4502.563l2.529-3.077-5.733-4.775-3.749,4.462.336.319c1.509,1.406,7.772,7.041,9.1,7.6C948.248,4507.718,944.291,4502.563,944.291,4502.563Z" fill="#ff3f25"/>
                </g>
              </g>
            </g>
            <g id="Grupo_115736" data-name="Grupo 115736" opacity="0.5">
              <g id="Grupo_115735" data-name="Grupo 115735">
                <g id="Grupo_115734" data-name="Grupo 115734">
                  <path id="Trazado_169268" data-name="Trazado 169268" d="M939.454,4500.86a2.586,2.586,0,0,0,.287-1.832,2.514,2.514,0,0,0-.993-1.533l-1.336,1.6Z" fill="#fff"/>
                </g>
              </g>
            </g>
          </g>
          <g id="Grupo_115740" data-name="Grupo 115740" opacity="0.4">
            <g id="Grupo_115739" data-name="Grupo 115739">
              <g id="Grupo_115738" data-name="Grupo 115738">
                <path id="Trazado_169269" data-name="Trazado 169269" d="M946.154,4505.167s1.3,1.914.85,2.018-6.991-5.352-9.666-8.012l.116-.12,7.578,6.429S945.808,4504.9,946.154,4505.167Z" fill="#fff"/>
              </g>
            </g>
          </g>
          <g id="Grupo_115744" data-name="Grupo 115744">
            <g id="Grupo_115743" data-name="Grupo 115743">
              <g id="Grupo_115742" data-name="Grupo 115742">
                <g id="Grupo_115741" data-name="Grupo 115741">
                  <path id="Trazado_169270" data-name="Trazado 169270" d="M937.367,4498.974a.716.716,0,0,0,.089.093l.269.253,1,.913c.854.766,2.047,1.807,3.389,2.929s2.58,2.11,3.486,2.813l1.077.825.3.219a.607.607,0,0,0,.107.072.733.733,0,0,0-.1-.086l-.286-.233-1.06-.847c-.894-.716-2.125-1.712-3.467-2.833s-2.541-2.154-3.4-2.906l-1.023-.892-.281-.24A.677.677,0,0,0,937.367,4498.974Z" fill="#263238"/>
                </g>
              </g>
            </g>
          </g>
          <g id="Grupo_115748" data-name="Grupo 115748">
            <g id="Grupo_115747" data-name="Grupo 115747">
              <g id="Grupo_115746" data-name="Grupo 115746">
                <g id="Grupo_115745" data-name="Grupo 115745">
                  <path id="Trazado_169271" data-name="Trazado 169271" d="M944.956,4505.57a3.051,3.051,0,0,1,.609-.335,3.153,3.153,0,0,1,.688-.1,1.205,1.205,0,0,0-1.3.438Z" fill="#263238"/>
                </g>
              </g>
            </g>
          </g>
          <g id="Grupo_115752" data-name="Grupo 115752">
            <g id="Grupo_115751" data-name="Grupo 115751">
              <g id="Grupo_115750" data-name="Grupo 115750">
                <g id="Grupo_115749" data-name="Grupo 115749">
                  <path id="Trazado_169272" data-name="Trazado 169272" d="M943.98,4503.3a.773.773,0,0,0,.364-.069c.194-.062.344-.132.337-.155a.78.78,0,0,0-.364.069C944.123,4503.209,943.973,4503.278,943.98,4503.3Z" fill="#263238"/>
                </g>
              </g>
            </g>
          </g>
          <g id="Grupo_115756" data-name="Grupo 115756">
            <g id="Grupo_115755" data-name="Grupo 115755">
              <g id="Grupo_115754" data-name="Grupo 115754">
                <g id="Grupo_115753" data-name="Grupo 115753">
                  <path id="Trazado_169273" data-name="Trazado 169273" d="M943.721,4502.67c0,.025.142.04.314.033s.312-.031.311-.056-.141-.04-.314-.034S943.72,4502.645,943.721,4502.67Z" fill="#263238"/>
                </g>
              </g>
            </g>
          </g>
          <g id="Grupo_115760" data-name="Grupo 115760">
            <g id="Grupo_115759" data-name="Grupo 115759">
              <g id="Grupo_115758" data-name="Grupo 115758">
                <g id="Grupo_115757" data-name="Grupo 115757">
                  <path id="Trazado_169274" data-name="Trazado 169274" d="M943.879,4501.884c-.017.019.1.148.267.288s.31.237.326.218-.1-.147-.267-.287S943.9,4501.865,943.879,4501.884Z" fill="#263238"/>
                </g>
              </g>
            </g>
          </g>
          <g id="Grupo_115764" data-name="Grupo 115764">
            <g id="Grupo_115763" data-name="Grupo 115763">
              <g id="Grupo_115762" data-name="Grupo 115762">
                <g id="Grupo_115761" data-name="Grupo 115761">
                  <path id="Trazado_169275" data-name="Trazado 169275" d="M944.1,4501.419a1.1,1.1,0,0,0,.636.616c.013-.022-.148-.137-.32-.306S944.118,4501.4,944.1,4501.419Z" fill="#263238"/>
                </g>
              </g>
            </g>
          </g>
          <g id="Grupo_115768" data-name="Grupo 115768">
            <g id="Grupo_115767" data-name="Grupo 115767">
              <g id="Grupo_115766" data-name="Grupo 115766">
                <g id="Grupo_115765" data-name="Grupo 115765">
                  <path id="Trazado_169276" data-name="Trazado 169276" d="M944.592,4502.964a1.356,1.356,0,0,0,.37.305,2.807,2.807,0,0,0,.464.241,1.413,1.413,0,0,0,.3.094.261.261,0,0,0,.187-.038.19.19,0,0,0,.067-.194.879.879,0,0,0-1-.5.852.852,0,0,0-.325.146c-.067.05-.1.087-.092.091a1.357,1.357,0,0,1,.429-.174.863.863,0,0,1,.485.058.744.744,0,0,1,.414.4c.023.092-.058.142-.155.126a1.469,1.469,0,0,1-.281-.084,3.189,3.189,0,0,1-.461-.218C944.742,4503.07,944.6,4502.953,944.592,4502.964Z" fill="#263238"/>
                </g>
              </g>
            </g>
          </g>
          <g id="Grupo_115772" data-name="Grupo 115772">
            <g id="Grupo_115771" data-name="Grupo 115771">
              <g id="Grupo_115770" data-name="Grupo 115770">
                <g id="Grupo_115769" data-name="Grupo 115769">
                  <path id="Trazado_169277" data-name="Trazado 169277" d="M944.672,4503.062c0,.008.134-.04.255-.22a.78.78,0,0,0,.124-.353.479.479,0,0,0-.15-.443.19.19,0,0,0-.255.075.535.535,0,0,0-.075.217,1.455,1.455,0,0,0-.012.367.682.682,0,0,0,.087.325c.014,0-.018-.127-.023-.328a1.679,1.679,0,0,1,.03-.35c.015-.12.1-.288.2-.228a.426.426,0,0,1,.112.358.793.793,0,0,1-.1.327A1.8,1.8,0,0,1,944.672,4503.062Z" fill="#263238"/>
                </g>
              </g>
            </g>
          </g>
          <g id="Grupo_115776" data-name="Grupo 115776">
            <g id="Grupo_115775" data-name="Grupo 115775">
              <g id="Grupo_115774" data-name="Grupo 115774">
                <g id="Grupo_115773" data-name="Grupo 115773">
                  <path id="Trazado_169278" data-name="Trazado 169278" d="M938.791,4497.5c-.009.014.177.121.411.367a2.34,2.34,0,0,1,.5,2.449c-.117.318-.246.49-.232.5a.45.45,0,0,0,.1-.116,2.041,2.041,0,0,0,.2-.361,2.267,2.267,0,0,0-.517-2.516,1.966,1.966,0,0,0-.322-.255A.429.429,0,0,0,938.791,4497.5Z" fill="#263238"/>
                </g>
              </g>
            </g>
          </g>
          <g id="Grupo_115780" data-name="Grupo 115780">
            <g id="Grupo_115779" data-name="Grupo 115779">
              <g id="Grupo_115778" data-name="Grupo 115778">
                <g id="Grupo_115777" data-name="Grupo 115777">
                  <path id="Trazado_169279" data-name="Trazado 169279" d="M941.374,4495.614a26.406,26.406,0,0,0-1.994,2.33,12.77,12.77,0,0,0,1.031-1.135A13.066,13.066,0,0,0,941.374,4495.614Z" fill="#263238"/>
                </g>
              </g>
            </g>
          </g>
          <g id="Grupo_115784" data-name="Grupo 115784">
            <g id="Grupo_115783" data-name="Grupo 115783">
              <g id="Grupo_115782" data-name="Grupo 115782">
                <g id="Grupo_115781" data-name="Grupo 115781">
                  <path id="Trazado_169280" data-name="Trazado 169280" d="M940.641,4500.9a6.137,6.137,0,0,0,1.662,1.413c.015-.022-.379-.311-.836-.7S940.66,4500.884,940.641,4500.9Z" fill="#263238"/>
                </g>
              </g>
            </g>
          </g>
          <g id="Grupo_115788" data-name="Grupo 115788">
            <g id="Grupo_115787" data-name="Grupo 115787">
              <g id="Grupo_115786" data-name="Grupo 115786">
                <g id="Grupo_115785" data-name="Grupo 115785">
                  <path id="Trazado_169281" data-name="Trazado 169281" d="M939.52,4499.964c-.026,0-.036.1-.069.223s-.076.211-.055.226.1-.066.142-.2S939.543,4499.96,939.52,4499.964Z" fill="#263238"/>
                </g>
              </g>
            </g>
          </g>
          <g id="Grupo_115792" data-name="Grupo 115792">
            <g id="Grupo_115791" data-name="Grupo 115791">
              <g id="Grupo_115790" data-name="Grupo 115790">
                <g id="Grupo_115789" data-name="Grupo 115789">
                  <path id="Trazado_169282" data-name="Trazado 169282" d="M939.536,4499.084c-.025,0-.038.093-.029.2s.037.2.062.195.037-.093.028-.2S939.56,4499.082,939.536,4499.084Z" fill="#263238"/>
                </g>
              </g>
            </g>
          </g>
          <g id="Grupo_115796" data-name="Grupo 115796">
            <g id="Grupo_115795" data-name="Grupo 115795">
              <g id="Grupo_115794" data-name="Grupo 115794">
                <g id="Grupo_115793" data-name="Grupo 115793">
                  <path id="Trazado_169283" data-name="Trazado 169283" d="M939.131,4498.338c-.013.023.064.086.124.186s.082.2.108.2.044-.12-.031-.242S939.14,4498.316,939.131,4498.338Z" fill="#263238"/>
                </g>
              </g>
            </g>
          </g>
          <g id="Grupo_115800" data-name="Grupo 115800">
            <g id="Grupo_115799" data-name="Grupo 115799">
              <g id="Grupo_115798" data-name="Grupo 115798">
                <g id="Grupo_115797" data-name="Grupo 115797">
                  <path id="Trazado_169284" data-name="Trazado 169284" d="M938.794,4497.865c-.022.012-.013.069.019.127s.076.1.1.084.013-.069-.019-.127S938.816,4497.853,938.794,4497.865Z" fill="#263238"/>
                </g>
              </g>
            </g>
          </g>
        </g>
      </g>
      <g id="Grupo_115815" data-name="Grupo 115815">
        <g id="Grupo_115803" data-name="Grupo 115803">
          <path id="Trazado_169285" data-name="Trazado 169285" d="M959.818,4419.213s-2.484,10.511-1.782,12.591,5.254,3.281,5.254,3.281l-.153,28.782-25.171,31.114,9.295,7.6s27.249-31.171,29.651-36.816-1.531-47.021-1.531-47.021Z" fill="#263238"/>
        </g>
        <g id="Grupo_115804" data-name="Grupo 115804">
          <path id="Trazado_169286" data-name="Trazado 169286" d="M972.674,4414.928l1.232,87.419-12.8.065-6.426-71.2h0c-1.359-1.3-3.27-3.518-3.006-8.469l.312-5.754Z" fill="#263238"/>
        </g>
        <g id="Grupo_115806" data-name="Grupo 115806">
          <g id="Grupo_115805" data-name="Grupo 115805">
            <path id="Trazado_169287" data-name="Trazado 169287" d="M959.172,4468.734a.577.577,0,0,1,.074-.13l.243-.358.952-1.347,3.474-4.809-.021.066c-.279-3.034-.617-6.714-.982-10.681-.465-5.2-.841-9.91-1.063-13.324-.113-1.707-.187-3.089-.228-4.045-.016-.457-.028-.823-.038-1.1a2.177,2.177,0,0,1,.005-.385,2.036,2.036,0,0,1,.05.382c.022.277.051.642.088,1.1.076.983.183,2.355.314,4.037.27,3.409.677,8.115,1.141,13.314.349,3.981.7,7.655.935,10.7l0,.034-.024.033c-1.464,1.96-2.681,3.588-3.55,4.753l-1,1.31-.269.34C959.211,4468.7,959.177,4468.737,959.172,4468.734Z" fill="#455a64"/>
          </g>
        </g>
        <g id="Grupo_115808" data-name="Grupo 115808">
          <g id="Grupo_115807" data-name="Grupo 115807">
            <path id="Trazado_169288" data-name="Trazado 169288" d="M963.1,4432.62a28.888,28.888,0,0,1-6.7-1.406,88.176,88.176,0,0,1,6.7,1.406Z" fill="#455a64"/>
          </g>
        </g>
        <g id="Grupo_115810" data-name="Grupo 115810">
          <g id="Grupo_115809" data-name="Grupo 115809">
            <path id="Trazado_169289" data-name="Trazado 169289" d="M971.873,4462.467a10.216,10.216,0,0,0-7.015-.556,2.91,2.91,0,0,1,1-.391,7.864,7.864,0,0,1,5.093.4A2.9,2.9,0,0,1,971.873,4462.467Z" fill="#455a64"/>
          </g>
        </g>
        <g id="Grupo_115812" data-name="Grupo 115812">
          <g id="Grupo_115811" data-name="Grupo 115811">
            <path id="Trazado_169290" data-name="Trazado 169290" d="M976.39,4466.518c.059.045-3.543,4.88-8.044,10.8s-8.2,10.679-8.26,10.634,3.542-4.879,8.045-10.8S976.33,4466.473,976.39,4466.518Z" fill="#455a64"/>
          </g>
        </g>
        <g id="Grupo_115814" data-name="Grupo 115814">
          <g id="Grupo_115813" data-name="Grupo 115813">
            <path id="Trazado_169291" data-name="Trazado 169291" d="M974.655,4421.422a2.135,2.135,0,0,1-.72.951,3.566,3.566,0,0,1-5.219-.551,2.143,2.143,0,0,1-.507-1.08c.046-.02.189.419.655.96a3.558,3.558,0,0,0,4.951.522A10.961,10.961,0,0,0,974.655,4421.422Z" fill="#455a64"/>
          </g>
        </g>
      </g>
      <g id="Grupo_115816" data-name="Grupo 115816">
        <path id="Trazado_169292" data-name="Trazado 169292" d="M957.159,4376.443a11.168,11.168,0,0,1-.606-15.574" fill="#263238"/>
      </g>
      <g id="Grupo_115846" data-name="Grupo 115846">
        <g id="Grupo_115827" data-name="Grupo 115827">
          <g id="Grupo_115817" data-name="Grupo 115817">
            <path id="Trazado_169293" data-name="Trazado 169293" d="M949.968,4384.6s-2.782,3.142-3.358,15.162c0,0,7.922,1.5,8.067,1.071S949.968,4384.6,949.968,4384.6Z" fill="#ff3f25"/>
          </g>
          <g id="Grupo_115818" data-name="Grupo 115818" opacity="0.3">
            <path id="Trazado_169294" data-name="Trazado 169294" d="M949.968,4384.6s-2.782,3.142-3.358,15.162c0,0,7.922,1.5,8.067,1.071S949.968,4384.6,949.968,4384.6Z"/>
          </g>
          <g id="Grupo_115824" data-name="Grupo 115824">
            <g id="Grupo_115823" data-name="Grupo 115823">
              <g id="Grupo_115822" data-name="Grupo 115822">
                <g id="Grupo_115819" data-name="Grupo 115819">
                  <path id="Trazado_169295" data-name="Trazado 169295" d="M952.208,4399.76" fill="#455a64"/>
                </g>
                <g id="Grupo_115820" data-name="Grupo 115820">
                  <path id="Trazado_169296" data-name="Trazado 169296" d="M951.251,4419.6h24.322l-.393-3.8s-2.779-14.455-2.759-14.645l.438-.921a9.172,9.172,0,0,0,.107-7.649h0l11.909-4.072-2.915-9.827c-5.405.912-13.574,1.93-13.574,1.93l-1.216.1s-8.432.44-8.612.462c-3.528.426-7.632.7-9.132,4.472-.8,2.019-.04,5.049,1.269,8.173l3.118,9.595c1.245,5.274-.742,5.023-1.832,10.331C951.816,4414.558,951.235,4418.867,951.251,4419.6Z" fill="#ff3f25"/>
                </g>
                <g id="Grupo_115821" data-name="Grupo 115821" opacity="0.3">
                  <path id="Trazado_169297" data-name="Trazado 169297" d="M951.251,4419.6h24.322l-.393-3.8s-2.779-14.455-2.759-14.645l.438-.921a9.172,9.172,0,0,0,.107-7.649h0l11.909-4.072-2.915-9.827c-5.405.912-13.574,1.93-13.574,1.93l-1.216.1s-8.432.44-8.612.462c-3.528.426-7.632.7-9.132,4.472-.8,2.019-.04,5.049,1.269,8.173l3.118,9.595c1.245,5.274-.742,5.023-1.832,10.331C951.816,4414.558,951.235,4418.867,951.251,4419.6Z"/>
                </g>
              </g>
            </g>
          </g>
          <g id="Grupo_115826" data-name="Grupo 115826">
            <g id="Grupo_115825" data-name="Grupo 115825">
              <path id="Trazado_169298" data-name="Trazado 169298" d="M984.764,4388.676a2.336,2.336,0,0,1-.529.222c-.345.126-.848.3-1.471.51-1.245.421-2.974.978-4.883,1.589s-3.616,1.217-4.828,1.718c-.608.245-1.091.464-1.429.608a.288.288,0,1,1-.047-.094c.325-.174.8-.42,1.4-.69a46.068,46.068,0,0,1,4.82-1.8c1.912-.612,3.648-1.139,4.909-1.514.63-.186,1.141-.333,1.5-.428A2.4,2.4,0,0,1,984.764,4388.676Z" fill="#263238"/>
            </g>
          </g>
        </g>
        <g id="Grupo_115829" data-name="Grupo 115829">
          <g id="Grupo_115828" data-name="Grupo 115828">
            <path id="Trazado_169299" data-name="Trazado 169299" d="M983.35,4383.444c0,.075-7.191.135-16.059.135s-16.062-.06-16.062-.135,7.19-.135,16.062-.135S983.35,4383.369,983.35,4383.444Z" fill="#fafafa"/>
          </g>
        </g>
        <g id="Grupo_115831" data-name="Grupo 115831">
          <g id="Grupo_115830" data-name="Grupo 115830">
            <path id="Trazado_169300" data-name="Trazado 169300" d="M984.091,4388.221c0,.075-8,.135-17.871.135s-17.873-.06-17.873-.135,8-.135,17.873-.135S984.091,4388.146,984.091,4388.221Z" fill="#fafafa"/>
          </g>
        </g>
        <g id="Grupo_115833" data-name="Grupo 115833">
          <g id="Grupo_115832" data-name="Grupo 115832">
            <path id="Trazado_169301" data-name="Trazado 169301" d="M950.337,4393.657a8.3,8.3,0,0,1-2.979,0,8.269,8.269,0,0,1,2.979,0Z" fill="#fafafa"/>
          </g>
        </g>
        <g id="Grupo_115835" data-name="Grupo 115835">
          <g id="Grupo_115834" data-name="Grupo 115834">
            <path id="Trazado_169302" data-name="Trazado 169302" d="M973.714,4393.822c0,.074-5.234.135-11.688.135s-11.689-.061-11.689-.135,5.233-.136,11.689-.136S973.714,4393.747,973.714,4393.822Z" fill="#fafafa"/>
          </g>
        </g>
        <g id="Grupo_115837" data-name="Grupo 115837">
          <g id="Grupo_115836" data-name="Grupo 115836">
            <path id="Trazado_169303" data-name="Trazado 169303" d="M973.2,4399.422c0,.075-4.7.135-10.49.135s-10.491-.06-10.491-.135,4.7-.135,10.491-.135S973.2,4399.348,973.2,4399.422Z" fill="#fafafa"/>
          </g>
        </g>
        <g id="Grupo_115839" data-name="Grupo 115839">
          <g id="Grupo_115838" data-name="Grupo 115838">
            <path id="Trazado_169304" data-name="Trazado 169304" d="M973.047,4404.611c0,.074-4.258.135-9.508.135s-9.509-.061-9.509-.135,4.256-.135,9.509-.135S973.047,4404.536,973.047,4404.611Z" fill="#fafafa"/>
          </g>
        </g>
        <g id="Grupo_115841" data-name="Grupo 115841">
          <g id="Grupo_115840" data-name="Grupo 115840">
            <path id="Trazado_169305" data-name="Trazado 169305" d="M973.879,4408.811c0,.075-4.555.135-10.171.135s-10.172-.06-10.172-.135,4.553-.135,10.172-.135S973.879,4408.737,973.879,4408.811Z" fill="#fafafa"/>
          </g>
        </g>
        <g id="Grupo_115843" data-name="Grupo 115843">
          <g id="Grupo_115842" data-name="Grupo 115842">
            <path id="Trazado_169306" data-name="Trazado 169306" d="M975.2,4414.165c0,.074-5.181.135-11.571.135s-11.572-.061-11.572-.135,5.18-.135,11.572-.135S975.2,4414.09,975.2,4414.165Z" fill="#fafafa"/>
          </g>
        </g>
        <g id="Grupo_115845" data-name="Grupo 115845">
          <g id="Grupo_115844" data-name="Grupo 115844">
            <path id="Trazado_169307" data-name="Trazado 169307" d="M953.667,4402.975a1.977,1.977,0,0,1-.215-.478q-.213-.555-.511-1.327c-.428-1.122-1.031-2.668-1.657-4.393s-1.147-3.3-1.473-4.464c-.163-.58-.285-1.051-.355-1.381a1.965,1.965,0,0,1-.085-.518,19,19,0,0,1,.622,1.843c.373,1.141.916,2.707,1.545,4.428s1.2,3.28,1.583,4.42c.192.57.338,1.035.431,1.358A1.962,1.962,0,0,1,953.667,4402.975Z" fill="#263238"/>
          </g>
        </g>
      </g>
    </g>
  </g>
</svg>
