<svg xmlns="http://www.w3.org/2000/svg" width="172.582" height="140" viewBox="0 0 172.582 140">
  <g id="Grupo_128082" data-name="Grupo 128082" transform="translate(-2636 4701)">
    <g id="Grupo_111672" data-name="Grupo 111672" transform="translate(2701 -4668.582)">
      <rect id="Rectángulo_37181" data-name="Rectángulo 37181" width="48.357" height="103.786" rx="24.179" transform="translate(73.388 0) rotate(45)" fill="#ff6148"/>
      <rect id="Rectángulo_37182" data-name="Rectángulo 37182" width="30.763" height="64.458" rx="15.381" transform="translate(75.479 35.367) rotate(45)" fill="#ffb476"/>
    </g>
    <g id="Grupo_111673" data-name="Grupo 111673" transform="translate(927 -275)">
      <rect id="Rectángulo_45126" data-name="Rectángulo 45126" width="157" height="135" transform="translate(1709 -4426)" fill="none"/>
      <g id="desarrollador-de-software_2_" data-name="desarrollador-de-software(2)" transform="translate(1734.918 -4413)">
        <path id="Trazado_167314" data-name="Trazado 167314" d="M83.652,58.036V11H13.968V58.036L7,73.715H90.62Z" transform="translate(0.742 7.421)" fill="#596c80"/>
        <path id="Trazado_167315" data-name="Trazado 167315" d="M11,11H80.683V58.036H11Z" transform="translate(3.711 7.421)" fill="#bce1fb"/>
        <path id="Trazado_167316" data-name="Trazado 167316" d="M55.337,18.284A6.244,6.244,0,0,1,51.852,12.7a5.89,5.89,0,0,1,.272-1.7H41.5a16.309,16.309,0,0,0-.1,1.742,16.609,16.609,0,0,0,6.388,13.066v3.535A10.35,10.35,0,0,0,58.124,39.687V21.862a5.226,5.226,0,0,0-2.787-3.578Z" transform="translate(26.27 7.421)" fill="#b2d5ed"/>
        <path id="Trazado_167317" data-name="Trazado 167317" d="M67.4,16.861a11.5,11.5,0,0,0-11.846-11.5A11.623,11.623,0,0,0,44.4,16.9a11.487,11.487,0,0,0,6.388,10.247v6.386a5.11,5.11,0,1,0,10.219.005V27.15A11.486,11.486,0,0,0,67.4,16.861Z" transform="translate(28.496 3.234)" fill="#ffeb8c"/>
        <path id="Trazado_167318" data-name="Trazado 167318" d="M58.279,19.33v3.833a5.1,5.1,0,0,1-10.209,0V19.33Z" transform="translate(31.219 13.602)" fill="#748ca6"/>
        <path id="Trazado_167319" data-name="Trazado 167319" d="M59.834,48.468a2.613,2.613,0,0,0-2.613,2.613V47.6a2.613,2.613,0,1,0-5.226,0V44.113a2.613,2.613,0,1,0-5.226,0v3.442a2.613,2.613,0,1,0-5.226.042V61.534L38.894,59.3a3.11,3.11,0,0,0-5.47.836,3.186,3.186,0,0,0,.157,2.334l4.686,8.123a5.531,5.531,0,0,0,4.982,3.136v5.226H57.186V73.729a9.93,9.93,0,0,0,5.261-8.71V51.081a2.613,2.613,0,0,0-2.613-2.613Z" transform="translate(20.239 30.054)" fill="#e6cdad"/>
        <path id="Trazado_167320" data-name="Trazado 167320" d="M38.036,58.01A3.082,3.082,0,0,0,35.528,59.3l-2.643,2.235V47.6a2.613,2.613,0,1,0-5.226-.042V44.113a2.613,2.613,0,1,0-5.226,0V47.6a2.613,2.613,0,0,0-5.226,0v3.484a2.613,2.613,0,1,0-5.226,0V65.018a9.93,9.93,0,0,0,5.261,8.71v5.226H31.178V73.729a5.531,5.531,0,0,0,4.982-3.136l4.681-8.123A3.186,3.186,0,0,0,41,60.135a3.066,3.066,0,0,0-2.962-2.125Z" transform="translate(4.438 30.054)" fill="#e6cdad"/>
        <path id="Trazado_167321" data-name="Trazado 167321" d="M12.968,15.927V62.594L6.15,77.935a1.742,1.742,0,0,0,1.592,2.449h6.933V92.578a11.522,11.522,0,0,0,5.261,9.676v4.261h3.484v-5.226a1.742,1.742,0,0,0-.871-1.51,8.223,8.223,0,0,1-4.39-7.2V78.642a.871.871,0,0,1,1.742,0v5.226h3.484v-8.71a.871.871,0,1,1,1.742,0v8.71h3.484V71.673a.871.871,0,0,1,1.742,0V83.868h3.484V75.137a.871.871,0,0,1,1.742.021V89.094a1.742,1.742,0,0,0,2.867,1.331l2.643-2.237a1.756,1.756,0,0,0,.289-.312,1.338,1.338,0,0,1,1.094-.564,1.324,1.324,0,0,1,1.3.911,1.441,1.441,0,0,1,0,.937l-4.742,8.226a3.8,3.8,0,0,1-3.418,2.16,1.742,1.742,0,0,0-1.742,1.742v5.226h3.484v-3.693a7.165,7.165,0,0,0,4.749-3.8l4.745-8.242a4.92,4.92,0,0,0,.24-3.624,4.852,4.852,0,0,0-8.028-1.916V80.384H60.039v4.855a4.852,4.852,0,0,0-8.031,1.939,4.961,4.961,0,0,0,.308,3.73l4.627,8.014a7.28,7.28,0,0,0,4.8,3.9v3.693h3.484v-5.226a1.742,1.742,0,0,0-1.742-1.742,3.866,3.866,0,0,1-3.474-2.265l-4.617-8a1.418,1.418,0,0,1-.073-1.045,1.366,1.366,0,0,1,2.4-.359,1.756,1.756,0,0,0,.289.312l2.643,2.237a1.742,1.742,0,0,0,2.867-1.327V75.158a.871.871,0,0,1,1.742-.021v8.731H68.75V71.673a.871.871,0,0,1,1.742,0V83.868h3.484v-8.71a.871.871,0,1,1,1.742,0v8.71H79.2V78.642a.871.871,0,0,1,1.742,0V92.578a8.223,8.223,0,0,1-4.39,7.2,1.742,1.742,0,0,0-.871,1.51v5.226h3.484v-4.261a11.522,11.522,0,0,0,5.261-9.676V80.384h6.933a1.742,1.742,0,0,0,1.592-2.449L86.136,62.594V40.877a6.846,6.846,0,0,0,5.11-6.6V28.918A13.231,13.231,0,1,0,71.63,14.159l-56.919.026a1.742,1.742,0,0,0-1.742,1.742ZM87.761,34.276a3.367,3.367,0,0,1-6.735,0v-2.09h6.735ZM84.092,7.851h.3a9.756,9.756,0,0,1,4.331,18.483,1.742,1.742,0,0,0-.967,1.559v.814H81.026v-.814a1.742,1.742,0,0,0-.967-1.559,9.707,9.707,0,0,1-5.421-8.7,9.93,9.93,0,0,1,9.454-9.784Zm-67.64,9.818,54.7-.026a13.158,13.158,0,0,0,6.388,11.27v5.359a6.846,6.846,0,0,0,5.11,6.606V61.221h-66.2ZM83.261,64.705,88.681,76.9H84.059a4.312,4.312,0,0,0-4.937-2.5,4.355,4.355,0,0,0-4.279-3.6,4.264,4.264,0,0,0-.949.111,4.343,4.343,0,0,0-8.555,0,4.331,4.331,0,0,0-5.3,4.244V76.9H39.065V75.158a4.331,4.331,0,0,0-5.3-4.245,4.343,4.343,0,0,0-8.555,0,4.265,4.265,0,0,0-.949-.111,4.355,4.355,0,0,0-4.279,3.6,4.312,4.312,0,0,0-4.937,2.5H10.423l5.42-12.195Z" transform="translate(0 2.494)"/>
        <path id="Trazado_167322" data-name="Trazado 167322" d="M30.055,20.643l-8.71,5.226a1.742,1.742,0,0,0,0,2.986l8.71,5.226L31.849,31.1l-6.221-3.733,6.221-3.733Z" transform="translate(10.761 14.577)"/>
        <path id="Trazado_167323" data-name="Trazado 167323" d="M45.49,25.869l-8.71-5.226-1.794,2.986,6.221,3.733L34.985,31.1l1.794,2.986,8.71-5.226a1.742,1.742,0,0,0,0-2.986Z" transform="translate(21.509 14.577)"/>
        <path id="Trazado_167324" data-name="Trazado 167324" d="M0,0H14.884V3.486H0Z" transform="translate(45.276 48.285) rotate(-69.444)"/>
        <path id="Trazado_167325" data-name="Trazado 167325" d="M50,1h3.484V4.833H50Z" transform="translate(32.652)"/>
        <path id="Trazado_167326" data-name="Trazado 167326" d="M0,0H3.484V3.833H0Z" transform="translate(69.603 7.851) rotate(-45)"/>
        <path id="Trazado_167327" data-name="Trazado 167327" d="M0,0H3.833V3.484H0Z" transform="translate(93.991 8.102) rotate(-45)"/>
      </g>
    </g>
  </g>
</svg>
