<svg xmlns="http://www.w3.org/2000/svg" width="135" height="135" viewBox="0 0 135 135">
  <g id="Grupo_128098" data-name="Grupo 128098" transform="translate(-733 -6547)">
    <path id="Trazado_172622" data-name="Trazado 172622" d="M67.5,0A67.5,67.5,0,1,1,0,67.5,67.5,67.5,0,0,1,67.5,0Z" transform="translate(733 6547)" fill="#ff6148"/>
    <g id="scrum" transform="translate(732.341 6559.188)">
      <g id="Grupo_111547" data-name="Grupo 111547" transform="translate(33.748 10.154)">
        <path id="Trazado_166833" data-name="Trazado 166833" d="M189.209,248.354a2.149,2.149,0,0,0-1.518,3.666.637.637,0,0,1,0,.9l-1.372,1.372a.638.638,0,0,1-.9,0,2.149,2.149,0,0,0-3.666,1.518.637.637,0,0,1-.637.637h-1.941a.637.637,0,0,1-.637-.637,2.148,2.148,0,0,0-3.666-1.518.637.637,0,0,1-.9,0l-1.372-1.372a.637.637,0,0,1,0-.9,2.149,2.149,0,0,0-1.518-3.666.637.637,0,0,1-.637-.637v-1.941a.637.637,0,0,1,.637-.637,2.149,2.149,0,0,0,1.518-3.666.637.637,0,0,1,0-.9l1.372-1.372a.637.637,0,0,1,.9,0,2.149,2.149,0,0,0,3.666-1.518.637.637,0,0,1,.637-.637h1.941a.637.637,0,0,1,.637.637,2.149,2.149,0,0,0,3.666,1.518.638.638,0,0,1,.9,0l1.372,1.372a.637.637,0,0,1,0,.9,2.149,2.149,0,0,0,1.518,3.666.637.637,0,0,1,.637.637v1.941A.637.637,0,0,1,189.209,248.354Zm-9.066-6.27a4.662,4.662,0,1,0,4.662,4.662A4.662,4.662,0,0,0,180.143,242.084Z" transform="translate(-149.939 -202.397)" fill="#fdcd56" fill-rule="evenodd"/>
        <path id="Trazado_166834" data-name="Trazado 166834" d="M278.771,16a16.041,16.041,0,0,0-11.855,26.848l7.005-2.76a9.393,9.393,0,1,1,12.9-3.211l-3.088-1.783,1.328,4.54,1.328,4.54,4.6-1.12,4.6-1.12-3-1.733A16.045,16.045,0,0,0,278.771,16Z" transform="translate(-227.765 -16)" fill="#1b9877" fill-rule="evenodd"/>
        <path id="Trazado_166835" data-name="Trazado 166835" d="M261.772,399.339H232.349v-8.365h29.423v-4.393l4.1,4.287,4.1,4.288-4.1,4.288-4.1,4.287Z" transform="translate(-202.146 -328.497)" fill="#cc4d39" fill-rule="evenodd"/>
        <path id="Trazado_166836" data-name="Trazado 166836" d="M69.853,130.727a26.43,26.43,0,0,1,0,52.86H39.65v-8.365h30.2a18.064,18.064,0,1,0-18.064-18.064,18.267,18.267,0,0,0,.128,2.162l4.3-1.152L50.054,168.3l-10.4-5.7,4.13-1.107a26.447,26.447,0,0,1,26.074-30.773Z" transform="translate(-39.65 -112.745)" fill="#2efec7" fill-rule="evenodd"/>
      </g>
      <path id="Trazado_166837" data-name="Trazado 166837" d="M94.472,82.642V80.986a1.1,1.1,0,0,0-1.1-1.1H74.719a27.623,27.623,0,0,0,8.974-6.17h9.682a1.1,1.1,0,0,0,1.1-1.1V70.965l5.58,5.838ZM85.61,9.068H83.9A17.159,17.159,0,0,0,67.616,26.185c0,.364.014.729.037,1.094a27.541,27.541,0,0,0-31,30.813l-3.186.853a1.1,1.1,0,0,0-.243,2.022l10.4,5.7a1.1,1.1,0,0,0,1.464-.392l6.162-10.134a1.1,1.1,0,0,0-1.221-1.63L47,55.318q-.017-.381-.017-.762A16.967,16.967,0,1,1,63.952,71.523h-30.2a1.1,1.1,0,0,0-1.1,1.1v8.364a1.1,1.1,0,0,0,1.1,1.1h58.53v3.3a1.1,1.1,0,0,0,.689,1.018,1.083,1.083,0,0,0,.408.08,1.1,1.1,0,0,0,.793-.339l8.194-8.575a1.1,1.1,0,0,0,0-1.516L94.168,67.47a1.1,1.1,0,0,0-1.89.758v3.3H85.612a27.5,27.5,0,0,0-7.739-40.706A8.3,8.3,0,1,1,92.363,29.5L90.27,28.288a1.1,1.1,0,0,0-1.6,1.258l2.656,9.081a1.1,1.1,0,0,0,1.313.758l9.192-2.241a1.1,1.1,0,0,0,.289-2.016l-2.072-1.2A17.143,17.143,0,0,0,85.61,9.068ZM34.845,79.888H63.951A25.312,25.312,0,1,0,38.96,58.719a1.1,1.1,0,0,1-.8,1.239l-1.487.4,7.084,3.878,4.2-6.9-1.655.443a1.1,1.1,0,0,1-1.373-.929,19.474,19.474,0,0,1-.136-2.292A19.161,19.161,0,1,1,63.951,73.717H34.845Zm34.966-53.7a14.944,14.944,0,1,1,27.814,7.6,1.1,1.1,0,0,0,.4,1.51l.631.364L93.136,37l-1.593-5.448.718.415a1.1,1.1,0,0,0,1.489-.384,10.489,10.489,0,1,0-19.039-2.367,27.318,27.318,0,0,0-4.824-1.544C69.838,27.181,69.811,26.682,69.811,26.185ZM63.951,50.928a3.565,3.565,0,1,1-3.565,3.565A3.569,3.569,0,0,1,63.951,50.928Zm0,9.325a5.759,5.759,0,1,1,5.76-5.759,5.766,5.766,0,0,1-5.76,5.759Zm-6.07-8.274a3.186,3.186,0,0,0-.4-3.188l.766-.766a3.25,3.25,0,0,0,5.162-2.137h1.083a3.25,3.25,0,0,0,5.161,2.137l.766.766a3.249,3.249,0,0,0,2.138,5.161v1.083A3.25,3.25,0,0,0,70.42,60.2l-.766.766A3.25,3.25,0,0,0,64.493,63.1H63.41a3.248,3.248,0,0,0-5.162-2.137l-.766-.766a3.25,3.25,0,0,0-2.138-5.161V53.951a3.184,3.184,0,0,0,2.536-1.972Zm-3-.191a1.051,1.051,0,0,0,.743-1.793,1.736,1.736,0,0,1,0-2.453L57,46.169a1.737,1.737,0,0,1,2.453,0,1.051,1.051,0,0,0,1.793-.743,1.737,1.737,0,0,1,1.735-1.735h1.941a1.737,1.737,0,0,1,1.735,1.735,1.051,1.051,0,0,0,1.793.743,1.737,1.737,0,0,1,2.453,0l1.372,1.373a1.736,1.736,0,0,1,0,2.453,1.051,1.051,0,0,0,.743,1.793,1.736,1.736,0,0,1,1.735,1.735v1.94A1.736,1.736,0,0,1,73.018,57.2a1.052,1.052,0,0,0-.743,1.794,1.736,1.736,0,0,1,0,2.453L70.9,62.816a1.736,1.736,0,0,1-2.453,0,1.052,1.052,0,0,0-1.793.743,1.737,1.737,0,0,1-1.735,1.735H62.981a1.737,1.737,0,0,1-1.735-1.735,1.051,1.051,0,0,0-1.793-.743,1.737,1.737,0,0,1-2.453,0l-1.373-1.373a1.736,1.736,0,0,1,0-2.453,1.052,1.052,0,0,0-.743-1.794,1.737,1.737,0,0,1-1.735-1.735v-1.94a1.737,1.737,0,0,1,1.735-1.734Z" transform="translate(0 0)" fill-rule="evenodd"/>
    </g>
    <g id="Grupo_111549" data-name="Grupo 111549" transform="translate(463 -396)">
      <ellipse id="Elipse_1195" data-name="Elipse 1195" cx="12.5" cy="13" rx="12.5" ry="13" transform="translate(287 7052)" fill="#ffe5cf"/>
      <text id="_2" data-name="2" transform="translate(294 7052)" fill="#12263f" font-size="18" font-family="Roboto-Black, Roboto" font-weight="800"><tspan x="0" y="19">2</tspan></text>
    </g>
  </g>
</svg>
