<svg xmlns="http://www.w3.org/2000/svg" width="101" height="101" viewBox="0 0 101 101">
  <g id="Grupo_128098" data-name="Grupo 128098" transform="translate(-750 -3670)">
    <circle id="Elipse_1150" data-name="Elipse 1150" cx="50.5" cy="50.5" r="50.5" transform="translate(750 3670)" fill="#24cb9f"/>
    <g id="motivado" transform="translate(766.808 3688)">
      <path id="Trazado_168104" data-name="Trazado 168104" d="M64.618,242.426,63.453,257.57l-16.46-3.652-3.326,4.989a.215.215,0,0,1-.33.033l-3.611-3.611-3.611,3.611a.215.215,0,0,1-.33-.033l-3.326-4.989L16,257.57l-1.165-15.144H7.72v18.517a4.6,4.6,0,0,0,4.6,4.6H25.488v10.534a.135.135,0,0,0,.135.135h28.2a.135.135,0,0,0,.135-.135V265.541H67.133a4.6,4.6,0,0,0,4.6-4.6V242.426Z" transform="translate(-6.533 -211.176)" fill="#dfdde2"/>
      <path id="Trazado_168105" data-name="Trazado 168105" d="M186.647,242.426v15.941a4.6,4.6,0,0,1-4.6,4.6h-8.274a4.9,4.9,0,0,0-4.9,4.9v.74a5.031,5.031,0,0,1-5.031,5.031h-18.29v2.441a.135.135,0,0,0,.135.135h28.2a.135.135,0,0,0,.135-.135V265.541H187.2a4.6,4.6,0,0,0,4.6-4.6V242.426Z" transform="translate(-126.602 -211.176)" fill="#c6c1c8"/>
      <path id="Trazado_168106" data-name="Trazado 168106" d="M90.5,233.512l4.21-4.847a.093.093,0,0,1,.141,0l4.21,4.847a.093.093,0,0,1-.07.154h-2.2a.093.093,0,0,0-.093.093v6.056a.093.093,0,0,1-.093.093H93.048a.093.093,0,0,1-.093-.093V233.76a.093.093,0,0,0-.093-.093H90.573A.093.093,0,0,1,90.5,233.512Z" transform="translate(-78.625 -199.161)" fill="#b7e445"/>
      <path id="Trazado_168107" data-name="Trazado 168107" d="M363.34,233.512l-4.21-4.847a.093.093,0,0,0-.141,0l-4.21,4.847a.093.093,0,0,0,.07.154h2.2a.093.093,0,0,1,.093.093v6.056a.093.093,0,0,0,.093.093h3.559a.093.093,0,0,0,.093-.093V233.76a.093.093,0,0,1,.093-.093h2.288A.093.093,0,0,0,363.34,233.512Z" transform="translate(-308.834 -199.161)" fill="#b7e445"/>
      <path id="Trazado_168108" data-name="Trazado 168108" d="M155.059,184.126H153.2a2.284,2.284,0,0,0-2.284,2.284A4.489,4.489,0,0,0,155.4,190.9h.086Z" transform="translate(-131.27 -160.391)" fill="#eaac9d"/>
      <path id="Trazado_168109" data-name="Trazado 168109" d="M327.885,184.126h-1.858l-.432,6.773h.086a4.489,4.489,0,0,0,4.489-4.489A2.285,2.285,0,0,0,327.885,184.126Z" transform="translate(-283.431 -160.391)" fill="#df9380"/>
      <path id="Trazado_168110" data-name="Trazado 168110" d="M199.558,313.578l5.548,3.7-3.611,3.611a.215.215,0,0,1-.33-.033l-3.554-5.331a.215.215,0,0,1,.027-.271l1.649-1.649A.215.215,0,0,1,199.558,313.578Z" transform="translate(-171.914 -273.125)" fill="#f1f1f4"/>
      <path id="Trazado_168111" data-name="Trazado 168111" d="M261.548,313.578l-5.548,3.7,3.611,3.611a.215.215,0,0,0,.33-.033l3.554-5.331a.215.215,0,0,0-.027-.271l-1.649-1.649A.215.215,0,0,0,261.548,313.578Z" transform="translate(-222.808 -273.125)" fill="#f1f1f4"/>
      <path id="Trazado_168112" data-name="Trazado 168112" d="M236.758,342.516l-2.847,2.847.949,2.847h3.8l.949-2.847Z" transform="translate(-203.567 -298.363)" fill="#dd636e"/>
      <path id="Trazado_168113" data-name="Trazado 168113" d="M225.446,292.192v-2.05a8.989,8.989,0,0,1-10.159,0v2.05a3.721,3.721,0,0,1-.193,1.186l5.273,3.515,5.273-3.515A3.721,3.721,0,0,1,225.446,292.192Z" transform="translate(-187.174 -252.741)" fill="#df9380"/>
      <path id="Trazado_168114" data-name="Trazado 168114" d="M202.848,159.624l-3.332-5.553a.536.536,0,0,0-.46-.26h-3.4a16.455,16.455,0,0,1-7.36-1.737.36.36,0,0,0-.483.161l-3.369,6.738L184.7,163a8.986,8.986,0,0,0,17.935,0Z" transform="translate(-160.473 -132.436)" fill="#ffcbbe"/>
      <path id="Trazado_168115" data-name="Trazado 168115" d="M185.415,86.629a16.457,16.457,0,0,0,7.36,1.737h3.4a.536.536,0,0,1,.46.26l3.332,5.553.447-7.009a9.651,9.651,0,0,0-15.431-8.327.484.484,0,0,0-.111.655l.293.44a.833.833,0,0,0-1.29-.119,9.617,9.617,0,0,0-2.721,7.352l.406,6.357,3.369-6.738A.36.36,0,0,1,185.415,86.629Z" transform="translate(-157.597 -66.992)" fill="#9d6b6b"/>
      <path id="Trazado_168116" data-name="Trazado 168116" d="M13.466,159.666H10.439a2.719,2.719,0,0,0-2.719,2.719v7.95h7.112v-3.356a.872.872,0,0,1,.378-.728,3.141,3.141,0,0,0,1.4-2.616v-.824a3.144,3.144,0,0,0-3.144-3.144Z" transform="translate(-6.533 -139.084)" fill="#ffcbbe"/>
      <path id="Trazado_168117" data-name="Trazado 168117" d="M438.458,159.666h3.027a2.719,2.719,0,0,1,2.719,2.719v7.95h-7.112v-3.356a.872.872,0,0,0-.378-.728,3.141,3.141,0,0,1-1.4-2.616v-.824A3.144,3.144,0,0,1,438.458,159.666Z" transform="translate(-379.008 -139.084)" fill="#ffcbbe"/>
      <path id="Trazado_168118" data-name="Trazado 168118" d="M234.157,399a.151.151,0,0,0,.032-.118L232.3,386.693h-3.8l-1.888,12.189a.151.151,0,0,0,.032.118l2.321,2.879h2.867Z" transform="translate(-197.21 -336.846)" fill="#da4a54"/>
      <path id="Trazado_168119" data-name="Trazado 168119" d="M228.769,484.517l2.077,2.576h2.867l2.077-2.576Z" transform="translate(-199.088 -422.06)" fill="#d82e3d"/>
      <path id="Trazado_168120" data-name="Trazado 168120" d="M76.469,15.218,69.81,7.55a.148.148,0,0,0-.223,0l-6.659,7.667a.148.148,0,0,0,.111.244h3.479a.148.148,0,0,1,.148.148v9.579a.148.148,0,0,0,.148.148h5.63a.148.148,0,0,0,.148-.148V15.61a.148.148,0,0,1,.148-.148h3.619a.148.148,0,0,0,.112-.244Z" transform="translate(-54.593 -6.533)" fill="#b7e445"/>
      <path id="Trazado_168121" data-name="Trazado 168121" d="M343.538,15.218,350.2,7.55a.148.148,0,0,1,.223,0l6.659,7.667a.148.148,0,0,1-.111.244h-3.479a.148.148,0,0,0-.148.148v9.579a.148.148,0,0,1-.148.148h-5.63a.148.148,0,0,1-.148-.148V15.61a.148.148,0,0,0-.148-.148H343.65a.148.148,0,0,1-.111-.244Z" transform="translate(-299.03 -6.533)" fill="#b7e445"/>
      <path id="Trazado_168122" data-name="Trazado 168122" d="M218.727,166.067a.536.536,0,0,0-.46-.26h-3.3l.934,1.557a6.292,6.292,0,0,1,.884,3.638l-.09,1.417a8.992,8.992,0,0,1-10.2,8.33,8.986,8.986,0,0,0,15.349-5.754l.215-3.373Z" transform="translate(-179.685 -144.433)" fill="#eaac9d"/>
      <path id="Trazado_168123" data-name="Trazado 168123" d="M86.519,234.342h3.559a1.061,1.061,0,0,0,1.06-1.06V228.1h1.326a1.06,1.06,0,0,0,.8-1.755L89.055,221.5a1.06,1.06,0,0,0-1.6,0l-4.21,4.847a1.06,1.06,0,0,0,.8,1.755h1.414v5.183A1.061,1.061,0,0,0,86.519,234.342Zm1.735-10.818,2.294,2.642h-.284a1.061,1.061,0,0,0-1.06,1.06v5.183H87.393v-5.183a1.061,1.061,0,0,0-1.06-1.06H85.96ZM84.7,227.613l0,0Z" transform="translate(-72.096 -192.627)"/>
      <path id="Trazado_168124" data-name="Trazado 168124" d="M350.707,234.343h3.559a1.061,1.061,0,0,0,1.06-1.06V228.1h1.414a1.06,1.06,0,0,0,.8-1.755l-4.209-4.846a1.06,1.06,0,0,0-1.6,0l-4.209,4.847a1.06,1.06,0,0,0,.8,1.756h1.326v5.183A1.061,1.061,0,0,0,350.707,234.343Zm5.374-6.73h0l0,0Zm-3.55-4.088,2.294,2.642h-.372a1.061,1.061,0,0,0-1.06,1.06v5.183h-1.812v-5.183a1.061,1.061,0,0,0-1.06-1.06h-.284Z" transform="translate(-302.306 -192.627)"/>
      <path id="Trazado_168125" data-name="Trazado 168125" d="M242.9,207.8h.228a2.435,2.435,0,0,0,2.432-2.432v-1.921a.967.967,0,0,0-1.934,0v1.921a.5.5,0,0,1-.5.5H242.9a.967.967,0,0,0,0,1.934Z" transform="translate(-210.555 -176.382)"/>
      <path id="Trazado_168126" data-name="Trazado 168126" d="M56.513,9.9h2.659v8.76a1.116,1.116,0,0,0,1.114,1.114h5.63a1.116,1.116,0,0,0,1.114-1.114V15A.967.967,0,1,0,65.1,15v2.834H61.106V9.077a1.116,1.116,0,0,0-1.114-1.114H58.309l4.862-5.6,4.862,5.6H66.211A1.116,1.116,0,0,0,65.1,9.077v1.418a.967.967,0,1,0,1.934,0V9.9h2.8a1.114,1.114,0,0,0,.841-1.845L64.013.384a1.114,1.114,0,0,0-1.683,0L55.671,8.051A1.114,1.114,0,0,0,56.513,9.9Z" transform="translate(-48.066 0)"/>
      <path id="Trazado_168127" data-name="Trazado 168127" d="M337.122,9.9h2.8v8.76a1.116,1.116,0,0,0,1.114,1.114h5.63a1.116,1.116,0,0,0,1.114-1.114V9.9h2.659a1.114,1.114,0,0,0,.841-1.845L344.621.383a1.115,1.115,0,0,0-1.682,0L336.28,8.051h0a1.114,1.114,0,0,0,.841,1.845Zm6.659-7.533,4.862,5.6h-1.682a1.116,1.116,0,0,0-1.115,1.114v8.76h-3.991V9.077a1.116,1.116,0,0,0-1.115-1.114h-1.822Z" transform="translate(-292.503)"/>
      <path id="Trazado_168128" data-name="Trazado 168128" d="M62.478,80.075H59.45a4.116,4.116,0,0,0-4.111,4.111v.824A4.105,4.105,0,0,0,57.118,88.4v3.278l-.243,3.153a.967.967,0,1,0,1.928.148l.177-2.3h5.25V94.3H61.641a.967.967,0,0,0,0,1.934H64.23v13.994a3.635,3.635,0,0,1-3.631,3.631H48.394V109.49a.967.967,0,1,0-1.934,0c0,5.39,0,3.952,0,15.036H36.647L37.7,123.22a1.12,1.12,0,0,0,.234-.872L36.081,110.39l.411-1.232a1.182,1.182,0,0,0,1.446-.432l2.959-4.438,14.995,3.327-.065.848a3.5,3.5,0,0,0,.736,2.43.967.967,0,1,0,1.521-1.193,1.565,1.565,0,0,1-.33-1.089l.7-9.121a.967.967,0,1,0-1.928-.148l-.487,6.326-14.382-3.191a1.177,1.177,0,0,0-.315-.572l-1.649-1.649a1.175,1.175,0,0,0-.456-.283c0-.052,0-.055,0-1.629a9.955,9.955,0,0,0,3.8-6.468,5.464,5.464,0,0,0,4.663-5.4,3.255,3.255,0,0,0-3.251-3.251h-.828l.161-2.528A10.616,10.616,0,0,0,33.192,69.407h-.031a10.51,10.51,0,0,0-6.353,2.133,1.445,1.445,0,0,0-.468.61,1.8,1.8,0,0,0-.749.462A10.635,10.635,0,0,0,22.6,80.7l.161,2.529H21.93a3.255,3.255,0,0,0-3.251,3.251,5.464,5.464,0,0,0,4.663,5.4,9.955,9.955,0,0,0,3.8,6.468c0,1.575,0,1.577,0,1.629a1.173,1.173,0,0,0-.456.283l-1.649,1.649a1.177,1.177,0,0,0-.315.572l-14.381,3.191-1.077-14V88.395a4.105,4.105,0,0,0,1.778-3.385v-.824a4.116,4.116,0,0,0-4.111-4.111H3.906A3.69,3.69,0,0,0,.22,83.76v26.467a5.57,5.57,0,0,0,5.564,5.564h12.2v9.567a1.1,1.1,0,0,0,1.1,1.1h28.2a1.1,1.1,0,0,0,1.1-1.1v-9.567H60.6a5.57,5.57,0,0,0,5.564-5.564V83.76A3.69,3.69,0,0,0,62.478,80.075ZM43.5,85.161h.951a1.319,1.319,0,0,1,1.318,1.318A3.528,3.528,0,0,1,43.2,89.87ZM20.613,86.479a1.319,1.319,0,0,1,1.318-1.318h.951c.147,2.308.077,1.2.3,4.708A3.528,3.528,0,0,1,20.613,86.479Zm18.928,16.358-2.7,4.054-2.129-2.129,4.054-2.7Zm-2.175-2.17-4.174,2.783-4.174-2.783a4.707,4.707,0,0,0,.061-.757v-.4a9.916,9.916,0,0,0,8.226,0v.4A4.692,4.692,0,0,0,37.366,100.668Zm-2.433,7.053-.54,1.619h-2.4l-.54-1.619,1.741-1.741ZM24.527,80.576a8.7,8.7,0,0,1,2.335-6.5l1.412,2.08a.967.967,0,1,0,1.609-1.073l-1.521-2.282a8.771,8.771,0,0,1,4.792-1.466h.038a8.683,8.683,0,0,1,8.665,9.236l-.25,3.913L39.872,81.6a1.511,1.511,0,0,0-1.289-.73h-3.4a15.568,15.568,0,0,1-6.927-1.635,1.328,1.328,0,0,0-1.78.593L24.7,83.359Zm.662,10.382-.24-3.765,2.985-5.971A17.52,17.52,0,0,0,35.178,82.8h3.161l3.051,5.086-.2,3.072a8.019,8.019,0,0,1-16.006,0Zm2.431,11.1,4.054,2.7-2.129,2.129-2.7-4.054ZM2.154,83.76a1.754,1.754,0,0,1,1.752-1.752H6.933A2.18,2.18,0,0,1,9.11,84.186v.824a2.177,2.177,0,0,1-2.177,2.177H6.521a.812.812,0,0,1-.811-.811V84.6a.967.967,0,0,0-1.934,0v1.778a2.748,2.748,0,0,0,2.745,2.745c.331,0,.512.01.811-.019v1.642H2.154Zm32.009,40.766H32.221l-1.8-2.238.191-1.232a.967.967,0,0,0-1.911-.3l-.246,1.588a1.12,1.12,0,0,0,.234.873l1.052,1.305H19.922V109.49a.967.967,0,0,0-1.934,0v4.367H5.784a3.635,3.635,0,0,1-3.631-3.631V96.233H4.743a.967.967,0,0,0,0-1.934H2.154V92.677H7.4l1.226,15.936A1.565,1.565,0,0,1,8.3,109.7a.967.967,0,0,0,1.521,1.193,3.494,3.494,0,0,0,.736-2.43l-.065-.848,14.995-3.327,2.959,4.438a1.182,1.182,0,0,0,1.446.432l.41,1.231-.913,5.9a.967.967,0,1,0,1.911.3l.822-5.309h2.139l1.706,11.014ZM64.23,90.743H59.051V89.1c.231.026.575.018.811.019a2.748,2.748,0,0,0,2.745-2.745V84.6a.967.967,0,1,0-1.934,0v1.778a.812.812,0,0,1-.811.811H59.45a2.177,2.177,0,0,1-2.177-2.177v-.824a2.18,2.18,0,0,1,2.177-2.177h3.027A1.754,1.754,0,0,1,64.23,83.76Z" transform="translate(0 -60.46)"/>
    </g>
  </g>
</svg>
