<svg xmlns="http://www.w3.org/2000/svg" width="400" height="241.013" viewBox="0 0 400 241.013">
  <g id="Grupo_113157" data-name="Grupo 113157" transform="translate(-198.777 -3252.074)">
    <g id="Grupo_113086" data-name="Grupo 113086" transform="translate(219.87 3323.346)">
      <g id="Grupo_113085" data-name="Grupo 113085">
        <path id="Trazado_168341" data-name="Trazado 168341" d="M512.6,3533.675h-.467v-.619h.465c1.5,0,3.014-.015,4.491-.044l.012.618C515.626,3533.66,514.111,3533.675,512.6,3533.675Zm-5.436-.061c-1.63-.037-3.3-.09-4.966-.159l.025-.618c1.662.069,3.329.122,4.955.158Zm14.906-.14-.027-.618c1.664-.073,3.328-.166,4.945-.278l.043.617C525.413,3533.308,523.744,3533.4,522.075,3533.474Zm-24.835-.269c-1.631-.1-3.3-.209-4.957-.335l.047-.617c1.655.125,3.319.238,4.947.335Zm34.748-.42-.06-.616c1.66-.161,3.315-.346,4.921-.551l.078.614C535.316,3532.437,533.654,3532.624,531.988,3532.785Zm-44.657-.331c-1.622-.149-3.285-.314-4.943-.49l.065-.615c1.655.176,3.316.341,4.935.49Zm54.516-.932-.1-.611c1.648-.266,3.287-.56,4.871-.875l.121.607C545.149,3530.96,543.5,3531.255,541.848,3531.523Zm-64.395-.12c-1.626-.2-3.284-.408-4.928-.628l.082-.614c1.641.22,3.3.431,4.92.627Zm-9.846-1.32c-1.611-.236-3.263-.489-4.91-.75l.1-.611c1.645.261,3.294.513,4.9.75Zm83.992-.5-.145-.6c1.625-.391,3.234-.815,4.783-1.26l.171.594C554.849,3528.76,553.231,3529.187,551.6,3529.58Zm-93.8-1.055c-1.606-.274-3.252-.564-4.891-.862l.111-.609c1.637.3,3.281.587,4.885.861Zm103.358-1.7-.2-.586c1.581-.54,3.14-1.119,4.632-1.722l.232.574C564.315,3525.694,562.746,3526.278,561.153,3526.822Zm-113.131-.072c-1.615-.311-3.255-.634-4.872-.962l.123-.606c1.616.327,3.253.65,4.866.96Zm-9.735-1.97c-1.606-.341-3.239-.695-4.854-1.053l.134-.6c1.613.358,3.244.711,4.848,1.051Zm-176.971-1.188c-1.521,0-2.973-.063-4.312-.188l.057-.616a47.3,47.3,0,0,0,4.925.181l.008.619Q261.653,3523.591,261.317,3523.592Zm5.655-.246-.05-.616c1.525-.123,3.181-.3,4.922-.518l.078.614C270.172,3523.047,268.506,3523.222,266.972,3523.346Zm303.4-.259-.267-.559c1.507-.718,2.982-1.482,4.383-2.271l.3.539C573.382,3521.592,571.894,3522.363,570.375,3523.087Zm-141.784-.456c-1.6-.368-3.222-.75-4.835-1.136l.144-.6c1.61.386,3.236.768,4.829,1.135Zm-176.522-.062a21.862,21.862,0,0,1-4.7-1.779l.288-.548a21.2,21.2,0,0,0,4.562,1.727Zm24.777-.448-.1-.611c1.513-.238,3.113-.506,4.89-.82l.108.61C279.966,3521.615,278.362,3521.884,276.845,3522.122Zm9.789-1.716-.114-.608c1.393-.262,2.9-.549,4.875-.932l.117.608C289.533,3519.857,288.028,3520.145,286.634,3520.406Zm132.3-.085c-1.591-.394-3.211-.8-4.816-1.213l.154-.6c1.6.41,3.222.818,4.811,1.212Zm-122.546-1.793-.117-.607q2.4-.464,4.876-.938l.116.608Q298.783,3518.063,296.386,3518.529Zm282.655-.338-.344-.514c1.385-.926,2.724-1.9,3.981-2.908l.386.484C581.794,3516.267,580.44,3517.256,579.041,3518.191Zm-169.731-.331-1.4-.37c-1.13-.3-2.275-.594-3.4-.871l.147-.6c1.132.278,2.281.572,3.416.874l1.4.369Zm-166.019-.009a19.054,19.054,0,0,1-3.107-3.951l.532-.317a18.432,18.432,0,0,0,3,3.823Zm62.847-1.174-.112-.609c1.711-.314,3.31-.6,4.89-.876l.106.609C309.445,3516.077,307.847,3516.363,306.138,3516.678Zm93.543-1.176c-1.606-.349-3.239-.681-4.855-.988l.115-.608c1.621.308,3.261.641,4.872.991Zm-83.768-.526-.1-.61c1.67-.272,3.323-.53,4.909-.767l.091.612C319.23,3514.447,317.582,3514.7,315.914,3514.976Zm74.028-1.321c-1.619-.262-3.27-.508-4.9-.729l.083-.613c1.641.221,3.3.467,4.921.73Zm-64.217-.141-.082-.614c1.656-.221,3.315-.43,4.93-.62l.072.615C329.033,3513.085,327.377,3513.293,325.725,3513.515Zm9.85-1.152-.061-.615c1.657-.164,3.323-.313,4.95-.442l.049.617C338.889,3512.051,337.228,3512.2,335.575,3512.363Zm44.54-.035c-1.63-.177-3.291-.335-4.936-.471l.051-.616c1.65.136,3.316.295,4.952.472Zm206.7-.366-.43-.445a47.954,47.954,0,0,0,3.362-3.6l.473.4A48.454,48.454,0,0,1,586.811,3511.962Zm-241.353-.383-.036-.617c1.658-.1,3.329-.179,4.964-.24l.023.618C348.778,3511.4,347.113,3511.482,345.458,3511.579Zm24.774-.067c-1.637-.094-3.3-.167-4.954-.221l.02-.618c1.656.053,3.327.128,4.969.221Zm-14.868-.3-.009-.619c1.08-.016,2.17-.024,3.239-.024q.863,0,1.732.007l-.005.618q-.865-.007-1.726-.007C357.527,3511.184,356.44,3511.192,355.364,3511.209Zm-117.286-1.857c-.565-1.559-1.088-3.151-1.555-4.734l.594-.175c.462,1.57.982,3.151,1.543,4.7Zm355.135-5.024-.515-.343a41.609,41.609,0,0,0,2.482-4.248l.552.279A42.2,42.2,0,0,1,593.213,3504.327Zm-357.95-4.53c-.368-1.612-.69-3.257-.958-4.89l.611-.1c.265,1.62.585,3.252.951,4.852Zm362.448-4.367-.582-.21a39.21,39.21,0,0,0,1.373-4.723l.6.135A40.078,40.078,0,0,1,597.711,3495.43Zm-364.058-5.462c-.165-1.641-.282-3.313-.347-4.97l.618-.025c.064,1.644.18,3.3.344,4.932Zm366.235-4.271-.616-.059c.117-1.237.177-2.5.177-3.743,0-.39-.006-.785-.017-1.175l.618-.018c.012.4.018.8.018,1.193C600.068,3483.162,600.008,3484.441,599.889,3485.7ZM233.88,3480.03l-.618-.013c.035-1.644.119-3.317.251-4.971l.617.05C234,3476.738,233.915,3478.4,233.88,3480.03Zm365.107-4.211a41.335,41.335,0,0,0-1.032-4.814l.6-.166a41.931,41.931,0,0,1,1.047,4.886Zm-364.324-5.633-.613-.084c.223-1.625.5-3.274.813-4.9l.607.118C235.157,3466.935,234.885,3468.573,234.663,3470.186Zm361.7-3.839a41.454,41.454,0,0,0-2.14-4.434l-.181-.322.539-.3.182.324a41.93,41.93,0,0,1,2.171,4.5Zm-359.82-5.846-.6-.15c.4-1.593.845-3.206,1.33-4.8l.592.181C237.38,3457.316,236.934,3458.919,236.539,3460.5Zm354.927-3.125c-.914-1.388-1.876-2.736-2.859-4.009l.489-.379c.993,1.285,1.964,2.647,2.887,4.047Zm-352.044-6.335-.582-.21c.556-1.544,1.161-3.106,1.8-4.641l.572.237C240.576,3447.952,239.975,3449.505,239.422,3451.041Zm346.024-1.439c-1.11-1.215-2.276-2.385-3.467-3.48l.418-.456c1.2,1.107,2.384,2.292,3.505,3.519Zm-7.229-6.639c-1.291-.988-2.648-1.932-4.033-2.806l.33-.524c1.4.885,2.773,1.839,4.078,2.839ZM243.209,3441.9l-.56-.263c.7-1.487,1.443-2.987,2.214-4.458l.548.287C244.643,3438.93,243.9,3440.421,243.209,3441.9Zm326.707-4.184c-1.426-.736-2.924-1.434-4.451-2.073l.239-.571c1.543.646,3.055,1.351,4.5,2.095Zm-9.074-3.812c-1.514-.51-3.1-.987-4.725-1.421l.16-.6c1.634.437,3.236.919,4.762,1.432Zm-313.04-.771-.535-.31c.825-1.422,1.695-2.853,2.586-4.253l.522.333C249.488,3430.295,248.623,3431.718,247.8,3433.132Zm303.509-1.793c-1.552-.327-3.188-.632-4.862-.907l.1-.61c1.683.276,3.327.583,4.888.913Zm-9.76-1.617c-1.565-.2-3.222-.384-4.923-.55l.06-.616c1.708.167,3.37.352,4.941.552Zm-9.862-.975c-1.566-.117-3.185-.226-4.949-.33l.037-.618c1.767.1,3.389.213,4.959.331Zm-9.9-.6c-1.427-.07-3-.142-4.959-.227l.027-.618c1.957.085,3.534.157,4.962.227Zm-9.92-.438q-2.468-.105-4.962-.22l.029-.618q2.492.115,4.959.219Zm-9.924-.468c-1.755-.1-3.378-.193-4.961-.3l.041-.618c1.58.1,3.2.2,4.953.3Zm-9.917-.661c-1.691-.137-3.357-.289-4.95-.449l.062-.616c1.59.16,3.251.311,4.939.448Zm-9.891-1c-1.673-.207-3.33-.433-4.926-.672l.092-.612c1.59.239,3.242.464,4.91.669Zm-229.024-.792-.508-.353c.936-1.348,1.915-2.7,2.91-4.022l.494.373C255.016,3422.1,254.041,3423.448,253.11,3424.79ZM472.3,3424.1c-1.647-.3-3.289-.618-4.879-.957l.129-.6c1.583.337,3.218.657,4.859.953Zm-9.722-2.078c-1.618-.4-3.234-.84-4.8-1.295l.172-.594c1.559.453,3.167.887,4.778,1.29Zm-9.547-2.774c-1.575-.526-3.15-1.089-4.682-1.672l.22-.578c1.524.581,3.091,1.14,4.658,1.663ZM259.055,3416.9l-.48-.392c1.038-1.273,2.118-2.549,3.209-3.791l.465.409C261.163,3414.361,260.088,3415.63,259.055,3416.9Zm184.69-1.189c-1.519-.656-3.04-1.352-4.52-2.069l.27-.557c1.472.714,2.984,1.406,4.5,2.058Zm-8.942-4.337c-1.448-.785-2.9-1.614-4.316-2.464l.319-.53c1.407.846,2.852,1.67,4.292,2.45Zm-169.219-1.9-.449-.425c1.132-1.2,2.3-2.39,3.482-3.548l.434.441C267.877,3407.091,266.711,3408.279,265.583,3409.47Zm160.7-3.215c-1.369-.909-2.741-1.864-4.079-2.838l.365-.5c1.33.969,2.695,1.919,4.057,2.822Zm-153.642-3.723-.418-.457c1.219-1.115,2.474-2.222,3.732-3.292l.4.472C275.107,3400.319,273.857,3401.422,272.644,3402.532Zm145.613-2.127c-1.284-1.023-2.569-2.092-3.82-3.177l.406-.467c1.245,1.079,2.523,2.142,3.8,3.159Zm-138.066-4.292-.384-.486c1.3-1.024,2.629-2.04,3.961-3.018l.366.5C282.807,3394.081,281.48,3395.092,280.19,3396.112Zm130.559-2.214c-.428-.4-.856-.81-1.274-1.213-.766-.74-1.552-1.474-2.337-2.181l.414-.459c.79.711,1.581,1.45,2.352,2.2.416.4.842.808,1.268,1.208Zm-122.565-3.653-.347-.511c1.372-.933,2.776-1.85,4.173-2.726l.328.524C290.948,3388.4,289.55,3389.317,288.184,3390.245Zm115.191-2.948c-1.286-1.035-2.612-2.041-3.939-2.989l.36-.5c1.337.955,2.672,1.968,3.967,3.01Zm-106.785-2.325-.309-.537c1.437-.829,2.907-1.64,4.367-2.41l.289.548C299.483,3383.34,298.021,3384.148,296.59,3384.973Zm98.739-3.416c-1.394-.875-2.828-1.716-4.264-2.5l.3-.543c1.446.79,2.892,1.637,4.3,2.519Zm-89.956-1.214-.267-.558c1.5-.717,3.021-1.41,4.529-2.061l.245.568C308.379,3378.939,306.862,3379.629,305.373,3380.343Zm81.283-3.52c-1.487-.7-3.014-1.355-4.539-1.957l.227-.575c1.536.606,3.076,1.269,4.575,1.971Zm-72.19-.4-.222-.578c1.551-.594,3.127-1.162,4.683-1.685l.2.586C317.576,3375.269,316.008,3375.833,314.466,3376.425Zm9.383-3.152-.171-.594c1.6-.46,3.215-.888,4.811-1.272l.145.6C327.046,3372.39,325.436,3372.815,323.849,3373.273Zm53.619-.076c-1.557-.5-3.154-.968-4.745-1.377l.155-.6c1.6.413,3.212.88,4.781,1.388Zm-44-2.232-.116-.607c1.634-.312,3.286-.587,4.91-.817l.086.613C336.736,3370.381,335.094,3370.655,333.47,3370.965Zm34.431-.229c-1.6-.31-3.247-.577-4.879-.793l.081-.614c1.644.217,3.3.486,4.915.8Zm-24.625-1.153-.056-.616c1.656-.149,3.33-.256,4.974-.318l.023.618C346.584,3369.328,344.922,3369.434,343.276,3369.582Zm14.828-.145c-1.629-.119-3.291-.194-4.941-.222l.011-.619c1.661.029,3.335.1,4.975.224Z" transform="translate(-233.262 -3368.597)" fill="#e4e4e4"/>
      </g>
    </g>
    <g id="Grupo_113087" data-name="Grupo 113087" transform="translate(217.478 3344.15)">
      <path id="Trazado_168342" data-name="Trazado 168342" d="M591.949,3551.3h-362.6c11.348-83.84,88.184-148.691,181.3-148.691S580.6,3467.46,591.949,3551.3Z" transform="translate(-229.351 -3402.609)" fill="#ffe5cf"/>
    </g>
    <g id="Grupo_113088" data-name="Grupo 113088" transform="translate(384.93 3273.476)">
      <rect id="Rectángulo_45197" data-name="Rectángulo 45197" width="159.379" height="218.628" rx="18.796" fill="#ffb476"/>
    </g>
    <rect id="Rectángulo_45198" data-name="Rectángulo 45198" width="131.181" height="190.556" transform="translate(399.334 3282.287)" fill="#f6f5f5"/>
    <path id="Trazado_168343" data-name="Trazado 168343" d="M657.846,3301.471c.041,74.307,2.44,163.924-5.907,183.766-36.764,3.582-79.812,4.732-125.276,4.946l17.282-188.137Z" transform="translate(-127.332 -19.183)" fill="#e4e4e4"/>
    <path id="Trazado_168344" data-name="Trazado 168344" d="M641.454,3479.237c-57.3,9.171-95.6,9.655-126.662,7.348,4.025-42.849,5.639-114.031,7.262-185.1l69.05.154,62.494,4.125C654.508,3379.525,654.607,3447.66,641.454,3479.237Z" transform="translate(-122.721 -19.188)" fill="#fff"/>
    <rect id="Rectángulo_45199" data-name="Rectángulo 45199" width="69.028" height="10.514" transform="translate(429.476 3299.861) rotate(1.348)" fill="#ffb476"/>
    <g id="Grupo_113089" data-name="Grupo 113089" transform="translate(449.43 3325.742)">
      <rect id="Rectángulo_45200" data-name="Rectángulo 45200" width="62.263" height="4.813" transform="matrix(1, 0.024, -0.024, 1, 0.113, 0)" fill="#ffb476"/>
    </g>
    <g id="Grupo_113090" data-name="Grupo 113090" transform="translate(449.183 3336.233)">
      <rect id="Rectángulo_45201" data-name="Rectángulo 45201" width="42.321" height="4.813" transform="translate(0.113 0) rotate(1.348)" fill="#ffe5cf"/>
    </g>
    <rect id="Rectángulo_45202" data-name="Rectángulo 45202" width="14.74" height="14.74" transform="matrix(1, 0.024, -0.024, 1, 415.193, 3325.217)" fill="#fff"/>
    <path id="Trazado_168345" data-name="Trazado 168345" d="M566.916,3386.912l-15.664-.369.369-15.664,15.663.369Zm-14.714-1.275,13.808.325.325-13.808-13.808-.325Z" transform="translate(-136.88 -46.137)" fill="#24cb9f"/>
    <g id="Grupo_113092" data-name="Grupo 113092" transform="translate(417.566 3320.374)">
      <g id="Grupo_113091" data-name="Grupo 113091" transform="translate(0 0)">
        <path id="Trazado_168346" data-name="Trazado 168346" d="M556.5,3372.458c.455,1.741,1.295,9.037,4.949,7a11.132,11.132,0,0,0,2.186-2.429l3.4-3.859,6.8-7.718c.581-.659-1.983-2.313-2.712-1.485l-6.043,6.86-3.021,3.43c-.7.794-2.315,3.353-3.352,3.58l1.692.546c.4.327-.342-1.99-.358-2.053l-.843-3.229c-.232-.889-3.038-1.958-2.694-.64Z" transform="translate(-556.474 -3363.737)" fill="#cc905e"/>
      </g>
    </g>
    <g id="Grupo_113093" data-name="Grupo 113093" transform="translate(448.799 3352.533)">
      <rect id="Rectángulo_45203" data-name="Rectángulo 45203" width="51.272" height="4.813" transform="translate(0.113) rotate(1.348)" fill="#ffb476"/>
    </g>
    <g id="Grupo_113094" data-name="Grupo 113094" transform="translate(448.552 3363.023)">
      <rect id="Rectángulo_45204" data-name="Rectángulo 45204" width="62.263" height="4.813" transform="translate(0.113 0) rotate(1.348)" fill="#ffe5cf"/>
    </g>
    <rect id="Rectángulo_45205" data-name="Rectángulo 45205" width="14.74" height="14.74" transform="matrix(1, 0.024, -0.024, 1, 414.563, 3352.008)" fill="#fff"/>
    <path id="Trazado_168347" data-name="Trazado 168347" d="M565.885,3430.711l-15.664-.369.369-15.664,15.664.368Zm-14.714-1.275,13.808.325.325-13.808-13.808-.325Z" transform="translate(-136.48 -63.146)" fill="#24cb9f"/>
    <g id="Grupo_113096" data-name="Grupo 113096" transform="translate(416.926 3347.579)">
      <g id="Grupo_113095" data-name="Grupo 113095">
        <path id="Trazado_168348" data-name="Trazado 168348" d="M555.456,3416.937c.455,1.741,1.3,9.037,4.949,7a11.138,11.138,0,0,0,2.186-2.429l3.4-3.859,6.8-7.718c.581-.659-1.984-2.313-2.713-1.485l-6.043,6.86-3.021,3.43c-.7.793-2.315,3.353-3.352,3.579l1.691.546c.4.327-.342-1.99-.358-2.053l-.843-3.229c-.232-.889-3.037-1.958-2.694-.64Z" transform="translate(-555.427 -3408.216)" fill="#cc905e"/>
      </g>
    </g>
    <g id="Grupo_113097" data-name="Grupo 113097" transform="translate(448.169 3379.323)">
      <rect id="Rectángulo_45206" data-name="Rectángulo 45206" width="62.263" height="4.813" transform="translate(0.113 0) rotate(1.348)" fill="#ffb476"/>
    </g>
    <g id="Grupo_113098" data-name="Grupo 113098" transform="translate(447.922 3389.814)">
      <rect id="Rectángulo_45207" data-name="Rectángulo 45207" width="27.845" height="4.813" transform="translate(0.113 0) rotate(1.348)" fill="#ffe5cf"/>
    </g>
    <rect id="Rectángulo_45208" data-name="Rectángulo 45208" width="14.74" height="14.74" transform="matrix(1, 0.024, -0.024, 1, 413.932, 3378.798)" fill="#fff"/>
    <path id="Trazado_168349" data-name="Trazado 168349" d="M564.854,3474.51l-15.664-.368.369-15.664,15.664.369Zm-14.714-1.274,13.808.325.325-13.808-13.808-.325Z" transform="translate(-136.08 -80.155)" fill="#24cb9f"/>
    <g id="Grupo_113100" data-name="Grupo 113100" transform="translate(416.495 3374.56)">
      <g id="Grupo_113099" data-name="Grupo 113099" transform="translate(0 0)">
        <path id="Trazado_168350" data-name="Trazado 168350" d="M554.752,3461.047c.455,1.742,1.3,9.038,4.949,7a11.119,11.119,0,0,0,2.186-2.43l3.4-3.859,6.8-7.718c.58-.659-1.984-2.313-2.713-1.485l-6.043,6.86-3.021,3.43c-.7.794-2.315,3.353-3.352,3.58l1.691.546c.4.327-.342-1.991-.358-2.054q-.421-1.614-.843-3.228c-.232-.889-3.038-1.958-2.694-.641Z" transform="translate(-554.723 -3452.326)" fill="#cc905e"/>
      </g>
    </g>
    <g id="Grupo_113101" data-name="Grupo 113101" transform="translate(447.538 3406.114)">
      <rect id="Rectángulo_45209" data-name="Rectángulo 45209" width="62.263" height="4.813" transform="translate(0.113) rotate(1.348)" fill="#ffb476"/>
    </g>
    <g id="Grupo_113102" data-name="Grupo 113102" transform="translate(447.291 3416.604)">
      <rect id="Rectángulo_45210" data-name="Rectángulo 45210" width="49.185" height="4.813" transform="matrix(1, 0.024, -0.024, 1, 0.113, 0)" fill="#ffe5cf"/>
    </g>
    <rect id="Rectángulo_45211" data-name="Rectángulo 45211" width="14.74" height="14.74" transform="matrix(1, 0.024, -0.024, 1, 413.302, 3405.588)" fill="#fff"/>
    <path id="Trazado_168351" data-name="Trazado 168351" d="M563.823,3518.31l-15.663-.369.368-15.663,15.664.368Zm-14.714-1.275,13.808.325.325-13.807-13.808-.325Z" transform="translate(-135.68 -97.164)" fill="#24cb9f"/>
    <g id="Grupo_113104" data-name="Grupo 113104" transform="translate(415.869 3401.175)">
      <g id="Grupo_113103" data-name="Grupo 113103">
        <path id="Trazado_168352" data-name="Trazado 168352" d="M553.729,3504.56c.455,1.742,1.3,9.037,4.949,7a11.148,11.148,0,0,0,2.186-2.43l3.4-3.859,6.8-7.718c.58-.66-1.984-2.313-2.713-1.486l-6.043,6.86-3.021,3.43c-.7.794-2.315,3.353-3.352,3.58l1.691.546c.4.327-.342-1.991-.358-2.054l-.843-3.228c-.232-.89-3.037-1.958-2.694-.641Z" transform="translate(-553.699 -3495.838)" fill="#cc905e"/>
      </g>
    </g>
    <g id="Grupo_113105" data-name="Grupo 113105" transform="translate(446.912 3432.701)">
      <rect id="Rectángulo_45212" data-name="Rectángulo 45212" width="24.681" height="4.813" transform="matrix(1, 0.024, -0.024, 1, 0.113, 0)" fill="#ffb476"/>
    </g>
    <g id="Grupo_113106" data-name="Grupo 113106" transform="translate(446.665 3443.192)">
      <path id="Trazado_168353" data-name="Trazado 168353" d="M666.408,3566l-62.246-1.465-.113,4.811c24.082.565,54.745,1.693,61,.733A5.4,5.4,0,0,0,666.408,3566Z" transform="translate(-604.049 -3564.532)" fill="#ffe5cf"/>
    </g>
    <g id="Grupo_113107" data-name="Grupo 113107" transform="translate(412.061 3431.706)">
      <rect id="Rectángulo_45213" data-name="Rectángulo 45213" width="14.74" height="14.74" transform="translate(0.821 0.475) rotate(1.348)" fill="#fff"/>
      <path id="Trazado_168354" data-name="Trazado 168354" d="M563.137,3561.786l-15.663-.369.368-15.663,15.664.369Zm-14.714-1.275,13.808.325.325-13.808-13.808-.325Z" transform="translate(-547.474 -3545.754)" fill="#24cb9f"/>
    </g>
    <g id="Grupo_113109" data-name="Grupo 113109" transform="translate(415.248 3427.556)">
      <g id="Grupo_113108" data-name="Grupo 113108">
        <path id="Trazado_168355" data-name="Trazado 168355" d="M552.714,3547.691c.455,1.741,1.3,9.037,4.949,7a11.135,11.135,0,0,0,2.186-2.429l3.4-3.859,6.8-7.718c.581-.659-1.983-2.313-2.712-1.485l-6.043,6.86-3.021,3.43c-.7.793-2.315,3.353-3.353,3.58l1.692.546c.4.327-.342-1.99-.358-2.053l-.843-3.229c-.232-.889-3.037-1.958-2.694-.64Z" transform="translate(-552.684 -3538.97)" fill="#cc905e"/>
      </g>
    </g>
    <g id="Grupo_113113" data-name="Grupo 113113" transform="translate(430.278 3252.074)">
      <g id="Grupo_113110" data-name="Grupo 113110" transform="translate(4.796)">
        <path id="Trazado_168356" data-name="Trazado 168356" d="M644.187,3274.8v14.708H585.1V3274.8a8.487,8.487,0,0,1,2.487-6.008,7.09,7.09,0,0,1,.6-.538,8.434,8.434,0,0,1,5.408-1.949,10,10,0,0,0,4.343-.99,10.439,10.439,0,0,0,1.634-.984,10,10,0,0,0,3.626-5.142,10.041,10.041,0,0,1,9.6-7.116h3.688a10.04,10.04,0,0,1,9.6,7.116,10,10,0,0,0,3.626,5.142,10.438,10.438,0,0,0,1.634.984,10,10,0,0,0,4.343.99,8.507,8.507,0,0,1,8.5,8.5Z" transform="translate(-585.097 -3252.074)" fill="#ee6f57"/>
      </g>
      <g id="Grupo_113111" data-name="Grupo 113111" transform="translate(0 30.213)">
        <path id="Trazado_168357" data-name="Trazado 168357" d="M645.938,3301.469V3312.4H577.257v-10.933h4.8v7.221h59.09v-7.221Z" transform="translate(-577.257 -3301.469)" fill="#e4e4e4"/>
      </g>
      <g id="Grupo_113112" data-name="Grupo 113112" transform="translate(29.1 3.835)">
        <ellipse id="Elipse_5074" data-name="Elipse 5074" cx="5.241" cy="4.981" rx="5.241" ry="4.981" fill="#fff"/>
      </g>
    </g>
    <g id="Grupo_113116" data-name="Grupo 113116" transform="translate(346.46 3311.268)">
      <g id="Grupo_113114" data-name="Grupo 113114" transform="translate(0 0)">
        <path id="Trazado_168358" data-name="Trazado 168358" d="M445.138,3367.329c-2.1-.4-4.055-3.9-4.735-5.241a1.667,1.667,0,0,1-.15-1.065l.834-4.421s1.924.327,1.776,2.89a1.9,1.9,0,0,0,.134.781l.737,1.927,2.178-1.687-1.195-3.373a5.788,5.788,0,0,1-2.424.175c-1.695-.541.527-1.862,1.229-2s2.248-.7,2.951.492,1.124,1.9,1.124,1.9.773-2.67.246-8.643c-.023-.269.65-.263.839-.071.566.576,1.467,2.329,1.515,7.66,0,0,.094-6.212,1.159-6.851.878-.527,1.322,2.513.7,7.669,0,0,1.147-4.464,1.967-4.473,1.384-.013.018,11.923-3.463,15.481Z" transform="translate(-440.223 -3348.85)" fill="#f9b384"/>
      </g>
      <g id="Grupo_113115" data-name="Grupo 113115" transform="translate(1.426 16.652)">
        <path id="Trazado_168359" data-name="Trazado 168359" d="M452.615,3376.074q-.093.891-.2,1.727v.006a50.167,50.167,0,0,1-.916,5.265c-.019.075-.031.143-.05.21-1.058,4.337-1.25,6.46-4.863,5.891l-3.719-4.233-.037-.043-.272-.309.755-2.228.1-.291.557-1.621.068-.21.953-2.791.383-1.132Z" transform="translate(-442.554 -3376.074)" fill="#f9b384"/>
      </g>
    </g>
    <g id="Grupo_113121" data-name="Grupo 113121" transform="translate(277.396 3474.21)">
      <g id="Grupo_113117" data-name="Grupo 113117" transform="translate(0 7.818)">
        <path id="Trazado_168360" data-name="Trazado 168360" d="M338.777,3628.026l-.947,2.959c-6.49,2.132-10.276,4.575-10.519,7.425H346.08l1.5-9.906A14.553,14.553,0,0,1,338.777,3628.026Z" transform="translate(-327.311 -3628.026)" fill="#993a2b"/>
      </g>
      <g id="Grupo_113118" data-name="Grupo 113118" transform="translate(11.466 0.464)">
        <path id="Trazado_168361" data-name="Trazado 168361" d="M348.409,3616l-2.353,7.354a14.553,14.553,0,0,0,8.808.478l.97-6.388Z" transform="translate(-346.056 -3616.003)" fill="#f9b384"/>
      </g>
      <g id="Grupo_113119" data-name="Grupo 113119" transform="translate(37.159)">
        <path id="Trazado_168362" data-name="Trazado 168362" d="M396.81,3622.734l.551-7.491-8.817.464-.481,6.905A14.429,14.429,0,0,0,396.81,3622.734Z" transform="translate(-388.062 -3615.244)" fill="#f9b384"/>
      </g>
      <g id="Grupo_113120" data-name="Grupo 113120" transform="translate(36.403 7.369)">
        <path id="Trazado_168363" data-name="Trazado 168363" d="M406.936,3638.124c-.243-2.85-3.558-6.755-10.828-7.683l.223-3.028a14.428,14.428,0,0,1-8.748-.121l-.756,10.832Z" transform="translate(-386.826 -3627.292)" fill="#993a2b"/>
      </g>
    </g>
    <g id="Grupo_113122" data-name="Grupo 113122" transform="translate(305.52 3315.656)">
      <path id="Trazado_168364" data-name="Trazado 168364" d="M383.927,3372.038l-10.636.074v-16.087h10.315l.006.984.049,5.1.074,8.186Z" transform="translate(-373.291 -3356.025)" fill="#f9b384"/>
    </g>
    <g id="Grupo_113123" data-name="Grupo 113123" transform="translate(306.888 3317.413)">
      <path id="Trazado_168365" data-name="Trazado 168365" d="M384.529,3364c-1.912,2.011-6.9-.26-9-2.475l8.953-2.624Z" transform="translate(-375.527 -3358.897)" fill="#e28b6d"/>
    </g>
    <g id="Grupo_113124" data-name="Grupo 113124" transform="translate(301.528 3301.227)">
      <path id="Trazado_168366" data-name="Trazado 168366" d="M383.595,3343.151a22.987,22.987,0,0,1-.278,3.62c-.52,3.242-1.893,6.045-5.061,6.132-7.487.217-9.621-4.065-11.032-7.568s.878-11.942.878-11.942l9.69-.959,5.321,4.362A39.659,39.659,0,0,1,383.595,3343.151Z" transform="translate(-366.764 -3332.434)" fill="#f9b384"/>
    </g>
    <g id="Grupo_113125" data-name="Grupo 113125" transform="translate(296.821 3294.846)">
      <path id="Trazado_168367" data-name="Trazado 168367" d="M364.537,3339.278s2.136-.1,2.5-5.612a7.548,7.548,0,0,0,8.822-2.431,5.106,5.106,0,0,0,8.953-1.83c1.289-3.687-2.269-9.178-7.451-5.852-5.079-2.566-12.782-2.39-15,3.9,0,0-7.706,3.552.453,11.375A9.5,9.5,0,0,0,364.537,3339.278Z" transform="translate(-359.069 -3322.002)" fill="#102048"/>
    </g>
    <g id="Grupo_113126" data-name="Grupo 113126" transform="translate(312.046 3389.488)">
      <path id="Trazado_168368" data-name="Trazado 168368" d="M403.658,3476.732l-5.879,88.9H383.96l3.455-86.263,2.114-.98Z" transform="translate(-383.96 -3476.732)" fill="#041d27"/>
    </g>
    <g id="Grupo_113127" data-name="Grupo 113127" transform="translate(286.058 3370.725)">
      <path id="Trazado_168369" data-name="Trazado 168369" d="M351.167,3452.656l-9.694,101.062h15.056l14.334-83.943,16.294-4.95.722-17.944-36.3-.825Z" transform="translate(-341.473 -3446.056)" fill="#083142"/>
    </g>
    <g id="Grupo_113128" data-name="Grupo 113128" transform="translate(294.856 3367.319)" opacity="0.6">
      <path id="Trazado_168370" data-name="Trazado 168370" d="M358.914,3450.714c8.224,2.952,27.518-.421,31.524-4.534l-2.847-5.693-31.735,4.217Z" transform="translate(-355.856 -3440.487)" fill="#102048"/>
    </g>
    <g id="Grupo_113129" data-name="Grupo 113129" transform="translate(299.809 3326.021)">
      <path id="Trazado_168371" data-name="Trazado 168371" d="M392.843,3418.589c-.266.111-.538.229-.817.334a55.824,55.824,0,0,1-10.308,3.069,47.359,47.359,0,0,1-6.912.848,39.931,39.931,0,0,1-10.853-.879l4.609-42.978.563-5.241s6.033,7.425,12.684-.773Z" transform="translate(-363.954 -3372.969)" fill="#fff"/>
    </g>
    <g id="Grupo_113130" data-name="Grupo 113130" transform="translate(299.809 3329.656)" opacity="0.3">
      <path id="Trazado_168372" data-name="Trazado 168372" d="M374.807,3425.148a39.922,39.922,0,0,1-10.853-.879l4.609-42.978,1.646-2.379C374.275,3388.8,378.439,3410.694,374.807,3425.148Z" transform="translate(-363.954 -3378.912)" fill="#1f3c88"/>
    </g>
    <g id="Grupo_113131" data-name="Grupo 113131" transform="translate(254.348 3325.092)">
      <path id="Trazado_168373" data-name="Trazado 168373" d="M340.8,3371.451c4.583,19.46,6.469,39.484-.284,61.72-5.007,1.905-10.459,1.884-16.293.206l1.444-40.425-33.979,23.357-2.063-12.735C302.691,3391.085,325.275,3372.217,340.8,3371.451Z" transform="translate(-289.629 -3371.451)" fill="#ff6148"/>
    </g>
    <g id="Grupo_113132" data-name="Grupo 113132" transform="translate(315.722 3335.301)" opacity="0.3">
      <path id="Trazado_168374" data-name="Trazado 168374" d="M402.13,3424.815a55.862,55.862,0,0,1-10.308,3.069c-2.048-11.744-2.5-31.036-.836-39.742Z" transform="translate(-389.97 -3388.142)" fill="#1f3c88"/>
    </g>
    <g id="Grupo_113133" data-name="Grupo 113133" transform="translate(348.158 3332.084)" opacity="0.6">
      <path id="Trazado_168375" data-name="Trazado 168375" d="M451.668,3385.716c-.019.075-.031.143-.05.21-1.058,4.337-1.25,6.459-4.863,5.891l-3.719-4.232-.037-.043.483-2.537.1-.291.557-1.622.068-.21Z" transform="translate(-442.999 -3382.882)" fill="#e28b6d"/>
    </g>
    <g id="Grupo_113134" data-name="Grupo 113134" transform="translate(315.849 3324.86)">
      <path id="Trazado_168376" data-name="Trazado 168376" d="M430.512,3385.071s-9.127,19.336-14.541,19.8c-5.248.449-7.734-4.641-7.734-4.641l3.712,28.258a23.7,23.7,0,0,1-14.646,2.061c-4.907-15.933-6.761-36.534-7.126-59.477,3.972.248,11.84.586,14.657,2.4,5.053,3.249,11.292,14.85,11.292,14.85l7.27-9.9Z" transform="translate(-390.177 -3371.072)" fill="#ff6148"/>
    </g>
    <g id="Grupo_113142" data-name="Grupo 113142" transform="translate(239.207 3302.786)">
      <g id="Grupo_113135" data-name="Grupo 113135" transform="translate(5.716)">
        <path id="Trazado_168377" data-name="Trazado 168377" d="M274.221,3343.812s.552-9.25,1.494-8.813,2.829,8.479,2.829,8.479l-2.018,3.258Z" transform="translate(-274.221 -3334.984)" fill="#6f3428"/>
      </g>
      <g id="Grupo_113136" data-name="Grupo 113136" transform="translate(13.247 175.858)">
        <path id="Trazado_168378" data-name="Trazado 168378" d="M306.778,3622.494l.273,3.044a9.77,9.77,0,0,1-8.857,10.6l-.782.07a9.771,9.771,0,0,1-10.606-8.856l-.273-3.044Z" transform="translate(-286.533 -3622.494)" fill="#ee6f57"/>
      </g>
      <g id="Grupo_113137" data-name="Grupo 113137" transform="translate(0.003 28.448)">
        <rect id="Rectángulo_45214" data-name="Rectángulo 45214" width="20.326" height="148.004" transform="translate(0 1.819) rotate(-5.134)" fill="#fbc343"/>
      </g>
      <g id="Grupo_113138" data-name="Grupo 113138" transform="translate(5.591 25.407)" opacity="0.3">
        <path id="Trazado_168379" data-name="Trazado 168379" d="M285.736,3507.72l-11.719-130.443,8.423-.756,11.719,130.442ZM275.36,3378.4l11.5,127.978,5.958-.535-11.5-127.978Z" transform="translate(-274.017 -3376.521)" fill="#6f3428"/>
      </g>
      <g id="Grupo_113139" data-name="Grupo 113139" transform="translate(11.201 153.109)">
        <path id="Trazado_168380" data-name="Trazado 168380" d="M305.476,3608.052l-20.239,1.819-.532-5.94-.371-4.127-1.145-12.684,20.245-1.819,1.138,12.684.371,4.127Z" transform="translate(-283.189 -3585.301)" fill="#102048"/>
      </g>
      <g id="Grupo_113140" data-name="Grupo 113140" transform="translate(12.346 165.793)">
        <rect id="Rectángulo_45215" data-name="Rectángulo 45215" width="20.321" height="4.144" transform="translate(0 1.819) rotate(-5.136)" fill="#fbc343"/>
      </g>
      <g id="Grupo_113141" data-name="Grupo 113141" transform="translate(0 7.137)">
        <path id="Trazado_168381" data-name="Trazado 168381" d="M264.876,3369.782l5.624-22.537a4.831,4.831,0,0,0,4.3-.593l10.327,21.311Z" transform="translate(-264.876 -3346.652)" fill="#ee6f57"/>
      </g>
    </g>
    <g id="Grupo_113143" data-name="Grupo 113143" transform="translate(298.533 3310.176)">
      <path id="Trazado_168382" data-name="Trazado 168382" d="M366.743,3348.079c-.091-.333-1.6-.79-1.934-.881a2.315,2.315,0,0,0-1.578.015c-1.827.825-1.583,3.442-.636,4.816a4.119,4.119,0,0,0,2.234,1.64c.332.1,3.475.133,3.337-.373Z" transform="translate(-361.868 -3347.065)" fill="#f9b384"/>
    </g>
    <g id="Grupo_113144" data-name="Grupo 113144" transform="translate(237.713 3361.797)">
      <path id="Trazado_168383" data-name="Trazado 168383" d="M270.612,3433.427a2.751,2.751,0,0,0-3.516-1.817c-2.3.8-4.309,2.145-4.619,4.439-.283,2.09.762,8.766,5.431,9.624l-.381-3.43s2.858-.667,3.43-1.906C271.357,3439.47,271.384,3435.849,270.612,3433.427Z" transform="translate(-262.434 -3431.46)" fill="#f9b384"/>
    </g>
    <g id="Grupo_113145" data-name="Grupo 113145" transform="translate(332.241 3340.805)">
      <path id="Trazado_168384" data-name="Trazado 168384" d="M417.217,3397.14c.245,1.461.454,2.926.655,4.392s.372,2.936.56,4.4l.48,4.413c.14,1.473.277,2.947.368,4.426l-.24.028c-.253-1.46-.46-2.926-.664-4.391l-.552-4.4c-.155-1.472-.335-2.94-.471-4.414s-.278-2.947-.376-4.425Z" transform="translate(-416.977 -3397.14)" fill="#ff6148"/>
    </g>
    <g id="Grupo_113146" data-name="Grupo 113146" transform="translate(289.701 3340.555)">
      <path id="Trazado_168385" data-name="Trazado 168385" d="M348.6,3396.743c0,1.641-.043,3.28-.092,4.918s-.126,3.275-.187,4.913l-.268,4.909c-.11,1.635-.223,3.271-.382,4.9l-.242-.011c0-1.641.038-3.28.083-4.918l.2-4.914c.094-1.636.164-3.274.277-4.909s.221-3.271.372-4.9Z" transform="translate(-347.428 -3396.732)" fill="#1f3c88"/>
    </g>
    <g id="Grupo_113147" data-name="Grupo 113147" transform="translate(309.335 3310.138)">
      <path id="Trazado_168386" data-name="Trazado 168386" d="M381.111,3347.9a.973.973,0,0,1-.537,1.23c-.427.1-.88-.3-1.01-.883a.973.973,0,0,1,.536-1.23C380.528,3346.921,380.98,3347.317,381.111,3347.9Z" transform="translate(-379.529 -3347.003)" fill="#102048"/>
    </g>
    <g id="Grupo_113148" data-name="Grupo 113148" transform="translate(315.5 3309.199)">
      <path id="Trazado_168387" data-name="Trazado 168387" d="M391.192,3346.583c-.026.6-.4,1.067-.838,1.048s-.771-.518-.746-1.115.4-1.067.838-1.048S391.217,3345.985,391.192,3346.583Z" transform="translate(-389.607 -3345.467)" fill="#102048"/>
    </g>
    <g id="Grupo_113149" data-name="Grupo 113149" transform="translate(313.41 3310.804)">
      <path id="Trazado_168388" data-name="Trazado 168388" d="M386.427,3348.092a14.054,14.054,0,0,1,.315,1.482,1.168,1.168,0,0,0,.3.514,1.963,1.963,0,0,0,.581.286,1.613,1.613,0,0,1,.733.552.961.961,0,0,1,.075,1.013,1.906,1.906,0,0,1-.6.612c-.212.143-.417.3-.637.429l-.159-.182c.162-.2.341-.382.511-.573a1.792,1.792,0,0,0,.4-.521c.132-.286-.149-.6-.555-.761a2.165,2.165,0,0,1-.754-.428,1.511,1.511,0,0,1-.4-.818c-.1-.573.015-1.064-.041-1.54Z" transform="translate(-386.191 -3348.092)" fill="#e28b6d"/>
    </g>
    <g id="Grupo_113150" data-name="Grupo 113150" transform="translate(307.966 3308.081)">
      <path id="Trazado_168389" data-name="Trazado 168389" d="M377.29,3345.028a1.8,1.8,0,0,1,.631-.965,1.922,1.922,0,0,1,1.122-.42,2.075,2.075,0,0,1,1.951,1.1l-.189.15a2.659,2.659,0,0,0-1.732-.632,2.024,2.024,0,0,0-1.564.872Z" transform="translate(-377.29 -3343.64)" fill="#102048"/>
    </g>
    <g id="Grupo_113151" data-name="Grupo 113151" transform="translate(314.352 3307.475)">
      <path id="Trazado_168390" data-name="Trazado 168390" d="M387.73,3343.885a1.876,1.876,0,0,1,.486-.782,1.619,1.619,0,0,1,.878-.434,1.541,1.541,0,0,1,1.641.819l-.194.145a1.962,1.962,0,0,0-1.356-.355,1.748,1.748,0,0,0-.647.237,4.27,4.27,0,0,0-.6.494Z" transform="translate(-387.73 -3342.648)" fill="#102048"/>
    </g>
    <g id="Grupo_113152" data-name="Grupo 113152" transform="translate(310.93 3316.797)">
      <path id="Trazado_168391" data-name="Trazado 168391" d="M382.135,3357.889c1.08,1.691,2.519,1.875,3.631.1Z" transform="translate(-382.135 -3357.889)" fill="#fff"/>
    </g>
    <g id="Grupo_113153" data-name="Grupo 113153" transform="translate(316.788 3311.531)" opacity="0.4">
      <path id="Trazado_168392" data-name="Trazado 168392" d="M393.313,3349.281a28.593,28.593,0,0,1-.308,4.032,1.864,1.864,0,0,1-1.293-1.776A2.38,2.38,0,0,1,393.313,3349.281Z" transform="translate(-391.712 -3349.281)" fill="#fc8879"/>
    </g>
    <g id="Grupo_113154" data-name="Grupo 113154" transform="translate(306.297 3312.898)" opacity="0.4">
      <circle id="Elipse_5075" data-name="Elipse 5075" cx="1.995" cy="1.995" r="1.995" transform="translate(0 0)" fill="#fc8879"/>
    </g>
    <g id="Grupo_113155" data-name="Grupo 113155" transform="translate(299.775 3311.736)">
      <path id="Trazado_168393" data-name="Trazado 168393" d="M366.224,3351.056a9.99,9.99,0,0,0-1.116-.734.966.966,0,0,0-.492-.128,1.088,1.088,0,0,0-.515.236l-.2-.132a.962.962,0,0,1,.588-.632,1.149,1.149,0,0,1,.9.1,2.318,2.318,0,0,1,1.035,1.14Z" transform="translate(-363.899 -3349.616)" fill="#e28b6d"/>
    </g>
    <g id="Grupo_113156" data-name="Grupo 113156" transform="translate(242.771 3370.674)" opacity="0.6">
      <path id="Trazado_168394" data-name="Trazado 168394" d="M274.168,3445.973,271.3,3454.7l-.593-6.819A5.952,5.952,0,0,0,274.168,3445.973Z" transform="translate(-270.703 -3445.973)" fill="#6f3428"/>
    </g>
    <rect id="Rectángulo_45216" data-name="Rectángulo 45216" width="400" height="1.237" transform="translate(198.777 3491.85)" fill="#102048"/>
  </g>
</svg>
