<svg xmlns="http://www.w3.org/2000/svg" width="105.096" height="92.859" viewBox="0 0 105.096 92.859">
  <g id="desarrollador-de-software_1_" data-name="desarrollador-de-software(1)" transform="translate(0 -29.809)">
    <g id="Grupo_111645" data-name="Grupo 111645" transform="translate(2.053 42.555)">
      <path id="Trazado_167292" data-name="Trazado 167292" d="M13.769,91.9A3.82,3.82,0,0,0,10,95.88v54.408a3.73,3.73,0,0,0,3.769,3.56H87.646a3.73,3.73,0,0,0,3.769-3.56V122.241H87.991a2.813,2.813,0,0,1-2.812-2.814v-2.005a3.05,3.05,0,0,0-4.521-2.611l-1.737,1a2.812,2.812,0,0,1-3.843-1.031l-3.237-5.6a2.815,2.815,0,0,1,1.029-3.843l1.737-1a3.085,3.085,0,0,0,0-5.221l-1.735-1a2.814,2.814,0,0,1-1.031-3.843L73.21,91.9H13.769Z" transform="translate(-10 -91.901)" fill="#fff"/>
    </g>
    <g id="Grupo_111646" data-name="Grupo 111646" transform="translate(2.053 94.055)">
      <path id="Trazado_167293" data-name="Trazado 167293" d="M91.416,342.795v6.887a3.732,3.732,0,0,1-3.771,3.559H13.769A3.731,3.731,0,0,1,10,349.682v-6.887Z" transform="translate(-10 -342.795)" fill="#ced3dd"/>
    </g>
    <g id="Grupo_111650" data-name="Grupo 111650" transform="translate(26.016 104.501)">
      <g id="Grupo_111647" data-name="Grupo 111647" transform="translate(2.4)">
        <path id="Trazado_167294" data-name="Trazado 167294" d="M163.313,404.555l-1.267-10.872H145.6l-1.267,10.872a5.9,5.9,0,0,1-5.873,5.235c-.1,0,.1.006,0,.006h30.727c-.1,0,.1,0,0-.006A5.9,5.9,0,0,1,163.313,404.555Z" transform="translate(-138.43 -393.683)" fill="#868eaf"/>
      </g>
      <g id="Grupo_111648" data-name="Grupo 111648" transform="translate(0 16.114)">
        <path id="Trazado_167295" data-name="Trazado 167295" d="M129.168,472.183h-2.429" transform="translate(-126.739 -472.183)" fill="#7ba8bd"/>
      </g>
      <g id="Grupo_111649" data-name="Grupo 111649" transform="translate(33.156 16.114)">
        <path id="Trazado_167296" data-name="Trazado 167296" d="M290.692,472.183h-2.429" transform="translate(-288.263 -472.183)" fill="#7ba8bd"/>
      </g>
    </g>
    <g id="Grupo_111651" data-name="Grupo 111651" transform="translate(63.518 31.862)">
      <path id="Trazado_167297" data-name="Trazado 167297" d="M310.844,56.714l1.735,1a3.085,3.085,0,0,1,0,5.22l-1.737,1a2.813,2.813,0,0,0-1.029,3.842l3.237,5.606a2.813,2.813,0,0,0,3.842,1.031l1.737-1a3.05,3.05,0,0,1,4.52,2.609v2.007a2.813,2.813,0,0,0,2.813,2.813h6.473a2.813,2.813,0,0,0,2.813-2.813V76.023a3.05,3.05,0,0,1,4.52-2.609l1.737,1a2.812,2.812,0,0,0,3.842-1.031l3.238-5.606a2.812,2.812,0,0,0-1.031-3.842l-1.735-1a3.085,3.085,0,0,1,0-5.22l1.735-1a2.813,2.813,0,0,0,1.031-3.842l-3.238-5.607a2.812,2.812,0,0,0-3.842-1.029l-1.737,1a3.049,3.049,0,0,1-4.52-2.609V42.622a2.813,2.813,0,0,0-2.813-2.813h-6.473a2.813,2.813,0,0,0-2.813,2.813v2.007a3.049,3.049,0,0,1-4.52,2.609l-1.737-1a2.812,2.812,0,0,0-3.842,1.029l-3.237,5.607A2.813,2.813,0,0,0,310.844,56.714ZM329.2,53.829a6.5,6.5,0,1,1-6.5,6.5A6.5,6.5,0,0,1,329.2,53.829Z" transform="translate(-309.436 -39.809)" fill="#ced3dd"/>
    </g>
    <g id="Grupo_111652" data-name="Grupo 111652" transform="translate(0 29.809)">
      <path id="Trazado_167298" data-name="Trazado 167298" d="M63.545,126.744a2.052,2.052,0,0,0-2.9.072l-5.835,6.131a2.053,2.053,0,0,0,0,2.83l5.835,6.131a2.053,2.053,0,0,0,2.974-2.83l-4.488-4.716,4.488-4.716a2.053,2.053,0,0,0-.072-2.9Z" transform="translate(-43.108 -106.397)"/>
      <path id="Trazado_167299" data-name="Trazado 167299" d="M195.64,141.981a2.073,2.073,0,0,0,2.9-.072l5.835-6.131a2.053,2.053,0,0,0,0-2.83l-5.835-6.131a2.053,2.053,0,1,0-2.974,2.83l4.488,4.716-4.488,4.716A2.053,2.053,0,0,0,195.64,141.981Z" transform="translate(-154.974 -106.397)"/>
      <path id="Trazado_167300" data-name="Trazado 167300" d="M122,142.241a2.072,2.072,0,0,0,2.824-.671l7.554-12.263a2.053,2.053,0,1,0-3.5-2.153l-7.554,12.263A2.053,2.053,0,0,0,122,142.241Z" transform="translate(-96.179 -106.396)"/>
      <path id="Trazado_167301" data-name="Trazado 167301" d="M91.408,231.017H56.295a2.053,2.053,0,1,0,0,4.105H91.408a2.053,2.053,0,1,0,0-4.105Z" transform="translate(-43.108 -189.715)"/>
      <path id="Trazado_167302" data-name="Trazado 167302" d="M56.295,281.762a2.053,2.053,0,1,0,0,4.105H81.409a2.053,2.053,0,1,0,0-4.105Z" transform="translate(-43.108 -230.044)"/>
      <path id="Trazado_167303" data-name="Trazado 167303" d="M230.243,283.815a2.053,2.053,0,0,0,2.053,2.053h17.535a2.053,2.053,0,1,0,0-4.105H232.3A2.053,2.053,0,0,0,230.243,283.815Z" transform="translate(-182.981 -230.044)"/>
      <path id="Trazado_167304" data-name="Trazado 167304" d="M166.227,84.761a2.052,2.052,0,1,0,.909-2.585A2.067,2.067,0,0,0,166.227,84.761Z" transform="translate(-131.984 -71.231)"/>
      <path id="Trazado_167305" data-name="Trazado 167305" d="M270.47,234.245a2.052,2.052,0,1,0,.567-2.845A2.076,2.076,0,0,0,270.47,234.245Z" transform="translate(-214.682 -189.752)"/>
      <path id="Trazado_167306" data-name="Trazado 167306" d="M102.664,54.214l-1.735-1a1.036,1.036,0,0,1,0-1.666l1.735-1a4.872,4.872,0,0,0,1.782-6.646l-3.237-5.607a4.917,4.917,0,0,0-6.646-1.781l-1.737,1a1.01,1.01,0,0,1-1.441-.832V34.675a4.871,4.871,0,0,0-4.866-4.866H80.045a4.871,4.871,0,0,0-4.866,4.866v2.006a1.01,1.01,0,0,1-1.442.831l-1.736-1a4.917,4.917,0,0,0-6.646,1.78L64.078,40.5H45.328a2.053,2.053,0,1,0,0,4.105H61.779a4.916,4.916,0,0,0,2.12,5.937l1.735,1a1.037,1.037,0,0,1,0,1.665l-1.74,1a4.872,4.872,0,0,0-1.778,6.646l3.237,5.6A4.918,4.918,0,0,0,72,68.247l1.736-1a1.011,1.011,0,0,1,1.441.832v2.006a4.909,4.909,0,0,0,4.794,4.865l1.442.088V92H4.105V46.533a1.77,1.77,0,0,1,1.716-1.926H26.9a2.053,2.053,0,0,0,0-4.105H5.822A5.867,5.867,0,0,0,0,46.533v54.408H0a5.8,5.8,0,0,0,5.821,5.612H33.278l-1,8.587a3.849,3.849,0,0,1-3.827,3.415h0a.734.734,0,0,0-.084,0l-2.347,0a2.053,2.053,0,0,0,0,4.105H61.6a2.053,2.053,0,0,0,0-4.105l-2.347,0-.081,0h-.007a3.849,3.849,0,0,1-3.827-3.415v0l-1-8.582H79.7a5.8,5.8,0,0,0,5.823-5.612V74.947h1a4.871,4.871,0,0,0,4.866-4.866V68.075a1.011,1.011,0,0,1,1.441-.832l1.738,1a4.917,4.917,0,0,0,6.646-1.782l3.238-5.606A4.871,4.871,0,0,0,102.664,54.214ZM81.415,96.108v4.833a1.684,1.684,0,0,1-1.716,1.507H5.822a1.684,1.684,0,0,1-1.716-1.507V96.108Zm-30.155,19.5a7.948,7.948,0,0,0,.943,2.954H35.414a7.928,7.928,0,0,0,.942-2.951l1.055-9.057H50.2Zm49.631-56.8-3.238,5.606a.764.764,0,0,1-1.037.28l-1.738-1a5.143,5.143,0,0,0-7.6,4.387v2.006a.761.761,0,0,1-.76.76H80.045a.767.767,0,0,1-.76-.761V68.076a5.143,5.143,0,0,0-7.6-4.388l-1.737,1a.768.768,0,0,1-1.037-.279l-3.237-5.606a.761.761,0,0,1,.277-1.038l1.738-1a5.167,5.167,0,0,0,0-8.775l-1.735-1a.775.775,0,0,1-.28-1.038l3.237-5.607a.764.764,0,0,1,1.039-.278l1.737,1a5.142,5.142,0,0,0,7.6-4.387V34.674a.761.761,0,0,1,.76-.76h6.473a.761.761,0,0,1,.76.76v2.006a5.142,5.142,0,0,0,7.6,4.387l1.738-1a.763.763,0,0,1,1.038.278l3.237,5.607a.761.761,0,0,1-.28,1.038l-1.733,1a5.17,5.17,0,0,0,0,8.776l1.735,1a.762.762,0,0,1,.279,1.038Z" transform="translate(0 -29.809)"/>
      <path id="Trazado_167307" data-name="Trazado 167307" d="M372.614,98.108a8.549,8.549,0,1,0,8.551,8.549A8.559,8.559,0,0,0,372.614,98.108Zm0,12.994a4.444,4.444,0,1,1,0-8.888,4.5,4.5,0,0,1,4.446,4.444A4.45,4.45,0,0,1,372.614,111.1Z" transform="translate(-289.333 -84.088)"/>
    </g>
  </g>
</svg>
