<svg xmlns="http://www.w3.org/2000/svg" width="100.966" height="79.16" viewBox="0 0 100.966 79.16">
  <g id="agil" transform="translate(-1 -9)">
    <path id="Trazado_167821" data-name="Trazado 167821" d="M18.258,44.93a30.55,30.55,0,0,0,22.451,9.79H2V45.043H18.128Z" transform="translate(0.613 22.02)" fill="#2efec7"/>
    <path id="Trazado_167822" data-name="Trazado 167822" d="M61.821,66.45h19.6V58.385l16.128,12.9-16.128,12.9V76.127H39.483a30.644,30.644,0,0,1-30-24.4L4,50.321V40.644l5.468-1.387a30.87,30.87,0,0,1,4.4-10.58l-2.9-4.871,6.838-6.838,4.871,2.9a30.87,30.87,0,0,1,10.58-4.4L34.644,10h9.677l1.387,5.468a30.87,30.87,0,0,1,10.58,4.4l4.871-2.9L68,23.806l-2.9,4.871a30.87,30.87,0,0,1,4.4,10.58l5.468,1.387v9.677l-5.484,1.419A30.517,30.517,0,0,1,61.821,66.45Z" transform="translate(1.839 0.613)" fill="#2efec7"/>
    <path id="Trazado_167823" data-name="Trazado 167823" d="M33.967,19A20.967,20.967,0,1,1,13,39.967,20.966,20.966,0,0,1,33.967,19Z" transform="translate(7.354 6.128)" fill="#e6e9ed"/>
    <path id="Trazado_167824" data-name="Trazado 167824" d="M29.5,35.5a3.154,3.154,0,0,1-2.274.952,3.226,3.226,0,1,1,3.226-3.226A3.154,3.154,0,0,1,29.5,35.5Z" transform="translate(14.096 12.87)" fill="#ff826e"/>
    <path id="Trazado_167825" data-name="Trazado 167825" d="M101.966,71.9,81.642,55.642V65.45H67.107A32.129,32.129,0,0,0,72.68,53.666l5.737-1.484V40l-5.729-1.45a31.947,31.947,0,0,0-3.863-9.287l3.035-5.092-8.619-8.617L58.15,18.588a31.964,31.964,0,0,0-9.285-3.863L47.415,9H35.226l-1.45,5.729a31.92,31.92,0,0,0-9.285,3.863L19.4,15.558,10.78,24.175l3.035,5.092a31.973,31.973,0,0,0-3.863,9.287L4.226,40V52.187L9.958,53.65a31.938,31.938,0,0,0,5.595,11.8H1v12.9H81.642V88.16ZM4.226,75.127V68.675H18.357a32.6,32.6,0,0,0,9.008,6.451Zm37.1,0a29.126,29.126,0,0,1-28.426-23.12l-.2-.987L7.451,49.681V42.512l5.235-1.324.2-.99a28.77,28.77,0,0,1,4.166-10.019l.555-.844L14.838,24.68l5.068-5.068,4.655,2.776.844-.555a28.77,28.77,0,0,1,10.019-4.166l.99-.2,1.324-5.237H44.9l1.324,5.235.99.2a28.77,28.77,0,0,1,10.019,4.166l.844.555,4.655-2.776L67.8,24.679l-2.774,4.655.555.844A28.77,28.77,0,0,1,69.749,40.2l.2.99,5.237,1.326v7.172l-5.243,1.356-.2.982a28.943,28.943,0,0,1-6.806,13.425H52.893a22.532,22.532,0,1,0-11.572,3.227H84.868V62.355L96.8,71.9,84.868,81.448V75.127Zm0-9.677A19.354,19.354,0,1,1,60.675,46.1,19.376,19.376,0,0,1,41.321,65.45Z" transform="translate(0 0)"/>
    <path id="Trazado_167826" data-name="Trazado 167826" d="M17.26,37.459a16.237,16.237,0,0,0,2.076,2.911l2.4-2.152a12.882,12.882,0,0,1-1.661-2.331Z" transform="translate(9.965 16.478)"/>
    <path id="Trazado_167827" data-name="Trazado 167827" d="M19.239,32.507l-3.219.2a16.01,16.01,0,0,0,.618,3.526l3.1-.906A12.912,12.912,0,0,1,19.239,32.507Z" transform="translate(9.205 14.406)"/>
    <path id="Trazado_167828" data-name="Trazado 167828" d="M20.071,29.478l-3-1.2a16.212,16.212,0,0,0-.952,3.447l3.187.506a12.848,12.848,0,0,1,.76-2.756Z" transform="translate(9.269 11.816)"/>
    <path id="Trazado_167829" data-name="Trazado 167829" d="M32.677,38.128a4.832,4.832,0,0,0-3.226-4.542V22H26.226V33.587a4.827,4.827,0,0,0,1.613,9.38,4.759,4.759,0,0,0,2.073-.485l4.851,4.851,2.281-2.281L32.192,40.2A4.759,4.759,0,0,0,32.677,38.128Zm-4.839,1.613a1.613,1.613,0,1,1,1.613-1.613A1.616,1.616,0,0,1,27.839,39.741Z" transform="translate(13.483 7.967)"/>
  </g>
</svg>
