<svg xmlns="http://www.w3.org/2000/svg" width="172.582" height="140" viewBox="0 0 172.582 140">
  <g id="Grupo_128088" data-name="Grupo 128088" transform="translate(-2636 3176)">
    <g id="Grupo_111697" data-name="Grupo 111697" transform="translate(2701 -3143.582)">
      <rect id="Rectángulo_37181" data-name="Rectángulo 37181" width="48.357" height="103.786" rx="24.179" transform="translate(73.388 0) rotate(45)" fill="#ff6148"/>
      <rect id="Rectángulo_37182" data-name="Rectángulo 37182" width="30.763" height="64.458" rx="15.381" transform="translate(75.479 35.367) rotate(45)" fill="#ffb476"/>
    </g>
    <g id="Grupo_111698" data-name="Grupo 111698" transform="translate(927 1250)">
      <rect id="Rectángulo_45126" data-name="Rectángulo 45126" width="157" height="135" transform="translate(1709 -4426)" fill="none"/>
      <g id="analisis_3_" data-name="analisis(3)" transform="translate(1736.104 -4415.307)">
        <g id="Grupo_111706" data-name="Grupo 111706" transform="translate(1.511 8.069)">
          <g id="Grupo_111704" data-name="Grupo 111704">
            <path id="Trazado_167438" data-name="Trazado 167438" d="M7.5,50.378v62.331a2.763,2.763,0,0,0,2.763,2.763H91.709a2.763,2.763,0,0,0,2.763-2.763V50.378a2.763,2.763,0,0,0-2.763-2.763H10.263A2.763,2.763,0,0,0,7.5,50.378Z" transform="translate(-7.5 -40.855)" fill="#ebeef2"/>
            <path id="Trazado_167439" data-name="Trazado 167439" d="M405.692,47.616h-5a2.763,2.763,0,0,1,2.763,2.763V112.71a2.763,2.763,0,0,1-2.763,2.763h5a2.763,2.763,0,0,0,2.763-2.763V50.379A2.763,2.763,0,0,0,405.692,47.616Z" transform="translate(-321.483 -40.856)" fill="#d1d6de"/>
            <g id="Grupo_111703" data-name="Grupo 111703" transform="translate(19.16 15.411)">
              <g id="Grupo_111699" data-name="Grupo 111699" transform="translate(0 19.373)">
                <circle id="Elipse_5053" data-name="Elipse 5053" cx="3.525" cy="3.525" r="3.525" fill="#5c9cee"/>
              </g>
              <g id="Grupo_111700" data-name="Grupo 111700" transform="translate(13.867 11.499)">
                <circle id="Elipse_5054" data-name="Elipse 5054" cx="3.525" cy="3.525" r="3.525" fill="#f2df33"/>
              </g>
              <g id="Grupo_111701" data-name="Grupo 111701" transform="translate(27.733 19.373)">
                <circle id="Elipse_5055" data-name="Elipse 5055" cx="3.525" cy="3.525" r="3.525" fill="#ed5575"/>
              </g>
              <g id="Grupo_111702" data-name="Grupo 111702" transform="translate(41.6)">
                <circle id="Elipse_5056" data-name="Elipse 5056" cx="3.525" cy="3.525" r="3.525" fill="#9fd479"/>
              </g>
            </g>
            <path id="Trazado_167440" data-name="Trazado 167440" d="M80.428,389.3v-4.836h57.59V389.3a1.924,1.924,0,0,1-1.924,1.924H82.352A1.924,1.924,0,0,1,80.428,389.3Z" transform="translate(-65.737 -309.848)" fill="#f2df33"/>
            <path id="Trazado_167441" data-name="Trazado 167441" d="M334.431,384.465V389.3a1.924,1.924,0,0,1-1.924,1.924h4.885a1.924,1.924,0,0,0,1.924-1.924v-4.836Z" transform="translate(-267.036 -309.848)" fill="#fcab29"/>
            <path id="Trazado_167442" data-name="Trazado 167442" d="M189.243,20.817V16.337a2.28,2.28,0,0,1,2.28-2.28h9.19a2.28,2.28,0,0,1,2.28,2.28v4.48H189.243Z" transform="translate(-152.632 -14.057)" fill="#f2df33"/>
            <path id="Trazado_167443" data-name="Trazado 167443" d="M226.676,14.058h-4.92a2.28,2.28,0,0,1,2.28,2.28v4.48h4.92v-4.48A2.28,2.28,0,0,0,226.676,14.058Z" transform="translate(-178.595 -14.058)" fill="#fcab29"/>
            <rect id="Rectángulo_45134" data-name="Rectángulo 45134" width="6.129" height="13.35" transform="translate(19.621 52.581)" fill="#48cfb7"/>
            <rect id="Rectángulo_45135" data-name="Rectángulo 45135" width="6.129" height="21.071" transform="translate(33.488 44.86)" fill="#48cfb7"/>
            <rect id="Rectángulo_45136" data-name="Rectángulo 45136" width="6.129" height="13.35" transform="translate(47.354 52.581)" fill="#48cfb7"/>
            <rect id="Rectángulo_45137" data-name="Rectángulo 45137" width="6.129" height="27.092" transform="translate(61.221 38.839)" fill="#48cfb7"/>
          </g>
          <g id="Grupo_111705" data-name="Grupo 111705" transform="translate(59.53 27.779)">
            <path id="Trazado_167444" data-name="Trazado 167444" d="M409.456,295.294,420.7,314.774a4.233,4.233,0,0,0,5.782,1.549h0a4.233,4.233,0,0,0,1.549-5.782l-11.247-19.481Z" transform="translate(-388.014 -263.039)" fill="#ed5575"/>
            <path id="Trazado_167445" data-name="Trazado 167445" d="M416.787,291.06l-7.331,4.233,4.384,7.594a23.052,23.052,0,0,0,7.331-4.233Z" transform="translate(-388.014 -263.038)" fill="#cc3a60"/>
            <circle id="Elipse_5057" data-name="Elipse 5057" cx="18.236" cy="18.236" r="18.236" fill="#f2df33"/>
            <circle id="Elipse_5058" data-name="Elipse 5058" cx="12.834" cy="12.834" r="12.834" transform="translate(5.402 5.402)" fill="#5c9cee"/>
          </g>
        </g>
        <g id="Grupo_111707" data-name="Grupo 111707" transform="translate(0 6.558)">
          <path id="Trazado_167446" data-name="Trazado 167446" d="M141.754,93.133a5.042,5.042,0,1,0-4.024-2.012l-8.275,11.563a5.022,5.022,0,0,0-5,1.1l-5.515-3.13a5.036,5.036,0,1,0-9.846,0l-5.515,3.13a5.029,5.029,0,1,0,1.5,2.626l5.515-3.13a5.023,5.023,0,0,0,6.856,0l5.515,3.13a5.036,5.036,0,1,0,8.947-1.966l8.275-11.563A5.021,5.021,0,0,0,141.754,93.133Zm0-7.051a2.015,2.015,0,1,1-2.014,2.015A2.017,2.017,0,0,1,141.754,86.083Zm-41.6,23.4a2.015,2.015,0,1,1,2.014-2.015A2.017,2.017,0,0,1,100.154,109.485Zm13.867-7.873a2.015,2.015,0,1,1,2.014-2.015A2.017,2.017,0,0,1,114.02,101.611Zm13.867,7.873a2.015,2.015,0,1,1,2.015-2.015A2.017,2.017,0,0,1,127.887,109.485Z" transform="translate(-75.957 -67.65)"/>
          <path id="Trazado_167447" data-name="Trazado 167447" d="M84.364,107.973H4.274a1.253,1.253,0,0,1-1.252-1.252V44.39a1.253,1.253,0,0,1,1.252-1.252H11.4a1.511,1.511,0,1,0,0-3.022H4.274A4.278,4.278,0,0,0,0,44.39v62.331a4.278,4.278,0,0,0,4.274,4.274H14.691v3.325a3.439,3.439,0,0,0,3.435,3.435H33.25l-7.119,13.9a1.511,1.511,0,1,0,2.689,1.377l7.825-15.277h16.7l7.825,15.277a1.511,1.511,0,1,0,2.689-1.377l-7.119-13.9H71.867a3.439,3.439,0,0,0,3.435-3.435v-3.325h9.062a1.511,1.511,0,0,0,0-3.022Zm-12.084,6.347a.414.414,0,0,1-.414.414H18.126a.414.414,0,0,1-.414-.414v-3.325H72.281Z" transform="translate(0 -33.356)"/>
          <path id="Trazado_167448" data-name="Trazado 167448" d="M80.582,16.34h68.28a1.253,1.253,0,0,1,1.252,1.252V31.957a1.511,1.511,0,1,0,3.022,0V17.592a4.279,4.279,0,0,0-4.274-4.274H116.524v-2.97a3.8,3.8,0,0,0-3.791-3.79h-9.19a3.8,3.8,0,0,0-3.791,3.79v2.97H80.582a1.511,1.511,0,1,0,0,3.022Zm22.194-5.991a.77.77,0,0,1,.769-.769h9.19a.77.77,0,0,1,.769.769v2.97H102.776v-2.97Z" transform="translate(-63.143 -6.558)"/>
          <path id="Trazado_167449" data-name="Trazado 167449" d="M98.913,267.576a1.511,1.511,0,0,0-1.511,1.511v13.35a1.511,1.511,0,0,0,1.511,1.511h6.129a1.511,1.511,0,0,0,1.511-1.511v-13.35a1.511,1.511,0,0,0-1.511-1.511Zm4.619,13.35h-3.108V270.6h3.108Z" transform="translate(-77.781 -214.995)"/>
          <path id="Trazado_167450" data-name="Trazado 167450" d="M167.748,229.248a1.511,1.511,0,0,0-1.511,1.511V251.83a1.511,1.511,0,0,0,1.511,1.511h6.129a1.511,1.511,0,0,0,1.511-1.511V230.759a1.511,1.511,0,0,0-1.511-1.511Zm4.619,21.071h-3.108V232.27h3.108Z" transform="translate(-132.749 -184.388)"/>
          <path id="Trazado_167451" data-name="Trazado 167451" d="M236.584,267.576a1.511,1.511,0,0,0-1.511,1.511v13.35a1.511,1.511,0,0,0,1.511,1.511h6.129a1.511,1.511,0,0,0,1.511-1.511v-13.35a1.511,1.511,0,0,0-1.511-1.511Zm4.619,13.35h-3.108V270.6H241.2Z" transform="translate(-187.719 -214.995)"/>
          <path id="Trazado_167452" data-name="Trazado 167452" d="M305.42,311.832a1.511,1.511,0,0,0-1.511,1.511v4.435a1.511,1.511,0,0,0,1.511,1.511h6.129a1.511,1.511,0,1,0,0-3.022h-4.619v-2.924A1.511,1.511,0,0,0,305.42,311.832Z" transform="translate(-242.688 -250.336)"/>
          <path id="Trazado_167453" data-name="Trazado 167453" d="M338.369,192.729,329.7,177.716a19.757,19.757,0,1,0-19.536,5.575,19.855,19.855,0,0,0,5.143.681,19.5,19.5,0,0,0,4.447-.514l8.666,15.013a5.743,5.743,0,1,0,9.948-5.743Zm-27.422-12.356a16.726,16.726,0,1,1,12.691-1.671A16.617,16.617,0,0,1,310.947,180.373Zm23.809,17.585a2.725,2.725,0,0,1-3.718-1L322.7,182.518a19.832,19.832,0,0,0,4.711-2.723l8.34,14.445a2.719,2.719,0,0,1-1,3.718Z" transform="translate(-235.999 -116.692)"/>
          <path id="Trazado_167454" data-name="Trazado 167454" d="M350.35,189.849a14.3,14.3,0,0,0-.715-10.358,1.511,1.511,0,1,0-2.733,1.288,11.316,11.316,0,1,1-3.411-4.216,1.511,1.511,0,1,0,1.823-2.409,14.347,14.347,0,1,0,5.037,15.695Z" transform="translate(-257.374 -138.067)"/>
        </g>
      </g>
    </g>
  </g>
</svg>
