<svg xmlns="http://www.w3.org/2000/svg" width="79.156" height="79.16" viewBox="0 0 79.156 79.16">
  <g id="gestion-de-proyectos" transform="translate(-0.015 -0.001)">
    <g id="Grupo_113008" data-name="Grupo 113008" transform="translate(1.25 1.238)">
      <path id="Trazado_168035" data-name="Trazado 168035" d="M8,8H62.081V84.686H8Z" transform="translate(-8 -7.999)" fill="#eceff1" fill-rule="evenodd"/>
      <path id="Trazado_168036" data-name="Trazado 168036" d="M182.894,8h27.04V84.686h-27.04Z" transform="translate(-155.854 -7.999)" fill="#c4cccf" fill-rule="evenodd"/>
    </g>
    <g id="Grupo_113009" data-name="Grupo 113009" transform="translate(8.836 8.824)">
      <path id="Trazado_168037" data-name="Trazado 168037" d="M57.07,369.039H71.433v13.279H57.07Z" transform="translate(-57.07 -320.805)" fill="#d5e7ff" fill-rule="evenodd"/>
      <path id="Trazado_168038" data-name="Trazado 168038" d="M103.52,369.039H110.7v13.279H103.52Z" transform="translate(-96.338 -320.805)" fill="#acceff" fill-rule="evenodd"/>
      <path id="Trazado_168039" data-name="Trazado 168039" d="M57.07,213.055H71.433v13.279H57.07Z" transform="translate(-57.07 -188.938)" fill="#f6dccd" fill-rule="evenodd"/>
      <path id="Trazado_168040" data-name="Trazado 168040" d="M103.52,213.055H110.7v13.279H103.52Z" transform="translate(-96.338 -188.938)" fill="#f1cbbc" fill-rule="evenodd"/>
      <path id="Trazado_168041" data-name="Trazado 168041" d="M57.07,57.07H71.433V70.349H57.07Z" transform="translate(-57.07 -57.07)" fill="#f9e997" fill-rule="evenodd"/>
      <path id="Trazado_168042" data-name="Trazado 168042" d="M103.52,57.07H110.7V70.349H103.52Z" transform="translate(-96.338 -57.07)" fill="#f5d844" fill-rule="evenodd"/>
    </g>
    <g id="Grupo_113010" data-name="Grupo 113010" transform="translate(32.725 35.809)">
      <path id="Trazado_168043" data-name="Trazado 168043" d="M253.329,254.195a3.333,3.333,0,0,1,3.462,3.164v32.3a3.333,3.333,0,0,1-3.462,3.163H215.041a3.333,3.333,0,0,1-3.462-3.164v-32.3a3.333,3.333,0,0,1,3.462-3.164Z" transform="translate(-211.579 -250.702)" fill="#d5e7ff" fill-rule="evenodd"/>
      <path id="Trazado_168044" data-name="Trazado 168044" d="M376.934,254.2a3.333,3.333,0,0,1,3.462,3.164v32.3a3.333,3.333,0,0,1-3.462,3.163H357.79V254.2Z" transform="translate(-335.184 -250.703)" fill="#acceff" fill-rule="evenodd"/>
      <path id="Trazado_168045" data-name="Trazado 168045" d="M211.579,263.118H256.79v-5.76a3.333,3.333,0,0,0-3.462-3.164H215.041a3.333,3.333,0,0,0-3.462,3.164Z" transform="translate(-211.579 -250.702)" fill="#76e2f8" fill-rule="evenodd"/>
      <path id="Trazado_168046" data-name="Trazado 168046" d="M357.79,263.118H380.4v-5.76a3.333,3.333,0,0,0-3.462-3.164H357.79Z" transform="translate(-335.184 -250.702)" fill="#3aaaff" fill-rule="evenodd"/>
      <path id="Trazado_168047" data-name="Trazado 168047" d="M254.676,231.606h1.682a1.518,1.518,0,0,1,1.514,1.514V238a1.518,1.518,0,0,1-1.514,1.514h-1.682A1.518,1.518,0,0,1,253.162,238V233.12A1.518,1.518,0,0,1,254.676,231.606Z" transform="translate(-246.733 -231.606)" fill="#697c86" fill-rule="evenodd"/>
      <path id="Trazado_168048" data-name="Trazado 168048" d="M268.392,231.606h.841a1.518,1.518,0,0,1,1.513,1.514V238a1.518,1.518,0,0,1-1.513,1.514h-.841Z" transform="translate(-259.608 -231.606)" fill="#3b4a51" fill-rule="evenodd"/>
      <path id="Trazado_168049" data-name="Trazado 168049" d="M344.074,231.606h1.682a1.518,1.518,0,0,1,1.513,1.514V238a1.518,1.518,0,0,1-1.513,1.514h-1.682A1.518,1.518,0,0,1,342.56,238V233.12A1.518,1.518,0,0,1,344.074,231.606Z" transform="translate(-322.309 -231.606)" fill="#697c86" fill-rule="evenodd"/>
      <path id="Trazado_168050" data-name="Trazado 168050" d="M355.666,231.606h.841a1.518,1.518,0,0,1,1.514,1.514V238a1.518,1.518,0,0,1-1.514,1.514h-.841Z" transform="translate(-333.389 -231.606)" fill="#3b4a51" fill-rule="evenodd"/>
      <path id="Trazado_168051" data-name="Trazado 168051" d="M429,231.606h1.682a1.518,1.518,0,0,1,1.513,1.514V238a1.518,1.518,0,0,1-1.513,1.514H429A1.518,1.518,0,0,1,427.491,238V233.12A1.518,1.518,0,0,1,429,231.606Z" transform="translate(-394.109 -231.606)" fill="#697c86" fill-rule="evenodd"/>
      <path id="Trazado_168052" data-name="Trazado 168052" d="M442.721,231.606h.841a1.518,1.518,0,0,1,1.514,1.514V238a1.518,1.518,0,0,1-1.514,1.514h-.841Z" transform="translate(-406.984 -231.606)" fill="#3b4a51" fill-rule="evenodd"/>
      <path id="Trazado_168053" data-name="Trazado 168053" d="M260.866,352.419h6.344v6.344h-6.344Z" transform="translate(-253.246 -333.74)" fill="#f9e997" fill-rule="evenodd"/>
      <path id="Trazado_168054" data-name="Trazado 168054" d="M281.384,352.419h3.172v6.344h-3.172Z" transform="translate(-270.591 -333.74)" fill="#f5d844" fill-rule="evenodd"/>
      <path id="Trazado_168055" data-name="Trazado 168055" d="M336.565,352.419h6.344v6.344h-6.344Z" transform="translate(-317.241 -333.74)" fill="#f9e997" fill-rule="evenodd"/>
      <path id="Trazado_168056" data-name="Trazado 168056" d="M357.082,352.419h3.172v6.344h-3.172Z" transform="translate(-334.586 -333.74)" fill="#f5d844" fill-rule="evenodd"/>
      <path id="Trazado_168057" data-name="Trazado 168057" d="M413.68,352.419h6.344v6.344H413.68Z" transform="translate(-382.433 -333.74)" fill="#f9e997" fill-rule="evenodd"/>
      <path id="Trazado_168058" data-name="Trazado 168058" d="M434.2,352.419h3.172v6.344H434.2Z" transform="translate(-399.777 -333.74)" fill="#f5d844" fill-rule="evenodd"/>
      <path id="Trazado_168059" data-name="Trazado 168059" d="M260.866,422.459h6.344V428.8h-6.344Z" transform="translate(-253.246 -392.951)" fill="#f9e997" fill-rule="evenodd"/>
      <path id="Trazado_168060" data-name="Trazado 168060" d="M281.384,422.459h3.172V428.8h-3.172Z" transform="translate(-270.591 -392.951)" fill="#f5d844" fill-rule="evenodd"/>
      <path id="Trazado_168061" data-name="Trazado 168061" d="M336.565,422.459h6.344V428.8h-6.344Z" transform="translate(-317.241 -392.951)" fill="#f9e997" fill-rule="evenodd"/>
      <path id="Trazado_168062" data-name="Trazado 168062" d="M357.082,422.459h3.172V428.8h-3.172Z" transform="translate(-334.586 -392.951)" fill="#f5d844" fill-rule="evenodd"/>
      <path id="Trazado_168063" data-name="Trazado 168063" d="M413.68,422.459h6.344V428.8H413.68Z" transform="translate(-382.433 -392.951)" fill="#f9e997" fill-rule="evenodd"/>
      <path id="Trazado_168064" data-name="Trazado 168064" d="M434.2,422.459h3.172V428.8H434.2Z" transform="translate(-399.777 -392.951)" fill="#f5d844" fill-rule="evenodd"/>
    </g>
    <path id="Trazado_168065" data-name="Trazado 168065" d="M74.473,38.069H72.054v-.745A2.753,2.753,0,0,0,69.3,34.576H67.623a2.753,2.753,0,0,0-2.752,2.748v.745H58.577v-.745a2.753,2.753,0,0,0-2.445-2.73V1.237A1.236,1.236,0,0,0,54.9,0H1.251A1.236,1.236,0,0,0,.015,1.237V77.925a1.236,1.236,0,0,0,1.236,1.236H74.473a4.562,4.562,0,0,0,4.7-4.4v-32.3a4.56,4.56,0,0,0-4.7-4.4Zm-7.131-.745a.282.282,0,0,1,.28-.276H69.3a.282.282,0,0,1,.28.276V42.2a.282.282,0,0,1-.28.276H67.622a.282.282,0,0,1-.28-.276ZM64.87,40.541V42.2a2.753,2.753,0,0,0,2.752,2.748H69.3A2.753,2.753,0,0,0,72.053,42.2V40.541h2.419A2.094,2.094,0,0,1,76.7,42.465v4.527H33.959V42.465a2.094,2.094,0,0,1,2.226-1.924h1.731V42.2a2.753,2.753,0,0,0,2.753,2.748h1.679A2.753,2.753,0,0,0,45.1,42.2V40.541h6.294V42.2a2.753,2.753,0,0,0,2.753,2.748h1.678A2.753,2.753,0,0,0,58.577,42.2V40.541ZM40.389,42.2V37.324a.282.282,0,0,1,.28-.276h1.679a.282.282,0,0,1,.28.276V42.2a.282.282,0,0,1-.28.276H40.669A.282.282,0,0,1,40.389,42.2Zm15.436-5.154a.282.282,0,0,1,.28.276V42.2a.282.282,0,0,1-.28.276H54.146a.282.282,0,0,1-.28-.276V37.324a.282.282,0,0,1,.28-.276ZM2.487,2.473H53.659V34.622a2.752,2.752,0,0,0-2.266,2.7v.745H45.1v-.745a2.753,2.753,0,0,0-2.752-2.748H40.669a2.753,2.753,0,0,0-2.752,2.748v.745H36.186a4.56,4.56,0,0,0-4.7,4.4v32.3a4.147,4.147,0,0,0,.476,1.928H2.487ZM74.473,76.689H36.185a2.122,2.122,0,0,1-2.226-1.928v-25.3H76.7v25.3A2.1,2.1,0,0,1,74.473,76.689ZM46.691,53.255a1.236,1.236,0,0,1,1.236,1.236v6.342a1.236,1.236,0,0,1-1.236,1.236H40.344a1.236,1.236,0,0,1-1.236-1.236V54.491a1.236,1.236,0,0,1,1.236-1.236ZM45.455,59.6H41.58v-3.87h3.874Zm12.938-6.342a1.236,1.236,0,0,1,1.236,1.236v6.342a1.236,1.236,0,0,1-1.236,1.236H52.05a1.236,1.236,0,0,1-1.236-1.236V54.491a1.236,1.236,0,0,1,1.236-1.236ZM57.156,59.6h-3.87v-3.87h3.87ZM46.691,64.085a1.236,1.236,0,0,1,1.236,1.236v6.342A1.236,1.236,0,0,1,46.691,72.9H40.344a1.236,1.236,0,0,1-1.236-1.236V65.321a1.236,1.236,0,0,1,1.236-1.236Zm-1.236,6.342H41.58v-3.87h3.874Zm12.938-6.342a1.236,1.236,0,0,1,1.236,1.236v6.342A1.236,1.236,0,0,1,58.392,72.9H52.05a1.236,1.236,0,0,1-1.236-1.236V65.321a1.236,1.236,0,0,1,1.236-1.236Zm-1.236,6.342h-3.87v-3.87h3.87ZM70.318,53.255a1.236,1.236,0,0,1,1.236,1.236v6.342a1.236,1.236,0,0,1-1.236,1.236H63.972a1.236,1.236,0,0,1-1.236-1.236V54.491a1.236,1.236,0,0,1,1.236-1.236ZM69.082,59.6H65.208v-3.87h3.874Zm1.236,4.488a1.236,1.236,0,0,1,1.236,1.236v6.342A1.236,1.236,0,0,1,70.318,72.9H63.972a1.236,1.236,0,0,1-1.236-1.236V65.321a1.236,1.236,0,0,1,1.236-1.236Zm-1.236,6.342H65.208v-3.87h3.874ZM7.6,22.107V8.823A1.236,1.236,0,0,1,8.837,7.587H23.2a1.236,1.236,0,0,1,0,2.472H10.073V20.871h11.89V17.11l-2.3,2.086a1.236,1.236,0,0,1-1.7-.041l-2.818-2.814a1.236,1.236,0,0,1,1.747-1.749l1.985,1.982L24.84,11.16a1.236,1.236,0,1,1,1.661,1.83l-2.066,1.876v7.241A1.236,1.236,0,0,1,23.2,23.343H8.837A1.236,1.236,0,0,1,7.6,22.107Zm0,24.114V32.941a1.236,1.236,0,0,1,1.236-1.236H23.2a1.236,1.236,0,0,1,0,2.472H10.073V44.985h11.89V41.228l-2.3,2.086a1.236,1.236,0,0,1-1.7-.041l-2.818-2.818a1.236,1.236,0,0,1,1.748-1.748l1.985,1.985,5.965-5.414a1.236,1.236,0,1,1,1.661,1.83l-2.066,1.876v7.237A1.236,1.236,0,0,1,23.2,47.457H8.837A1.236,1.236,0,0,1,7.6,46.221Zm18.986,13.26a1.236,1.236,0,0,1-.085,1.746L24.436,63.1v7.238A1.236,1.236,0,0,1,23.2,71.575H8.837A1.236,1.236,0,0,1,7.6,70.339V57.059a1.236,1.236,0,0,1,1.236-1.236H23.2a1.236,1.236,0,0,1,0,2.472H10.073V69.1h11.89v-3.76l-2.3,2.085a1.236,1.236,0,0,1-1.7-.041l-2.818-2.814a1.236,1.236,0,0,1,1.747-1.749l1.986,1.983L24.841,59.4A1.236,1.236,0,0,1,26.587,59.481Zm4.9-50.658a1.236,1.236,0,0,1,1.236-1.236H48.794a1.236,1.236,0,0,1,0,2.472H32.723a1.236,1.236,0,0,1-1.236-1.236Zm0,6.64a1.236,1.236,0,0,1,1.236-1.236H48.794a1.236,1.236,0,0,1,0,2.472H32.723a1.236,1.236,0,0,1-1.236-1.236Z" transform="translate(0 0)" fill-rule="evenodd"/>
  </g>
</svg>
