<svg xmlns="http://www.w3.org/2000/svg" width="784.523" height="385.176" viewBox="0 0 784.523 385.176">
  <g id="Grupo_128082" data-name="Grupo 128082" transform="translate(-410.477 -8289)">
    <path id="Trazado_172581" data-name="Trazado 172581" d="M0,0H4V371H0Z" transform="translate(610 8289)" fill="#ffa726"/>
    <path id="Trazado_172582" data-name="Trazado 172582" d="M0,0H4V636H0Z" transform="translate(1195 8591) rotate(90)" fill="#ffa726"/>
    <path id="Trazado_172583" data-name="Trazado 172583" d="M0,0H258V119H0Z" transform="translate(634 8329)" fill="#ff6148"/>
    <path id="Trazado_172584" data-name="Trazado 172584" d="M0,0H258V119H0Z" transform="translate(892 8329)" fill="#2efec7"/>
    <path id="Trazado_172585" data-name="Trazado 172585" d="M0,0H258V120H0Z" transform="translate(634 8448)" fill="#24cb9f"/>
    <path id="Trazado_172586" data-name="Trazado 172586" d="M0,0H258V120H0Z" transform="translate(892 8448)" fill="#ffb476"/>
    <path id="Trazado_172587" data-name="Trazado 172587" d="M-56.34-8.911h1.63a1.7,1.7,0,0,0,1.938-1.9,1.64,1.64,0,0,0-.461-1.2,1.75,1.75,0,0,0-1.3-.467,1.873,1.873,0,0,0-1.195.4,1.22,1.22,0,0,0-.508.995h-3.456a3.537,3.537,0,0,1,.656-2.1,4.334,4.334,0,0,1,1.82-1.441,6.223,6.223,0,0,1,2.558-.518,6.114,6.114,0,0,1,3.917,1.138,3.784,3.784,0,0,1,1.425,3.127,3.154,3.154,0,0,1-.59,1.82A4.2,4.2,0,0,1-51.623-7.67a4.014,4.014,0,0,1,1.866,1.307,3.443,3.443,0,0,1,.677,2.169,3.852,3.852,0,0,1-1.538,3.2,6.384,6.384,0,0,1-4.04,1.2,6.621,6.621,0,0,1-2.722-.559,4.265,4.265,0,0,1-1.9-1.548,4.025,4.025,0,0,1-.646-2.251h3.476A1.556,1.556,0,0,0-55.9-2.963a1.955,1.955,0,0,0,1.364.5,2.048,2.048,0,0,0,1.456-.508,1.7,1.7,0,0,0,.543-1.3,1.983,1.983,0,0,0-.564-1.6,2.358,2.358,0,0,0-1.559-.472H-56.34Zm11.2,5.558a1.967,1.967,0,0,1,1.364.487,1.6,1.6,0,0,1,.543,1.246,1.6,1.6,0,0,1-.543,1.246,1.967,1.967,0,0,1-1.364.487,1.95,1.95,0,0,1-1.369-.492A1.609,1.609,0,0,1-47.05-1.62a1.609,1.609,0,0,1,.538-1.241A1.95,1.95,0,0,1-45.143-3.353Zm17.3-.615A1.479,1.479,0,0,0-28.4-5.2a6.946,6.946,0,0,0-1.964-.913,18.839,18.839,0,0,1-2.3-.913q-2.9-1.425-2.9-3.917a3.512,3.512,0,0,1,.723-2.189A4.676,4.676,0,0,1-32.8-14.607a7.961,7.961,0,0,1,2.974-.528,6.963,6.963,0,0,1,2.886.574,4.57,4.57,0,0,1,1.984,1.635,4.271,4.271,0,0,1,.708,2.425h-3.589a1.8,1.8,0,0,0-.559-1.415,2.178,2.178,0,0,0-1.512-.5,2.456,2.456,0,0,0-1.523.426,1.305,1.305,0,0,0-.559,1.082,1.314,1.314,0,0,0,.615,1.041,7.758,7.758,0,0,0,2.164.964,13.254,13.254,0,0,1,2.543,1.072,4.273,4.273,0,0,1,2.42,3.845A3.645,3.645,0,0,1-25.722-.913,6.568,6.568,0,0,1-29.772.205a8.036,8.036,0,0,1-3.286-.651A4.955,4.955,0,0,1-35.273-2.23a4.649,4.649,0,0,1-.743-2.61h3.609a2.29,2.29,0,0,0,.62,1.769,2.932,2.932,0,0,0,2.015.569,2.316,2.316,0,0,0,1.41-.385A1.269,1.269,0,0,0-27.844-3.968ZM-16.309,0a3.9,3.9,0,0,1-.328-.995A3.213,3.213,0,0,1-19.3.205a3.936,3.936,0,0,1-2.666-.948,3.019,3.019,0,0,1-1.1-2.384,3.1,3.1,0,0,1,1.333-2.728,6.791,6.791,0,0,1,3.876-.923h1.066v-.587q0-1.535-1.323-1.535a1.081,1.081,0,0,0-1.23,1.216H-22.8A3.1,3.1,0,0,1-21.431-10.3a5.753,5.753,0,0,1,3.491-1,5.044,5.044,0,0,1,3.353,1.036,3.6,3.6,0,0,1,1.261,2.84v4.912a5.03,5.03,0,0,0,.472,2.338V0Zm-2.164-2.256A1.928,1.928,0,0,0-17.4-2.533a1.735,1.735,0,0,0,.61-.625V-4.932h-1q-1.8,0-1.8,1.62a.989.989,0,0,0,.318.764A1.15,1.15,0,0,0-18.472-2.256Zm11.084-11.6v2.758h1.825v2.4H-7.388V-3.62a1.3,1.3,0,0,0,.226.872A1.21,1.21,0,0,0-6.27-2.5a5.069,5.069,0,0,0,.861-.062V-.092a6.377,6.377,0,0,1-1.948.3A3.62,3.62,0,0,1-9.992-.636a3.446,3.446,0,0,1-.851-2.553V-8.7h-1.415v-2.4h1.415v-2.758ZM-.559,0H-4.025V-11.095H-.559ZM-4.23-13.956a1.542,1.542,0,0,1,.533-1.21,2.012,2.012,0,0,1,1.384-.472,2.012,2.012,0,0,1,1.384.472,1.542,1.542,0,0,1,.533,1.21,1.542,1.542,0,0,1-.533,1.21,2.012,2.012,0,0,1-1.384.472A2.012,2.012,0,0,1-3.7-12.746,1.542,1.542,0,0,1-4.23-13.956ZM7.378-3.117a.8.8,0,0,0-.461-.708,7.019,7.019,0,0,0-1.753-.554A8,8,0,0,1,3.03-5.132,3.573,3.573,0,0,1,1.748-6.265a2.706,2.706,0,0,1-.441-1.528A3.066,3.066,0,0,1,2.569-10.31a5.2,5.2,0,0,1,3.3-.99,5.756,5.756,0,0,1,3.527.995A3.11,3.11,0,0,1,10.731-7.69H7.265q0-1.333-1.4-1.333a1.393,1.393,0,0,0-.913.3.937.937,0,0,0-.369.754.86.86,0,0,0,.451.749,4.263,4.263,0,0,0,1.441.472,12.45,12.45,0,0,1,1.738.441q2.5.861,2.5,3.086A2.906,2.906,0,0,1,9.362-.749,5.913,5.913,0,0,1,5.87.205,6.034,6.034,0,0,1,3.327-.308,4.252,4.252,0,0,1,1.584-1.7,3.158,3.158,0,0,1,.959-3.558h3.23A1.335,1.335,0,0,0,4.7-2.435a2.109,2.109,0,0,0,1.261.354,1.659,1.659,0,0,0,1.061-.287A.918.918,0,0,0,7.378-3.117ZM13.089,0V-8.7h-1.61v-2.4h1.61v-.882a3.833,3.833,0,0,1,1.118-2.943,4.416,4.416,0,0,1,3.138-1.046,6.871,6.871,0,0,1,1.62.215l.01,2.543a3.157,3.157,0,0,0-.851-.092q-1.569,0-1.569,1.354v.851h2.164v2.4H16.555V0ZM26.183,0a3.9,3.9,0,0,1-.328-.995,3.213,3.213,0,0,1-2.666,1.2,3.936,3.936,0,0,1-2.666-.948,3.019,3.019,0,0,1-1.1-2.384,3.1,3.1,0,0,1,1.333-2.728,6.791,6.791,0,0,1,3.876-.923H25.7v-.587Q25.7-8.9,24.379-8.9a1.081,1.081,0,0,0-1.23,1.216H19.693A3.1,3.1,0,0,1,21.062-10.3a5.753,5.753,0,0,1,3.491-1,5.044,5.044,0,0,1,3.353,1.036,3.6,3.6,0,0,1,1.261,2.84v4.912a5.03,5.03,0,0,0,.472,2.338V0ZM24.02-2.256a1.928,1.928,0,0,0,1.072-.277,1.735,1.735,0,0,0,.61-.625V-4.932h-1q-1.8,0-1.8,1.62a.989.989,0,0,0,.318.764A1.15,1.15,0,0,0,24.02-2.256Zm11.751-.205A1.537,1.537,0,0,0,36.9-2.856a1.448,1.448,0,0,0,.39-1.1h3.24A3.836,3.836,0,0,1,39.221-.964,4.863,4.863,0,0,1,35.853.205a4.924,4.924,0,0,1-3.814-1.518,5.979,5.979,0,0,1-1.395-4.2V-5.66a6.758,6.758,0,0,1,.62-2.969,4.517,4.517,0,0,1,1.789-1.979,5.335,5.335,0,0,1,2.769-.692,4.8,4.8,0,0,1,3.435,1.2,4.255,4.255,0,0,1,1.271,3.25h-3.24a1.9,1.9,0,0,0-.42-1.323,1.451,1.451,0,0,0-1.128-.461q-1.343,0-1.569,1.712a12.083,12.083,0,0,0-.072,1.5,4.746,4.746,0,0,0,.4,2.317A1.384,1.384,0,0,0,35.771-2.461ZM47.358.205a5.7,5.7,0,0,1-4.132-1.523,5.258,5.258,0,0,1-1.579-3.963v-.287a6.814,6.814,0,0,1,.631-3,4.614,4.614,0,0,1,1.841-2.015,5.556,5.556,0,0,1,2.871-.713A4.8,4.8,0,0,1,50.68-9.849,5.7,5.7,0,0,1,52.033-5.8V-4.46h-6.87a2.491,2.491,0,0,0,.81,1.466,2.41,2.41,0,0,0,1.62.533,3.106,3.106,0,0,0,2.563-1.148l1.579,1.866a4.414,4.414,0,0,1-1.83,1.42A6.185,6.185,0,0,1,47.358.205Zm-.39-8.839q-1.518,0-1.8,2.01H48.65v-.267a1.712,1.712,0,0,0-.42-1.287A1.673,1.673,0,0,0,46.968-8.634Zm13.166.667L59-8.049A2.044,2.044,0,0,0,56.9-7.024V0H53.448V-11.095h3.24L56.8-9.669a2.676,2.676,0,0,1,2.43-1.63,3.37,3.37,0,0,1,.964.123Z" transform="translate(756 8403)" fill="#12263f"/>
    <path id="Trazado_172588" data-name="Trazado 172588" d="M-24.447,0h-3.076V-12.8h3.076Zm4.729-9.51.1,1.116a3.225,3.225,0,0,1,2.716-1.292,2.713,2.713,0,0,1,2.219.888,4.226,4.226,0,0,1,.76,2.672V0H-16.9V-6a1.6,1.6,0,0,0-.29-1.059A1.342,1.342,0,0,0-18.242-7.4a1.413,1.413,0,0,0-1.292.686V0H-22.5V-9.51Zm10.881-2.364V-9.51h1.564v2.057H-8.837V-3.1a1.111,1.111,0,0,0,.193.747,1.037,1.037,0,0,0,.765.211A4.345,4.345,0,0,0-7.141-2.2V-.079a5.466,5.466,0,0,1-1.67.255A3.1,3.1,0,0,1-11.07-.545,2.954,2.954,0,0,1-11.8-2.733v-4.72h-1.213V-9.51H-11.8v-2.364ZM-1.507.176A4.889,4.889,0,0,1-5.049-1.129,4.507,4.507,0,0,1-6.4-4.526v-.246a5.84,5.84,0,0,1,.541-2.575A3.955,3.955,0,0,1-4.285-9.075a4.763,4.763,0,0,1,2.461-.611A4.117,4.117,0,0,1,1.34-8.442,4.887,4.887,0,0,1,2.5-4.975v1.151H-3.388a2.135,2.135,0,0,0,.694,1.257,2.066,2.066,0,0,0,1.389.457,2.662,2.662,0,0,0,2.2-.984l1.354,1.6A3.784,3.784,0,0,1,.677-.277,5.3,5.3,0,0,1-1.507.176ZM-1.841-7.4q-1.3,0-1.547,1.723H-.4v-.229a1.467,1.467,0,0,0-.36-1.1A1.434,1.434,0,0,0-1.841-7.4Zm11.285.571L8.468-6.9a1.752,1.752,0,0,0-1.793.879V0H3.713V-9.51H6.491l.1,1.222a2.294,2.294,0,0,1,2.083-1.4A2.888,2.888,0,0,1,9.5-9.58Zm5.669,7a4.889,4.889,0,0,1-3.542-1.305,4.507,4.507,0,0,1-1.354-3.4v-.246a5.84,5.84,0,0,1,.541-2.575,3.955,3.955,0,0,1,1.578-1.727A4.763,4.763,0,0,1,14.8-9.686,4.117,4.117,0,0,1,17.96-8.442a4.887,4.887,0,0,1,1.16,3.467v1.151H13.232a2.135,2.135,0,0,0,.694,1.257,2.066,2.066,0,0,0,1.389.457,2.662,2.662,0,0,0,2.2-.984l1.354,1.6A3.784,3.784,0,0,1,17.3-.277,5.3,5.3,0,0,1,15.113.176ZM14.779-7.4q-1.3,0-1.547,1.723H16.22v-.229a1.467,1.467,0,0,0-.36-1.1A1.434,1.434,0,0,0,14.779-7.4Zm-.035-6.108h3.129l-2.443,2.76-2.417,0ZM25.291-2.672a.684.684,0,0,0-.4-.606,6.016,6.016,0,0,0-1.5-.475A6.853,6.853,0,0,1,21.564-4.4a3.062,3.062,0,0,1-1.1-.971,2.319,2.319,0,0,1-.378-1.31,2.628,2.628,0,0,1,1.081-2.158A4.453,4.453,0,0,1,24-9.686a4.934,4.934,0,0,1,3.023.853,2.666,2.666,0,0,1,1.143,2.241H25.194q0-1.143-1.2-1.143a1.194,1.194,0,0,0-.782.259.8.8,0,0,0-.316.646.737.737,0,0,0,.387.642,3.654,3.654,0,0,0,1.235.4A10.671,10.671,0,0,1,26-5.405,2.706,2.706,0,0,1,28.147-2.76,2.491,2.491,0,0,1,26.991-.642,5.068,5.068,0,0,1,24,.176a5.172,5.172,0,0,1-2.18-.439,3.645,3.645,0,0,1-1.494-1.2,2.707,2.707,0,0,1-.536-1.591h2.769A1.145,1.145,0,0,0,23-2.087a1.808,1.808,0,0,0,1.081.3,1.422,1.422,0,0,0,.91-.246A.787.787,0,0,0,25.291-2.672Z" transform="translate(438 8462)" fill="#12263f"/>
    <path id="Trazado_172589" data-name="Trazado 172589" d="M-36.22,0H-39.3V-12.8h3.076Zm4.729-9.51.1,1.116a3.225,3.225,0,0,1,2.716-1.292,2.713,2.713,0,0,1,2.219.888,4.226,4.226,0,0,1,.76,2.672V0H-28.67V-6a1.6,1.6,0,0,0-.29-1.059A1.342,1.342,0,0,0-30.015-7.4a1.413,1.413,0,0,0-1.292.686V0h-2.962V-9.51Zm14.054-1.828q-.756-.062-1.274-.062-1.723,0-1.723,1.345v.545h1.854v2.057h-1.854V0h-2.971V-7.453h-1.38V-9.51h1.38v-.615a3.284,3.284,0,0,1,1.1-2.632,4.716,4.716,0,0,1,3.133-.927q1.45,0,4.711.185V0h-2.979Zm10.45,10.31a3.054,3.054,0,0,1-2.54,1.2A3,3,0,0,1-11.9-.734a3.826,3.826,0,0,1-.8-2.615V-9.51h2.962v6.179A1.065,1.065,0,0,0-8.552-2.109,1.548,1.548,0,0,0-7.1-2.839V-9.51h2.979V0H-6.9ZM2.1.176A4.889,4.889,0,0,1-1.441-1.129a4.507,4.507,0,0,1-1.354-3.4v-.246a5.84,5.84,0,0,1,.541-2.575A3.955,3.955,0,0,1-.677-9.075a4.763,4.763,0,0,1,2.461-.611A4.117,4.117,0,0,1,4.948-8.442a4.887,4.887,0,0,1,1.16,3.467v1.151H.22A2.135,2.135,0,0,0,.914-2.566,2.066,2.066,0,0,0,2.3-2.109a2.662,2.662,0,0,0,2.2-.984l1.354,1.6A3.784,3.784,0,0,1,4.285-.277,5.3,5.3,0,0,1,2.1.176ZM1.767-7.4Q.466-7.4.22-5.678H3.208v-.229a1.467,1.467,0,0,0-.36-1.1A1.434,1.434,0,0,0,1.767-7.4ZM10.02-9.51l.1,1.116a3.225,3.225,0,0,1,2.716-1.292,2.713,2.713,0,0,1,2.219.888,4.226,4.226,0,0,1,.76,2.672V0H12.841V-6a1.6,1.6,0,0,0-.29-1.059A1.342,1.342,0,0,0,11.5-7.4a1.413,1.413,0,0,0-1.292.686V0H7.242V-9.51Zm11.452,7.4a1.317,1.317,0,0,0,.967-.338,1.241,1.241,0,0,0,.334-.945H25.55A3.288,3.288,0,0,1,24.429-.826a4.168,4.168,0,0,1-2.887,1,4.22,4.22,0,0,1-3.27-1.3,5.125,5.125,0,0,1-1.2-3.6v-.123A5.792,5.792,0,0,1,17.609-7.4a3.872,3.872,0,0,1,1.534-1.7,4.573,4.573,0,0,1,2.373-.593A4.116,4.116,0,0,1,24.46-8.657a3.647,3.647,0,0,1,1.09,2.786H22.772A1.626,1.626,0,0,0,22.412-7a1.244,1.244,0,0,0-.967-.4q-1.151,0-1.345,1.468a10.357,10.357,0,0,0-.062,1.283,4.068,4.068,0,0,0,.343,1.986A1.187,1.187,0,0,0,21.472-2.109ZM29.927,0H26.956V-9.51h2.971ZM26.78-11.962A1.322,1.322,0,0,1,27.237-13a1.724,1.724,0,0,1,1.187-.4,1.724,1.724,0,0,1,1.187.4,1.322,1.322,0,0,1,.457,1.037,1.322,1.322,0,0,1-.457,1.037,1.724,1.724,0,0,1-1.187.4,1.724,1.724,0,0,1-1.187-.4A1.322,1.322,0,0,1,26.78-11.962ZM37.107,0a3.344,3.344,0,0,1-.281-.853A2.754,2.754,0,0,1,34.541.176a3.374,3.374,0,0,1-2.285-.813,2.588,2.588,0,0,1-.94-2.043,2.66,2.66,0,0,1,1.143-2.338A5.821,5.821,0,0,1,35.78-5.81h.914v-.5q0-1.316-1.134-1.316a.927.927,0,0,0-1.055,1.042H31.544a2.655,2.655,0,0,1,1.173-2.239,4.931,4.931,0,0,1,2.993-.86,4.323,4.323,0,0,1,2.874.888,3.086,3.086,0,0,1,1.081,2.435v4.21a4.311,4.311,0,0,0,.4,2V0ZM35.253-1.934a1.652,1.652,0,0,0,.918-.237,1.487,1.487,0,0,0,.523-.536V-4.228h-.861q-1.547,0-1.547,1.389a.848.848,0,0,0,.272.655A.986.986,0,0,0,35.253-1.934Z" transform="translate(888 8674)" fill="#12263f"/>
    <path id="Trazado_172590" data-name="Trazado 172590" d="M-54.439-13.508l4.416,11.021,4.416-11.021h2.31V0h-1.781V-5.26l.167-5.678L-49.346,0H-50.71l-4.425-10.91.176,5.65V0H-56.74V-13.508ZM-34.224-.993A3.646,3.646,0,0,1-37.165.186,3.12,3.12,0,0,1-39.61-.747a4.036,4.036,0,0,1-.849-2.76v-6.531h1.716v6.485q0,2.282,1.855,2.282a2.569,2.569,0,0,0,2.616-1.466v-7.3h1.716V0h-1.633Zm8.3-.223a2.472,2.472,0,0,0,1.6-.557,1.958,1.958,0,0,0,.761-1.392h1.624a3.112,3.112,0,0,1-.594,1.642A3.911,3.911,0,0,1-23.987-.278a4.216,4.216,0,0,1-1.934.464,4.135,4.135,0,0,1-3.261-1.368,5.45,5.45,0,0,1-1.211-3.743v-.288a6.043,6.043,0,0,1,.538-2.607A4.1,4.1,0,0,1-28.31-9.593a4.388,4.388,0,0,1,2.38-.631,4.026,4.026,0,0,1,2.806,1.011,3.614,3.614,0,0,1,1.192,2.625h-1.624a2.365,2.365,0,0,0-.738-1.6,2.294,2.294,0,0,0-1.637-.626,2.4,2.4,0,0,0-2.027.942,4.422,4.422,0,0,0-.719,2.723v.325a4.334,4.334,0,0,0,.714,2.672A2.414,2.414,0,0,0-25.921-1.215Zm7.635-7.607a3.649,3.649,0,0,1,2.969-1.4q3.182,0,3.21,3.59V0h-1.716V-6.643a2.311,2.311,0,0,0-.5-1.6,1.989,1.989,0,0,0-1.517-.52,2.477,2.477,0,0,0-1.466.445,3.024,3.024,0,0,0-.983,1.169V0H-20V-14.25h1.716Zm8.294,3.711a5.929,5.929,0,0,1,.58-2.653A4.325,4.325,0,0,1-7.8-9.583a4.394,4.394,0,0,1,2.361-.64A4.233,4.233,0,0,1-2.12-8.8,5.461,5.461,0,0,1-.854-5.028v.121a5.981,5.981,0,0,1-.561,2.63A4.262,4.262,0,0,1-3.02-.464a4.445,4.445,0,0,1-2.4.649A4.223,4.223,0,0,1-8.725-1.234,5.433,5.433,0,0,1-9.992-4.991Zm1.726.2a4.294,4.294,0,0,0,.775,2.681A2.479,2.479,0,0,0-5.418-1.215,2.464,2.464,0,0,0-3.34-2.24a4.7,4.7,0,0,0,.77-2.871,4.287,4.287,0,0,0-.784-2.677A2.492,2.492,0,0,0-5.437-8.813,2.465,2.465,0,0,0-7.487-7.8,4.661,4.661,0,0,0-8.266-4.908Z" transform="translate(584 8404)" fill="#00104e"/>
    <path id="Trazado_172591" data-name="Trazado 172591" d="M-53.938-13.508l4.416,11.021,4.416-11.021h2.31V0h-1.781V-5.26l.167-5.678L-48.845,0h-1.364l-4.425-10.91.176,5.65V0h-1.781V-13.508ZM-33.723-.993A3.646,3.646,0,0,1-36.664.186a3.12,3.12,0,0,1-2.445-.932,4.036,4.036,0,0,1-.849-2.76v-6.531h1.716v6.485q0,2.282,1.855,2.282A2.569,2.569,0,0,0-33.77-2.737v-7.3h1.716V0h-1.633Zm8.3-.223a2.472,2.472,0,0,0,1.6-.557,1.958,1.958,0,0,0,.761-1.392h1.624a3.112,3.112,0,0,1-.594,1.642A3.911,3.911,0,0,1-23.486-.278,4.216,4.216,0,0,1-25.42.186a4.135,4.135,0,0,1-3.261-1.368,5.45,5.45,0,0,1-1.211-3.743v-.288a6.043,6.043,0,0,1,.538-2.607,4.1,4.1,0,0,1,1.545-1.772,4.388,4.388,0,0,1,2.38-.631,4.026,4.026,0,0,1,2.806,1.011,3.614,3.614,0,0,1,1.192,2.625h-1.624a2.365,2.365,0,0,0-.738-1.6,2.294,2.294,0,0,0-1.637-.626,2.4,2.4,0,0,0-2.027.942,4.422,4.422,0,0,0-.719,2.723v.325a4.334,4.334,0,0,0,.714,2.672A2.414,2.414,0,0,0-25.42-1.215Zm7.635-7.607a3.649,3.649,0,0,1,2.969-1.4q3.182,0,3.21,3.59V0h-1.716V-6.643a2.311,2.311,0,0,0-.5-1.6,1.989,1.989,0,0,0-1.517-.52,2.477,2.477,0,0,0-1.466.445,3.024,3.024,0,0,0-.983,1.169V0H-19.5V-14.25h1.716ZM-2.839,0A3.605,3.605,0,0,1-3.08-1.058,3.829,3.829,0,0,1-5.937.186a3.543,3.543,0,0,1-2.435-.84,2.716,2.716,0,0,1-.951-2.129A2.838,2.838,0,0,1-8.132-5.219a5.621,5.621,0,0,1,3.354-.867h1.67v-.789a1.928,1.928,0,0,0-.538-1.433,2.163,2.163,0,0,0-1.586-.533,2.5,2.5,0,0,0-1.54.464,1.367,1.367,0,0,0-.622,1.123H-9.12a2.369,2.369,0,0,1,.533-1.452A3.641,3.641,0,0,1-7.139-9.815a4.869,4.869,0,0,1,2.009-.408,3.968,3.968,0,0,1,2.718.867A3.129,3.129,0,0,1-1.392-6.967v4.62a5.649,5.649,0,0,0,.353,2.2V0ZM-5.687-1.308a3.016,3.016,0,0,0,1.531-.417A2.525,2.525,0,0,0-3.108-2.811v-2.06H-4.453q-3.154,0-3.154,1.846a1.562,1.562,0,0,0,.538,1.262A2.068,2.068,0,0,0-5.687-1.308Z" transform="translate(1049 8626)" fill="#00104e"/>
    <path id="Trazado_172592" data-name="Trazado 172592" d="M-37.547-5.01V0h-1.687V-12.8h4.72a4.742,4.742,0,0,1,3.292,1.072,3.635,3.635,0,0,1,1.191,2.839A3.587,3.587,0,0,1-31.2-6.016,4.954,4.954,0,0,1-34.532-5.01Zm0-1.38h3.032a3.032,3.032,0,0,0,2.074-.638,2.334,2.334,0,0,0,.721-1.845A2.411,2.411,0,0,0-32.44-10.7a2.84,2.84,0,0,0-1.978-.713h-3.129Zm8.868,1.547a5.617,5.617,0,0,1,.549-2.514A4.1,4.1,0,0,1-26.6-9.079a4.163,4.163,0,0,1,2.237-.606,4.01,4.01,0,0,1,3.142,1.345,5.174,5.174,0,0,1,1.2,3.577v.114a5.666,5.666,0,0,1-.532,2.492A4.038,4.038,0,0,1-22.074-.439a4.211,4.211,0,0,1-2.272.615,4,4,0,0,1-3.133-1.345,5.147,5.147,0,0,1-1.2-3.56Zm1.635.193a4.068,4.068,0,0,0,.734,2.54,2.349,2.349,0,0,0,1.964.958,2.335,2.335,0,0,0,1.969-.971,4.449,4.449,0,0,0,.729-2.72,4.061,4.061,0,0,0-.743-2.536,2.361,2.361,0,0,0-1.973-.971,2.335,2.335,0,0,0-1.942.958A4.416,4.416,0,0,0-27.044-4.649Zm12.876,3.5a2.342,2.342,0,0,0,1.521-.527A1.855,1.855,0,0,0-11.927-3h1.538a2.949,2.949,0,0,1-.562,1.556A3.7,3.7,0,0,1-12.335-.264a3.994,3.994,0,0,1-1.833.439,3.918,3.918,0,0,1-3.089-1.3A5.163,5.163,0,0,1-18.4-4.667v-.272a5.725,5.725,0,0,1,.51-2.47,3.883,3.883,0,0,1,1.463-1.679,4.157,4.157,0,0,1,2.254-.6,3.814,3.814,0,0,1,2.659.958A3.424,3.424,0,0,1-10.389-6.24h-1.538a2.241,2.241,0,0,0-.7-1.516,2.174,2.174,0,0,0-1.551-.593,2.276,2.276,0,0,0-1.92.892,4.19,4.19,0,0,0-.681,2.58v.308A4.106,4.106,0,0,0-16.1-2.039,2.287,2.287,0,0,0-14.168-1.151ZM-2.689,0a3.416,3.416,0,0,1-.229-1A3.628,3.628,0,0,1-5.625.176a3.357,3.357,0,0,1-2.307-.8,2.573,2.573,0,0,1-.9-2.017A2.688,2.688,0,0,1-7.7-4.944a5.325,5.325,0,0,1,3.177-.822h1.582v-.747a1.826,1.826,0,0,0-.51-1.358,2.049,2.049,0,0,0-1.5-.505,2.371,2.371,0,0,0-1.459.439A1.3,1.3,0,0,0-7-6.873H-8.64a2.244,2.244,0,0,1,.505-1.375A3.449,3.449,0,0,1-6.763-9.3a4.613,4.613,0,0,1,1.9-.387,3.759,3.759,0,0,1,2.575.822A2.964,2.964,0,0,1-1.318-6.6v4.377A5.351,5.351,0,0,0-.984-.141V0Zm-2.7-1.239a2.858,2.858,0,0,0,1.45-.4,2.392,2.392,0,0,0,.993-1.028V-4.614H-4.219q-2.988,0-2.988,1.749a1.48,1.48,0,0,0,.51,1.2A1.959,1.959,0,0,0-5.388-1.239Z" transform="translate(789 8625)" fill="#00104e"/>
    <path id="Trazado_172593" data-name="Trazado 172593" d="M-40.134-5.288V0h-1.781V-13.508h4.982a5.005,5.005,0,0,1,3.474,1.132,3.837,3.837,0,0,1,1.257,3A3.786,3.786,0,0,1-33.431-6.35a5.229,5.229,0,0,1-3.521,1.062Zm0-1.457h3.2a3.2,3.2,0,0,0,2.189-.674,2.464,2.464,0,0,0,.761-1.947,2.545,2.545,0,0,0-.761-1.933,3,3,0,0,0-2.087-.753h-3.3Zm9.361,1.633a5.929,5.929,0,0,1,.58-2.653,4.326,4.326,0,0,1,1.614-1.818,4.394,4.394,0,0,1,2.361-.64A4.233,4.233,0,0,1-22.9-8.8a5.461,5.461,0,0,1,1.266,3.776v.121a5.981,5.981,0,0,1-.561,2.63A4.262,4.262,0,0,1-23.8-.464a4.445,4.445,0,0,1-2.4.649,4.223,4.223,0,0,1-3.307-1.419,5.433,5.433,0,0,1-1.266-3.757Zm1.726.2a4.294,4.294,0,0,0,.775,2.681A2.479,2.479,0,0,0-26.2-1.215,2.464,2.464,0,0,0-24.121-2.24a4.7,4.7,0,0,0,.77-2.871,4.287,4.287,0,0,0-.784-2.677,2.492,2.492,0,0,0-2.083-1.025A2.465,2.465,0,0,0-28.268-7.8,4.661,4.661,0,0,0-29.047-4.908Zm13.591,3.692a2.472,2.472,0,0,0,1.6-.557,1.958,1.958,0,0,0,.761-1.392h1.624a3.112,3.112,0,0,1-.594,1.642A3.911,3.911,0,0,1-13.522-.278a4.216,4.216,0,0,1-1.934.464,4.135,4.135,0,0,1-3.261-1.368,5.45,5.45,0,0,1-1.211-3.743v-.288a6.043,6.043,0,0,1,.538-2.607,4.1,4.1,0,0,1,1.545-1.772,4.388,4.388,0,0,1,2.38-.631,4.026,4.026,0,0,1,2.806,1.011,3.614,3.614,0,0,1,1.192,2.625H-13.09a2.365,2.365,0,0,0-.738-1.6,2.294,2.294,0,0,0-1.637-.626,2.4,2.4,0,0,0-2.027.942,4.422,4.422,0,0,0-.719,2.723v.325A4.334,4.334,0,0,0-17.5-2.152,2.414,2.414,0,0,0-15.456-1.215Zm5.464-3.9a5.929,5.929,0,0,1,.58-2.653A4.325,4.325,0,0,1-7.8-9.583a4.394,4.394,0,0,1,2.361-.64A4.233,4.233,0,0,1-2.12-8.8,5.461,5.461,0,0,1-.854-5.028v.121a5.981,5.981,0,0,1-.561,2.63A4.262,4.262,0,0,1-3.02-.464a4.445,4.445,0,0,1-2.4.649A4.223,4.223,0,0,1-8.725-1.234,5.433,5.433,0,0,1-9.992-4.991Zm1.726.2a4.294,4.294,0,0,0,.775,2.681A2.479,2.479,0,0,0-5.418-1.215,2.464,2.464,0,0,0-3.34-2.24a4.7,4.7,0,0,0,.77-2.871,4.287,4.287,0,0,0-.784-2.677A2.492,2.492,0,0,0-5.437-8.813,2.465,2.465,0,0,0-7.487-7.8,4.661,4.661,0,0,0-8.266-4.908Z" transform="translate(585 8516)" fill="#00104e"/>
    <path id="Trazado_172594" data-name="Trazado 172594" d="M-45.056-5.834h1.518v2.666h-1.518V0h-3.456V-3.168h-5.773l-.205-2.112,5.978-9.618v-.031h3.456Zm-6.142,0h2.687v-4.594l-.215.349Zm11.372,2.481a1.967,1.967,0,0,1,1.364.487,1.6,1.6,0,0,1,.543,1.246,1.6,1.6,0,0,1-.543,1.246,1.967,1.967,0,0,1-1.364.487A1.95,1.95,0,0,1-41.2-.379a1.609,1.609,0,0,1-.538-1.241A1.609,1.609,0,0,1-41.2-2.861,1.95,1.95,0,0,1-39.826-3.353Zm22.241-3.8a8.8,8.8,0,0,1-.81,3.866A5.987,5.987,0,0,1-20.7-.7a6.41,6.41,0,0,1-3.4.907A6.5,6.5,0,0,1-27.48-.672a5.977,5.977,0,0,1-2.3-2.507,8.551,8.551,0,0,1-.866-3.743v-.841a8.843,8.843,0,0,1,.8-3.871,5.972,5.972,0,0,1,2.307-2.589,6.455,6.455,0,0,1,3.42-.913,6.392,6.392,0,0,1,3.384.9,6.08,6.08,0,0,1,2.312,2.569,8.589,8.589,0,0,1,.836,3.82Zm-3.661-.625a6.278,6.278,0,0,0-.743-3.379,2.385,2.385,0,0,0-2.128-1.154q-2.707,0-2.861,4.061l-.01,1.1a6.457,6.457,0,0,0,.728,3.374A2.381,2.381,0,0,0-24.1-2.6a2.352,2.352,0,0,0,2.1-1.159A6.281,6.281,0,0,0-21.246-7.1ZM-5.588-5.455A6.762,6.762,0,0,1-6.716-1.261,3.778,3.778,0,0,1-9.9.205a3.278,3.278,0,0,1-2.728-1.343L-12.766,0h-3.1V-15.75h3.456V-10.2a3.163,3.163,0,0,1,2.492-1.1,3.779,3.779,0,0,1,3.2,1.487A6.8,6.8,0,0,1-5.588-5.629Zm-3.466-.22A4.51,4.51,0,0,0-9.48-7.953a1.434,1.434,0,0,0-1.307-.681,1.655,1.655,0,0,0-1.62.891v4.4a1.664,1.664,0,0,0,1.641.88A1.467,1.467,0,0,0-9.218-3.648,8.527,8.527,0,0,0-9.054-5.675Zm10.8,2.558a.8.8,0,0,0-.461-.708A7.019,7.019,0,0,0-.472-4.378,8,8,0,0,1-2.6-5.132,3.573,3.573,0,0,1-3.886-6.265a2.706,2.706,0,0,1-.441-1.528A3.066,3.066,0,0,1-3.066-10.31a5.2,5.2,0,0,1,3.3-.99,5.756,5.756,0,0,1,3.527.995A3.11,3.11,0,0,1,5.1-7.69H1.63q0-1.333-1.4-1.333a1.393,1.393,0,0,0-.913.3.937.937,0,0,0-.369.754A.86.86,0,0,0-.6-7.219a4.263,4.263,0,0,0,1.441.472,12.45,12.45,0,0,1,1.738.441q2.5.861,2.5,3.086A2.906,2.906,0,0,1,3.727-.749,5.913,5.913,0,0,1,.236.205,6.034,6.034,0,0,1-2.307-.308,4.252,4.252,0,0,1-4.05-1.7a3.158,3.158,0,0,1-.625-1.856h3.23A1.335,1.335,0,0,0-.933-2.435a2.109,2.109,0,0,0,1.261.354,1.659,1.659,0,0,0,1.061-.287A.918.918,0,0,0,1.743-3.117ZM12.059.205A5.7,5.7,0,0,1,7.926-1.318,5.258,5.258,0,0,1,6.347-5.281v-.287a6.814,6.814,0,0,1,.631-3,4.614,4.614,0,0,1,1.841-2.015,5.556,5.556,0,0,1,2.871-.713,4.8,4.8,0,0,1,3.691,1.451A5.7,5.7,0,0,1,16.734-5.8V-4.46H9.864a2.491,2.491,0,0,0,.81,1.466,2.41,2.41,0,0,0,1.62.533,3.106,3.106,0,0,0,2.563-1.148l1.579,1.866a4.414,4.414,0,0,1-1.83,1.42A6.185,6.185,0,0,1,12.059.205Zm-.39-8.839q-1.518,0-1.8,2.01h3.486v-.267a1.712,1.712,0,0,0-.42-1.287A1.673,1.673,0,0,0,11.669-8.634Zm13.166.667L23.7-8.049A2.044,2.044,0,0,0,21.6-7.024V0H18.149V-11.095h3.24L21.5-9.669a2.676,2.676,0,0,1,2.43-1.63,3.37,3.37,0,0,1,.964.123ZM30.69-4.112l1.753-6.983h3.64L32.464,0H28.937l-3.62-11.095h3.65ZM43.21,0a3.9,3.9,0,0,1-.328-.995,3.213,3.213,0,0,1-2.666,1.2A3.936,3.936,0,0,1,37.55-.743a3.019,3.019,0,0,1-1.1-2.384,3.1,3.1,0,0,1,1.333-2.728,6.791,6.791,0,0,1,3.876-.923h1.066v-.587q0-1.535-1.323-1.535a1.081,1.081,0,0,0-1.23,1.216H36.719A3.1,3.1,0,0,1,38.088-10.3a5.753,5.753,0,0,1,3.491-1,5.044,5.044,0,0,1,3.353,1.036,3.6,3.6,0,0,1,1.261,2.84v4.912a5.03,5.03,0,0,0,.472,2.338V0ZM41.046-2.256a1.928,1.928,0,0,0,1.072-.277,1.735,1.735,0,0,0,.61-.625V-4.932h-1q-1.8,0-1.8,1.62a.989.989,0,0,0,.318.764A1.15,1.15,0,0,0,41.046-2.256ZM54.817-7.967l-1.138-.082a2.044,2.044,0,0,0-2.092,1.025V0H48.132V-11.095h3.24l.113,1.425a2.676,2.676,0,0,1,2.43-1.63,3.37,3.37,0,0,1,.964.123Z" transform="translate(757 8518)" fill="#12263f"/>
    <path id="Trazado_172595" data-name="Trazado 172595" d="M-49.726,0h-3.466V-11.033l-3.4.995v-2.625l6.552-2.266h.318Zm6.7-3.353a1.967,1.967,0,0,1,1.364.487,1.6,1.6,0,0,1,.543,1.246,1.6,1.6,0,0,1-.543,1.246,1.967,1.967,0,0,1-1.364.487A1.95,1.95,0,0,1-44.4-.379a1.609,1.609,0,0,1-.538-1.241A1.609,1.609,0,0,1-44.4-2.861,1.95,1.95,0,0,1-43.031-3.353Zm21.677-1.7A5.452,5.452,0,0,1-22.195-2.3,5.075,5.075,0,0,1-24.353-.451a7.347,7.347,0,0,1-3.174.656,5.863,5.863,0,0,1-4.635-1.917,7.917,7.917,0,0,1-1.692-5.414v-.738a9.037,9.037,0,0,1,.764-3.84,5.788,5.788,0,0,1,2.2-2.543,6.137,6.137,0,0,1,3.322-.9,6.435,6.435,0,0,1,4.368,1.43,5.652,5.652,0,0,1,1.876,3.943h-3.589A2.674,2.674,0,0,0-25.6-11.73a2.826,2.826,0,0,0-1.969-.595,2.15,2.15,0,0,0-1.969,1,6.458,6.458,0,0,0-.656,3.209v1.056a7.146,7.146,0,0,0,.6,3.415,2.2,2.2,0,0,0,2.066,1.025,2.764,2.764,0,0,0,1.9-.584,2.481,2.481,0,0,0,.7-1.856Zm1.107-.595A6.548,6.548,0,0,1-19.6-8.608,4.62,4.62,0,0,1-17.744-10.6a5.59,5.59,0,0,1,2.84-.7,5.1,5.1,0,0,1,3.927,1.543,5.922,5.922,0,0,1,1.436,4.2v.123a5.746,5.746,0,0,1-1.441,4.117,5.115,5.115,0,0,1-3.9,1.523,5.173,5.173,0,0,1-3.8-1.42,5.555,5.555,0,0,1-1.548-3.85Zm3.456.215a4.128,4.128,0,0,0,.482,2.256,1.606,1.606,0,0,0,1.425.718q1.846,0,1.887-2.84V-5.65q0-2.984-1.907-2.984-1.733,0-1.876,2.574ZM-4.373,0H-7.839V-15.75h3.466ZM4,0a3.9,3.9,0,0,1-.328-.995A3.213,3.213,0,0,1,1.01.205,3.936,3.936,0,0,1-1.656-.743a3.019,3.019,0,0,1-1.1-2.384A3.1,3.1,0,0,1-1.42-5.855a6.791,6.791,0,0,1,3.876-.923H3.522v-.587Q3.522-8.9,2.2-8.9A1.081,1.081,0,0,0,.969-7.685H-2.487A3.1,3.1,0,0,1-1.118-10.3a5.753,5.753,0,0,1,3.491-1,5.044,5.044,0,0,1,3.353,1.036,3.6,3.6,0,0,1,1.261,2.84v4.912A5.03,5.03,0,0,0,7.46-.174V0ZM1.841-2.256a1.928,1.928,0,0,0,1.072-.277,1.735,1.735,0,0,0,.61-.625V-4.932h-1q-1.8,0-1.8,1.62a.989.989,0,0,0,.318.764A1.15,1.15,0,0,0,1.841-2.256Zm17.36-3.2a6.762,6.762,0,0,1-1.128,4.194A3.778,3.778,0,0,1,14.894.205a3.278,3.278,0,0,1-2.728-1.343L12.023,0h-3.1V-15.75h3.456V-10.2a3.163,3.163,0,0,1,2.492-1.1,3.779,3.779,0,0,1,3.2,1.487A6.8,6.8,0,0,1,19.2-5.629Zm-3.466-.22a4.51,4.51,0,0,0-.426-2.278A1.434,1.434,0,0,0,14-8.634a1.655,1.655,0,0,0-1.62.891v4.4a1.664,1.664,0,0,0,1.641.88,1.467,1.467,0,0,0,1.548-1.188A8.527,8.527,0,0,0,15.735-5.675Zm4.553.025a6.548,6.548,0,0,1,.646-2.958A4.62,4.62,0,0,1,22.789-10.6a5.59,5.59,0,0,1,2.84-.7,5.1,5.1,0,0,1,3.927,1.543,5.922,5.922,0,0,1,1.436,4.2v.123a5.746,5.746,0,0,1-1.441,4.117A5.115,5.115,0,0,1,25.65.205a5.173,5.173,0,0,1-3.8-1.42A5.555,5.555,0,0,1,20.3-5.065Zm3.456.215a4.128,4.128,0,0,0,.482,2.256,1.606,1.606,0,0,0,1.425.718q1.846,0,1.887-2.84V-5.65q0-2.984-1.907-2.984-1.733,0-1.876,2.574ZM39.226-7.967l-1.138-.082A2.044,2.044,0,0,0,36-7.024V0H32.541V-11.095h3.24l.113,1.425a2.676,2.676,0,0,1,2.43-1.63,3.37,3.37,0,0,1,.964.123ZM46.414,0a3.9,3.9,0,0,1-.328-.995A3.213,3.213,0,0,1,43.42.205a3.936,3.936,0,0,1-2.666-.948,3.019,3.019,0,0,1-1.1-2.384A3.1,3.1,0,0,1,40.99-5.855a6.791,6.791,0,0,1,3.876-.923h1.066v-.587q0-1.535-1.323-1.535a1.081,1.081,0,0,0-1.23,1.216H39.924A3.1,3.1,0,0,1,41.292-10.3a5.753,5.753,0,0,1,3.491-1,5.044,5.044,0,0,1,3.353,1.036A3.6,3.6,0,0,1,49.4-7.424v4.912A5.03,5.03,0,0,0,49.87-.174V0ZM44.251-2.256a1.928,1.928,0,0,0,1.072-.277,1.735,1.735,0,0,0,.61-.625V-4.932h-1q-1.8,0-1.8,1.62a.989.989,0,0,0,.318.764A1.15,1.15,0,0,0,44.251-2.256ZM58.022-7.967l-1.138-.082a2.044,2.044,0,0,0-2.092,1.025V0H51.336V-11.095h3.24l.113,1.425a2.676,2.676,0,0,1,2.43-1.63,3.37,3.37,0,0,1,.964.123Z" transform="translate(1015 8403)" fill="#12263f"/>
    <path id="Trazado_172596" data-name="Trazado 172596" d="M-52.105,0H-62.523V-2.256l4.8-5.045q1.774-2.02,1.774-3.209a2.232,2.232,0,0,0-.42-1.466,1.5,1.5,0,0,0-1.22-.5,1.52,1.52,0,0,0-1.282.672,2.76,2.76,0,0,0-.492,1.677h-3.466a4.9,4.9,0,0,1,.687-2.538,4.818,4.818,0,0,1,1.907-1.82,5.665,5.665,0,0,1,2.728-.656,5.573,5.573,0,0,1,3.727,1.118,3.99,3.99,0,0,1,1.307,3.209A4.661,4.661,0,0,1-52.8-9.1a7.532,7.532,0,0,1-1.02,1.753,25.7,25.7,0,0,1-2.23,2.456l-1.928,2.225h5.875Zm3.938-3.353a1.967,1.967,0,0,1,1.364.487A1.6,1.6,0,0,1-46.26-1.62,1.6,1.6,0,0,1-46.8-.374a1.967,1.967,0,0,1-1.364.487,1.95,1.95,0,0,1-1.369-.492,1.609,1.609,0,0,1-.538-1.241,1.609,1.609,0,0,1,.538-1.241A1.95,1.95,0,0,1-48.168-3.353Zm21.677-1.7A5.452,5.452,0,0,1-27.332-2.3,5.075,5.075,0,0,1-29.49-.451a7.347,7.347,0,0,1-3.174.656A5.863,5.863,0,0,1-37.3-1.712,7.917,7.917,0,0,1-38.99-7.126v-.738a9.037,9.037,0,0,1,.764-3.84,5.788,5.788,0,0,1,2.2-2.543,6.137,6.137,0,0,1,3.322-.9,6.435,6.435,0,0,1,4.368,1.43A5.652,5.652,0,0,1-26.46-9.772h-3.589a2.674,2.674,0,0,0-.687-1.958,2.826,2.826,0,0,0-1.969-.595,2.15,2.15,0,0,0-1.969,1,6.458,6.458,0,0,0-.656,3.209v1.056a7.146,7.146,0,0,0,.6,3.415,2.2,2.2,0,0,0,2.066,1.025,2.764,2.764,0,0,0,1.9-.584,2.481,2.481,0,0,0,.7-1.856Zm1.107-.595a6.548,6.548,0,0,1,.646-2.958A4.62,4.62,0,0,1-22.882-10.6a5.59,5.59,0,0,1,2.84-.7,5.1,5.1,0,0,1,3.927,1.543,5.922,5.922,0,0,1,1.436,4.2v.123a5.746,5.746,0,0,1-1.441,4.117,5.115,5.115,0,0,1-3.9,1.523,5.173,5.173,0,0,1-3.8-1.42,5.555,5.555,0,0,1-1.548-3.85Zm3.456.215a4.128,4.128,0,0,0,.482,2.256,1.606,1.606,0,0,0,1.425.718q1.846,0,1.887-2.84V-5.65q0-2.984-1.907-2.984-1.733,0-1.876,2.574Zm12.038-5.66.113,1.3A3.815,3.815,0,0,1-6.609-11.3a2.808,2.808,0,0,1,2.84,1.671A3.692,3.692,0,0,1-.508-11.3q3.374,0,3.466,4.081V0H-.508V-7A2.115,2.115,0,0,0-.795-8.244a1.222,1.222,0,0,0-1.046-.39,1.637,1.637,0,0,0-1.528.913l.01.144V0H-6.824V-6.983A2.223,2.223,0,0,0-7.1-8.244a1.219,1.219,0,0,0-1.056-.39,1.657,1.657,0,0,0-1.518.913V0H-13.13V-11.095ZM11.541-1.2A3.563,3.563,0,0,1,8.577.205,3.494,3.494,0,0,1,5.814-.856a4.463,4.463,0,0,1-.938-3.051v-7.188H8.331v7.208A1.242,1.242,0,0,0,9.716-2.461a1.806,1.806,0,0,0,1.692-.851v-7.783h3.476V0h-3.24Zm8.408-9.9.113,1.3A3.762,3.762,0,0,1,23.23-11.3a3.165,3.165,0,0,1,2.589,1.036,4.93,4.93,0,0,1,.887,3.117V0H23.24V-7A1.872,1.872,0,0,0,22.9-8.239a1.565,1.565,0,0,0-1.23-.395,1.648,1.648,0,0,0-1.507.8V0H16.709V-11.095ZM32.264,0H28.8V-11.095h3.466ZM28.593-13.956a1.542,1.542,0,0,1,.533-1.21,2.012,2.012,0,0,1,1.384-.472,2.012,2.012,0,0,1,1.384.472,1.542,1.542,0,0,1,.533,1.21,1.542,1.542,0,0,1-.533,1.21,2.012,2.012,0,0,1-1.384.472,2.012,2.012,0,0,1-1.384-.472A1.542,1.542,0,0,1,28.593-13.956ZM39.083-2.461a1.537,1.537,0,0,0,1.128-.395,1.448,1.448,0,0,0,.39-1.1h3.24A3.836,3.836,0,0,1,42.533-.964,4.863,4.863,0,0,1,39.165.205,4.924,4.924,0,0,1,35.35-1.312a5.979,5.979,0,0,1-1.395-4.2V-5.66a6.758,6.758,0,0,1,.62-2.969,4.517,4.517,0,0,1,1.789-1.979,5.335,5.335,0,0,1,2.769-.692,4.8,4.8,0,0,1,3.435,1.2,4.255,4.255,0,0,1,1.271,3.25H40.6a1.9,1.9,0,0,0-.42-1.323,1.451,1.451,0,0,0-1.128-.461q-1.343,0-1.569,1.712a12.083,12.083,0,0,0-.072,1.5,4.746,4.746,0,0,0,.4,2.317A1.384,1.384,0,0,0,39.083-2.461ZM51.552,0a3.9,3.9,0,0,1-.328-.995,3.213,3.213,0,0,1-2.666,1.2,3.936,3.936,0,0,1-2.666-.948,3.019,3.019,0,0,1-1.1-2.384,3.1,3.1,0,0,1,1.333-2.728A6.791,6.791,0,0,1,50-6.778H51.07v-.587q0-1.535-1.323-1.535a1.081,1.081,0,0,0-1.23,1.216H45.061A3.1,3.1,0,0,1,46.43-10.3a5.753,5.753,0,0,1,3.491-1,5.044,5.044,0,0,1,3.353,1.036,3.6,3.6,0,0,1,1.261,2.84v4.912a5.03,5.03,0,0,0,.472,2.338V0ZM49.388-2.256a1.928,1.928,0,0,0,1.072-.277,1.735,1.735,0,0,0,.61-.625V-4.932h-1q-1.8,0-1.8,1.62a.989.989,0,0,0,.318.764A1.15,1.15,0,0,0,49.388-2.256ZM63.159-7.967l-1.138-.082a2.044,2.044,0,0,0-2.092,1.025V0H56.473V-11.095h3.24l.113,1.425a2.676,2.676,0,0,1,2.43-1.63,3.37,3.37,0,0,1,.964.123Z" transform="translate(1015 8518)" fill="#12263f"/>
    <path id="Trazado_5502" data-name="Trazado 5502" d="M4692.388,6191.5h-17.054v112.961h17.054" transform="translate(-4180.283 2206.256)" fill="none" stroke="#00104e" stroke-width="1"/>
    <path id="Trazado_5503" data-name="Trazado 5503" d="M4892,6391v11.355h254.537V6391" transform="translate(-4119.814 2245.229)" fill="none" stroke="#707070" stroke-width="1"/>
  </g>
</svg>
