<svg xmlns="http://www.w3.org/2000/svg" width="72.892" height="72.892" viewBox="0 0 72.892 72.892">
  <g id="Grupo_128085" data-name="Grupo 128085" transform="translate(-180 -8687.031)">
    <g id="Grupo_113833" data-name="Grupo 113833" transform="translate(180 8687.031)">
      <circle id="Elipse_5080" data-name="Elipse 5080" cx="36.446" cy="36.446" r="36.446" fill="#ff6148"/>
      <circle id="Elipse_5081" data-name="Elipse 5081" cx="31.431" cy="31.431" r="31.431" transform="translate(5.015 5.015)" fill="#fff"/>
    </g>
    <path id="Trazado_172603" data-name="Trazado 172603" d="M-14.258-7.719V0h-5.484V-22.75h9.078a10.574,10.574,0,0,1,4.617.961,7.242,7.242,0,0,1,3.109,2.734,7.468,7.468,0,0,1,1.1,4.023,6.583,6.583,0,0,1-2.383,5.32,9.887,9.887,0,0,1-6.539,1.992Zm0-4.234h3.594a3.389,3.389,0,0,0,2.43-.8A2.961,2.961,0,0,0-7.4-15a3.66,3.66,0,0,0-.859-2.547,3.043,3.043,0,0,0-2.344-.969h-3.656Zm34.609,1.047a13.416,13.416,0,0,1-1.234,5.891A9.123,9.123,0,0,1,15.609-1.07,9.767,9.767,0,0,1,10.43.313,9.906,9.906,0,0,1,5.273-1.023a9.108,9.108,0,0,1-3.508-3.82,13.03,13.03,0,0,1-1.32-5.7v-1.281a13.475,13.475,0,0,1,1.227-5.9,9.1,9.1,0,0,1,3.516-3.945A9.836,9.836,0,0,1,10.4-23.062a9.74,9.74,0,0,1,5.156,1.375,9.265,9.265,0,0,1,3.523,3.914,13.088,13.088,0,0,1,1.273,5.82Zm-5.578-.953a9.567,9.567,0,0,0-1.133-5.148A3.634,3.634,0,0,0,10.4-18.766q-4.125,0-4.359,6.188l-.016,1.672A9.839,9.839,0,0,0,7.133-5.766a3.628,3.628,0,0,0,3.3,1.8,3.585,3.585,0,0,0,3.2-1.766,9.571,9.571,0,0,0,1.141-5.078Z" transform="translate(217 8735)" fill="#12263f"/>
  </g>
</svg>
