<svg xmlns="http://www.w3.org/2000/svg" width="293.056" height="418.811" viewBox="0 0 293.056 418.811">
  <g id="Grupo_111998" data-name="Grupo 111998" transform="translate(-774.123 -2012.1)">
    <g id="Grupo_111857" data-name="Grupo 111857" transform="translate(774.123 2012.1)">
      <g id="Grupo_111856" data-name="Grupo 111856">
        <path id="Trazado_167477" data-name="Trazado 167477" d="M819.811,2222.251c1.37,0-10.463,31.782-13.508,39.9-.337.9-.573,1.691-.573,1.691l82.822.143-.976-77.061a1.427,1.427,0,0,0-.011-.152l-6.927-55.123a1.355,1.355,0,0,0-.989-1.142c-3.28-.89-15.1-3.939-24.138-4.274-10.6-.393-25.925,1.709-25.925,1.709s-13.753,1.419-21.323,4.149a1.359,1.359,0,0,0-.887,1.47Z" transform="translate(-781.452 -2038.553)" fill="#ff6148"/>
        <g id="Grupo_111717" data-name="Grupo 111717" transform="translate(54.772 149.54)">
          <path id="Trazado_167478" data-name="Trazado 167478" d="M867.264,2206.782a5.628,5.628,0,0,1-.415,1,9.556,9.556,0,0,1-.582,1.131,16.042,16.042,0,0,1-.879,1.438,17.909,17.909,0,0,1-1.21,1.648c-.443.59-.991,1.154-1.553,1.763a24.836,24.836,0,0,1-8.945,5.859c-.782.273-1.519.549-2.237.719a17.828,17.828,0,0,1-1.995.45,16.06,16.06,0,0,1-1.67.23,9.676,9.676,0,0,1-1.269.082,5.5,5.5,0,0,1-1.082-.02c0-.087,1.544-.078,3.967-.57a19.373,19.373,0,0,0,1.959-.491c.7-.182,1.426-.467,2.193-.744a25.853,25.853,0,0,0,8.817-5.775c.56-.593,1.111-1.14,1.558-1.713a19.252,19.252,0,0,0,1.233-1.6C866.575,2208.166,867.185,2206.742,867.264,2206.782Z" transform="translate(-845.428 -2206.781)" fill="#263238"/>
        </g>
        <g id="Grupo_111718" data-name="Grupo 111718" transform="translate(27.09 193.923)" opacity="0.2">
          <path id="Trazado_167479" data-name="Trazado 167479" d="M809.391,2288.231a24.376,24.376,0,0,0,23.761-2.972c2.986-2.169,5.493-5,8.715-6.8,4.469-2.493,9.8-2.73,14.9-3.094,6.833-.488,13.719-1.325,20.143-3.705a8.061,8.061,0,0,0,3.522-2.129,3.138,3.138,0,0,0,.32-3.831c-.887-1.106-2.52-1.169-3.938-1.126-21.419.631-40.99,2.349-61.837,7.3" transform="translate(-809.391 -2264.562)"/>
        </g>
        <path id="Trazado_167480" data-name="Trazado 167480" d="M839.442,2020.5c6.62-6.74,17.067-10.718,25.722-6.931,5.819,2.546,9.766,8.006,14.873,11.782,3.719,2.75,8.315,4.875,10.265,9.069,1.718,3.7.889,8,.475,12.059s-.125,8.736,3.018,11.336c1.65,1.365,3.819,1.9,5.677,2.969,3.74,2.143,5.962,6.313,6.763,10.549s.369,8.6-.066,12.884l-17.827,3.4-2.928-4.925-1.021,7.742-22.75,2.053Z" transform="translate(-789.268 -2012.1)" fill="#263238"/>
        <g id="Grupo_111785" data-name="Grupo 111785" transform="translate(45.791 13.722)">
          <g id="Grupo_111784" data-name="Grupo 111784">
            <g id="Grupo_111783" data-name="Grupo 111783">
              <g id="Grupo_111772" data-name="Grupo 111772">
                <g id="Grupo_111771" data-name="Grupo 111771">
                  <g id="Grupo_111770" data-name="Grupo 111770">
                    <g id="Grupo_111723" data-name="Grupo 111723">
                      <g id="Grupo_111722" data-name="Grupo 111722">
                        <g id="Grupo_111721" data-name="Grupo 111721">
                          <g id="Grupo_111720" data-name="Grupo 111720">
                            <g id="Grupo_111719" data-name="Grupo 111719">
                              <path id="Trazado_167481" data-name="Trazado 167481" d="M835.179,2032l-.038,4.96-1.4,74.358c-.122,8.619,8.125,15.958,17.354,16.018h0c9.321.061,13.123-6.942,13.39-15.647.28-9.137.743-18.75.743-18.75s11.825-1.63,14.688-16.921c1.423-7.6,1.385-20.137,1.022-30.391a16.224,16.224,0,0,0-17.471-15.613Z" transform="translate(-833.736 -2029.964)" fill="#ffbf9d"/>
                            </g>
                          </g>
                        </g>
                      </g>
                    </g>
                    <g id="Grupo_111735" data-name="Grupo 111735" transform="translate(36.52 19.924)">
                      <g id="Grupo_111728" data-name="Grupo 111728" transform="translate(2.692 3.782)">
                        <g id="Grupo_111727" data-name="Grupo 111727">
                          <g id="Grupo_111726" data-name="Grupo 111726">
                            <g id="Grupo_111725" data-name="Grupo 111725">
                              <g id="Grupo_111724" data-name="Grupo 111724">
                                <path id="Trazado_167482" data-name="Trazado 167482" d="M888.72,2062.661a1.971,1.971,0,0,1-1.954,1.934,1.884,1.884,0,0,1-1.981-1.832,1.972,1.972,0,0,1,1.952-1.937A1.887,1.887,0,0,1,888.72,2062.661Z" transform="translate(-884.785 -2060.826)" fill="#263238"/>
                              </g>
                            </g>
                          </g>
                        </g>
                      </g>
                      <g id="Grupo_111734" data-name="Grupo 111734">
                        <g id="Grupo_111733" data-name="Grupo 111733">
                          <g id="Grupo_111732" data-name="Grupo 111732">
                            <g id="Grupo_111731" data-name="Grupo 111731">
                              <g id="Grupo_111730" data-name="Grupo 111730">
                                <g id="Grupo_111729" data-name="Grupo 111729">
                                  <path id="Trazado_167483" data-name="Trazado 167483" d="M889.062,2058.08c-.251.25-1.713-.9-3.832-.948-2.117-.083-3.7.964-3.925.7-.11-.118.152-.575.843-1.049a5.4,5.4,0,0,1,3.151-.876,5.188,5.188,0,0,1,3.042,1.075C888.978,2057.5,889.186,2057.969,889.062,2058.08Z" transform="translate(-881.28 -2055.902)" fill="#263238"/>
                                </g>
                              </g>
                            </g>
                          </g>
                        </g>
                      </g>
                    </g>
                    <g id="Grupo_111747" data-name="Grupo 111747" transform="translate(15.675 19.744)">
                      <g id="Grupo_111740" data-name="Grupo 111740" transform="translate(2.659 3.961)">
                        <g id="Grupo_111739" data-name="Grupo 111739">
                          <g id="Grupo_111738" data-name="Grupo 111738">
                            <g id="Grupo_111737" data-name="Grupo 111737">
                              <g id="Grupo_111736" data-name="Grupo 111736">
                                <path id="Trazado_167484" data-name="Trazado 167484" d="M861.539,2062.661a1.971,1.971,0,0,1-1.953,1.934,1.886,1.886,0,0,1-1.982-1.832,1.972,1.972,0,0,1,1.952-1.937A1.885,1.885,0,0,1,861.539,2062.661Z" transform="translate(-857.604 -2060.826)" fill="#263238"/>
                              </g>
                            </g>
                          </g>
                        </g>
                      </g>
                      <g id="Grupo_111746" data-name="Grupo 111746">
                        <g id="Grupo_111745" data-name="Grupo 111745">
                          <g id="Grupo_111744" data-name="Grupo 111744">
                            <g id="Grupo_111743" data-name="Grupo 111743">
                              <g id="Grupo_111742" data-name="Grupo 111742">
                                <g id="Grupo_111741" data-name="Grupo 111741">
                                  <path id="Trazado_167485" data-name="Trazado 167485" d="M861.926,2057.847c-.252.251-1.715-.895-3.834-.948-2.116-.083-3.7.964-3.925.7-.109-.118.151-.574.843-1.049a5.4,5.4,0,0,1,3.15-.877,5.193,5.193,0,0,1,3.043,1.075C861.839,2057.265,862.048,2057.736,861.926,2057.847Z" transform="translate(-854.143 -2055.669)" fill="#263238"/>
                                </g>
                              </g>
                            </g>
                          </g>
                        </g>
                      </g>
                    </g>
                    <g id="Grupo_111753" data-name="Grupo 111753" transform="translate(30.208 20.167)">
                      <g id="Grupo_111752" data-name="Grupo 111752">
                        <g id="Grupo_111751" data-name="Grupo 111751">
                          <g id="Grupo_111750" data-name="Grupo 111750">
                            <g id="Grupo_111749" data-name="Grupo 111749">
                              <g id="Grupo_111748" data-name="Grupo 111748">
                                <path id="Trazado_167486" data-name="Trazado 167486" d="M873.571,2073.905a14.053,14.053,0,0,1,3.46-.526c.543-.041,1.058-.135,1.159-.5a2.756,2.756,0,0,0-.316-1.615q-.71-1.984-1.487-4.164c-2.061-5.93-3.537-10.8-3.3-10.879s2.1,4.658,4.166,10.588Q878,2069,878.673,2071a3.136,3.136,0,0,1,.222,2.132,1.358,1.358,0,0,1-.912.767,3.651,3.651,0,0,1-.923.1A13.781,13.781,0,0,1,873.571,2073.905Z" transform="translate(-873.063 -2056.219)" fill="#263238"/>
                              </g>
                            </g>
                          </g>
                        </g>
                      </g>
                    </g>
                    <g id="Grupo_111758" data-name="Grupo 111758" transform="translate(11.072 56.921)">
                      <g id="Grupo_111757" data-name="Grupo 111757">
                        <g id="Grupo_111756" data-name="Grupo 111756">
                          <g id="Grupo_111755" data-name="Grupo 111755">
                            <g id="Grupo_111754" data-name="Grupo 111754">
                              <path id="Trazado_167487" data-name="Trazado 167487" d="M868.567,2110.121a39.085,39.085,0,0,1-20.417-6.054s4.7,10.688,20.11,9.674Z" transform="translate(-848.15 -2104.067)" fill="#ff9a6c"/>
                            </g>
                          </g>
                        </g>
                      </g>
                    </g>
                    <g id="Grupo_111763" data-name="Grupo 111763" transform="translate(23.319 41.411)">
                      <g id="Grupo_111762" data-name="Grupo 111762">
                        <g id="Grupo_111761" data-name="Grupo 111761">
                          <g id="Grupo_111760" data-name="Grupo 111760">
                            <g id="Grupo_111759" data-name="Grupo 111759">
                              <path id="Trazado_167488" data-name="Trazado 167488" d="M870.454,2085.4a3.82,3.82,0,0,0-3.385-1.513,3.488,3.488,0,0,0-2.443,1.225,2.211,2.211,0,0,0-.238,2.522,2.565,2.565,0,0,0,2.759.78,8.027,8.027,0,0,0,2.754-1.542,2.349,2.349,0,0,0,.623-.61.708.708,0,0,0,.018-.789" transform="translate(-864.094 -2083.876)" fill="#ff9a6c"/>
                            </g>
                          </g>
                        </g>
                      </g>
                    </g>
                    <g id="Grupo_111769" data-name="Grupo 111769" transform="translate(24.061 39.147)">
                      <g id="Grupo_111768" data-name="Grupo 111768">
                        <g id="Grupo_111767" data-name="Grupo 111767">
                          <g id="Grupo_111766" data-name="Grupo 111766">
                            <g id="Grupo_111765" data-name="Grupo 111765">
                              <g id="Grupo_111764" data-name="Grupo 111764">
                                <path id="Trazado_167489" data-name="Trazado 167489" d="M865.437,2080.929c.346-.01.287,2.29,2.211,3.978s4.38,1.5,4.389,1.824c.028.144-.558.431-1.595.431a5.725,5.725,0,0,1-3.667-1.393,4.991,4.991,0,0,1-1.706-3.331C865.008,2081.474,865.28,2080.911,865.437,2080.929Z" transform="translate(-865.06 -2080.928)" fill="#263238"/>
                              </g>
                            </g>
                          </g>
                        </g>
                      </g>
                    </g>
                  </g>
                </g>
              </g>
              <g id="Grupo_111777" data-name="Grupo 111777" transform="translate(14.433 14.053)">
                <g id="Grupo_111776" data-name="Grupo 111776">
                  <g id="Grupo_111775" data-name="Grupo 111775">
                    <g id="Grupo_111774" data-name="Grupo 111774">
                      <g id="Grupo_111773" data-name="Grupo 111773">
                        <path id="Trazado_167490" data-name="Trazado 167490" d="M862.224,2049.964c-.225.571-2.334.239-4.828.47-2.5.181-4.524.853-4.84.328-.141-.252.224-.784,1.05-1.32a8.427,8.427,0,0,1,7.366-.608C861.874,2049.228,862.321,2049.693,862.224,2049.964Z" transform="translate(-852.526 -2048.259)" fill="#263238"/>
                      </g>
                    </g>
                  </g>
                </g>
              </g>
              <g id="Grupo_111782" data-name="Grupo 111782" transform="translate(35.606 15.498)">
                <g id="Grupo_111781" data-name="Grupo 111781">
                  <g id="Grupo_111780" data-name="Grupo 111780">
                    <g id="Grupo_111779" data-name="Grupo 111779">
                      <g id="Grupo_111778" data-name="Grupo 111778">
                        <path id="Trazado_167491" data-name="Trazado 167491" d="M888.865,2052.463c-.468.469-2.231-.08-4.368-.162-2.133-.145-3.955.214-4.358-.3-.175-.25.123-.725.926-1.158a7.038,7.038,0,0,1,3.573-.691,6.922,6.922,0,0,1,3.457,1.064C888.837,2051.731,889.072,2052.233,888.865,2052.463Z" transform="translate(-880.091 -2050.141)" fill="#263238"/>
                      </g>
                    </g>
                  </g>
                </g>
              </g>
            </g>
          </g>
        </g>
        <path id="Trazado_167492" data-name="Trazado 167492" d="M805.506,2132.045s-24.7,5.8-29.492,29.221c-2.2,10.763-5.286,72.569,9.112,82.17,18.583,12.392,42.2,1.115,42.2,1.115l-3.033-29.894H808.959l-2.07-32.751C807.467,2184.418,805.506,2132.045,805.506,2132.045Z" transform="translate(-774.123 -2039.911)" fill="#ff6148"/>
        <path id="Trazado_167493" data-name="Trazado 167493" d="M923.289,2234.951a19.1,19.1,0,0,0,17.135-19.83l-10.088-42.878s-6.544-36.8-27.233-40.116l7.049,56.1-.672,11.822s.32,7.821,1.115,22.474Z" transform="translate(-804.029 -2039.931)" fill="#ff6148"/>
        <g id="Grupo_111786" data-name="Grupo 111786" transform="translate(105.879 168.087)">
          <path id="Trazado_167494" data-name="Trazado 167494" d="M928.021,2231.028a26.172,26.172,0,0,0-3.725.409,15.126,15.126,0,0,0-11.87,12.117,26.18,26.18,0,0,0-.332,3.732,4.137,4.137,0,0,1-.118-1.01,13.491,13.491,0,0,1,.171-2.771,14.874,14.874,0,0,1,12.093-12.346,13.444,13.444,0,0,1,2.768-.228A4.116,4.116,0,0,1,928.021,2231.028Z" transform="translate(-911.962 -2230.926)" fill="#263238"/>
        </g>
        <path id="Trazado_167495" data-name="Trazado 167495" d="M836.2,2020.48c2.782,3.734,4.1,6.6,5.772,13.245.817,3.252-1.828,5.55-4.455,7.535a2.118,2.118,0,0,1-3.348-1.225h0s.912,10.178-2.768,14.74a8.8,8.8,0,0,0-1.389,7.2,12.2,12.2,0,0,0,3.287,6.224,15.363,15.363,0,0,1,2.509,17.3,45.434,45.434,0,0,0-2.339,4.179,6.3,6.3,0,0,0-.491,2.7,2.139,2.139,0,0,1-1.814,2.273,167.994,167.994,0,0,1-38.178,1.148,2.093,2.093,0,0,1-1.869-1.582c-1-4.217.665-8.816,2.8-12.7,2.38-4.337,5.411-8.5,6.23-13.376.771-4.591-.482-9.542,1.363-13.816,2.264-5.246,8.417-7.727,11.5-12.538,2.907-4.541,2.673-10.494,5.277-15.215a14.552,14.552,0,0,1,17.918-6.091" transform="translate(-777.994 -2013.795)" fill="#263238"/>
        <path id="Trazado_167496" data-name="Trazado 167496" d="M850.638,2026.324c4.831,2.483,7.063,8.391,11.755,11.127,4.274,2.49,9.607,1.833,14.5,1.1q-.273-1.628-.545-3.255a8.772,8.772,0,0,0,1.813,2.636,2.98,2.98,0,0,0,2.973.7c1.641-.661,1.859-2.919,1.438-4.637a15.922,15.922,0,0,0-4.271-7.233,21.658,21.658,0,0,0-28.255-2.259" transform="translate(-791.727 -2014.002)" fill="#263238"/>
        <g id="Grupo_111787" data-name="Grupo 111787" transform="translate(104.147 121.665)">
          <path id="Trazado_167497" data-name="Trazado 167497" d="M909.769,2170.492a3.387,3.387,0,0,1,.045.6c.014.434.032,1.009.053,1.731.03,1.5.106,3.676.22,6.361.22,5.369.722,12.776,1.327,20.957s1.063,15.6,1.211,20.979c.078,2.688.111,4.865.092,6.368-.009.722-.016,1.3-.022,1.732a.3.3,0,1,1-.081,0c-.014-.433-.031-1.008-.053-1.729-.03-1.5-.105-3.676-.22-6.36-.22-5.37-.723-12.778-1.327-20.961s-1.062-15.6-1.211-20.975c-.078-2.688-.111-4.865-.093-6.37.009-.722.016-1.3.022-1.731A3.424,3.424,0,0,1,909.769,2170.492Z" transform="translate(-909.707 -2170.492)" fill="#263238"/>
        </g>
        <g id="Grupo_111788" data-name="Grupo 111788" transform="translate(32.087 132.434)">
          <path id="Trazado_167498" data-name="Trazado 167498" d="M818.645,2226.823a1.783,1.783,0,0,1-.055-.43c-.021-.326-.048-.734-.08-1.233-.063-1.127-.148-2.663-.253-4.536-.218-3.829-.555-9.117-.954-14.957-.4-5.815-.77-11.078-1.039-14.956-.123-1.873-.224-3.407-.3-4.534-.026-.5-.047-.907-.064-1.233a1.8,1.8,0,0,1,0-.432,1.709,1.709,0,0,1,.076.426c.036.325.082.731.138,1.228.105,1.124.25,2.656.425,4.524.336,3.823.759,9.107,1.157,14.951s.691,11.135.836,14.971c.068,1.917.119,3.47.126,4.544,0,.5,0,.909.005,1.236A1.754,1.754,0,0,1,818.645,2226.823Z" transform="translate(-815.895 -2184.511)" fill="#263238"/>
        </g>
        <g id="Grupo_111789" data-name="Grupo 111789" transform="translate(26.441 174.714)">
          <path id="Trazado_167499" data-name="Trazado 167499" d="M816.941,2239.585c.007.071-.8.106-2.011.515a8.94,8.94,0,0,0-6.061,7.191c-.2,1.26-.1,2.063-.167,2.068a1.41,1.41,0,0,1-.119-.556,7.331,7.331,0,0,1,.005-1.549,8.614,8.614,0,0,1,6.257-7.425,7.277,7.277,0,0,1,1.526-.267A1.413,1.413,0,0,1,816.941,2239.585Z" transform="translate(-808.545 -2239.554)" fill="#263238"/>
        </g>
        <g id="Grupo_111790" data-name="Grupo 111790" transform="translate(33.039 174.552)">
          <path id="Trazado_167500" data-name="Trazado 167500" d="M837.3,2269.431a2.169,2.169,0,0,1-.088-.472c-.046-.354-.1-.806-.176-1.365-.141-1.238-.336-2.94-.574-5.024-.451-4.291-1.065-10.134-1.742-16.589-.225-2.243-.442-4.412-.644-6.425l.191.173-12.285-.071-3.566-.057-.954-.031a1.275,1.275,0,0,1-.33-.033,1.231,1.231,0,0,1,.33-.034l.954-.031,3.566-.057,12.285-.071h.174l.018.173c.207,2.013.429,4.182.66,6.425.632,6.46,1.205,12.306,1.625,16.6.186,2.088.337,3.8.447,5.037.042.56.075,1.015.1,1.371A2.143,2.143,0,0,1,837.3,2269.431Z" transform="translate(-817.135 -2239.343)" fill="#263238"/>
        </g>
        <g id="Grupo_111791" data-name="Grupo 111791" transform="translate(3.329 188.709)">
          <path id="Trazado_167501" data-name="Trazado 167501" d="M828.335,2273.7a3.456,3.456,0,0,1-.58.215l-1.685.538c-1.468.454-3.6,1.1-6.252,1.813a78.661,78.661,0,0,1-9.461,1.965,32.7,32.7,0,0,1-11.8-.559,50.116,50.116,0,0,1-5.909-1.665c-.934-.332-1.847-.675-2.727-1.042-.44-.187-.877-.356-1.3-.583l-.63-.318-.585-.376a14.423,14.423,0,0,1-3.7-3.633,25.188,25.188,0,0,1-2.281-3.9,45.931,45.931,0,0,1-2.324-6.087c-.224-.736-.392-1.308-.5-1.7a.31.31,0,1,1,.077-.023l.567,1.674a51.7,51.7,0,0,0,2.43,6.013,25.587,25.587,0,0,0,2.294,3.822,14.213,14.213,0,0,0,3.639,3.521l.568.362.61.3c.4.216.841.385,1.278.568.876.361,1.782.7,2.711,1.025a50.909,50.909,0,0,0,5.864,1.645,32.8,32.8,0,0,0,11.669.585,83.332,83.332,0,0,0,9.439-1.873c2.66-.673,4.8-1.28,6.279-1.689l1.707-.465A3.668,3.668,0,0,1,828.335,2273.7Z" transform="translate(-778.456 -2257.773)" fill="#263238"/>
        </g>
        <path id="Trazado_167502" data-name="Trazado 167502" d="M820.805,2040.383a9.817,9.817,0,0,0-2.245-10.742,11.048,11.048,0,0,0-10.877-2.355,8.378,8.378,0,0,0-4.245,2.9,7.755,7.755,0,0,0,.431,8.98,11.318,11.318,0,0,0,8.4,4.081,21.521,21.521,0,0,0,9.353-1.937" transform="translate(-780.634 -2015.497)" fill="#263238"/>
        <g id="Grupo_111799" data-name="Grupo 111799" transform="translate(50.416 139.526)">
          <g id="Grupo_111794" data-name="Grupo 111794" transform="translate(11.499)">
            <path id="Trazado_167503" data-name="Trazado 167503" d="M859.364,2201.577c5.372,4.433,18.015,14.925,18.015,14.925l7.079-1.26L863.012,2197.2a2.848,2.848,0,0,0-3.9.215h0A2.848,2.848,0,0,0,859.364,2201.577Z" transform="translate(-855.563 -2194.39)" fill="#455a64"/>
            <path id="Trazado_167504" data-name="Trazado 167504" d="M857.961,2198.627l-2.785-2.513a1.361,1.361,0,0,1-.128-1.886h0a1.36,1.36,0,0,1,1.959-.126l2.678,2.454Z" transform="translate(-854.728 -2193.744)" fill="#455a64"/>
            <g id="Grupo_111792" data-name="Grupo 111792" transform="translate(7.771 6.229)">
              <path id="Trazado_167505" data-name="Trazado 167505" d="M868.593,2201.859a18.57,18.57,0,0,1-3.742,3.951,18.634,18.634,0,0,1,3.742-3.951Z" transform="translate(-864.846 -2201.854)" fill="#263238"/>
            </g>
            <g id="Grupo_111793" data-name="Grupo 111793" transform="translate(2.196 2.543)">
              <path id="Trazado_167506" data-name="Trazado 167506" d="M867.125,2209.58a13.767,13.767,0,0,1-2.14-1.4c-1.281-.922-3.007-2.26-4.825-3.843a7.988,7.988,0,0,1-2.258-2.6,3.722,3.722,0,0,1-.072-2.822,3.545,3.545,0,0,1,1.136-1.527,1.427,1.427,0,0,1,.61-.332,6.4,6.4,0,0,1-.509.451,3.723,3.723,0,0,0-.971,1.5,3.517,3.517,0,0,0,.142,2.574,8.018,8.018,0,0,0,2.185,2.449c1.809,1.576,3.5,2.942,4.732,3.919A19.456,19.456,0,0,1,867.125,2209.58Z" transform="translate(-857.588 -2197.054)" fill="#263238"/>
            </g>
          </g>
          <g id="Grupo_111798" data-name="Grupo 111798" transform="translate(0 20.591)">
            <path id="Trazado_167507" data-name="Trazado 167507" d="M839.758,2237.573c5.093-1.711,10.506-.558,15.6-2.27a13.5,13.5,0,0,0,4.813-2.374c1.618-1.437,2.441-3.549,3.731-5.286,3.856-5.192,11.058-6.268,17.492-6.927a13.009,13.009,0,0,1,4.5.064,4.414,4.414,0,0,1,3.274,2.824,2.711,2.711,0,0,1-2.03,3.417c1.409.062,2.4,1.493,2.655,2.881s.029,2.823.215,4.221c.262,1.965,1.337,3.8,1.274,5.785-.085,2.712-2.333,4.945-4.837,5.988s-5.275,1.179-7.961,1.557c-13.19,1.857-23.222,9.345-35.939,15" transform="translate(-839.758 -2220.551)" fill="#ffbf9d"/>
            <path id="Trazado_167508" data-name="Trazado 167508" d="M903.416,2232.4a1.82,1.82,0,0,0,2.6.534,2.784,2.784,0,0,0,1-2.685,6.244,6.244,0,0,0-1.272-2.7,34.912,34.912,0,0,0-3.691-4.077l-4.086,3.421Z" transform="translate(-853.254 -2221.228)" fill="#ffbf9d"/>
            <g id="Grupo_111795" data-name="Grupo 111795" transform="translate(37.738 6.467)">
              <path id="Trazado_167509" data-name="Trazado 167509" d="M899.807,2229.209c-.007.125-2.5-.079-5.525.389-3.026.445-5.35,1.378-5.394,1.26a5.391,5.391,0,0,1,1.491-.688,20.505,20.505,0,0,1,7.8-1.178A5.37,5.37,0,0,1,899.807,2229.209Z" transform="translate(-888.887 -2228.969)" fill="#ff9a6c"/>
            </g>
            <g id="Grupo_111796" data-name="Grupo 111796" transform="translate(41.095 14.071)">
              <path id="Trazado_167510" data-name="Trazado 167510" d="M902.619,2239.507c-.024.121-2.1-.305-4.689-.231-2.589.054-4.642.583-4.672.463a15.05,15.05,0,0,1,9.36-.232Z" transform="translate(-893.258 -2238.87)" fill="#ff9a6c"/>
            </g>
            <g id="Grupo_111797" data-name="Grupo 111797" transform="translate(48.033 2.483)">
              <path id="Trazado_167511" data-name="Trazado 167511" d="M904.28,2233.643c-.064-.006,0-.6-.112-1.539a8.1,8.1,0,0,0-1.237-3.412,7.887,7.887,0,0,0-.525-.711l-.115-.143.127-.126a3.7,3.7,0,0,0,1.062-2.7c-.019-.764-.23-1.2-.171-1.225a2.02,2.02,0,0,1,.429,1.208,3.734,3.734,0,0,1-1.045,3l.012-.268a7.347,7.347,0,0,1,1.744,4.354A3.447,3.447,0,0,1,904.28,2233.643Z" transform="translate(-902.291 -2223.784)" fill="#ff9a6c"/>
            </g>
          </g>
        </g>
        <path id="Trazado_167512" data-name="Trazado 167512" d="M905.06,2234.525l6.7,6.288.857,3.735-6.2-1.4A26.838,26.838,0,0,1,905.06,2234.525Z" transform="translate(-804.476 -2063.674)" fill="#455a64"/>
        <path id="Trazado_167513" data-name="Trazado 167513" d="M882.344,2244.432c-.137.246-36.157,18.005-36.157,18.005v3.82l36.758-19.121,45.609-1.721v-2.7Z" transform="translate(-790.832 -2065.572)" fill="#f5f5f5"/>
        <path id="Trazado_167514" data-name="Trazado 167514" d="M846.187,2267.623c.252-.172,39.77-3.735,39.77-3.735l42.6-17.656-45.609,1.721-36.758,19.121Z" transform="translate(-790.832 -2066.388)" fill="#263238"/>
        <g id="Grupo_111803" data-name="Grupo 111803" transform="translate(93.14 182.591)">
          <path id="Trazado_167515" data-name="Trazado 167515" d="M895.437,2258.993c-.32-2.07,1.662-3.843,3.682-4.4s4.181-.334,6.223-.8a28.3,28.3,0,0,0,3.8-1.353c6.3-2.417,13.211-2.542,19.958-2.637a4.283,4.283,0,0,1-1.53,5.236,7.051,7.051,0,0,1-.209,5.059,15.8,15.8,0,0,1-2.814,4.323,9.825,9.825,0,0,1-3.33,2.791,11.088,11.088,0,0,1-4.273.656c-4.526.1-9.381.1-13.124-2.446-2.909-1.977-4.927-5.37-8.3-6.373l.8.032" transform="translate(-895.384 -2249.809)" fill="#ffbf9d"/>
          <g id="Grupo_111800" data-name="Grupo 111800" transform="translate(11.264 2.987)">
            <path id="Trazado_167516" data-name="Trazado 167516" d="M929.021,2257.385a3.581,3.581,0,0,1-.867.082l-2.364.076c-2,.046-4.752.082-7.8.1h-4.3a5.939,5.939,0,0,1-1.9-.29,2.923,2.923,0,0,1-1.373-1,1.825,1.825,0,0,1-.359-1.361,1.705,1.705,0,0,1,.476-.946.955.955,0,0,1,.81-.337,1.754,1.754,0,0,0-.7.444,1.573,1.573,0,0,0,0,2.029,2.667,2.667,0,0,0,1.255.856,5.743,5.743,0,0,0,1.795.235l4.29-.032c3.045-.016,5.8-.007,7.8.019l2.364.052A3.72,3.72,0,0,1,929.021,2257.385Z" transform="translate(-910.044 -2253.698)" fill="#ff9a6c"/>
          </g>
          <g id="Grupo_111801" data-name="Grupo 111801" transform="translate(0 8.752)">
            <path id="Trazado_167517" data-name="Trazado 167517" d="M923.3,2262.918a5.784,5.784,0,0,1-1.088.213c-.7.108-1.725.255-3,.377a29.122,29.122,0,0,1-4.491.106,33.112,33.112,0,0,1-5.422-.912,42.187,42.187,0,0,0-9.811-1.2c-1.269-.006-2.3.044-3.006.083a6.543,6.543,0,0,1-1.106.033,5.274,5.274,0,0,1,1.093-.188c.708-.086,1.738-.18,3.016-.211a38.249,38.249,0,0,1,9.9,1.1,35.126,35.126,0,0,0,5.359.934,32.223,32.223,0,0,0,4.443-.021c1.267-.086,2.291-.189,3-.25A5.966,5.966,0,0,1,923.3,2262.918Z" transform="translate(-895.379 -2261.203)" fill="#ff9a6c"/>
          </g>
          <g id="Grupo_111802" data-name="Grupo 111802" transform="translate(3.005 10.895)">
            <path id="Trazado_167518" data-name="Trazado 167518" d="M920.444,2267.621a3.526,3.526,0,0,1-.847.158c-.548.072-1.343.17-2.331.255a28.094,28.094,0,0,1-7.743-.25c-3.033-.58-5.391-2.124-7.2-2.843a18.339,18.339,0,0,0-3.033-.932,2.668,2.668,0,0,1,.864.045,11.005,11.005,0,0,1,2.274.624c1.877.672,4.226,2.155,7.172,2.713a31.686,31.686,0,0,0,7.646.36l2.335-.127A3.688,3.688,0,0,1,920.444,2267.621Z" transform="translate(-899.291 -2263.993)" fill="#ff9a6c"/>
          </g>
        </g>
        <g id="Grupo_111804" data-name="Grupo 111804" transform="translate(107.083 161.637)" opacity="0.2">
          <path id="Trazado_167519" data-name="Trazado 167519" d="M913.53,2237.388a25.928,25.928,0,0,1,2.245-8.119,12.532,12.532,0,0,1,5.8-5.934,8.337,8.337,0,0,1,8.073.5,4.2,4.2,0,0,1,1.609,1.921,2.354,2.354,0,0,1-.387,2.387c-.85.9-2.283.757-3.52.7a14.814,14.814,0,0,0-13.7,8.251" transform="translate(-913.53 -2222.53)"/>
        </g>
        <g id="Grupo_111805" data-name="Grupo 111805" transform="translate(32.339 138.654)" opacity="0.2">
          <path id="Trazado_167520" data-name="Trazado 167520" d="M824.265,2228.111c3.052-5.5,1.97-12.409-.372-18.251s-5.842-11.216-7.629-17.25a106.51,106.51,0,0,0,5.26,36.075" transform="translate(-816.224 -2192.609)"/>
        </g>
        <path id="Trazado_167521" data-name="Trazado 167521" d="M831.172,2128.323s3.725,8.781,17.164,8.223,13.875-10.988,13.875-10.988l8.991,9.559-8.541,17.606-11.474,8.564-15.631-6.424-12.878-9.992Z" transform="translate(-785.381 -2038.407)" fill="#ff6148"/>
        <g id="Grupo_111806" data-name="Grupo 111806" transform="translate(5.953 127.431)" opacity="0.5">
          <path id="Trazado_167522" data-name="Trazado 167522" d="M790.235,2178.013c.138.173-1.62,1.813-3.927,3.663s-4.289,3.212-4.427,3.04,1.619-1.812,3.927-3.663S790.1,2177.84,790.235,2178.013Z" transform="translate(-781.873 -2177.998)" fill="#fafafa"/>
        </g>
        <g id="Grupo_111807" data-name="Grupo 111807" transform="translate(12.462 112.963)">
          <path id="Trazado_167523" data-name="Trazado 167523" d="M798.5,2164.173c-.069.2-2.191-.4-4.487-1.816s-3.8-3.028-3.651-3.18c.154-.171,1.84,1.138,4.069,2.5S798.579,2163.958,798.5,2164.173Z" transform="translate(-790.347 -2159.162)" fill="#fafafa"/>
        </g>
        <g id="Grupo_111808" data-name="Grupo 111808" transform="translate(25.087 118.996)">
          <path id="Trazado_167524" data-name="Trazado 167524" d="M813.852,2167.022c.181.14-1.516,2.608-3.449,5.742s-3.393,5.749-3.6,5.649.952-2.9,2.919-6.07S813.685,2166.89,813.852,2167.022Z" transform="translate(-806.783 -2167.017)" fill="#fafafa"/>
        </g>
        <g id="Grupo_111809" data-name="Grupo 111809" transform="translate(16.722 136.155)">
          <path id="Trazado_167525" data-name="Trazado 167525" d="M801.463,2198.894c-.157.14-1.93-1.668-3.482-4.354s-2.254-5.116-2.055-5.183c.217-.081,1.222,2.171,2.746,4.782S801.641,2198.746,801.463,2198.894Z" transform="translate(-795.893 -2189.355)" fill="#fafafa"/>
        </g>
        <g id="Grupo_111810" data-name="Grupo 111810" transform="translate(10.662 149.77)">
          <path id="Trazado_167526" data-name="Trazado 167526" d="M789.326,2215.921c-.219.03-.666-1.925-1-4.366s-.424-4.445-.205-4.475.666,1.925,1,4.367S789.545,2215.892,789.326,2215.921Z" transform="translate(-788.003 -2207.081)" fill="#fafafa"/>
        </g>
        <g id="Grupo_111811" data-name="Grupo 111811" transform="translate(21.668 153.331)" opacity="0.5">
          <path id="Trazado_167527" data-name="Trazado 167527" d="M802.355,2220.514c-.191-.111.8-2.169,2.2-4.6s2.705-4.307,2.9-4.2-.8,2.169-2.2,4.6S802.546,2220.625,802.355,2220.514Z" transform="translate(-802.331 -2211.716)" fill="#fafafa"/>
        </g>
        <g id="Grupo_111812" data-name="Grupo 111812" transform="translate(4.426 166.808)">
          <path id="Trazado_167528" data-name="Trazado 167528" d="M785.873,2237.957c-.16.143-1.873-1.535-3.535-3.966s-2.619-4.629-2.429-4.726,1.449,1.891,3.089,4.273S786.045,2237.807,785.873,2237.957Z" transform="translate(-779.886 -2229.26)" fill="#fafafa"/>
        </g>
        <g id="Grupo_111813" data-name="Grupo 111813" transform="translate(17.283 173.288)">
          <path id="Trazado_167529" data-name="Trazado 167529" d="M805.078,2237.706c.157.155-1.607,2.189-3.938,4.543s-4.35,4.135-4.507,3.979,1.606-2.189,3.938-4.543S804.92,2237.551,805.078,2237.706Z" transform="translate(-796.623 -2237.697)" fill="#fafafa"/>
        </g>
        <g id="Grupo_111814" data-name="Grupo 111814" transform="translate(11.481 193.022)" opacity="0.5">
          <path id="Trazado_167530" data-name="Trazado 167530" d="M794.616,2271.265c-.145.154-1.845-1.266-3.4-3.49s-2.314-4.3-2.12-4.384,1.26,1.774,2.775,3.924S794.779,2271.1,794.616,2271.265Z" transform="translate(-789.07 -2263.388)" fill="#fafafa"/>
        </g>
        <g id="Grupo_111815" data-name="Grupo 111815" transform="translate(27.965 195.287)">
          <path id="Trazado_167531" data-name="Trazado 167531" d="M819.365,2266.361c.109.192-1.779,1.475-4.217,2.865s-4.505,2.363-4.614,2.17,1.778-1.475,4.218-2.865S819.255,2266.169,819.365,2266.361Z" transform="translate(-810.529 -2266.337)" fill="#fafafa"/>
        </g>
        <g id="Grupo_111816" data-name="Grupo 111816" transform="translate(38.727 181.071)">
          <path id="Trazado_167532" data-name="Trazado 167532" d="M830.321,2255.708c-.136.161-1.933-1.208-3.556-3.44s-2.389-4.354-2.2-4.434c.211-.1,1.262,1.814,2.841,3.963S830.478,2255.538,830.321,2255.708Z" transform="translate(-824.54 -2247.83)" fill="#fafafa"/>
        </g>
        <g id="Grupo_111817" data-name="Grupo 111817" transform="translate(48.527 144.701)">
          <path id="Trazado_167533" data-name="Trazado 167533" d="M846.869,2200.5c.133.177-1.9,1.923-4.542,3.9s-4.889,3.438-5.022,3.261,1.9-1.923,4.543-3.9S846.737,2200.319,846.869,2200.5Z" transform="translate(-837.299 -2200.481)" fill="#fafafa"/>
        </g>
        <g id="Grupo_111818" data-name="Grupo 111818" transform="translate(43.63 134.472)">
          <path id="Trazado_167534" data-name="Trazado 167534" d="M831.067,2196.484c-.22-.022-.184-2.127.079-4.7s.656-4.641.876-4.619.184,2.127-.08,4.7S831.287,2196.507,831.067,2196.484Z" transform="translate(-830.923 -2187.165)" fill="#fafafa"/>
        </g>
        <g id="Grupo_111819" data-name="Grupo 111819" transform="translate(47.57 117.766)" opacity="0.5">
          <path id="Trazado_167535" data-name="Trazado 167535" d="M845.465,2173.446c-.123.176-2.5-1.29-5.117-3.524s-4.44-4.348-4.286-4.5,2.218,1.686,4.805,3.888S845.6,2173.26,845.465,2173.446Z" transform="translate(-836.053 -2165.416)" fill="#fafafa"/>
        </g>
        <g id="Grupo_111820" data-name="Grupo 111820" transform="translate(38.938 103.346)">
          <path id="Trazado_167536" data-name="Trazado 167536" d="M832.942,2146.65c.168.143-1.512,2.4-3.752,5.042s-4.194,4.668-4.363,4.524,1.512-2.4,3.753-5.042S832.774,2146.507,832.942,2146.65Z" transform="translate(-824.815 -2146.643)" fill="#fafafa"/>
        </g>
        <g id="Grupo_111821" data-name="Grupo 111821" transform="translate(27.533 98.06)" opacity="0.5">
          <path id="Trazado_167537" data-name="Trazado 167537" d="M818.136,2142.65c-.121.2-1.837-.686-4.068-1.433-2.226-.764-4.125-1.106-4.1-1.337.011-.209,2.029-.218,4.358.579S818.255,2142.477,818.136,2142.65Z" transform="translate(-809.967 -2139.76)" fill="#fafafa"/>
        </g>
        <g id="Grupo_111822" data-name="Grupo 111822" transform="translate(64.518 103.17)">
          <path id="Trazado_167538" data-name="Trazado 167538" d="M858.178,2154.539c-.212-.062.151-1.931.81-4.175s1.366-4.012,1.578-3.95-.151,1.931-.81,4.176S858.389,2154.6,858.178,2154.539Z" transform="translate(-858.117 -2146.413)" fill="#fafafa"/>
        </g>
        <g id="Grupo_111823" data-name="Grupo 111823" transform="translate(71.251 120.851)">
          <path id="Trazado_167539" data-name="Trazado 167539" d="M867.111,2177.557c-.22-.013-.294-1.842-.166-4.085s.412-4.053.634-4.04.294,1.841.165,4.086S867.331,2177.569,867.111,2177.557Z" transform="translate(-866.882 -2169.432)" fill="#fafafa"/>
        </g>
        <g id="Grupo_111824" data-name="Grupo 111824" transform="translate(75.809 136.59)">
          <path id="Trazado_167540" data-name="Trazado 167540" d="M879.835,2195.574c-.138.172-1.82-.95-3.755-2.506s-3.393-2.957-3.255-3.129,1.82.949,3.756,2.505S879.974,2195.4,879.835,2195.574Z" transform="translate(-872.816 -2189.922)" fill="#fafafa"/>
        </g>
        <g id="Grupo_111825" data-name="Grupo 111825" transform="translate(87.678 123.703)">
          <path id="Trazado_167541" data-name="Trazado 167541" d="M895.509,2173.159c.146.166-1.354,1.729-3.351,3.49s-3.735,3.056-3.881,2.891,1.354-1.729,3.351-3.491S895.363,2172.993,895.509,2173.159Z" transform="translate(-888.267 -2173.145)" fill="#fafafa"/>
        </g>
        <g id="Grupo_111826" data-name="Grupo 111826" transform="translate(82.018 108.881)" opacity="0.5">
          <path id="Trazado_167542" data-name="Trazado 167542" d="M888.243,2159.94c-.118.18-2.018-.861-4.063-2.561s-3.424-3.37-3.269-3.519,1.767,1.239,3.78,2.9S888.368,2159.751,888.243,2159.94Z" transform="translate(-880.899 -2153.848)" fill="#fafafa"/>
        </g>
        <g id="Grupo_111827" data-name="Grupo 111827" transform="translate(97.531 99.372)">
          <path id="Trazado_167543" data-name="Trazado 167543" d="M906.9,2141.479c.174.121-.757,1.711-2.4,3.25s-3.282,2.376-3.393,2.194,1.27-1.289,2.844-2.777S906.711,2141.343,906.9,2141.479Z" transform="translate(-901.095 -2141.469)" fill="#fafafa"/>
        </g>
        <g id="Grupo_111828" data-name="Grupo 111828" transform="translate(83.218 95.224)" opacity="0.5">
          <path id="Trazado_167544" data-name="Trazado 167544" d="M892.969,2138.767c-.029.213-2.482.038-5.41-.707s-5.171-1.749-5.1-1.95,2.406.449,5.292,1.174S893,2138.542,892.969,2138.767Z" transform="translate(-882.462 -2136.069)" fill="#fafafa"/>
        </g>
        <g id="Grupo_111829" data-name="Grupo 111829" transform="translate(111.518 109.87)" opacity="0.5">
          <path id="Trazado_167545" data-name="Trazado 167545" d="M919.352,2168.011c-.211-.045.269-3.046,1.364-6.62s2.369-6.333,2.569-6.254-.724,2.944-1.8,6.487S919.574,2168.06,919.352,2168.011Z" transform="translate(-919.304 -2155.135)" fill="#fafafa"/>
        </g>
        <g id="Grupo_111830" data-name="Grupo 111830" transform="translate(107.616 131.319)">
          <path id="Trazado_167546" data-name="Trazado 167546" d="M922.126,2191.429c-.16.151-2.058-1.6-4.235-3.905s-3.815-4.3-3.655-4.455,2.057,1.6,4.236,3.905S922.286,2191.277,922.126,2191.429Z" transform="translate(-914.225 -2183.06)" fill="#fafafa"/>
        </g>
        <g id="Grupo_111831" data-name="Grupo 111831" transform="translate(121.324 138.057)" opacity="0.5">
          <path id="Trazado_167547" data-name="Trazado 167547" d="M932.386,2203.063c-.221,0-.357-2.522-.3-5.623s.274-5.613.5-5.609.357,2.52.3,5.622S932.606,2203.066,932.386,2203.063Z" transform="translate(-932.07 -2191.831)" fill="#fafafa"/>
        </g>
        <g id="Grupo_111832" data-name="Grupo 111832" transform="translate(109.943 155.023)">
          <path id="Trazado_167548" data-name="Trazado 167548" d="M922.736,2223.989c-.173.125-1.821-1.889-3.339-4.7s-2.313-5.289-2.113-5.365,1.315,2.223,2.817,4.984S922.922,2223.857,922.736,2223.989Z" transform="translate(-917.253 -2213.919)" fill="#fafafa"/>
        </g>
        <g id="Grupo_111833" data-name="Grupo 111833" transform="translate(125.959 167.962)">
          <path id="Trazado_167549" data-name="Trazado 167549" d="M943.438,2230.78c.154.158-.911,1.449-2.38,2.883s-2.784,2.469-2.939,2.311.911-1.449,2.38-2.884S943.284,2230.622,943.438,2230.78Z" transform="translate(-938.105 -2230.764)" fill="#fafafa"/>
        </g>
        <g id="Grupo_111834" data-name="Grupo 111834" transform="translate(92.634 140.728)" opacity="0.5">
          <path id="Trazado_167550" data-name="Trazado 167550" d="M894.752,2204.545c-.2-.06.508-2.579,2.329-5.2s3.911-4.187,4.036-4.023c.158.175-1.641,1.94-3.377,4.478C895.984,2202.322,894.973,2204.63,894.752,2204.545Z" transform="translate(-894.72 -2195.309)" fill="#fafafa"/>
        </g>
        <g id="Grupo_111835" data-name="Grupo 111835" transform="translate(47.814 161.022)">
          <path id="Trazado_167551" data-name="Trazado 167551" d="M836.431,2231.748c-.214-.053.164-2.338.844-5.1s1.407-4.966,1.622-4.914-.164,2.338-.844,5.105S836.645,2231.8,836.431,2231.748Z" transform="translate(-836.371 -2221.729)" fill="#fafafa"/>
        </g>
        <g id="Grupo_111836" data-name="Grupo 111836" transform="translate(58.63 167.612)">
          <path id="Trazado_167552" data-name="Trazado 167552" d="M858.564,2235.614c-.121.185-2.033-.848-4.272-2.307s-3.956-2.793-3.835-2.978,2.033.848,4.272,2.307S858.685,2235.429,858.564,2235.614Z" transform="translate(-850.451 -2230.308)" fill="#fafafa"/>
        </g>
        <g id="Grupo_111837" data-name="Grupo 111837" transform="translate(62.412 154.283)">
          <path id="Trazado_167553" data-name="Trazado 167553" d="M858.759,2217.979c-.184.123-1.082-.9-2.008-2.284s-1.526-2.607-1.343-2.73,1.082.9,2.008,2.285S858.942,2217.857,858.759,2217.979Z" transform="translate(-855.375 -2212.955)" fill="#fafafa"/>
        </g>
        <g id="Grupo_111838" data-name="Grupo 111838" transform="translate(70.034 162.371)">
          <path id="Trazado_167554" data-name="Trazado 167554" d="M869.38,2223.522c.128.181-.681.967-1.8,1.756s-2.138,1.283-2.264,1.1.68-.967,1.8-1.756S869.253,2223.342,869.38,2223.522Z" transform="translate(-865.298 -2223.485)" fill="#fafafa"/>
        </g>
        <g id="Grupo_111839" data-name="Grupo 111839" transform="translate(52.325 209.745)" opacity="0.5">
          <path id="Trazado_167555" data-name="Trazado 167555" d="M842.311,2293.046c-.218-.066.137-1.81.453-3.963s.494-3.924.722-3.924.4,1.821.069,4.042S842.514,2293.112,842.311,2293.046Z" transform="translate(-842.243 -2285.159)" fill="#fafafa"/>
        </g>
        <g id="Grupo_111840" data-name="Grupo 111840" transform="translate(65.695 201.169)" opacity="0.5">
          <path id="Trazado_167556" data-name="Trazado 167556" d="M865.489,2284.226c-.192.109-1.651-2.091-3.257-4.915s-2.754-5.2-2.562-5.312,1.65,2.091,3.258,4.916S865.681,2284.117,865.489,2284.226Z" transform="translate(-859.649 -2273.995)" fill="#fafafa"/>
        </g>
        <g id="Grupo_111841" data-name="Grupo 111841" transform="translate(82.597 202.83)" opacity="0.5">
          <path id="Trazado_167557" data-name="Trazado 167557" d="M890.9,2276.163c.176.133-1.749,2.945-4.3,6.277s-4.759,5.927-4.934,5.793,1.748-2.944,4.3-6.278S890.722,2276.028,890.9,2276.163Z" transform="translate(-881.653 -2276.157)" fill="#fafafa"/>
        </g>
        <g id="Grupo_111842" data-name="Grupo 111842" transform="translate(86.089 219.054)" opacity="0.5">
          <path id="Trazado_167558" data-name="Trazado 167558" d="M897.672,2297.368c.031.219-2.511.768-5.678,1.226s-5.763.652-5.794.433,2.511-.767,5.679-1.225S897.64,2297.15,897.672,2297.368Z" transform="translate(-886.2 -2297.278)" fill="#fafafa"/>
        </g>
        <g id="Grupo_111843" data-name="Grupo 111843" transform="translate(98.34 203.529)">
          <path id="Trazado_167559" data-name="Trazado 167559" d="M902.249,2284.465c-.223-.051-.022-1.69.06-3.7s.036-3.662.262-3.694.633,1.632.538,3.729S902.457,2284.517,902.249,2284.465Z" transform="translate(-902.147 -2277.067)" fill="#fafafa"/>
        </g>
        <g id="Grupo_111844" data-name="Grupo 111844" transform="translate(63.366 214.99)">
          <path id="Trazado_167560" data-name="Trazado 167560" d="M864.277,2297.5c-.077.2-2.152-.494-4.318-2.059s-3.49-3.3-3.329-3.437c.171-.157,1.7,1.292,3.8,2.787S864.371,2297.284,864.277,2297.5Z" transform="translate(-856.617 -2291.988)" fill="#fafafa"/>
        </g>
        <g id="Grupo_111845" data-name="Grupo 111845" transform="translate(38.375 211.639)">
          <path id="Trazado_167561" data-name="Trazado 167561" d="M824.157,2295.27c-.214-.054.043-1.809.574-3.92s1.135-3.778,1.35-3.724-.042,1.808-.574,3.92S824.371,2295.324,824.157,2295.27Z" transform="translate(-824.082 -2287.625)" fill="#fafafa"/>
        </g>
        <g id="Grupo_111846" data-name="Grupo 111846" transform="translate(34.91 24.992)">
          <path id="Trazado_167562" data-name="Trazado 167562" d="M819.572,2044.64c.05-.063.922.688,2.53,1.571a18.485,18.485,0,0,0,2.943,1.284,18.75,18.75,0,0,0,7.759.894,18.487,18.487,0,0,0,3.158-.582c1.767-.495,2.787-1.028,2.821-.955a3.085,3.085,0,0,1-.7.406,6.766,6.766,0,0,1-.862.392,11.122,11.122,0,0,1-1.181.428,16.7,16.7,0,0,1-3.2.678,17.8,17.8,0,0,1-7.916-.911,16.744,16.744,0,0,1-2.963-1.387,11.2,11.2,0,0,1-1.052-.686,6.635,6.635,0,0,1-.751-.578A3.073,3.073,0,0,1,819.572,2044.64Z" transform="translate(-819.571 -2044.636)" fill="#455a64"/>
        </g>
        <g id="Grupo_111847" data-name="Grupo 111847" transform="translate(35.346 27.893)">
          <path id="Trazado_167563" data-name="Trazado 167563" d="M839.548,2054.351a3.554,3.554,0,0,1-.837.259c-.545.139-1.34.319-2.334.492a21.282,21.282,0,0,1-7.868.047,12.243,12.243,0,0,1-6.8-3.876,8.321,8.321,0,0,1-1.287-2.025,2.939,2.939,0,0,1-.281-.833,13.673,13.673,0,0,0,1.781,2.672,12.548,12.548,0,0,0,6.667,3.67,23.05,23.05,0,0,0,7.743.065c.992-.136,1.792-.273,2.346-.365A3.858,3.858,0,0,1,839.548,2054.351Z" transform="translate(-820.138 -2048.414)" fill="#455a64"/>
        </g>
        <g id="Grupo_111848" data-name="Grupo 111848" transform="translate(26.326 35.177)">
          <path id="Trazado_167564" data-name="Trazado 167564" d="M809.473,2103.56c-.005,0-.04-.031-.1-.106a3.956,3.956,0,0,1-.261-.343,4.437,4.437,0,0,1-.612-1.538,7.049,7.049,0,0,1,1.688-5.707,14.447,14.447,0,0,1,3.213-2.71c1.259-.832,2.676-1.6,4.063-2.531a12.385,12.385,0,0,0,3.7-3.613,6.561,6.561,0,0,0,.92-2.539,7.926,7.926,0,0,0-.148-2.794,34.715,34.715,0,0,0-1.945-5.3,14.683,14.683,0,0,1-1.3-5.171,13.79,13.79,0,0,1,2.635-8.514,12.9,12.9,0,0,1,4.531-3.994l.86-.412.659-.231a3.055,3.055,0,0,1,.551-.164,3.208,3.208,0,0,1-.522.24l-.639.264-.835.44a13.192,13.192,0,0,0-4.374,4.02,13.635,13.635,0,0,0-2.5,8.334,14.429,14.429,0,0,0,1.294,5.04,34.312,34.312,0,0,1,1.973,5.361,8.292,8.292,0,0,1,.152,2.934,6.936,6.936,0,0,1-.979,2.687,12.658,12.658,0,0,1-3.829,3.716c-1.418.943-2.836,1.692-4.09,2.5a14.372,14.372,0,0,0-3.178,2.616,6.97,6.97,0,0,0-1.751,5.495A5.293,5.293,0,0,0,809.473,2103.56Z" transform="translate(-808.396 -2057.896)" fill="#455a64"/>
        </g>
        <g id="Grupo_111849" data-name="Grupo 111849" transform="translate(42.429 37.079)">
          <path id="Trazado_167565" data-name="Trazado 167565" d="M834.792,2104.414a2.451,2.451,0,0,1-.444-.25,3.6,3.6,0,0,1-.991-1.079,5.134,5.134,0,0,1-.691-2.213,8.376,8.376,0,0,1,.335-3.054c.624-2.255,2.508-4.307,3.923-6.883a8.617,8.617,0,0,0,1.155-4.377,11.744,11.744,0,0,0-1.234-4.742c-1.459-3.089-3.7-5.543-5.252-8.114a16.73,16.73,0,0,1-1.812-3.861,9.333,9.333,0,0,1-.377-3.7,7.33,7.33,0,0,1,2.237-4.8,5.167,5.167,0,0,1,1.232-.79,2.382,2.382,0,0,1,.479-.171,7.852,7.852,0,0,0-1.606,1.077,7.3,7.3,0,0,0-2.06,4.714,9.137,9.137,0,0,0,.412,3.579,16.691,16.691,0,0,0,1.809,3.765c.785,1.257,1.716,2.51,2.662,3.831a27.209,27.209,0,0,1,2.638,4.308,12.034,12.034,0,0,1,1.264,4.905,8.94,8.94,0,0,1-1.222,4.557c-1.469,2.623-3.351,4.634-3.977,6.79a8.3,8.3,0,0,0-.383,2.954,5.112,5.112,0,0,0,.6,2.151A4.55,4.55,0,0,0,834.792,2104.414Z" transform="translate(-829.359 -2060.372)" fill="#455a64"/>
        </g>
        <g id="Grupo_111850" data-name="Grupo 111850" transform="translate(56.603 4.421)">
          <path id="Trazado_167566" data-name="Trazado 167566" d="M869.385,2036.892c-.007.013-.106-.03-.291-.122a5.881,5.881,0,0,1-.76-.484,9.269,9.269,0,0,1-2.208-2.464,27.405,27.405,0,0,1-2.127-4.412c-.354-.845-.731-1.727-1.2-2.6a16.105,16.105,0,0,0-1.7-2.534,17.379,17.379,0,0,0-8.878-5.722,24.014,24.014,0,0,0-4.417-.633,6.509,6.509,0,0,1,1.209-.068,16,16,0,0,1,3.278.427,17.05,17.05,0,0,1,9.118,5.744,16.057,16.057,0,0,1,1.731,2.6c.47.9.844,1.791,1.19,2.642a29.556,29.556,0,0,0,2.026,4.4,9.963,9.963,0,0,0,2.066,2.492C869.02,2036.658,869.4,2036.861,869.385,2036.892Z" transform="translate(-847.812 -2017.856)" fill="#455a64"/>
        </g>
        <g id="Grupo_111851" data-name="Grupo 111851" transform="translate(56.88 3.575)">
          <path id="Trazado_167567" data-name="Trazado 167567" d="M880.181,2036.574a1.585,1.585,0,0,1-.412-.043,6.357,6.357,0,0,1-1.154-.3,9.984,9.984,0,0,1-3.662-2.38,22.07,22.07,0,0,1-3.8-5.25,40.375,40.375,0,0,0-4.176-6.652,13.114,13.114,0,0,0-6.518-4.066,25.424,25.424,0,0,0-6.342-.847c-1.832-.041-3.318.036-4.345.076l-1.183.045a1.587,1.587,0,0,1-.415-.01,1.637,1.637,0,0,1,.409-.071c.27-.032.667-.078,1.179-.12,1.026-.088,2.513-.208,4.359-.2a24.659,24.659,0,0,1,6.438.774,13.33,13.33,0,0,1,6.72,4.159,38.964,38.964,0,0,1,4.2,6.734,22.62,22.62,0,0,0,3.678,5.229,10.361,10.361,0,0,0,3.517,2.435C879.619,2036.46,880.19,2036.53,880.181,2036.574Z" transform="translate(-848.173 -2016.755)" fill="#455a64"/>
        </g>
        <g id="Grupo_111852" data-name="Grupo 111852" transform="translate(94.349 36.432)">
          <path id="Trazado_167568" data-name="Trazado 167568" d="M909.63,2096.348c-.044-.017.2-.545.452-1.551a14.544,14.544,0,0,0-3.367-13.654c-.89-.989-1.907-1.927-2.937-2.911a26.718,26.718,0,0,1-2.847-3.054,18.961,18.961,0,0,1-2.049-3.317,19.456,19.456,0,0,1-1.816-6.313,17.937,17.937,0,0,1,.044-4.427,10.857,10.857,0,0,1,.211-1.185,1.7,1.7,0,0,1,.111-.406c.042.008-.077.574-.168,1.608a19.716,19.716,0,0,0,.083,4.377,18.609,18.609,0,0,0,.616,2.957,18.4,18.4,0,0,0,1.25,3.229,18.93,18.93,0,0,0,2.027,3.237,26.955,26.955,0,0,0,2.814,3.007c1.025.98,2.049,1.927,2.951,2.938a14.833,14.833,0,0,1,2.232,3.2,14.6,14.6,0,0,1,1.588,6.368,13.817,13.817,0,0,1-.594,4.389,9.064,9.064,0,0,1-.416,1.131A1.615,1.615,0,0,1,909.63,2096.348Z" transform="translate(-896.952 -2059.53)" fill="#455a64"/>
        </g>
        <g id="Grupo_111853" data-name="Grupo 111853" transform="translate(22.871 15.785)">
          <path id="Trazado_167569" data-name="Trazado 167569" d="M803.906,2039.652a2.276,2.276,0,0,1,.1-.753,7.393,7.393,0,0,1,.754-1.933,8.209,8.209,0,0,1,11.934-2.854,7.384,7.384,0,0,1,1.547,1.382,2.334,2.334,0,0,1,.428.627,13.846,13.846,0,0,0-2.128-1.771A8.169,8.169,0,0,0,805,2037.109,13.754,13.754,0,0,0,803.906,2039.652Z" transform="translate(-803.897 -2032.649)" fill="#455a64"/>
        </g>
        <g id="Grupo_111854" data-name="Grupo 111854" transform="translate(30.305 19.212)">
          <path id="Trazado_167570" data-name="Trazado 167570" d="M813.594,2043.921a6.217,6.217,0,0,1,.214-1.744,7.7,7.7,0,0,1,1.815-3.851,4.073,4.073,0,0,1,4.072-1.031,2.39,2.39,0,0,1,1.088.745c.193.247.252.41.234.42a3.589,3.589,0,0,0-1.409-.9,3.949,3.949,0,0,0-3.7,1.041,8.293,8.293,0,0,0-1.827,3.638A9.873,9.873,0,0,1,813.594,2043.921Z" transform="translate(-813.576 -2037.112)" fill="#455a64"/>
        </g>
        <g id="Grupo_111855" data-name="Grupo 111855" transform="translate(36.952 14.767)">
          <path id="Trazado_167571" data-name="Trazado 167571" d="M825.356,2031.327a20.863,20.863,0,0,0-3.06,8.711,12.083,12.083,0,0,1,3.06-8.711Z" transform="translate(-822.229 -2031.325)" fill="#ff4f5b"/>
        </g>
      </g>
      <path id="Rectángulo_37181" data-name="Rectángulo 37181" d="M923.545,2305.587h0a33.5,33.5,0,0,1-27.881,37.061l-72.284,11.12a31.176,31.176,0,0,1-35.823-27.263h0a33.5,33.5,0,0,1,27.882-37.063l72.284-11.119A31.176,31.176,0,0,1,923.545,2305.587Z" transform="translate(-777.18 -2086.586)" fill="#24cb9f"/>
    </g>
    <g id="Grupo_111997" data-name="Grupo 111997" transform="translate(890.009 2148.098)">
      <g id="Grupo_111996" data-name="Grupo 111996" transform="translate(0 0)">
        <g id="Grupo_111984" data-name="Grupo 111984" transform="translate(2.624)">
          <path id="Trazado_167572" data-name="Trazado 167572" d="M1013.892,2289.447l-3.652,34.006s-7.118-10.761-11.935-5.965c-4.589,4.569-12.693,37.935-12.693,37.935s-.113,10.88,5.676,13.753c18.532,9.2,39.174-8.147,39.174-8.147l-2.926-97.241h0A39.005,39.005,0,0,0,1013.892,2289.447Z" transform="translate(-965.226 -2165.871)" fill="#ff6148"/>
          <g id="Grupo_111914" data-name="Grupo 111914" transform="translate(51.394)">
            <g id="Grupo_111913" data-name="Grupo 111913">
              <g id="Grupo_111912" data-name="Grupo 111912">
                <g id="Grupo_111908" data-name="Grupo 111908" transform="translate(9.92)">
                  <g id="Grupo_111906" data-name="Grupo 111906" transform="translate(4.366 15.951)">
                    <g id="Grupo_111866" data-name="Grupo 111866">
                      <g id="Grupo_111865" data-name="Grupo 111865">
                        <g id="Grupo_111864" data-name="Grupo 111864">
                          <g id="Grupo_111860" data-name="Grupo 111860">
                            <g id="Grupo_111859" data-name="Grupo 111859">
                              <g id="Grupo_111858" data-name="Grupo 111858">
                                <path id="Trazado_167573" data-name="Trazado 167573" d="M1091.163,2239.229l-32.094-2.563c-.2-3.747.069-18.245.069-18.245s-13.354-2.076-13.519-15.427,2.15-44.01,2.15-44.01h0a46.4,46.4,0,0,1,46.625,5.861l1.979,1.524Z" transform="translate(-1045.61 -2155.214)" fill="#b78876"/>
                              </g>
                            </g>
                          </g>
                          <g id="Grupo_111863" data-name="Grupo 111863" transform="translate(13.474 58.069)">
                            <g id="Grupo_111862" data-name="Grupo 111862">
                              <g id="Grupo_111861" data-name="Grupo 111861">
                                <path id="Trazado_167574" data-name="Trazado 167574" d="M1063.489,2237.079a31.052,31.052,0,0,0,17.406-4.946s-4.115,9.608-17.437,8.405Z" transform="translate(-1063.458 -2232.133)" fill="#aa6550"/>
                              </g>
                            </g>
                          </g>
                        </g>
                      </g>
                    </g>
                    <g id="Grupo_111874" data-name="Grupo 111874" transform="translate(48.596 24.564)">
                      <g id="Grupo_111869" data-name="Grupo 111869">
                        <g id="Grupo_111868" data-name="Grupo 111868">
                          <g id="Grupo_111867" data-name="Grupo 111867">
                            <path id="Trazado_167575" data-name="Trazado 167575" d="M1110.5,2188.173c.227-.1,9.173-2.713,8.882,6.414s-9.4,6.953-9.4,6.689S1110.5,2188.173,1110.5,2188.173Z" transform="translate(-1109.981 -2187.752)" fill="#b78876"/>
                          </g>
                        </g>
                      </g>
                      <g id="Grupo_111873" data-name="Grupo 111873" transform="translate(2.89 2.988)">
                        <g id="Grupo_111872" data-name="Grupo 111872">
                          <g id="Grupo_111871" data-name="Grupo 111871">
                            <g id="Grupo_111870" data-name="Grupo 111870">
                              <path id="Trazado_167576" data-name="Trazado 167576" d="M1113.818,2198.878c.041-.028.156.116.42.248a1.593,1.593,0,0,0,1.188.062c.975-.323,1.836-1.827,1.933-3.471a5.241,5.241,0,0,0-.372-2.291,1.839,1.839,0,0,0-1.157-1.26.812.812,0,0,0-.953.406c-.131.252-.079.436-.127.449-.027.023-.191-.158-.106-.533a1.014,1.014,0,0,1,.377-.56,1.2,1.2,0,0,1,.887-.2,2.237,2.237,0,0,1,1.616,1.468,5.4,5.4,0,0,1,.469,2.562c-.117,1.837-1.113,3.528-2.445,3.868a1.7,1.7,0,0,1-1.446-.288C1113.827,2199.1,1113.786,2198.894,1113.818,2198.878Z" transform="translate(-1113.809 -2191.71)" fill="#aa6550"/>
                            </g>
                          </g>
                        </g>
                      </g>
                    </g>
                    <g id="Grupo_111905" data-name="Grupo 111905" transform="translate(4.655 13.357)">
                      <g id="Grupo_111904" data-name="Grupo 111904">
                        <g id="Grupo_111897" data-name="Grupo 111897" transform="translate(0 7.191)">
                          <g id="Grupo_111896" data-name="Grupo 111896">
                            <g id="Grupo_111895" data-name="Grupo 111895">
                              <g id="Grupo_111882" data-name="Grupo 111882">
                                <g id="Grupo_111877" data-name="Grupo 111877" transform="translate(0.445 2.191)">
                                  <g id="Grupo_111876" data-name="Grupo 111876">
                                    <g id="Grupo_111875" data-name="Grupo 111875">
                                      <path id="Trazado_167577" data-name="Trazado 167577" d="M1052.366,2187.058a1.907,1.907,0,0,0,1.838,1.925,1.824,1.824,0,0,0,1.965-1.72,1.907,1.907,0,0,0-1.836-1.924A1.825,1.825,0,0,0,1052.366,2187.058Z" transform="translate(-1052.365 -2185.335)" fill="#263238"/>
                                    </g>
                                  </g>
                                </g>
                                <g id="Grupo_111881" data-name="Grupo 111881">
                                  <g id="Grupo_111880" data-name="Grupo 111880">
                                    <g id="Grupo_111879" data-name="Grupo 111879">
                                      <g id="Grupo_111878" data-name="Grupo 111878">
                                        <path id="Trazado_167578" data-name="Trazado 167578" d="M1051.806,2184.437c.236.249,1.68-.82,3.732-.815,2.05-.024,3.555,1.032,3.778.78.109-.111-.131-.56-.787-1.037a5.23,5.23,0,0,0-3.025-.932,5.028,5.028,0,0,0-2.971.959C1051.9,2183.876,1051.689,2184.326,1051.806,2184.437Z" transform="translate(-1051.776 -2182.433)" fill="#263238"/>
                                      </g>
                                    </g>
                                  </g>
                                </g>
                              </g>
                              <g id="Grupo_111890" data-name="Grupo 111890" transform="translate(20.168 0.383)">
                                <g id="Grupo_111885" data-name="Grupo 111885" transform="translate(0.371 2.523)">
                                  <g id="Grupo_111884" data-name="Grupo 111884">
                                    <g id="Grupo_111883" data-name="Grupo 111883">
                                      <path id="Trazado_167579" data-name="Trazado 167579" d="M1078.983,2188.007a1.906,1.906,0,0,0,1.838,1.924,1.823,1.823,0,0,0,1.965-1.719,1.908,1.908,0,0,0-1.837-1.925A1.824,1.824,0,0,0,1078.983,2188.007Z" transform="translate(-1078.982 -2186.283)" fill="#263238"/>
                                    </g>
                                  </g>
                                </g>
                                <g id="Grupo_111889" data-name="Grupo 111889">
                                  <g id="Grupo_111888" data-name="Grupo 111888">
                                    <g id="Grupo_111887" data-name="Grupo 111887">
                                      <g id="Grupo_111886" data-name="Grupo 111886">
                                        <path id="Trazado_167580" data-name="Trazado 167580" d="M1078.52,2184.945c.236.249,1.683-.82,3.733-.814,2.05-.025,3.556,1.031,3.778.78.109-.111-.129-.559-.787-1.037a5.227,5.227,0,0,0-3.023-.932,5.026,5.026,0,0,0-2.972.959C1078.619,2184.384,1078.4,2184.834,1078.52,2184.945Z" transform="translate(-1078.49 -2182.941)" fill="#263238"/>
                                      </g>
                                    </g>
                                  </g>
                                </g>
                              </g>
                              <g id="Grupo_111894" data-name="Grupo 111894" transform="translate(7.524 0.508)">
                                <g id="Grupo_111893" data-name="Grupo 111893">
                                  <g id="Grupo_111892" data-name="Grupo 111892">
                                    <g id="Grupo_111891" data-name="Grupo 111891">
                                      <path id="Trazado_167581" data-name="Trazado 167581" d="M1066.97,2200.2a13.6,13.6,0,0,0-3.333-.6c-.523-.054-1.019-.158-1.108-.516a2.665,2.665,0,0,1,.35-1.553q.739-1.9,1.549-3.989c2.152-5.68,3.71-10.351,3.48-10.436s-2.16,4.45-4.312,10.13c-.518,1.4-1.013,2.736-1.484,4.013a3.028,3.028,0,0,0-.272,2.056,1.317,1.317,0,0,0,.862.766,3.549,3.549,0,0,0,.889.123A13.3,13.3,0,0,0,1066.97,2200.2Z" transform="translate(-1061.742 -2183.105)" fill="#263238"/>
                                    </g>
                                  </g>
                                </g>
                              </g>
                            </g>
                          </g>
                        </g>
                        <g id="Grupo_111900" data-name="Grupo 111900" transform="translate(19.657)">
                          <g id="Grupo_111899" data-name="Grupo 111899">
                            <g id="Grupo_111898" data-name="Grupo 111898">
                              <path id="Trazado_167582" data-name="Trazado 167582" d="M1077.824,2174.446c.2.558,2.251.293,4.658.583,2.413.242,4.354.946,4.674.446.143-.24-.2-.764-.98-1.3a8.162,8.162,0,0,0-7.109-.784C1078.182,2173.742,1077.738,2174.181,1077.824,2174.446Z" transform="translate(-1077.814 -2172.908)" fill="#263238"/>
                            </g>
                          </g>
                        </g>
                        <g id="Grupo_111903" data-name="Grupo 111903" transform="translate(0.732 1.132)">
                          <g id="Grupo_111902" data-name="Grupo 111902">
                            <g id="Grupo_111901" data-name="Grupo 111901">
                              <path id="Trazado_167583" data-name="Trazado 167583" d="M1052.8,2176.533c.361.466,1.774-.018,3.474-.041,1.7-.082,3.138.313,3.47-.174.145-.236-.082-.7-.71-1.145a5.032,5.032,0,0,0-5.595.173C1052.835,2175.825,1052.638,2176.306,1052.8,2176.533Z" transform="translate(-1052.745 -2174.407)" fill="#263238"/>
                            </g>
                          </g>
                        </g>
                      </g>
                    </g>
                  </g>
                  <g id="Grupo_111907" data-name="Grupo 111907">
                    <path id="Trazado_167584" data-name="Trazado 167584" d="M1039.846,2145.379a4.927,4.927,0,0,1,1.819-4.4,3.5,3.5,0,0,1,4.53.339,4.081,4.081,0,0,1,3.508-4.948c2.177-.138,4.034,1.507,6.138,2.084a9.914,9.914,0,0,0,6.234-.719c1.976-.8,3.823-1.894,5.823-2.624a17.072,17.072,0,0,1,21.836,10.025c2.92-.913,6.238.57,8.039,3.043a12.431,12.431,0,0,1,1.9,8.76,27.823,27.823,0,0,1-1.527,5.991c0,.171.018.34.014.512-.138,7.342-.969,15.963-4.1,16.011-5.459.084-4.158-10.2-4.158-10.2-6.7-2.589-4.2-12.627-5.879-14.149s-5.179-5.061-19.206,2.108c-5.447,2.783-12.689,2.7-16.642,1.8-.116-.025-.233-.042-.349-.071-.025-.006-.057-.01-.082-.017-.043-.01-.073-.034-.115-.047a12.61,12.61,0,0,1-3.6-1.526,7.108,7.108,0,0,1-2.965-3.3,3.892,3.892,0,0,1,.765-4.179A8.556,8.556,0,0,1,1039.846,2145.379Z" transform="translate(-1039.826 -2134.086)" fill="#263238"/>
                  </g>
                </g>
                <g id="Grupo_111911" data-name="Grupo 111911" transform="translate(0 92.223)">
                  <g id="Grupo_111910" data-name="Grupo 111910">
                    <g id="Grupo_111909" data-name="Grupo 111909">
                      <path id="Trazado_167585" data-name="Trazado 167585" d="M1112.78,2347.771l1.01,18.946,2.256,27.215h-85.78l3.726-40.21-7.306-63.527c.634-22.448,9.255-31.784,26.892-33.928.146-.018-1.539.192-1.39.175,2.429-.287,0,0,1.39-.175a56.781,56.781,0,0,0,34.221-.021h0c5.288.225,9.669,1.853,14.168,2.714,14.168,2.714,25.834,13.663,28.667,23.192,2.333,7.846,19.2,75.885,19.2,75.885h-33.565Z" transform="translate(-1026.686 -2256.246)" fill="#ff6148"/>
                    </g>
                  </g>
                </g>
              </g>
            </g>
          </g>
          <path id="Trazado_167586" data-name="Trazado 167586" d="M1066.268,2213.364a9.205,9.205,0,0,0,1.19,2.332,3.1,3.1,0,0,0,2.2,1.278,2.78,2.78,0,0,0,2.352-1.282,4.441,4.441,0,0,0,.655-2.673c-.038-.843-.423-1.849-1.261-1.948a2.1,2.1,0,0,0-1.018.225l-4.4,1.786" transform="translate(-984.922 -2152.951)" fill="#aa6550"/>
          <g id="Grupo_111915" data-name="Grupo 111915" transform="translate(80.225 57.658)">
            <path id="Trazado_167587" data-name="Trazado 167587" d="M1067.755,2216.839a6.37,6.37,0,0,0,2.349-.29,3.358,3.358,0,0,0,1.776-1.613,3.537,3.537,0,0,0,.058-2.881,3.137,3.137,0,0,0-.384-.658c-.174-.184-.142-.175-.332-.147-.18.048-.469.185-.706.277l-.722.294c-.943.382-1.8.715-2.518.984a1.26,1.26,0,1,1-.218-.511c.693-.334,1.523-.721,2.45-1.138l.714-.319a7.868,7.868,0,0,1,.8-.332,1.033,1.033,0,0,1,.654.019,1.2,1.2,0,0,1,.485.384,3.792,3.792,0,0,1,.5.835,4.127,4.127,0,0,1-.135,3.523,3.766,3.766,0,0,1-2.235,1.807,3.551,3.551,0,0,1-1.908.074C1067.943,2217.032,1067.739,2216.883,1067.755,2216.839Z" transform="translate(-1064.876 -2210.46)" fill="#263238"/>
          </g>
          <g id="Grupo_111961" data-name="Grupo 111961" transform="translate(0 78.986)">
            <g id="Grupo_111960" data-name="Grupo 111960">
              <g id="Grupo_111919" data-name="Grupo 111919" transform="translate(0.533)">
                <g id="Grupo_111918" data-name="Grupo 111918">
                  <g id="Grupo_111917" data-name="Grupo 111917">
                    <g id="Grupo_111916" data-name="Grupo 111916">
                      <path id="Trazado_167588" data-name="Trazado 167588" d="M1010.032,2339.682l-20.2-62.025L988,2267.242s-5.5-23.215-5.741-25.513c-.282-2.655-1.63-3.157-2.6-2.986-1.514.266-2.392,2.26-2.22,4.545.06.791,1.5,13.217,1.5,13.217a29.585,29.585,0,0,0-2.77-3.1c-2.091-2.13-6.553-2.995-10.97-2.375s-5.6,1.183-5.439,2.91a2.212,2.212,0,0,0,1.05,1.58,4.364,4.364,0,0,0,3.031.693c7.088-.9,9.408,2.693,9.408,2.693l.239,1.363s-4.649-2.617-7.945-.946a4.2,4.2,0,0,0-1.28.994,5.588,5.588,0,0,0-3.922,8.805,2.322,2.322,0,0,0,2.382,1.153,2.973,2.973,0,0,0,1.174-.9,4.528,4.528,0,0,1,.581-.536l1.2,3.723s3.153,8.219,4.12,11.951l9.837,62.459a15.678,15.678,0,0,0,18.2,13h0A15.677,15.677,0,0,0,1010.032,2339.682Z" transform="translate(-959.315 -2238.712)" fill="#b78876"/>
                    </g>
                  </g>
                </g>
              </g>
              <g id="Grupo_111929" data-name="Grupo 111929" transform="translate(13.706 23.12)">
                <g id="Grupo_111923" data-name="Grupo 111923" transform="translate(0.381 0.367)">
                  <g id="Grupo_111922" data-name="Grupo 111922">
                    <g id="Grupo_111921" data-name="Grupo 111921">
                      <g id="Grupo_111920" data-name="Grupo 111920">
                        <path id="Trazado_167589" data-name="Trazado 167589" d="M992.095,2284.646c-1.265.5-2.7-.313-3.532-1.391s-1.266-2.405-2.014-3.54c-2.237-3.394-6.9-4.626-8.968-8.123-.289-.488-.492-1.18-.077-1.566.384-.357,1-.173,1.484.03l12.409,5.221" transform="translate(-977.268 -2269.824)" fill="#b78876"/>
                      </g>
                    </g>
                  </g>
                </g>
                <g id="Grupo_111928" data-name="Grupo 111928">
                  <g id="Grupo_111927" data-name="Grupo 111927">
                    <g id="Grupo_111926" data-name="Grupo 111926">
                      <g id="Grupo_111925" data-name="Grupo 111925">
                        <g id="Grupo_111924" data-name="Grupo 111924">
                          <path id="Trazado_167590" data-name="Trazado 167590" d="M991.273,2275.159a5.377,5.377,0,0,0-1.283-.7c-.846-.406-2.081-.97-3.612-1.653l-5.395-2.359-1.564-.672a2.67,2.67,0,0,0-1.989-.34,1.136,1.136,0,0,0-.663,1.087,2.329,2.329,0,0,0,.31,1.057,8.812,8.812,0,0,0,1.193,1.587c1.848,1.933,4.083,3.03,5.761,4.4a10.135,10.135,0,0,1,2.112,2.18c.534.782.906,1.624,1.33,2.363a4.741,4.741,0,0,0,3.032,2.629,1.7,1.7,0,0,0,1.468-.213,3.952,3.952,0,0,1-1.394-.077,4.587,4.587,0,0,1-2.627-2.6c-.38-.729-.723-1.591-1.277-2.458a10.433,10.433,0,0,0-2.2-2.376c-1.729-1.455-3.945-2.587-5.647-4.38a8.287,8.287,0,0,1-1.083-1.429c-.277-.486-.3-1.006-.014-1.089.3-.139.872.1,1.4.329l1.573.647,5.459,2.208c1.558.618,2.825,1.106,3.707,1.427A5.411,5.411,0,0,0,991.273,2275.159Z" transform="translate(-976.764 -2269.338)" fill="#aa6550"/>
                        </g>
                      </g>
                    </g>
                  </g>
                </g>
              </g>
              <g id="Grupo_111934" data-name="Grupo 111934" transform="translate(0.867 14.421)">
                <g id="Grupo_111933" data-name="Grupo 111933">
                  <g id="Grupo_111932" data-name="Grupo 111932">
                    <g id="Grupo_111931" data-name="Grupo 111931">
                      <g id="Grupo_111930" data-name="Grupo 111930">
                        <path id="Trazado_167591" data-name="Trazado 167591" d="M973.769,2265a5.55,5.55,0,0,0-1.074-2.306,4.282,4.282,0,0,0-2.331-1.336,10.982,10.982,0,0,0-3.412-.123,17.476,17.476,0,0,1-3.544.072,5.639,5.639,0,0,1-2.752-1.023,2.2,2.2,0,0,1-.9-1.763,1.3,1.3,0,0,1,.161-.707c.047.008-.008.261.032.7a2.078,2.078,0,0,0,.918,1.493,5.6,5.6,0,0,0,2.591.848,19.363,19.363,0,0,0,3.454-.112,10.659,10.659,0,0,1,3.56.174,4.494,4.494,0,0,1,2.491,1.556,4,4,0,0,1,.8,1.807A1.386,1.386,0,0,1,973.769,2265Z" transform="translate(-959.758 -2257.814)" fill="#aa6550"/>
                      </g>
                    </g>
                  </g>
                </g>
              </g>
              <g id="Grupo_111939" data-name="Grupo 111939" transform="translate(18.532 3.693)">
                <g id="Grupo_111938" data-name="Grupo 111938">
                  <g id="Grupo_111937" data-name="Grupo 111937">
                    <g id="Grupo_111936" data-name="Grupo 111936">
                      <g id="Grupo_111935" data-name="Grupo 111935">
                        <path id="Trazado_167592" data-name="Trazado 167592" d="M983.228,2243.6a14.053,14.053,0,0,1,.3,2.469c.164,1.7.36,3.721.576,5.958.25,2.233.476,4.254.666,5.949a14.039,14.039,0,0,1,.214,2.477,11.143,11.143,0,0,1-.561-2.427c-.269-1.513-.568-3.616-.812-5.948s-.384-4.451-.433-5.987A11.153,11.153,0,0,1,983.228,2243.6Z" transform="translate(-983.156 -2243.604)" fill="#aa6550"/>
                      </g>
                    </g>
                  </g>
                </g>
              </g>
              <g id="Grupo_111944" data-name="Grupo 111944" transform="translate(4.139 22.26)">
                <g id="Grupo_111943" data-name="Grupo 111943">
                  <g id="Grupo_111942" data-name="Grupo 111942">
                    <g id="Grupo_111941" data-name="Grupo 111941">
                      <g id="Grupo_111940" data-name="Grupo 111940">
                        <path id="Trazado_167593" data-name="Trazado 167593" d="M972.327,2270.649a3.014,3.014,0,0,1-.752-.2,2.308,2.308,0,0,0-1.921.114,1.235,1.235,0,0,0-.532,1.1,6.554,6.554,0,0,0,.29,1.6,2.787,2.787,0,0,1-.086,1.978,2.374,2.374,0,0,1-1.788,1.188,2.7,2.7,0,0,1-2.037-.634,3.373,3.373,0,0,1-1.1-1.63,10.917,10.917,0,0,1-.294-3.187,6.449,6.449,0,0,1,.411-2.115c.208-.475.425-.676.441-.659.037.026-.118.256-.259.724a7.6,7.6,0,0,0-.243,2.059,11.7,11.7,0,0,0,.381,3.047,2.666,2.666,0,0,0,2.639,1.9,1.906,1.906,0,0,0,1.424-.923,2.379,2.379,0,0,0,.069-1.65,6.547,6.547,0,0,1-.255-1.71,1.6,1.6,0,0,1,.756-1.384,2.413,2.413,0,0,1,2.171,0A2.008,2.008,0,0,1,972.327,2270.649Z" transform="translate(-964.092 -2268.198)" fill="#aa6550"/>
                      </g>
                    </g>
                  </g>
                </g>
              </g>
              <g id="Grupo_111949" data-name="Grupo 111949" transform="translate(0 21.777)">
                <g id="Grupo_111948" data-name="Grupo 111948">
                  <g id="Grupo_111947" data-name="Grupo 111947">
                    <g id="Grupo_111946" data-name="Grupo 111946">
                      <g id="Grupo_111945" data-name="Grupo 111945">
                        <path id="Trazado_167594" data-name="Trazado 167594" d="M964.321,2275.234c.023-.007.12.25.007.71a2.166,2.166,0,0,1-1.305,1.431,2.886,2.886,0,0,1-2.813-.548,4.719,4.719,0,0,1-1.567-3.141,5.713,5.713,0,0,1,.705-3.434,5.456,5.456,0,0,1,2.027-2.018,5.152,5.152,0,0,1,1.808-.639,1.48,1.48,0,0,1,.7-.006,8.964,8.964,0,0,0-2.327.943,5.39,5.39,0,0,0-1.811,1.941,5.447,5.447,0,0,0-.611,3.158,4.392,4.392,0,0,0,1.367,2.845,2.562,2.562,0,0,0,2.4.568,2.056,2.056,0,0,0,1.24-1.162C964.3,2275.489,964.278,2275.235,964.321,2275.234Z" transform="translate(-958.609 -2267.558)" fill="#aa6550"/>
                      </g>
                    </g>
                  </g>
                </g>
              </g>
              <g id="Grupo_111954" data-name="Grupo 111954" transform="translate(15.169 31.031)">
                <g id="Grupo_111953" data-name="Grupo 111953">
                  <g id="Grupo_111952" data-name="Grupo 111952">
                    <g id="Grupo_111951" data-name="Grupo 111951">
                      <g id="Grupo_111950" data-name="Grupo 111950">
                        <path id="Trazado_167595" data-name="Trazado 167595" d="M978.7,2285.627a2.036,2.036,0,0,1,1.189-.112,4.693,4.693,0,0,1,2.757,1.289l-.4.167a13.967,13.967,0,0,1,.1-1.686,10.678,10.678,0,0,1,2-5.465,27.013,27.013,0,0,0-1.512,5.523c-.068.568-.1,1.121-.114,1.632l-.013.564-.392-.4a4.917,4.917,0,0,0-2.469-1.33C979.146,2285.663,978.707,2285.694,978.7,2285.627Z" transform="translate(-978.702 -2279.817)" fill="#aa6550"/>
                      </g>
                    </g>
                  </g>
                </g>
              </g>
              <g id="Grupo_111959" data-name="Grupo 111959" transform="translate(9.334 15.7)">
                <g id="Grupo_111958" data-name="Grupo 111958">
                  <g id="Grupo_111957" data-name="Grupo 111957">
                    <g id="Grupo_111956" data-name="Grupo 111956">
                      <g id="Grupo_111955" data-name="Grupo 111955">
                        <path id="Trazado_167596" data-name="Trazado 167596" d="M974.3,2259.514c.124.045-.26.988-1.3,1.573s-2.044.44-2.019.311c0-.144.875-.219,1.774-.742C973.658,2260.153,974.172,2259.439,974.3,2259.514Z" transform="translate(-970.973 -2259.509)" fill="#aa6550"/>
                      </g>
                    </g>
                  </g>
                </g>
              </g>
            </g>
          </g>
          <g id="Grupo_111962" data-name="Grupo 111962" transform="translate(47.133 94.684)">
            <path id="Trazado_167597" data-name="Trazado 167597" d="M1041.161,2259.508c.019.022-.276.3-.782.882a9.042,9.042,0,0,0-1.752,2.811,3.749,3.749,0,0,0-.2,1.089,2.51,2.51,0,0,0,.288,1.143,4.032,4.032,0,0,0,2.177,1.617,21.514,21.514,0,0,0,6.9.975c1.3.025,2.7.074,4.14.158l2.2.258c.748.082,1.492.282,2.26.422a22.9,22.9,0,0,1,9.076,4.031,16.722,16.722,0,0,1,3.748,3.932,13.582,13.582,0,0,1,.712,1.225c.219.44.373.876.555,1.31a15.861,15.861,0,0,1,.785,2.76,17.5,17.5,0,0,1-1.776,11.6,16.916,16.916,0,0,1-8.921,7.619,17.555,17.555,0,0,1-5.558,1.1,21.426,21.426,0,0,1-5.372-.654,34.382,34.382,0,0,0-4.94-.882,8.57,8.57,0,0,0-4.485.792,11.563,11.563,0,0,0-3.359,2.725c-.941,1.057-1.742,2.167-2.534,3.221a16,16,0,0,1-5.16,4.932,6.343,6.343,0,0,1-2.877.753,6.465,6.465,0,0,1-2.453-.458,5.322,5.322,0,0,1-1.684-1.064,4.02,4.02,0,0,1-.844-1.19,2.639,2.639,0,0,1-.266-1.159,11.088,11.088,0,0,0,.408,1.09,4.063,4.063,0,0,0,.861,1.088,5.217,5.217,0,0,0,1.634.95,5.991,5.991,0,0,0,5.016-.4,15.787,15.787,0,0,0,4.918-4.875c.772-1.056,1.57-2.193,2.524-3.291a12.11,12.11,0,0,1,3.52-2.905,9.218,9.218,0,0,1,4.822-.9,34.382,34.382,0,0,1,5.051.865,20.856,20.856,0,0,0,5.2.611,16.9,16.9,0,0,0,5.309-1.073,16.192,16.192,0,0,0,8.5-7.275,16.794,16.794,0,0,0,1.71-11.079,15.184,15.184,0,0,0-.742-2.639c-.176-.422-.331-.859-.52-1.241a12.694,12.694,0,0,0-.661-1.146,16.026,16.026,0,0,0-3.563-3.77,22.379,22.379,0,0,0-8.778-3.97c-.75-.143-1.477-.347-2.21-.435l-2.157-.276c-1.422-.1-2.775-.164-4.1-.208a21.534,21.534,0,0,1-7.054-1.122,4.386,4.386,0,0,1-2.346-1.849,2.846,2.846,0,0,1-.3-1.326,3.975,3.975,0,0,1,.251-1.184,8.54,8.54,0,0,1,1.924-2.818A4.215,4.215,0,0,1,1041.161,2259.508Z" transform="translate(-1021.042 -2259.507)" fill="#fafafa"/>
          </g>
          <g id="Grupo_111963" data-name="Grupo 111963" transform="translate(124.237 122.576)">
            <path id="Trazado_167598" data-name="Trazado 167598" d="M1123.618,2318.9a5.64,5.64,0,0,1-.362-1.7,13.993,13.993,0,0,1,.314-4.734,18.222,18.222,0,0,1,2.931-6.406,21.071,21.071,0,0,1,6.341-5.847,26.775,26.775,0,0,1,8.06-3.044,35.012,35.012,0,0,1,6.98-.718,39.428,39.428,0,0,1,4.712.238,6.85,6.85,0,0,1,1.7.3c-.011.139-2.46-.131-6.4.021a38.309,38.309,0,0,0-6.84.87,27.286,27.286,0,0,0-7.813,3.013,21.067,21.067,0,0,0-6.152,5.593,18.539,18.539,0,0,0-2.979,6.117,15.643,15.643,0,0,0-.548,4.579A10.53,10.53,0,0,1,1123.618,2318.9Z" transform="translate(-1123.175 -2296.452)" fill="#fafafa"/>
          </g>
          <g id="Grupo_111964" data-name="Grupo 111964" transform="translate(130.017 158.142)">
            <path id="Trazado_167599" data-name="Trazado 167599" d="M1166.746,2343.567a5.428,5.428,0,0,1-.887,1.327,21.76,21.76,0,0,1-3.04,3.12,24.734,24.734,0,0,1-5.443,3.505,24.36,24.36,0,0,1-15.549,1.876,24.709,24.709,0,0,1-6.121-2.109,21.793,21.793,0,0,1-3.695-2.307,5.449,5.449,0,0,1-1.178-1.078c.091-.126,1.817,1.379,5.111,2.882a25.354,25.354,0,0,0,26.524-3.2A58.362,58.362,0,0,0,1166.746,2343.567Z" transform="translate(-1130.831 -2343.563)" fill="#fafafa"/>
          </g>
          <g id="Grupo_111965" data-name="Grupo 111965" transform="translate(83.397 155.724)">
            <path id="Trazado_167600" data-name="Trazado 167600" d="M1113.7,2340.368a3.812,3.812,0,0,1-.689.281,5.179,5.179,0,0,0-1.727,1.151,8.355,8.355,0,0,0-1.739,2.787,25.862,25.862,0,0,0-1.213,4.26,49.992,49.992,0,0,1-1.229,5.321,12.4,12.4,0,0,1-1.306,2.813,10.93,10.93,0,0,1-2.2,2.459,17.258,17.258,0,0,1-6.237,3.154c-2.324.688-4.789,1.067-7.26,1.552a30.477,30.477,0,0,0-12.906,5.376,21.129,21.129,0,0,0-4.3,4.335,19.115,19.115,0,0,0-2.455,4.723,16.356,16.356,0,0,0-.8,7.641c.273,1.819.683,2.774.605,2.8a2.685,2.685,0,0,1-.32-.678,6.867,6.867,0,0,1-.292-.862,9.85,9.85,0,0,1-.3-1.21,15.911,15.911,0,0,1,.571-7.867,19.246,19.246,0,0,1,2.451-4.925,21.418,21.418,0,0,1,4.392-4.532,30.65,30.65,0,0,1,13.195-5.572c2.5-.489,4.933-.859,7.2-1.52a16.706,16.706,0,0,0,5.991-2.972,10.3,10.3,0,0,0,2.084-2.279,11.929,11.929,0,0,0,1.268-2.644,53.005,53.005,0,0,0,1.3-5.232,24.928,24.928,0,0,1,1.351-4.313,8.367,8.367,0,0,1,1.933-2.838,4.841,4.841,0,0,1,1.884-1.077A2.112,2.112,0,0,1,1113.7,2340.368Z" transform="translate(-1069.077 -2340.361)" fill="#fafafa"/>
          </g>
          <g id="Grupo_111966" data-name="Grupo 111966" transform="translate(95.073 147.855)">
            <path id="Trazado_167601" data-name="Trazado 167601" d="M1097.256,2334.664a3.167,3.167,0,0,1,.392,1.544,6.63,6.63,0,0,1-1.2,4.177,6.469,6.469,0,0,1-2.275,2.064,6.058,6.058,0,0,1-1.637.595,6.623,6.623,0,0,1-1.844.076,7.227,7.227,0,0,1-3.624-1.467,6.483,6.483,0,0,1-2.338-3.5,5.68,5.68,0,0,1,1.167-5.149,12.585,12.585,0,0,1,1.657-1.81,6.214,6.214,0,0,1,.96-.718,2.561,2.561,0,0,1,1.184-.414l.1.675-.374.093-.187-.65a6.421,6.421,0,0,1,4.161.226,6.807,6.807,0,0,1,2.626,1.815,5.7,5.7,0,0,1,1.075,1.739c.152.446.191.693.161.7a10.187,10.187,0,0,0-1.522-2.17,6.742,6.742,0,0,0-2.532-1.568,5.958,5.958,0,0,0-3.765-.1l-.187-.65.372-.1.1.674a3.432,3.432,0,0,0-1.686.988,12.264,12.264,0,0,0-1.535,1.723,4.964,4.964,0,0,0-1.012,4.5,5.771,5.771,0,0,0,2.05,3.083,6.573,6.573,0,0,0,3.229,1.354,6.008,6.008,0,0,0,1.638-.036,5.463,5.463,0,0,0,1.462-.494,6.006,6.006,0,0,0,2.124-1.811,6.684,6.684,0,0,0,1.351-3.845C1097.358,2335.227,1097.184,2334.682,1097.256,2334.664Z" transform="translate(-1084.544 -2329.936)" fill="#fafafa"/>
          </g>
          <g id="Grupo_111967" data-name="Grupo 111967" transform="translate(56.988 127.923)">
            <path id="Trazado_167602" data-name="Trazado 167602" d="M1036.183,2303.535a.835.835,0,0,1,.007.2c-.005.156-.011.352-.02.594-.027.55-.064,1.311-.112,2.277-.118,1.975-.236,4.837-.394,8.372-.3,7.072-.584,16.846-.813,27.643s-.373,20.58-.475,27.658c-.053,3.515-.1,6.372-.127,8.382-.02.966-.037,1.728-.049,2.279-.009.242-.016.436-.022.593a.744.744,0,0,1-.021.2.826.826,0,0,1-.019-.2c0-.156-.01-.351-.017-.593-.006-.552-.014-1.313-.025-2.28,0-2.011,0-4.867,0-8.384.03-7.08.128-16.861.359-27.665s.562-20.576.929-27.647c.193-3.535.353-6.4.519-8.369.078-.963.14-1.723.186-2.273.023-.24.042-.435.058-.59A.761.761,0,0,1,1036.183,2303.535Z" transform="translate(-1034.096 -2303.535)" fill="#263238"/>
          </g>
          <g id="Grupo_111968" data-name="Grupo 111968" transform="translate(44.645 152.498)" opacity="0.2">
            <path id="Trazado_167603" data-name="Trazado 167603" d="M1017.746,2381.708c4.211,2.015,9.719-1.855,11.87-6a123.9,123.9,0,0,0,.968-13.8c-.291-8.636.341-17.188.051-25.825a27.17,27.17,0,0,1-6.164,14.03,9.436,9.436,0,0,0-2.315,3.568c-.618,2.489,1.284,6.972,2.507,9.225,3.742,6.9-4.454,18.845-6.644,18.622" transform="translate(-1017.746 -2336.087)"/>
          </g>
          <g id="Grupo_111969" data-name="Grupo 111969" transform="translate(123.48 141.764)" opacity="0.2">
            <path id="Trazado_167604" data-name="Trazado 167604" d="M1122.173,2321.869q2.068,25.82,4.137,51.641a15.23,15.23,0,0,0,.908,4.785,5.151,5.151,0,0,0,3.476,3.169c2.447.5,4.819-1.607,5.51-4.007s.14-4.963-.461-7.387c-1.024-4.129-2.185-8.223-3.346-12.315l-10.107-35.619" transform="translate(-1122.173 -2321.869)"/>
          </g>
          <g id="Grupo_111970" data-name="Grupo 111970" transform="translate(57.734 164.6)">
            <path id="Trazado_167605" data-name="Trazado 167605" d="M1053.517,2417.451a10.012,10.012,0,0,0,1.148-2.741,12.943,12.943,0,0,0-1.285-7.87c-.712-1.56-1.716-3.18-2.727-4.966a21.573,21.573,0,0,1-2.556-6.1,14.516,14.516,0,0,1,.535-7.305c.739-2.434,1.843-4.8,2.733-7.272a21.745,21.745,0,0,0,.377-14.438,21.234,21.234,0,0,0-2.862-5.728,22.211,22.211,0,0,0-3.817-4.095,22.6,22.6,0,0,0-7.088-3.954c-1.834-.614-2.9-.779-2.891-.852a2.937,2.937,0,0,1,.783.069,16.18,16.18,0,0,1,2.2.492,21.519,21.519,0,0,1,7.346,3.813,22.255,22.255,0,0,1,4,4.145,21.561,21.561,0,0,1,3.021,5.885,22.207,22.207,0,0,1-.325,14.929c-.908,2.521-2.01,4.871-2.736,7.231a13.885,13.885,0,0,0-.562,6.935,21.315,21.315,0,0,0,2.416,5.928c.979,1.788,1.963,3.433,2.666,5.058a12.856,12.856,0,0,1,1.073,8.167,7.158,7.158,0,0,1-.931,2.072A2.892,2.892,0,0,1,1053.517,2417.451Z" transform="translate(-1035.084 -2352.118)" fill="#fafafa"/>
          </g>
          <g id="Grupo_111971" data-name="Grupo 111971" transform="translate(118.246 95.406)">
            <path id="Trazado_167606" data-name="Trazado 167606" d="M1144.029,2270.794a4.24,4.24,0,0,1-.733,1.5,10.991,10.991,0,0,1-3.278,3.181,13.956,13.956,0,0,1-6.436,2.129,21.329,21.329,0,0,1-8.223-1.049,17.137,17.137,0,0,1-7.176-4.167,10.655,10.655,0,0,1-2.094-3.022,9.944,9.944,0,0,1-.812-3.1,7.86,7.86,0,0,1,.839-4.492,4.364,4.364,0,0,1,.383-.613,2.663,2.663,0,0,1,.328-.412c.193-.21.3-.31.324-.291.059.046-.334.5-.76,1.451a8.074,8.074,0,0,0-.561,4.3,9.711,9.711,0,0,0,.852,2.882,10.259,10.259,0,0,0,2.017,2.789,16.945,16.945,0,0,0,6.9,3.925,21.42,21.42,0,0,0,7.927,1.076,13.915,13.915,0,0,0,6.2-1.879,11.89,11.89,0,0,0,3.322-2.887C1143.693,2271.289,1143.968,2270.764,1144.029,2270.794Z" transform="translate(-1115.239 -2260.462)" fill="#fafafa"/>
          </g>
          <g id="Grupo_111972" data-name="Grupo 111972" transform="translate(118.402 104.798)">
            <path id="Trazado_167607" data-name="Trazado 167607" d="M1133.745,2355.053a.908.908,0,0,1-.08-.212l-.2-.632-.718-2.443c-.615-2.154-1.491-5.222-2.57-9-2.14-7.635-5.084-18.14-8.336-29.744l-4.543-16.391a56.571,56.571,0,0,1-1.608-7.262,22.286,22.286,0,0,1-.02-6.486,13.968,13.968,0,0,1,4.27-8.215,10.393,10.393,0,0,1,2.12-1.425l.611-.259a.937.937,0,0,1,.214-.074,11.771,11.771,0,0,0-2.843,1.872,13.983,13.983,0,0,0-4.1,8.145,22.2,22.2,0,0,0,.068,6.4,57,57,0,0,0,1.634,7.211c1.407,5.037,2.951,10.571,4.573,16.381,3.209,11.615,6.114,22.131,8.225,29.775l2.449,9.037.647,2.462c.066.266.118.477.159.643A1,1,0,0,1,1133.745,2355.053Z" transform="translate(-1115.446 -2272.904)" fill="#263238"/>
          </g>
          <g id="Grupo_111973" data-name="Grupo 111973" transform="translate(70.041 12.052)">
            <path id="Trazado_167608" data-name="Trazado 167608" d="M1087.3,2157.766a8.143,8.143,0,0,0,.007-1.616,6.3,6.3,0,0,0-2.088-3.75,8.493,8.493,0,0,0-6.011-1.985,26.153,26.153,0,0,0-7.81,1.747c-1.364.449-2.709.878-4.043,1.172a20.944,20.944,0,0,1-3.9.475,21.216,21.216,0,0,1-6.577-.865,20.434,20.434,0,0,1-4.117-1.745,12.008,12.008,0,0,1-1.034-.639,1.71,1.71,0,0,1-.34-.254c.022-.035.51.285,1.446.758a22.676,22.676,0,0,0,4.121,1.613,21.613,21.613,0,0,0,6.49.771,21.133,21.133,0,0,0,3.831-.489c1.311-.295,2.641-.721,4-1.17a25.862,25.862,0,0,1,7.928-1.736,8.7,8.7,0,0,1,6.2,2.143,6.315,6.315,0,0,1,2.051,3.936A3.676,3.676,0,0,1,1087.3,2157.766Z" transform="translate(-1051.386 -2150.051)" fill="#455a64"/>
          </g>
          <g id="Grupo_111974" data-name="Grupo 111974" transform="translate(108.025 16.286)">
            <path id="Trazado_167609" data-name="Trazado 167609" d="M1110.013,2181.7a1.063,1.063,0,0,1-.176-.281c-.107-.188-.246-.475-.415-.852a17.145,17.145,0,0,1-1.063-3.318,18.311,18.311,0,0,1-.344-5.161,45.851,45.851,0,0,1,1.191-6.2,12.154,12.154,0,0,0,.012-6.136,6.211,6.211,0,0,0-1.279-2.325,4.678,4.678,0,0,0-1.918-1.259,4.379,4.379,0,0,0-3.3.085,6.242,6.242,0,0,0-1.025.718,2.548,2.548,0,0,1,.955-.855,4.432,4.432,0,0,1,3.454-.211,4.91,4.91,0,0,1,2.07,1.3,6.475,6.475,0,0,1,1.384,2.436,12.293,12.293,0,0,1,.027,6.325,49.412,49.412,0,0,0-1.215,6.152,18.888,18.888,0,0,0,.256,5.077,19.914,19.914,0,0,0,.932,3.315A12.567,12.567,0,0,1,1110.013,2181.7Z" transform="translate(-1101.701 -2155.659)" fill="#455a64"/>
          </g>
          <g id="Grupo_111975" data-name="Grupo 111975" transform="translate(68.62 3.674)">
            <path id="Trazado_167610" data-name="Trazado 167610" d="M1088.123,2153.967a2.8,2.8,0,0,1,.005-.536c.014-.389.033-.9.057-1.531a17.77,17.77,0,0,0-.617-5.545,9.8,9.8,0,0,0-1.784-3.368,6.892,6.892,0,0,0-3.579-2.365,9.051,9.051,0,0,0-4.778.2,22.132,22.132,0,0,0-4.778,2.166,39.485,39.485,0,0,1-4.738,2.438,14.49,14.49,0,0,1-4.882.981,15.416,15.416,0,0,1-4.472-.55,17.211,17.211,0,0,1-3.627-1.495,14.811,14.811,0,0,1-4.295-3.666,9.316,9.316,0,0,1-.871-1.269,2.714,2.714,0,0,1-.258-.47,2.748,2.748,0,0,1,.325.427,11.481,11.481,0,0,0,.922,1.215,15.354,15.354,0,0,0,4.311,3.52,17.331,17.331,0,0,0,3.578,1.423,15.281,15.281,0,0,0,4.376.5,14.257,14.257,0,0,0,4.751-.976,40.061,40.061,0,0,0,4.687-2.423,22.17,22.17,0,0,1,4.866-2.193,9.354,9.354,0,0,1,4.976-.176,7.2,7.2,0,0,1,3.739,2.509,10,10,0,0,1,1.8,3.495,16.953,16.953,0,0,1,.5,5.63c-.039.667-.091,1.182-.131,1.531A2.707,2.707,0,0,1,1088.123,2153.967Z" transform="translate(-1049.505 -2138.952)" fill="#455a64"/>
          </g>
          <g id="Grupo_111983" data-name="Grupo 111983" transform="translate(50.612 194.015)">
            <g id="Grupo_111981" data-name="Grupo 111981">
              <g id="Grupo_111977" data-name="Grupo 111977">
                <path id="Trazado_167611" data-name="Trazado 167611" d="M1073.684,2404.523l56.457-8.421-.912-5.021h30.386l.89,7.725a23.36,23.36,0,0,1-22.7,27.769l-65.847-.731Z" transform="translate(-1036.997 -2391.081)" fill="#b78876"/>
                <g id="Grupo_111976" data-name="Grupo 111976" transform="translate(0 8.959)">
                  <path id="Trazado_167612" data-name="Trazado 167612" d="M1066.411,2408.4c-.3.1-4.106-1.6-7.512-3.181a24.57,24.57,0,0,0-11.564-2.242l-15.7.8s.969,2.589,2.634,3.51,11.423,1.117,11.423,1.117l-.5.515a11.289,11.289,0,0,1-7.813,3.419l-1.5.038a14.622,14.622,0,0,1-3.276-.64l-3.871-1.564c-1.172-.528-2.41-.442-2.919.737-.461,1.068-.123,2.538,3.073,4.148,1.787.9,8.412,3.191,8.412,3.191a15.9,15.9,0,0,0,.386,2.8c.289.964,2.892,1.928,2.892,1.928a34.489,34.489,0,0,0,2.313,4.145c.3.346,2.66,1.08,5.168,1.783a22.233,22.233,0,0,0,12.368-.093l5.982-1.786V2408.8" transform="translate(-1025.65 -2402.948)" fill="#b78876"/>
                </g>
              </g>
              <g id="Grupo_111978" data-name="Grupo 111978" transform="translate(11.367 24.221)">
                <path id="Trazado_167613" data-name="Trazado 167613" d="M1048.629,2425.26a17.865,17.865,0,0,1-7.922-2.084c.045-.107,1.758.553,3.94,1.123S1048.642,2425.145,1048.629,2425.26Z" transform="translate(-1040.707 -2423.165)" fill="#aa6550"/>
              </g>
              <g id="Grupo_111979" data-name="Grupo 111979" transform="translate(14.541 28.837)">
                <path id="Trazado_167614" data-name="Trazado 167614" d="M1049.107,2430.435a5.783,5.783,0,0,1-4.193-1.139,76.047,76.047,0,0,0,4.193,1.139Z" transform="translate(-1044.912 -2429.28)" fill="#aa6550"/>
              </g>
              <g id="Grupo_111980" data-name="Grupo 111980" transform="translate(93.094 4.748)">
                <path id="Trazado_167615" data-name="Trazado 167615" d="M1163.927,2410.81c-.073.027-.447-1.091-1.352-2.746a22.035,22.035,0,0,0-1.807-2.764,21.879,21.879,0,0,0-5.986-5.373,21.984,21.984,0,0,0-2.943-1.5c-1.742-.722-2.894-.974-2.875-1.049a3.386,3.386,0,0,1,.817.136,7.824,7.824,0,0,1,.94.245c.361.114.78.225,1.221.409a19.711,19.711,0,0,1,3.027,1.448,20.586,20.586,0,0,1,6.088,5.466,19.641,19.641,0,0,1,1.765,2.853c.231.418.386.823.538,1.17a7.785,7.785,0,0,1,.345.908A3.333,3.333,0,0,1,1163.927,2410.81Z" transform="translate(-1148.964 -2397.371)" fill="#aa6550"/>
              </g>
            </g>
            <g id="Grupo_111982" data-name="Grupo 111982" transform="translate(11.196 12.998)">
              <path id="Trazado_167616" data-name="Trazado 167616" d="M1050.888,2408.3a6.877,6.877,0,0,1-1.212,1.295,19.521,19.521,0,0,1-3.42,2.59,13.6,13.6,0,0,1-4.008,1.547,5.741,5.741,0,0,1-1.767.192,22.891,22.891,0,0,0,5.578-2.079,26.619,26.619,0,0,0,3.433-2.458A9.346,9.346,0,0,1,1050.888,2408.3Z" transform="translate(-1040.48 -2408.298)" fill="#aa6550"/>
            </g>
          </g>
        </g>
        <g id="Grupo_111995" data-name="Grupo 111995" transform="translate(0 -31.987)">
          <g id="Grupo_111991" data-name="Grupo 111991" transform="translate(15.796 25.104)">
            <g id="Grupo_111986" data-name="Grupo 111986" transform="translate(19.096 0)">
              <g id="Grupo_111985" data-name="Grupo 111985">
                <path id="Trazado_167617" data-name="Trazado 167617" d="M1001.353,2188.251a2.35,2.35,0,1,0,2.35-2.349A2.351,2.351,0,0,0,1001.353,2188.251Z" transform="translate(-1001.353 -2185.902)" fill="#455a64"/>
              </g>
            </g>
            <g id="Grupo_111988" data-name="Grupo 111988" transform="translate(9.694 0)">
              <g id="Grupo_111987" data-name="Grupo 111987">
                <circle id="Elipse_5059" data-name="Elipse 5059" cx="2.35" cy="2.35" r="2.35" fill="#455a64"/>
              </g>
            </g>
            <g id="Grupo_111990" data-name="Grupo 111990">
              <g id="Grupo_111989" data-name="Grupo 111989">
                <path id="Trazado_167618" data-name="Trazado 167618" d="M976.373,2187.077a2.35,2.35,0,1,0,3.21-.86A2.35,2.35,0,0,0,976.373,2187.077Z" transform="translate(-976.058 -2185.902)" fill="#455a64"/>
              </g>
            </g>
          </g>
          <g id="Grupo_111994" data-name="Grupo 111994">
            <g id="Grupo_111993" data-name="Grupo 111993">
              <g id="Grupo_111992" data-name="Grupo 111992">
                <path id="Trazado_167619" data-name="Trazado 167619" d="M982.828,2152.66a2.644,2.644,0,0,0-.475-.009l-1.4.04c-.307.014-.651.014-1.029.045l-1.231.173-1.437.207-1.606.4a26.025,26.025,0,0,0-7.783,3.394,27.469,27.469,0,0,0-12.616,20.644,28.582,28.582,0,0,0-.076,3.764c.045.636.032,1.283.125,1.925s.193,1.287.291,1.939a27.616,27.616,0,0,0,2.616,7.658,29.491,29.491,0,0,0,5,6.883,28.907,28.907,0,0,0,7.207,5.177,26.2,26.2,0,0,0,8.785,2.7,17.417,17.417,0,0,0,2.343.2,21.15,21.15,0,0,0,2.368.043,28.113,28.113,0,0,0,4.744-.6,27.717,27.717,0,0,0,9.445-3.974l-.287.029,9.62,3.862.57.229-.162-.592q-1.456-5.295-2.828-10.285l-.048.254a27.61,27.61,0,0,0,5.134-11.752,25,25,0,0,0,.374-6.021,19.325,19.325,0,0,0-.273-2.892q-.11-.708-.218-1.407c-.086-.463-.227-.91-.337-1.362a27.506,27.506,0,0,0-10.733-15.647,26.291,26.291,0,0,0-6.388-3.37l-1.439-.515-1.366-.347-1.25-.31c-.4-.077-.787-.118-1.15-.174-.728-.093-1.367-.218-1.927-.246l-1.413-.048-.864-.019a1.257,1.257,0,0,0-.292.011,1.391,1.391,0,0,0,.291.04l.86.068,1.4.094c.556.044,1.189.184,1.908.29a27.362,27.362,0,0,1,21.876,20.294c.1.443.242.884.324,1.338s.137.919.207,1.383a18.93,18.93,0,0,1,.255,2.839,24.549,24.549,0,0,1-.39,5.9,27.089,27.089,0,0,1-5.063,11.5l-.086.115.038.14,2.807,10.29.407-.362-9.616-3.872-.151-.061-.136.09a27.16,27.16,0,0,1-9.234,3.882,27.529,27.529,0,0,1-4.638.587,20.575,20.575,0,0,1-2.316-.042,16.877,16.877,0,0,1-2.291-.194,25.6,25.6,0,0,1-8.591-2.627,28.377,28.377,0,0,1-7.06-5.052,28.986,28.986,0,0,1-4.913-6.726,27.141,27.141,0,0,1-2.586-7.494q-.147-.956-.294-1.9c-.094-.629-.082-1.263-.129-1.888a26.758,26.758,0,0,1,4.476-16.3,27.756,27.756,0,0,1,7.872-7.792,26.162,26.162,0,0,1,7.657-3.451l1.585-.423,1.422-.233,1.22-.2c.375-.042.717-.051,1.022-.075l1.389-.1A2.813,2.813,0,0,0,982.828,2152.66Z" transform="translate(-955.134 -2152.649)" fill="#455a64"/>
              </g>
            </g>
          </g>
        </g>
      </g>
      <path id="Rectángulo_37181-2" data-name="Rectángulo 37181" d="M1010.5,2443.549h0c-2.234,18.611,10.479,36,28.395,38.832l73.618,11.651c17.915,2.834,34.249-9.956,36.482-28.566h0c2.234-18.612-10.48-36-28.395-38.833l-73.618-11.65C1029.067,2412.147,1012.733,2424.937,1010.5,2443.549Z" transform="translate(-982.052 -2211.613)" fill="#1b9877"/>
    </g>
  </g>
</svg>
