<svg id="Grupo_22763" data-name="Grupo 22763" xmlns="http://www.w3.org/2000/svg" xmlns:xlink="http://www.w3.org/1999/xlink" width="318.458" height="326.333" viewBox="0 0 318.458 326.333">
  <defs>
    <clipPath id="clip-path">
      <rect id="Rectángulo_5599" data-name="Rectángulo 5599" width="318.458" height="167.47" rx="10.067" fill="none"/>
    </clipPath>
  </defs>
  <g id="Grupo_22693" data-name="Grupo 22693">
    <g id="Grupo_22691" data-name="Grupo 22691" transform="translate(0 7.874)" opacity="0.12" style="mix-blend-mode: multiply;isolation: isolate">
      <rect id="Rectángulo_5597" data-name="Rectángulo 5597" width="318.458" height="318.459" rx="10.067"/>
    </g>
    <g id="Grupo_22692" data-name="Grupo 22692">
      <rect id="Rectángulo_5598" data-name="Rectángulo 5598" width="318.458" height="318.459" rx="10.067" fill="#ffb476"/>
    </g>
  </g>
  <g id="Grupo_22762" data-name="Grupo 22762" transform="translate(0 11.814)">
    <g id="Grupo_22703" data-name="Grupo 22703" transform="translate(0 139.174)">
      <g id="Grupo_22702" data-name="Grupo 22702" clip-path="url(#clip-path)">
        <g id="Grupo_22701" data-name="Grupo 22701" transform="translate(-52.948 42.083)">
          <g id="Grupo_22694" data-name="Grupo 22694" transform="translate(98.041)">
            <path id="Trazado_5656" data-name="Trazado 5656" d="M521.144,201.351l34.214-19.525L598.242,236.2l-28.57,29.289Z" transform="translate(-518.22 -179.277)" fill="#fff"/>
            <path id="Trazado_5657" data-name="Trazado 5657" d="M571.668,270.4,520.4,202.652l37.632-21.474,45.007,57.058Zm-45.42-66.547,45.8,60.523,25.765-26.415-40.77-51.684Z" transform="translate(-520.401 -181.178)" fill="#2f2f2f"/>
          </g>
          <g id="Grupo_22700" data-name="Grupo 22700" transform="translate(0 12.442)">
            <g id="Grupo_22695" data-name="Grupo 22695">
              <path id="Trazado_5658" data-name="Trazado 5658" d="M579.831,335.949c27.95-29.907,72.591-81.288,72.591-81.288l-54.5-69.677s-64.6,36.144-101.636,56.854Z" transform="translate(-493.188 -182.441)" fill="#fff"/>
              <path id="Trazado_5659" data-name="Trazado 5659" d="M582.1,340.772l-86.6-97.557,105.246-58.877,56.539,72.284-1.063,1.228c-.449.512-44.983,51.751-72.642,81.343Zm-80.41-96.513,80.485,90.667c25.249-27.128,63.185-70.6,70-78.434l-52.456-67.071Z" transform="translate(-495.5 -184.338)"/>
            </g>
            <g id="Grupo_22699" data-name="Grupo 22699" transform="translate(111.488 63.826)">
              <g id="Grupo_22696" data-name="Grupo 22696" transform="translate(21.724)">
                <path id="Trazado_5660" data-name="Trazado 5660" d="M538.554,211.437a5.648,5.648,0,1,1,1.666-7.811A5.648,5.648,0,0,1,538.554,211.437Z" transform="translate(-527.868 -199.077)" fill="#fff"/>
                <path id="Trazado_5661" data-name="Trazado 5661" d="M536.96,215.783a7.609,7.609,0,1,1,4.134-1.225h0A7.592,7.592,0,0,1,536.96,215.783Zm-.02-11.292a3.63,3.63,0,0,0-1.992.595,3.676,3.676,0,1,0,4,6.17h0a3.676,3.676,0,0,0-1.232-6.682A3.745,3.745,0,0,0,536.941,204.491Z" transform="translate(-529.334 -200.549)"/>
              </g>
              <g id="Grupo_22697" data-name="Grupo 22697" transform="translate(11.095 12.988)">
                <path id="Trazado_5662" data-name="Trazado 5662" d="M535.853,214.73a5.646,5.646,0,1,1,1.665-7.811A5.645,5.645,0,0,1,535.853,214.73Z" transform="translate(-525.169 -202.381)" fill="#fff"/>
                <path id="Trazado_5663" data-name="Trazado 5663" d="M534.259,219.07a7.606,7.606,0,1,1,4.134-1.221h0A7.588,7.588,0,0,1,534.259,219.07Zm-.02-11.288a3.678,3.678,0,1,0,2.008,6.764h0a3.677,3.677,0,0,0-2.008-6.764Z" transform="translate(-526.634 -203.848)"/>
              </g>
              <g id="Grupo_22698" data-name="Grupo 22698" transform="translate(0 25.264)">
                <path id="Trazado_5664" data-name="Trazado 5664" d="M533.038,217.847a5.646,5.646,0,1,1,1.666-7.808A5.646,5.646,0,0,1,533.038,217.847Z" transform="translate(-522.347 -205.502)" fill="#fff"/>
                <path id="Trazado_5665" data-name="Trazado 5665" d="M531.453,222.193a7.617,7.617,0,1,1,4.13-1.228A7.639,7.639,0,0,1,531.453,222.193Zm-.024-11.3a3.679,3.679,0,1,0,3.091,1.677A3.657,3.657,0,0,0,531.429,210.9Z" transform="translate(-523.816 -206.965)"/>
              </g>
            </g>
          </g>
        </g>
      </g>
    </g>
    <g id="Grupo_22761" data-name="Grupo 22761" transform="translate(59.35)">
      <g id="Grupo_22708" data-name="Grupo 22708" transform="translate(96.828 68.416)">
        <g id="Grupo_22707" data-name="Grupo 22707">
          <g id="Grupo_22704" data-name="Grupo 22704" transform="translate(72.642 6.746)">
            <path id="Trazado_5666" data-name="Trazado 5666" d="M569.411,191.523l-2.347-1.8c13.406-17.5,30.38-37.813,35.227-35.281a3.767,3.767,0,0,1,1.957,2.8c1.193,6.422-9.142,21.722-19.257,33.218l-2.213-1.949c12.544-14.269,19.292-26.828,18.564-30.734-.1-.547-.319-.661-.421-.717h-.012C597.838,157.061,582.133,174.92,569.411,191.523Z" transform="translate(-567.065 -154.231)" fill="#1a2e35"/>
          </g>
          <g id="Grupo_22705" data-name="Grupo 22705" transform="translate(76.551)">
            <path id="Trazado_5667" data-name="Trazado 5667" d="M572.573,179.138s20.454-29.1,29.108-26.021c11.776,4.185-14.93,32.837-23.285,42.132S564.064,189.186,572.573,179.138Z" transform="translate(-566.933 -151.428)" fill="#f6f6f6"/>
            <path id="Trazado_5668" data-name="Trazado 5668" d="M574.583,200.694a5.444,5.444,0,0,1-3.516-1.339c-4.111-3.591-4.363-13.107,1.457-20.029,3.61-5.134,21.572-29.769,30.777-26.513a5.511,5.511,0,0,1,3.729,3.914c1.972,7.811-10.871,23.4-25.041,39.085l-1.37,1.516C578.28,199.926,576.213,200.694,574.583,200.694Zm26.737-45.258c-6.083,0-19.178,15.351-26.419,25.643l-.083.106c-4.945,5.847-4.516,13.583-1.811,15.946,1.866,1.63,4.193-.413,5.41-1.78l1.378-1.52c7.17-7.937,26.226-29.025,24.371-36.38a2.558,2.558,0,0,0-1.858-1.854A2.877,2.877,0,0,0,601.32,155.435Z" transform="translate(-568.058 -152.518)" fill="#2f2f2f"/>
          </g>
          <g id="Grupo_22706" data-name="Grupo 22706" transform="translate(0 17.082)">
            <path id="Trazado_5669" data-name="Trazado 5669" d="M610.195,215.234s5.122-17,6.047-21.391,7.119-21.509,7.119-21.509.228-.827.535-2.067c.677-2.752,1.732-7.536,1.508-9.768-.327-3.236-3.787-4.362-7.741-2.024s-18.832,31.356-18.832,31.356l-49.625,76.681L614.478,284.6s5.89-16.1,9.213-23.734,13.7-30.431,15.989-35.175.5-17.509-.921-24.69-3.5-24.108-3.5-24.108l-8.981-7.709" transform="translate(-546.876 -155.752)" fill="#fff"/>
            <path id="Trazado_5670" data-name="Trazado 5670" d="M617.138,287.5,548.615,268.5l50.719-78.367c2.441-4.784,15.206-29.392,19.312-31.825,2.646-1.567,5.311-1.886,7.323-.87a4.863,4.863,0,0,1,2.646,4.012c.22,2.24-.634,6.481-1.437,9.815l1.8-2.1,9.414,8.083.071.567c.02.169,2.1,16.954,3.484,24.005.9,4.54,3.607,19.808.8,25.616-2.193,4.54-12.587,27.36-15.965,35.124-3.268,7.5-9.123,23.49-9.178,23.651Zm-63.862-20.765L615.3,283.925c1.465-3.973,6.016-16.21,8.772-22.541,3.39-7.78,13.816-30.671,16.017-35.226,1.914-3.965.634-15.276-1.043-23.761-1.28-6.5-3.067-20.6-3.449-23.647l-8.469-7.276c-.023.083-.043.165-.063.248-.311,1.268-.548,2.11-.548,2.11-.094.276-6.2,17.182-7.091,21.419-.933,4.4-5.879,20.82-6.083,21.517l-2.831-.854c.055-.169,5.119-16.993,6.02-21.273.937-4.421,6.882-20.895,7.17-21.7h0s.213-.784.492-1.921c1.087-4.414,1.626-7.792,1.477-9.272a1.952,1.952,0,0,0-1.036-1.673c-1.079-.543-2.752-.248-4.485.776-2.473,1.465-12.17,18.867-18.265,30.758Z" transform="translate(-548.615 -156.856)" fill="#1a2e35"/>
          </g>
        </g>
      </g>
      <g id="Grupo_22760" data-name="Grupo 22760" transform="translate(0)">
        <g id="Grupo_22755" data-name="Grupo 22755">
          <rect id="Rectángulo_5600" data-name="Rectángulo 5600" width="178.996" height="257.7" rx="4.731" transform="translate(19.759 22.091) rotate(4.397)" fill="#2f2f2f"/>
          <g id="Grupo_22753" data-name="Grupo 22753" transform="translate(17.438 40.409)">
            <rect id="Rectángulo_5601" data-name="Rectángulo 5601" width="152.059" height="209.405" transform="matrix(0.997, 0.075, -0.075, 0.997, 15.782, 0)" fill="#fff"/>
            <g id="Grupo_22747" data-name="Grupo 22747" transform="translate(22.52 11.526)">
              <g id="Grupo_22709" data-name="Grupo 22709">
                <rect id="Rectángulo_5602" data-name="Rectángulo 5602" width="113.494" height="151.326" transform="translate(12.144 1.22) rotate(4.139)" fill="#fff"/>
                <path id="Trazado_5671" data-name="Trazado 5671" d="M649.646,309.9l-115.475-8.359,11.087-153.205,115.475,8.359ZM536.612,299.427l110.924,8.028L658.292,158.8l-110.924-8.028Z" transform="translate(-534.171 -148.332)" fill="#2f2f2f"/>
              </g>
              <g id="Grupo_22746" data-name="Grupo 22746" transform="translate(4.272 16.464)">
                <g id="Grupo_22710" data-name="Grupo 22710" transform="translate(0 96.523)">
                  <path id="Trazado_5672" data-name="Trazado 5672" d="M639.775,223.41c-12.7-27.5-29.915-44.621-49.869-46.066-19.926-1.441-38.463,13.111-54.275,38.53Z" transform="translate(-534.155 -176.391)" fill="#fff"/>
                  <path id="Trazado_5673" data-name="Trazado 5673" d="M642.262,225.008l-107.006-7.744.748-1.2c16.718-26.864,35.758-40.329,55.066-38.931,19.678,1.425,37.171,17.528,50.586,46.562ZM538.213,215.76l101.269,7.331c-13.044-27.6-29.809-42.9-48.538-44.254C572.6,177.51,554.383,190.27,538.213,215.76Z" transform="translate(-535.256 -177.029)" fill="#2f2f2f"/>
                </g>
                <g id="Grupo_22745" data-name="Grupo 22745" transform="translate(13.413)">
                  <g id="Grupo_22733" data-name="Grupo 22733">
                    <g id="Grupo_22732" data-name="Grupo 22732">
                      <g id="Grupo_22724" data-name="Grupo 22724">
                        <g id="Grupo_22711" data-name="Grupo 22711" transform="translate(15.851 16.334)">
                          <path id="Trazado_5674" data-name="Trazado 5674" d="M546.474,196.549a28.572,28.572,0,0,1-2.394-22.95c4.181-12.808,28.958-17.832,31.809-16.808s13.9,2.374,13.9,2.374,13.3.913,14.076,14.1-6.162,28.049-6.744,30.1S553.655,211.652,546.474,196.549Z" transform="translate(-542.689 -156.662)" fill="#2f2f2f"/>
                        </g>
                        <g id="Grupo_22712" data-name="Grupo 22712" transform="translate(33.711 74.348)">
                          <rect id="Rectángulo_5603" data-name="Rectángulo 5603" width="29.508" height="17.642" rx="1.847" transform="matrix(0.063, -0.998, 0.998, 0.063, 0.411, 29.861)" fill="#fff"/>
                          <path id="Trazado_5675" data-name="Trazado 5675" d="M554.766,202.565a8.132,8.132,0,0,1-7.524-8.619l.945-14.934a8.139,8.139,0,0,1,8.626-7.6l3.091.2a8.149,8.149,0,0,1,7.6,8.626l-.945,14.934a8.139,8.139,0,0,1-8.627,7.595l-3.091-.193Zm5.091-29.242-.063,0-3.091-.2a6.425,6.425,0,0,0-6.808,6l-.945,14.934a6.424,6.424,0,0,0,5.937,6.8l.059,0,3.091.193a6.423,6.423,0,0,0,6.811-6l.945-14.934a6.432,6.432,0,0,0-5.937-6.8Z" transform="translate(-547.225 -171.397)" fill="#2f2f2f"/>
                        </g>
                        <g id="Grupo_22721" data-name="Grupo 22721" transform="translate(8.038 51.969)">
                          <g id="Grupo_22716" data-name="Grupo 22716">
                            <g id="Grupo_22713" data-name="Grupo 22713">
                              <path id="Trazado_5676" data-name="Trazado 5676" d="M540.959,172.209a7.062,7.062,0,1,0,7.745-6.241A7.033,7.033,0,0,0,540.959,172.209Z" transform="translate(-540.066 -165.075)" fill="#fff"/>
                              <path id="Trazado_5677" data-name="Trazado 5677" d="M548.058,181.411c-.079,0-.161-.012-.24-.02a7.9,7.9,0,0,1-5.331-2.858,7.773,7.773,0,0,1-1.74-5.772,7.918,7.918,0,1,1,7.311,8.65Zm1-13.969a6.185,6.185,0,0,0-6.615,5.5h0a6.067,6.067,0,0,0,1.362,4.508,6.177,6.177,0,1,0,5.441-9.989Z" transform="translate(-540.704 -165.713)" fill="#2f2f2f"/>
                            </g>
                            <g id="Grupo_22715" data-name="Grupo 22715" transform="translate(6.959 3.953)">
                              <g id="Grupo_22714" data-name="Grupo 22714">
                                <path id="Trazado_5678" data-name="Trazado 5678" d="M546.591,171.9a4.362,4.362,0,0,0,.043-.449q.012-.242,0-.484c0-.067.024-.177,0-.008a.608.608,0,0,0-.012-.146c-.008-.106-.024-.217-.039-.323a4.645,4.645,0,0,0-.154-.658c-.043-.146.039.1-.016-.047l-.059-.154a3.765,3.765,0,0,0-.173-.358l-.087-.15c-.079-.13.051.067-.039-.055s-.173-.224-.272-.331l-.13-.13c-.087-.087.067.059.008.008l-.075-.063a3.455,3.455,0,0,0-.37-.26l-.091-.051-.071-.039c.063.032.067.035.012.008-.079-.035-.161-.075-.24-.106a3.884,3.884,0,0,0-.539-.169c-.012,0-.173-.043-.055-.016l-.154-.028c-.106-.02-.216-.035-.323-.047a7.34,7.34,0,0,0-.775-.039.552.552,0,0,1-.508-.583.558.558,0,0,1,.587-.5,4.5,4.5,0,0,1,3.957,1.839,4.959,4.959,0,0,1,.709,2.811,3.917,3.917,0,0,1-.047.606.562.562,0,0,1-.583.508.551.551,0,0,1-.5-.583Z" transform="translate(-542.472 -166.717)" fill="#2f2f2f"/>
                              </g>
                            </g>
                          </g>
                          <g id="Grupo_22720" data-name="Grupo 22720" transform="translate(58.574 4.812)">
                            <g id="Grupo_22717" data-name="Grupo 22717">
                              <path id="Trazado_5679" data-name="Trazado 5679" d="M569.888,174.881a7.064,7.064,0,1,1-6.307-7.693A7.04,7.04,0,0,1,569.888,174.881Z" transform="translate(-554.943 -166.303)" fill="#fff"/>
                              <path id="Trazado_5680" data-name="Trazado 5680" d="M562.939,182.628c-.083,0-.165-.012-.244-.02a7.889,7.889,0,0,1-5.331-2.862,7.768,7.768,0,0,1-1.74-5.772,7.972,7.972,0,0,1,8.682-7,7.889,7.889,0,0,1,5.331,2.862,7.763,7.763,0,0,1,1.74,5.768A7.9,7.9,0,0,1,562.939,182.628Zm1-13.969a6.182,6.182,0,0,0-6.614,5.492,6.078,6.078,0,0,0,1.362,4.508,6.214,6.214,0,0,0,10.985-3.236h0a6.071,6.071,0,0,0-1.358-4.5,6.164,6.164,0,0,0-4.181-2.244Z" transform="translate(-555.581 -166.935)" fill="#2f2f2f"/>
                            </g>
                            <g id="Grupo_22719" data-name="Grupo 22719" transform="translate(3.479 3.957)">
                              <g id="Grupo_22718" data-name="Grupo 22718">
                                <path id="Trazado_5681" data-name="Trazado 5681" d="M556.465,172.325a4.53,4.53,0,0,1,2.894-4.189,5.516,5.516,0,0,1,2.819-.024.554.554,0,0,1,.331.7.562.562,0,0,1-.7.335,4.252,4.252,0,0,0-2.051.008c-.035.008-.24.075-.114.031-.067.024-.134.051-.2.075a3.758,3.758,0,0,0-.394.2c-.134.079.043-.039-.079.051-.051.039-.1.075-.149.118a3.628,3.628,0,0,0-.287.264l-.059.063c.091-.094.039-.043.02-.02l-.11.138a3,3,0,0,0-.221.315l-.086.146c-.02.035-.106.209-.028.051-.051.1-.1.2-.142.311a5.028,5.028,0,0,0-.2.579c-.024.083-.043.169-.063.256-.016.063-.075.173,0,0-.012.035-.016.087-.024.122a4.282,4.282,0,0,0-.067.547c-.028.7-1.114.622-1.087-.079Z" transform="translate(-556.465 -167.94)" fill="#2f2f2f"/>
                              </g>
                            </g>
                          </g>
                        </g>
                        <g id="Grupo_22722" data-name="Grupo 22722" transform="translate(21.303 22.495)">
                          <path id="Rectángulo_5604" data-name="Rectángulo 5604" d="M4.875,0H54.227A4.876,4.876,0,0,1,59.1,4.876V39.751a4.876,4.876,0,0,1-4.876,4.876H4.875A4.875,4.875,0,0,1,0,39.751V4.875A4.875,4.875,0,0,1,4.875,0Z" transform="matrix(0.082, -0.997, 0.997, 0.082, 0, 58.902)" fill="#fff"/>
                          <path id="Trazado_5682" data-name="Trazado 5682" d="M569.063,219.59l-.209-.016-6.213-.512a20.074,20.074,0,0,1-18.332-21.631l1.7-20.643a19.911,19.911,0,0,1,7.036-13.631,20.222,20.222,0,0,1,14.6-4.7l6.213.512A20.111,20.111,0,0,1,592.194,180.6l-1.7,20.643a20.112,20.112,0,0,1-21.426,18.347Zm-1.748-59.444a18.394,18.394,0,0,0-19.6,16.784l-1.7,20.639a18.361,18.361,0,0,0,16.769,19.789l6.213.512A18.4,18.4,0,0,0,588.784,201.1l1.7-20.643a18.391,18.391,0,0,0-16.769-19.785l-6.213-.512Z" transform="translate(-543.583 -157.728)" fill="#2f2f2f"/>
                        </g>
                        <g id="Grupo_22723" data-name="Grupo 22723">
                          <path id="Trazado_5683" data-name="Trazado 5683" d="M612.577,183.2c-1.4-2.291-6.666-6.311-10.843-8.524,2.35-19.981-50.467-35.219-41.282-5.512,0,0-17.166-8.815-20.781-.157-8.788,21.056,42.286,31.565,58.259,13.469,2.984,1.366,6.591,3.843,7.044,7.949.788,7.13,1.477,22.824,1.477,22.824a40.774,40.774,0,0,1,2.827-6.729C610.963,203.479,614.6,186.505,612.577,183.2Z" transform="translate(-538.663 -152.514)" fill="#2f2f2f"/>
                        </g>
                      </g>
                      <g id="Grupo_22725" data-name="Grupo 22725" transform="translate(22.94 51.03)">
                        <path id="Trazado_5684" data-name="Trazado 5684" d="M545.118,168.367s2.937,6,8.591,8.4,8.307-1.78,13.079-1.532,7.831.508,11.5,3.831,9.016-3.65,11.576-11.946.949,17.044-5.347,23.938-13.576,7.74-22.537,6.359-15.249-7.5-16.788-13.6S545.118,168.367,545.118,168.367Z" transform="translate(-544.489 -165.474)" fill="#2f2f2f"/>
                      </g>
                      <g id="Grupo_22731" data-name="Grupo 22731" transform="translate(29.016 49.218)">
                        <g id="Grupo_22726" data-name="Grupo 22726" transform="translate(13.834)">
                          <path id="Trazado_5685" data-name="Trazado 5685" d="M552.823,165.014,549.546,175l5.34.334Z" transform="translate(-549.546 -165.014)" fill="#2f2f2f"/>
                        </g>
                        <g id="Grupo_22727" data-name="Grupo 22727" transform="translate(12.321 17.504)">
                          <path id="Trazado_5686" data-name="Trazado 5686" d="M549.162,169.46a4.413,4.413,0,0,0,8.733.72Z" transform="translate(-549.162 -169.46)" fill="#fff"/>
                        </g>
                        <g id="Grupo_22730" data-name="Grupo 22730" transform="translate(0 0.254)">
                          <g id="Grupo_22728" data-name="Grupo 22728">
                            <path id="Trazado_5687" data-name="Trazado 5687" d="M551.184,167.962a2.584,2.584,0,1,1-2.272-2.866A2.585,2.585,0,0,1,551.184,167.962Z" transform="translate(-546.032 -165.079)" fill="#2f2f2f"/>
                          </g>
                          <g id="Grupo_22729" data-name="Grupo 22729" transform="translate(27.286 1.976)">
                            <path id="Trazado_5688" data-name="Trazado 5688" d="M558.117,168.46a2.586,2.586,0,1,1-2.272-2.862A2.582,2.582,0,0,1,558.117,168.46Z" transform="translate(-552.963 -165.581)" fill="#2f2f2f"/>
                          </g>
                        </g>
                      </g>
                    </g>
                  </g>
                  <g id="Grupo_22744" data-name="Grupo 22744" transform="translate(25.734 87.581)">
                    <g id="Grupo_22734" data-name="Grupo 22734">
                      <path id="Rectángulo_5605" data-name="Rectángulo 5605" d="M2.2,0H31.356a2.2,2.2,0,0,1,2.2,2.2V18.943A2.456,2.456,0,0,1,31.1,21.4H2.2A2.2,2.2,0,0,1,0,19.2V2.2A2.2,2.2,0,0,1,2.2,0Z" transform="translate(1.803 0.259) rotate(4.14)" fill="#fff"/>
                      <path id="Trazado_5689" data-name="Trazado 5689" d="M569.3,198.945l-15.335-1.11a9.467,9.467,0,0,1-8.745-10.111l.3-4.2a9.465,9.465,0,0,1,10.111-8.744l16.324,1.181a9.467,9.467,0,0,1,8.745,10.111l-.232,3.209A10.459,10.459,0,0,1,569.3,198.945Zm-13.792-22.454a7.745,7.745,0,0,0-8.276,7.158l-.3,4.2a7.743,7.743,0,0,0,7.162,8.276l15.336,1.11a8.739,8.739,0,0,0,9.335-8.075l.232-3.213a7.742,7.742,0,0,0-7.158-8.276Z" transform="translate(-545.199 -174.758)" fill="#2f2f2f"/>
                    </g>
                    <g id="Grupo_22743" data-name="Grupo 22743" transform="translate(3.194 0.922)">
                      <g id="Grupo_22735" data-name="Grupo 22735" transform="translate(0 1.209)">
                        <path id="Trazado_5690" data-name="Trazado 5690" d="M546.01,192.619a8.725,8.725,0,0,0,.851.811l1.311-18.131a8.24,8.24,0,0,0-.957.681Z" transform="translate(-546.01 -175.299)" fill="#2f2f2f"/>
                      </g>
                      <g id="Grupo_22736" data-name="Grupo 22736" transform="translate(3.646)">
                        <path id="Trazado_5691" data-name="Trazado 5691" d="M546.936,195.859c.292.094.591.165.894.232l1.528-21.1a8.8,8.8,0,0,0-.917.1Z" transform="translate(-546.936 -174.992)" fill="#2f2f2f"/>
                      </g>
                      <g id="Grupo_22737" data-name="Grupo 22737" transform="translate(7.682 0.105)">
                        <rect id="Rectángulo_5606" data-name="Rectángulo 5606" width="21.399" height="0.906" transform="translate(0 21.343) rotate(-85.863)" fill="#2f2f2f"/>
                      </g>
                      <g id="Grupo_22738" data-name="Grupo 22738" transform="translate(12.275 0.438)">
                        <rect id="Rectángulo_5607" data-name="Rectángulo 5607" width="21.399" height="0.906" transform="translate(0 21.343) rotate(-85.861)" fill="#2f2f2f"/>
                      </g>
                      <g id="Grupo_22739" data-name="Grupo 22739" transform="translate(16.165 0.719)">
                        <rect id="Rectángulo_5608" data-name="Rectángulo 5608" width="21.399" height="0.906" transform="translate(0 21.343) rotate(-85.861)" fill="#2f2f2f"/>
                      </g>
                      <g id="Grupo_22740" data-name="Grupo 22740" transform="translate(20.383 1.024)">
                        <rect id="Rectángulo_5609" data-name="Rectángulo 5609" width="21.4" height="0.906" transform="translate(0 21.344) rotate(-85.863)" fill="#2f2f2f"/>
                      </g>
                      <g id="Grupo_22741" data-name="Grupo 22741" transform="translate(24.013 1.579)">
                        <path id="Trazado_5692" data-name="Trazado 5692" d="M552.109,196.15a8.089,8.089,0,0,0,.925-.217l1.461-20.194c-.287-.13-.583-.244-.882-.346Z" transform="translate(-552.109 -175.393)" fill="#2f2f2f"/>
                      </g>
                      <g id="Grupo_22742" data-name="Grupo 22742" transform="translate(27.301 3.303)">
                        <path id="Trazado_5693" data-name="Trazado 5693" d="M552.944,193.533a8.345,8.345,0,0,0,.953-.7L555,176.646a9.256,9.256,0,0,0-.85-.815Z" transform="translate(-552.944 -175.831)" fill="#2f2f2f"/>
                      </g>
                    </g>
                  </g>
                </g>
              </g>
            </g>
            <g id="Grupo_22752" data-name="Grupo 22752" transform="translate(14.681 172.783)">
              <g id="Grupo_22748" data-name="Grupo 22748" transform="translate(99.998 6.804)">
                <path id="Trazado_5694" data-name="Trazado 5694" d="M571.493,191.288l-4.555,7.5-9.088.635,6.1,6.5-2.119,8.445,8.327-3.489,7.778,4.584-.957-8.654,6.926-5.612-8.918-1.86Z" transform="translate(-556.78 -190.221)" fill="#fff"/>
                <path id="Trazado_5695" data-name="Trazado 5695" d="M579.335,217.184l-8.414-4.957-9,3.772,2.292-9.138-6.63-7.055,9.871-.689,4.914-8.1,3.776,8.689,9.686,2.016-7.524,6.1ZM571,211.128l7.146,4.209-.882-7.945,6.335-5.126-8.158-1.7-3.221-7.41-4.193,6.906-8.308.583,5.575,5.937-1.945,7.748Z" transform="translate(-557.578 -191.017)" fill="#2f2f2f"/>
              </g>
              <g id="Grupo_22749" data-name="Grupo 22749" transform="translate(66.665 4.532)">
                <path id="Trazado_5696" data-name="Trazado 5696" d="M563.027,190.712l-4.555,7.5-9.088.635,6.1,6.5-2.119,8.445,8.328-3.489,7.778,4.584-.956-8.654,6.926-5.612-8.918-1.86Z" transform="translate(-548.314 -189.641)" fill="#fff"/>
                <path id="Trazado_5697" data-name="Trazado 5697" d="M570.869,216.611l-8.414-4.957-9,3.776,2.292-9.142-6.63-7.056,9.867-.689,4.918-8.1,3.776,8.693,9.682,2.02-7.52,6.095Zm-8.335-6.055,7.142,4.213-.882-7.945,6.331-5.13-8.154-1.7-3.221-7.418-4.193,6.91-8.307.583,5.575,5.937-1.945,7.752Z" transform="translate(-549.112 -190.44)" fill="#2f2f2f"/>
              </g>
              <g id="Grupo_22750" data-name="Grupo 22750" transform="translate(33.333 2.268)">
                <path id="Trazado_5698" data-name="Trazado 5698" d="M554.561,190.136l-4.555,7.5-9.088.635,6.1,6.5-2.119,8.445,8.328-3.489,7.778,4.584-.956-8.654,6.927-5.611-8.918-1.86Z" transform="translate(-539.849 -189.068)" fill="#fff"/>
                <path id="Trazado_5699" data-name="Trazado 5699" d="M562.4,216.036l-8.414-4.961-9,3.776,2.3-9.138-6.63-7.059,9.867-.689,4.918-8.1,3.776,8.689,9.681,2.02-7.524,6.095Zm-8.335-6.059,7.142,4.213-.878-7.945,6.331-5.126-8.15-1.7L555.285,192l-4.193,6.91-8.307.579,5.575,5.937-1.949,7.752Z" transform="translate(-540.646 -189.865)" fill="#2f2f2f"/>
              </g>
              <g id="Grupo_22751" data-name="Grupo 22751">
                <path id="Trazado_5700" data-name="Trazado 5700" d="M546.095,189.56l-4.556,7.505-9.088.635,6.1,6.5-2.12,8.445,8.327-3.489,7.779,4.585-.957-8.654,6.927-5.612-8.919-1.859Z" transform="translate(-531.383 -188.492)" fill="#fff"/>
                <path id="Trazado_5701" data-name="Trazado 5701" d="M553.933,215.46l-8.414-4.957-9,3.772,2.291-9.138-6.626-7.059,9.871-.685,4.917-8.1,3.772,8.693L560.426,200l-7.528,6.1ZM545.6,209.4l7.142,4.213-.878-7.945,6.331-5.126-8.154-1.7-3.221-7.414-4.193,6.91-8.308.579,5.575,5.941-1.945,7.749Z" transform="translate(-532.18 -189.289)" fill="#2f2f2f"/>
              </g>
            </g>
          </g>
          <g id="Grupo_22754" data-name="Grupo 22754" transform="translate(64.353)">
            <path id="Trazado_5702" data-name="Trazado 5702" d="M616.412,157.766l-10.839-.835c.079-11.083-7.626-20.442-17.958-21.233s-19.458,7.256-21.064,18.233l-10.764-.827a13.857,13.857,0,0,0-2.126,27.631l60.625,4.662a13.857,13.857,0,1,0,2.126-27.631Zm-29.541-12.383c5.414.417,9.5,5.138,9.792,10.863l-21.131-1.626C576.693,149.01,581.457,144.97,586.871,145.383Z" transform="translate(-538.899 -133.667)" fill="#fff"/>
            <path id="Trazado_5703" data-name="Trazado 5703" d="M616.829,188.88c-.4,0-.811-.016-1.221-.047l-60.629-4.662a15.825,15.825,0,0,1,2.421-31.557l9,.693c2.469-11.083,12.182-18.974,22.832-18.1,10.611.815,18.973,10.04,19.721,21.371l9.075.7a15.825,15.825,0,0,1-1.2,31.6ZM556.183,156.5a11.888,11.888,0,0,0-.906,23.742l60.629,4.662A11.888,11.888,0,0,0,617.73,161.2l-12.67-.972.012-1.835c.071-10.1-7.016-18.56-16.139-19.261-9.162-.7-17.505,6.567-18.966,16.556l-.272,1.819-12.6-.969C556.794,156.516,556.487,156.5,556.183,156.5Zm44.026,3.351-25.592-1.969.457-2.189c1.37-6.638,7.118-11.28,13.414-10.8h0c6.28.484,11.268,5.953,11.607,12.725Zm-20.58-5.532,16.174,1.244a8.427,8.427,0,0,0-16.174-1.244Z" transform="translate(-540.367 -135.141)" fill="#2f2f2f"/>
          </g>
        </g>
        <g id="Grupo_22759" data-name="Grupo 22759" transform="translate(173.244 104.122)">
          <g id="Grupo_22756" data-name="Grupo 22756">
            <path id="Trazado_5704" data-name="Trazado 5704" d="M570.94,192.078s-4.063-1.965-1.921-8.564S579.811,160,588.575,162.151,578.7,194.622,570.94,192.078Z" transform="translate(-566.931 -160.481)" fill="#f6f6f6"/>
            <path id="Trazado_5705" data-name="Trazado 5705" d="M573.029,194.814a4.716,4.716,0,0,1-1.457-.224l-.181-.075c-1.807-.874-4.693-4.162-2.685-10.347,1.642-5.071,10.591-24.966,21.316-22.344a4.282,4.282,0,0,1,3.2,3.225c1.681,6.386-6.481,19.848-12.8,25.8C577.624,193.487,575.143,194.814,573.029,194.814Zm-.425-3c1.252.3,3.394-.85,5.788-3.11,6.741-6.351,13.115-18.552,11.969-22.907a1.309,1.309,0,0,0-1.044-1.1c-7.374-1.823-15.611,13.635-17.8,20.383C569.974,189.833,572.072,191.483,572.6,191.814Z" transform="translate(-568.024 -161.587)" fill="#2f2f2f"/>
          </g>
          <g id="Grupo_22757" data-name="Grupo 22757" transform="translate(4.248 19.363)">
            <path id="Trazado_5706" data-name="Trazado 5706" d="M571.876,193.348s-3.815-1.74-1.827-7.544,10.052-20.678,18.273-18.753S579.156,195.608,571.876,193.348Z" transform="translate(-568.008 -165.4)" fill="#f6f6f6"/>
            <path id="Trazado_5707" data-name="Trazado 5707" d="M573.884,196.063a4.38,4.38,0,0,1-1.351-.2l-.177-.063c-1.74-.8-4.524-3.776-2.606-9.371,1.532-4.477,9.977-22.052,20.005-19.71a4.04,4.04,0,0,1,3.087,2.973c1.508,5.441-5.516,16.651-11.009,21.978C578.841,194.57,576.128,196.063,573.884,196.063Zm-.374-2.992c1.079.24,3.221-.563,6.264-3.52,5.941-5.756,11.194-15.56,10.221-19.072a1.1,1.1,0,0,0-.91-.886c-6.874-1.606-14.52,11.89-16.544,17.8C571.156,191.436,573.1,192.83,573.51,193.07Z" transform="translate(-569.103 -166.505)" fill="#2f2f2f"/>
          </g>
          <g id="Grupo_22758" data-name="Grupo 22758" transform="translate(5.205 43.399)">
            <path id="Trazado_5708" data-name="Trazado 5708" d="M572.818,188.784s-4.583-.835-2.6-6.02c1.177-3.079,6.709-10.749,12.343-9.678S583.52,189.343,572.818,188.784Z" transform="translate(-568.242 -171.509)" fill="#f6f6f6"/>
            <path id="Trazado_5709" data-name="Trazado 5709" d="M574.525,191.376c-.224,0-.449,0-.681-.016l-.189-.024a5.6,5.6,0,0,1-3.673-2.579,6.219,6.219,0,0,1-.039-5.422c1.4-3.638,7.347-11.831,14-10.6,2.595.5,3.949,2.957,3.528,6.43C586.864,184.191,582.344,191.376,574.525,191.376Zm-.4-2.961c5.913.161,9.906-5.406,10.418-9.607.083-.677.24-2.91-1.154-3.173-4.492-.847-9.536,5.748-10.686,8.756a3.488,3.488,0,0,0-.146,2.921A2.677,2.677,0,0,0,574.123,188.416Z" transform="translate(-569.346 -172.609)" fill="#2f2f2f"/>
          </g>
        </g>
      </g>
    </g>
  </g>
</svg>
