<svg xmlns="http://www.w3.org/2000/svg" width="72.891" height="72.892" viewBox="0 0 72.891 72.892">
  <g id="Grupo_128087" data-name="Grupo 128087" transform="translate(-1022 -8687.031)">
    <g id="Grupo_113833" data-name="Grupo 113833" transform="translate(1022 8687.031)">
      <circle id="Elipse_5080" data-name="Elipse 5080" cx="36.446" cy="36.446" r="36.446" fill="#ff6148"/>
      <circle id="Elipse_5081" data-name="Elipse 5081" cx="31.431" cy="31.431" r="31.431" transform="translate(5.015 5.015)" fill="#fff"/>
    </g>
    <path id="Trazado_172605" data-name="Trazado 172605" d="M-6.648-6.047A2.253,2.253,0,0,0-7.5-7.922a10.584,10.584,0,0,0-2.992-1.391,28.706,28.706,0,0,1-3.5-1.391q-4.422-2.172-4.422-5.969a5.352,5.352,0,0,1,1.1-3.336,7.125,7.125,0,0,1,3.117-2.25,12.131,12.131,0,0,1,4.531-.8,10.611,10.611,0,0,1,4.4.875A6.964,6.964,0,0,1-2.242-19.7,6.508,6.508,0,0,1-1.164-16H-6.633a2.75,2.75,0,0,0-.852-2.156,3.319,3.319,0,0,0-2.3-.766,3.743,3.743,0,0,0-2.32.648,1.989,1.989,0,0,0-.852,1.648,2,2,0,0,0,.938,1.586,11.823,11.823,0,0,0,3.3,1.469,20.2,20.2,0,0,1,3.875,1.633A6.512,6.512,0,0,1-1.164-6.078a5.555,5.555,0,0,1-2.25,4.688A10.008,10.008,0,0,1-9.586.313,12.245,12.245,0,0,1-14.594-.68,7.55,7.55,0,0,1-17.969-3.4,7.084,7.084,0,0,1-19.1-7.375h5.5a3.489,3.489,0,0,0,.945,2.7,4.468,4.468,0,0,0,3.07.867A3.53,3.53,0,0,0-7.437-4.4,1.934,1.934,0,0,0-6.648-6.047ZM19.508-18.516H12.68V0H7.2V-18.516H.492V-22.75H19.508Z" transform="translate(1059 8735)" fill="#12263f"/>
  </g>
</svg>
