<svg id="Grupo_23494" data-name="Grupo 23494" xmlns="http://www.w3.org/2000/svg" xmlns:xlink="http://www.w3.org/1999/xlink" width="256.187" height="176.76" viewBox="0 0 256.187 176.76">
  <defs>
    <linearGradient id="linear-gradient" y1="0.5" x2="1" y2="0.5" gradientUnits="objectBoundingBox">
      <stop offset="0" stop-color="#edf8fc"/>
      <stop offset="1" stop-color="#f7fdff"/>
    </linearGradient>
    <linearGradient id="linear-gradient-2" x1="0.193" y1="0.183" x2="0.667" y2="0.892" gradientUnits="objectBoundingBox">
      <stop offset="0" stop-color="#dfeff5"/>
      <stop offset="1" stop-color="#edf8fc"/>
    </linearGradient>
  </defs>
  <path id="Trazado_6554" data-name="Trazado 6554" d="M432.873,731.3l-95.437-55.1-64.173,37.05L245.8,697.4l-69.116,39.9,95.436,55.1,64.173-37.05,27.462,15.855Z" transform="translate(-176.686 -642.651)" fill="#abcfed" style="mix-blend-mode: multiply;isolation: isolate"/>
  <path id="Trazado_6555" data-name="Trazado 6555" d="M944.638,794.049l60.9-35.163-87.225-50.36-60.9,35.163Z" transform="translate(-757.567 -670.232)" fill="#fff"/>
  <g id="Grupo_23477" data-name="Grupo 23477" transform="translate(99.846 5.592)">
    <path id="Trazado_6556" data-name="Trazado 6556" d="M944.639,571.091l60.9-35.163-87.225-50.36-60.9,35.163Z" transform="translate(-857.414 -485.568)" fill="url(#linear-gradient)"/>
    <g id="Grupo_23476" data-name="Grupo 23476" transform="translate(24.132 13.104)" opacity="0.6">
      <path id="Trazado_6557" data-name="Trazado 6557" d="M1307.7,808.955l30.811-17.831-1.9-1.1L1305.8,807.856Z" transform="translate(-1264.167 -758.473)" fill="#1acffe"/>
      <path id="Trazado_6558" data-name="Trazado 6558" d="M1281.9,746.44l45.2-26.1-1.9-1.1-45.2,26.1Z" transform="translate(-1242.147 -698.076)" fill="#1acffe"/>
      <path id="Trazado_6559" data-name="Trazado 6559" d="M1256.094,732.007l45.2-26.1-1.9-1.1-45.2,26.1Z" transform="translate(-1220.126 -685.76)" fill="#1acffe"/>
      <path id="Trazado_6560" data-name="Trazado 6560" d="M1204.483,724.578l38.8-22.411-1.9-1.1-38.8,22.411Z" transform="translate(-1176.086 -682.564)" fill="#1acffe"/>
      <path id="Trazado_6561" data-name="Trazado 6561" d="M1178.678,688.706l45.2-26.1-1.9-1.1-45.2,26.1Z" transform="translate(-1154.066 -648.81)" fill="#1acffe"/>
      <path id="Trazado_6562" data-name="Trazado 6562" d="M1152.873,674.273l45.2-26.1-1.9-1.1-45.2,26.1Z" transform="translate(-1132.045 -636.494)" fill="#1acffe"/>
      <path id="Trazado_6563" data-name="Trazado 6563" d="M1101.262,687.561l32.64-18.85-1.9-1.1-32.64,18.85Z" transform="translate(-1088.005 -654.016)" fill="#1acffe"/>
      <path id="Trazado_6564" data-name="Trazado 6564" d="M1075.457,630.972l45.2-26.1-1.9-1.1-45.2,26.1Z" transform="translate(-1065.984 -599.545)" fill="#1acffe"/>
      <path id="Trazado_6565" data-name="Trazado 6565" d="M1049.651,616.539l45.2-26.1-1.9-1.1-45.2,26.1Z" transform="translate(-1043.964 -587.228)" fill="#1acffe"/>
      <path id="Trazado_6566" data-name="Trazado 6566" d="M1023.846,602.106l45.2-26.1-1.9-1.1-45.2,26.1Z" transform="translate(-1021.944 -574.912)" fill="#1acffe"/>
    </g>
  </g>
  <path id="Trazado_6567" data-name="Trazado 6567" d="M1273.315,995.968l-30.73-17.742V945.153l30.73,17.742Z" transform="translate(-1086.244 -872.151)" fill="#dfeff5"/>
  <path id="Trazado_6568" data-name="Trazado 6568" d="M1513,826.38v33.073l-60.9,35.163V861.544Z" transform="translate(-1265.026 -770.8)" fill="#d6e6ed"/>
  <path id="Trazado_6569" data-name="Trazado 6569" d="M888.257,790.782V850.15l-60.9,35.163V825.945Z" transform="translate(-731.916 -740.422)" fill="#d6e6ed"/>
  <path id="Trazado_6570" data-name="Trazado 6570" d="M232.668,687.175v59.369l87.225,50.36V737.534Z" transform="translate(-224.456 -652.012)" fill="#dfeff5"/>
  <path id="Trazado_6571" data-name="Trazado 6571" d="M634.913,958.3l-33.078-17.473,33.078,20.906Z" transform="translate(-539.476 -868.464)" fill="#9fb2c0"/>
  <path id="Trazado_6572" data-name="Trazado 6572" d="M634.913,959.929v1.808l-33.078-20.906Z" transform="translate(-539.476 -868.464)" fill="#fff"/>
  <path id="Trazado_6573" data-name="Trazado 6573" d="M827.352,1013.827l16.485-7.93-16.485,11.362Z" transform="translate(-731.916 -923.986)" fill="#9fb2c0"/>
  <path id="Trazado_6574" data-name="Trazado 6574" d="M827.352,1017.26l16.485-11.362-16.485,9.554Z" transform="translate(-731.916 -923.986)" fill="#fff"/>
  <path id="Trazado_6575" data-name="Trazado 6575" d="M232.668,747.323l23.073,13.912-23.073-11.807Z" transform="translate(-224.456 -703.338)" fill="#fff"/>
  <path id="Trazado_6576" data-name="Trazado 6576" d="M232.668,747.323v1.121l23.073,12.792Z" transform="translate(-224.456 -703.338)" fill="#9fb2c0"/>
  <path id="Trazado_6577" data-name="Trazado 6577" d="M1117.554,856.839l-21.491,14.279,21.491-11.327Z" transform="translate(-961.213 -796.791)" fill="#fff"/>
  <path id="Trazado_6578" data-name="Trazado 6578" d="M1119.492,856.839,1098.333,870.9l21.158-12.547Z" transform="translate(-963.151 -796.791)" fill="#9fb2c0"/>
  <path id="Trazado_6579" data-name="Trazado 6579" d="M311.075,960.088l-28.283-9.628-8.314-2.833-8.181-2.787,5.841-7.237,5.435,3.141,12.692,7.329Z" transform="translate(-253.153 -865.71)" fill="#fff"/>
  <path id="Trazado_6580" data-name="Trazado 6580" d="M318.95,1012.168l-43.427-8.477,3.692-5.052Z" transform="translate(-261.026 -917.792)" fill="#d0eaff" style="mix-blend-mode: multiply;isolation: isolate"/>
  <path id="Trazado_6581" data-name="Trazado 6581" d="M254.145,907.859l69.493,40.122L270.62,916.046Z" transform="translate(-242.784 -840.327)" fill="#9fb2c0"/>
  <path id="Trazado_6582" data-name="Trazado 6582" d="M894.119,1064.518l20.659,7.015,19.707-30.32Z" transform="translate(-788.89 -954.122)" fill="#fff"/>
  <path id="Trazado_6583" data-name="Trazado 6583" d="M855.751,1042.728l53.415-30.858-30.554,16.385Z" transform="translate(-756.149 -929.082)" fill="#9fb2c0"/>
  <path id="Trazado_6584" data-name="Trazado 6584" d="M894.119,1200.1l15.875,9.966,1.929-3.921Z" transform="translate(-788.89 -1089.707)" fill="#d0eaff" style="mix-blend-mode: multiply;isolation: isolate"/>
  <g id="Grupo_23478" data-name="Grupo 23478" transform="translate(23.289 92.475)">
    <path id="Trazado_6585" data-name="Trazado 6585" d="M335.469,1077.92l34.634,20-21.882-11.522Z" transform="translate(-335.469 -1077.92)" fill="#fff"/>
    <path id="Trazado_6586" data-name="Trazado 6586" d="M335.469,1077.92l16.244,8.339,18.39,11.657Z" transform="translate(-335.469 -1077.92)" fill="#9fb2c0"/>
  </g>
  <path id="Trazado_6587" data-name="Trazado 6587" d="M737.626,1310.106l13.248,7.649,9.2-5.311-9.287,4.373Z" transform="translate(-655.35 -1183.575)" fill="#9fb2c0"/>
  <path id="Trazado_6588" data-name="Trazado 6588" d="M737.626,1310.106l13.161,8.456,9.287-6.119-9.2,5.311Z" transform="translate(-655.35 -1183.575)" fill="#fff"/>
  <path id="Trazado_6589" data-name="Trazado 6589" d="M1185.451,1130.053l-9.82,5.67,9.82-6.852Z" transform="translate(-1029.11 -1028.923)" fill="#9fb2c0"/>
  <path id="Trazado_6590" data-name="Trazado 6590" d="M1175.63,1142.6l9.82-4.942v-.728Z" transform="translate(-1029.11 -1035.8)" fill="#fff"/>
  <path id="Trazado_6591" data-name="Trazado 6591" d="M1390.424,1189.742l9.046,5.691,11.857-7.344-11.839,6.527Z" transform="translate(-1212.398 -1079.455)" fill="#9fb2c0"/>
  <path id="Trazado_6592" data-name="Trazado 6592" d="M1390.424,1189.742l9.065,6.457,11.839-8.109-11.857,7.344Z" transform="translate(-1212.398 -1079.455)" fill="#fff"/>
  <path id="Trazado_6593" data-name="Trazado 6593" d="M1782.453,946.533l-14.589,9.024,14.589-10.4Z" transform="translate(-1534.478 -872.151)" fill="#9fb2c0"/>
  <path id="Trazado_6594" data-name="Trazado 6594" d="M1782.453,954.566v1.2l-14.589,7.827Z" transform="translate(-1534.478 -880.184)" fill="#fff"/>
  <path id="Trazado_6595" data-name="Trazado 6595" d="M1560.952,987.13l19.272-13.1,8-3.87Z" transform="translate(-1357.914 -893.493)" fill="#9fb2c0"/>
  <path id="Trazado_6596" data-name="Trazado 6596" d="M1588.221,970.163l-10.521,7.549-16.749,9.418Z" transform="translate(-1357.914 -893.493)" fill="#fff"/>
  <path id="Trazado_6597" data-name="Trazado 6597" d="M1242.585,1056.383v.729l12.08,6.8Z" transform="translate(-1086.244 -967.067)" fill="#fff"/>
  <path id="Trazado_6598" data-name="Trazado 6598" d="M1254.663,1059.478l-12.08-8.291v.762Z" transform="translate(-1086.243 -962.633)" fill="#9fb2c0"/>
  <path id="Trazado_6599" data-name="Trazado 6599" d="M1242.585,945.153l3.3,1.9V980.13l-3.3-1.9Z" transform="translate(-1086.244 -872.151)" fill="#d0eaff" style="mix-blend-mode: multiply;isolation: isolate"/>
  <path id="Trazado_6600" data-name="Trazado 6600" d="M898.655,790.782l-59.108,34.125s-.385,41.942,3.779,57.187a143.338,143.338,0,0,0,48.686,35.088l56.982-33.161L900.3,855.569Z" transform="translate(-742.314 -740.423)" fill="#abcfed" style="mix-blend-mode: multiply;isolation: isolate"/>
  <path id="Trazado_6601" data-name="Trazado 6601" d="M905.778,925.571l-12.292-7.1c-27.62-15.946-37.735-36.591-37.735-84.028l57.037-32.932c0,47.437,10.116,68.082,37.735,84.028l12.292,7.1Z" transform="translate(-756.149 -749.582)" fill="url(#linear-gradient-2)"/>
  <g id="Grupo_23481" data-name="Grupo 23481" transform="translate(141.492 136.478)">
    <g id="Grupo_23479" data-name="Grupo 23479" transform="translate(0 0)">
      <path id="Trazado_6602" data-name="Trazado 6602" d="M1149.394,1404.472a11.423,11.423,0,0,1-5.559-1.385c-1.58-.913-2.486-2.142-2.486-3.374a3.131,3.131,0,0,1,1.8-2.647l31.448-18.156c2.528-1.46,6.95-1.282,9.858.4,1.58.913,2.486,2.142,2.486,3.373a3.13,3.13,0,0,1-1.8,2.648l-31.448,18.157A8.769,8.769,0,0,1,1149.394,1404.472Zm29.5-25.99a8.184,8.184,0,0,0-4.014.921l-31.448,18.156a2.591,2.591,0,0,0-1.514,2.153c0,1.023.8,2.072,2.2,2.88,2.75,1.588,6.916,1.766,9.288.4l31.448-18.156a2.592,2.592,0,0,0,1.514-2.154c0-1.022-.8-2.072-2.2-2.879A10.839,10.839,0,0,0,1178.895,1378.482Z" transform="translate(-1141.348 -1377.921)" fill="#8dbe02"/>
    </g>
    <g id="Grupo_23480" data-name="Grupo 23480" transform="translate(10.953 5.02)">
      <path id="Trazado_6603" data-name="Trazado 6603" d="M1218.171,1501.458l.778.891-.493.284-2.436-2.854.575-.332,4.948,1.4-.509.294-1.554-.443Zm.838-.913-1.423-.4c-.323-.092-.6-.187-.865-.278l-.011.007c.164.158.328.322.482.493l.706.825Z" transform="translate(-1216.02 -1486.643)" fill="#8dbe02"/>
      <path id="Trazado_6604" data-name="Trazado 6604" d="M1232.513,1486.767a6.5,6.5,0,0,1,.843-.569,2.883,2.883,0,0,1,1.341-.42,2.041,2.041,0,0,1,1.095.259c.334.193.5.4.5.619.017.3-.257.616-.722.885a2.478,2.478,0,0,1-.416.2l1.478.854-.476.275Zm2.255.752a2.433,2.433,0,0,0,.433-.205c.574-.332.646-.7.137-.989a1.565,1.565,0,0,0-1.593.085,2.3,2.3,0,0,0-.411.281Z" transform="translate(-1230.094 -1474.977)" fill="#8dbe02"/>
      <path id="Trazado_6605" data-name="Trazado 6605" d="M1252.364,1475.306a6.5,6.5,0,0,1,.843-.569,2.882,2.882,0,0,1,1.341-.421,2.04,2.04,0,0,1,1.095.259c.334.193.5.4.5.62.017.3-.257.616-.723.885a2.5,2.5,0,0,1-.416.2l1.477.853-.476.275Zm2.255.752a2.433,2.433,0,0,0,.432-.206c.575-.332.646-.7.137-.989a1.565,1.565,0,0,0-1.593.085,2.277,2.277,0,0,0-.411.281Z" transform="translate(-1247.033 -1465.196)" fill="#8dbe02"/>
      <path id="Trazado_6606" data-name="Trazado 6606" d="M1272.254,1463.724a5.745,5.745,0,0,1,.837-.572,2.836,2.836,0,0,1,1.369-.442,1.883,1.883,0,0,1,.991.237c.487.281.5.645.247.945l.016.01a2.1,2.1,0,0,1,1.286.117,11.132,11.132,0,0,0,1.3.42l-.493.285a9.082,9.082,0,0,1-1.128-.367,1.576,1.576,0,0,0-1.456.013l-.449.259,1.6.923-.476.275Zm2.156.695.487-.281c.509-.294.553-.641.131-.884a1.516,1.516,0,0,0-1.538.091,2.215,2.215,0,0,0-.427.3Z" transform="translate(-1264.006 -1455.291)" fill="#8dbe02"/>
      <path id="Trazado_6607" data-name="Trazado 6607" d="M1301.338,1449.47c1.27.734,1.171,1.568.23,2.111a3.683,3.683,0,0,1-3.531-.123c-1.171-.676-1.209-1.539-.224-2.108A3.653,3.653,0,0,1,1301.338,1449.47Zm-2.8,1.688a2.867,2.867,0,0,0,2.671.183c.755-.436.487-1.084-.35-1.568a2.881,2.881,0,0,0-2.677-.186C1297.392,1450.042,1297.726,1450.69,1298.536,1451.157Z" transform="translate(-1285.219 -1443.554)" fill="#8dbe02"/>
      <path id="Trazado_6608" data-name="Trazado 6608" d="M1320.022,1435.684l-4.893-1.435.515-.3,2.392.717c.657.2,1.242.376,1.773.569l.011-.006a13.472,13.472,0,0,1-.952-1.036l-1.2-1.413.509-.294,2.37,2.892Z" transform="translate(-1300.592 -1429.505)" fill="#8dbe02"/>
      <path id="Trazado_6609" data-name="Trazado 6609" d="M1342.507,1424.254l-1.434.828,1.33.768,1.6-.923.4.231-2.074,1.2-3.689-2.13,1.993-1.151.4.231-1.516.875,1.166.673,1.434-.828Z" transform="translate(-1320.652 -1421.472)" fill="#8dbe02"/>
      <path id="Trazado_6610" data-name="Trazado 6610" d="M1357.332,1413.372a8.036,8.036,0,0,1,.936-.629,4.046,4.046,0,0,1,1.954-.6,3.443,3.443,0,0,1,1.845.464c.6.348.909.74.9,1.135s-.383.834-1.1,1.248c-.339.2-.641.351-.908.474Zm3.739,1.609a4.34,4.34,0,0,0,.509-.262c1.018-.588,1-1.235.006-1.811a2.814,2.814,0,0,0-2.917.041,3.1,3.1,0,0,0-.509.351Z" transform="translate(-1336.605 -1412.145)" fill="#8dbe02"/>
    </g>
  </g>
  <g id="Grupo_23482" data-name="Grupo 23482" transform="translate(106.956 69.986)">
    <path id="Trazado_6611" data-name="Trazado 6611" d="M1074.852,1370.451a29.368,29.368,0,0,0,4.224,4.491l5.585-3.225a19.746,19.746,0,0,1-4.327-4.431Z" transform="translate(-1050.069 -1302.354)" fill="#ffa101"/>
    <path id="Trazado_6612" data-name="Trazado 6612" d="M1042.744,1135.343s3.957,21.491,18.191,33.452l5.353-3.091a67.319,67.319,0,0,1-17.7-33.735Z" transform="translate(-1022.671 -1101.552)" fill="#8dbe02"/>
    <path id="Trazado_6613" data-name="Trazado 6613" d="M1149.849,1219.654a59.173,59.173,0,0,0,11.256,16.039l5.62-3.245s-7.074-7.613-11.071-16.146Z" transform="translate(-1114.066 -1173.516)" fill="#1acffe"/>
    <path id="Trazado_6614" data-name="Trazado 6614" d="M1184.145,1100.805a59.152,59.152,0,0,0,15.546,28.346l5.367-3.1s-12.648-13.771-15.63-28.3Z" transform="translate(-1143.332 -1072.357)" fill="#f9a902"/>
    <path id="Trazado_6615" data-name="Trazado 6615" d="M1065.182,1333.6l1.693,1.5,41.563-24-1.724-1.478Z" transform="translate(-1041.818 -1253.147)" fill="#1acffe"/>
    <path id="Trazado_6616" data-name="Trazado 6616" d="M1088.018,1354.169l1.678,1.308,41.251-23.817-1.678-1.308Z" transform="translate(-1061.304 -1270.838)" fill="#1acffe"/>
    <path id="Trazado_6617" data-name="Trazado 6617" d="M908.02,993.864l.17,3.242,42.358-24.455-.319-3.156Z" transform="translate(-907.707 -962.909)" fill="#1acffe"/>
    <path id="Trazado_6618" data-name="Trazado 6618" d="M905.887,948.777v3.34l41.887-24.184v-3.34Z" transform="translate(-905.887 -924.594)" fill="#1acffe"/>
    <path id="Trazado_6619" data-name="Trazado 6619" d="M959.9,1308.768l-5.78,3.328c2.822,6.14,7.012,12.935,13.055,18.013l5.353-3.09A66.112,66.112,0,0,1,959.9,1308.768Z" transform="translate(-947.05 -1252.419)" fill="#fd206d"/>
  </g>
  <g id="Grupo_23493" data-name="Grupo 23493" transform="translate(8.209 0)">
    <path id="Trazado_6620" data-name="Trazado 6620" d="M319.876,532.966l60.9-35.162-87.226-50.36-60.9,35.163Z" transform="translate(-232.65 -447.443)" fill="url(#linear-gradient)"/>
    <g id="Grupo_23492" data-name="Grupo 23492" transform="translate(32.535 17.956)" opacity="0.6">
      <g id="Grupo_23483" data-name="Grupo 23483" transform="translate(35.324 19.78)">
        <path id="Trazado_6621" data-name="Trazado 6621" d="M748.811,808.86l30.811-17.831-1.9-1.1-30.811,17.831Z" transform="translate(-739.339 -777.432)" fill="#1acffe"/>
        <path id="Trazado_6622" data-name="Trazado 6622" d="M723.006,746.346l45.2-26.1-1.9-1.1-45.2,26.1Z" transform="translate(-717.318 -717.035)" fill="#1acffe"/>
        <path id="Trazado_6623" data-name="Trazado 6623" d="M697.2,731.912l45.2-26.1-1.9-1.1-45.2,26.1Z" transform="translate(-695.298 -704.718)" fill="#1acffe"/>
      </g>
      <g id="Grupo_23491" data-name="Grupo 23491">
        <path id="Trazado_6624" data-name="Trazado 6624" d="M533.788,682.511l32.64-18.849-1.9-1.1-32.64,18.85Z" transform="translate(-520.53 -648.967)" fill="#1acffe"/>
        <path id="Trazado_6625" data-name="Trazado 6625" d="M507.982,625.924l45.2-26.1-1.9-1.1-45.2,26.1Z" transform="translate(-498.51 -594.496)" fill="#1acffe"/>
        <path id="Trazado_6626" data-name="Trazado 6626" d="M482.177,611.49l45.2-26.1-1.9-1.1-45.2,26.1Z" transform="translate(-476.49 -582.179)" fill="#1acffe"/>
        <path id="Trazado_6627" data-name="Trazado 6627" d="M456.372,597.057l45.2-26.1-1.9-1.1-45.2,26.1Z" transform="translate(-454.469 -569.863)" fill="#1acffe"/>
        <path id="Trazado_6628" data-name="Trazado 6628" d="M475.227,595.82l-1.9-1.1,24.2-13.972,1.9,1.1Z" transform="translate(-470.559 -579.153)" fill="#1acffe"/>
        <path id="Trazado_6629" data-name="Trazado 6629" d="M636.05,841a2.869,2.869,0,0,1,2.6,0,.791.791,0,0,1,0,1.5,2.869,2.869,0,0,1-2.6,0A.791.791,0,0,1,636.05,841Z" transform="translate(-608.958 -800.964)" fill="#1acffe"/>
        <ellipse id="Elipse_1315" data-name="Elipse 1315" cx="1.835" cy="1.06" rx="1.835" ry="1.06" transform="translate(30.175 31.988)" fill="#1acffe"/>
        <path id="Trazado_6630" data-name="Trazado 6630" d="M760.919,779.122a2.869,2.869,0,0,1,2.6,0,.791.791,0,0,1,0,1.5,2.869,2.869,0,0,1-2.6,0A.791.791,0,0,1,760.919,779.122Z" transform="translate(-715.512 -748.164)" fill="#1acffe"/>
        <path id="Trazado_6631" data-name="Trazado 6631" d="M782.6,724.653a2.868,2.868,0,0,1,2.6,0,.791.791,0,0,1,0,1.5,2.869,2.869,0,0,1-2.6,0A.791.791,0,0,1,782.6,724.653Z" transform="translate(-734.011 -701.684)" fill="#1acffe"/>
        <ellipse id="Elipse_1316" data-name="Elipse 1316" cx="1.835" cy="1.06" rx="1.835" ry="1.06" transform="translate(55.26 16.996)" fill="#1acffe"/>
        <path id="Trazado_6632" data-name="Trazado 6632" d="M856.219,633.189a2.869,2.869,0,0,1,2.6,0,.791.791,0,0,1,0,1.5,2.869,2.869,0,0,1-2.6,0A.791.791,0,0,1,856.219,633.189Z" transform="translate(-796.834 -623.635)" fill="#1acffe"/>
        <g id="Grupo_23489" data-name="Grupo 23489" transform="translate(28 9.918)" opacity="0.3">
          <g id="Grupo_23484" data-name="Grupo 23484" transform="translate(28.745)">
            <path id="Trazado_6633" data-name="Trazado 6633" d="M850.962,651.286l-9.617-5.552,3.817-8.249,14.581,8.418-.271.471L845.4,638.253l-3.358,7.259,9.187,5.3Z" transform="translate(-841.345 -637.485)" fill="#1acffe"/>
          </g>
          <g id="Grupo_23485" data-name="Grupo 23485" transform="translate(21.402 7.924)">
            <path id="Trazado_6634" data-name="Trazado 6634" d="M799.728,702.3l-8.452-4.88,7.527-5.91.336.427-6.895,5.414L800,701.828Z" transform="translate(-791.276 -691.509)" fill="#1acffe"/>
          </g>
          <g id="Grupo_23486" data-name="Grupo 23486" transform="translate(18.57 21.554)">
            <rect id="Rectángulo_5823" data-name="Rectángulo 5823" width="0.543" height="3.204" transform="translate(0 0.471) rotate(-60)" fill="#1acffe"/>
          </g>
          <g id="Grupo_23487" data-name="Grupo 23487" transform="translate(3.875 22.894)">
            <rect id="Rectángulo_5824" data-name="Rectángulo 5824" width="0.543" height="10.347" transform="matrix(0.5, -0.866, 0.866, 0.5, 0, 0.471)" fill="#1acffe"/>
          </g>
          <g id="Grupo_23488" data-name="Grupo 23488" transform="translate(0 30.482)">
            <rect id="Rectángulo_5825" data-name="Rectángulo 5825" width="0.543" height="4.997" transform="matrix(0.5, -0.866, 0.866, 0.5, 0, 0.471)" fill="#1acffe"/>
          </g>
        </g>
        <g id="Grupo_23490" data-name="Grupo 23490" transform="translate(27.894 23.618)" opacity="0.3">
          <path id="Trazado_6635" data-name="Trazado 6635" d="M645.126,748.025l-.484-.247,3.943-7.721,14.678-1.339,3.118-7.834.505.2-3.241,8.144-14.712,1.342Z" transform="translate(-644.642 -730.883)" fill="#1acffe"/>
        </g>
      </g>
    </g>
  </g>
</svg>
