<svg xmlns="http://www.w3.org/2000/svg" width="400" height="261" viewBox="0 0 400 261">
  <g id="Grupo_128085" data-name="Grupo 128085" transform="translate(-180 -16887)">
    <path id="Trazado_172610" data-name="Trazado 172610" d="M10,0H390a10,10,0,0,1,10,10V251a10,10,0,0,1-10,10H10A10,10,0,0,1,0,251V10A10,10,0,0,1,10,0Z" transform="translate(180 16887)" fill="#ffe7e3"/>
    <path id="Trazado_172611" data-name="Trazado 172611" d="M11.188-4.263A4.528,4.528,0,0,1,9.664-1.011,5.355,5.355,0,0,1,6.038.176,4.816,4.816,0,0,1,2.167-1.481,6.793,6.793,0,0,1,.756-6.029v-.782a7.671,7.671,0,0,1,.65-3.252,4.874,4.874,0,0,1,1.859-2.158,5.207,5.207,0,0,1,2.808-.751,5.217,5.217,0,0,1,3.568,1.187,4.866,4.866,0,0,1,1.564,3.331H8.569a2.673,2.673,0,0,0-.69-1.8,2.555,2.555,0,0,0-1.806-.558A2.24,2.24,0,0,0,4.1-9.866a5.3,5.3,0,0,0-.672,2.931v.967a5.667,5.667,0,0,0,.628,3.032,2.2,2.2,0,0,0,1.982.958,2.6,2.6,0,0,0,1.824-.558,2.521,2.521,0,0,0,.69-1.727ZM18.264,0a2.821,2.821,0,0,1-.255-.853,3.073,3.073,0,0,1-2.4,1.028,3.376,3.376,0,0,1-2.316-.809,2.6,2.6,0,0,1-.918-2.039A2.687,2.687,0,0,1,13.5-4.992a5.529,5.529,0,0,1,3.239-.817H17.9v-.545a1.567,1.567,0,0,0-.338-1.055A1.331,1.331,0,0,0,16.5-7.8a1.513,1.513,0,0,0-1.006.308,1.045,1.045,0,0,0-.365.844h-2.54a2.551,2.551,0,0,1,.51-1.529,3.37,3.37,0,0,1,1.441-1.1,5.253,5.253,0,0,1,2.092-.4,4.15,4.15,0,0,1,2.791.883,3.09,3.09,0,0,1,1.033,2.483V-2.2A4.546,4.546,0,0,0,20.83-.149V0Zm-2.1-1.767a2.188,2.188,0,0,0,1.037-.25,1.645,1.645,0,0,0,.7-.672V-4.324h-.949q-1.907,0-2.03,1.318l-.009.149a1.017,1.017,0,0,0,.334.782A1.3,1.3,0,0,0,16.163-1.767Zm11.391-.861a.818.818,0,0,0-.461-.734,5.241,5.241,0,0,0-1.481-.479q-3.393-.712-3.393-2.883a2.613,2.613,0,0,1,1.05-2.114,4.237,4.237,0,0,1,2.747-.848,4.56,4.56,0,0,1,2.9.853A2.687,2.687,0,0,1,30-6.618h-2.54a1.229,1.229,0,0,0-.352-.9,1.488,1.488,0,0,0-1.1-.356,1.52,1.52,0,0,0-.993.29.916.916,0,0,0-.352.738.783.783,0,0,0,.4.681,4.114,4.114,0,0,0,1.349.448,11.019,11.019,0,0,1,1.6.426,2.628,2.628,0,0,1,2.013,2.558,2.481,2.481,0,0,1-1.116,2.1,4.815,4.815,0,0,1-2.883.8A5.029,5.029,0,0,1,23.9-.25a3.561,3.561,0,0,1-1.455-1.169,2.716,2.716,0,0,1-.527-1.6h2.408a1.326,1.326,0,0,0,.5,1.037,1.987,1.987,0,0,0,1.248.36,1.839,1.839,0,0,0,1.1-.277A.861.861,0,0,0,27.554-2.628Zm3.709-2.215a5.64,5.64,0,0,1,.545-2.522,3.989,3.989,0,0,1,1.569-1.714,4.577,4.577,0,0,1,2.377-.606A4.33,4.33,0,0,1,38.9-8.508a4.727,4.727,0,0,1,1.358,3.2l.018.65A4.97,4.97,0,0,1,39.05-1.147,4.247,4.247,0,0,1,35.771.176a4.268,4.268,0,0,1-3.283-1.318,5.058,5.058,0,0,1-1.226-3.586Zm2.54.18a3.555,3.555,0,0,0,.51,2.073,1.682,1.682,0,0,0,1.459.717,1.686,1.686,0,0,0,1.441-.709,3.89,3.89,0,0,0,.519-2.267,3.519,3.519,0,0,0-.519-2.06,1.686,1.686,0,0,0-1.459-.731,1.658,1.658,0,0,0-1.441.726A3.955,3.955,0,0,0,33.8-4.662Zm12.12-.163a5.731,5.731,0,0,1,1-3.542,3.237,3.237,0,0,1,2.729-1.318,2.913,2.913,0,0,1,2.294,1.037V-13.5h2.549V0H52.2l-.123-1.011A2.989,2.989,0,0,1,49.632.176a3.228,3.228,0,0,1-2.694-1.323A5.916,5.916,0,0,1,45.923-4.825Zm2.54.189a3.754,3.754,0,0,0,.466,2.051,1.517,1.517,0,0,0,1.354.713,1.7,1.7,0,0,0,1.661-.995V-6.625A1.675,1.675,0,0,0,50.3-7.62Q48.463-7.62,48.463-4.636ZM60.838.176a4.668,4.668,0,0,1-3.406-1.283,4.561,4.561,0,0,1-1.314-3.419v-.246a5.745,5.745,0,0,1,.554-2.562,4.064,4.064,0,0,1,1.569-1.74,4.4,4.4,0,0,1,2.316-.611,3.947,3.947,0,0,1,3.072,1.23,5,5,0,0,1,1.121,3.489v1.037H58.693a2.36,2.36,0,0,0,.743,1.494A2.245,2.245,0,0,0,61-1.872,2.742,2.742,0,0,0,63.3-2.936l1.248,1.4A3.813,3.813,0,0,1,63-.277,5.075,5.075,0,0,1,60.838.176Zm-.29-7.813a1.587,1.587,0,0,0-1.226.512,2.651,2.651,0,0,0-.6,1.466h3.533v-.2A1.891,1.891,0,0,0,61.8-7.174,1.638,1.638,0,0,0,60.548-7.638ZM76.368-.967a3.185,3.185,0,0,1-2.6,1.143A3,3,0,0,1,71.433-.7a3.752,3.752,0,0,1-.822-2.575V-9.51h2.54v6.151q0,1.487,1.354,1.487a1.834,1.834,0,0,0,1.775-.9V-9.51h2.549V0H76.438ZM85.9-2.628a.818.818,0,0,0-.461-.734,5.241,5.241,0,0,0-1.481-.479q-3.393-.712-3.393-2.883a2.613,2.613,0,0,1,1.05-2.114,4.237,4.237,0,0,1,2.747-.848,4.56,4.56,0,0,1,2.9.853,2.687,2.687,0,0,1,1.085,2.215H85.8a1.229,1.229,0,0,0-.352-.9,1.488,1.488,0,0,0-1.1-.356,1.52,1.52,0,0,0-.993.29A.916.916,0,0,0,83-6.847a.783.783,0,0,0,.4.681,4.114,4.114,0,0,0,1.349.448,11.019,11.019,0,0,1,1.6.426,2.628,2.628,0,0,1,2.013,2.558,2.481,2.481,0,0,1-1.116,2.1,4.815,4.815,0,0,1-2.883.8A5.029,5.029,0,0,1,82.244-.25a3.561,3.561,0,0,1-1.455-1.169,2.716,2.716,0,0,1-.527-1.6H82.67a1.326,1.326,0,0,0,.5,1.037,1.987,1.987,0,0,0,1.248.36,1.839,1.839,0,0,0,1.1-.277A.861.861,0,0,0,85.9-2.628ZM89.6-4.843a5.64,5.64,0,0,1,.545-2.522,3.989,3.989,0,0,1,1.569-1.714A4.577,4.577,0,0,1,94.1-9.686a4.33,4.33,0,0,1,3.142,1.178,4.727,4.727,0,0,1,1.358,3.2l.018.65a4.97,4.97,0,0,1-1.222,3.511A4.247,4.247,0,0,1,94.113.176a4.268,4.268,0,0,1-3.283-1.318A5.058,5.058,0,0,1,89.6-4.729Zm2.54.18a3.555,3.555,0,0,0,.51,2.073,1.682,1.682,0,0,0,1.459.717,1.686,1.686,0,0,0,1.441-.709,3.89,3.89,0,0,0,.519-2.267,3.519,3.519,0,0,0-.519-2.06A1.686,1.686,0,0,0,94.1-7.638a1.658,1.658,0,0,0-1.441.726A3.955,3.955,0,0,0,92.145-4.662ZM100.3-1.248a1.279,1.279,0,0,1,.409-.984,1.45,1.45,0,0,1,1.024-.378,1.462,1.462,0,0,1,1.033.378,1.279,1.279,0,0,1,.409.984,1.261,1.261,0,0,1-.4.971A1.468,1.468,0,0,1,101.733.1a1.456,1.456,0,0,1-1.028-.374A1.261,1.261,0,0,1,100.3-1.248Zm0-7.2a1.279,1.279,0,0,1,.409-.984,1.45,1.45,0,0,1,1.024-.378,1.462,1.462,0,0,1,1.033.378,1.279,1.279,0,0,1,.409.984,1.261,1.261,0,0,1-.4.971,1.468,1.468,0,0,1-1.037.374,1.456,1.456,0,0,1-1.028-.374A1.261,1.261,0,0,1,100.3-8.446Z" transform="translate(330 17094)" fill="#00104e"/>
    <g id="Trazado_172612" data-name="Trazado 172612" transform="translate(265 16963)" fill="#fff">
      <path d="M 118.5 94.5 C 102.5872497558594 94.5 87.15359497070312 93.23812866210938 72.62774658203125 90.74946594238281 C 65.65396881103516 89.55465698242188 58.92959213256836 88.07634735107422 52.64143753051758 86.35552978515625 C 46.42324829101562 84.65390777587891 40.57899856567383 82.70090484619141 35.27099990844727 80.55084228515625 C 29.98037528991699 78.40781402587891 25.18203163146973 76.05265808105469 21.00928115844727 73.55078125 C 16.8253116607666 71.04219055175781 13.23896884918213 68.3673095703125 10.34981250762939 65.60044097900391 C 7.448124885559082 62.82152938842773 5.226406097412109 59.92703247070312 3.746343851089478 56.99731063842773 C 2.255781173706055 54.04671859741211 1.5 51.01959228515625 1.5 48 C 1.5 44.98040771484375 2.255781173706055 41.95328140258789 3.746343851089478 39.00268936157227 C 5.226406097412109 36.07296752929688 7.448124885559082 33.17847061157227 10.34981250762939 30.39956283569336 C 13.23896884918213 27.63268661499023 16.8253116607666 24.95781326293945 21.00928115844727 22.44921875 C 25.18203163146973 19.94734382629395 29.98037528991699 17.59218788146973 35.27099990844727 15.44915580749512 C 40.57899856567383 13.29909420013428 46.42324829101562 11.34609413146973 52.64143753051758 9.644468307495117 C 58.92959213256836 7.923656463623047 65.65396881103516 6.445343971252441 72.62774658203125 5.250531196594238 C 87.15359497070312 2.761874914169312 102.5872497558594 1.5 118.5 1.5 C 134.4127502441406 1.5 149.8464050292969 2.761874914169312 164.3722534179688 5.250531196594238 C 171.3460388183594 6.445343971252441 178.0704040527344 7.923656463623047 184.3585662841797 9.644468307495117 C 190.5767517089844 11.34609413146973 196.4210052490234 13.29909420013428 201.72900390625 15.44915580749512 C 207.0196228027344 17.59218788146973 211.8179626464844 19.94734382629395 215.99072265625 22.44921875 C 220.1746826171875 24.95781326293945 223.7610321044922 27.63268661499023 226.6501922607422 30.39956283569336 C 229.5518798828125 33.17847061157227 231.7735900878906 36.07296752929688 233.253662109375 39.00268936157227 C 234.7442169189453 41.95328140258789 235.5 44.98040771484375 235.5 48 C 235.5 51.01959228515625 234.7442169189453 54.04671859741211 233.253662109375 56.99731063842773 C 231.7735900878906 59.92703247070312 229.5518798828125 62.82152938842773 226.6501922607422 65.60044097900391 C 223.7610321044922 68.3673095703125 220.1746826171875 71.04219055175781 215.99072265625 73.55078125 C 211.8179626464844 76.05265808105469 207.0196228027344 78.40781402587891 201.72900390625 80.55084228515625 C 196.4210052490234 82.70090484619141 190.5767517089844 84.65390777587891 184.3585662841797 86.35552978515625 C 178.0704040527344 88.07634735107422 171.3460388183594 89.55465698242188 164.3722534179688 90.74946594238281 C 149.8464050292969 93.23812866210938 134.4127502441406 94.5 118.5 94.5 Z" stroke="none"/>
      <path d="M 118.5 3 C 102.6719055175781 3 87.32347106933594 4.254600524902344 72.88107299804688 6.728996276855469 C 65.95509338378906 7.915603637695312 59.27873229980469 9.383270263671875 53.03736877441406 11.09127044677734 C 46.87576293945312 12.77739715576172 41.0877685546875 14.71136474609375 35.83413696289062 16.83943176269531 C 30.61526489257812 18.95339965820312 25.88699340820312 21.27363586425781 21.7806396484375 23.73570251464844 C 17.69253540039062 26.18679809570312 14.19573974609375 28.7933349609375 11.38729858398438 31.48290252685547 C 5.8218994140625 36.81276702880859 3 42.36993408203125 3 48 C 3 53.63006591796875 5.8218994140625 59.18723297119141 11.38729858398438 64.51709747314453 C 14.19573974609375 67.2066650390625 17.69253540039062 69.81320190429688 21.7806396484375 72.26429748535156 C 25.88699340820312 74.72636413574219 30.61526489257812 77.04660034179688 35.83413696289062 79.16056823730469 C 41.0877685546875 81.28863525390625 46.87576293945312 83.22260284423828 53.03736877441406 84.90873718261719 C 59.27873229980469 86.61672973632812 65.95509338378906 88.08439636230469 72.88107299804688 89.27099609375 C 87.32347106933594 91.74539947509766 102.6719055175781 93 118.5 93 C 134.3280944824219 93 149.6765441894531 91.74539947509766 164.1189270019531 89.27099609375 C 171.0448913574219 88.08439636230469 177.7212677001953 86.61672973632812 183.9626312255859 84.90873718261719 C 190.1242370605469 83.22260284423828 195.9122314453125 81.28863525390625 201.1658630371094 79.16056823730469 C 206.3847351074219 77.04660034179688 211.1130065917969 74.72636413574219 215.2193603515625 72.26429748535156 C 219.3074645996094 69.81320190429688 222.8042602539062 67.2066650390625 225.6127014160156 64.51709747314453 C 231.1781005859375 59.18723297119141 234 53.63006591796875 234 48 C 234 42.36993408203125 231.1781005859375 36.81276702880859 225.6127014160156 31.48290252685547 C 222.8042602539062 28.7933349609375 219.3074645996094 26.18679809570312 215.2193603515625 23.73570251464844 C 211.1130065917969 21.27363586425781 206.3847351074219 18.95339965820312 201.1658630371094 16.83943176269531 C 195.9122314453125 14.71136474609375 190.1242370605469 12.77739715576172 183.9626312255859 11.09127044677734 C 177.7212677001953 9.383270263671875 171.0448913574219 7.915603637695312 164.1189270019531 6.728996276855469 C 149.6765441894531 4.254600524902344 134.3280944824219 3 118.5 3 M 118.5 0 C 183.9457397460938 0 237 21.49033355712891 237 48 C 237 74.50966644287109 183.9457397460938 96 118.5 96 C 53.05426025390625 96 0 74.50966644287109 0 48 C 0 21.49033355712891 53.05426025390625 0 118.5 0 Z" stroke="none" fill="#4dd0e1"/>
    </g>
  </g>
</svg>
