<svg xmlns="http://www.w3.org/2000/svg" xmlns:xlink="http://www.w3.org/1999/xlink" width="801.33" height="456.238" viewBox="0 0 801.33 456.238">
  <defs>
    <filter id="Trazado_172615" x="249.68" y="0" width="322.727" height="456.238" filterUnits="userSpaceOnUse">
      <feOffset dy="3" input="SourceAlpha"/>
      <feGaussianBlur stdDeviation="3" result="blur"/>
      <feFlood flood-opacity="0.161"/>
      <feComposite operator="in" in2="blur"/>
      <feComposite in="SourceGraphic"/>
    </filter>
  </defs>
  <g id="Grupo_128086" data-name="Grupo 128086" transform="translate(-286.694 -1667.684)">
    <path id="Trazado_172613" data-name="Trazado 172613" d="M4.461-11.375,7-3.461l2.531-7.914h3.609V0h-2.75V-2.656l.266-5.437L7.906,0H6.094L3.336-8.1,3.6-2.656V0H.859V-11.375ZM18.852.156A4.345,4.345,0,0,1,15.7-1a4.006,4.006,0,0,1-1.2-3.02v-.219a5.191,5.191,0,0,1,.48-2.289,3.516,3.516,0,0,1,1.4-1.535,4.233,4.233,0,0,1,2.188-.543A3.659,3.659,0,0,1,21.383-7.5a4.344,4.344,0,0,1,1.031,3.082V-3.4H17.18A1.9,1.9,0,0,0,17.8-2.281a1.836,1.836,0,0,0,1.234.406,2.366,2.366,0,0,0,1.953-.875l1.2,1.422A3.363,3.363,0,0,1,20.793-.246,4.713,4.713,0,0,1,18.852.156Zm-.3-6.734q-1.156,0-1.375,1.531h2.656v-.2a1.3,1.3,0,0,0-.32-.98A1.275,1.275,0,0,0,18.555-6.578Zm-.031-5.43H21.3L19.133-9.555l-2.148,0Zm4.617,7.719a5.164,5.164,0,0,1,.867-3.164A2.854,2.854,0,0,1,26.43-8.609a2.428,2.428,0,0,1,1.906.891V-12h2.641V0H28.609l-.133-.906A2.493,2.493,0,0,1,26.414.156,2.849,2.849,0,0,1,24.023-1,5.327,5.327,0,0,1,23.141-4.289Zm2.633.164q0,2.25,1.313,2.25a1.3,1.3,0,0,0,1.25-.734V-5.828a1.261,1.261,0,0,0-1.234-.75q-1.219,0-1.32,1.969ZM35.25,0H32.609V-8.453H35.25Zm-2.8-10.633a1.175,1.175,0,0,1,.406-.922,1.533,1.533,0,0,1,1.055-.359,1.533,1.533,0,0,1,1.055.359,1.175,1.175,0,0,1,.406.922,1.175,1.175,0,0,1-.406.922,1.533,1.533,0,0,1-1.055.359,1.533,1.533,0,0,1-1.055-.359A1.175,1.175,0,0,1,32.453-10.633Zm7.992,8.758a1.171,1.171,0,0,0,.859-.3,1.1,1.1,0,0,0,.3-.84H44.07a2.922,2.922,0,0,1-1,2.281,3.705,3.705,0,0,1-2.566.891A3.751,3.751,0,0,1,37.6-1a4.556,4.556,0,0,1-1.062-3.2v-.109a5.149,5.149,0,0,1,.473-2.262,3.441,3.441,0,0,1,1.363-1.508,4.065,4.065,0,0,1,2.109-.527A3.658,3.658,0,0,1,43.1-7.7a3.242,3.242,0,0,1,.969,2.477H41.6a1.445,1.445,0,0,0-.32-1.008,1.106,1.106,0,0,0-.859-.352q-1.023,0-1.2,1.3a9.206,9.206,0,0,0-.055,1.141,3.616,3.616,0,0,0,.3,1.766A1.055,1.055,0,0,0,40.445-1.875ZM44.852-4.3a4.989,4.989,0,0,1,.492-2.254,3.52,3.52,0,0,1,1.414-1.52,4.259,4.259,0,0,1,2.164-.531,3.887,3.887,0,0,1,2.992,1.176,4.512,4.512,0,0,1,1.094,3.2v.094A4.378,4.378,0,0,1,51.91-1,3.9,3.9,0,0,1,48.938.156a3.942,3.942,0,0,1-2.9-1.082,4.232,4.232,0,0,1-1.18-2.934Zm2.633.164a3.145,3.145,0,0,0,.367,1.719,1.223,1.223,0,0,0,1.086.547q1.406,0,1.438-2.164V-4.3q0-2.273-1.453-2.273-1.32,0-1.43,1.961Z" transform="translate(339.599 2015.939)" fill="#12263f"/>
    <path id="Trazado_172614" data-name="Trazado 172614" d="M3.6-3.859V0H.859V-11.375H5.4a5.287,5.287,0,0,1,2.309.48A3.621,3.621,0,0,1,9.262-9.527a3.734,3.734,0,0,1,.551,2.012,3.291,3.291,0,0,1-1.191,2.66,4.943,4.943,0,0,1-3.27,1Zm0-2.117H5.4a1.7,1.7,0,0,0,1.215-.4A1.48,1.48,0,0,0,7.031-7.5,1.83,1.83,0,0,0,6.6-8.773,1.522,1.522,0,0,0,5.43-9.258H3.6ZM15.828,0a2.973,2.973,0,0,1-.25-.758,2.448,2.448,0,0,1-2.031.914,3,3,0,0,1-2.031-.723,2.3,2.3,0,0,1-.836-1.816A2.364,2.364,0,0,1,11.7-4.461a5.174,5.174,0,0,1,2.953-.7h.813v-.448q0-1.17-1.008-1.17a.824.824,0,0,0-.937.926H10.883a2.36,2.36,0,0,1,1.043-1.99,4.383,4.383,0,0,1,2.66-.765,3.843,3.843,0,0,1,2.555.789A2.743,2.743,0,0,1,18.1-5.656v3.742a3.832,3.832,0,0,0,.359,1.781V0ZM14.18-1.719A1.469,1.469,0,0,0,15-1.93a1.322,1.322,0,0,0,.465-.477V-3.758H14.7q-1.375,0-1.375,1.234a.754.754,0,0,0,.242.582A.876.876,0,0,0,14.18-1.719Zm8.953-.156a1.171,1.171,0,0,0,.859-.3,1.1,1.1,0,0,0,.3-.84h2.469a2.922,2.922,0,0,1-1,2.281A3.705,3.705,0,0,1,23.2.156,3.751,3.751,0,0,1,20.289-1a4.556,4.556,0,0,1-1.062-3.2v-.109A5.149,5.149,0,0,1,19.7-6.574a3.441,3.441,0,0,1,1.363-1.508,4.065,4.065,0,0,1,2.109-.527,3.658,3.658,0,0,1,2.617.914,3.242,3.242,0,0,1,.969,2.477H24.289a1.445,1.445,0,0,0-.32-1.008,1.106,1.106,0,0,0-.859-.352q-1.023,0-1.2,1.3a9.206,9.206,0,0,0-.055,1.141,3.616,3.616,0,0,0,.3,1.766A1.055,1.055,0,0,0,23.133-1.875ZM30.648,0H28.008V-8.453h2.641Zm-2.8-10.633a1.175,1.175,0,0,1,.406-.922,1.533,1.533,0,0,1,1.055-.359,1.533,1.533,0,0,1,1.055.359,1.175,1.175,0,0,1,.406.922,1.175,1.175,0,0,1-.406.922,1.533,1.533,0,0,1-1.055.359,1.533,1.533,0,0,1-1.055-.359A1.175,1.175,0,0,1,27.852-10.633ZM36.359.156A4.345,4.345,0,0,1,33.211-1a4.006,4.006,0,0,1-1.2-3.02v-.219a5.191,5.191,0,0,1,.48-2.289,3.516,3.516,0,0,1,1.4-1.535,4.233,4.233,0,0,1,2.188-.543A3.659,3.659,0,0,1,38.891-7.5a4.344,4.344,0,0,1,1.031,3.082V-3.4H34.688A1.9,1.9,0,0,0,35.3-2.281a1.836,1.836,0,0,0,1.234.406,2.366,2.366,0,0,0,1.953-.875l1.2,1.422A3.363,3.363,0,0,1,38.3-.246,4.713,4.713,0,0,1,36.359.156Zm-.3-6.734q-1.156,0-1.375,1.531h2.656v-.2a1.3,1.3,0,0,0-.32-.98A1.275,1.275,0,0,0,36.063-6.578ZM43.4-8.453l.086.992A2.867,2.867,0,0,1,45.9-8.609a2.412,2.412,0,0,1,1.973.789,3.757,3.757,0,0,1,.676,2.375V0H45.906V-5.336a1.426,1.426,0,0,0-.258-.941,1.193,1.193,0,0,0-.937-.3,1.256,1.256,0,0,0-1.148.609V0H40.93V-8.453Zm9.672-2.1v2.1h1.391v1.828H53.07v3.867a.987.987,0,0,0,.172.664.922.922,0,0,0,.68.188,3.862,3.862,0,0,0,.656-.047V-.07a4.859,4.859,0,0,1-1.484.227,2.758,2.758,0,0,1-2.008-.641,2.626,2.626,0,0,1-.648-1.945v-4.2H49.359V-8.453h1.078v-2.1ZM59.586.156A4.345,4.345,0,0,1,56.438-1a4.006,4.006,0,0,1-1.2-3.02v-.219a5.191,5.191,0,0,1,.48-2.289,3.516,3.516,0,0,1,1.4-1.535A4.233,4.233,0,0,1,59.3-8.609,3.659,3.659,0,0,1,62.117-7.5a4.344,4.344,0,0,1,1.031,3.082V-3.4H57.914a1.9,1.9,0,0,0,.617,1.117,1.836,1.836,0,0,0,1.234.406,2.366,2.366,0,0,0,1.953-.875l1.2,1.422A3.363,3.363,0,0,1,61.527-.246,4.713,4.713,0,0,1,59.586.156Zm-.3-6.734q-1.156,0-1.375,1.531H60.57v-.2a1.3,1.3,0,0,0-.32-.98A1.275,1.275,0,0,0,59.289-6.578Z" transform="translate(958.048 2015.939)" fill="#12263f"/>
    <g transform="matrix(1, 0, 0, 1, 286.69, 1667.68)" filter="url(#Trazado_172615)">
      <g id="Trazado_172615-2" data-name="Trazado 172615" transform="translate(258.68 6)" fill="#ffedb7">
        <path d="M 294.7270812988281 436.7383117675781 L 9.999984741210938 436.7383117675781 C 5.313096046447754 436.7383117675781 1.499985098838806 432.9252014160156 1.499985098838806 428.2383117675781 L 1.499985098838806 10.00002956390381 C 1.499985098838806 5.313140392303467 5.313096046447754 1.500029563903809 9.999984741210938 1.500029563903809 L 294.7270812988281 1.500029563903809 C 299.4139709472656 1.500029563903809 303.2270812988281 5.313140392303467 303.2270812988281 10.00002956390381 L 303.2270812988281 428.2383117675781 C 303.2270812988281 432.9252014160156 299.4139709472656 436.7383117675781 294.7270812988281 436.7383117675781 Z" stroke="none"/>
        <path d="M 10 2.999969482421875 C 6.14019775390625 2.999969482421875 3 6.14013671875 3 9.999969482421875 L 3 428.2382507324219 C 3 432.0980834960938 6.14019775390625 435.2382507324219 10 435.2382507324219 L 294.7270812988281 435.2382507324219 C 298.5868835449219 435.2382507324219 301.7270812988281 432.0980834960938 301.7270812988281 428.2382507324219 L 301.7270812988281 9.999969482421875 C 301.7270812988281 6.14013671875 298.5868835449219 2.999969482421875 294.7270812988281 2.999969482421875 L 10 2.999969482421875 M 10 -3.0517578125e-05 L 294.7270812988281 -3.0517578125e-05 C 300.2499389648438 -3.0517578125e-05 304.7270812988281 4.477142333984375 304.7270812988281 9.999969482421875 L 304.7270812988281 428.2382507324219 C 304.7270812988281 433.7611389160156 300.2499389648438 438.2382507324219 294.7270812988281 438.2382507324219 L 10 438.2382507324219 C 4.477142333984375 438.2382507324219 0 433.7611389160156 0 428.2382507324219 L 0 9.999969482421875 C 0 4.477142333984375 4.477142333984375 -3.0517578125e-05 10 -3.0517578125e-05 Z" stroke="none" fill="#ffa726"/>
      </g>
    </g>
    <g id="Trazado_172616" data-name="Trazado 172616" transform="translate(585.854 1697.65)" fill="#fff">
      <path d="M 108.5098266601562 85.23466491699219 C 93.94463348388672 85.23466491699219 79.81819152832031 84.09510803222656 66.52293395996094 81.84763336181641 C 53.70643615722656 79.68107604980469 42.20513153076172 76.58313751220703 32.33846664428711 72.6397705078125 C 27.49949264526367 70.70582580566406 23.11118698120117 68.5806884765625 19.2955207824707 66.32341003417969 C 15.47235488891602 64.06171417236328 12.19599342346191 61.65077209472656 9.557437896728516 59.15757751464844 C 4.210909843444824 54.10560607910156 1.499993324279785 48.79299545288086 1.499993324279785 43.36732864379883 C 1.499993324279785 37.9416618347168 4.210909843444824 32.62905120849609 9.557437896728516 27.57707786560059 C 12.19599342346191 25.08388328552246 15.47235488891602 22.67293930053711 19.2955207824707 20.41124534606934 C 23.11118698120117 18.15396690368652 27.49949264526367 16.02882957458496 32.33846664428711 14.09488391876221 C 42.20513153076172 10.15152263641357 53.70643615722656 7.053578853607178 66.52293395996094 4.887022972106934 C 79.81819152832031 2.639550924301147 93.94463348388672 1.499995350837708 108.5098266601562 1.499995350837708 C 123.0750198364258 1.499995350837708 137.2014617919922 2.639550924301147 150.4967193603516 4.887022972106934 C 163.3132171630859 7.053578853607178 174.8145141601562 10.15152263641357 184.6811828613281 14.09488391876221 C 189.5201568603516 16.02882957458496 193.9084625244141 18.15396690368652 197.7241363525391 20.41124534606934 C 201.5473022460938 22.67293930053711 204.8236541748047 25.08388328552246 207.4622192382812 27.57707786560059 C 212.8087463378906 32.62905120849609 215.5196533203125 37.9416618347168 215.5196533203125 43.36732864379883 C 215.5196533203125 48.79299545288086 212.8087463378906 54.10560607910156 207.4622192382812 59.15757751464844 C 204.8236541748047 61.65077209472656 201.5473022460938 64.06171417236328 197.7241363525391 66.32341003417969 C 193.9084625244141 68.5806884765625 189.5201568603516 70.70582580566406 184.6811828613281 72.6397705078125 C 174.8145141601562 76.58313751220703 163.3132171630859 79.68107604980469 150.4967193603516 81.84763336181641 C 137.2014617919922 84.09510803222656 123.0750198364258 85.23466491699219 108.5098266601562 85.23466491699219 Z" stroke="none"/>
      <path d="M 108.5098266601562 3.000007629394531 C 94.02815246582031 3.000007629394531 79.98585510253906 4.13250732421875 66.77294921875 6.366065979003906 C 54.06126403808594 8.514884948730469 42.66311645507812 11.58385467529297 32.89515686035156 15.48773956298828 C 28.12747192382812 17.39321136474609 23.80885314941406 19.48409271240234 20.05923461914062 21.7022705078125 C 16.33193969726562 23.90724182128906 13.14523315429688 26.25065231323242 10.587646484375 28.66732788085938 C 5.5528564453125 33.42477035522461 3 38.37056350708008 3 43.36732864379883 C 3 48.36409378051758 5.5528564453125 53.30988693237305 10.587646484375 58.06732940673828 C 13.14523315429688 60.48400497436523 16.33193969726562 62.82741546630859 20.05923461914062 65.03238677978516 C 23.80885314941406 67.25056457519531 28.12747192382812 69.34144592285156 32.89515686035156 71.24691772460938 C 42.66311645507812 75.15080261230469 54.06126403808594 78.21977233886719 66.77294921875 80.36859130859375 C 79.98585510253906 82.60214996337891 94.02815246582031 83.73464965820312 108.5098266601562 83.73464965820312 C 122.9915008544922 83.73464965820312 137.0337982177734 82.60214996337891 150.2467041015625 80.36859130859375 C 162.9583892822266 78.21977233886719 174.3565368652344 75.15080261230469 184.12451171875 71.24691772460938 C 188.8921813964844 69.34144592285156 193.2108001708984 67.25056457519531 196.9604187011719 65.03238677978516 C 200.6877136230469 62.82741546630859 203.8744201660156 60.48400497436523 206.4320068359375 58.06732940673828 C 211.466796875 53.30988693237305 214.0196533203125 48.36409378051758 214.0196533203125 43.36732864379883 C 214.0196533203125 38.37056350708008 211.466796875 33.42477035522461 206.4320068359375 28.66732788085938 C 203.8744201660156 26.25065231323242 200.6877136230469 23.90724182128906 196.9604187011719 21.7022705078125 C 193.2108001708984 19.48409271240234 188.8921813964844 17.39321136474609 184.12451171875 15.48773956298828 C 174.3565368652344 11.58385467529297 162.9583892822266 8.514884948730469 150.2467041015625 6.366065979003906 C 137.0337982177734 4.13250732421875 122.9915008544922 3.000007629394531 108.5098266601562 3.000007629394531 M 108.5098266601562 7.62939453125e-06 C 168.4381408691406 7.62939453125e-06 217.0196533203125 19.41621398925781 217.0196533203125 43.36732864379883 C 217.0196533203125 67.31845092773438 168.4381408691406 86.73464965820312 108.5098266601562 86.73464965820312 C 48.58149719238281 86.73464965820312 0 67.31845092773438 0 43.36732864379883 C 0 19.41621398925781 48.58149719238281 7.62939453125e-06 108.5098266601562 7.62939453125e-06 Z" stroke="none" fill="#4dd0e1"/>
    </g>
    <g id="Trazado_172617" data-name="Trazado 172617" transform="translate(585.854 1795.797)" fill="#fff">
      <path d="M 108.5098266601562 85.23466491699219 C 93.94463348388672 85.23466491699219 79.81819152832031 84.09510803222656 66.52293395996094 81.84763336181641 C 53.70643615722656 79.68107604980469 42.20513153076172 76.58313751220703 32.33846664428711 72.6397705078125 C 27.49949264526367 70.70582580566406 23.11118698120117 68.5806884765625 19.2955207824707 66.32341003417969 C 15.47235488891602 64.06171417236328 12.19599342346191 61.65077209472656 9.557437896728516 59.15757751464844 C 4.210909843444824 54.10560607910156 1.499993324279785 48.79299545288086 1.499993324279785 43.36732864379883 C 1.499993324279785 37.9416618347168 4.210909843444824 32.62905120849609 9.557437896728516 27.57707786560059 C 12.19599342346191 25.08388328552246 15.47235488891602 22.67293930053711 19.2955207824707 20.41124534606934 C 23.11118698120117 18.15396690368652 27.49949264526367 16.02882957458496 32.33846664428711 14.09488391876221 C 42.20513153076172 10.15152263641357 53.70643615722656 7.053578853607178 66.52293395996094 4.887022972106934 C 79.81819152832031 2.639550924301147 93.94463348388672 1.499995350837708 108.5098266601562 1.499995350837708 C 123.0750198364258 1.499995350837708 137.2014617919922 2.639550924301147 150.4967193603516 4.887022972106934 C 163.3132171630859 7.053578853607178 174.8145141601562 10.15152263641357 184.6811828613281 14.09488391876221 C 189.5201568603516 16.02882957458496 193.9084625244141 18.15396690368652 197.7241363525391 20.41124534606934 C 201.5473022460938 22.67293930053711 204.8236541748047 25.08388328552246 207.4622192382812 27.57707786560059 C 212.8087463378906 32.62905120849609 215.5196533203125 37.9416618347168 215.5196533203125 43.36732864379883 C 215.5196533203125 48.79299545288086 212.8087463378906 54.10560607910156 207.4622192382812 59.15757751464844 C 204.8236541748047 61.65077209472656 201.5473022460938 64.06171417236328 197.7241363525391 66.32341003417969 C 193.9084625244141 68.5806884765625 189.5201568603516 70.70582580566406 184.6811828613281 72.6397705078125 C 174.8145141601562 76.58313751220703 163.3132171630859 79.68107604980469 150.4967193603516 81.84763336181641 C 137.2014617919922 84.09510803222656 123.0750198364258 85.23466491699219 108.5098266601562 85.23466491699219 Z" stroke="none"/>
      <path d="M 108.5098266601562 3.000007629394531 C 94.02815246582031 3.000007629394531 79.98585510253906 4.13250732421875 66.77294921875 6.366065979003906 C 54.06126403808594 8.514884948730469 42.66311645507812 11.58385467529297 32.89515686035156 15.48773956298828 C 28.12747192382812 17.39321136474609 23.80885314941406 19.48409271240234 20.05923461914062 21.7022705078125 C 16.33193969726562 23.90724182128906 13.14523315429688 26.25065231323242 10.587646484375 28.66732788085938 C 5.5528564453125 33.42477035522461 3 38.37056350708008 3 43.36732864379883 C 3 48.36409378051758 5.5528564453125 53.30988693237305 10.587646484375 58.06732940673828 C 13.14523315429688 60.48400497436523 16.33193969726562 62.82741546630859 20.05923461914062 65.03238677978516 C 23.80885314941406 67.25056457519531 28.12747192382812 69.34144592285156 32.89515686035156 71.24691772460938 C 42.66311645507812 75.15080261230469 54.06126403808594 78.21977233886719 66.77294921875 80.36859130859375 C 79.98585510253906 82.60214996337891 94.02815246582031 83.73464965820312 108.5098266601562 83.73464965820312 C 122.9915008544922 83.73464965820312 137.0337982177734 82.60214996337891 150.2467041015625 80.36859130859375 C 162.9583892822266 78.21977233886719 174.3565368652344 75.15080261230469 184.12451171875 71.24691772460938 C 188.8921813964844 69.34144592285156 193.2108001708984 67.25056457519531 196.9604187011719 65.03238677978516 C 200.6877136230469 62.82741546630859 203.8744201660156 60.48400497436523 206.4320068359375 58.06732940673828 C 211.466796875 53.30988693237305 214.0196533203125 48.36409378051758 214.0196533203125 43.36732864379883 C 214.0196533203125 38.37056350708008 211.466796875 33.42477035522461 206.4320068359375 28.66732788085938 C 203.8744201660156 26.25065231323242 200.6877136230469 23.90724182128906 196.9604187011719 21.7022705078125 C 193.2108001708984 19.48409271240234 188.8921813964844 17.39321136474609 184.12451171875 15.48773956298828 C 174.3565368652344 11.58385467529297 162.9583892822266 8.514884948730469 150.2467041015625 6.366065979003906 C 137.0337982177734 4.13250732421875 122.9915008544922 3.000007629394531 108.5098266601562 3.000007629394531 M 108.5098266601562 7.62939453125e-06 C 168.4381408691406 7.62939453125e-06 217.0196533203125 19.41621398925781 217.0196533203125 43.36732864379883 C 217.0196533203125 67.31845092773438 168.4381408691406 86.73464965820312 108.5098266601562 86.73464965820312 C 48.58149719238281 86.73464965820312 0 67.31845092773438 0 43.36732864379883 C 0 19.41621398925781 48.58149719238281 7.62939453125e-06 108.5098266601562 7.62939453125e-06 Z" stroke="none" fill="#4dd0e1"/>
    </g>
    <g id="Trazado_172618" data-name="Trazado 172618" transform="translate(585.854 1893.943)" fill="#fff">
      <path d="M 108.5098266601562 85.23466491699219 C 93.94463348388672 85.23466491699219 79.81819152832031 84.09510803222656 66.52293395996094 81.84763336181641 C 53.70643615722656 79.68107604980469 42.20513153076172 76.58313751220703 32.33846664428711 72.6397705078125 C 27.49949264526367 70.70582580566406 23.11118698120117 68.5806884765625 19.2955207824707 66.32341003417969 C 15.47235488891602 64.06171417236328 12.19599342346191 61.65077209472656 9.557437896728516 59.15757751464844 C 4.210909843444824 54.10560607910156 1.499993324279785 48.79299545288086 1.499993324279785 43.36732864379883 C 1.499993324279785 37.9416618347168 4.210909843444824 32.62905120849609 9.557437896728516 27.57707786560059 C 12.19599342346191 25.08388328552246 15.47235488891602 22.67293930053711 19.2955207824707 20.41124534606934 C 23.11118698120117 18.15396690368652 27.49949264526367 16.02882957458496 32.33846664428711 14.09488391876221 C 42.20513153076172 10.15152263641357 53.70643615722656 7.053578853607178 66.52293395996094 4.887022972106934 C 79.81819152832031 2.639550924301147 93.94463348388672 1.499995350837708 108.5098266601562 1.499995350837708 C 123.0750198364258 1.499995350837708 137.2014617919922 2.639550924301147 150.4967193603516 4.887022972106934 C 163.3132171630859 7.053578853607178 174.8145141601562 10.15152263641357 184.6811828613281 14.09488391876221 C 189.5201568603516 16.02882957458496 193.9084625244141 18.15396690368652 197.7241363525391 20.41124534606934 C 201.5473022460938 22.67293930053711 204.8236541748047 25.08388328552246 207.4622192382812 27.57707786560059 C 212.8087463378906 32.62905120849609 215.5196533203125 37.9416618347168 215.5196533203125 43.36732864379883 C 215.5196533203125 48.79299545288086 212.8087463378906 54.10560607910156 207.4622192382812 59.15757751464844 C 204.8236541748047 61.65077209472656 201.5473022460938 64.06171417236328 197.7241363525391 66.32341003417969 C 193.9084625244141 68.5806884765625 189.5201568603516 70.70582580566406 184.6811828613281 72.6397705078125 C 174.8145141601562 76.58313751220703 163.3132171630859 79.68107604980469 150.4967193603516 81.84763336181641 C 137.2014617919922 84.09510803222656 123.0750198364258 85.23466491699219 108.5098266601562 85.23466491699219 Z" stroke="none"/>
      <path d="M 108.5098266601562 3.000007629394531 C 94.02815246582031 3.000007629394531 79.98585510253906 4.13250732421875 66.77294921875 6.366065979003906 C 54.06126403808594 8.514884948730469 42.66311645507812 11.58385467529297 32.89515686035156 15.48773956298828 C 28.12747192382812 17.39321136474609 23.80885314941406 19.48409271240234 20.05923461914062 21.7022705078125 C 16.33193969726562 23.90724182128906 13.14523315429688 26.25065231323242 10.587646484375 28.66732788085938 C 5.5528564453125 33.42477035522461 3 38.37056350708008 3 43.36732864379883 C 3 48.36409378051758 5.5528564453125 53.30988693237305 10.587646484375 58.06732940673828 C 13.14523315429688 60.48400497436523 16.33193969726562 62.82741546630859 20.05923461914062 65.03238677978516 C 23.80885314941406 67.25056457519531 28.12747192382812 69.34144592285156 32.89515686035156 71.24691772460938 C 42.66311645507812 75.15080261230469 54.06126403808594 78.21977233886719 66.77294921875 80.36859130859375 C 79.98585510253906 82.60214996337891 94.02815246582031 83.73464965820312 108.5098266601562 83.73464965820312 C 122.9915008544922 83.73464965820312 137.0337982177734 82.60214996337891 150.2467041015625 80.36859130859375 C 162.9583892822266 78.21977233886719 174.3565368652344 75.15080261230469 184.12451171875 71.24691772460938 C 188.8921813964844 69.34144592285156 193.2108001708984 67.25056457519531 196.9604187011719 65.03238677978516 C 200.6877136230469 62.82741546630859 203.8744201660156 60.48400497436523 206.4320068359375 58.06732940673828 C 211.466796875 53.30988693237305 214.0196533203125 48.36409378051758 214.0196533203125 43.36732864379883 C 214.0196533203125 38.37056350708008 211.466796875 33.42477035522461 206.4320068359375 28.66732788085938 C 203.8744201660156 26.25065231323242 200.6877136230469 23.90724182128906 196.9604187011719 21.7022705078125 C 193.2108001708984 19.48409271240234 188.8921813964844 17.39321136474609 184.12451171875 15.48773956298828 C 174.3565368652344 11.58385467529297 162.9583892822266 8.514884948730469 150.2467041015625 6.366065979003906 C 137.0337982177734 4.13250732421875 122.9915008544922 3.000007629394531 108.5098266601562 3.000007629394531 M 108.5098266601562 7.62939453125e-06 C 168.4381408691406 7.62939453125e-06 217.0196533203125 19.41621398925781 217.0196533203125 43.36732864379883 C 217.0196533203125 67.31845092773438 168.4381408691406 86.73464965820312 108.5098266601562 86.73464965820312 C 48.58149719238281 86.73464965820312 0 67.31845092773438 0 43.36732864379883 C 0 19.41621398925781 48.58149719238281 7.62939453125e-06 108.5098266601562 7.62939453125e-06 Z" stroke="none" fill="#4dd0e1"/>
    </g>
    <g id="Trazado_172619" data-name="Trazado 172619" transform="translate(585.854 1992.092)" fill="#fff">
      <path d="M 108.5098266601562 85.23466491699219 C 93.94463348388672 85.23466491699219 79.81819152832031 84.09510803222656 66.52293395996094 81.84763336181641 C 53.70643615722656 79.68107604980469 42.20513153076172 76.58313751220703 32.33846664428711 72.6397705078125 C 27.49949264526367 70.70582580566406 23.11118698120117 68.5806884765625 19.2955207824707 66.32341003417969 C 15.47235488891602 64.06171417236328 12.19599342346191 61.65077209472656 9.557437896728516 59.15757751464844 C 4.210909843444824 54.10560607910156 1.499993324279785 48.79299545288086 1.499993324279785 43.36732864379883 C 1.499993324279785 37.9416618347168 4.210909843444824 32.62905120849609 9.557437896728516 27.57707786560059 C 12.19599342346191 25.08388328552246 15.47235488891602 22.67293930053711 19.2955207824707 20.41124534606934 C 23.11118698120117 18.15396690368652 27.49949264526367 16.02882957458496 32.33846664428711 14.09488391876221 C 42.20513153076172 10.15152263641357 53.70643615722656 7.053578853607178 66.52293395996094 4.887022972106934 C 79.81819152832031 2.639550924301147 93.94463348388672 1.499995350837708 108.5098266601562 1.499995350837708 C 123.0750198364258 1.499995350837708 137.2014617919922 2.639550924301147 150.4967193603516 4.887022972106934 C 163.3132171630859 7.053578853607178 174.8145141601562 10.15152263641357 184.6811828613281 14.09488391876221 C 189.5201568603516 16.02882957458496 193.9084625244141 18.15396690368652 197.7241363525391 20.41124534606934 C 201.5473022460938 22.67293930053711 204.8236541748047 25.08388328552246 207.4622192382812 27.57707786560059 C 212.8087463378906 32.62905120849609 215.5196533203125 37.9416618347168 215.5196533203125 43.36732864379883 C 215.5196533203125 48.79299545288086 212.8087463378906 54.10560607910156 207.4622192382812 59.15757751464844 C 204.8236541748047 61.65077209472656 201.5473022460938 64.06171417236328 197.7241363525391 66.32341003417969 C 193.9084625244141 68.5806884765625 189.5201568603516 70.70582580566406 184.6811828613281 72.6397705078125 C 174.8145141601562 76.58313751220703 163.3132171630859 79.68107604980469 150.4967193603516 81.84763336181641 C 137.2014617919922 84.09510803222656 123.0750198364258 85.23466491699219 108.5098266601562 85.23466491699219 Z" stroke="none"/>
      <path d="M 108.5098266601562 3.000007629394531 C 94.02815246582031 3.000007629394531 79.98585510253906 4.13250732421875 66.77294921875 6.366065979003906 C 54.06126403808594 8.514884948730469 42.66311645507812 11.58385467529297 32.89515686035156 15.48773956298828 C 28.12747192382812 17.39321136474609 23.80885314941406 19.48409271240234 20.05923461914062 21.7022705078125 C 16.33193969726562 23.90724182128906 13.14523315429688 26.25065231323242 10.587646484375 28.66732788085938 C 5.5528564453125 33.42477035522461 3 38.37056350708008 3 43.36732864379883 C 3 48.36409378051758 5.5528564453125 53.30988693237305 10.587646484375 58.06732940673828 C 13.14523315429688 60.48400497436523 16.33193969726562 62.82741546630859 20.05923461914062 65.03238677978516 C 23.80885314941406 67.25056457519531 28.12747192382812 69.34144592285156 32.89515686035156 71.24691772460938 C 42.66311645507812 75.15080261230469 54.06126403808594 78.21977233886719 66.77294921875 80.36859130859375 C 79.98585510253906 82.60214996337891 94.02815246582031 83.73464965820312 108.5098266601562 83.73464965820312 C 122.9915008544922 83.73464965820312 137.0337982177734 82.60214996337891 150.2467041015625 80.36859130859375 C 162.9583892822266 78.21977233886719 174.3565368652344 75.15080261230469 184.12451171875 71.24691772460938 C 188.8921813964844 69.34144592285156 193.2108001708984 67.25056457519531 196.9604187011719 65.03238677978516 C 200.6877136230469 62.82741546630859 203.8744201660156 60.48400497436523 206.4320068359375 58.06732940673828 C 211.466796875 53.30988693237305 214.0196533203125 48.36409378051758 214.0196533203125 43.36732864379883 C 214.0196533203125 38.37056350708008 211.466796875 33.42477035522461 206.4320068359375 28.66732788085938 C 203.8744201660156 26.25065231323242 200.6877136230469 23.90724182128906 196.9604187011719 21.7022705078125 C 193.2108001708984 19.48409271240234 188.8921813964844 17.39321136474609 184.12451171875 15.48773956298828 C 174.3565368652344 11.58385467529297 162.9583892822266 8.514884948730469 150.2467041015625 6.366065979003906 C 137.0337982177734 4.13250732421875 122.9915008544922 3.000007629394531 108.5098266601562 3.000007629394531 M 108.5098266601562 7.62939453125e-06 C 168.4381408691406 7.62939453125e-06 217.0196533203125 19.41621398925781 217.0196533203125 43.36732864379883 C 217.0196533203125 67.31845092773438 168.4381408691406 86.73464965820312 108.5098266601562 86.73464965820312 C 48.58149719238281 86.73464965820312 0 67.31845092773438 0 43.36732864379883 C 0 19.41621398925781 48.58149719238281 7.62939453125e-06 108.5098266601562 7.62939453125e-06 Z" stroke="none" fill="#4dd0e1"/>
    </g>
    <path id="Trazado_172620" data-name="Trazado 172620" d="M-34.926-2.344h-4.109L-39.816,0h-2.492l4.234-11.375H-35.9L-31.645,0h-2.492Zm-3.477-1.9h2.844L-36.988-8.5Zm7.32-.047A5.094,5.094,0,0,1-30.2-7.437,2.877,2.877,0,0,1-27.77-8.609a2.589,2.589,0,0,1,2.039.922V-12h2.266V0H-25.5l-.109-.9A2.657,2.657,0,0,1-27.785.156,2.869,2.869,0,0,1-30.18-1.02,5.258,5.258,0,0,1-31.082-4.289Zm2.258.168A3.337,3.337,0,0,0-28.41-2.3a1.349,1.349,0,0,0,1.2.634,1.511,1.511,0,0,0,1.477-.884V-5.889a1.489,1.489,0,0,0-1.461-.884Q-28.824-6.773-28.824-4.121ZM-19.6-8.453l.07.945a2.971,2.971,0,0,1,2.43-1.1A2.255,2.255,0,0,1-14.855-7.32a2.9,2.9,0,0,1,2.539-1.289,2.521,2.521,0,0,1,2.047.8A3.681,3.681,0,0,1-9.6-5.4V0h-2.266V-5.391a1.61,1.61,0,0,0-.281-1.051,1.246,1.246,0,0,0-.992-.332,1.409,1.409,0,0,0-1.406.969l.008,5.8h-2.258V-5.383a1.59,1.59,0,0,0-.289-1.062,1.259,1.259,0,0,0-.984-.328,1.463,1.463,0,0,0-1.391.8V0h-2.258V-8.453ZM-5.48,0H-7.746V-8.453H-5.48Zm-2.4-10.641a1.112,1.112,0,0,1,.34-.836,1.277,1.277,0,0,1,.926-.328,1.28,1.28,0,0,1,.922.328,1.105,1.105,0,0,1,.344.836A1.108,1.108,0,0,1-5.7-9.8a1.283,1.283,0,0,1-.918.328A1.283,1.283,0,0,1-7.531-9.8,1.108,1.108,0,0,1-7.879-10.641Zm6.336,2.188.07.977A2.951,2.951,0,0,1,.957-8.609a2.453,2.453,0,0,1,2,.789,3.682,3.682,0,0,1,.672,2.359V0H1.371V-5.406a1.465,1.465,0,0,0-.312-1.043A1.4,1.4,0,0,0,.02-6.773a1.553,1.553,0,0,0-1.43.813V0H-3.668V-8.453ZM7.723,0H5.457V-8.453H7.723Zm-2.4-10.641a1.112,1.112,0,0,1,.34-.836A1.277,1.277,0,0,1,6.59-11.8a1.28,1.28,0,0,1,.922.328,1.105,1.105,0,0,1,.344.836,1.108,1.108,0,0,1-.348.844,1.283,1.283,0,0,1-.918.328A1.283,1.283,0,0,1,5.672-9.8,1.108,1.108,0,0,1,5.324-10.641Zm8.836,8.3a.727.727,0,0,0-.41-.652,4.659,4.659,0,0,0-1.316-.426Q9.418-4.047,9.418-5.977a2.323,2.323,0,0,1,.934-1.879,3.766,3.766,0,0,1,2.441-.754,4.053,4.053,0,0,1,2.574.758,2.388,2.388,0,0,1,.965,1.969H14.074a1.092,1.092,0,0,0-.312-.8A1.322,1.322,0,0,0,12.785-7a1.351,1.351,0,0,0-.883.258.814.814,0,0,0-.312.656.7.7,0,0,0,.355.605,3.657,3.657,0,0,0,1.2.4,9.8,9.8,0,0,1,1.422.379A2.336,2.336,0,0,1,16.355-2.43a2.2,2.2,0,0,1-.992,1.871A4.28,4.28,0,0,1,12.8.156a4.47,4.47,0,0,1-1.887-.379A3.166,3.166,0,0,1,9.621-1.262a2.414,2.414,0,0,1-.469-1.426h2.141a1.179,1.179,0,0,0,.445.922,1.766,1.766,0,0,0,1.109.32,1.635,1.635,0,0,0,.98-.246A.766.766,0,0,0,14.16-2.336Zm6.352-8.2v2.078h1.445V-6.8H20.512v4.219a1.007,1.007,0,0,0,.18.672.9.9,0,0,0,.688.2,3.6,3.6,0,0,0,.664-.055V-.047a4.648,4.648,0,0,1-1.367.2,2.156,2.156,0,0,1-2.422-2.4V-6.8H17.02V-8.453h1.234v-2.078Zm7.453,4.2a6.134,6.134,0,0,0-.812-.062,1.654,1.654,0,0,0-1.68.867V0H23.215V-8.453h2.133l.063,1.008a2.092,2.092,0,0,1,1.883-1.164,2.366,2.366,0,0,1,.7.1ZM33.715,0a2.507,2.507,0,0,1-.227-.758,2.732,2.732,0,0,1-2.133.914A3,3,0,0,1,29.3-.562a2.312,2.312,0,0,1-.816-1.812,2.389,2.389,0,0,1,1-2.062,4.915,4.915,0,0,1,2.879-.727h1.039v-.484a1.393,1.393,0,0,0-.3-.937,1.183,1.183,0,0,0-.949-.352,1.345,1.345,0,0,0-.895.273.929.929,0,0,0-.324.75H28.668a2.268,2.268,0,0,1,.453-1.359,3,3,0,0,1,1.281-.98,4.669,4.669,0,0,1,1.859-.355,3.689,3.689,0,0,1,2.48.785,2.747,2.747,0,0,1,.918,2.207v3.664A4.041,4.041,0,0,0,36-.133V0ZM31.848-1.57a1.945,1.945,0,0,0,.922-.223,1.462,1.462,0,0,0,.625-.6V-3.844h-.844q-1.7,0-1.8,1.172l-.008.133a.9.9,0,0,0,.3.7A1.153,1.153,0,0,0,31.848-1.57Zm10.3-4.766a6.134,6.134,0,0,0-.812-.062,1.654,1.654,0,0,0-1.68.867V0H37.395V-8.453h2.133l.063,1.008a2.092,2.092,0,0,1,1.883-1.164,2.366,2.366,0,0,1,.7.1Zm-101,20.047a5.094,5.094,0,0,1,.887-3.148,2.877,2.877,0,0,1,2.426-1.172,2.589,2.589,0,0,1,2.039.922V6h2.266V18h-2.039l-.109-.9a2.657,2.657,0,0,1-2.172,1.055,2.869,2.869,0,0,1-2.395-1.176A5.258,5.258,0,0,1-58.852,13.711Zm2.258.168A3.337,3.337,0,0,0-56.18,15.7a1.349,1.349,0,0,0,1.2.634,1.511,1.511,0,0,0,1.477-.884V12.111a1.489,1.489,0,0,0-1.461-.884Q-56.594,11.227-56.594,13.879ZM-44.586,18a2.507,2.507,0,0,1-.227-.758,2.732,2.732,0,0,1-2.133.914A3,3,0,0,1-49,17.438a2.312,2.312,0,0,1-.816-1.812,2.389,2.389,0,0,1,1-2.062,4.915,4.915,0,0,1,2.879-.727h1.039v-.484a1.393,1.393,0,0,0-.3-.937,1.183,1.183,0,0,0-.949-.352,1.345,1.345,0,0,0-.895.273.929.929,0,0,0-.324.75h-2.258a2.268,2.268,0,0,1,.453-1.359,3,3,0,0,1,1.281-.98,4.669,4.669,0,0,1,1.859-.355,3.689,3.689,0,0,1,2.48.785,2.747,2.747,0,0,1,.918,2.207v3.664a4.041,4.041,0,0,0,.336,1.82V18Zm-1.867-1.57a1.945,1.945,0,0,0,.922-.223,1.462,1.462,0,0,0,.625-.6V14.156h-.844q-1.7,0-1.8,1.172l-.008.133a.9.9,0,0,0,.3.7A1.153,1.153,0,0,0-46.453,16.43Zm8.25-8.961V9.547h1.445V11.2H-38.2v4.219a1.007,1.007,0,0,0,.18.672.9.9,0,0,0,.688.2,3.6,3.6,0,0,0,.664-.055v1.711a4.648,4.648,0,0,1-1.367.2,2.156,2.156,0,0,1-2.422-2.4V11.2H-41.7V9.547h1.234V7.469Zm2.117,6.227a5.013,5.013,0,0,1,.484-2.242A3.546,3.546,0,0,1-34.207,9.93a4.069,4.069,0,0,1,2.113-.539A3.849,3.849,0,0,1-29.3,10.438a4.2,4.2,0,0,1,1.207,2.844l.016.578a4.418,4.418,0,0,1-1.086,3.121,3.775,3.775,0,0,1-2.914,1.176A3.793,3.793,0,0,1-35,16.984a4.5,4.5,0,0,1-1.09-3.187Zm2.258.16a3.16,3.16,0,0,0,.453,1.843,1.5,1.5,0,0,0,1.3.638,1.5,1.5,0,0,0,1.281-.63,3.457,3.457,0,0,0,.461-2.015A3.128,3.128,0,0,0-30.8,11.86a1.5,1.5,0,0,0-1.3-.649,1.474,1.474,0,0,0-1.281.646A3.516,3.516,0,0,0-33.828,13.856Zm11.719,1.808a.727.727,0,0,0-.41-.652,4.659,4.659,0,0,0-1.316-.426q-3.016-.633-3.016-2.562a2.323,2.323,0,0,1,.934-1.879,3.766,3.766,0,0,1,2.441-.754,4.053,4.053,0,0,1,2.574.758,2.388,2.388,0,0,1,.965,1.969H-22.2a1.092,1.092,0,0,0-.312-.8A1.322,1.322,0,0,0-23.484,11a1.351,1.351,0,0,0-.883.258.814.814,0,0,0-.312.656.7.7,0,0,0,.355.605,3.657,3.657,0,0,0,1.2.4A9.8,9.8,0,0,1-21.7,13.3a2.336,2.336,0,0,1,1.789,2.273,2.2,2.2,0,0,1-.992,1.871,4.28,4.28,0,0,1-2.562.715,4.47,4.47,0,0,1-1.887-.379,3.166,3.166,0,0,1-1.293-1.039,2.414,2.414,0,0,1-.469-1.426h2.141a1.179,1.179,0,0,0,.445.922,1.766,1.766,0,0,0,1.109.32,1.635,1.635,0,0,0,.98-.246A.766.766,0,0,0-22.109,15.664Zm15.242-1.812a5.07,5.07,0,0,1-.887,3.129,2.843,2.843,0,0,1-2.395,1.176,2.633,2.633,0,0,1-2.07-.891V21.25h-2.258V9.547h2.094l.078.828a2.654,2.654,0,0,1,2.141-.984,2.862,2.862,0,0,1,2.43,1.156,5.207,5.207,0,0,1,.867,3.188Zm-2.258-.164a3.327,3.327,0,0,0-.418-1.82,1.361,1.361,0,0,0-1.215-.641,1.479,1.479,0,0,0-1.461.813V15.5a1.5,1.5,0,0,0,1.477.836Q-9.125,16.336-9.125,13.688ZM-.57,18A2.507,2.507,0,0,1-.8,17.242a2.732,2.732,0,0,1-2.133.914,3,3,0,0,1-2.059-.719A2.312,2.312,0,0,1-5.8,15.625a2.389,2.389,0,0,1,1-2.062,4.915,4.915,0,0,1,2.879-.727H-.891v-.484a1.393,1.393,0,0,0-.3-.937,1.183,1.183,0,0,0-.949-.352,1.345,1.345,0,0,0-.895.273.929.929,0,0,0-.324.75H-5.617a2.268,2.268,0,0,1,.453-1.359,3,3,0,0,1,1.281-.98,4.669,4.669,0,0,1,1.859-.355,3.689,3.689,0,0,1,2.48.785,2.747,2.747,0,0,1,.918,2.207v3.664a4.041,4.041,0,0,0,.336,1.82V18Zm-1.867-1.57a1.945,1.945,0,0,0,.922-.223,1.462,1.462,0,0,0,.625-.6V14.156h-.844q-1.7,0-1.8,1.172l-.008.133a.9.9,0,0,0,.3.7A1.153,1.153,0,0,0-2.437,16.43Zm9.063-.094a1.481,1.481,0,0,0,1.016-.344,1.2,1.2,0,0,0,.406-.914h2.117A2.9,2.9,0,0,1,9.7,16.652a3.093,3.093,0,0,1-1.262,1.109,3.949,3.949,0,0,1-1.77.395A3.67,3.67,0,0,1,3.8,17,4.56,4.56,0,0,1,2.758,13.82v-.148A4.508,4.508,0,0,1,3.8,10.555,3.627,3.627,0,0,1,6.648,9.391a3.555,3.555,0,0,1,2.543.9,3.2,3.2,0,0,1,.973,2.4H8.047a1.551,1.551,0,0,0-.406-1.072,1.354,1.354,0,0,0-1.031-.412,1.36,1.36,0,0,0-1.191.575,3.333,3.333,0,0,0-.4,1.866v.235a3.375,3.375,0,0,0,.4,1.878A1.377,1.377,0,0,0,6.625,16.336ZM13.836,18H11.57V9.547h2.266Zm-2.4-10.641a1.112,1.112,0,0,1,.34-.836A1.277,1.277,0,0,1,12.7,6.2a1.28,1.28,0,0,1,.922.328,1.193,1.193,0,0,1,0,1.68,1.448,1.448,0,0,1-1.836,0A1.108,1.108,0,0,1,11.438,7.359Zm8.148,10.8a4.15,4.15,0,0,1-3.027-1.141,4.054,4.054,0,0,1-1.168-3.039v-.219a5.106,5.106,0,0,1,.492-2.277,3.612,3.612,0,0,1,1.395-1.547,3.914,3.914,0,0,1,2.059-.543,3.508,3.508,0,0,1,2.73,1.094,4.444,4.444,0,0,1,1,3.1v.922H17.68a2.1,2.1,0,0,0,.66,1.328,2,2,0,0,0,1.395.5,2.437,2.437,0,0,0,2.039-.945l1.109,1.242a3.389,3.389,0,0,1-1.375,1.121A4.511,4.511,0,0,1,19.586,18.156Zm-.258-6.945a1.411,1.411,0,0,0-1.09.455,2.357,2.357,0,0,0-.535,1.3h3.141v-.181a1.681,1.681,0,0,0-.406-1.165A1.456,1.456,0,0,0,19.328,11.211Zm7.094-1.664.07.977a2.951,2.951,0,0,1,2.43-1.133,2.453,2.453,0,0,1,2,.789,3.682,3.682,0,0,1,.672,2.359V18H29.336V12.594a1.465,1.465,0,0,0-.312-1.043,1.4,1.4,0,0,0-1.039-.324,1.553,1.553,0,0,0-1.43.813V18H24.3V9.547Zm9.586-2.078V9.547h1.445V11.2H36.008v4.219a1.007,1.007,0,0,0,.18.672.9.9,0,0,0,.688.2,3.6,3.6,0,0,0,.664-.055v1.711a4.648,4.648,0,0,1-1.367.2,2.156,2.156,0,0,1-2.422-2.4V11.2H32.516V9.547H33.75V7.469ZM42.6,18.156a4.15,4.15,0,0,1-3.027-1.141,4.054,4.054,0,0,1-1.168-3.039v-.219A5.106,5.106,0,0,1,38.9,11.48a3.612,3.612,0,0,1,1.395-1.547,3.914,3.914,0,0,1,2.059-.543,3.508,3.508,0,0,1,2.73,1.094,4.444,4.444,0,0,1,1,3.1v.922H40.7a2.1,2.1,0,0,0,.66,1.328,2,2,0,0,0,1.395.5,2.437,2.437,0,0,0,2.039-.945L45.9,16.633a3.389,3.389,0,0,1-1.375,1.121A4.511,4.511,0,0,1,42.6,18.156Zm-.258-6.945a1.411,1.411,0,0,0-1.09.455,2.357,2.357,0,0,0-.535,1.3h3.141v-.181a1.681,1.681,0,0,0-.406-1.165A1.456,1.456,0,0,0,42.344,11.211Zm9.594,4.453a.727.727,0,0,0-.41-.652,4.659,4.659,0,0,0-1.316-.426Q47.2,13.953,47.2,12.023a2.323,2.323,0,0,1,.934-1.879,3.766,3.766,0,0,1,2.441-.754,4.053,4.053,0,0,1,2.574.758,2.388,2.388,0,0,1,.965,1.969H51.852a1.092,1.092,0,0,0-.312-.8A1.322,1.322,0,0,0,50.563,11a1.351,1.351,0,0,0-.883.258.814.814,0,0,0-.312.656.7.7,0,0,0,.355.605,3.657,3.657,0,0,0,1.2.4,9.8,9.8,0,0,1,1.422.379,2.336,2.336,0,0,1,1.789,2.273,2.2,2.2,0,0,1-.992,1.871,4.28,4.28,0,0,1-2.562.715,4.47,4.47,0,0,1-1.887-.379A3.166,3.166,0,0,1,47.4,16.738a2.414,2.414,0,0,1-.469-1.426H49.07a1.179,1.179,0,0,0,.445.922,1.766,1.766,0,0,0,1.109.32,1.635,1.635,0,0,0,.98-.246A.766.766,0,0,0,51.938,15.664ZM55.7,16.891a1.137,1.137,0,0,1,.363-.875,1.412,1.412,0,0,1,1.828,0,1.137,1.137,0,0,1,.363.875,1.121,1.121,0,0,1-.359.863,1.435,1.435,0,0,1-1.836,0A1.121,1.121,0,0,1,55.7,16.891Z" transform="translate(687.583 1730.627)" fill="#12263f"/>
    <path id="Trazado_172621" data-name="Trazado 172621" d="M-34.926-2.344h-4.109L-39.816,0h-2.492l4.234-11.375H-35.9L-31.645,0h-2.492Zm-3.477-1.9h2.844L-36.988-8.5Zm7.32-.047A5.094,5.094,0,0,1-30.2-7.437,2.877,2.877,0,0,1-27.77-8.609a2.589,2.589,0,0,1,2.039.922V-12h2.266V0H-25.5l-.109-.9A2.657,2.657,0,0,1-27.785.156,2.869,2.869,0,0,1-30.18-1.02,5.258,5.258,0,0,1-31.082-4.289Zm2.258.168A3.337,3.337,0,0,0-28.41-2.3a1.349,1.349,0,0,0,1.2.634,1.511,1.511,0,0,0,1.477-.884V-5.889a1.489,1.489,0,0,0-1.461-.884Q-28.824-6.773-28.824-4.121ZM-19.6-8.453l.07.945a2.971,2.971,0,0,1,2.43-1.1A2.255,2.255,0,0,1-14.855-7.32a2.9,2.9,0,0,1,2.539-1.289,2.521,2.521,0,0,1,2.047.8A3.681,3.681,0,0,1-9.6-5.4V0h-2.266V-5.391a1.61,1.61,0,0,0-.281-1.051,1.246,1.246,0,0,0-.992-.332,1.409,1.409,0,0,0-1.406.969l.008,5.8h-2.258V-5.383a1.59,1.59,0,0,0-.289-1.062,1.259,1.259,0,0,0-.984-.328,1.463,1.463,0,0,0-1.391.8V0h-2.258V-8.453ZM-5.48,0H-7.746V-8.453H-5.48Zm-2.4-10.641a1.112,1.112,0,0,1,.34-.836,1.277,1.277,0,0,1,.926-.328,1.28,1.28,0,0,1,.922.328,1.105,1.105,0,0,1,.344.836A1.108,1.108,0,0,1-5.7-9.8a1.283,1.283,0,0,1-.918.328A1.283,1.283,0,0,1-7.531-9.8,1.108,1.108,0,0,1-7.879-10.641Zm6.336,2.188.07.977A2.951,2.951,0,0,1,.957-8.609a2.453,2.453,0,0,1,2,.789,3.682,3.682,0,0,1,.672,2.359V0H1.371V-5.406a1.465,1.465,0,0,0-.312-1.043A1.4,1.4,0,0,0,.02-6.773a1.553,1.553,0,0,0-1.43.813V0H-3.668V-8.453ZM7.723,0H5.457V-8.453H7.723Zm-2.4-10.641a1.112,1.112,0,0,1,.34-.836A1.277,1.277,0,0,1,6.59-11.8a1.28,1.28,0,0,1,.922.328,1.105,1.105,0,0,1,.344.836,1.108,1.108,0,0,1-.348.844,1.283,1.283,0,0,1-.918.328A1.283,1.283,0,0,1,5.672-9.8,1.108,1.108,0,0,1,5.324-10.641Zm8.836,8.3a.727.727,0,0,0-.41-.652,4.659,4.659,0,0,0-1.316-.426Q9.418-4.047,9.418-5.977a2.323,2.323,0,0,1,.934-1.879,3.766,3.766,0,0,1,2.441-.754,4.053,4.053,0,0,1,2.574.758,2.388,2.388,0,0,1,.965,1.969H14.074a1.092,1.092,0,0,0-.312-.8A1.322,1.322,0,0,0,12.785-7a1.351,1.351,0,0,0-.883.258.814.814,0,0,0-.312.656.7.7,0,0,0,.355.605,3.657,3.657,0,0,0,1.2.4,9.8,9.8,0,0,1,1.422.379A2.336,2.336,0,0,1,16.355-2.43a2.2,2.2,0,0,1-.992,1.871A4.28,4.28,0,0,1,12.8.156a4.47,4.47,0,0,1-1.887-.379A3.166,3.166,0,0,1,9.621-1.262a2.414,2.414,0,0,1-.469-1.426h2.141a1.179,1.179,0,0,0,.445.922,1.766,1.766,0,0,0,1.109.32,1.635,1.635,0,0,0,.98-.246A.766.766,0,0,0,14.16-2.336Zm6.352-8.2v2.078h1.445V-6.8H20.512v4.219a1.007,1.007,0,0,0,.18.672.9.9,0,0,0,.688.2,3.6,3.6,0,0,0,.664-.055V-.047a4.648,4.648,0,0,1-1.367.2,2.156,2.156,0,0,1-2.422-2.4V-6.8H17.02V-8.453h1.234v-2.078Zm7.453,4.2a6.134,6.134,0,0,0-.812-.062,1.654,1.654,0,0,0-1.68.867V0H23.215V-8.453h2.133l.063,1.008a2.092,2.092,0,0,1,1.883-1.164,2.366,2.366,0,0,1,.7.1ZM33.715,0a2.507,2.507,0,0,1-.227-.758,2.732,2.732,0,0,1-2.133.914A3,3,0,0,1,29.3-.562a2.312,2.312,0,0,1-.816-1.812,2.389,2.389,0,0,1,1-2.062,4.915,4.915,0,0,1,2.879-.727h1.039v-.484a1.393,1.393,0,0,0-.3-.937,1.183,1.183,0,0,0-.949-.352,1.345,1.345,0,0,0-.895.273.929.929,0,0,0-.324.75H28.668a2.268,2.268,0,0,1,.453-1.359,3,3,0,0,1,1.281-.98,4.669,4.669,0,0,1,1.859-.355,3.689,3.689,0,0,1,2.48.785,2.747,2.747,0,0,1,.918,2.207v3.664A4.041,4.041,0,0,0,36-.133V0ZM31.848-1.57a1.945,1.945,0,0,0,.922-.223,1.462,1.462,0,0,0,.625-.6V-3.844h-.844q-1.7,0-1.8,1.172l-.008.133a.9.9,0,0,0,.3.7A1.153,1.153,0,0,0,31.848-1.57Zm10.3-4.766a6.134,6.134,0,0,0-.812-.062,1.654,1.654,0,0,0-1.68.867V0H37.395V-8.453h2.133l.063,1.008a2.092,2.092,0,0,1,1.883-1.164,2.366,2.366,0,0,1,.7.1ZM-65.566,13.711a5.094,5.094,0,0,1,.887-3.148,2.877,2.877,0,0,1,2.426-1.172,2.589,2.589,0,0,1,2.039.922V6h2.266V18h-2.039l-.109-.9a2.657,2.657,0,0,1-2.172,1.055,2.869,2.869,0,0,1-2.395-1.176A5.258,5.258,0,0,1-65.566,13.711Zm2.258.168a3.337,3.337,0,0,0,.414,1.823,1.349,1.349,0,0,0,1.2.634,1.511,1.511,0,0,0,1.477-.884V12.111a1.489,1.489,0,0,0-1.461-.884Q-63.309,11.227-63.309,13.879ZM-51.3,18a2.507,2.507,0,0,1-.227-.758,2.732,2.732,0,0,1-2.133.914,3,3,0,0,1-2.059-.719,2.312,2.312,0,0,1-.816-1.812,2.389,2.389,0,0,1,1-2.062,4.915,4.915,0,0,1,2.879-.727h1.039v-.484a1.393,1.393,0,0,0-.3-.937,1.183,1.183,0,0,0-.949-.352,1.345,1.345,0,0,0-.895.273.929.929,0,0,0-.324.75h-2.258a2.268,2.268,0,0,1,.453-1.359,3,3,0,0,1,1.281-.98,4.669,4.669,0,0,1,1.859-.355,3.689,3.689,0,0,1,2.48.785,2.747,2.747,0,0,1,.918,2.207v3.664a4.041,4.041,0,0,0,.336,1.82V18Zm-1.867-1.57a1.945,1.945,0,0,0,.922-.223,1.462,1.462,0,0,0,.625-.6V14.156h-.844q-1.7,0-1.8,1.172l-.008.133a.9.9,0,0,0,.3.7A1.153,1.153,0,0,0-53.168,16.43Zm8.25-8.961V9.547h1.445V11.2h-1.445v4.219a1.007,1.007,0,0,0,.18.672.9.9,0,0,0,.688.2,3.6,3.6,0,0,0,.664-.055v1.711a4.648,4.648,0,0,1-1.367.2,2.156,2.156,0,0,1-2.422-2.4V11.2H-48.41V9.547h1.234V7.469ZM-42.8,13.7a5.013,5.013,0,0,1,.484-2.242A3.546,3.546,0,0,1-40.922,9.93a4.069,4.069,0,0,1,2.113-.539,3.849,3.849,0,0,1,2.793,1.047,4.2,4.2,0,0,1,1.207,2.844l.016.578a4.418,4.418,0,0,1-1.086,3.121,3.775,3.775,0,0,1-2.914,1.176,3.793,3.793,0,0,1-2.918-1.172A4.5,4.5,0,0,1-42.8,13.8Zm2.258.16A3.16,3.16,0,0,0-40.09,15.7a1.5,1.5,0,0,0,1.3.638,1.5,1.5,0,0,0,1.281-.63,3.457,3.457,0,0,0,.461-2.015,3.128,3.128,0,0,0-.461-1.831,1.5,1.5,0,0,0-1.3-.649,1.474,1.474,0,0,0-1.281.646A3.516,3.516,0,0,0-40.543,13.856Zm11.719,1.808a.727.727,0,0,0-.41-.652,4.659,4.659,0,0,0-1.316-.426q-3.016-.633-3.016-2.562a2.323,2.323,0,0,1,.934-1.879,3.766,3.766,0,0,1,2.441-.754,4.053,4.053,0,0,1,2.574.758,2.388,2.388,0,0,1,.965,1.969H-28.91a1.092,1.092,0,0,0-.312-.8A1.322,1.322,0,0,0-30.2,11a1.351,1.351,0,0,0-.883.258.814.814,0,0,0-.312.656.7.7,0,0,0,.355.605,3.657,3.657,0,0,0,1.2.4,9.8,9.8,0,0,1,1.422.379,2.336,2.336,0,0,1,1.789,2.273,2.2,2.2,0,0,1-.992,1.871,4.28,4.28,0,0,1-2.562.715,4.47,4.47,0,0,1-1.887-.379,3.166,3.166,0,0,1-1.293-1.039,2.414,2.414,0,0,1-.469-1.426h2.141a1.179,1.179,0,0,0,.445.922,1.766,1.766,0,0,0,1.109.32,1.635,1.635,0,0,0,.98-.246A.766.766,0,0,0-28.824,15.664Zm10.336-8.2V9.547h1.445V11.2h-1.445v4.219a1.007,1.007,0,0,0,.18.672.9.9,0,0,0,.688.2,3.6,3.6,0,0,0,.664-.055v1.711a4.648,4.648,0,0,1-1.367.2,2.156,2.156,0,0,1-2.422-2.4V11.2H-21.98V9.547h1.234V7.469Zm7.453,4.2a6.134,6.134,0,0,0-.812-.062,1.654,1.654,0,0,0-1.68.867V18h-2.258V9.547h2.133l.063,1.008a2.092,2.092,0,0,1,1.883-1.164,2.366,2.366,0,0,1,.7.1ZM-5.285,18a2.507,2.507,0,0,1-.227-.758,2.732,2.732,0,0,1-2.133.914A3,3,0,0,1-9.7,17.438a2.312,2.312,0,0,1-.816-1.812,2.389,2.389,0,0,1,1-2.062,4.915,4.915,0,0,1,2.879-.727h1.039v-.484a1.393,1.393,0,0,0-.3-.937,1.183,1.183,0,0,0-.949-.352,1.345,1.345,0,0,0-.895.273.929.929,0,0,0-.324.75h-2.258a2.268,2.268,0,0,1,.453-1.359A3,3,0,0,1-8.6,9.746a4.669,4.669,0,0,1,1.859-.355,3.689,3.689,0,0,1,2.48.785,2.747,2.747,0,0,1,.918,2.207v3.664A4.041,4.041,0,0,0-3,17.867V18Zm-1.867-1.57a1.945,1.945,0,0,0,.922-.223,1.462,1.462,0,0,0,.625-.6V14.156h-.844q-1.7,0-1.8,1.172l-.008.133a.9.9,0,0,0,.3.7A1.153,1.153,0,0,0-7.152,16.43ZM1.1,7.469V9.547H2.543V11.2H1.1v4.219a1.007,1.007,0,0,0,.18.672.9.9,0,0,0,.688.2,3.6,3.6,0,0,0,.664-.055v1.711a4.648,4.648,0,0,1-1.367.2,2.156,2.156,0,0,1-2.422-2.4V11.2H-2.395V9.547H-1.16V7.469ZM8.7,18a2.507,2.507,0,0,1-.227-.758,2.732,2.732,0,0,1-2.133.914,3,3,0,0,1-2.059-.719,2.312,2.312,0,0,1-.816-1.812,2.389,2.389,0,0,1,1-2.062,4.915,4.915,0,0,1,2.879-.727H8.379v-.484a1.393,1.393,0,0,0-.3-.937,1.183,1.183,0,0,0-.949-.352,1.345,1.345,0,0,0-.895.273.929.929,0,0,0-.324.75H3.652a2.268,2.268,0,0,1,.453-1.359,3,3,0,0,1,1.281-.98,4.669,4.669,0,0,1,1.859-.355,3.689,3.689,0,0,1,2.48.785,2.747,2.747,0,0,1,.918,2.207v3.664a4.041,4.041,0,0,0,.336,1.82V18ZM6.832,16.43a1.945,1.945,0,0,0,.922-.223,1.462,1.462,0,0,0,.625-.6V14.156H7.535q-1.7,0-1.8,1.172l-.008.133a.9.9,0,0,0,.3.7A1.153,1.153,0,0,0,6.832,16.43ZM14.5,9.547l.07.945A2.971,2.971,0,0,1,17,9.391a2.255,2.255,0,0,1,2.242,1.289,2.9,2.9,0,0,1,2.539-1.289,2.521,2.521,0,0,1,2.047.8A3.681,3.681,0,0,1,24.5,12.6V18H22.23V12.609a1.61,1.61,0,0,0-.281-1.051,1.246,1.246,0,0,0-.992-.332,1.409,1.409,0,0,0-1.406.969l.008,5.8H17.3V12.617a1.59,1.59,0,0,0-.289-1.062,1.259,1.259,0,0,0-.984-.328,1.463,1.463,0,0,0-1.391.8V18H12.379V9.547ZM28.613,18H26.348V9.547h2.266Zm-2.4-10.641a1.112,1.112,0,0,1,.34-.836,1.465,1.465,0,0,1,1.848,0,1.193,1.193,0,0,1,0,1.68,1.448,1.448,0,0,1-1.836,0A1.108,1.108,0,0,1,26.215,7.359Zm8.148,10.8a4.15,4.15,0,0,1-3.027-1.141,4.054,4.054,0,0,1-1.168-3.039v-.219a5.106,5.106,0,0,1,.492-2.277,3.612,3.612,0,0,1,1.395-1.547,3.914,3.914,0,0,1,2.059-.543,3.508,3.508,0,0,1,2.73,1.094,4.444,4.444,0,0,1,1,3.1v.922H32.457a2.1,2.1,0,0,0,.66,1.328,2,2,0,0,0,1.395.5,2.437,2.437,0,0,0,2.039-.945l1.109,1.242a3.389,3.389,0,0,1-1.375,1.121A4.511,4.511,0,0,1,34.363,18.156Zm-.258-6.945a1.411,1.411,0,0,0-1.09.455,2.357,2.357,0,0,0-.535,1.3h3.141v-.181a1.681,1.681,0,0,0-.406-1.165A1.456,1.456,0,0,0,34.105,11.211ZM41.2,9.547l.07.977A2.951,2.951,0,0,1,43.7,9.391a2.453,2.453,0,0,1,2,.789,3.682,3.682,0,0,1,.672,2.359V18H44.113V12.594a1.465,1.465,0,0,0-.312-1.043,1.4,1.4,0,0,0-1.039-.324,1.553,1.553,0,0,0-1.43.813V18H39.074V9.547Zm9.586-2.078V9.547H52.23V11.2H50.785v4.219a1.007,1.007,0,0,0,.18.672.9.9,0,0,0,.688.2,3.6,3.6,0,0,0,.664-.055v1.711a4.648,4.648,0,0,1-1.367.2,2.156,2.156,0,0,1-2.422-2.4V11.2H47.293V9.547h1.234V7.469ZM52.9,13.7a5.013,5.013,0,0,1,.484-2.242A3.546,3.546,0,0,1,54.781,9.93a4.069,4.069,0,0,1,2.113-.539,3.849,3.849,0,0,1,2.793,1.047,4.2,4.2,0,0,1,1.207,2.844l.016.578a4.418,4.418,0,0,1-1.086,3.121,4.209,4.209,0,0,1-5.832,0A4.5,4.5,0,0,1,52.9,13.8Zm2.258.16a3.16,3.16,0,0,0,.453,1.843,1.628,1.628,0,0,0,2.578.008,3.457,3.457,0,0,0,.461-2.015,3.128,3.128,0,0,0-.461-1.831,1.5,1.5,0,0,0-1.3-.649,1.474,1.474,0,0,0-1.281.646A3.516,3.516,0,0,0,55.16,13.856Zm7.258,3.035a1.137,1.137,0,0,1,.363-.875,1.412,1.412,0,0,1,1.828,0,1.137,1.137,0,0,1,.363.875,1.121,1.121,0,0,1-.359.863,1.435,1.435,0,0,1-1.836,0A1.121,1.121,0,0,1,62.418,16.891Z" transform="translate(686.712 1833.34)" fill="#12263f"/>
    <path id="Trazado_172622" data-name="Trazado 172622" d="M-46.621-1.437A4.068,4.068,0,0,1-48.41-.262a7.492,7.492,0,0,1-2.562.418,5.076,5.076,0,0,1-2.59-.645,4.3,4.3,0,0,1-1.719-1.871A6.585,6.585,0,0,1-55.9-5.242v-.773a6.994,6.994,0,0,1,.574-2.949,4.248,4.248,0,0,1,1.656-1.906,4.771,4.771,0,0,1,2.535-.66,4.751,4.751,0,0,1,3.164.965,4.123,4.123,0,0,1,1.352,2.809H-48.9a2.268,2.268,0,0,0-.691-1.43,2.208,2.208,0,0,0-1.473-.453,2.078,2.078,0,0,0-1.82.9A4.724,4.724,0,0,0-53.52-6.07v.727a4.5,4.5,0,0,0,.68,2.7,2.327,2.327,0,0,0,1.992.914,2.6,2.6,0,0,0,1.883-.562V-4.25H-51.1V-5.977h4.477ZM-40.98.156A4.15,4.15,0,0,1-44.008-.984a4.054,4.054,0,0,1-1.168-3.039v-.219a5.106,5.106,0,0,1,.492-2.277,3.612,3.612,0,0,1,1.395-1.547,3.914,3.914,0,0,1,2.059-.543A3.508,3.508,0,0,1-38.5-7.516a4.444,4.444,0,0,1,1,3.1v.922h-5.383a2.1,2.1,0,0,0,.66,1.328,2,2,0,0,0,1.395.5,2.437,2.437,0,0,0,2.039-.945l1.109,1.242A3.389,3.389,0,0,1-39.059-.246,4.511,4.511,0,0,1-40.98.156Zm-.258-6.945a1.411,1.411,0,0,0-1.09.455,2.357,2.357,0,0,0-.535,1.3h3.141v-.181a1.681,1.681,0,0,0-.406-1.165A1.456,1.456,0,0,0-41.238-6.789Zm9.594,4.453a.727.727,0,0,0-.41-.652,4.659,4.659,0,0,0-1.316-.426q-3.016-.633-3.016-2.562a2.323,2.323,0,0,1,.934-1.879,3.766,3.766,0,0,1,2.441-.754,4.053,4.053,0,0,1,2.574.758,2.388,2.388,0,0,1,.965,1.969H-31.73a1.092,1.092,0,0,0-.312-.8A1.322,1.322,0,0,0-33.02-7a1.351,1.351,0,0,0-.883.258.814.814,0,0,0-.312.656.7.7,0,0,0,.355.605,3.657,3.657,0,0,0,1.2.4,9.8,9.8,0,0,1,1.422.379A2.336,2.336,0,0,1-29.449-2.43a2.2,2.2,0,0,1-.992,1.871A4.28,4.28,0,0,1-33,.156a4.47,4.47,0,0,1-1.887-.379,3.166,3.166,0,0,1-1.293-1.039,2.414,2.414,0,0,1-.469-1.426h2.141a1.179,1.179,0,0,0,.445.922,1.766,1.766,0,0,0,1.109.32,1.635,1.635,0,0,0,.98-.246A.766.766,0,0,0-31.645-2.336Zm6.352-8.2v2.078h1.445V-6.8h-1.445v4.219a1.007,1.007,0,0,0,.18.672.9.9,0,0,0,.688.2,3.6,3.6,0,0,0,.664-.055V-.047a4.648,4.648,0,0,1-1.367.2,2.156,2.156,0,0,1-2.422-2.4V-6.8h-1.234V-8.453h1.234v-2.078ZM-20.207,0h-2.266V-8.453h2.266Zm-2.4-10.641a1.112,1.112,0,0,1,.34-.836,1.277,1.277,0,0,1,.926-.328,1.28,1.28,0,0,1,.922.328,1.105,1.105,0,0,1,.344.836,1.108,1.108,0,0,1-.348.844,1.283,1.283,0,0,1-.918.328,1.283,1.283,0,0,1-.918-.328A1.108,1.108,0,0,1-22.605-10.641ZM-18.7-4.3a5.013,5.013,0,0,1,.484-2.242A3.546,3.546,0,0,1-16.82-8.07a4.069,4.069,0,0,1,2.113-.539,3.849,3.849,0,0,1,2.793,1.047,4.2,4.2,0,0,1,1.207,2.844l.016.578A4.418,4.418,0,0,1-11.777-1.02,3.775,3.775,0,0,1-14.691.156a3.793,3.793,0,0,1-2.918-1.172A4.5,4.5,0,0,1-18.7-4.2Zm2.258.16A3.16,3.16,0,0,0-15.988-2.3a1.5,1.5,0,0,0,1.3.638,1.5,1.5,0,0,0,1.281-.63,3.457,3.457,0,0,0,.461-2.015A3.128,3.128,0,0,0-13.41-6.14a1.5,1.5,0,0,0-1.3-.649,1.474,1.474,0,0,0-1.281.646A3.516,3.516,0,0,0-16.441-4.144Zm9.219-4.309.07.977a2.951,2.951,0,0,1,2.43-1.133,2.453,2.453,0,0,1,2,.789,3.682,3.682,0,0,1,.672,2.359V0H-4.309V-5.406a1.465,1.465,0,0,0-.312-1.043A1.4,1.4,0,0,0-5.66-6.773a1.553,1.553,0,0,0-1.43.813V0H-9.348V-8.453ZM4.559,0a2.507,2.507,0,0,1-.227-.758A2.732,2.732,0,0,1,2.2.156,3,3,0,0,1,.141-.562,2.312,2.312,0,0,1-.676-2.375a2.389,2.389,0,0,1,1-2.062A4.915,4.915,0,0,1,3.2-5.164H4.238v-.484a1.393,1.393,0,0,0-.3-.937,1.183,1.183,0,0,0-.949-.352,1.345,1.345,0,0,0-.895.273.929.929,0,0,0-.324.75H-.488A2.268,2.268,0,0,1-.035-7.273a3,3,0,0,1,1.281-.98,4.669,4.669,0,0,1,1.859-.355,3.689,3.689,0,0,1,2.48.785A2.747,2.747,0,0,1,6.5-5.617v3.664A4.041,4.041,0,0,0,6.84-.133V0ZM2.691-1.57a1.945,1.945,0,0,0,.922-.223,1.462,1.462,0,0,0,.625-.6V-3.844H3.395q-1.7,0-1.8,1.172l-.008.133a.9.9,0,0,0,.3.7A1.153,1.153,0,0,0,2.691-1.57Zm10.3-4.766a6.134,6.134,0,0,0-.812-.062,1.654,1.654,0,0,0-1.68.867V0H8.238V-8.453h2.133l.063,1.008a2.092,2.092,0,0,1,1.883-1.164,2.366,2.366,0,0,1,.7.1Zm8.586,4.672a1.481,1.481,0,0,0,1.016-.344A1.2,1.2,0,0,0,23-2.922h2.117a2.9,2.9,0,0,1-.469,1.574A3.093,3.093,0,0,1,23.383-.238a3.949,3.949,0,0,1-1.77.395A3.67,3.67,0,0,1,18.754-1,4.56,4.56,0,0,1,17.707-4.18v-.148a4.508,4.508,0,0,1,1.039-3.117A3.627,3.627,0,0,1,21.6-8.609a3.555,3.555,0,0,1,2.543.9,3.2,3.2,0,0,1,.973,2.4H23a1.551,1.551,0,0,0-.406-1.072,1.354,1.354,0,0,0-1.031-.412,1.36,1.36,0,0,0-1.191.575,3.333,3.333,0,0,0-.4,1.866v.235a3.375,3.375,0,0,0,.4,1.878A1.377,1.377,0,0,0,21.574-1.664ZM28.785,0H26.52V-8.453h2.266Zm-2.4-10.641a1.112,1.112,0,0,1,.34-.836,1.277,1.277,0,0,1,.926-.328,1.28,1.28,0,0,1,.922.328,1.105,1.105,0,0,1,.344.836,1.108,1.108,0,0,1-.348.844,1.283,1.283,0,0,1-.918.328,1.283,1.283,0,0,1-.918-.328A1.108,1.108,0,0,1,26.387-10.641Zm6.961.109v2.078h1.445V-6.8H33.348v4.219a1.007,1.007,0,0,0,.18.672.9.9,0,0,0,.688.2,3.6,3.6,0,0,0,.664-.055V-.047a4.648,4.648,0,0,1-1.367.2,2.156,2.156,0,0,1-2.422-2.4V-6.8H29.855V-8.453H31.09v-2.078ZM40.949,0a2.507,2.507,0,0,1-.227-.758A2.732,2.732,0,0,1,38.59.156a3,3,0,0,1-2.059-.719,2.312,2.312,0,0,1-.816-1.812,2.389,2.389,0,0,1,1-2.062,4.915,4.915,0,0,1,2.879-.727h1.039v-.484a1.393,1.393,0,0,0-.3-.937,1.183,1.183,0,0,0-.949-.352,1.345,1.345,0,0,0-.895.273.929.929,0,0,0-.324.75H35.9a2.268,2.268,0,0,1,.453-1.359,3,3,0,0,1,1.281-.98A4.669,4.669,0,0,1,39.5-8.609a3.689,3.689,0,0,1,2.48.785,2.747,2.747,0,0,1,.918,2.207v3.664a4.041,4.041,0,0,0,.336,1.82V0ZM39.082-1.57A1.945,1.945,0,0,0,40-1.793a1.462,1.462,0,0,0,.625-.6V-3.844h-.844q-1.7,0-1.8,1.172l-.008.133a.9.9,0,0,0,.3.7A1.153,1.153,0,0,0,39.082-1.57Zm10.125-.766a.727.727,0,0,0-.41-.652,4.659,4.659,0,0,0-1.316-.426q-3.016-.633-3.016-2.562A2.323,2.323,0,0,1,45.4-7.855a3.766,3.766,0,0,1,2.441-.754,4.053,4.053,0,0,1,2.574.758,2.388,2.388,0,0,1,.965,1.969H49.121a1.092,1.092,0,0,0-.312-.8A1.322,1.322,0,0,0,47.832-7a1.351,1.351,0,0,0-.883.258.814.814,0,0,0-.312.656.7.7,0,0,0,.355.605,3.657,3.657,0,0,0,1.2.4,9.8,9.8,0,0,1,1.422.379A2.336,2.336,0,0,1,51.4-2.43,2.2,2.2,0,0,1,50.41-.559a4.28,4.28,0,0,1-2.562.715,4.47,4.47,0,0,1-1.887-.379,3.166,3.166,0,0,1-1.293-1.039A2.414,2.414,0,0,1,44.2-2.687H46.34a1.179,1.179,0,0,0,.445.922,1.766,1.766,0,0,0,1.109.32,1.635,1.635,0,0,0,.98-.246A.766.766,0,0,0,49.207-2.336Zm3.766,1.227a1.137,1.137,0,0,1,.363-.875,1.289,1.289,0,0,1,.91-.336,1.3,1.3,0,0,1,.918.336,1.137,1.137,0,0,1,.363.875,1.121,1.121,0,0,1-.359.863,1.305,1.305,0,0,1-.922.332,1.294,1.294,0,0,1-.914-.332A1.121,1.121,0,0,1,52.973-1.109Z" transform="translate(687.832 1941.758)" fill="#12263f"/>
    <path id="Trazado_172623" data-name="Trazado 172623" d="M-59.746-1.437A4.068,4.068,0,0,1-61.535-.262,7.492,7.492,0,0,1-64.1.156a5.076,5.076,0,0,1-2.59-.645,4.3,4.3,0,0,1-1.719-1.871,6.585,6.585,0,0,1-.621-2.883v-.773a6.994,6.994,0,0,1,.574-2.949A4.248,4.248,0,0,1-66.8-10.871a4.771,4.771,0,0,1,2.535-.66,4.751,4.751,0,0,1,3.164.965,4.123,4.123,0,0,1,1.352,2.809h-2.281a2.268,2.268,0,0,0-.691-1.43,2.208,2.208,0,0,0-1.473-.453,2.078,2.078,0,0,0-1.82.9,4.724,4.724,0,0,0-.633,2.672v.727a4.5,4.5,0,0,0,.68,2.7,2.327,2.327,0,0,0,1.992.914,2.6,2.6,0,0,0,1.883-.562V-4.25h-2.133V-5.977h4.477ZM-54.105.156A4.15,4.15,0,0,1-57.133-.984,4.054,4.054,0,0,1-58.3-4.023v-.219a5.106,5.106,0,0,1,.492-2.277,3.612,3.612,0,0,1,1.395-1.547,3.914,3.914,0,0,1,2.059-.543,3.508,3.508,0,0,1,2.73,1.094,4.444,4.444,0,0,1,1,3.1v.922h-5.383a2.1,2.1,0,0,0,.66,1.328,2,2,0,0,0,1.395.5,2.437,2.437,0,0,0,2.039-.945l1.109,1.242A3.389,3.389,0,0,1-52.184-.246,4.511,4.511,0,0,1-54.105.156Zm-.258-6.945a1.411,1.411,0,0,0-1.09.455,2.357,2.357,0,0,0-.535,1.3h3.141v-.181a1.681,1.681,0,0,0-.406-1.165A1.456,1.456,0,0,0-54.363-6.789Zm9.594,4.453a.727.727,0,0,0-.41-.652A4.659,4.659,0,0,0-46.5-3.414q-3.016-.633-3.016-2.562a2.323,2.323,0,0,1,.934-1.879,3.766,3.766,0,0,1,2.441-.754,4.053,4.053,0,0,1,2.574.758A2.388,2.388,0,0,1-42.6-5.883h-2.258a1.092,1.092,0,0,0-.312-.8A1.322,1.322,0,0,0-46.145-7a1.351,1.351,0,0,0-.883.258.814.814,0,0,0-.312.656.7.7,0,0,0,.355.605,3.657,3.657,0,0,0,1.2.4,9.8,9.8,0,0,1,1.422.379A2.336,2.336,0,0,1-42.574-2.43a2.2,2.2,0,0,1-.992,1.871,4.28,4.28,0,0,1-2.562.715,4.47,4.47,0,0,1-1.887-.379,3.166,3.166,0,0,1-1.293-1.039,2.414,2.414,0,0,1-.469-1.426h2.141a1.179,1.179,0,0,0,.445.922,1.766,1.766,0,0,0,1.109.32,1.635,1.635,0,0,0,.98-.246A.766.766,0,0,0-44.77-2.336Zm6.352-8.2v2.078h1.445V-6.8h-1.445v4.219a1.007,1.007,0,0,0,.18.672.9.9,0,0,0,.688.2,3.6,3.6,0,0,0,.664-.055V-.047a4.648,4.648,0,0,1-1.367.2,2.156,2.156,0,0,1-2.422-2.4V-6.8H-41.91V-8.453h1.234v-2.078ZM-33.332,0H-35.6V-8.453h2.266Zm-2.4-10.641a1.112,1.112,0,0,1,.34-.836,1.277,1.277,0,0,1,.926-.328,1.28,1.28,0,0,1,.922.328,1.105,1.105,0,0,1,.344.836,1.108,1.108,0,0,1-.348.844,1.283,1.283,0,0,1-.918.328,1.283,1.283,0,0,1-.918-.328A1.108,1.108,0,0,1-35.73-10.641ZM-31.824-4.3a5.013,5.013,0,0,1,.484-2.242A3.546,3.546,0,0,1-29.945-8.07a4.069,4.069,0,0,1,2.113-.539,3.849,3.849,0,0,1,2.793,1.047,4.2,4.2,0,0,1,1.207,2.844l.016.578A4.418,4.418,0,0,1-24.9-1.02,3.775,3.775,0,0,1-27.816.156a3.793,3.793,0,0,1-2.918-1.172A4.5,4.5,0,0,1-31.824-4.2Zm2.258.16A3.16,3.16,0,0,0-29.113-2.3a1.5,1.5,0,0,0,1.3.638,1.5,1.5,0,0,0,1.281-.63,3.457,3.457,0,0,0,.461-2.015,3.128,3.128,0,0,0-.461-1.831,1.5,1.5,0,0,0-1.3-.649,1.474,1.474,0,0,0-1.281.646A3.516,3.516,0,0,0-29.566-4.144Zm9.219-4.309.07.977a2.951,2.951,0,0,1,2.43-1.133,2.453,2.453,0,0,1,2,.789,3.682,3.682,0,0,1,.672,2.359V0h-2.258V-5.406a1.465,1.465,0,0,0-.312-1.043,1.4,1.4,0,0,0-1.039-.324,1.553,1.553,0,0,0-1.43.813V0h-2.258V-8.453ZM-8.566,0a2.507,2.507,0,0,1-.227-.758,2.732,2.732,0,0,1-2.133.914,3,3,0,0,1-2.059-.719A2.312,2.312,0,0,1-13.8-2.375a2.389,2.389,0,0,1,1-2.062,4.915,4.915,0,0,1,2.879-.727h1.039v-.484a1.393,1.393,0,0,0-.3-.937,1.183,1.183,0,0,0-.949-.352,1.345,1.345,0,0,0-.895.273.929.929,0,0,0-.324.75h-2.258a2.268,2.268,0,0,1,.453-1.359,3,3,0,0,1,1.281-.98,4.669,4.669,0,0,1,1.859-.355,3.689,3.689,0,0,1,2.48.785,2.747,2.747,0,0,1,.918,2.207v3.664a4.041,4.041,0,0,0,.336,1.82V0Zm-1.867-1.57a1.945,1.945,0,0,0,.922-.223,1.462,1.462,0,0,0,.625-.6V-3.844H-9.73q-1.7,0-1.8,1.172l-.008.133a.9.9,0,0,0,.3.7A1.153,1.153,0,0,0-10.434-1.57Zm10.3-4.766A6.134,6.134,0,0,0-.949-6.4a1.654,1.654,0,0,0-1.68.867V0H-4.887V-8.453h2.133l.063,1.008A2.092,2.092,0,0,1-.809-8.609a2.366,2.366,0,0,1,.7.1Zm9.82,0A6.134,6.134,0,0,0,8.871-6.4a1.654,1.654,0,0,0-1.68.867V0H4.934V-8.453H7.066l.063,1.008A2.092,2.092,0,0,1,9.012-8.609a2.366,2.366,0,0,1,.7.1ZM14.66.156A4.15,4.15,0,0,1,11.633-.984a4.054,4.054,0,0,1-1.168-3.039v-.219a5.106,5.106,0,0,1,.492-2.277,3.612,3.612,0,0,1,1.395-1.547,3.914,3.914,0,0,1,2.059-.543,3.508,3.508,0,0,1,2.73,1.094,4.444,4.444,0,0,1,1,3.1v.922H12.754a2.1,2.1,0,0,0,.66,1.328,2,2,0,0,0,1.395.5,2.437,2.437,0,0,0,2.039-.945l1.109,1.242A3.389,3.389,0,0,1,16.582-.246,4.511,4.511,0,0,1,14.66.156ZM14.4-6.789a1.411,1.411,0,0,0-1.09.455,2.357,2.357,0,0,0-.535,1.3h3.141v-.181a1.681,1.681,0,0,0-.406-1.165A1.456,1.456,0,0,0,14.4-6.789ZM27.027-4.148a5.07,5.07,0,0,1-.887,3.129A2.843,2.843,0,0,1,23.746.156a2.633,2.633,0,0,1-2.07-.891V3.25H19.418v-11.7h2.094l.078.828a2.654,2.654,0,0,1,2.141-.984,2.862,2.862,0,0,1,2.43,1.156,5.207,5.207,0,0,1,.867,3.188ZM24.77-4.312a3.327,3.327,0,0,0-.418-1.82,1.361,1.361,0,0,0-1.215-.641,1.478,1.478,0,0,0-1.461.813V-2.5a1.5,1.5,0,0,0,1.477.836Q24.77-1.664,24.77-4.312Zm3.3.008a5.013,5.013,0,0,1,.484-2.242A3.546,3.546,0,0,1,29.953-8.07a4.069,4.069,0,0,1,2.113-.539,3.849,3.849,0,0,1,2.793,1.047,4.2,4.2,0,0,1,1.207,2.844l.016.578A4.418,4.418,0,0,1,35-1.02,3.775,3.775,0,0,1,32.082.156a3.793,3.793,0,0,1-2.918-1.172A4.5,4.5,0,0,1,28.074-4.2Zm2.258.16A3.16,3.16,0,0,0,30.785-2.3a1.5,1.5,0,0,0,1.3.638,1.5,1.5,0,0,0,1.281-.63,3.457,3.457,0,0,0,.461-2.015,3.128,3.128,0,0,0-.461-1.831,1.5,1.5,0,0,0-1.3-.649,1.474,1.474,0,0,0-1.281.646A3.516,3.516,0,0,0,30.332-4.144ZM42.223-6.336A6.134,6.134,0,0,0,41.41-6.4a1.654,1.654,0,0,0-1.68.867V0H37.473V-8.453h2.133l.063,1.008a2.092,2.092,0,0,1,1.883-1.164,2.366,2.366,0,0,1,.7.1Zm4.18-4.2v2.078h1.445V-6.8H46.4v4.219a1.007,1.007,0,0,0,.18.672.9.9,0,0,0,.688.2,3.6,3.6,0,0,0,.664-.055V-.047a4.648,4.648,0,0,1-1.367.2,2.156,2.156,0,0,1-2.422-2.4V-6.8H42.91V-8.453h1.234v-2.078ZM53,.156A4.15,4.15,0,0,1,49.969-.984,4.054,4.054,0,0,1,48.8-4.023v-.219a5.106,5.106,0,0,1,.492-2.277,3.612,3.612,0,0,1,1.395-1.547,3.914,3.914,0,0,1,2.059-.543,3.508,3.508,0,0,1,2.73,1.094,4.444,4.444,0,0,1,1,3.1v.922H51.09a2.1,2.1,0,0,0,.66,1.328,2,2,0,0,0,1.395.5,2.437,2.437,0,0,0,2.039-.945l1.109,1.242A3.389,3.389,0,0,1,54.918-.246,4.511,4.511,0,0,1,53,.156Zm-.258-6.945a1.411,1.411,0,0,0-1.09.455,2.357,2.357,0,0,0-.535,1.3h3.141v-.181a1.681,1.681,0,0,0-.406-1.165A1.456,1.456,0,0,0,52.738-6.789Zm9.594,4.453a.727.727,0,0,0-.41-.652,4.659,4.659,0,0,0-1.316-.426Q57.59-4.047,57.59-5.977a2.323,2.323,0,0,1,.934-1.879,3.766,3.766,0,0,1,2.441-.754,4.053,4.053,0,0,1,2.574.758A2.388,2.388,0,0,1,64.5-5.883H62.246a1.092,1.092,0,0,0-.312-.8A1.322,1.322,0,0,0,60.957-7a1.351,1.351,0,0,0-.883.258.814.814,0,0,0-.312.656.7.7,0,0,0,.355.605,3.657,3.657,0,0,0,1.2.4,9.8,9.8,0,0,1,1.422.379A2.336,2.336,0,0,1,64.527-2.43a2.2,2.2,0,0,1-.992,1.871,4.28,4.28,0,0,1-2.562.715,4.47,4.47,0,0,1-1.887-.379,3.166,3.166,0,0,1-1.293-1.039,2.414,2.414,0,0,1-.469-1.426h2.141a1.179,1.179,0,0,0,.445.922,1.766,1.766,0,0,0,1.109.32A1.635,1.635,0,0,0,62-1.691.766.766,0,0,0,62.332-2.336ZM66.1-1.109a1.137,1.137,0,0,1,.363-.875,1.289,1.289,0,0,1,.91-.336,1.3,1.3,0,0,1,.918.336,1.137,1.137,0,0,1,.363.875,1.121,1.121,0,0,1-.359.863,1.305,1.305,0,0,1-.922.332,1.294,1.294,0,0,1-.914-.332A1.121,1.121,0,0,1,66.1-1.109Z" transform="translate(686.214 2037.623)" fill="#12263f"/>
    <path id="Trazado_6637" data-name="Trazado 6637" d="M387.3,731.345c-20.437,3.122-32.293,5.248-37.005,10.433-5.492,6.038-12.012,8.428-16.447,7.3-8.223-2.087-8.242-5.369-5.825-11.824,4.1-10.947,21.756-17.217,41-17.617,24.243-.5,31.326,1.782,32.6,4.386C404.179,729.252,391.165,730.758,387.3,731.345Z" transform="translate(-37.717 1262.143)" fill="#231f20" opacity="0.29" style="mix-blend-mode: multiply;isolation: isolate"/>
    <g id="Grupo_23507" data-name="Grupo 23507" transform="translate(286.694 1798.414)">
      <path id="Trazado_6638" data-name="Trazado 6638" d="M323.4,635.41s2.325-3.967,20.828-3.271c8.929.336,17.817-1.391,30.838-2.782,7.907-.845.173,5.084.173,5.084l4.493-65.074-7.2-57.21L344.7,515.671Z" transform="translate(-323.396 -473.117)" fill="#b0b4b5"/>
      <path id="Trazado_6639" data-name="Trazado 6639" d="M422.167,543.023a7.153,7.153,0,0,0-.238,2.891s-.983,1.752-2.279,1.675c-6.744-.385-21.345.7-32.328-3.286-6.659-2.421-20.093-21.715-20.093-21.715s-3.372-1.742.386-9.019c2.761-5.325,6.159-9.349,10.442-5.262,2.732,2.605,13.055,21.153,16.645,23.142,6.936,3.85,26.776,5.619,26.776,5.619S423.527,537.415,422.167,543.023Z" transform="translate(-336.752 -471.434)" fill="#c1c7c9"/>
      <path id="Trazado_6640" data-name="Trazado 6640" d="M349.188,732.531a7.862,7.862,0,0,1-.345,5.632s-1.6,1.257-1.847,1.517c-1.489,1.509-6.424,9.445-10.858,9.648-4.837.224-5.133-3.616-4.6-6,.265-1.209,5.888-14.174,5.888-14.174Z" transform="translate(-325.897 -539.19)" fill="#282827"/>
      <path id="Trazado_6641" data-name="Trazado 6641" d="M399.474,708.884s2.071,3.926,3.567,4.609c3.108,1.42,12.077,4.137,12.908,4.446a2.166,2.166,0,0,1,1.442,1.913,1.622,1.622,0,0,1-.278,1.027c-.887,1.3-2.732,1.783-4.414,2.2-4.579,1.125-18.033-1.86-18.453-2.192,0,0-1.375-.3-1.71.39a6.019,6.019,0,0,0-.076,1.221l-4.849-1.625a12.867,12.867,0,0,1-.863-3.521l.191-6.776Z" transform="translate(-343.333 -533.017)" fill="#231f20"/>
      <g id="Grupo_23496" data-name="Grupo 23496" transform="translate(49.12 186.687)">
        <path id="Trazado_6642" data-name="Trazado 6642" d="M419.754,725.051a7.34,7.34,0,0,1-4.583,2.381c-5.527,1.132-18.455-2.052-18.455-2.052-1.107-.146-1.566.248-1.643.914l.007.938c.051-.014,1.549-1.03,1.523-1.036,0,0,12.145,3.151,17.586,2.546,1.715-.2,4.612-1.239,5.617-2.845a1.823,1.823,0,0,0,.172-1.455A5.052,5.052,0,0,1,419.754,725.051Z" transform="translate(-395.073 -724.441)" fill="#282827"/>
      </g>
      <path id="Trazado_6643" data-name="Trazado 6643" d="M396.99,594.413l1.669,80.338c.087,2.68,1.7,3.471,1.645,3.786-.791,4.515-15.245,5.833-16.686,2.411l-5.377-86.285Z" transform="translate(-340.656 -498.162)" fill="#141413"/>
      <path id="Trazado_6644" data-name="Trazado 6644" d="M371.5,594.773l-1.835,22.72-17.29,74.043c-.2,1.583-.989,2.054-2.372,2.407-7.995,2.055-11.248-.8-11.248-.8a2.79,2.79,0,0,1-1.493-2.763l11.456-93.747Z" transform="translate(-327.758 -498.272)" fill="#383736"/>
      <path id="Trazado_6645" data-name="Trazado 6645" d="M344.583,510.033a53.564,53.564,0,0,1,16.789-5.173c3.356-.431,12.69.583,12.69.583s11.923,1.949,13.506,9.9c.161.8,3.593,13.974-2.431,54.1-.585,3.9-8.253,5.538-17.226,4.167-7.394-1.129-18.6-5.56-18.6-5.56s-.742-.5-.148-2.995a87.312,87.312,0,0,0,1.7-21.571C350.361,534.312,344.583,510.033,344.583,510.033Z" transform="translate(-330.063 -470.862)" fill="#63a3c6"/>
      <path id="Trazado_6646" data-name="Trazado 6646" d="M368.766,477.224a2.866,2.866,0,0,1,2.191,3.118l-1.233,5.086a1.55,1.55,0,0,1-1.377,1.037c-1.483-.062-1.8-1.471-2.1-3.014-.021-.087-.336-2.334-.352-2.471C365.62,479.077,366.4,476.634,368.766,477.224Z" transform="translate(-336.754 -462.453)" fill="#ffe8d9"/>
      <path id="Trazado_6647" data-name="Trazado 6647" d="M386.432,524.937a3.146,3.146,0,0,1-.1-1.471l.253-1.84-2.712-3.822-1.229.3-.478,4.5,1.347,1.524c.413.346.369,1.928.375,2.455,0,0,.385,26.868-2.263,37.79-.158.657,3.354,10.335,3.354,10.335s5.4-7.08,5.521-9.279C391.512,546.389,386.432,524.937,386.432,524.937Z" transform="translate(-341.718 -474.837)" fill="#a52619"/>
      <path id="Trazado_6648" data-name="Trazado 6648" d="M379.107,510.439c-4.946,5.076-7.663-3.3-10.943-7.173l1.345-16.007,12.743,3.888-.652,8.262Z" transform="translate(-337.484 -465.536)" fill="#ddbca6"/>
      <path id="Trazado_6649" data-name="Trazado 6649" d="M384.672,513.557a1.877,1.877,0,0,0,.29,1.9l2.521,3.281c.8.983,1.1-.173,1.079-1.238l-.356-7.728c-.654-4.817-1.576-3.916-1.576-3.916s-.047-.262-.253,1.022C386.119,508.521,384.97,512.509,384.672,513.557Z" transform="translate(-342.64 -471.178)" fill="#76c3e3"/>
      <path id="Trazado_6650" data-name="Trazado 6650" d="M379.947,467.264v0l-9.871,1.1,1.722,18.091a7.213,7.213,0,0,0,1.7,3.962,11.1,11.1,0,0,0,3.224,1.982s6.656,2.473,10.165.755c1.45-.706,1.8-2.612,2.15-3.805a36.926,36.926,0,0,0,.776-6.431l.452-8.79-.263-6.968Z" transform="translate(-338.086 -459.417)" fill="#e8c5ac"/>
      <path id="Trazado_6651" data-name="Trazado 6651" d="M386.614,460.564c1.817,2.124,1.294,4.317,1.091,7.768-.072,1.273-.326,2.247-.27,2.291s-.147-1.619-.19-3.05c-.1-3.543-2.161-3.039-3.586-2.711-.045.01-6.347,1.393-6.374,1.442-.077.138.757-2.325.36-2.08a6.738,6.738,0,0,0-3.215,3.505,19.258,19.258,0,0,0-1.018,7.984l.16,1.578c.088.823.191,1.433,0,1.443a2.448,2.448,0,0,1-1.972-1.522,2.98,2.98,0,0,0-3.276-1.519c-1.874.481.014,4.829.151,5.048l-.04,1.306c-.09.914-.875,3.368-1.4,2.3-.889-1.809-2.881-5.762-3.489-6.853-6.652-12,1.789-24.585,14.952-20.775A34.784,34.784,0,0,1,386.614,460.564Z" transform="translate(-335.299 -456.026)" fill="#332107"/>
      <path id="Trazado_6652" data-name="Trazado 6652" d="M369.01,483.954a2.816,2.816,0,0,1,3.42,1.626l1.85,3.722s.1,1.511-.774,1.969c-1.327.689-1.542.605-2.919-.109a11.909,11.909,0,0,1-2.259-1.937C367.178,487.695,366.667,484.62,369.01,483.954Z" transform="translate(-337.23 -464.489)" fill="#e8c5ac"/>
      <path id="Trazado_6653" data-name="Trazado 6653" d="M368.287,502.481a9.131,9.131,0,0,0,.483,2.749c2.349,4.455,8.946,7.3,8.946,7.3a1.736,1.736,0,0,1,1.429,2l-.778,5.3c-.078,1.324-.759,1.214-1.294.7,0,0-5.377-4.338-6.9-5.8-3.576-3.454-3.25-5.966-2.591-10.644C367.766,502.762,368.287,502.481,368.287,502.481Z" transform="translate(-337.17 -470.171)" fill="#76c3e3"/>
      <g id="Grupo_23497" data-name="Grupo 23497" transform="translate(80.345 63.094)">
        <path id="Trazado_6654" data-name="Trazado 6654" d="M445.193,550.544s1.361-.519,1.821.152,1.323,2.239.655,6.1a9.246,9.246,0,0,1-1.205,2.967c-.31.5-1.216,1.545-1.9,1.338-.5-.152-.983-.542-1.489-1.839-1.07-2.753-.208-6.326.346-6.967S445.193,550.544,445.193,550.544Z" transform="translate(-441.245 -547.841)" fill="#48819b"/>
        <path id="Trazado_6655" data-name="Trazado 6655" d="M441.034,557.832l6,.133-.291-7.032-3.258-.012Z" transform="translate(-440.762 -548.013)" fill="#e8c5ac"/>
        <path id="Trazado_6656" data-name="Trazado 6656" d="M445.456,550.335s-2.321.116-2.969,4.529a9.989,9.989,0,0,0,.334,5.149,1.744,1.744,0,0,0,1.17,1.078l-1.889-.24s-1.526-1.061-1.463-4.452c.092-5.026,3.22-6.09,3.22-6.09Z" transform="translate(-440.637 -547.827)" fill="#63a3c6"/>
        <path id="Trazado_6657" data-name="Trazado 6657" d="M447.766,550.657c.471-1.194,1.017-2.24,4.943-3.916a.8.8,0,0,0,.735.722c1.673.254,2.882,1.459,4.177,2.476.493.75-.042.387-.306.344-2.111-.352-2.319-.526-2.6.013-.766,1.468-2.538,3.59-4.48,3.079S447.337,551.754,447.766,550.657Z" transform="translate(-442.849 -546.741)" fill="#e8c5ac"/>
      </g>
      <path id="Trazado_6658" data-name="Trazado 6658" d="M323.4,633.833l11.486-66.059,1.127-40,.62-16.28c3.255-2.3,11-4.515,11-4.515a63.844,63.844,0,0,0,5.242,11.377c1.383,2.244,2.956,35.019,2.956,59.248l-4,53.2c.663,6.193-3.349,7.112-4.772,7.625-1.713.613-8.154-.31-8.154-.31C329.638,636.694,323.23,633.282,323.4,633.833Z" transform="translate(-323.394 -471.54)" fill="#dbdddd"/>
      <path id="Trazado_6659" data-name="Trazado 6659" d="M394.346,521.3c-3.242-8.424-5.236-13.793-6.745-15.57A20.2,20.2,0,0,1,394.163,507c.086.052,4.831,2.291,6.425,5.826,2.329,5.165,2.159,9.935,3.611,17.037,4.389,21.459-.576,94.057-.576,94.057.066,1.646,0,3.6-1.682,5.054a45.719,45.719,0,0,1-6.5,3.5S403.155,544.215,394.346,521.3Z" transform="translate(-343.601 -471.154)" fill="#d8d8d8"/>
      <path id="Trazado_6660" data-name="Trazado 6660" d="M388.507,508.041l-.906-2.3a10.828,10.828,0,0,1,1.14.568c1.469.8,4,3.892,4,3.892l4.158,5.657c.455,1.209,1.678,2.062.811,4.219l-1.512,4.136,2.669,1.672c1.253.9,2.318,2.655,2.117,6.025l-2.715,19.159S396.729,529,395.292,524.42A87.667,87.667,0,0,0,388.507,508.041Z" transform="translate(-343.601 -471.164)" fill="#fff"/>
      <path id="Trazado_6661" data-name="Trazado 6661" d="M358.215,506.624l-1.115.35s-1.629.5-2.429,3.106a18.368,18.368,0,0,0-.2,3.906l2.427,8.731c.5,1.87,1.17,2.493,2.562,2.6l3.959,1.588-2.509,2.008c-1.087.764-1.923,1.274-.5,4.839l4.806,20.1s1.579-20.587-.955-30.545A109.619,109.619,0,0,0,358.215,506.624Z" transform="translate(-333.168 -471.432)" fill="#fff"/>
      <g id="Grupo_23499" data-name="Grupo 23499" transform="translate(6.018 41.938)">
        <path id="Trazado_6662" data-name="Trazado 6662" d="M340.432,516.352c-6.885.666-6.691,16.9-6.691,16.9s-3.483,23.945-.058,27.01c4.03,3.606,28.99,4.884,37.183,6.22,4.4.717.661-6.886.661-6.886-.063-.974-31.45-4.47-30.478-6.811,2.912-7.014,3.576-21.454,3.426-22.778C343.863,524.185,346.428,515.777,340.432,516.352Z" transform="translate(-332.176 -516.324)" fill="#edcfbc"/>
        <g id="Grupo_23498" data-name="Grupo 23498" transform="translate(35.71 40.566)">
          <path id="Trazado_6663" data-name="Trazado 6663" d="M387.312,582.34c2.063.47,4.071-2.027,4.493-3.939.159-.681,4.132-.165,5.783-.819a1.789,1.789,0,0,0,.815-2.835c-.313-.288-6.371.151-7.89.2-5.1.182-5.726,2.1-6.138,4.01C383.921,580.881,385.256,581.84,387.312,582.34Z" transform="translate(-384.286 -574.649)" fill="#edcfbc"/>
          <path id="Trazado_6664" data-name="Trazado 6664" d="M388.636,585.237l.384-2.53,4.149-4.789s.94.707,4.173,1.225c2.44.39,3.267.649,5.417,1.045,2.042.374,3.476.625,3.243,1.118a5.354,5.354,0,0,1-1.841,2.261c-1.028.869-2.4,2.29-2.4,2.29C399.751,587.2,393.061,587.009,388.636,585.237Z" transform="translate(-385.655 -575.645)" fill="#edcfbc"/>
        </g>
      </g>
      <path id="Trazado_6665" data-name="Trazado 6665" d="M366.145,567.639c-1.886.206-31.069-3.142-34.949-4.521-3.426-1.217-3.144-4.5-3.084-8.694.171-12,4.054-32.341,4.054-32.341.771-3.912,3.82-10.826,8.795-8.462,4.7,2.233,4.077,17.73,4.054,19.127-.057,3.535-3.54,19.416-3.54,19.416l27.3,4.463S372.035,566.995,366.145,567.639Z" transform="translate(-324.869 -473.416)" fill="#f4f4f4"/>
      <g id="Grupo_23506" data-name="Grupo 23506" transform="translate(63.528 48.284)">
        <g id="Grupo_23502" data-name="Grupo 23502">
          <g id="Grupo_23501" data-name="Grupo 23501" style="isolation: isolate">
            <g id="Grupo_23500" data-name="Grupo 23500">
              <path id="Trazado_6666" data-name="Trazado 6666" d="M426.518,531.365a2.029,2.029,0,0,0-1.473,1.4l-8.924,29.953c-.09.3.11.521.254.756.2.323.85,1.008,1.054.961l18.742-6.758a2.03,2.03,0,0,0,1.473-1.4l9.994-29.388c-.557-.565-1.362-1.55-1.868-1.431Z" transform="translate(-416.097 -525.448)" fill="#aeafaf"/>
            </g>
          </g>
        </g>
        <g id="Grupo_23505" data-name="Grupo 23505" transform="translate(1.649 1.497)">
          <g id="Grupo_23504" data-name="Grupo 23504" style="isolation: isolate">
            <g id="Grupo_23503" data-name="Grupo 23503">
              <path id="Trazado_6667" data-name="Trazado 6667" d="M428.93,533.526a2.03,2.03,0,0,0-1.473,1.4l-8.924,29.953a.681.681,0,0,0,.8.866l19.252-5.906a2.03,2.03,0,0,0,1.473-1.4l8.924-29.954a.681.681,0,0,0-.8-.866Z" transform="translate(-418.504 -527.601)" fill="#7a7c7c"/>
            </g>
          </g>
        </g>
      </g>
      <path id="Trazado_6668" data-name="Trazado 6668" d="M445.522,552.822c.349-.447.413-.48.664-.766a2.614,2.614,0,0,1,2.568-.869l1.778.469a4.153,4.153,0,0,0,2.5-.215c.57-.212,1.562-.591,1.562-.591s4.008.351,2.757,2.938a3.7,3.7,0,0,1-1.292,1.354c-.391,1.152-1.288,3.032-1.8,4.288-1.187,2.919-5.063,1.6-5.063,1.6l-2.575-.624C444.035,558.387,443.173,555.2,445.522,552.822Z" transform="translate(-361.398 -484.898)" fill="#e8c5ac"/>
    </g>
    <path id="Trazado_6669" data-name="Trazado 6669" d="M8925.686,1730H8793v297.1h132.686" transform="translate(-8347.702 11.018)" fill="none" stroke="#4dd0e1" stroke-width="2"/>
    <path id="Trazado_6670" data-name="Trazado 6670" d="M8835.644,1817.333H8703.333" transform="translate(-8257.661 23.353)" fill="none" stroke="#4dd0e1" stroke-width="2"/>
    <path id="Trazado_6671" data-name="Trazado 6671" d="M8835.644,1817.333H8703.333" transform="translate(-8257.661 120.358)" fill="none" stroke="#4dd0e1" stroke-width="2"/>
    <path id="Trazado_6672" data-name="Trazado 6672" d="M8664,1862.5h43.479" transform="translate(-8262.557 29.732)" fill="none" stroke="#4dd0e1" stroke-width="2"/>
    <path id="Trazado_172624" data-name="Trazado 172624" d="M32.27,0c17.822,0,32.27,8.466,32.27,18.91s-14.448,18.91-32.27,18.91S0,29.353,0,18.91,14.448,0,32.27,0Z" transform="translate(1023.483 1973.674)" fill="#bfb7a3"/>
    <g id="Grupo_23523" data-name="Grupo 23523" transform="translate(1028.066 1798.414)">
      <g id="Grupo_23511" data-name="Grupo 23511" transform="translate(6.136 100.513)">
        <g id="Grupo_23510" data-name="Grupo 23510" transform="translate(0 75.637)">
          <path id="Trazado_6673" data-name="Trazado 6673" d="M644.065,435.264a11.126,11.126,0,0,1,.836,2.425c.053.737-.689,1.274-3.815,2.35s-4.451,3.334-8.16,4.516-9.091.3-9.023-1.785l7.645-1.531Z" transform="translate(-623.902 -431.546)" fill="#0e171c"/>
          <path id="Trazado_6674" data-name="Trazado 6674" d="M634.978,431.942S629,438.2,624.421,441.269a1.178,1.178,0,0,0,.45,2.135,34.626,34.626,0,0,0,5.539.461c4.894,0,4.4-2.98,9.132-4.8s6.023-.523,3.258-7.695Z" transform="translate(-623.902 -431.368)" fill="#1a2933"/>
          <path id="Trazado_6675" data-name="Trazado 6675" d="M633.5,434.13s.287,1.627,2.852,2.169" transform="translate(-624.477 -431.495)" fill="none" stroke="#0e171c" stroke-miterlimit="10" stroke-width="1"/>
          <path id="Trazado_6676" data-name="Trazado 6676" d="M634.947,432.642a12.646,12.646,0,0,0-1.139,3.914" transform="translate(-624.495 -431.426)" fill="none" stroke="#0e171c" stroke-miterlimit="10" stroke-width="1"/>
          <path id="Trazado_6677" data-name="Trazado 6677" d="M630.842,436.618" transform="translate(-624.318 -431.608)" fill="none" stroke="#241e1b" stroke-miterlimit="10" stroke-width="0.591"/>
          <path id="Trazado_6678" data-name="Trazado 6678" d="M628.446,438.709" transform="translate(-624.174 -431.704)" fill="none" stroke="#241e1b" stroke-miterlimit="10" stroke-width="0.591"/>
          <path id="Trazado_6679" data-name="Trazado 6679" d="M631.346,438.752" transform="translate(-624.348 -431.706)" fill="none" stroke="#241e1b" stroke-miterlimit="10" stroke-width="0.591"/>
        </g>
        <path id="Trazado_6680" data-name="Trazado 6680" d="M629.313,352.1s1.961,25.635,2.833,33.849,2.088,42.316,2.088,42.316a14.787,14.787,0,0,0,10.331,0s3.76-15.4,3.079-23.867-1.444-7.9-1.312-11.534.808-24.452,1-33.028Z" transform="translate(-624.226 -352.101)" fill="#1a2933"/>
      </g>
      <g id="Grupo_23513" data-name="Grupo 23513" transform="translate(10.408 100.513)">
        <g id="Grupo_23512" data-name="Grupo 23512" transform="translate(22.851 86.357)">
          <path id="Trazado_6681" data-name="Trazado 6681" d="M663.212,442.6a7.016,7.016,0,0,1,.782,2.719c.328,2.1.654,5.377,1.206,7.8s1.5,3.98-.772,6.507-5.3,4.409-7.842,3.98a4.672,4.672,0,0,1-3.55-6.239Z" transform="translate(-652.751 -442.602)" fill="#0e171c"/>
          <path id="Trazado_6682" data-name="Trazado 6682" d="M656.038,442.6a7.558,7.558,0,0,0,7.192,0s.1,2.074.867,7.075c.5,3.28,1.989,5.795.425,8.279s-5.324,5.569-8,4.741-4.082-3.974-3.214-5.961A54.764,54.764,0,0,0,656.038,442.6Z" transform="translate(-652.769 -442.602)" fill="#1a2933"/>
          <path id="Trazado_6683" data-name="Trazado 6683" d="M662.595,450.852a7.157,7.157,0,0,0-6.019-.94" transform="translate(-652.98 -442.922)" fill="none" stroke="#0e171c" stroke-miterlimit="10" stroke-width="1"/>
          <path id="Trazado_6684" data-name="Trazado 6684" d="M662.595,448.146s-4.238,1.338-6.019,3.326" transform="translate(-652.98 -442.856)" fill="none" stroke="#0e171c" stroke-miterlimit="10" stroke-width="1"/>
        </g>
        <path id="Trazado_6685" data-name="Trazado 6685" d="M662.141,352.1s3.456,14.108,1.6,41.219c0,0,3.919,19.5,0,45.984,0,0-4.568,3.406-11.9,0,0,0-1.052-26.626-1.329-32.643s-.278-9.94-1.112-13.341-6-25.814-6-25.814-13.578-7.59-14.954-15.4Z" transform="translate(-628.446 -352.101)" fill="#263c4a"/>
      </g>
      <path id="Trazado_6686" data-name="Trazado 6686" d="M637,279.523c-1.452.7-11.161,5.99-14.53,14.85s-7,23.078-3.935,26.761,12.572-2.877,12.572-2.877Z" transform="translate(-617.375 -248.264)" fill="#943232"/>
      <g id="Grupo_23517" data-name="Grupo 23517" transform="translate(8.371 17.413)">
        <path id="Trazado_6687" data-name="Trazado 6687" d="M662.844,355.933a46.079,46.079,0,0,1-17.024,2.948,48.168,48.168,0,0,1-15.4-2.337,11.562,11.562,0,0,1-1.977-4.444h33.695S662.456,353.394,662.844,355.933Z" transform="translate(-626.409 -269.001)" fill="#3d312f"/>
        <path id="Trazado_6688" data-name="Trazado 6688" d="M635.778,358.339l1.193.211a2.32,2.32,0,0,0,2.672-1.906h0a2.348,2.348,0,0,0-1.878-2.712l-1.193-.212a2.32,2.32,0,0,0-2.672,1.906h0A2.349,2.349,0,0,0,635.778,358.339Z" transform="translate(-626.733 -269.073)" fill="#fff"/>
        <path id="Trazado_6689" data-name="Trazado 6689" d="M627.917,342.962c-.946-16.436.473-38.287.473-38.287s.027-14.942,4.588-20.567,8.6-5.433,8.6-5.433l14.669,2.155a56.046,56.046,0,0,0,7.574,3.055s-1.157,10.6-1.94,20.139c-1.042,12.7-2.157,24.065-1.039,33.1.348,2.807.716,2.738,1.028,5.608h0a6.84,6.84,0,0,1,.743,7.072c-23.2,4.042-33.7-.849-34.223,0a9.674,9.674,0,0,1-.474-6.844Z" transform="translate(-626.353 -265.639)" fill="#9bc1db"/>
        <g id="Grupo_23514" data-name="Grupo 23514" transform="translate(0 12.805)">
          <path id="Trazado_6690" data-name="Trazado 6690" d="M641.466,278.433s-6.545,8.7-8.172,17.013-2.627,40.268-1.133,60.063c0,0-2.9.767-5.883-2.82,0,0,.1-24.229.568-33.6C627.443,307.066,625.57,279.992,641.466,278.433Z" transform="translate(-626.279 -278.433)" fill="#ba3f3f"/>
          <path id="Trazado_6691" data-name="Trazado 6691" d="M631.681,321.343s-1.282-28.067,9.912-42.91c0,0-9.934,11.915-12.335,18.412a19.808,19.808,0,0,0,2.4,3.043l-3.268,5.883Z" transform="translate(-626.405 -278.433)" fill="#943232"/>
        </g>
        <g id="Grupo_23515" data-name="Grupo 23515" transform="translate(14.997 13.911)">
          <path id="Trazado_6692" data-name="Trazado 6692" d="M656.07,279.592s6.116,1.585,8.645,4.335L661.9,317.142s-.226,17.473,1.778,23.519a43.441,43.441,0,0,1,1.72,13.244s-7.213,4.607-22.968,2.448c0,0-.039-30.058.9-46.124S650.143,289.637,656.07,279.592Z" transform="translate(-642.243 -279.592)" fill="#ba3f3f"/>
          <path id="Trazado_6693" data-name="Trazado 6693" d="M656.058,279.592l-1.214,21.481-5.767,2.9,2.694,6.261-8.983,13.758S638.075,295.828,656.058,279.592Z" transform="translate(-642.231 -279.592)" fill="#943232"/>
        </g>
        <path id="Trazado_6694" data-name="Trazado 6694" d="M642.046,292.462s-8.172,22.281-5.568,59.046" transform="translate(-626.859 -266.27)" fill="none" stroke="#7390a3" stroke-miterlimit="10" stroke-width="1"/>
        <g id="Grupo_23516" data-name="Grupo 23516" transform="translate(11.252)">
          <path id="Trazado_6695" data-name="Trazado 6695" d="M642.06,278.572c.057-4.279-.118-9-.118-9l11.912-4.564s.807,12.99.922,14.159-4.7,5.149-8.459,6.436a10.18,10.18,0,0,1-2.019.512l.009.035-1.953,5.049-.831-5.5S640.325,283.235,642.06,278.572Z" transform="translate(-638.419 -265.013)" fill="#ffbe92"/>
          <path id="Trazado_6696" data-name="Trazado 6696" d="M653.876,265.366c.006.089.012.2.02.316.049.778.135,2.16.237,3.768-2.37,4.152-8.85,10.843-13,13.384a13.946,13.946,0,0,1,.93-4.262c.057-4.279-.118-9-.118-9l11.912-4.564,0,.064C653.862,265.132,653.866,265.219,653.876,265.366Z" transform="translate(-638.42 -265.013)" fill="#e0a780"/>
          <path id="Trazado_6697" data-name="Trazado 6697" d="M641.351,286.272l-3.1,1.569s.822-7.681,3.523-10.49l.413,1.032S640.523,284.516,641.351,286.272Z" transform="translate(-638.247 -265.578)" fill="#cbe7fa"/>
          <path id="Trazado_6698" data-name="Trazado 6698" d="M654.877,278.433s-1.677,6.318-10.376,8.3l2.792,3.613a25.9,25.9,0,0,0,9.971-9.53A9.445,9.445,0,0,0,654.877,278.433Z" transform="translate(-638.621 -265.628)" fill="#cbe7fa"/>
        </g>
      </g>
      <g id="Grupo_23519" data-name="Grupo 23519" transform="translate(14.058)">
        <g id="Grupo_23518" data-name="Grupo 23518" transform="translate(1.329 1.702)">
          <path id="Trazado_6699" data-name="Trazado 6699" d="M638.066,250.947a5.33,5.33,0,0,1,1.764-1.153c7.881-3.075,15.172-.689,16.329,9.744,1.195,10.777-11.868,18.571-16.251,19.072s-6.734-12.6-6.049-18.678A14.625,14.625,0,0,1,638.066,250.947Z" transform="translate(-633.741 -248.548)" fill="#ffbe92"/>
        </g>
        <path id="Trazado_6700" data-name="Trazado 6700" d="M654.741,266.73s1.43-6.826-1.422-7.113-4.767,5.586-4.767,5.586a14.654,14.654,0,0,1,0-7.305s-5.149,3.009-16.224,2.292a39.027,39.027,0,0,1,2.9-7.878c1.832-3.438,5.481-6.446,13.325-5.3s7.142,6.589,7.142,6.589.748.562,1.736,3.146S656.718,263.563,654.741,266.73Z" transform="translate(-632.328 -246.764)" fill="#544340"/>
      </g>
      <g id="Grupo_23522" data-name="Grupo 23522" transform="translate(0.274 35.66)">
        <path id="Trazado_6701" data-name="Trazado 6701" d="M632.381,312.161s-5.294-4.722-7.714-5.076-3.4-.425-3.884.283,5.145,3.68,5.145,3.68-6.087-2.987-7.167-2.113,4.881,4.023,4.881,4.023-4.881-2.052-5.857-1.2,4.462,3.539,4.462,3.539Z" transform="translate(-617.667 -285.174)" fill="#ffbe92"/>
        <path id="Trazado_6702" data-name="Trazado 6702" d="M657.289,332.652s.546,3.539-.57,3.61-3.068-2.548-3.068-2.548-1.266,1.556-2.063,1.2-1.842-3.469-1.842-3.469-.27,2.831-.832,2.761-2.445-3.892-2.445-3.892Z" transform="translate(-619.39 -286.25)" fill="#ffbe92"/>
        <path id="Trazado_6703" data-name="Trazado 6703" d="M645.885,312.726c.181.141,8.159,1.485,10.489,8.845H651.13Z" transform="translate(-619.355 -285.444)" fill="#ffbe92"/>
        <g id="Grupo_23521" data-name="Grupo 23521" transform="translate(9.1)">
          <g id="Grupo_23520" data-name="Grupo 23520">
            <path id="Trazado_6704" data-name="Trazado 6704" d="M628.98,310.819a.3.3,0,0,0-.266.192c-.389.98-2.163,5.862-.95,10.654a.318.318,0,0,0,.31.246c2.148-.037,31.9,17.436,38.167,7.839a80.444,80.444,0,0,0,5.593-30.329c-.166-9.565-2.1-13.17-8.023-15.286,0,0-5.831,6.474-5.225,21.556a26.264,26.264,0,0,1-4.314,12.661Z" transform="translate(-627.346 -284.135)" fill="#a63838"/>
          </g>
        </g>
        <path id="Trazado_6705" data-name="Trazado 6705" d="M618.57,322.584c.925,1.615,2.711,4.48,12.489.259,7.3-3.153,20.437-2.343,20.437-2.343s-.325-6.482-1.537-8.268c-3-.936-10.947-1.174-13.66-.973-6.811.5-12.416,1.159-14.866,3.06C617.649,317.255,617.5,320.724,618.57,322.584Z" transform="translate(-617.687 -285.374)" fill="#943232"/>
      </g>
    </g>
    <path id="Trazado_6706" data-name="Trazado 6706" d="M9034,1902.333h99.7v93.2H9034" transform="translate(-8216.508 35.358)" fill="none" stroke="#4dd0e1" stroke-width="2"/>
    <path id="Trazado_6707" data-name="Trazado 6707" d="M9122.667,1940h92.205" transform="translate(-8205.474 40.679)" fill="none" stroke="#4dd0e1" stroke-linecap="round" stroke-width="2"/>
  </g>
</svg>
