<svg xmlns="http://www.w3.org/2000/svg" xmlns:xlink="http://www.w3.org/1999/xlink" width="400" height="174" viewBox="0 0 400 174">
  <defs>
    <clipPath id="clip-path">
      <rect id="Rectángulo_5832" data-name="Rectángulo 5832" width="400" height="174" transform="translate(1020 16784)" fill="#fff6db"/>
    </clipPath>
  </defs>
  <g id="Grupo_128084" data-name="Grupo 128084" transform="translate(-1020 -16551)">
    <path id="Trazado_172608" data-name="Trazado 172608" d="M10,0H390a10,10,0,0,1,10,10V164a10,10,0,0,1-10,10H10A10,10,0,0,1,0,164V10A10,10,0,0,1,10,0Z" transform="translate(1020 16551)" fill="#fff6db"/>
    <g id="Enmascarar_grupo_310" data-name="Enmascarar grupo 310" transform="translate(0 -233)" clip-path="url(#clip-path)">
      <g id="Grupo_23527" data-name="Grupo 23527" transform="translate(547.597 16547.527)">
        <ellipse id="Elipse_1317" data-name="Elipse 1317" cx="59.902" cy="34.584" rx="59.902" ry="34.584" transform="translate(612.501 567.303)" fill="#bfb7a3"/>
        <g id="Grupo_23523" data-name="Grupo 23523" transform="translate(621.008 246.764)">
          <g id="Grupo_23511" data-name="Grupo 23511" transform="translate(11.391 183.832)">
            <g id="Grupo_23510" data-name="Grupo 23510" transform="translate(0 138.335)">
              <path id="Trazado_6673" data-name="Trazado 6673" d="M661.329,435.264a20.15,20.15,0,0,1,1.552,4.434c.1,1.347-1.279,2.33-7.082,4.3s-8.262,6.1-15.147,8.26-16.876.552-16.748-3.265l14.192-2.8Z" transform="translate(-623.902 -428.465)" fill="#0e171c"/>
              <path id="Trazado_6674" data-name="Trazado 6674" d="M644.461,432.419s-11.1,11.454-19.6,17.057a2.145,2.145,0,0,0,.836,3.9,65.216,65.216,0,0,0,10.283.843c9.084,0,8.162-5.45,16.951-8.782s11.18-.956,6.047-14.073Z" transform="translate(-623.901 -431.368)" fill="#1a2933"/>
              <path id="Trazado_6675" data-name="Trazado 6675" d="M633.5,434.13s.532,2.976,5.293,3.967" transform="translate(-616.748 -429.31)" fill="none" stroke="#0e171c" stroke-miterlimit="10" stroke-width="1"/>
              <path id="Trazado_6676" data-name="Trazado 6676" d="M635.921,432.642a22.888,22.888,0,0,0-2.113,7.159" transform="translate(-616.521 -430.419)" fill="none" stroke="#0e171c" stroke-miterlimit="10" stroke-width="1"/>
              <path id="Trazado_6677" data-name="Trazado 6677" d="M630.842,436.618" transform="translate(-618.731 -427.456)" fill="none" stroke="#241e1b" stroke-miterlimit="10" stroke-width="0.591"/>
              <path id="Trazado_6678" data-name="Trazado 6678" d="M628.446,438.709" transform="translate(-620.516 -425.898)" fill="none" stroke="#241e1b" stroke-miterlimit="10" stroke-width="0.591"/>
              <path id="Trazado_6679" data-name="Trazado 6679" d="M631.346,438.752" transform="translate(-618.355 -425.866)" fill="none" stroke="#241e1b" stroke-miterlimit="10" stroke-width="0.591"/>
            </g>
            <path id="Trazado_6680" data-name="Trazado 6680" d="M629.313,352.1s3.641,46.884,5.258,61.907,3.876,77.394,3.876,77.394,9.64,3.928,19.176,0c0,0,6.979-28.165,5.715-43.65s-2.681-14.452-2.434-21.094,1.5-44.722,1.853-60.406Z" transform="translate(-619.87 -352.101)" fill="#1a2933"/>
          </g>
          <g id="Grupo_23513" data-name="Grupo 23513" transform="translate(19.32 183.832)">
            <g id="Grupo_23512" data-name="Grupo 23512" transform="translate(42.416 157.941)">
              <path id="Trazado_6681" data-name="Trazado 6681" d="M672.17,442.6s.845,1.138,1.452,4.974,1.213,9.834,2.239,14.26,2.776,7.279-1.433,11.9-9.836,8.065-14.557,7.279a8.538,8.538,0,0,1-6.59-11.41Z" transform="translate(-652.751 -442.602)" fill="#0e171c"/>
              <path id="Trazado_6682" data-name="Trazado 6682" d="M658.592,442.6a14.21,14.21,0,0,0,13.35,0s.194,3.794,1.609,12.941c.928,6,3.693,10.6.789,15.141s-9.883,10.185-14.845,8.672-7.578-7.269-5.967-10.9S658.109,452.373,658.592,442.6Z" transform="translate(-652.524 -442.602)" fill="#1a2933"/>
              <path id="Trazado_6683" data-name="Trazado 6683" d="M667.749,451.9s-5.157-3.7-11.173-1.719" transform="translate(-649.9 -437.393)" fill="none" stroke="#0e171c" stroke-miterlimit="10" stroke-width="1"/>
              <path id="Trazado_6684" data-name="Trazado 6684" d="M667.749,448.146s-7.867,2.447-11.173,6.084" transform="translate(-649.9 -438.471)" fill="none" stroke="#0e171c" stroke-miterlimit="10" stroke-width="1"/>
            </g>
            <path id="Trazado_6685" data-name="Trazado 6685" d="M690.992,352.1s6.415,25.8,2.963,75.387c0,0,7.274,35.666,0,84.1,0,0-8.48,6.229-22.087,0,0,0-1.953-48.7-2.468-59.7s-.516-18.18-2.065-24.4S656.2,380.275,656.2,380.275,631,366.394,628.446,352.1Z" transform="translate(-628.446 -352.101)" fill="#263c4a"/>
          </g>
          <path id="Trazado_6686" data-name="Trazado 6686" d="M653.8,279.523c-2.694,1.281-20.717,10.956-26.972,27.16s-13,42.207-7.305,48.944,23.337-5.262,23.337-5.262Z" transform="translate(-617.375 -222.353)" fill="#943232"/>
          <g id="Grupo_23517" data-name="Grupo 23517" transform="translate(15.538 31.848)">
            <path id="Trazado_6687" data-name="Trazado 6687" d="M692.3,359.11c-8.26,3.342-19.37,5.393-31.6,5.393a90.636,90.636,0,0,1-28.581-4.274,21,21,0,0,1-3.67-8.127l62.546,0S691.576,354.466,692.3,359.11Z" transform="translate(-624.664 -200.117)" fill="#3d312f"/>
            <path id="Trazado_6688" data-name="Trazado 6688" d="M637.416,362.2l2.214.386a4.3,4.3,0,0,0,4.96-3.487h0a4.3,4.3,0,0,0-3.487-4.96l-2.215-.387a4.3,4.3,0,0,0-4.96,3.487h0A4.3,4.3,0,0,0,637.416,362.2Z" transform="translate(-620.626 -198.937)" fill="#fff"/>
            <path id="Trazado_6689" data-name="Trazado 6689" d="M628.261,396.252c-1.756-30.061.878-70.024.878-70.024s.051-27.328,8.516-37.616,15.967-9.937,15.967-9.937l27.228,3.941a104.972,104.972,0,0,0,14.059,5.588s-2.148,19.391-3.6,36.834c-1.934,23.228-4,44.013-1.928,60.542.646,5.134,1.33,5.007,1.907,10.256h0a12.369,12.369,0,0,1,1.379,12.934c-43.059,7.393-62.556-1.553-63.526,0a17.461,17.461,0,0,1-.88-12.516Z" transform="translate(-625.357 -254.833)" fill="#9bc1db"/>
            <g id="Grupo_23514" data-name="Grupo 23514" transform="translate(0 23.42)">
              <path id="Trazado_6690" data-name="Trazado 6690" d="M654.471,278.433s-12.15,15.916-15.169,31.115-4.876,73.648-2.1,109.85c0,0-5.391,1.4-10.92-5.157,0,0,.19-44.314,1.054-61.453C628.439,330.8,624.963,281.285,654.471,278.433Z" transform="translate(-626.279 -278.433)" fill="#ba3f3f"/>
              <path id="Trazado_6691" data-name="Trazado 6691" d="M634.5,356.912s-2.38-51.333,18.4-78.479c0,0-18.44,21.792-22.9,33.675.778,1.693,4.457,5.565,4.457,5.565l-6.066,10.759Z" transform="translate(-624.705 -278.433)" fill="#943232"/>
            </g>
            <g id="Grupo_23515" data-name="Grupo 23515" transform="translate(27.839 25.443)">
              <path id="Trazado_6692" data-name="Trazado 6692" d="M667.747,279.592s11.352,2.9,16.047,7.928l-5.22,60.748s-.419,31.958,3.3,43.015,3.194,24.223,3.194,24.223-13.389,8.426-42.635,4.476c0,0-.073-54.975,1.665-84.359S656.745,297.963,667.747,279.592Z" transform="translate(-642.08 -279.592)" fill="#ba3f3f"/>
              <path id="Trazado_6693" data-name="Trazado 6693" d="M667.9,279.592l-2.253,39.288-10.7,5.295,5,11.45-16.675,25.162S634.516,309.286,667.9,279.592Z" transform="translate(-642.231 -279.592)" fill="#943232"/>
            </g>
            <path id="Trazado_6694" data-name="Trazado 6694" d="M647.252,292.462s-15.169,40.75-10.335,107.992" transform="translate(-619.06 -244.558)" fill="none" stroke="#7390a3" stroke-miterlimit="10" stroke-width="1"/>
            <g id="Grupo_23516" data-name="Grupo 23516" transform="translate(20.886)">
              <path id="Trazado_6695" data-name="Trazado 6695" d="M642.865,289.812c.107-7.825-.22-16.452-.22-16.452l22.111-8.347s1.5,23.757,1.712,25.9-8.715,9.417-15.7,11.771a19.124,19.124,0,0,1-3.747.937l.016.065-3.625,9.234-1.543-10.056S639.644,298.339,642.865,289.812Z" transform="translate(-636.106 -265.013)" fill="#ffbe92"/>
              <path id="Trazado_6696" data-name="Trazado 6696" d="M664.789,265.659c.01.162.023.359.036.578.091,1.422.251,3.951.44,6.892-4.4,7.593-16.427,19.831-24.134,24.478a25.189,25.189,0,0,1,1.726-7.794c.107-7.825-.22-16.452-.22-16.452l22.111-8.347.007.117C664.762,265.231,664.771,265.39,664.789,265.659Z" transform="translate(-636.098 -265.013)" fill="#e0a780"/>
              <path id="Trazado_6697" data-name="Trazado 6697" d="M644.009,293.667l-5.762,2.869s1.525-14.049,6.539-19.185l.766,1.888S642.472,290.456,644.009,293.667Z" transform="translate(-638.247 -255.819)" fill="#cbe7fa"/>
              <path id="Trazado_6698" data-name="Trazado 6698" d="M663.761,278.433s-3.113,11.555-19.26,15.185l5.183,6.607s12.047-5.9,18.51-17.429A17.387,17.387,0,0,0,663.761,278.433Z" transform="translate(-633.587 -255.013)" fill="#cbe7fa"/>
            </g>
          </g>
          <g id="Grupo_23519" data-name="Grupo 23519" transform="translate(26.095)">
            <g id="Grupo_23518" data-name="Grupo 23518" transform="translate(2.467 3.113)">
              <path id="Trazado_6699" data-name="Trazado 6699" d="M641.768,252.935a9.908,9.908,0,0,1,3.274-2.108c14.63-5.625,28.164-1.26,30.31,17.822,2.218,19.71-22.03,33.965-30.166,34.881s-12.5-23.038-11.229-34.16A26.6,26.6,0,0,1,641.768,252.935Z" transform="translate(-633.741 -248.548)" fill="#ffbe92"/>
            </g>
            <path id="Trazado_6700" data-name="Trazado 6700" d="M673.931,283.28s2.654-12.485-2.639-13.009-8.848,10.216-8.848,10.216a26.421,26.421,0,0,1,0-13.361s-9.558,5.5-30.117,4.192a70.686,70.686,0,0,1,5.382-14.408c3.4-6.288,10.174-11.789,24.734-9.693s13.258,12.05,13.258,12.05,1.389,1.028,3.222,5.754S677.6,277.488,673.931,283.28Z" transform="translate(-632.328 -246.764)" fill="#544340"/>
          </g>
          <g id="Grupo_23522" data-name="Grupo 23522" transform="translate(0.509 65.219)">
            <path id="Trazado_6701" data-name="Trazado 6701" d="M644.979,316.585s-9.827-8.637-14.319-9.284-6.3-.777-7.209.518S633,314.55,633,314.55s-11.3-5.462-13.3-3.864,9.061,7.358,9.061,7.358-9.061-3.754-10.872-2.2,8.283,6.473,8.283,6.473Z" transform="translate(-617.667 -267.227)" fill="#ffbe92"/>
            <path id="Trazado_6702" data-name="Trazado 6702" d="M666.554,334.587s1.014,6.473-1.058,6.6-5.694-4.66-5.694-4.66-2.349,2.846-3.829,2.2-3.419-6.344-3.419-6.344-.5,5.178-1.544,5.049-4.539-7.119-4.539-7.119Z" transform="translate(-596.204 -249.721)" fill="#ffbe92"/>
            <path id="Trazado_6703" data-name="Trazado 6703" d="M645.885,312.726c.337.258,15.145,2.716,19.471,16.176h-9.735Z" transform="translate(-596.64 -262.829)" fill="#ffbe92"/>
            <g id="Grupo_23521" data-name="Grupo 23521" transform="translate(16.891)">
              <g id="Grupo_23520" data-name="Grupo 23520">
                <path id="Trazado_6704" data-name="Trazado 6704" d="M630.379,332.939a.56.56,0,0,0-.494.351c-.723,1.792-4.016,10.721-1.763,19.485a.589.589,0,0,0,.576.45c3.988-.068,59.209,31.89,70.847,14.337a145.28,145.28,0,0,0,10.382-55.469c-.307-17.494-3.9-24.087-14.892-27.958,0,0-10.823,11.841-9.7,39.424,0,0-.557,12.946-8.009,23.157Z" transform="translate(-627.346 -284.135)" fill="#a63838"/>
              </g>
            </g>
            <path id="Trazado_6705" data-name="Trazado 6705" d="M619.059,332.027c1.717,2.953,5.031,8.194,23.183.473,13.557-5.766,37.937-4.284,37.937-4.284s-.6-11.855-2.853-15.122c-5.565-1.712-20.321-2.147-25.356-1.78-12.642.923-23.047,2.12-27.595,5.6C617.351,322.28,617.082,328.624,619.059,332.027Z" transform="translate(-617.421 -263.972)" fill="#943232"/>
          </g>
        </g>
      </g>
    </g>
    <path id="Trazado_172609" data-name="Trazado 172609" d="M10.359,0H7.633L3.6-7.078V0H.859V-11.375H3.6L7.625-4.3v-7.078h2.734Zm1.281-4.3a4.989,4.989,0,0,1,.492-2.254,3.52,3.52,0,0,1,1.414-1.52,4.259,4.259,0,0,1,2.164-.531A3.887,3.887,0,0,1,18.7-7.434a4.512,4.512,0,0,1,1.094,3.2v.094A4.378,4.378,0,0,1,18.7-1,3.9,3.9,0,0,1,15.727.156a3.942,3.942,0,0,1-2.9-1.082,4.232,4.232,0,0,1-1.18-2.934Zm2.633.164a3.145,3.145,0,0,0,.367,1.719,1.223,1.223,0,0,0,1.086.547q1.406,0,1.438-2.164V-4.3q0-2.273-1.453-2.273-1.32,0-1.43,1.961Zm9.172-4.312.086.992a2.906,2.906,0,0,1,2.414-1.148,2.14,2.14,0,0,1,2.164,1.273,2.813,2.813,0,0,1,2.484-1.273q2.57,0,2.641,3.109V0H30.594V-5.336a1.611,1.611,0,0,0-.219-.945.931.931,0,0,0-.8-.3,1.247,1.247,0,0,0-1.164.7l.008.109V0H25.781V-5.32a1.694,1.694,0,0,0-.211-.961.929.929,0,0,0-.8-.3,1.263,1.263,0,0,0-1.156.7V0H20.977V-8.453Zm19.141,4.3a5.152,5.152,0,0,1-.859,3.2A2.878,2.878,0,0,1,39.3.156,2.5,2.5,0,0,1,37.227-.867L37.117,0H34.758V-12h2.633v4.227a2.41,2.41,0,0,1,1.9-.836,2.879,2.879,0,0,1,2.438,1.133,5.179,5.179,0,0,1,.859,3.188Zm-2.641-.168a3.437,3.437,0,0,0-.324-1.735,1.093,1.093,0,0,0-1-.519,1.261,1.261,0,0,0-1.234.679v3.354a1.268,1.268,0,0,0,1.25.671,1.118,1.118,0,0,0,1.18-.9A6.5,6.5,0,0,0,39.945-4.324ZM48.859-6.07l-.867-.062a1.558,1.558,0,0,0-1.594.781V0H43.766V-8.453h2.469l.086,1.086a2.039,2.039,0,0,1,1.852-1.242,2.567,2.567,0,0,1,.734.094ZM53.9.156A4.345,4.345,0,0,1,50.75-1a4.006,4.006,0,0,1-1.2-3.02v-.219a5.191,5.191,0,0,1,.48-2.289,3.516,3.516,0,0,1,1.4-1.535,4.233,4.233,0,0,1,2.188-.543A3.659,3.659,0,0,1,56.43-7.5a4.344,4.344,0,0,1,1.031,3.082V-3.4H52.227a1.9,1.9,0,0,0,.617,1.117,1.836,1.836,0,0,0,1.234.406,2.366,2.366,0,0,0,1.953-.875l1.2,1.422A3.363,3.363,0,0,1,55.84-.246,4.713,4.713,0,0,1,53.9.156Zm-.3-6.734q-1.156,0-1.375,1.531h2.656v-.2a1.3,1.3,0,0,0-.32-.98A1.275,1.275,0,0,0,53.6-6.578Zm8.57,2.289a5.164,5.164,0,0,1,.867-3.164,2.854,2.854,0,0,1,2.422-1.156,2.428,2.428,0,0,1,1.906.891V-12h2.641V0H67.641l-.133-.906A2.493,2.493,0,0,1,65.445.156,2.849,2.849,0,0,1,63.055-1,5.327,5.327,0,0,1,62.172-4.289Zm2.633.164q0,2.25,1.313,2.25a1.3,1.3,0,0,0,1.25-.734V-5.828a1.261,1.261,0,0,0-1.234-.75q-1.219,0-1.32,1.969ZM75.594.156A4.345,4.345,0,0,1,72.445-1a4.006,4.006,0,0,1-1.2-3.02v-.219a5.191,5.191,0,0,1,.48-2.289,3.516,3.516,0,0,1,1.4-1.535,4.233,4.233,0,0,1,2.188-.543A3.659,3.659,0,0,1,78.125-7.5a4.344,4.344,0,0,1,1.031,3.082V-3.4H73.922a1.9,1.9,0,0,0,.617,1.117,1.836,1.836,0,0,0,1.234.406,2.366,2.366,0,0,0,1.953-.875l1.2,1.422A3.363,3.363,0,0,1,77.535-.246,4.713,4.713,0,0,1,75.594.156Zm-.3-6.734q-1.156,0-1.375,1.531h2.656v-.2a1.3,1.3,0,0,0-.32-.98A1.275,1.275,0,0,0,75.3-6.578ZM82.992,0H80.352V-12h2.641ZM93.359,0a2.973,2.973,0,0,1-.25-.758,2.448,2.448,0,0,1-2.031.914,3,3,0,0,1-2.031-.723,2.3,2.3,0,0,1-.836-1.816,2.364,2.364,0,0,1,1.016-2.078,5.174,5.174,0,0,1,2.953-.7h.813v-.448q0-1.17-1.008-1.17a.824.824,0,0,0-.937.926H88.414a2.36,2.36,0,0,1,1.043-1.99,4.383,4.383,0,0,1,2.66-.765,3.843,3.843,0,0,1,2.555.789,2.743,2.743,0,0,1,.961,2.164v3.742a3.832,3.832,0,0,0,.359,1.781V0ZM91.711-1.719a1.469,1.469,0,0,0,.816-.211,1.322,1.322,0,0,0,.465-.477V-3.758h-.766q-1.375,0-1.375,1.234a.754.754,0,0,0,.242.582A.876.876,0,0,0,91.711-1.719Zm8.953-.156a1.171,1.171,0,0,0,.859-.3,1.1,1.1,0,0,0,.3-.84h2.469a2.922,2.922,0,0,1-1,2.281,3.705,3.705,0,0,1-2.566.891A3.751,3.751,0,0,1,97.82-1a4.556,4.556,0,0,1-1.062-3.2v-.109a5.149,5.149,0,0,1,.473-2.262,3.441,3.441,0,0,1,1.363-1.508,4.065,4.065,0,0,1,2.109-.527,3.658,3.658,0,0,1,2.617.914,3.242,3.242,0,0,1,.969,2.477H101.82a1.445,1.445,0,0,0-.32-1.008,1.106,1.106,0,0,0-.859-.352q-1.023,0-1.2,1.3a9.206,9.206,0,0,0-.055,1.141,3.616,3.616,0,0,0,.3,1.766A1.055,1.055,0,0,0,100.664-1.875Zm7.8-8.68v2.1h1.391v1.828h-1.391v3.867a.987.987,0,0,0,.172.664.922.922,0,0,0,.68.188,3.862,3.862,0,0,0,.656-.047V-.07a4.859,4.859,0,0,1-1.484.227,2.758,2.758,0,0,1-2.008-.641,2.626,2.626,0,0,1-.648-1.945v-4.2h-1.078V-8.453h1.078v-2.1Zm1.859,6.25a4.989,4.989,0,0,1,.492-2.254,3.52,3.52,0,0,1,1.414-1.52,4.259,4.259,0,0,1,2.164-.531,3.887,3.887,0,0,1,2.992,1.176,4.512,4.512,0,0,1,1.094,3.2v.094A4.378,4.378,0,0,1,117.387-1a3.9,3.9,0,0,1-2.973,1.16,3.942,3.942,0,0,1-2.9-1.082,4.232,4.232,0,0,1-1.18-2.934Zm2.633.164a3.145,3.145,0,0,0,.367,1.719,1.223,1.223,0,0,0,1.086.547q1.406,0,1.438-2.164V-4.3q0-2.273-1.453-2.273-1.32,0-1.43,1.961Zm11.8-1.93-.867-.062a1.558,1.558,0,0,0-1.594.781V0h-2.633V-8.453h2.469l.086,1.086a2.039,2.039,0,0,1,1.852-1.242,2.567,2.567,0,0,1,.734.094Z" transform="translate(1284 16701)" fill="#00104e"/>
  </g>
</svg>
