<svg xmlns="http://www.w3.org/2000/svg" width="99.749" height="94.024" viewBox="0 0 99.749 94.024">
  <g id="desarrollo" transform="translate(-4.5 -6.36)">
    <g id="Grupo_112490" data-name="Grupo 112490" transform="translate(40.726 85.242)">
      <path id="Trazado_167752" data-name="Trazado 167752" d="M51.739,57.77l3.652,10.51H28.11l3.652-10.51Z" transform="translate(-28.11 -57.77)" fill="#3b4346"/>
    </g>
    <g id="Grupo_112491" data-name="Grupo 112491" transform="translate(39.957 84.459)">
      <path id="Trazado_167753" data-name="Trazado 167753" d="M55.659,69.32H28.378A.8.8,0,0,1,27.749,69a.74.74,0,0,1-.092-.69l3.652-10.526a.775.775,0,0,1,.721-.522H52.007a.755.755,0,0,1,.721.522L56.38,68.307a.786.786,0,0,1-.092.69.758.758,0,0,1-.629.322ZM29.452,67.786H54.57l-3.115-8.991H32.582Z" transform="translate(-27.609 -57.26)"/>
    </g>
    <g id="Grupo_112492" data-name="Grupo 112492" transform="translate(32.763 95.752)">
      <path id="Trazado_167754" data-name="Trazado 167754" d="M66.113,66.553a1.935,1.935,0,0,1-1.933,1.933H24.853a1.933,1.933,0,0,1,0-3.867H64.179A1.935,1.935,0,0,1,66.113,66.553Z" transform="translate(-22.92 -64.62)" fill="#545859"/>
    </g>
    <g id="Grupo_112493" data-name="Grupo 112493" transform="translate(31.996 94.985)">
      <path id="Trazado_167755" data-name="Trazado 167755" d="M64.462,69.521H25.12a2.7,2.7,0,1,1,0-5.4H64.446a2.7,2.7,0,0,1,.015,5.4ZM25.12,65.654a1.166,1.166,0,0,0,0,2.332H64.446a1.166,1.166,0,0,0,0-2.332Z" transform="translate(-22.42 -64.12)"/>
    </g>
    <g id="Grupo_112494" data-name="Grupo 112494" transform="translate(5.267 20.983)">
      <path id="Trazado_167756" data-name="Trazado 167756" d="M103.2,21.675v52.69a5.789,5.789,0,0,1-5.785,5.785H10.785A5.776,5.776,0,0,1,5,74.38V21.675a5.789,5.789,0,0,1,5.785-5.785H97.43a5.8,5.8,0,0,1,5.769,5.785Z" transform="translate(-5 -15.89)" fill="#ebebeb"/>
    </g>
    <g id="Grupo_112495" data-name="Grupo 112495" transform="translate(4.5 20.215)">
      <path id="Trazado_167757" data-name="Trazado 167757" d="M97.682,81.184H11.052A6.558,6.558,0,0,1,4.5,74.632V21.942a6.558,6.558,0,0,1,6.552-6.552H97.7a6.558,6.558,0,0,1,6.552,6.552v52.69A6.571,6.571,0,0,1,97.682,81.184ZM11.052,16.94a5.029,5.029,0,0,0-5.017,5.017v52.69a5.029,5.029,0,0,0,5.017,5.017H97.7a5.029,5.029,0,0,0,5.017-5.017V21.942A5.029,5.029,0,0,0,97.7,16.924H11.052Z" transform="translate(-4.5 -15.39)"/>
    </g>
    <g id="Grupo_112496" data-name="Grupo 112496" transform="translate(5.267 7.127)">
      <path id="Trazado_167758" data-name="Trazado 167758" d="M103.2,12.645v52.69a5.789,5.789,0,0,1-5.785,5.785H10.785A5.789,5.789,0,0,1,5,65.335V12.645A5.789,5.789,0,0,1,10.785,6.86H97.43a5.786,5.786,0,0,1,5.769,5.785Z" transform="translate(-5 -6.86)" fill="#3b4346"/>
    </g>
    <g id="Grupo_112497" data-name="Grupo 112497" transform="translate(4.5 6.36)">
      <path id="Trazado_167759" data-name="Trazado 167759" d="M97.682,72.154H11.052A6.558,6.558,0,0,1,4.5,65.6V12.912A6.558,6.558,0,0,1,11.052,6.36H97.7a6.558,6.558,0,0,1,6.552,6.552V65.6A6.571,6.571,0,0,1,97.682,72.154ZM11.052,7.894a5.029,5.029,0,0,0-5.017,5.017V65.6a5.029,5.029,0,0,0,5.017,5.017H97.7a5.029,5.029,0,0,0,5.017-5.017V12.912A5.029,5.029,0,0,0,97.7,7.894Z" transform="translate(-4.5 -6.36)"/>
    </g>
    <g id="Grupo_112498" data-name="Grupo 112498" transform="translate(11.052 12.912)">
      <path id="Trazado_167760" data-name="Trazado 167760" d="M8.77,10.63H95.416V63.32H8.77Z" transform="translate(-8.77 -10.63)" fill="#54b8ea"/>
    </g>
    <g id="Grupo_112501" data-name="Grupo 112501" transform="translate(63.809 16.368)">
      <g id="Grupo_112499" data-name="Grupo 112499" transform="translate(0.775 0.761)">
        <path id="Trazado_167761" data-name="Trazado 167761" d="M73.167,31.824a3.858,3.858,0,0,1,0-7.073.526.526,0,0,0,.276-.583A15.267,15.267,0,0,0,72,20.669a.517.517,0,0,0-.644-.215,3.851,3.851,0,0,1-4.971-4.971.511.511,0,0,0-.215-.644,15.267,15.267,0,0,0-3.5-1.442.491.491,0,0,0-.583.276,3.856,3.856,0,0,1-7.058,0,.535.535,0,0,0-.583-.276,15.267,15.267,0,0,0-3.5,1.442.517.517,0,0,0-.215.644,3.851,3.851,0,0,1-4.971,4.971.511.511,0,0,0-.644.215,15.267,15.267,0,0,0-1.442,3.5.491.491,0,0,0,.276.583,3.858,3.858,0,0,1,0,7.073.526.526,0,0,0-.276.583,15.267,15.267,0,0,0,1.442,3.5.51.51,0,0,0,.644.2,3.859,3.859,0,0,1,4.971,4.971.511.511,0,0,0,.215.644,15.267,15.267,0,0,0,3.5,1.442.491.491,0,0,0,.583-.276,3.82,3.82,0,0,1,3.529-2.3,3.861,3.861,0,0,1,3.529,2.3.507.507,0,0,0,.583.276,15.267,15.267,0,0,0,3.5-1.442.517.517,0,0,0,.215-.644A3.859,3.859,0,0,1,71.356,36.1a.505.505,0,0,0,.644-.2,15.267,15.267,0,0,0,1.442-3.5.491.491,0,0,0-.276-.583ZM58.559,34.77a6.49,6.49,0,1,1,6.49-6.49A6.483,6.483,0,0,1,58.559,34.77Z" transform="translate(-43.659 -13.379)" fill="#fff"/>
      </g>
      <g id="Grupo_112500" data-name="Grupo 112500">
        <path id="Trazado_167762" data-name="Trazado 167762" d="M54.84,44.21a1.168,1.168,0,0,1-.322-.046,16.229,16.229,0,0,1-3.682-1.519,1.284,1.284,0,0,1-.552-1.6,3.1,3.1,0,0,0-3.989-3.974,1.269,1.269,0,0,1-1.58-.537,15.56,15.56,0,0,1-1.519-3.682,1.277,1.277,0,0,1,.706-1.488,3.087,3.087,0,0,0,0-5.662,1.277,1.277,0,0,1-.706-1.488,15.953,15.953,0,0,1,1.519-3.667,1.278,1.278,0,0,1,1.6-.537,3.09,3.09,0,0,0,3.974-3.989,1.269,1.269,0,0,1,.537-1.58A16.96,16.96,0,0,1,54.5,12.925a1.293,1.293,0,0,1,1.488.675,3.087,3.087,0,0,0,5.662.031,1.275,1.275,0,0,1,1.473-.706,16.651,16.651,0,0,1,3.682,1.519,1.284,1.284,0,0,1,.552,1.6,3.09,3.09,0,0,0,3.989,3.974,1.269,1.269,0,0,1,1.58.537,15.674,15.674,0,0,1,1.519,3.682,1.261,1.261,0,0,1-.706,1.488,3.087,3.087,0,0,0,0,5.662,1.294,1.294,0,0,1,.706,1.488,16.96,16.96,0,0,1-1.519,3.682,1.278,1.278,0,0,1-1.6.537A3.09,3.09,0,0,0,67.36,41.08a1.269,1.269,0,0,1-.537,1.58,16.959,16.959,0,0,1-3.682,1.519,1.245,1.245,0,0,1-1.488-.706,3.085,3.085,0,0,0-5.646,0,1.282,1.282,0,0,1-1.166.736ZM51.8,41.418a14.951,14.951,0,0,0,2.915,1.2,4.618,4.618,0,0,1,8.255,0,15.218,15.218,0,0,0,2.9-1.2,4.626,4.626,0,0,1,5.846-5.846,15.218,15.218,0,0,0,1.2-2.9,4.63,4.63,0,0,1,0-8.27A13.656,13.656,0,0,0,71.7,21.5a4.626,4.626,0,0,1-5.846-5.846,15.219,15.219,0,0,0-2.9-1.2,4.618,4.618,0,0,1-8.255,0,15.773,15.773,0,0,0-2.915,1.2A4.626,4.626,0,0,1,45.941,21.5a14.5,14.5,0,0,0-1.212,2.9,4.63,4.63,0,0,1,0,8.27,14.82,14.82,0,0,0,1.2,2.9A4.652,4.652,0,0,1,51.8,41.418ZM71.9,21.44c-.015,0-.015.015,0,0C71.887,21.456,71.887,21.44,71.9,21.44Zm-5.969-5.953ZM58.829,35.8a7.258,7.258,0,1,1,7.258-7.258A7.262,7.262,0,0,1,58.829,35.8Zm0-12.981a5.723,5.723,0,1,0,5.723,5.723A5.723,5.723,0,0,0,58.829,22.821Z" transform="translate(-43.154 -12.883)"/>
      </g>
    </g>
    <g id="Grupo_112502" data-name="Grupo 112502" transform="translate(10.285 12.145)">
      <path id="Trazado_167763" data-name="Trazado 167763" d="M95.668,64.355H9.037a.76.76,0,0,1-.767-.767V10.9a.76.76,0,0,1,.767-.767H95.683a.76.76,0,0,1,.767.767v52.69A.783.783,0,0,1,95.668,64.355ZM9.8,62.82H94.916V11.664H9.8Z" transform="translate(-8.27 -10.13)"/>
    </g>
    <g id="Grupo_112503" data-name="Grupo 112503" transform="translate(5.267 7.127)" opacity="0.15">
      <path id="Trazado_167764" data-name="Trazado 167764" d="M85.907,6.86H10.785A5.789,5.789,0,0,0,5,12.645V68.3H61.772A24.131,24.131,0,0,0,85.907,44.161Z" transform="translate(-5 -6.86)" fill="#fff"/>
    </g>
    <g id="Grupo_112504" data-name="Grupo 112504" transform="translate(5.267 7.127)" opacity="0.15">
      <path id="Trazado_167765" data-name="Trazado 167765" d="M67.8,6.86V26.055A24.14,24.14,0,0,1,43.666,50.191H5V12.645A5.789,5.789,0,0,1,10.785,6.86Z" transform="translate(-5 -6.86)" fill="#fff"/>
    </g>
    <g id="Grupo_112505" data-name="Grupo 112505" transform="translate(51.482 75.422)">
      <path id="Trazado_167766" data-name="Trazado 167766" d="M40.889,54.255A2.885,2.885,0,1,1,38,51.37,2.881,2.881,0,0,1,40.889,54.255Z" transform="translate(-35.12 -51.37)" fill="#3b4346"/>
    </g>
    <g id="Grupo_112506" data-name="Grupo 112506" transform="translate(50.715 74.67)">
      <path id="Trazado_167767" data-name="Trazado 167767" d="M38.272,58.184a3.652,3.652,0,1,1,3.652-3.652A3.661,3.661,0,0,1,38.272,58.184Zm0-5.785a2.117,2.117,0,1,0,2.117,2.117A2.122,2.122,0,0,0,38.272,52.4Z" transform="translate(-34.62 -50.88)"/>
    </g>
    <g id="Grupo_112525" data-name="Grupo 112525" transform="translate(15.409 22.21)">
      <g id="Grupo_112507" data-name="Grupo 112507" transform="translate(0 4.419)">
        <path id="Trazado_167768" data-name="Trazado 167768" d="M22.535,21.1H12.377a.767.767,0,0,1,0-1.534H22.535a.76.76,0,0,1,.767.767A.769.769,0,0,1,22.535,21.1Z" transform="translate(-11.61 -19.57)"/>
      </g>
      <g id="Grupo_112508" data-name="Grupo 112508" transform="translate(34.324 4.419)">
        <path id="Trazado_167769" data-name="Trazado 167769" d="M44.9,21.1H34.747a.767.767,0,0,1,0-1.534H44.9a.767.767,0,1,1,0,1.534Z" transform="translate(-33.98 -19.57)"/>
      </g>
      <g id="Grupo_112509" data-name="Grupo 112509" transform="translate(12.935 4.419)">
        <path id="Trazado_167770" data-name="Trazado 167770" d="M39.158,21.1H20.807a.767.767,0,0,1,0-1.534H39.158a.76.76,0,0,1,.767.767A.769.769,0,0,1,39.158,21.1Z" transform="translate(-20.04 -19.57)"/>
      </g>
      <g id="Grupo_112510" data-name="Grupo 112510" transform="translate(0 13.595)">
        <path id="Trazado_167771" data-name="Trazado 167771" d="M22.535,27.084H12.377a.767.767,0,1,1,0-1.534H22.535a.76.76,0,0,1,.767.767A.769.769,0,0,1,22.535,27.084Z" transform="translate(-11.61 -25.55)"/>
      </g>
      <g id="Grupo_112511" data-name="Grupo 112511" transform="translate(34.324 13.595)">
        <path id="Trazado_167772" data-name="Trazado 167772" d="M44.9,27.084H34.747a.767.767,0,0,1,0-1.534H44.9a.767.767,0,1,1,0,1.534Z" transform="translate(-33.98 -25.55)"/>
      </g>
      <g id="Grupo_112512" data-name="Grupo 112512" transform="translate(12.935 13.595)">
        <path id="Trazado_167773" data-name="Trazado 167773" d="M39.158,27.084H20.807a.767.767,0,0,1,0-1.534H39.158a.76.76,0,0,1,.767.767A.769.769,0,0,1,39.158,27.084Z" transform="translate(-20.04 -25.55)"/>
      </g>
      <g id="Grupo_112513" data-name="Grupo 112513" transform="translate(21.389 8.823)">
        <path id="Trazado_167774" data-name="Trazado 167774" d="M36.475,23.974H26.317a.767.767,0,1,1,0-1.534H36.475a.767.767,0,1,1,0,1.534Z" transform="translate(-25.55 -22.44)"/>
      </g>
      <g id="Grupo_112514" data-name="Grupo 112514" transform="translate(0 8.823)">
        <path id="Trazado_167775" data-name="Trazado 167775" d="M30.728,23.974H12.377a.767.767,0,0,1,0-1.534H30.728a.767.767,0,1,1,0,1.534Z" transform="translate(-11.61 -22.44)"/>
      </g>
      <g id="Grupo_112515" data-name="Grupo 112515">
        <path id="Trazado_167776" data-name="Trazado 167776" d="M28.3,18.224H12.377a.767.767,0,0,1,0-1.534H28.3a.767.767,0,0,1,0,1.534Z" transform="translate(-11.61 -16.69)"/>
      </g>
      <g id="Grupo_112516" data-name="Grupo 112516" transform="translate(0 23.399)">
        <path id="Trazado_167777" data-name="Trazado 167777" d="M22.535,33.474H12.377a.767.767,0,0,1,0-1.534H22.535a.76.76,0,0,1,.767.767A.769.769,0,0,1,22.535,33.474Z" transform="translate(-11.61 -31.94)"/>
      </g>
      <g id="Grupo_112517" data-name="Grupo 112517" transform="translate(34.324 23.399)">
        <path id="Trazado_167778" data-name="Trazado 167778" d="M44.9,33.474H34.747a.767.767,0,0,1,0-1.534H44.9a.767.767,0,0,1,0,1.534Z" transform="translate(-33.98 -31.94)"/>
      </g>
      <g id="Grupo_112518" data-name="Grupo 112518" transform="translate(12.935 23.399)">
        <path id="Trazado_167779" data-name="Trazado 167779" d="M39.158,33.474H20.807a.767.767,0,0,1,0-1.534H39.158a.76.76,0,0,1,.767.767A.769.769,0,0,1,39.158,33.474Z" transform="translate(-20.04 -31.94)"/>
      </g>
      <g id="Grupo_112519" data-name="Grupo 112519" transform="translate(0 32.575)">
        <path id="Trazado_167780" data-name="Trazado 167780" d="M22.535,39.454H12.377a.767.767,0,1,1,0-1.534H22.535a.76.76,0,0,1,.767.767A.769.769,0,0,1,22.535,39.454Z" transform="translate(-11.61 -37.92)"/>
      </g>
      <g id="Grupo_112520" data-name="Grupo 112520" transform="translate(34.324 32.575)">
        <path id="Trazado_167781" data-name="Trazado 167781" d="M44.9,39.454H34.747a.767.767,0,0,1,0-1.534H44.9a.767.767,0,1,1,0,1.534Z" transform="translate(-33.98 -37.92)"/>
      </g>
      <g id="Grupo_112521" data-name="Grupo 112521" transform="translate(12.935 32.575)">
        <path id="Trazado_167782" data-name="Trazado 167782" d="M39.158,39.454H20.807a.767.767,0,0,1,0-1.534H39.158a.76.76,0,0,1,.767.767A.769.769,0,0,1,39.158,39.454Z" transform="translate(-20.04 -37.92)"/>
      </g>
      <g id="Grupo_112522" data-name="Grupo 112522" transform="translate(21.389 27.803)">
        <path id="Trazado_167783" data-name="Trazado 167783" d="M36.475,36.344H26.317a.767.767,0,1,1,0-1.534H36.475a.767.767,0,1,1,0,1.534Z" transform="translate(-25.55 -34.81)"/>
      </g>
      <g id="Grupo_112523" data-name="Grupo 112523" transform="translate(0 27.803)">
        <path id="Trazado_167784" data-name="Trazado 167784" d="M30.728,36.344H12.377a.767.767,0,1,1,0-1.534H30.728a.767.767,0,1,1,0,1.534Z" transform="translate(-11.61 -34.81)"/>
      </g>
      <g id="Grupo_112524" data-name="Grupo 112524" transform="translate(0 18.98)">
        <path id="Trazado_167785" data-name="Trazado 167785" d="M28.3,30.594H12.377a.767.767,0,1,1,0-1.534H28.3a.767.767,0,0,1,0,1.534Z" transform="translate(-11.61 -29.06)"/>
      </g>
    </g>
  </g>
</svg>
